<svg id="Warstwa_1" data-name="Warstwa 1" xmlns="http://www.w3.org/2000/svg" viewBox="0 0 410 70"><defs><style>.cls-1{fill:#005ca5;}.cls-2{fill:none;stroke:#cbd413;stroke-miterlimit:10;stroke-width:1.85px;}</style></defs><title>antyseptyka_mozliwa</title><path class="cls-1" d="M51.55,21.38a3.78,3.78,0,0,1-1.09.12,3,3,0,0,1-1-.12l-.86-2.5H44.39l-.87,2.5a3.22,3.22,0,0,1-1,.12,3,3,0,0,1-.94-.12l3.73-10.91a5.29,5.29,0,0,1,1.25-.12,4.93,4.93,0,0,1,1.24.12Zm-6.68-4h3.27l-1.21-3.46a11.91,11.91,0,0,1-.4-1.56h-.05a10.51,10.51,0,0,1-.39,1.56Z"/><path class="cls-1" d="M52.54,21.39v-8a3,3,0,0,1,1-.12,3.23,3.23,0,0,1,1,.12v.63a3,3,0,0,1,2.24-.89,2.16,2.16,0,0,1,2.37,2.32v5.9a3.29,3.29,0,0,1-1,.11,3.25,3.25,0,0,1-1-.11V15.88c0-.75-.37-1.16-1.22-1.16a1.77,1.77,0,0,0-1.44.77v5.9a3.5,3.5,0,0,1-1,.11A3.21,3.21,0,0,1,52.54,21.39Z"/><path class="cls-1" d="M65.58,20.85a2.1,2.1,0,0,1-.09.65,5.38,5.38,0,0,1-1.29.15c-2,0-2.79-1-2.79-3V14.73H60.27a2.12,2.12,0,0,1-.1-.7,2,2,0,0,1,.1-.72h1.14V11.87a3.65,3.65,0,0,1,2-.35v1.79h1.86a2,2,0,0,1,.11.71,2.19,2.19,0,0,1-.11.71H63.36v3.84c0,1.21.44,1.57,1.4,1.57a3.09,3.09,0,0,0,.66-.08A1.86,1.86,0,0,1,65.58,20.85Z"/><path class="cls-1" d="M73.77,13.41,70.89,22.6c-.56,1.78-1.21,2.77-3,2.77a3.21,3.21,0,0,1-1.11-.17,1.81,1.81,0,0,1-.13-.7,2.15,2.15,0,0,1,.14-.76,3,3,0,0,0,.71.07c.79,0,1.18-.19,1.61-1.55l.27-.78a2,2,0,0,1-.61-.09l-2.85-8a4.61,4.61,0,0,1,1-.1,3.69,3.69,0,0,1,1,.1l1.55,4.25a11.12,11.12,0,0,1,.51,2h.06a15.38,15.38,0,0,1,.47-2l1.35-4.25a3.47,3.47,0,0,1,.94-.1A4,4,0,0,1,73.77,13.41Z"/><path class="cls-1" d="M74.41,21.07a1.91,1.91,0,0,1,.48-1.37,6,6,0,0,0,2.1.37c1,0,1.41-.29,1.41-.91s-.85-.88-1.75-1.16-2.12-.78-2.12-2.31,1-2.52,3-2.52a5.27,5.27,0,0,1,2.37.45A1.77,1.77,0,0,1,79.46,15a5.48,5.48,0,0,0-1.71-.25c-.94,0-1.39.33-1.39.91s1,.79,1.92,1.12a2.37,2.37,0,0,1,2,2.37c0,1.59-1,2.55-3.14,2.55A6.23,6.23,0,0,1,74.41,21.07Z"/><path class="cls-1" d="M87.77,18H83.31c.14,1.56.81,2,1.94,2A3.53,3.53,0,0,0,87,19.61,2.06,2.06,0,0,1,87.59,21a4.61,4.61,0,0,1-2.67.69c-2.44,0-3.61-1.37-3.61-4.22s1.37-4.26,3.53-4.26a2.81,2.81,0,0,1,3.1,3.16A7.47,7.47,0,0,1,87.77,18Zm-4.46-1.27h2.81c0-.19,0-.4,0-.62,0-.82-.33-1.49-1.27-1.49S83.42,15.2,83.31,16.73Z"/><path class="cls-1" d="M96.35,17.41c0,3.16-1.16,4.24-2.91,4.24a2.49,2.49,0,0,1-2.12-.89v4.18a3.72,3.72,0,0,1-1,.11,3.25,3.25,0,0,1-1-.11V13.41a3.56,3.56,0,0,1,1-.1,4.07,4.07,0,0,1,1,.1v.65a2.51,2.51,0,0,1,2.14-.89C95.18,13.17,96.35,14.2,96.35,17.41Zm-2,0c0-2.12-.51-2.69-1.57-2.69-.89,0-1.4.74-1.42,1.67v2c0,.92.48,1.75,1.42,1.75S94.31,19.58,94.31,17.41Z"/><path class="cls-1" d="M102.56,20.85a2.1,2.1,0,0,1-.09.65,5.23,5.23,0,0,1-1.28.15c-2,0-2.79-1-2.79-3V14.73H97.25a2.34,2.34,0,0,1-.09-.7,2.25,2.25,0,0,1,.09-.72H98.4V11.87a3.65,3.65,0,0,1,1.95-.35v1.79h1.86a2,2,0,0,1,.11.71,2.19,2.19,0,0,1-.11.71h-1.86v3.84c0,1.21.43,1.57,1.39,1.57a3.24,3.24,0,0,0,.67-.08A2,2,0,0,1,102.56,20.85Z"/><path class="cls-1" d="M110.76,13.41l-2.88,9.19c-.56,1.78-1.21,2.77-3,2.77a3.33,3.33,0,0,1-1.12-.17,1.94,1.94,0,0,1-.12-.7,2.15,2.15,0,0,1,.14-.76,2.88,2.88,0,0,0,.71.07c.79,0,1.18-.19,1.61-1.55l.26-.78a1.93,1.93,0,0,1-.6-.09l-2.85-8a4.61,4.61,0,0,1,1-.1,3.78,3.78,0,0,1,1,.1l1.55,4.25a12.31,12.31,0,0,1,.51,2H107a14.23,14.23,0,0,1,.46-2l1.35-4.25a3.61,3.61,0,0,1,1-.1A4.15,4.15,0,0,1,110.76,13.41Z"/><path class="cls-1" d="M118.69,21.39a4.59,4.59,0,0,1-1.1.12,4.14,4.14,0,0,1-1.06-.12l-2-3.45h-.75v3.45a3.51,3.51,0,0,1-1,.11,3.72,3.72,0,0,1-1-.11V10a5.17,5.17,0,0,1,1-.08,5.41,5.41,0,0,1,1,.08v6.55h.76l1.81-3.1a3.74,3.74,0,0,1,1-.1,4.49,4.49,0,0,1,1,.1l-2.12,3.69Z"/><path class="cls-1" d="M125.7,16.12v5.27a2.25,2.25,0,0,1-.8.11,2.65,2.65,0,0,1-.81-.11l-.25-.9a2.3,2.3,0,0,1-2.3,1.16c-1.51,0-2.41-.86-2.41-2.61s1-2.48,3-2.48c.6,0,1.16.06,1.58.09V16.2c0-.91-.4-1.42-1.45-1.42a6.28,6.28,0,0,0-2,.37,1.46,1.46,0,0,1-.43-.61,1.6,1.6,0,0,1-.12-.77,7,7,0,0,1,2.84-.6C124.88,13.17,125.7,14.13,125.7,16.12Zm-2,2.27v-.51a11.55,11.55,0,0,0-1.29-.08c-.88,0-1.36.35-1.36,1.24s.44,1.25,1.15,1.25C123.27,20.29,123.75,19.41,123.75,18.39Z"/><path class="cls-1" d="M128.88,25.15a2,2,0,0,1,0-.43,1.87,1.87,0,0,1,.22-1,2.31,2.31,0,0,0,.56.07c.65,0,1-.33,1-1.15V13.41a3.6,3.6,0,0,1,1-.1,4,4,0,0,1,1,.1v9.45a2.18,2.18,0,0,1-2.4,2.51A3.18,3.18,0,0,1,128.88,25.15Zm1.7-13.42V10.05a3.6,3.6,0,0,1,1-.1,4.16,4.16,0,0,1,1,.1v1.68a3.5,3.5,0,0,1-1,.12A3,3,0,0,1,130.58,11.73Z"/><path class="cls-1" d="M140.51,18h-4.46c.14,1.56.8,2,1.93,2a3.53,3.53,0,0,0,1.72-.42,2,2,0,0,1,.62,1.35,4.59,4.59,0,0,1-2.66.69c-2.45,0-3.61-1.37-3.61-4.22s1.36-4.26,3.53-4.26a2.81,2.81,0,0,1,3.1,3.16A7.47,7.47,0,0,1,140.51,18Zm-4.46-1.27h2.8a6,6,0,0,0,0-.62c0-.82-.32-1.49-1.27-1.49S136.16,15.2,136.05,16.73Z"/><path class="cls-1" d="M141.66,21.07a1.91,1.91,0,0,1,.48-1.37,6,6,0,0,0,2.1.37c.95,0,1.41-.29,1.41-.91s-.85-.88-1.75-1.16-2.12-.78-2.12-2.31,1-2.52,3-2.52a5.27,5.27,0,0,1,2.37.45A1.78,1.78,0,0,1,146.7,15a5.36,5.36,0,0,0-1.7-.25c-.94,0-1.39.33-1.39.91s1,.79,1.92,1.12a2.37,2.37,0,0,1,2,2.37c0,1.59-1,2.55-3.14,2.55A6.16,6.16,0,0,1,141.66,21.07Z"/><path class="cls-1" d="M153.6,20.85a1.91,1.91,0,0,1-.1.65,5.23,5.23,0,0,1-1.28.15c-2,0-2.79-1-2.79-3V14.73h-1.15a2.34,2.34,0,0,1-.09-.7,2.25,2.25,0,0,1,.09-.72h1.15V11.87a3.65,3.65,0,0,1,1.95-.35v1.79h1.86a2,2,0,0,1,.11.71,2.19,2.19,0,0,1-.11.71h-1.86v3.84c0,1.21.44,1.57,1.4,1.57a3.09,3.09,0,0,0,.66-.08A1.86,1.86,0,0,1,153.6,20.85Z"/><path class="cls-1" d="M157.79,21.39v-8a3,3,0,0,1,1-.12,3.27,3.27,0,0,1,1,.12v.65a2.94,2.94,0,0,1,2.16-.91,2,2,0,0,1,2,1.08,3.17,3.17,0,0,1,2.48-1.08,2.14,2.14,0,0,1,2.29,2.34v5.88a3.68,3.68,0,0,1-1,.11,3.29,3.29,0,0,1-1-.11V15.88a1,1,0,0,0-1.15-1.16,1.63,1.63,0,0,0-1.36.77v5.9a3.68,3.68,0,0,1-1,.11,3.29,3.29,0,0,1-1-.11V15.88a1,1,0,0,0-1.13-1.16,1.67,1.67,0,0,0-1.37.75v5.92a3.55,3.55,0,0,1-1,.11A3.41,3.41,0,0,1,157.79,21.39Z"/><path class="cls-1" d="M170.11,17.41c0-3.08,1.37-4.24,3.59-4.24s3.59,1.16,3.59,4.24-1.38,4.24-3.59,4.24S170.11,20.48,170.11,17.41Zm5.15,0c0-2.17-.59-2.74-1.56-2.74s-1.58.57-1.58,2.74.59,2.76,1.58,2.76S175.26,19.58,175.26,17.41Z"/><path class="cls-1" d="M184.5,20.72a2.13,2.13,0,0,1-.13.78h-6a3,3,0,0,1-.1-.81,2.68,2.68,0,0,1,.1-.76l3.88-5.06h-3.66a2.58,2.58,0,0,1-.11-.79,2.52,2.52,0,0,1,.11-.77h5.75a2.68,2.68,0,0,1,.09.74,3.55,3.55,0,0,1-.09.82l-3.88,5.06h3.86A2,2,0,0,1,184.5,20.72Zm-3-8.53a3.55,3.55,0,0,1-.92-.09V10.43a3.22,3.22,0,0,1,.92-.1,3.4,3.4,0,0,1,.9.1V12.1A3.76,3.76,0,0,1,181.54,12.19Z"/><path class="cls-1" d="M186,21.39V10a3.25,3.25,0,0,1,1-.11,3.46,3.46,0,0,1,1,.11v11.4a3.46,3.46,0,0,1-1,.11A3.25,3.25,0,0,1,186,21.39Z"/><path class="cls-1" d="M189.78,11.73V10.05a3.64,3.64,0,0,1,1-.1,4,4,0,0,1,1,.1v1.68a4,4,0,0,1-1,.1A3.73,3.73,0,0,1,189.78,11.73Zm0,9.66v-8a3.34,3.34,0,0,1,1-.1,4,4,0,0,1,1,.1v8a3.68,3.68,0,0,1-1,.11A3.05,3.05,0,0,1,189.81,21.39Z"/><path class="cls-1" d="M195.07,21.39l-2.2-8a3.94,3.94,0,0,1,1-.1,2.31,2.31,0,0,1,.86.1l1.22,4.25a17.73,17.73,0,0,1,.36,2h0a11.92,11.92,0,0,1,.37-2l1.16-4.23a5.31,5.31,0,0,1,1-.1,3.84,3.84,0,0,1,1,.1L201,17.64a15.22,15.22,0,0,1,.34,2h0a10.72,10.72,0,0,1,.38-2L203,13.41a3,3,0,0,1,.85-.1,2.52,2.52,0,0,1,.84.1l-2.17,8a6,6,0,0,1-2.29,0l-1-3.64a12.94,12.94,0,0,1-.39-2.57h-.06a12.67,12.67,0,0,1-.4,2.57l-1,3.64a5.07,5.07,0,0,1-1.12.11A5.5,5.5,0,0,1,195.07,21.39Z"/><path class="cls-1" d="M211.89,25a2.78,2.78,0,0,1-1.51.39,1.37,1.37,0,0,1-1.57-1.44,3.66,3.66,0,0,1,1.5-2.51l-.31-.93a2.33,2.33,0,0,1-2.3,1.16c-1.51,0-2.4-.86-2.4-2.61s1-2.48,3-2.48c.6,0,1.19.06,1.58.09V16.2c0-.91-.4-1.42-1.45-1.42a6.28,6.28,0,0,0-2,.37,1.46,1.46,0,0,1-.43-.61,1.6,1.6,0,0,1-.12-.77,7,7,0,0,1,2.84-.6c2.28,0,3.1,1,3.1,3v5.27a3.46,3.46,0,0,0-1.35,2.14c0,.34.19.51.45.51a1.16,1.16,0,0,0,.51-.14A1.86,1.86,0,0,1,211.89,25Zm-2-6.59v-.51a10.9,10.9,0,0,0-1.28-.08c-.89,0-1.37.35-1.37,1.24s.44,1.25,1.15,1.25C209.43,20.29,209.91,19.41,209.91,18.39Z"/><path class="cls-1" d="M222.81,16.12v5.27a2.25,2.25,0,0,1-.8.11,2.65,2.65,0,0,1-.81-.11l-.25-.9a2.3,2.3,0,0,1-2.3,1.16c-1.51,0-2.4-.86-2.4-2.61s1-2.48,3-2.48c.6,0,1.16.06,1.58.09V16.2c0-.91-.4-1.42-1.45-1.42a6.28,6.28,0,0,0-2,.37,1.46,1.46,0,0,1-.43-.61,1.6,1.6,0,0,1-.12-.77,7,7,0,0,1,2.84-.6C222,13.17,222.81,14.13,222.81,16.12Zm-1.95,2.27v-.51a11.52,11.52,0,0,0-1.28-.08c-.89,0-1.37.35-1.37,1.24s.44,1.25,1.15,1.25C220.38,20.29,220.86,19.41,220.86,18.39Z"/><path class="cls-1" d="M224.61,21.39V10a3.25,3.25,0,0,1,1-.11,3.46,3.46,0,0,1,1,.11v11.4a3.46,3.46,0,0,1-1,.11A3.25,3.25,0,0,1,224.61,21.39Z"/><path class="cls-1" d="M233.11,20.85a2.1,2.1,0,0,1-.09.65,5.32,5.32,0,0,1-1.29.15c-2,0-2.78-1-2.78-3V14.73H227.8a2.34,2.34,0,0,1-.09-.7,2.25,2.25,0,0,1,.09-.72H229V11.87a3.65,3.65,0,0,1,2-.35v1.79h1.86a2.16,2.16,0,0,1,.1.71,2.39,2.39,0,0,1-.1.71H230.9v3.84c0,1.21.43,1.57,1.39,1.57a3.24,3.24,0,0,0,.67-.08A2,2,0,0,1,233.11,20.85Z"/><path class="cls-1" d="M240.33,18h-4.46c.14,1.56.8,2,1.93,2a3.53,3.53,0,0,0,1.72-.42,2,2,0,0,1,.62,1.35,4.59,4.59,0,0,1-2.66.69c-2.45,0-3.61-1.37-3.61-4.22s1.36-4.26,3.53-4.26a2.81,2.81,0,0,1,3.1,3.16A7.47,7.47,0,0,1,240.33,18Zm-4.46-1.27h2.8a6,6,0,0,0,0-.62c0-.82-.32-1.49-1.27-1.49S236,15.2,235.87,16.73Z"/><path class="cls-1" d="M241.91,21.39v-8a3.6,3.6,0,0,1,1-.1,2.49,2.49,0,0,1,.87.1l.05,1a2.21,2.21,0,0,1,1.89-1.22,2.51,2.51,0,0,1,1.36.41,2.15,2.15,0,0,1-.84,1.58,1.44,1.44,0,0,0-.89-.31,1.85,1.85,0,0,0-1.46,1v5.53a3.68,3.68,0,0,1-1,.11A3.29,3.29,0,0,1,241.91,21.39Z"/><path class="cls-1" d="M248,21.39v-8a3,3,0,0,1,1-.12,3.23,3.23,0,0,1,1,.12v.63a3,3,0,0,1,2.24-.89,2.16,2.16,0,0,1,2.37,2.32v5.9a3.33,3.33,0,0,1-1,.11,3.21,3.21,0,0,1-1-.11V15.88c0-.75-.37-1.16-1.22-1.16a1.76,1.76,0,0,0-1.44.77v5.9a3.5,3.5,0,0,1-1,.11A3.25,3.25,0,0,1,248,21.39Z"/><path class="cls-1" d="M262.38,16.12v5.27a2.25,2.25,0,0,1-.8.11,2.65,2.65,0,0,1-.81-.11l-.24-.9a2.32,2.32,0,0,1-2.31,1.16c-1.51,0-2.4-.86-2.4-2.61s1-2.48,3-2.48c.61,0,1.16.06,1.58.09V16.2c0-.91-.4-1.42-1.45-1.42a6.28,6.28,0,0,0-2,.37,1.46,1.46,0,0,1-.43-.61,1.6,1.6,0,0,1-.12-.77,7,7,0,0,1,2.85-.6C261.56,13.17,262.38,14.13,262.38,16.12Zm-1.95,2.27v-.51a11.52,11.52,0,0,0-1.28-.08c-.89,0-1.37.35-1.37,1.24s.44,1.25,1.15,1.25C260,20.29,260.43,19.41,260.43,18.39Z"/><path class="cls-1" d="M268.84,20.85a2.1,2.1,0,0,1-.09.65,5.32,5.32,0,0,1-1.29.15c-2,0-2.78-1-2.78-3V14.73h-1.15a2.34,2.34,0,0,1-.09-.7,2.25,2.25,0,0,1,.09-.72h1.15V11.87a3.65,3.65,0,0,1,1.95-.35v1.79h1.86a2.16,2.16,0,0,1,.1.71,2.39,2.39,0,0,1-.1.71h-1.86v3.84c0,1.21.43,1.57,1.39,1.57a3.24,3.24,0,0,0,.67-.08A2,2,0,0,1,268.84,20.85Z"/><path class="cls-1" d="M277,13.41l-2.89,9.19c-.55,1.78-1.2,2.77-3,2.77A3.3,3.3,0,0,1,270,25.2a1.81,1.81,0,0,1-.13-.7,2.15,2.15,0,0,1,.14-.76,3,3,0,0,0,.72.07c.79,0,1.17-.19,1.61-1.55l.26-.78a1.89,1.89,0,0,1-.6-.09l-2.85-8a4.5,4.5,0,0,1,1-.1,3.78,3.78,0,0,1,1,.1l1.55,4.25a12.31,12.31,0,0,1,.51,2h.06a14.23,14.23,0,0,1,.46-2l1.35-4.25a3.57,3.57,0,0,1,.94-.1A4.19,4.19,0,0,1,277,13.41Z"/><path class="cls-1" d="M279.61,21.39l-2.2-8a3.84,3.84,0,0,1,1-.1,2.21,2.21,0,0,1,.85.1l1.22,4.25a15.64,15.64,0,0,1,.36,2h0a12.11,12.11,0,0,1,.38-2l1.16-4.23a5.31,5.31,0,0,1,1-.1,3.94,3.94,0,0,1,1,.1l1.14,4.23a15.22,15.22,0,0,1,.34,2h.05a10.89,10.89,0,0,1,.39-2l1.21-4.23a3,3,0,0,1,.85-.1,2.41,2.41,0,0,1,.83.1l-2.17,8a5.07,5.07,0,0,1-1.14.11,5.22,5.22,0,0,1-1.15-.11l-1-3.64a13.73,13.73,0,0,1-.39-2.57h-.06a12,12,0,0,1-.4,2.57l-1,3.64a5,5,0,0,1-1.12.11A5.41,5.41,0,0,1,279.61,21.39Z"/><path class="cls-1" d="M296.43,25a2.85,2.85,0,0,1-1.52.39,1.37,1.37,0,0,1-1.57-1.44,3.64,3.64,0,0,1,1.51-2.51l-.31-.93a2.34,2.34,0,0,1-2.31,1.16c-1.5,0-2.4-.86-2.4-2.61s1-2.48,3-2.48c.61,0,1.2.06,1.58.09V16.2c0-.91-.4-1.42-1.45-1.42a6.26,6.26,0,0,0-2,.37,1.35,1.35,0,0,1-.44-.61,1.6,1.6,0,0,1-.12-.77,7,7,0,0,1,2.85-.6c2.27,0,3.1,1,3.1,3v5.27a3.42,3.42,0,0,0-1.35,2.14c0,.34.18.51.45.51a1.23,1.23,0,0,0,.51-.14A2,2,0,0,1,296.43,25Zm-2-6.59v-.51a10.9,10.9,0,0,0-1.28-.08c-.88,0-1.36.35-1.36,1.24s.43,1.25,1.14,1.25C294,20.29,294.44,19.41,294.44,18.39Z"/><path class="cls-1" d="M48.48,34.71V40a2.49,2.49,0,0,1-.81.1,2.85,2.85,0,0,1-.8-.1l-.25-.9a2.32,2.32,0,0,1-2.31,1.16c-1.5,0-2.4-.87-2.4-2.62s1-2.48,3-2.48c.6,0,1.16.07,1.58.1v-.45c0-.92-.4-1.43-1.46-1.43a6.26,6.26,0,0,0-2,.37,1.38,1.38,0,0,1-.43-.6,1.69,1.69,0,0,1-.13-.77,6.93,6.93,0,0,1,2.85-.61C47.66,31.75,48.48,32.71,48.48,34.71ZM46.53,37v-.51c-.34,0-.82-.08-1.29-.08-.88,0-1.36.36-1.36,1.24s.43,1.26,1.15,1.26C46.05,38.88,46.53,38,46.53,37Z"/><path class="cls-1" d="M50.23,40V32a2.79,2.79,0,0,1,1-.13,3,3,0,0,1,1,.13v.63a3,3,0,0,1,2.25-.9,2.17,2.17,0,0,1,2.37,2.33V40a3.73,3.73,0,0,1-1,.1,3.55,3.55,0,0,1-1-.1V34.46c0-.74-.37-1.16-1.22-1.16a1.8,1.8,0,0,0-1.44.78V40a3.79,3.79,0,0,1-1,.1A3.55,3.55,0,0,1,50.23,40Z"/><path class="cls-1" d="M63.27,39.43a2,2,0,0,1-.09.65,4.83,4.83,0,0,1-1.29.16c-2,0-2.79-1-2.79-3V33.32H58a2.2,2.2,0,0,1-.1-.7,2.15,2.15,0,0,1,.1-.73H59.1V30.45a3.67,3.67,0,0,1,1.95-.34v1.78h1.86a2,2,0,0,1,.11.71,2.3,2.3,0,0,1-.11.72H61.05v3.84c0,1.21.44,1.56,1.4,1.56a3.24,3.24,0,0,0,.67-.08A2,2,0,0,1,63.27,39.43Z"/><path class="cls-1" d="M71.46,32l-2.88,9.18C68,43,67.38,44,65.56,44a3.3,3.3,0,0,1-1.11-.17,1.81,1.81,0,0,1-.13-.7,2.15,2.15,0,0,1,.14-.76,3.07,3.07,0,0,0,.72.06c.79,0,1.17-.18,1.61-1.55l.26-.77a1.89,1.89,0,0,1-.6-.09L63.6,32a4.07,4.07,0,0,1,1-.11,3.49,3.49,0,0,1,1,.11l1.54,4.24a11.09,11.09,0,0,1,.51,2h.07a14.52,14.52,0,0,1,.46-2L69.56,32a3.18,3.18,0,0,1,.94-.11A3.69,3.69,0,0,1,71.46,32Z"/><path class="cls-1" d="M79.52,36c0,3.17-1.16,4.24-2.91,4.24a2.48,2.48,0,0,1-2.13-.9V40a4,4,0,0,1-1,.1,3.65,3.65,0,0,1-1-.1V28.58a3.34,3.34,0,0,1,1-.11,3.63,3.63,0,0,1,1,.11v4.07a2.51,2.51,0,0,1,2.13-.9C78.36,31.75,79.52,32.82,79.52,36Zm-2,0c0-2.13-.49-2.7-1.56-2.7-.88,0-1.41.74-1.43,1.7v2a1.51,1.51,0,0,0,1.43,1.7C77,38.69,77.47,38.12,77.47,36Z"/><path class="cls-1" d="M81,30.31V28.64a3.37,3.37,0,0,1,1-.11,3.72,3.72,0,0,1,1,.11v1.67a3.72,3.72,0,0,1-1,.11A3.45,3.45,0,0,1,81,30.31Zm0,9.67V32a3.09,3.09,0,0,1,1-.11A3.55,3.55,0,0,1,83,32v8a3.88,3.88,0,0,1-1,.1A3.38,3.38,0,0,1,81.05,40Z"/><path class="cls-1" d="M84.51,36c0-3.09,1.37-4.25,3.59-4.25s3.59,1.16,3.59,4.25-1.38,4.24-3.59,4.24S84.51,39.06,84.51,36Zm5.15,0c0-2.17-.59-2.75-1.56-2.75s-1.58.58-1.58,2.75.59,2.75,1.58,2.75S89.66,38.16,89.66,36Z"/><path class="cls-1" d="M97.87,39.43a2,2,0,0,1-.09.65,4.83,4.83,0,0,1-1.29.16c-2,0-2.79-1-2.79-3V33.32H92.56a2.2,2.2,0,0,1-.1-.7,2.15,2.15,0,0,1,.1-.73H93.7V30.45a3.69,3.69,0,0,1,2-.34v1.78h1.85a2,2,0,0,1,.11.71,2.3,2.3,0,0,1-.11.72H95.66v3.84c0,1.21.43,1.56,1.39,1.56a3.24,3.24,0,0,0,.67-.08A2,2,0,0,1,97.87,39.43Z"/><path class="cls-1" d="M106.06,32l-2.88,9.18C102.63,43,102,44,100.16,44a3.3,3.3,0,0,1-1.11-.17,1.81,1.81,0,0,1-.13-.7,2.15,2.15,0,0,1,.14-.76,3.07,3.07,0,0,0,.72.06c.79,0,1.17-.18,1.61-1.55l.26-.77a1.89,1.89,0,0,1-.6-.09L98.2,32a4.07,4.07,0,0,1,1-.11,3.37,3.37,0,0,1,1,.11l1.55,4.24a11.09,11.09,0,0,1,.51,2h.07a14.52,14.52,0,0,1,.46-2L104.16,32a3.18,3.18,0,0,1,.94-.11A3.69,3.69,0,0,1,106.06,32Z"/><path class="cls-1" d="M114,40a4.49,4.49,0,0,1-1.1.12,4,4,0,0,1-1-.12l-2-3.46h-.74V40a4.8,4.8,0,0,1-1.95,0V28.55a5.17,5.17,0,0,1,1-.08,5.41,5.41,0,0,1,1,.08V35.1h.76l1.81-3.1a3.42,3.42,0,0,1,1-.11,4.1,4.1,0,0,1,1,.11l-2.12,3.69Z"/><path class="cls-1" d="M114.61,36c0-3.09,1.38-4.25,3.6-4.25s3.59,1.16,3.59,4.25-1.38,4.24-3.59,4.24S114.61,39.06,114.61,36Zm5.16,0c0-2.17-.59-2.75-1.56-2.75s-1.58.58-1.58,2.75.58,2.75,1.58,2.75S119.77,38.16,119.77,36Z"/><path class="cls-1" d="M128,39.43a2,2,0,0,1-.09.65,4.83,4.83,0,0,1-1.29.16c-2,0-2.79-1-2.79-3V33.32h-1.14a2.2,2.2,0,0,1-.1-.7,2.15,2.15,0,0,1,.1-.73h1.14V30.45a3.65,3.65,0,0,1,2-.34v1.78h1.86a2,2,0,0,1,.11.71,2.3,2.3,0,0,1-.11.72h-1.86v3.84c0,1.21.44,1.56,1.4,1.56a3.09,3.09,0,0,0,.66-.08A1.86,1.86,0,0,1,128,39.43Z"/><path class="cls-1" d="M135.2,36.58h-4.46c.14,1.57.8,2,1.93,2a3.59,3.59,0,0,0,1.72-.41,1.93,1.93,0,0,1,.62,1.34,4.55,4.55,0,0,1-2.66.7c-2.45,0-3.61-1.38-3.61-4.23s1.36-4.26,3.53-4.26a2.81,2.81,0,0,1,3.1,3.16A7.36,7.36,0,0,1,135.2,36.58Zm-4.46-1.27h2.8c0-.18,0-.4,0-.61,0-.83-.32-1.49-1.27-1.49S130.84,33.78,130.74,35.31Z"/><path class="cls-1" d="M136.78,40V32a3.29,3.29,0,0,1,1-.11,2.28,2.28,0,0,1,.87.11l0,1a2.22,2.22,0,0,1,1.89-1.23,2.44,2.44,0,0,1,1.36.42,2.19,2.19,0,0,1-.84,1.58,1.49,1.49,0,0,0-.9-.31,1.85,1.85,0,0,0-1.45,1V40a4,4,0,0,1-1,.1A3.6,3.6,0,0,1,136.78,40Z"/><path class="cls-1" d="M148.92,34.71V40a2.49,2.49,0,0,1-.81.1,2.85,2.85,0,0,1-.8-.1l-.25-.9a2.32,2.32,0,0,1-2.31,1.16c-1.5,0-2.4-.87-2.4-2.62s1-2.48,3-2.48c.6,0,1.16.07,1.58.1v-.45c0-.92-.41-1.43-1.46-1.43a6.26,6.26,0,0,0-2,.37,1.38,1.38,0,0,1-.43-.6,1.55,1.55,0,0,1-.13-.77,6.93,6.93,0,0,1,2.85-.61C148.1,31.75,148.92,32.71,148.92,34.71ZM147,37v-.51c-.34,0-.82-.08-1.29-.08-.88,0-1.36.36-1.36,1.24s.43,1.26,1.14,1.26C146.49,38.88,147,38,147,37Z"/><path class="cls-1" d="M157.67,36c0,3.16-1.16,4.24-2.91,4.24a2.47,2.47,0,0,1-2.12-.9v4.18a3.76,3.76,0,0,1-1,.11,3.34,3.34,0,0,1-1-.11V32a3.34,3.34,0,0,1,1-.11,3.76,3.76,0,0,1,1,.11v.65a2.48,2.48,0,0,1,2.13-.9C156.49,31.75,157.67,32.79,157.67,36Zm-2,0c0-2.13-.52-2.7-1.57-2.7-.9,0-1.41.74-1.42,1.67v2c0,.91.48,1.75,1.42,1.75S155.63,38.16,155.63,36Z"/><path class="cls-1" d="M159.17,30.31V28.64a3.37,3.37,0,0,1,1-.11,3.72,3.72,0,0,1,1,.11v1.67a3.72,3.72,0,0,1-1,.11A3.53,3.53,0,0,1,159.17,30.31Zm0,9.67V32a3.17,3.17,0,0,1,1-.11,3.55,3.55,0,0,1,1,.11v8a3.88,3.88,0,0,1-1,.1A3.47,3.47,0,0,1,159.2,40Z"/><path class="cls-1" d="M163,30.31V28.64a3.33,3.33,0,0,1,1-.11,3.63,3.63,0,0,1,1,.11v1.67a3.63,3.63,0,0,1-1,.11A3.41,3.41,0,0,1,163,30.31ZM163,40V32a3.05,3.05,0,0,1,1-.11,3.68,3.68,0,0,1,1,.11v8a4,4,0,0,1-1,.1A3.34,3.34,0,0,1,163,40Z"/><path class="cls-1" d="M171.38,40l-2.2-8a3.51,3.51,0,0,1,1-.11A2,2,0,0,1,171,32l1.22,4.24a15.74,15.74,0,0,1,.36,2h.05a11.74,11.74,0,0,1,.37-2L174.15,32a4.85,4.85,0,0,1,1-.11,3.6,3.6,0,0,1,1,.11l1.14,4.23a15,15,0,0,1,.34,2h.05a11.84,11.84,0,0,1,.39-2L179.28,32a2.78,2.78,0,0,1,.85-.11A2.21,2.21,0,0,1,181,32l-2.16,8a6.66,6.66,0,0,1-2.3,0l-1-3.64a14.63,14.63,0,0,1-.39-2.57h-.06a12.09,12.09,0,0,1-.4,2.57l-1,3.64a5.69,5.69,0,0,1-1.12.1A6.15,6.15,0,0,1,171.38,40Z"/><path class="cls-1" d="M188.21,36.58h-4.46c.14,1.57.81,2,1.94,2a3.64,3.64,0,0,0,1.72-.41,2,2,0,0,1,.62,1.34,4.56,4.56,0,0,1-2.67.7c-2.44,0-3.61-1.38-3.61-4.23s1.37-4.26,3.53-4.26a2.81,2.81,0,0,1,3.1,3.16A7.36,7.36,0,0,1,188.21,36.58Zm-4.46-1.27h2.8a5.68,5.68,0,0,0,0-.61c0-.83-.33-1.49-1.27-1.49S183.86,33.78,183.75,35.31Z"/><path class="cls-1" d="M194.41,40l-2.2-8a3.51,3.51,0,0,1,1-.11A2,2,0,0,1,194,32l1.22,4.24a15.74,15.74,0,0,1,.36,2h.05a11.74,11.74,0,0,1,.37-2L197.18,32a4.85,4.85,0,0,1,1-.11,3.6,3.6,0,0,1,1,.11l1.14,4.23a15,15,0,0,1,.34,2h.05a11.84,11.84,0,0,1,.39-2L202.31,32a2.78,2.78,0,0,1,.85-.11A2.21,2.21,0,0,1,204,32l-2.16,8a6.66,6.66,0,0,1-2.3,0l-1-3.64a14.63,14.63,0,0,1-.39-2.57h-.06a12.09,12.09,0,0,1-.4,2.57l-1,3.64a5.69,5.69,0,0,1-1.12.1A6.15,6.15,0,0,1,194.41,40Z"/><path class="cls-1" d="M204.68,39.65a1.9,1.9,0,0,1,.48-1.36,6.29,6.29,0,0,0,2.1.37c1,0,1.41-.29,1.41-.91s-.85-.89-1.75-1.17-2.12-.77-2.12-2.3,1-2.53,3-2.53a5.42,5.42,0,0,1,2.37.45,1.72,1.72,0,0,1-.47,1.33,5.71,5.71,0,0,0-1.7-.24c-.94,0-1.39.32-1.39.91s1,.79,1.92,1.11,2,.84,2,2.37-1,2.56-3.14,2.56A6.15,6.15,0,0,1,204.68,39.65Z"/><path class="cls-1" d="M218.91,36c0,3.16-1.16,4.24-2.91,4.24a2.46,2.46,0,0,1-2.12-.9v4.18a3.76,3.76,0,0,1-1,.11,3.34,3.34,0,0,1-1-.11V32a3.34,3.34,0,0,1,1-.11,3.76,3.76,0,0,1,1,.11v.65a2.47,2.47,0,0,1,2.13-.9C217.73,31.75,218.91,32.79,218.91,36Zm-2,0c0-2.13-.51-2.7-1.56-2.7s-1.41.74-1.42,1.67v2c0,.91.48,1.75,1.42,1.75S216.86,38.16,216.86,36Z"/><path class="cls-1" d="M220.1,36c0-3.09,1.38-4.25,3.59-4.25s3.6,1.16,3.6,4.25-1.38,4.24-3.6,4.24S220.1,39.06,220.1,36Zm5.16,0c0-2.17-.59-2.75-1.57-2.75s-1.57.58-1.57,2.75.58,2.75,1.57,2.75S225.26,38.16,225.26,36Z"/><path class="cls-1" d="M228.76,40V32a2.75,2.75,0,0,1,1-.13,3.15,3.15,0,0,1,1,.13v.65a2.9,2.9,0,0,1,2.15-.92,2.07,2.07,0,0,1,2,1.09,3.13,3.13,0,0,1,2.47-1.09,2.14,2.14,0,0,1,2.3,2.34V40a4,4,0,0,1-1,.1,3.73,3.73,0,0,1-1-.1V34.46a1,1,0,0,0-1.14-1.16,1.6,1.6,0,0,0-1.36.78V40a4,4,0,0,1-1,.1,3.73,3.73,0,0,1-1-.1V34.46c0-.73-.32-1.16-1.13-1.16a1.68,1.68,0,0,0-1.36.76V40a4,4,0,0,1-1,.1A3.6,3.6,0,0,1,228.76,40Z"/><path class="cls-1" d="M247.47,34.71V40a2.49,2.49,0,0,1-.81.1,2.85,2.85,0,0,1-.8-.1l-.25-.9a2.32,2.32,0,0,1-2.31,1.16c-1.5,0-2.4-.87-2.4-2.62s1-2.48,3-2.48c.6,0,1.16.07,1.58.1v-.45c0-.92-.41-1.43-1.46-1.43a6.26,6.26,0,0,0-2,.37,1.38,1.38,0,0,1-.43-.6,1.55,1.55,0,0,1-.13-.77,6.93,6.93,0,0,1,2.85-.61C246.65,31.75,247.47,32.71,247.47,34.71ZM245.52,37v-.51c-.34,0-.82-.08-1.29-.08-.88,0-1.36.36-1.36,1.24s.43,1.26,1.14,1.26C245,38.88,245.52,38,245.52,37Z"/><path class="cls-1" d="M256.16,41.2c0,1.63-1.54,2.76-4.15,2.76-2.39,0-3.46-.84-3.46-2.14a2.56,2.56,0,0,1,1.37-2.09,1.26,1.26,0,0,1-.34-.93,2.56,2.56,0,0,1,.82-1.74,2.49,2.49,0,0,1-1.48-2.49c0-1.73,1.1-2.82,3.2-2.82a4,4,0,0,1,1.82.39l2.2-.39a2.24,2.24,0,0,1,0,1.49L255,33.15a2.81,2.81,0,0,1,.33,1.42c0,1.75-1.09,2.82-3.19,2.82a5.41,5.41,0,0,1-.59,0,1.13,1.13,0,0,0-.22.79C251.51,39.43,256.16,38,256.16,41.2Zm-1.88.25c0-1.09-2-.84-3.37-1.2a1.64,1.64,0,0,0-.53,1.18c0,.7.5,1.19,1.67,1.19C253.52,42.62,254.28,42.14,254.28,41.45Zm-3.47-6.88c0,1.09.52,1.55,1.31,1.55s1.3-.46,1.3-1.55-.51-1.55-1.3-1.55S250.81,33.49,250.81,34.57Z"/><path class="cls-1" d="M263.48,34.71V40a2.45,2.45,0,0,1-.8.1,2.89,2.89,0,0,1-.81-.1l-.24-.9a2.34,2.34,0,0,1-2.31,1.16c-1.51,0-2.4-.87-2.4-2.62s1-2.48,3-2.48c.61,0,1.16.07,1.58.1v-.45c0-.92-.4-1.43-1.45-1.43a6.28,6.28,0,0,0-2,.37,1.47,1.47,0,0,1-.43-.6,1.61,1.61,0,0,1-.12-.77,6.88,6.88,0,0,1,2.85-.61C262.66,31.75,263.48,32.71,263.48,34.71Zm-2,2.26v-.51c-.34,0-.82-.08-1.28-.08-.89,0-1.37.36-1.37,1.24s.44,1.26,1.15,1.26C261.05,38.88,261.53,38,261.53,37Z"/><path class="cls-1" d="M265.23,40V32a2.79,2.79,0,0,1,1-.13,3,3,0,0,1,1,.13v.63a3,3,0,0,1,2.25-.9,2.17,2.17,0,0,1,2.37,2.33V40a3.73,3.73,0,0,1-1,.1,3.51,3.51,0,0,1-1-.1V34.46c0-.74-.37-1.16-1.22-1.16a1.8,1.8,0,0,0-1.45.78V40a3.79,3.79,0,0,1-1,.1A3.55,3.55,0,0,1,265.23,40Z"/><path class="cls-1" d="M273.57,30.31V28.64a3.33,3.33,0,0,1,1-.11,3.63,3.63,0,0,1,1,.11v1.67a3.63,3.63,0,0,1-1,.11A3.41,3.41,0,0,1,273.57,30.31Zm0,9.67V32a3.05,3.05,0,0,1,1-.11,3.68,3.68,0,0,1,1,.11v8a4,4,0,0,1-1,.1A3.34,3.34,0,0,1,273.6,40Z"/><path class="cls-1" d="M283.88,32v8a3.51,3.51,0,0,1-1,.1,3.83,3.83,0,0,1-1-.1v-.62a3.09,3.09,0,0,1-2.23.88,2.17,2.17,0,0,1-2.39-2.32V32a3.5,3.5,0,0,1,1-.11,3.25,3.25,0,0,1,1,.11v5.53c0,.74.37,1.16,1.22,1.16a1.79,1.79,0,0,0,1.44-.76V32a3.5,3.5,0,0,1,1-.11A3.21,3.21,0,0,1,283.88,32Z"/><path class="cls-1" d="M295.79,36c0,3.16-1.16,4.24-2.91,4.24a2.47,2.47,0,0,1-2.12-.9v4.18a3.72,3.72,0,0,1-1,.11,3.25,3.25,0,0,1-1-.11V32a3.25,3.25,0,0,1,1-.11,3.72,3.72,0,0,1,1,.11v.65a2.49,2.49,0,0,1,2.14-.9C294.61,31.75,295.79,32.79,295.79,36Zm-2,0c0-2.13-.51-2.7-1.57-2.7A1.5,1.5,0,0,0,290.76,35v2c0,.91.48,1.75,1.42,1.75S293.75,38.16,293.75,36Z"/><path class="cls-1" d="M297.29,40V32a3.41,3.41,0,0,1,1-.11,2.28,2.28,0,0,1,.87.11l0,1a2.24,2.24,0,0,1,1.89-1.23,2.44,2.44,0,0,1,1.37.42,2.22,2.22,0,0,1-.84,1.58,1.49,1.49,0,0,0-.9-.31,1.83,1.83,0,0,0-1.45,1V40a4,4,0,0,1-1,.1A3.73,3.73,0,0,1,297.29,40Z"/><path class="cls-1" d="M303,36c0-3.09,1.38-4.25,3.59-4.25s3.6,1.16,3.6,4.25-1.38,4.24-3.6,4.24S303,39.06,303,36Zm5.16,0c0-2.17-.59-2.75-1.57-2.75s-1.58.58-1.58,2.75.59,2.75,1.58,2.75S308.2,38.16,308.2,36Z"/><path class="cls-1" d="M311.39,36c0-2.8,1.16-4.26,3.5-4.26a4.2,4.2,0,0,1,2.2.45,2,2,0,0,1-.56,1.35,3.32,3.32,0,0,0-1.25-.23c-1.35,0-1.88.83-1.88,2.68s.59,2.61,1.94,2.61a3.66,3.66,0,0,0,1.34-.24,2.13,2.13,0,0,1,.58,1.36,4.51,4.51,0,0,1-2.37.51C312.56,40.24,311.39,38.85,311.39,36Z"/><path class="cls-1" d="M324.61,36.58h-4.46c.14,1.57.81,2,1.94,2a3.59,3.59,0,0,0,1.72-.41,2,2,0,0,1,.62,1.34,4.56,4.56,0,0,1-2.67.7c-2.44,0-3.6-1.38-3.6-4.23s1.36-4.26,3.53-4.26a2.82,2.82,0,0,1,3.1,3.16A7,7,0,0,1,324.61,36.58Zm-4.46-1.27H323c0-.18,0-.4,0-.61,0-.83-.33-1.49-1.27-1.49S320.26,33.78,320.15,35.31Z"/><path class="cls-1" d="M325.76,39.65a2,2,0,0,1,.48-1.36,6.35,6.35,0,0,0,2.11.37c.94,0,1.41-.29,1.41-.91s-.85-.89-1.75-1.17-2.13-.77-2.13-2.3,1-2.53,3-2.53a5.36,5.36,0,0,1,2.36.45,1.75,1.75,0,0,1-.46,1.33,5.77,5.77,0,0,0-1.7-.24c-.95,0-1.4.32-1.4.91s1,.79,1.92,1.11,2,.84,2,2.37-1,2.56-3.15,2.56A6.22,6.22,0,0,1,325.76,39.65Z"/><path class="cls-1" d="M339.51,32v8a3.51,3.51,0,0,1-1,.1,3.83,3.83,0,0,1-1-.1v-.62a3.09,3.09,0,0,1-2.23.88A2.17,2.17,0,0,1,333,37.92V32a3.46,3.46,0,0,1,1-.11,3.25,3.25,0,0,1,1,.11v5.53c0,.74.37,1.16,1.22,1.16a1.78,1.78,0,0,0,1.44-.76V32a3.5,3.5,0,0,1,1-.11A3.21,3.21,0,0,1,339.51,32Z"/><path class="cls-1" d="M49.33,59.79c0,1.62-1.53,2.75-4.15,2.75-2.38,0-3.45-.83-3.45-2.13a2.57,2.57,0,0,1,1.36-2.1,1.22,1.22,0,0,1-.34-.92,2.56,2.56,0,0,1,.82-1.74,2.5,2.5,0,0,1-1.47-2.49c0-1.74,1.1-2.82,3.19-2.82a4,4,0,0,1,1.83.39l2.2-.39a2.24,2.24,0,0,1,0,1.49l-1.17-.1a2.88,2.88,0,0,1,.33,1.43c0,1.75-1.08,2.82-3.19,2.82-.2,0-.4,0-.59,0a1.17,1.17,0,0,0-.22.79C44.68,58,49.33,56.58,49.33,59.79ZM47.46,60c0-1.08-2-.83-3.38-1.19A1.62,1.62,0,0,0,43.55,60c0,.69.5,1.19,1.68,1.19C46.7,61.21,47.46,60.73,47.46,60ZM44,53.16c0,1.08.51,1.55,1.3,1.55s1.3-.47,1.3-1.55-.51-1.55-1.3-1.55S44,52.07,44,53.16Z"/><path class="cls-1" d="M50.26,54.58c0-3.08,1.38-4.24,3.59-4.24s3.6,1.16,3.6,4.24-1.38,4.25-3.6,4.25S50.26,57.65,50.26,54.58Zm5.16,0c0-2.17-.59-2.74-1.57-2.74s-1.58.57-1.58,2.74.59,2.76,1.58,2.76S55.42,56.75,55.42,54.58Z"/><path class="cls-1" d="M57.23,62.33a2.15,2.15,0,0,1,0-.44,1.81,1.81,0,0,1,.22-1A2.67,2.67,0,0,0,58,61c.65,0,1-.33,1-1.15V50.59a3.29,3.29,0,0,1,1-.11,3.68,3.68,0,0,1,1,.11V60a2.18,2.18,0,0,1-2.4,2.51A3.31,3.31,0,0,1,57.23,62.33Zm1.7-13.43V47.23a3.29,3.29,0,0,1,1-.11,3.71,3.71,0,0,1,1,.11V48.9a3.42,3.42,0,0,1-1,.12A3,3,0,0,1,58.93,48.9Z"/><path class="cls-1" d="M68.86,55.17H64.4c.14,1.57.81,2,1.94,2a3.53,3.53,0,0,0,1.72-.42,2.06,2.06,0,0,1,.62,1.35,4.56,4.56,0,0,1-2.67.7c-2.44,0-3.61-1.38-3.61-4.23s1.37-4.26,3.53-4.26A2.81,2.81,0,0,1,69,53.5,7.47,7.47,0,0,1,68.86,55.17ZM64.4,53.9h2.81c0-.19,0-.4,0-.62,0-.82-.33-1.49-1.27-1.49S64.51,52.37,64.4,53.9Z"/><path class="cls-1" d="M70.44,58.56v-8a3,3,0,0,1,1-.12,3.19,3.19,0,0,1,1,.12v.64a3,3,0,0,1,2.25-.9A2.16,2.16,0,0,1,77,52.66v5.9a3.41,3.41,0,0,1-1,.11,3.21,3.21,0,0,1-1-.11V53.05c0-.74-.37-1.16-1.23-1.16a1.81,1.81,0,0,0-1.44.77v5.9a3.46,3.46,0,0,1-1,.11A3.25,3.25,0,0,1,70.44,58.56Z"/><path class="cls-1" d="M78.77,48.9V47.23a3.37,3.37,0,0,1,1-.11,3.63,3.63,0,0,1,1,.11V48.9a3.63,3.63,0,0,1-1,.11A3.53,3.53,0,0,1,78.77,48.9Zm0,9.66v-8a3.05,3.05,0,0,1,1-.11,3.68,3.68,0,0,1,1,.11v8a3.68,3.68,0,0,1-1,.11A3.05,3.05,0,0,1,78.81,58.56Z"/><path class="cls-1" d="M88.66,53.3v5.26a2.35,2.35,0,0,1-.81.11,2.54,2.54,0,0,1-.8-.11l-.25-.9a2.33,2.33,0,0,1-2.31,1.17c-1.5,0-2.4-.87-2.4-2.62s1-2.48,3-2.48c.61,0,1.17.06,1.58.09v-.45c0-.91-.4-1.42-1.45-1.42a6.26,6.26,0,0,0-2,.37,1.35,1.35,0,0,1-.44-.6,1.65,1.65,0,0,1-.12-.78,7,7,0,0,1,2.85-.6C87.83,50.34,88.66,51.3,88.66,53.3Zm-2,2.26v-.51c-.34,0-.82-.08-1.28-.08-.88,0-1.36.36-1.36,1.24s.43,1.25,1.14,1.25C86.22,57.46,86.7,56.58,86.7,55.56Z"/><path class="cls-1" d="M95,58.56l-2.2-8a3.6,3.6,0,0,1,1-.11,2,2,0,0,1,.85.11l1.23,4.24a15.13,15.13,0,0,1,.35,2h.05a12,12,0,0,1,.37-2l1.16-4.22a4.85,4.85,0,0,1,1-.11,3.6,3.6,0,0,1,1,.11l1.15,4.22a15.33,15.33,0,0,1,.34,2h0a11.92,11.92,0,0,1,.39-2l1.21-4.22a2.78,2.78,0,0,1,.85-.11,2.31,2.31,0,0,1,.84.11l-2.17,8a5.22,5.22,0,0,1-1.15.11,5.13,5.13,0,0,1-1.14-.11l-1-3.64a12.84,12.84,0,0,1-.39-2.57h-.06a12.12,12.12,0,0,1-.41,2.57l-1,3.64a4.92,4.92,0,0,1-1.11.11A5.5,5.5,0,0,1,95,58.56Z"/><path class="cls-1" d="M108.53,54.6c0-2.81,1.16-4.26,3.5-4.26a4.2,4.2,0,0,1,2.2.45,1.92,1.92,0,0,1-.56,1.34,3.34,3.34,0,0,0-1.26-.23c-1.34,0-1.87.84-1.87,2.68s.59,2.62,1.94,2.62a3.53,3.53,0,0,0,1.34-.25,2.18,2.18,0,0,1,.58,1.36,4.45,4.45,0,0,1-2.37.52C109.7,58.83,108.53,57.43,108.53,54.6Z"/><path class="cls-1" d="M122.19,52.65v5.91a3.41,3.41,0,0,1-1,.11,3.21,3.21,0,0,1-1-.11V53.05c0-.74-.38-1.16-1.23-1.16a1.81,1.81,0,0,0-1.44.77v5.9a3.46,3.46,0,0,1-1,.11,3.25,3.25,0,0,1-1-.11V47.16a3.25,3.25,0,0,1,1-.11,3.46,3.46,0,0,1,1,.11v4.05a3.06,3.06,0,0,1,2.25-.87A2.15,2.15,0,0,1,122.19,52.65Z"/><path class="cls-1" d="M124,48.9V47.23a3.37,3.37,0,0,1,1-.11,3.72,3.72,0,0,1,1,.11V48.9a3.72,3.72,0,0,1-1,.11A3.53,3.53,0,0,1,124,48.9Zm0,9.66v-8a3.17,3.17,0,0,1,1-.11,3.55,3.55,0,0,1,1,.11v8a3.55,3.55,0,0,1-1,.11A3.17,3.17,0,0,1,124,58.56Z"/><path class="cls-1" d="M127.75,58.56v-8a3.29,3.29,0,0,1,1-.11,2.28,2.28,0,0,1,.87.11l0,1a2.21,2.21,0,0,1,1.89-1.22,2.44,2.44,0,0,1,1.36.42,2.19,2.19,0,0,1-.84,1.58,1.41,1.41,0,0,0-.9-.31,1.83,1.83,0,0,0-1.45,1v5.53a3.68,3.68,0,0,1-1,.11A3.29,3.29,0,0,1,127.75,58.56Z"/><path class="cls-1" d="M140.32,50.59v8a3.21,3.21,0,0,1-1,.11,3.5,3.5,0,0,1-1-.11v-.62a3.06,3.06,0,0,1-2.23.89,2.17,2.17,0,0,1-2.38-2.33V50.59a3.46,3.46,0,0,1,1-.11,3.25,3.25,0,0,1,1,.11v5.53c0,.74.37,1.16,1.22,1.16a1.8,1.8,0,0,0,1.44-.76V50.59a3.5,3.5,0,0,1,1-.11A3.21,3.21,0,0,1,140.32,50.59Z"/><path class="cls-1" d="M142.12,58.56v-8a3.41,3.41,0,0,1,1-.11,2.25,2.25,0,0,1,.86.11l0,1a2.22,2.22,0,0,1,1.89-1.22,2.41,2.41,0,0,1,1.36.42,2.21,2.21,0,0,1-.83,1.58,1.43,1.43,0,0,0-.9-.31,1.85,1.85,0,0,0-1.46,1v5.53a3.55,3.55,0,0,1-1,.11A3.41,3.41,0,0,1,142.12,58.56Z"/><path class="cls-1" d="M155.11,59.79c0,1.62-1.53,2.75-4.15,2.75-2.38,0-3.45-.83-3.45-2.13a2.57,2.57,0,0,1,1.36-2.1,1.26,1.26,0,0,1-.34-.92,2.56,2.56,0,0,1,.82-1.74,2.5,2.5,0,0,1-1.47-2.49c0-1.74,1.1-2.82,3.19-2.82a4,4,0,0,1,1.83.39l2.2-.39a2.24,2.24,0,0,1,0,1.49l-1.16-.1a3,3,0,0,1,.32,1.43c0,1.75-1.08,2.82-3.19,2.82-.2,0-.4,0-.59,0a1.17,1.17,0,0,0-.21.79C150.47,58,155.11,56.58,155.11,59.79Zm-1.87.24c0-1.08-2-.83-3.38-1.19a1.65,1.65,0,0,0-.52,1.18c0,.69.49,1.19,1.67,1.19C152.48,61.21,153.24,60.73,153.24,60Zm-3.47-6.87c0,1.08.51,1.55,1.3,1.55s1.3-.47,1.3-1.55-.51-1.55-1.3-1.55S149.77,52.07,149.77,53.16Z"/><path class="cls-1" d="M156.35,48.9V47.23a3.37,3.37,0,0,1,1-.11,3.63,3.63,0,0,1,1,.11V48.9a3.63,3.63,0,0,1-1,.11A3.53,3.53,0,0,1,156.35,48.9Zm0,9.66v-8a3.17,3.17,0,0,1,1-.11,3.68,3.68,0,0,1,1,.11v8a3.68,3.68,0,0,1-1,.11A3.17,3.17,0,0,1,156.38,58.56Z"/><path class="cls-1" d="M160.15,48.9V47.23a3.33,3.33,0,0,1,1-.11,3.76,3.76,0,0,1,1,.11V48.9a3.76,3.76,0,0,1-1,.11A3.41,3.41,0,0,1,160.15,48.9Zm0,9.66v-8a3.05,3.05,0,0,1,1-.11,3.68,3.68,0,0,1,1,.11v8a3.68,3.68,0,0,1-1,.11A3.05,3.05,0,0,1,160.18,58.56Z"/><path class="cls-1" d="M167.05,48.9V47.23a3.37,3.37,0,0,1,1-.11,3.63,3.63,0,0,1,1,.11V48.9a3.63,3.63,0,0,1-1,.11A3.53,3.53,0,0,1,167.05,48.9Zm0,9.66v-8a3.05,3.05,0,0,1,1-.11,3.68,3.68,0,0,1,1,.11v8a3.68,3.68,0,0,1-1,.11A3.05,3.05,0,0,1,167.09,58.56Z"/><path class="cls-1" d="M170.85,58.56v-8a3,3,0,0,1,1-.12,3.27,3.27,0,0,1,1,.12v.65a2.93,2.93,0,0,1,2.15-.91,2.06,2.06,0,0,1,2,1.08,3.15,3.15,0,0,1,2.47-1.08,2.14,2.14,0,0,1,2.3,2.34v5.88a3.68,3.68,0,0,1-1,.11,3.29,3.29,0,0,1-1-.11V53.05a1,1,0,0,0-1.15-1.16,1.61,1.61,0,0,0-1.36.77v5.9a3.68,3.68,0,0,1-1,.11,3.29,3.29,0,0,1-1-.11V53.05a1,1,0,0,0-1.14-1.16,1.68,1.68,0,0,0-1.36.76v5.91a3.55,3.55,0,0,1-1,.11A3.33,3.33,0,0,1,170.85,58.56Z"/><path class="cls-1" d="M190.47,54.58c0,3.16-1.16,4.25-2.91,4.25a2.5,2.5,0,0,1-2.12-.9v4.18a3.72,3.72,0,0,1-1,.11,3.25,3.25,0,0,1-1-.11V50.59a3.25,3.25,0,0,1,1-.11,3.72,3.72,0,0,1,1,.11v.65a2.49,2.49,0,0,1,2.14-.9C189.3,50.34,190.47,51.38,190.47,54.58Zm-2,0c0-2.12-.51-2.69-1.57-2.69-.89,0-1.4.74-1.42,1.67v2c0,.91.48,1.75,1.42,1.75S188.43,56.75,188.43,54.58Z"/><path class="cls-1" d="M192,58.56V47.16a3.25,3.25,0,0,1,1-.11,3.46,3.46,0,0,1,1,.11v11.4a3.46,3.46,0,0,1-1,.11A3.25,3.25,0,0,1,192,58.56Z"/><path class="cls-1" d="M201.9,53.3v5.26a2.25,2.25,0,0,1-.8.11,2.65,2.65,0,0,1-.81-.11l-.24-.9a2.33,2.33,0,0,1-2.31,1.17c-1.51,0-2.4-.87-2.4-2.62s1-2.48,3-2.48c.61,0,1.16.06,1.58.09v-.45c0-.91-.4-1.42-1.45-1.42a6.28,6.28,0,0,0-2,.37,1.47,1.47,0,0,1-.43-.6,1.65,1.65,0,0,1-.12-.78,7,7,0,0,1,2.85-.6C201.08,50.34,201.9,51.3,201.9,53.3Zm-2,2.26v-.51c-.34,0-.82-.08-1.28-.08-.89,0-1.37.36-1.37,1.24s.44,1.25,1.15,1.25C199.47,57.46,200,56.58,200,55.56Z"/><path class="cls-1" d="M203.65,58.56v-8a3,3,0,0,1,1-.12,3.19,3.19,0,0,1,1,.12v.64a3,3,0,0,1,2.25-.9,2.16,2.16,0,0,1,2.37,2.32v5.9a3.41,3.41,0,0,1-1,.11,3.21,3.21,0,0,1-1-.11V53.05c0-.74-.37-1.16-1.22-1.16a1.82,1.82,0,0,0-1.45.77v5.9a3.46,3.46,0,0,1-1,.11A3.25,3.25,0,0,1,203.65,58.56Z"/><path class="cls-1" d="M216.69,58a2.1,2.1,0,0,1-.09.65,5.19,5.19,0,0,1-1.28.16c-2,0-2.79-1-2.79-3V51.9h-1.15a2.31,2.31,0,0,1-.09-.69,2.36,2.36,0,0,1,.09-.73h1.15V49a3.56,3.56,0,0,1,1.95-.34v1.78h1.86a2,2,0,0,1,.11.71,2.19,2.19,0,0,1-.11.71h-1.86v3.84c0,1.21.43,1.57,1.39,1.57a3.24,3.24,0,0,0,.67-.08A2,2,0,0,1,216.69,58Z"/><path class="cls-1" d="M217.47,54.58c0-3.08,1.38-4.24,3.59-4.24s3.6,1.16,3.6,4.24-1.38,4.25-3.6,4.25S217.47,57.65,217.47,54.58Zm5.16,0c0-2.17-.59-2.74-1.57-2.74s-1.58.57-1.58,2.74.59,2.76,1.58,2.76S222.63,56.75,222.63,54.58Z"/><path class="cls-1" d="M226.17,58.56V47.16a3.25,3.25,0,0,1,1-.11,3.46,3.46,0,0,1,1,.11v11.4a3.46,3.46,0,0,1-1,.11A3.25,3.25,0,0,1,226.17,58.56Z"/><path class="cls-1" d="M229.66,54.58c0-3.08,1.38-4.24,3.59-4.24s3.59,1.16,3.59,4.24-1.38,4.25-3.59,4.25S229.66,57.65,229.66,54.58Zm5.15,0c0-2.17-.58-2.74-1.56-2.74s-1.58.57-1.58,2.74.59,2.76,1.58,2.76S234.81,56.75,234.81,54.58Z"/><path class="cls-1" d="M245.25,59.79c0,1.62-1.53,2.75-4.15,2.75-2.38,0-3.45-.83-3.45-2.13a2.57,2.57,0,0,1,1.36-2.1,1.26,1.26,0,0,1-.34-.92,2.56,2.56,0,0,1,.82-1.74A2.5,2.5,0,0,1,238,53.16c0-1.74,1.1-2.82,3.19-2.82a4,4,0,0,1,1.83.39l2.2-.39a2.24,2.24,0,0,1,0,1.49l-1.16-.1a3,3,0,0,1,.32,1.43c0,1.75-1.08,2.82-3.19,2.82-.2,0-.4,0-.59,0a1.17,1.17,0,0,0-.21.79C240.61,58,245.25,56.58,245.25,59.79Zm-1.87.24c0-1.08-2-.83-3.38-1.19a1.61,1.61,0,0,0-.52,1.18c0,.69.49,1.19,1.67,1.19C242.62,61.21,243.38,60.73,243.38,60Zm-3.47-6.87c0,1.08.51,1.55,1.3,1.55s1.3-.47,1.3-1.55-.51-1.55-1.3-1.55S239.91,52.07,239.91,53.16Z"/><path class="cls-1" d="M246.49,48.9V47.23a3.37,3.37,0,0,1,1-.11,3.72,3.72,0,0,1,1,.11V48.9a3.72,3.72,0,0,1-1,.11A3.53,3.53,0,0,1,246.49,48.9Zm0,9.66v-8a3.17,3.17,0,0,1,1-.11,3.68,3.68,0,0,1,1,.11v8a3.68,3.68,0,0,1-1,.11A3.17,3.17,0,0,1,246.52,58.56Z"/><path class="cls-1" d="M250,54.6c0-2.81,1.16-4.26,3.5-4.26a4.2,4.2,0,0,1,2.2.45,1.92,1.92,0,0,1-.56,1.34,3.32,3.32,0,0,0-1.25-.23c-1.35,0-1.88.84-1.88,2.68s.59,2.62,1.94,2.62a3.53,3.53,0,0,0,1.34-.25,2.18,2.18,0,0,1,.58,1.36,4.45,4.45,0,0,1-2.37.52C251.15,58.83,250,57.43,250,54.6Z"/><path class="cls-1" d="M262.8,57.9a2.19,2.19,0,0,1-.12.77h-5.95a2.58,2.58,0,0,1-.11-.8,2.29,2.29,0,0,1,.11-.76L260.6,52H257a2.58,2.58,0,0,1-.11-.79,2.52,2.52,0,0,1,.11-.77h5.74a2.32,2.32,0,0,1,.1.74,3,3,0,0,1-.1.82l-3.87,5.07h3.86A2.18,2.18,0,0,1,262.8,57.9Z"/><path class="cls-1" d="M264.24,58.56v-8a3,3,0,0,1,1-.12,3.19,3.19,0,0,1,1,.12v.64a3,3,0,0,1,2.25-.9,2.16,2.16,0,0,1,2.37,2.32v5.9a3.41,3.41,0,0,1-1,.11,3.21,3.21,0,0,1-1-.11V53.05c0-.74-.37-1.16-1.23-1.16a1.81,1.81,0,0,0-1.44.77v5.9a3.46,3.46,0,0,1-1,.11A3.25,3.25,0,0,1,264.24,58.56Z"/><path class="cls-1" d="M278.71,55.17h-4.46c.14,1.57.8,2,1.93,2a3.53,3.53,0,0,0,1.72-.42,2,2,0,0,1,.62,1.35,4.55,4.55,0,0,1-2.66.7c-2.45,0-3.61-1.38-3.61-4.23s1.36-4.26,3.53-4.26a2.81,2.81,0,0,1,3.1,3.16A7.47,7.47,0,0,1,278.71,55.17Zm-4.46-1.27h2.8a6,6,0,0,0,0-.62c0-.82-.32-1.49-1.27-1.49S274.36,52.37,274.25,53.9Z"/><path class="cls-1" d="M278.6,62.33a2.15,2.15,0,0,1-.05-.44,1.81,1.81,0,0,1,.22-1,2.67,2.67,0,0,0,.56.06c.65,0,1-.33,1-1.15V50.59a3.33,3.33,0,0,1,1-.11,3.64,3.64,0,0,1,1,.11V60a2.18,2.18,0,0,1-2.4,2.51A3.31,3.31,0,0,1,278.6,62.33Zm1.7-13.43V47.23a3.33,3.33,0,0,1,1-.11,3.67,3.67,0,0,1,1,.11V48.9a3.38,3.38,0,0,1-1,.12A3.07,3.07,0,0,1,280.3,48.9Z"/><path class="cls-1" d="M283.52,50.62a9.28,9.28,0,0,1,1.21-4.43.91.91,0,0,1,.46.11.93.93,0,0,1,.35.32,8.9,8.9,0,0,0,0,8,.72.72,0,0,1-.34.32,1,1,0,0,1-.47.12A9.3,9.3,0,0,1,283.52,50.62Z"/><path class="cls-1" d="M290,52.53a1.38,1.38,0,0,1,0,1h-3.82a3.57,3.57,0,0,1-.06-.65c0-1.37.91-1.91,1.73-2.45s1.13-.83,1.13-1.41-.34-.81-1.07-.81a4,4,0,0,0-1.27.24.94.94,0,0,1-.33-.81,4.38,4.38,0,0,1,1.8-.37c1.19,0,2.05.53,2.05,1.72s-.59,1.53-1.66,2.17c-.51.31-1.2.57-1.22,1.2a1.21,1.21,0,0,0,0,.19Z"/><path class="cls-1" d="M291.07,54.94a.71.71,0,0,1-.35-.32,8.81,8.81,0,0,0,0-8,.93.93,0,0,1,.35-.32.91.91,0,0,1,.46-.11,8.73,8.73,0,0,1,0,8.87A1,1,0,0,1,291.07,54.94Z"/><polyline class="cls-2" points="11.59 6.57 30.58 34.7 11.59 62.93"/></svg>