<svg id="Warstwa_1" data-name="Warstwa 1" xmlns="http://www.w3.org/2000/svg" viewBox="0 0 300 50"><defs><style>.cls-1{fill:#ccd513;}.cls-2{fill:#0056a3;}</style></defs><title>bezposrednia_aplikacja</title><polygon class="cls-1" points="92.3 25.39 82.05 10.44 20.03 10.44 30.28 25.39 20 40.44 82.02 40.44 92.3 25.39"/><path class="cls-2" d="M36.16,17.22a.94.94,0,0,1-1.08,1H33.73V14.65h1.33a.9.9,0,0,1,1,1,.83.83,0,0,1-.42.77A.84.84,0,0,1,36.16,17.22ZM35,15h-.71v1.18H35A.59.59,0,0,0,35,15Zm.68,2.18c0-.43-.21-.62-.64-.62h-.75v1.23H35C35.45,17.83,35.63,17.6,35.63,17.22Z"/><path class="cls-2" d="M38.57,17.06H37.08c0,.59.26.79.69.79a1.14,1.14,0,0,0,.58-.15.55.55,0,0,1,.16.35,1.41,1.41,0,0,1-.83.22c-.75,0-1.11-.46-1.11-1.36s.43-1.35,1.09-1.35a.87.87,0,0,1,1,1A2.36,2.36,0,0,1,38.57,17.06Zm-1.5-.33h1.08a1.77,1.77,0,0,0,0-.24c0-.3-.13-.55-.49-.55S37.11,16.16,37.07,16.73Z"/><path class="cls-2" d="M40.86,18a.43.43,0,0,1,0,.2H39a.62.62,0,0,1,0-.21.5.5,0,0,1,0-.19L40.29,16H39.05a.65.65,0,0,1,0-.21.52.52,0,0,1,0-.19h1.77a.74.74,0,0,1,0,.18,1.17,1.17,0,0,1,0,.22l-1.33,1.81h1.33A.43.43,0,0,1,40.86,18Z"/><path class="cls-2" d="M43.49,16.91c0,1-.38,1.36-1,1.36a.78.78,0,0,1-.72-.34v1.42a.79.79,0,0,1-.25,0,.87.87,0,0,1-.25,0V15.64a.87.87,0,0,1,.25,0,.79.79,0,0,1,.25,0v.25a.8.8,0,0,1,.72-.33C43.11,15.56,43.49,15.89,43.49,16.91Zm-.52,0c0-.73-.19-.95-.6-.95a.57.57,0,0,0-.55.62v.64a.59.59,0,0,0,.55.65C42.78,17.87,43,17.65,43,16.91Z"/><path class="cls-2" d="M43.88,16.91c0-1,.43-1.35,1.12-1.35s1.1.37,1.1,1.35-.42,1.36-1.1,1.36S43.88,17.9,43.88,16.91Zm1.71,0c0-.76-.23-1-.59-1s-.6.21-.6,1,.23,1,.6,1S45.59,17.67,45.59,16.91Z"/><path class="cls-2" d="M46.45,18.09a.46.46,0,0,1,.13-.35,2.26,2.26,0,0,0,.68.12c.33,0,.52-.12.52-.37s-.29-.33-.59-.42-.7-.25-.7-.73.31-.78.94-.78a1.62,1.62,0,0,1,.71.13A.44.44,0,0,1,48,16a1.83,1.83,0,0,0-.54-.09c-.35,0-.51.13-.51.37s.3.3.61.4.68.26.68.76-.3.79-1,.79A2,2,0,0,1,46.45,18.09Zm.52-3,.5-.72a.47.47,0,0,1,.43.18l-.64.69A.45.45,0,0,1,47,15.12Z"/><path class="cls-2" d="M48.72,18.19V15.64a.79.79,0,0,1,.25,0,.58.58,0,0,1,.23,0V16a.72.72,0,0,1,.64-.43.68.68,0,0,1,.42.13.61.61,0,0,1-.21.41.5.5,0,0,0-.31-.1.66.66,0,0,0-.53.4v1.79a.87.87,0,0,1-.25,0A.79.79,0,0,1,48.72,18.19Z"/><path class="cls-2" d="M52.48,17.06H51c0,.59.27.79.69.79a1.14,1.14,0,0,0,.58-.15.5.5,0,0,1,.16.35,1.41,1.41,0,0,1-.83.22c-.74,0-1.11-.46-1.11-1.36s.44-1.35,1.1-1.35a.87.87,0,0,1,1,1A2,2,0,0,1,52.48,17.06ZM51,16.73h1.07a1.66,1.66,0,0,0,0-.24c0-.3-.14-.55-.5-.55S51,16.16,51,16.73Z"/><path class="cls-2" d="M55.07,14.53v3.66a.65.65,0,0,1-.21,0,.76.76,0,0,1-.22,0l0-.29a.79.79,0,0,1-.74.37c-.57,0-.94-.34-.94-1.35s.36-1.36.94-1.36a.81.81,0,0,1,.72.33V14.53a.79.79,0,0,1,.25,0A.75.75,0,0,1,55.07,14.53Zm-.49,2.71v-.66A.58.58,0,0,0,54,16c-.4,0-.59.23-.59,1s.19.95.59.95A.58.58,0,0,0,54.58,17.24Z"/><path class="cls-2" d="M55.68,18.19V15.64a1.06,1.06,0,0,1,.5,0v.25a1,1,0,0,1,.77-.33.68.68,0,0,1,.76.74v1.89a.87.87,0,0,1-.25,0,.75.75,0,0,1-.24,0V16.4c0-.29-.15-.44-.46-.44a.69.69,0,0,0-.58.34v1.89a1.06,1.06,0,0,1-.5,0Z"/><path class="cls-2" d="M58.3,15.07v-.45a.82.82,0,0,1,.26,0,.94.94,0,0,1,.27,0v.45a.94.94,0,0,1-.27,0A.82.82,0,0,1,58.3,15.07Zm0,3.12V15.64a.79.79,0,0,1,.25,0,.87.87,0,0,1,.25,0v2.55a.87.87,0,0,1-.25,0A.79.79,0,0,1,58.31,18.19Z"/><path class="cls-2" d="M61.3,16.53v1.66a.68.68,0,0,1-.4,0l-.07-.33a.81.81,0,0,1-.79.41.72.72,0,0,1-.77-.82c0-.53.33-.78,1-.78.23,0,.45,0,.58,0v-.2a.46.46,0,0,0-.53-.53,2.06,2.06,0,0,0-.66.12.29.29,0,0,1-.11-.15.39.39,0,0,1,0-.2,2.26,2.26,0,0,1,.88-.18C61.07,15.56,61.3,15.88,61.3,16.53Zm-.49.68V17c-.12,0-.32,0-.51,0-.35,0-.52.13-.52.46s.16.45.43.45A.63.63,0,0,0,60.81,17.21Z"/><path class="cls-2" d="M64.77,16.53v1.66a.68.68,0,0,1-.4,0l-.07-.33a.8.8,0,0,1-.79.41.72.72,0,0,1-.77-.82c0-.53.33-.78,1-.78.24,0,.45,0,.58,0v-.2a.46.46,0,0,0-.53-.53,2.06,2.06,0,0,0-.66.12.29.29,0,0,1-.11-.15.39.39,0,0,1,0-.2,2.26,2.26,0,0,1,.88-.18C64.55,15.56,64.77,15.88,64.77,16.53Zm-.49.68V17c-.12,0-.32,0-.51,0-.35,0-.52.13-.52.46s.16.45.43.45A.63.63,0,0,0,64.28,17.21Z"/><path class="cls-2" d="M67.53,16.91c0,1-.37,1.36-.94,1.36a.79.79,0,0,1-.73-.34v1.42a.79.79,0,0,1-.25,0,.87.87,0,0,1-.25,0V15.64a.87.87,0,0,1,.25,0,.79.79,0,0,1,.25,0v.25a.8.8,0,0,1,.73-.33C67.15,15.56,67.53,15.89,67.53,16.91Zm-.52,0c0-.73-.19-.95-.6-.95a.57.57,0,0,0-.55.62v.64a.59.59,0,0,0,.55.65C66.82,17.87,67,17.65,67,16.91Z"/><path class="cls-2" d="M68.05,18.19V14.53a1.06,1.06,0,0,1,.5,0v3.66a1.06,1.06,0,0,1-.5,0Z"/><path class="cls-2" d="M69.17,15.07v-.45a.94.94,0,0,1,.27,0,.9.9,0,0,1,.26,0v.45a.9.9,0,0,1-.26,0A.94.94,0,0,1,69.17,15.07Zm0,3.12V15.64a.71.71,0,0,1,.25,0,.75.75,0,0,1,.24,0v2.55a.75.75,0,0,1-.24,0A.79.79,0,0,1,69.19,18.19Z"/><path class="cls-2" d="M72.4,18.19a1,1,0,0,1-.27,0,1.17,1.17,0,0,1-.28,0L71.11,17H70.8v1.15a.75.75,0,0,1-.24,0,.87.87,0,0,1-.25,0V14.53a1,1,0,0,1,.25,0,.92.92,0,0,1,.24,0v2.14h.32l.66-1a.9.9,0,0,1,.26,0,1,1,0,0,1,.25,0l-.75,1.18Z"/><path class="cls-2" d="M74.59,16.53v1.66a.58.58,0,0,1-.21,0,.62.62,0,0,1-.2,0l-.07-.33a.78.78,0,0,1-.78.41.72.72,0,0,1-.77-.82c0-.53.32-.78,1-.78.23,0,.44,0,.57,0v-.2c0-.35-.15-.53-.52-.53a2.08,2.08,0,0,0-.67.12.36.36,0,0,1-.11-.15.46.46,0,0,1,0-.2,2.26,2.26,0,0,1,.88-.18C74.36,15.56,74.59,15.88,74.59,16.53Zm-.5.68V17c-.11,0-.32,0-.5,0-.35,0-.52.13-.52.46s.16.45.43.45A.62.62,0,0,0,74.09,17.21Z"/><path class="cls-2" d="M75.07,16.92c0-.9.38-1.36,1.1-1.36a1.36,1.36,0,0,1,.67.13.54.54,0,0,1-.15.35,1.1,1.1,0,0,0-.43-.08c-.48,0-.67.31-.67,1s.21.93.69.93a1.17,1.17,0,0,0,.46-.09.51.51,0,0,1,.15.35,1.38,1.38,0,0,1-.72.16C75.45,18.27,75.07,17.81,75.07,16.92Z"/><path class="cls-2" d="M76.72,19.4a.27.27,0,0,1,0-.11.5.5,0,0,1,0-.25,1,1,0,0,0,.19,0c.24,0,.37-.13.37-.43v-3a.79.79,0,0,1,.25,0,.87.87,0,0,1,.25,0v3c0,.53-.26.8-.73.8A.87.87,0,0,1,76.72,19.4Zm.57-4.33v-.46a.94.94,0,0,1,.27,0,.9.9,0,0,1,.26,0v.46a.9.9,0,0,1-.26,0A.94.94,0,0,1,77.29,15.07Z"/><path class="cls-2" d="M80.3,16.53v1.66a.68.68,0,0,1-.4,0l-.07-.33a.81.81,0,0,1-.79.41.72.72,0,0,1-.77-.82c0-.53.33-.78,1-.78.23,0,.45,0,.58,0v-.2a.46.46,0,0,0-.53-.53,2.06,2.06,0,0,0-.66.12.29.29,0,0,1-.11-.15.39.39,0,0,1,0-.2,2.26,2.26,0,0,1,.88-.18C80.07,15.56,80.3,15.88,80.3,16.53Zm-.49.68V17c-.12,0-.32,0-.51,0-.35,0-.52.13-.52.46s.16.45.43.45A.63.63,0,0,0,79.81,17.21Z"/><path class="cls-2" d="M33.66,24.13V21.58a.79.79,0,0,1,.25,0,.87.87,0,0,1,.25,0v.26a1,1,0,0,1,.76-.34.7.7,0,0,1,.77.74v1.89a.87.87,0,0,1-.25,0,.79.79,0,0,1-.25,0V22.34c0-.29-.15-.44-.46-.44a.69.69,0,0,0-.57.34v1.89a.87.87,0,0,1-.25,0A.79.79,0,0,1,33.66,24.13Z"/><path class="cls-2" d="M38.15,22.47v1.66a.55.55,0,0,1-.2,0,.65.65,0,0,1-.21,0l-.07-.33a.78.78,0,0,1-.78.41.72.72,0,0,1-.77-.82c0-.53.32-.78,1-.78.23,0,.44,0,.57,0v-.2c0-.35-.15-.52-.52-.52a2.24,2.24,0,0,0-.67.11.37.37,0,0,1-.11-.14.51.51,0,0,1,0-.21,2.26,2.26,0,0,1,.88-.18C37.92,21.5,38.15,21.83,38.15,22.47Zm-.5.69V23c-.11,0-.32,0-.5,0-.35,0-.52.13-.52.46s.16.45.43.45A.61.61,0,0,0,37.65,23.16Z"/><path class="cls-2" d="M39.75,24.13V21.58a.79.79,0,0,1,.25,0,.58.58,0,0,1,.23,0v.36a.7.7,0,0,1,1.06-.31.56.56,0,0,1-.22.41.47.47,0,0,0-.3-.1.65.65,0,0,0-.53.4v1.79a.87.87,0,0,1-.25,0A.79.79,0,0,1,39.75,24.13Z"/><path class="cls-2" d="M43.49,22.47v1.66a.58.58,0,0,1-.21,0,.55.55,0,0,1-.2,0L43,23.8a.78.78,0,0,1-.78.41.72.72,0,0,1-.77-.82c0-.53.32-.78.95-.78.24,0,.45,0,.58,0v-.2c0-.35-.15-.52-.53-.52a2.22,2.22,0,0,0-.66.11.37.37,0,0,1-.11-.14.51.51,0,0,1,0-.21,2.24,2.24,0,0,1,.87-.18C43.26,21.5,43.49,21.83,43.49,22.47Zm-.5.69V23c-.11,0-.32,0-.51,0s-.52.13-.52.46a.39.39,0,0,0,.44.45A.61.61,0,0,0,43,23.16Z"/><path class="cls-2" d="M44.08,24.13V21.58a.79.79,0,0,1,.25,0,.75.75,0,0,1,.24,0v.26a1,1,0,0,1,.77-.34.7.7,0,0,1,.77.74v1.89a.87.87,0,0,1-.25,0,.79.79,0,0,1-.25,0V22.34c0-.29-.15-.44-.46-.44a.72.72,0,0,0-.58.34v1.89a.75.75,0,0,1-.24,0A.79.79,0,0,1,44.08,24.13Z"/><path class="cls-2" d="M48.59,23H47.1c0,.59.27.78.69.78a1.14,1.14,0,0,0,.58-.15.56.56,0,0,1,.17.35l-.11.09c-.37.32-.54.67-.48.85a.16.16,0,0,0,.15.12.73.73,0,0,0,.2-.05.4.4,0,0,1,.12.28.76.76,0,0,1-.44.12c-.25,0-.42-.09-.47-.3s.11-.62.44-.91a.94.94,0,0,1-.25,0c-.75,0-1.11-.45-1.11-1.36S47,21.5,47.68,21.5a.89.89,0,0,1,1,1A2.08,2.08,0,0,1,48.59,23Zm-1.5-.34h1.08a1.7,1.7,0,0,0,0-.24c0-.3-.13-.55-.49-.55S47.13,22.1,47.09,22.67Z"/><path class="cls-2" d="M52.3,22.85c0,1-.37,1.36-.94,1.36a.81.81,0,0,1-.73-.34v1.42a.75.75,0,0,1-.24,0,.79.79,0,0,1-.25,0V21.58a.79.79,0,0,1,.25,0,.75.75,0,0,1,.24,0v.26a.81.81,0,0,1,.73-.34C51.92,21.5,52.3,21.84,52.3,22.85Zm-.52,0c0-.73-.19-1-.6-1a.58.58,0,0,0-.55.63v.64a.59.59,0,0,0,.55.64C51.59,23.81,51.78,23.59,51.78,22.85Z"/><path class="cls-2" d="M52.7,22.85c0-1,.42-1.35,1.11-1.35s1.11.37,1.11,1.35-.43,1.36-1.11,1.36S52.7,23.84,52.7,22.85Zm1.7,0c0-.76-.22-1-.59-1s-.6.21-.6,1,.23,1,.6,1S54.4,23.61,54.4,22.85Z"/><path class="cls-2" d="M55.31,22.85c0-1,.42-1.35,1.11-1.35s1.1.37,1.1,1.35-.42,1.36-1.1,1.36S55.31,23.84,55.31,22.85Zm1.7,0c0-.76-.22-1-.59-1s-.6.21-.6,1,.23,1,.6,1S57,23.61,57,22.85Z"/><path class="cls-2" d="M60.19,22.85c0,1-.37,1.36-.94,1.36a.8.8,0,0,1-.73-.34v1.42a.79.79,0,0,1-.25,0,.75.75,0,0,1-.24,0V21.58a.75.75,0,0,1,.24,0,.79.79,0,0,1,.25,0v.26a.8.8,0,0,1,.73-.34C59.81,21.5,60.19,21.84,60.19,22.85Zm-.52,0c0-.73-.19-1-.6-1a.58.58,0,0,0-.55.63v.64a.59.59,0,0,0,.55.64C59.48,23.81,59.67,23.59,59.67,22.85Z"/><path class="cls-2" d="M62.59,23H61.1c0,.59.26.78.69.78a1.14,1.14,0,0,0,.58-.15.5.5,0,0,1,.16.35,1.41,1.41,0,0,1-.83.22c-.75,0-1.11-.45-1.11-1.36S61,21.5,61.68,21.5a.88.88,0,0,1,1,1A2.47,2.47,0,0,1,62.59,23Zm-1.5-.34h1.08a1.7,1.7,0,0,0,0-.24c0-.3-.13-.55-.49-.55S61.13,22.1,61.09,22.67Z"/><path class="cls-2" d="M63.13,24.13V21.58a.75.75,0,0,1,.24,0,.68.68,0,0,1,.24,0v.36a.71.71,0,0,1,1.07-.31.6.6,0,0,1-.22.41.48.48,0,0,0-.31-.1.66.66,0,0,0-.53.4v1.79a.79.79,0,0,1-.25,0A.75.75,0,0,1,63.13,24.13Z"/><path class="cls-2" d="M66.86,22.47v1.66a.68.68,0,0,1-.4,0l-.07-.33a.8.8,0,0,1-.79.41.72.72,0,0,1-.77-.82c0-.53.33-.78,1-.78.24,0,.45,0,.58,0v-.2c0-.35-.16-.52-.53-.52a2.22,2.22,0,0,0-.66.11.29.29,0,0,1-.11-.14.44.44,0,0,1,0-.21,2.26,2.26,0,0,1,.88-.18C66.64,21.5,66.86,21.83,66.86,22.47Zm-.49.69V23c-.12,0-.32,0-.51,0-.35,0-.52.13-.52.46s.16.45.43.45A.62.62,0,0,0,66.37,23.16Z"/><path class="cls-2" d="M67.35,22.86c0-.89.37-1.36,1.1-1.36a1.34,1.34,0,0,1,.66.13A.44.44,0,0,1,69,22a1.14,1.14,0,0,0-.42-.07c-.48,0-.68.3-.68.95s.21.93.7.93A1.09,1.09,0,0,0,69,23.7a.47.47,0,0,1,.15.35,1.32,1.32,0,0,1-.71.16C67.72,24.21,67.35,23.75,67.35,22.86Z"/><path class="cls-2" d="M71.75,21.58l-1,3c-.17.53-.36.83-.87.83a1.06,1.06,0,0,1-.33,0,.46.46,0,0,1,0-.19.35.35,0,0,1,0-.19l.23,0c.23,0,.36-.08.5-.51l.11-.33a.4.4,0,0,1-.15,0l-1-2.55a1.14,1.14,0,0,1,.52,0l.57,1.52a3.78,3.78,0,0,1,.18.58h0s.05-.24.16-.58l.5-1.52a.79.79,0,0,1,.25,0A.83.83,0,0,1,71.75,21.58Z"/><path class="cls-2" d="M71.53,25.35a.35.35,0,0,1,0-.12.5.5,0,0,1,0-.25,1,1,0,0,0,.19,0c.25,0,.37-.12.37-.43v-3a.79.79,0,0,1,.25,0,.87.87,0,0,1,.25,0v3c0,.53-.26.8-.73.8A1,1,0,0,1,71.53,25.35ZM72.1,21v-.45a.94.94,0,0,1,.27,0,.9.9,0,0,1,.26,0V21a.9.9,0,0,1-.26,0A.94.94,0,0,1,72.1,21Z"/><path class="cls-2" d="M73.24,24.13V21.58a.79.79,0,0,1,.25,0,.87.87,0,0,1,.25,0v.26a1,1,0,0,1,.77-.34.69.69,0,0,1,.76.74v1.89a.87.87,0,0,1-.25,0,.68.68,0,0,1-.24,0V22.34c0-.29-.15-.44-.47-.44a.69.69,0,0,0-.57.34v1.89a.87.87,0,0,1-.25,0A.79.79,0,0,1,73.24,24.13Z"/><path class="cls-2" d="M77.74,25.28a.79.79,0,0,1-.45.12c-.31,0-.49-.15-.49-.43a1.22,1.22,0,0,1,.53-.84l-.08-.32a.79.79,0,0,1-.78.4.72.72,0,0,1-.77-.82c0-.53.33-.78,1-.78.23,0,.45,0,.58,0v-.2c0-.35-.16-.52-.53-.52a2.22,2.22,0,0,0-.66.11.29.29,0,0,1-.11-.14.44.44,0,0,1,0-.21,2.26,2.26,0,0,1,.88-.18c.72,0,1,.33,1,1v1.66a1.17,1.17,0,0,0-.47.74c0,.12.07.18.15.18a.59.59,0,0,0,.2-.05A.41.41,0,0,1,77.74,25.28Zm-.5-2.12V23c-.11,0-.32,0-.51,0-.35,0-.52.13-.52.46s.16.45.43.45A.62.62,0,0,0,77.24,23.16Z"/><path class="cls-2" d="M78.28,24.65a.87.87,0,0,0,.18-.49.41.41,0,0,1-.17,0v-.48a1.14,1.14,0,0,1,.52,0V24a1,1,0,0,1-.34.79Z"/><path class="cls-2" d="M35.41,29.91a.41.41,0,0,1,0,.19H33.52a.58.58,0,0,1,0-.21.84.84,0,0,1,0-.19l1.32-1.81H33.6a.62.62,0,0,1,0-.2.55.55,0,0,1,0-.2h1.77a.84.84,0,0,1,0,.19,1.05,1.05,0,0,1,0,.21L34.05,29.7h1.32A.45.45,0,0,1,35.41,29.91Z"/><path class="cls-2" d="M37.75,28.41v1.67a.85.85,0,0,1-.21,0,.8.8,0,0,1-.2,0l-.07-.34a.78.78,0,0,1-.78.41.72.72,0,0,1-.77-.81c0-.54.32-.78,1-.78a4.24,4.24,0,0,1,.57,0v-.21c0-.35-.15-.52-.52-.52a2.08,2.08,0,0,0-.67.12.47.47,0,0,1-.11-.15.51.51,0,0,1,0-.21,2.24,2.24,0,0,1,.87-.18C37.52,27.44,37.75,27.77,37.75,28.41Zm-.5.69v-.19c-.11,0-.32,0-.51,0-.34,0-.52.13-.52.46a.39.39,0,0,0,.44.45A.61.61,0,0,0,37.25,29.1Z"/><path class="cls-2" d="M40.5,28.79c0,1-.37,1.36-.94,1.36a.81.81,0,0,1-.73-.34v1.43a1.1,1.1,0,0,1-.24,0,1.15,1.15,0,0,1-.25,0V27.52a.79.79,0,0,1,.25,0,.75.75,0,0,1,.24,0v.26a.81.81,0,0,1,.73-.34C40.12,27.44,40.5,27.78,40.5,28.79Zm-.52,0c0-.72-.19-.95-.6-.95a.59.59,0,0,0-.55.63v.64a.59.59,0,0,0,.55.64C39.79,29.75,40,29.53,40,28.79Z"/><path class="cls-2" d="M42.9,29H41.41c0,.59.27.78.69.78a1.14,1.14,0,0,0,.58-.15.53.53,0,0,1,.16.36,1.46,1.46,0,0,1-.83.21c-.74,0-1.11-.45-1.11-1.36s.43-1.35,1.09-1.35a.89.89,0,0,1,1,1A2.08,2.08,0,0,1,42.9,29Zm-1.5-.34h1.08a1.44,1.44,0,0,0,0-.24c0-.3-.14-.55-.5-.55S41.44,28.05,41.4,28.61Z"/><path class="cls-2" d="M44,30.08l-.75-2.56a.87.87,0,0,1,.25,0,.55.55,0,0,1,.22,0l.46,1.54a3,3,0,0,1,.11.54h0a4.78,4.78,0,0,1,.12-.54l.45-1.54a1.24,1.24,0,0,1,.27,0,.75.75,0,0,1,.24,0l.45,1.53a3,3,0,0,1,.1.55h0a3.79,3.79,0,0,1,.12-.55l.46-1.53a.68.68,0,0,1,.22,0,.61.61,0,0,1,.22,0l-.75,2.56-.28,0-.28,0-.4-1.34a2.94,2.94,0,0,1-.13-.75h0a3.27,3.27,0,0,1-.15.75l-.4,1.34-.27,0Z"/><path class="cls-2" d="M47.29,30.08V27.52a.75.75,0,0,1,.24,0,.79.79,0,0,1,.25,0v.26a1,1,0,0,1,.77-.34.69.69,0,0,1,.76.75v1.89a1.1,1.1,0,0,1-.24,0,1.15,1.15,0,0,1-.25,0v-1.8a.4.4,0,0,0-.46-.44.69.69,0,0,0-.58.35v1.89a1.15,1.15,0,0,1-.25,0A1.1,1.1,0,0,1,47.29,30.08Z"/><path class="cls-2" d="M49.9,27V26.5a.9.9,0,0,1,.26,0,.94.94,0,0,1,.27,0V27a.94.94,0,0,1-.27,0A.9.9,0,0,1,49.9,27Zm0,3.13V27.52a.68.68,0,0,1,.24,0,.79.79,0,0,1,.25,0v2.56a1.15,1.15,0,0,1-.25,0A1,1,0,0,1,49.92,30.08Z"/><path class="cls-2" d="M52.9,28.41v1.67a1,1,0,0,1-.4,0l-.07-.34a.8.8,0,0,1-.79.41.71.71,0,0,1-.76-.81c0-.54.32-.78.95-.78a4.3,4.3,0,0,1,.58,0v-.21c0-.35-.16-.52-.53-.52a2.06,2.06,0,0,0-.66.12.35.35,0,0,1-.11-.15.44.44,0,0,1,0-.21,2.32,2.32,0,0,1,.88-.18C52.68,27.44,52.9,27.77,52.9,28.41Zm-.49.69v-.19c-.12,0-.32,0-.51,0-.35,0-.52.13-.52.46a.39.39,0,0,0,.43.45A.61.61,0,0,0,52.41,29.1Z"/><path class="cls-2" d="M56.56,26.42v3.66a1.07,1.07,0,0,1-.21,0,1.17,1.17,0,0,1-.23,0l0-.29a.81.81,0,0,1-.75.36c-.57,0-.94-.34-.94-1.35s.37-1.36.94-1.36a.8.8,0,0,1,.72.34V26.42a.7.7,0,0,1,.26,0A.58.58,0,0,1,56.56,26.42Zm-.5,2.7v-.66a.58.58,0,0,0-.54-.62c-.41,0-.6.23-.6,1s.19.95.6.95A.57.57,0,0,0,56.06,29.12Z"/><path class="cls-2" d="M58.92,29.91a.52.52,0,0,1,0,.19H57a.58.58,0,0,1,0-.21.84.84,0,0,1,0-.19l1.32-1.81H57.11a.91.91,0,0,1,0-.2.8.8,0,0,1,0-.2h1.77a.5.5,0,0,1,0,.19.62.62,0,0,1,0,.21L57.56,29.7h1.33A.58.58,0,0,1,58.92,29.91Z"/><path class="cls-2" d="M59.38,27V26.5a.94.94,0,0,1,.27,0,.9.9,0,0,1,.26,0V27a.9.9,0,0,1-.26,0A.94.94,0,0,1,59.38,27Zm0,3.13V27.52a.71.71,0,0,1,.25,0,.75.75,0,0,1,.24,0v2.56a1.1,1.1,0,0,1-.24,0A1.15,1.15,0,0,1,59.4,30.08Z"/><path class="cls-2" d="M62.39,28.41v1.67a.85.85,0,0,1-.21,0,.8.8,0,0,1-.2,0l-.07-.34a.78.78,0,0,1-.78.41.72.72,0,0,1-.77-.81c0-.54.32-.78,1-.78a4.24,4.24,0,0,1,.57,0v-.21c0-.35-.15-.52-.53-.52a2.06,2.06,0,0,0-.66.12.47.47,0,0,1-.11-.15.51.51,0,0,1,0-.21,2.24,2.24,0,0,1,.87-.18C62.16,27.44,62.39,27.77,62.39,28.41Zm-.5.69v-.19c-.11,0-.32,0-.51,0-.34,0-.52.13-.52.46a.39.39,0,0,0,.44.45A.61.61,0,0,0,61.89,29.1Z"/><path class="cls-2" d="M63.73,28.15v1.93a1.15,1.15,0,0,1-.25,0,1,1,0,0,1-.24,0V28.43l-.35.2s0,0-.1-.12a.31.31,0,0,1,0-.15l.5-.29V26.42a.53.53,0,0,1,.24,0,.61.61,0,0,1,.25,0v1.36l.36-.2s0,0,.1.11a.44.44,0,0,1,.06.16Z"/><path class="cls-2" d="M66.47,28.41v1.67a1,1,0,0,1-.4,0L66,29.74a.81.81,0,0,1-.79.41.72.72,0,0,1-.77-.81c0-.54.33-.78,1-.78a4.4,4.4,0,0,1,.58,0v-.21c0-.35-.16-.52-.53-.52a2.06,2.06,0,0,0-.66.12.35.35,0,0,1-.11-.15.44.44,0,0,1,0-.21,2.26,2.26,0,0,1,.88-.18C66.24,27.44,66.47,27.77,66.47,28.41ZM66,29.1v-.19c-.12,0-.32,0-.51,0-.35,0-.52.13-.52.46s.16.45.43.45A.62.62,0,0,0,66,29.1Z"/><path class="cls-2" d="M67.06,30.08V27.52a.79.79,0,0,1,.25,0,.87.87,0,0,1,.25,0v.26a1,1,0,0,1,.77-.34.7.7,0,0,1,.76.75v1.89a1.27,1.27,0,0,1-.25,0,1.1,1.1,0,0,1-.24,0v-1.8c0-.28-.15-.44-.47-.44a.68.68,0,0,0-.57.35v1.89a1.27,1.27,0,0,1-.25,0A1.15,1.15,0,0,1,67.06,30.08Z"/><path class="cls-2" d="M69.68,27V26.5a.82.82,0,0,1,.26,0,1,1,0,0,1,.27,0V27a1,1,0,0,1-.27,0A.82.82,0,0,1,69.68,27Zm0,3.13V27.52a.79.79,0,0,1,.25,0,.87.87,0,0,1,.25,0v2.56a1.27,1.27,0,0,1-.25,0A1.15,1.15,0,0,1,69.69,30.08Z"/><path class="cls-2" d="M72.71,29h-1.5c0,.59.27.78.69.78a1.1,1.1,0,0,0,.58-.15.53.53,0,0,1,.17.36,1.51,1.51,0,0,1-.84.21c-.74,0-1.11-.45-1.11-1.36s.44-1.35,1.1-1.35a.88.88,0,0,1,1,1A2.47,2.47,0,0,1,72.71,29Zm-1.5-.34h1.07a1.44,1.44,0,0,0,0-.24c0-.3-.13-.55-.5-.55S71.25,28.05,71.21,28.61Z"/><path class="cls-2" d="M35.82,34.74c0,1-.37,1.36-1,1.36a.8.8,0,0,1-.71-.34V36a.87.87,0,0,1-.25,0,.79.79,0,0,1-.25,0V32.36a.79.79,0,0,1,.25,0,.87.87,0,0,1,.25,0v1.36a.8.8,0,0,1,.71-.34C35.45,33.38,35.82,33.72,35.82,34.74Zm-.52,0c0-.73-.19-1-.59-1a.57.57,0,0,0-.55.63v.64a.57.57,0,0,0,.55.64C35.11,35.69,35.3,35.47,35.3,34.74Z"/><path class="cls-2" d="M38.19,34.35V36a.68.68,0,0,1-.4,0l-.07-.34a.81.81,0,0,1-.79.42.72.72,0,0,1-.77-.82c0-.54.33-.78,1-.78a4.4,4.4,0,0,1,.58,0v-.2c0-.36-.16-.53-.53-.53a2.06,2.06,0,0,0-.66.12.35.35,0,0,1-.11-.15.42.42,0,0,1,0-.21,2.26,2.26,0,0,1,.88-.18C38,33.38,38.19,33.71,38.19,34.35ZM37.7,35v-.18c-.12,0-.32,0-.51,0-.35,0-.52.13-.52.45s.16.45.43.45A.62.62,0,0,0,37.7,35Z"/><path class="cls-2" d="M38.78,36V33.46a.79.79,0,0,1,.25,0,.58.58,0,0,1,.23,0v.36a.72.72,0,0,1,.64-.43.81.81,0,0,1,.43.12.58.58,0,0,1-.22.41.5.5,0,0,0-.31-.1.67.67,0,0,0-.53.41V36a1.06,1.06,0,0,1-.5,0Z"/><path class="cls-2" d="M40.65,32.89v-.44a.82.82,0,0,1,.26,0,1,1,0,0,1,.27,0v.44a1,1,0,0,1-.27,0A.82.82,0,0,1,40.65,32.89Zm0,3.13V33.46a.79.79,0,0,1,.25,0,.87.87,0,0,1,.25,0V36a.87.87,0,0,1-.25,0A.79.79,0,0,1,40.66,36Z"/><path class="cls-2" d="M43.67,34.89H42.18c0,.59.27.78.69.78a1.2,1.2,0,0,0,.58-.14.48.48,0,0,1,.16.35,1.41,1.41,0,0,1-.83.22c-.74,0-1.11-.46-1.11-1.37s.44-1.35,1.1-1.35a.88.88,0,0,1,1,1A2.08,2.08,0,0,1,43.67,34.89Zm-1.49-.34h1.07a1.4,1.4,0,0,0,0-.23c0-.31-.14-.56-.5-.56S42.22,34,42.18,34.55Z"/><path class="cls-2" d="M44.21,36V33.46a.79.79,0,0,1,.25,0,.58.58,0,0,1,.23,0v.36a.72.72,0,0,1,.64-.43.78.78,0,0,1,.42.12.57.57,0,0,1-.21.41.5.5,0,0,0-.31-.1.67.67,0,0,0-.53.41V36a.87.87,0,0,1-.25,0A.79.79,0,0,1,44.21,36Z"/><path class="cls-2" d="M46,34.74c0-1,.43-1.36,1.11-1.36s1.11.37,1.11,1.36-.43,1.36-1.11,1.36S46,35.72,46,34.74Zm1.7,0c0-.76-.22-1-.59-1s-.6.22-.6,1,.23,1,.6,1S47.67,35.5,47.67,34.74Z"/><path class="cls-2" d="M49.2,36l-.75-2.56a.87.87,0,0,1,.25,0,.55.55,0,0,1,.22,0L49.38,35a3,3,0,0,1,.11.54h0c0-.11,0-.3.11-.54l.46-1.54a1.2,1.2,0,0,1,.26,0,.79.79,0,0,1,.25,0L51,35a3,3,0,0,1,.1.55h0a3.79,3.79,0,0,1,.12-.55l.46-1.53a.68.68,0,0,1,.22,0,.61.61,0,0,1,.22,0L51.42,36a1.32,1.32,0,0,1-.56,0l-.4-1.34a3.71,3.71,0,0,1-.14-.75h0a3.18,3.18,0,0,1-.15.75L49.76,36a2,2,0,0,1-.27,0A2.16,2.16,0,0,1,49.2,36Z"/><path class="cls-2" d="M54.43,34.89H52.94c0,.59.26.78.69.78a1.2,1.2,0,0,0,.58-.14.52.52,0,0,1,.16.35,1.41,1.41,0,0,1-.83.22c-.75,0-1.11-.46-1.11-1.37s.43-1.35,1.09-1.35a.88.88,0,0,1,1,1A2.47,2.47,0,0,1,54.43,34.89Zm-1.5-.34H54a1.55,1.55,0,0,0,0-.23c0-.31-.13-.56-.49-.56S53,34,52.93,34.55Z"/></svg>