<svg xmlns="http://www.w3.org/2000/svg" viewBox="0 0 300 150"><defs><style>.cls-1{fill:#ccd513;}.cls-2{fill:none;stroke:#fff;stroke-miterlimit:10;stroke-width:2px;}.cls-3{fill:#fff;}</style></defs><title>dalej_normal</title><g id="Warstwa_2" data-name="Warstwa 2"><rect class="cls-1" x="100" y="40" width="100" height="70" rx="35"/><path class="cls-2" d="M142.83,83h20a2,2,0,0,1,2,2v7.32a1.37,1.37,0,0,0,2.33.93l18.3-17.76a1.93,1.93,0,0,0,0-2.78L168.26,56a2,2,0,0,0-3.45,1.39V63.2a2,2,0,0,1-2,2h-20a2,2,0,0,0-2,2V81.07A2,2,0,0,0,142.83,83Z"/><rect class="cls-3" x="120.97" y="55.46" width="3.62" height="38.18" rx="1.03" transform="translate(245.56 149.11) rotate(-180)"/></g></svg>