<svg id="Warstwa_1" data-name="Warstwa 1" xmlns="http://www.w3.org/2000/svg" viewBox="0 0 750 80"><defs><style>.cls-1{fill:#0056a3;}.cls-2{fill:#1d1d1b;}.cls-3{fill:#ccd513;}.cls-4{fill:none;stroke:#ccd513;stroke-width:4px;}</style></defs><title>duze_opakowanie</title><path class="cls-1" d="M193.14,25.76h7.31c6.28,0,9.81,3.06,9.81,11.85s-3.53,11.85-9.81,11.85h-7.31Zm7.11,20.94c4,0,6.39-1.71,6.39-9.09s-2.41-9.09-6.39-9.09h-3.69V46.7Z"/><path class="cls-1" d="M227.84,32.31v17a5.41,5.41,0,0,1-1.65.19,5.65,5.65,0,0,1-1.65-.19V47.55a6.57,6.57,0,0,1-5.13,2.24c-3.26,0-5-2-5-4.94V32.31a5.39,5.39,0,0,1,1.65-.2,5.12,5.12,0,0,1,1.64.2V44.23c0,1.88,1,2.93,3.06,2.93a4.66,4.66,0,0,0,3.82-2.31V32.31a6.91,6.91,0,0,1,3.3,0Z"/><path class="cls-1" d="M244.13,48.15a3.34,3.34,0,0,1-.23,1.31H231.59a4.51,4.51,0,0,1,0-2.66l8.79-12h-8.23a4.17,4.17,0,0,1-.2-1.35,3.6,3.6,0,0,1,.2-1.32h11.72a4,4,0,0,1,.2,1.25,5.38,5.38,0,0,1-.2,1.42l-8.79,12h8.82A3.26,3.26,0,0,1,244.13,48.15ZM238,29.35a5,5,0,0,1-1.62-.2v-2.9a5,5,0,0,1,1.62-.2,5.24,5.24,0,0,1,1.61.2v2.9A5.24,5.24,0,0,1,238,29.35Z"/><path class="cls-1" d="M260.33,41.79h-9.91C250.68,45.71,252.2,47,255,47a7.6,7.6,0,0,0,3.86-1,3.38,3.38,0,0,1,1.08,2.34,9.52,9.52,0,0,1-5.53,1.44c-4.94,0-7.37-3-7.37-9,0-6.23,2.89-9,7.27-9,4.12,0,6.39,2.31,6.39,6.55A15.07,15.07,0,0,1,260.33,41.79Zm-9.95-2.24h7.15a10.06,10.06,0,0,0,.1-1.58c0-2-.89-3.65-3.29-3.65C252.16,34.32,250.65,35.8,250.38,39.55Z"/><path class="cls-1" d="M271.16,40.77c0-6.52,2.83-9,7.37-9s7.35,2.47,7.35,9-2.8,9-7.35,9S271.16,47.32,271.16,40.77Zm11.32,0c0-5-1.51-6.45-4-6.45s-3.95,1.41-3.95,6.45,1.52,6.49,3.95,6.49S282.48,45.81,282.48,40.77Z"/><path class="cls-1" d="M304.21,40.77c0,6.75-2.47,9-6.25,9a5.27,5.27,0,0,1-4.81-2.27V57a6.87,6.87,0,0,1-3.29,0V32.31a6.87,6.87,0,0,1,3.29,0V34c1-1.45,2.47-2.24,4.81-2.24C301.71,31.78,304.21,34,304.21,40.77Zm-3.46,0c0-4.84-1.25-6.32-3.95-6.32-2.3,0-3.62,1.94-3.65,4.15v4.25c0,2.17,1.28,4.28,3.65,4.28C299.5,47.13,300.75,45.68,300.75,40.77Z"/><path class="cls-1" d="M320.64,38.24v11a3.86,3.86,0,0,1-1.35.19,4.07,4.07,0,0,1-1.35-.19l-.46-2.21c-.82,1.78-2.67,2.73-5.2,2.73-3.13,0-5.11-1.84-5.11-5.43s2.14-5.17,6.36-5.17a35.42,35.42,0,0,1,3.82.2V38c0-2.34-1-3.49-3.49-3.49a14,14,0,0,0-4.42.79,2.33,2.33,0,0,1-.72-1,3,3,0,0,1-.23-1.38,15.08,15.08,0,0,1,5.83-1.19C319.12,31.78,320.64,34,320.64,38.24Zm-3.29,4.54V41.56c-.76-.06-2.11-.2-3.36-.2-2.31,0-3.46.86-3.46,3s1.09,3,2.87,3C315.93,47.39,317.35,45.32,317.35,42.78Z"/><path class="cls-1" d="M339.14,49.23a6.62,6.62,0,0,1-1.84.23,6.26,6.26,0,0,1-1.81-.23l-4.91-7.57h-2.07v7.61a5.54,5.54,0,0,1-1.62.19,6.38,6.38,0,0,1-1.68-.19V24.93a7.85,7.85,0,0,1,1.68-.16,7.57,7.57,0,0,1,1.62.16V39.16h2.14L335,32.31a6,6,0,0,1,1.72-.2,6.11,6.11,0,0,1,1.64.2l-5,7.87Z"/><path class="cls-1" d="M340.59,40.77c0-6.52,2.83-9,7.37-9s7.35,2.47,7.35,9-2.8,9-7.35,9S340.59,47.32,340.59,40.77Zm11.32,0c0-5-1.51-6.45-4-6.45S344,35.73,344,40.77s1.52,6.49,3.95,6.49S351.91,45.81,351.91,40.77Z"/><path class="cls-1" d="M362.45,49.27l-5-17a5.71,5.71,0,0,1,1.65-.2,3.38,3.38,0,0,1,1.45.2l3.09,10.21a19.2,19.2,0,0,1,.7,3.59h.1a23,23,0,0,1,.75-3.59l3-10.21a8,8,0,0,1,1.75-.2,5.35,5.35,0,0,1,1.64.2l3,10.14a20.93,20.93,0,0,1,.69,3.66h.1a29.49,29.49,0,0,1,.79-3.63l3.06-10.17a4.58,4.58,0,0,1,1.48-.2,4,4,0,0,1,1.45.2l-5,17a9.92,9.92,0,0,1-1.88.19,9.74,9.74,0,0,1-1.84-.19l-2.64-8.86a20.78,20.78,0,0,1-.92-5h-.1a21.2,21.2,0,0,1-1,5l-2.63,8.86a9.56,9.56,0,0,1-1.84.19A10.17,10.17,0,0,1,362.45,49.27Z"/><path class="cls-1" d="M397.48,38.24v11a3.86,3.86,0,0,1-1.35.19,4.07,4.07,0,0,1-1.35-.19l-.46-2.21c-.83,1.78-2.67,2.73-5.21,2.73-3.13,0-5.1-1.84-5.1-5.43s2.14-5.17,6.35-5.17a35.11,35.11,0,0,1,3.82.2V38c0-2.34-1-3.49-3.49-3.49a14,14,0,0,0-4.41.79,2.33,2.33,0,0,1-.72-1,3,3,0,0,1-.23-1.38,15.06,15.06,0,0,1,5.82-1.19C396,31.78,397.48,34,397.48,38.24Zm-3.3,4.54V41.56c-.75-.06-2.1-.2-3.35-.2-2.31,0-3.46.86-3.46,3s1.08,3,2.86,3C392.77,47.39,394.18,45.32,394.18,42.78Z"/><path class="cls-1" d="M402.05,49.27v-17a5.15,5.15,0,0,1,1.65-.2,5.35,5.35,0,0,1,1.64.2V34a6.64,6.64,0,0,1,5.11-2.24c3.29,0,5.07,2,5.07,4.94V49.27a6,6,0,0,1-1.65.19,5.41,5.41,0,0,1-1.65-.19V37.38c0-1.91-1-2.93-3.06-2.93a4.63,4.63,0,0,0-3.82,2.27V49.27a5.61,5.61,0,0,1-1.64.19A5.41,5.41,0,0,1,402.05,49.27Z"/><path class="cls-1" d="M420.06,28.52v-3a5.72,5.72,0,0,1,1.74-.2,6.37,6.37,0,0,1,1.78.2v3a6.37,6.37,0,0,1-1.78.2A5.72,5.72,0,0,1,420.06,28.52Zm.1,20.75v-17a4.83,4.83,0,0,1,1.64-.2,5.39,5.39,0,0,1,1.65.2v17a5.65,5.65,0,0,1-1.65.19A5.29,5.29,0,0,1,420.16,49.27Z"/><path class="cls-1" d="M440.8,41.79h-9.91c.26,3.92,1.78,5.21,4.57,5.21a7.6,7.6,0,0,0,3.86-1,3.38,3.38,0,0,1,1.08,2.34,9.52,9.52,0,0,1-5.53,1.44c-4.94,0-7.37-3-7.37-9,0-6.23,2.89-9,7.27-9,4.12,0,6.39,2.31,6.39,6.55A15.07,15.07,0,0,1,440.8,41.79Zm-9.94-2.24H438a10.06,10.06,0,0,0,.1-1.58c0-2-.89-3.65-3.29-3.65C432.63,34.32,431.12,35.8,430.86,39.55Z"/><path class="cls-2" d="M481.19,49.27l-5-17a5.59,5.59,0,0,1,1.64-.2,3.38,3.38,0,0,1,1.45.2l3.1,10.21a19.82,19.82,0,0,1,.69,3.59h.1a24.64,24.64,0,0,1,.76-3.59l3-10.21a7.91,7.91,0,0,1,1.74-.2,5.39,5.39,0,0,1,1.65.2l3,10.14a20,20,0,0,1,.69,3.66h.1a29.49,29.49,0,0,1,.79-3.63L498,32.31a4.61,4.61,0,0,1,1.49-.2,4.06,4.06,0,0,1,1.45.2l-5,17a9.2,9.2,0,0,1-3.72,0l-2.63-8.86a20.78,20.78,0,0,1-.92-5h-.1a22.33,22.33,0,0,1-1,5l-2.64,8.86a9.38,9.38,0,0,1-1.84.19A10.35,10.35,0,0,1,481.19,49.27Z"/><path class="cls-2" d="M518.46,32.31,511.94,52.2c-1.12,3.49-2.37,5.5-5.8,5.5a7,7,0,0,1-2.17-.3,3.19,3.19,0,0,1-.23-1.25,2.78,2.78,0,0,1,.3-1.28,7.38,7.38,0,0,0,1.51.16c1.58,0,2.41-.53,3.36-3.39l.72-2.18a2.57,2.57,0,0,1-1-.23l-6.29-16.92a6,6,0,0,1,1.72-.2,5.61,5.61,0,0,1,1.71.2l3.82,10.07a29.27,29.27,0,0,1,1.15,3.89h.1s.33-1.61,1.05-3.89l3.36-10.07a5,5,0,0,1,1.62-.2A5.49,5.49,0,0,1,518.46,32.31Z"/><path class="cls-2" d="M534.82,25v24.3a4.8,4.8,0,0,1-1.41.19,5.41,5.41,0,0,1-1.49-.19l-.23-1.91a5.36,5.36,0,0,1-4.94,2.43c-3.78,0-6.25-2.27-6.25-9s2.43-9,6.25-9A5.33,5.33,0,0,1,531.53,34V25a5.5,5.5,0,0,1,1.68-.2A5,5,0,0,1,534.82,25Zm-3.29,18V38.57c0-2.11-1.32-4.12-3.62-4.12-2.7,0-4,1.51-4,6.35s1.26,6.33,4,6.33C530.24,47.13,531.53,45.08,531.53,43Z"/><path class="cls-2" d="M551.94,38.24v11a3.86,3.86,0,0,1-1.35.19,4.07,4.07,0,0,1-1.35-.19l-.46-2.21c-.83,1.78-2.67,2.73-5.21,2.73-3.12,0-5.1-1.84-5.1-5.43s2.14-5.17,6.36-5.17a35.42,35.42,0,0,1,3.82.2V38c0-2.34-1-3.49-3.49-3.49a14,14,0,0,0-4.42.79,2.33,2.33,0,0,1-.72-1,3,3,0,0,1-.23-1.38,15.08,15.08,0,0,1,5.83-1.19C550.42,31.78,551.94,34,551.94,38.24Zm-3.29,4.54V41.56c-.76-.06-2.11-.2-3.36-.2-2.31,0-3.46.86-3.46,3s1.09,3,2.86,3C547.23,47.39,548.65,45.32,548.65,42.78Z"/><path class="cls-2" d="M552.66,57.33a2.19,2.19,0,0,1-.13-.75,3.3,3.3,0,0,1,.36-1.68,6.16,6.16,0,0,0,1.25.13c1.61,0,2.47-.82,2.47-2.83V32.31a4.86,4.86,0,0,1,1.65-.2,5.59,5.59,0,0,1,1.64.2v20c0,3.53-1.71,5.34-4.87,5.34A6.25,6.25,0,0,1,552.66,57.33Zm3.82-28.81v-3a6.12,6.12,0,0,1,1.78-.2,5.85,5.85,0,0,1,1.71.2v3a5.85,5.85,0,0,1-1.71.2A6.12,6.12,0,0,1,556.48,28.52Z"/><path class="cls-2" d="M564.68,49.27v-17a5,5,0,0,1,1.64-.2,5.39,5.39,0,0,1,1.65.2V34a6.62,6.62,0,0,1,5.1-2.24c3.3,0,5.07,2,5.07,4.94V49.27a5.87,5.87,0,0,1-1.64.19,5.41,5.41,0,0,1-1.65-.19V37.38c0-1.91-1-2.93-3.06-2.93A4.63,4.63,0,0,0,568,36.72V49.27a5.65,5.65,0,0,1-1.65.19A5.29,5.29,0,0,1,564.68,49.27Z"/><path class="cls-2" d="M597,32.31,590.45,52.2c-1.12,3.49-2.37,5.5-5.79,5.5a6.93,6.93,0,0,1-2.17-.3,3.08,3.08,0,0,1-.24-1.25,2.78,2.78,0,0,1,.3-1.28,7.41,7.41,0,0,0,1.52.16c1.58,0,2.4-.53,3.35-3.39l.73-2.18a2.57,2.57,0,0,1-1-.23l-6.29-16.92a5.85,5.85,0,0,1,1.71-.2,5.61,5.61,0,0,1,1.71.2l3.82,10.07a28.55,28.55,0,0,1,1.16,3.89h.09s.33-1.61,1.06-3.89l3.36-10.07a4.94,4.94,0,0,1,1.61-.2A5.49,5.49,0,0,1,597,32.31Z"/><path class="cls-3" d="M466.24,36.14a25.66,25.66,0,0,1,.28,3.93,21.62,21.62,0,0,1-.28,3.79l-13.17,9.67a18.57,18.57,0,0,1-.28-3.72,20.66,20.66,0,0,1,.28-3.79l8.21-6.16-8.21-6a18.45,18.45,0,0,1-.28-3.72,19.45,19.45,0,0,1,.28-3.72Z"/><path class="cls-4" d="M161.14,48.54A8.54,8.54,0,1,0,152.6,40,8.54,8.54,0,0,0,161.14,48.54Z"/></svg>