<svg id="Warstwa_1" data-name="Warstwa 1" xmlns="http://www.w3.org/2000/svg" viewBox="0 0 793.06 118.94"><defs><style>.cls-1{fill:#fff;}.cls-2,.cls-4{fill:none;}.cls-2{stroke:#1f1c19;stroke-width:0.66px;}.cls-3{fill:#05171d;}.cls-4{stroke:#05171d;stroke-miterlimit:10;stroke-width:0.5px;}.cls-5{fill:#ccd615;}</style></defs><title>Elugel_logo</title><path class="cls-1" d="M332.38-.19v-4H83.25C71.68,16.63,68.89,35.2,68.57,37.94c0,.4,0,.5,0,.5S61.48,85.07,98.13,97.91c56.75,19.89,124.66-14.38,137.94-20.42,47.1-23,81.76-62.09,96.31-77.68"/><path class="cls-2" d="M182.55,65.69a9.77,9.77,0,0,1-2.2-6.48V55a10.4,10.4,0,0,1,2.51-7,7.62,7.62,0,0,1,5.95-2.82h.05a10.86,10.86,0,0,1,3.46.56,8.19,8.19,0,0,1,3.1,1.91L193,51.11a5.16,5.16,0,0,0-2-1.38,6,6,0,0,0-2.17-.41,4.06,4.06,0,0,0-3.17,1.53,6.24,6.24,0,0,0-1.4,4.19v4.08a6.33,6.33,0,0,0,1.22,4.14,3.76,3.76,0,0,0,3.06,1.38,3.85,3.85,0,0,0,2.88-1.18,4.43,4.43,0,0,0,1.22-3.26V59.09h-4l-.61-3.75h8.45v4.28a9.08,9.08,0,0,1-2.06,6.19,7.88,7.88,0,0,1-6.29,2.58A7,7,0,0,1,182.55,65.69Z"/><polygon class="cls-3" points="128.57 68.07 128.57 36.35 146.34 36.35 146.34 41.96 134.2 41.96 134.2 49.4 145.04 49.4 145.04 54.76 134.2 54.76 134.2 62.45 145.92 62.45 146.64 68.07 128.57 68.07"/><polygon class="cls-3" points="154.94 68.07 149.38 68.07 149.38 36.98 154.94 36.14 154.94 68.07"/><path class="cls-3" d="M160.76,65.87a7.5,7.5,0,0,1-2-5.32V45.34h5.55V58.52a4.42,4.42,0,0,0,1.11,3A3.4,3.4,0,0,0,168,62.75a3.44,3.44,0,0,0,2.66-1.23,4.32,4.32,0,0,0,1.11-3V45.34h5.59V68.07h-5.29l-.3-3.3a6.44,6.44,0,0,1-6,3.3,6.63,6.63,0,0,1-5-2.2"/><path class="cls-3" d="M182.55,65.69a9.77,9.77,0,0,1-2.2-6.48V55a10.4,10.4,0,0,1,2.51-7,7.62,7.62,0,0,1,5.95-2.82h.05a10.86,10.86,0,0,1,3.46.56,8.19,8.19,0,0,1,3.1,1.91L193,51.11a5,5,0,0,0-2-1.37,5.82,5.82,0,0,0-2.17-.42,4.06,4.06,0,0,0-3.17,1.53,6.24,6.24,0,0,0-1.4,4.19v4.08a6.33,6.33,0,0,0,1.22,4.14,3.76,3.76,0,0,0,3.06,1.38,3.85,3.85,0,0,0,2.88-1.18,4.43,4.43,0,0,0,1.22-3.26V59.09h-4l-.61-3.75h8.45v4.28a9.08,9.08,0,0,1-2.06,6.19,7.88,7.88,0,0,1-6.29,2.58,7,7,0,0,1-5.62-2.7"/><path class="cls-4" d="M182.55,65.69a9.77,9.77,0,0,1-2.2-6.48V55a10.4,10.4,0,0,1,2.51-7,7.62,7.62,0,0,1,5.95-2.82h.05a10.86,10.86,0,0,1,3.46.56,8.19,8.19,0,0,1,3.1,1.91L193,51.11a5,5,0,0,0-2-1.37,5.82,5.82,0,0,0-2.17-.42,4.06,4.06,0,0,0-3.17,1.53,6.24,6.24,0,0,0-1.4,4.19v4.08a6.33,6.33,0,0,0,1.22,4.14,3.76,3.76,0,0,0,3.06,1.38,3.85,3.85,0,0,0,2.88-1.18,4.43,4.43,0,0,0,1.22-3.26V59.09h-4l-.61-3.75h8.45v4.28a9.08,9.08,0,0,1-2.06,6.19,7.88,7.88,0,0,1-6.29,2.58,7,7,0,0,1-5.62-2.7"/><path class="cls-3" d="M202.12,65.53a10.48,10.48,0,0,1-2.82-7.69V56.07a11.84,11.84,0,0,1,2.55-7.81,8.67,8.67,0,0,1,7.08-3.21,9.29,9.29,0,0,1,6.16,2,7,7,0,0,1,2.55,5.62A5.75,5.75,0,0,1,215.89,57a7.44,7.44,0,0,1-5.36,1.82h-5.67a4.29,4.29,0,0,0,1.33,3.25,4.34,4.34,0,0,0,2.7,1.1,5.32,5.32,0,0,0,.69,0,8.5,8.5,0,0,0,3.84-1A12.64,12.64,0,0,0,216.69,60l-.15,4.73c0,.51,0,.91,0,1.22a12.52,12.52,0,0,1-3.08,1.57,13.7,13.7,0,0,1-4.53.8,9,9,0,0,1-6.77-2.75m2.74-10.9h5c1.78,0,2.67-.77,2.67-2.32s-1-2.49-3.09-2.49A4.71,4.71,0,0,0,206.19,51,4,4,0,0,0,204.86,54Z"/><polygon class="cls-3" points="226.66 68.07 221.11 68.07 221.11 36.98 226.66 36.14 226.66 68.07"/><path class="cls-5" d="M70.44,35.71c1.11,12,11.46,77.81,167.52,39,0,0-75.76,41.65-137.94,20.43C63.27,82.64,70.44,35.71,70.44,35.71"/></svg>