<svg id="Warstwa_1" data-name="Warstwa 1" xmlns="http://www.w3.org/2000/svg" viewBox="0 0 300 100"><defs><style>.cls-1{fill:#ccd513;}.cls-2{fill:#fff;}.cls-3{fill:#075da6;}</style></defs><title>ikona_01</title><path class="cls-1" d="M150,60.35a25,25,0,1,0-25-25,25,25,0,0,0,25,25"/><path class="cls-2" d="M150,53.61a3.84,3.84,0,0,1-3.83-3.83V47.73a13.78,13.78,0,0,1-2.72-1.12L142,48.06a3.93,3.93,0,0,1-5.41,0,3.83,3.83,0,0,1,0-5.41L138,41.2a14.33,14.33,0,0,1-1.13-2.72h-2a3.84,3.84,0,0,1,0-7.67h2A13.94,13.94,0,0,1,138,28.1l-1.45-1.45A3.83,3.83,0,0,1,142,21.24l1.46,1.45a12.84,12.84,0,0,1,2.71-1.13v-2a3.83,3.83,0,1,1,7.66,0v2a13.81,13.81,0,0,1,2.72,1.13L158,21.24a3.83,3.83,0,1,1,5.42,5.41L162,28.1a13.25,13.25,0,0,1,1.12,2.71h2.05a3.84,3.84,0,1,1,0,7.67h-2A13.81,13.81,0,0,1,162,41.2l1.45,1.45A3.83,3.83,0,0,1,158,48.06l-1.45-1.45a14.18,14.18,0,0,1-2.72,1.12v2.05A3.84,3.84,0,0,1,150,53.61Zm-6.73-8.4.37.22a12,12,0,0,0,3.22,1.33l.42.11v2.91a2.72,2.72,0,0,0,5.44,0V46.87l.42-.11a12.46,12.46,0,0,0,3.22-1.33l.37-.21,2.06,2.05a2.78,2.78,0,0,0,3.83,0,2.7,2.7,0,0,0,0-3.83l-2.05-2.06.22-.37a12.36,12.36,0,0,0,1.33-3.23l.11-.41h2.91a2.72,2.72,0,0,0,0-5.44h-2.9l-.11-.42a12.67,12.67,0,0,0-1.33-3.22l-.22-.37,2.06-2.06A2.72,2.72,0,0,0,158.78,22l-2.06,2.06-.37-.22a12.67,12.67,0,0,0-3.22-1.34l-.42-.11v-2.9a2.72,2.72,0,0,0-5.43,0v2.91l-.42.1a12.47,12.47,0,0,0-3.23,1.34l-.37.22-2-2.06a2.71,2.71,0,0,0-4.63,1.92,2.69,2.69,0,0,0,.79,1.92l2.06,2.06-.22.37a12,12,0,0,0-1.33,3.22l-.11.42h-2.91a2.72,2.72,0,0,0,0,5.44h2.91l.11.41A12.65,12.65,0,0,0,139.21,41l.22.37-2.05,2.06a2.7,2.7,0,0,0,0,3.83,2.78,2.78,0,0,0,3.83,0Zm1.52-1.14a1.79,1.79,0,0,1-1.7-1.24l-2-6.31a1.79,1.79,0,0,1,.12-1.36,1.74,1.74,0,0,1,1-.88l.24-.06a1.55,1.55,0,0,1-.27-.24,1.77,1.77,0,0,1,.05-2.4l.64-.61L147.28,27a1.79,1.79,0,0,1,1.28-.47,1.74,1.74,0,0,1,1.24.59,1.78,1.78,0,0,1,.46,1.28,1.8,1.8,0,0,1-.59,1.23l-4.9,4.43a1.78,1.78,0,0,1-.91.45,1.73,1.73,0,0,1,.64.9l2,6.3a1.7,1.7,0,0,1-.12,1.36,1.81,1.81,0,0,1-1,.88A2,2,0,0,1,144.79,44.07Zm-2-8.76a.64.64,0,0,0-.2,0,.67.67,0,0,0-.39.33.65.65,0,0,0-.05.51l2,6.31a.7.7,0,0,0,.83.44h0a.68.68,0,0,0,.4-.32.69.69,0,0,0,0-.51l-2-6.31a.67.67,0,0,0-.33-.39A.68.68,0,0,0,142.8,35.31Zm5.67-7.63a.62.62,0,0,0-.44.18l-.93.84-4,3.66a.63.63,0,0,0,0,.87.59.59,0,0,0,.95.06l4.88-4.42a.66.66,0,0,0,.08-1,.6.6,0,0,0-.46-.22Zm.44,14.79a1.78,1.78,0,0,1-1.47-.79,1.73,1.73,0,0,1-.21-.41A1.8,1.8,0,0,1,148.32,39l6.26-2.17a1.84,1.84,0,0,1,.73-.09,1.66,1.66,0,0,1-.63-.88l-2-6.31a1.8,1.8,0,0,1,1.17-2.25,1.78,1.78,0,0,1,2.23,1.16l2,6.31A1.81,1.81,0,0,1,156.91,37l-.08,0-.37.05a1.07,1.07,0,0,1-.25,0,1.79,1.79,0,0,1,.5.56l.12.25a1.79,1.79,0,0,1-1.07,2.32h0l-6.26,2.16A1.57,1.57,0,0,1,148.91,42.47Zm6.26-4.62a.66.66,0,0,0-.23,0l-6.25,2.16a.68.68,0,0,0-.41.86.53.53,0,0,0,.08.14.68.68,0,0,0,.76.27l6.27-2.16a.67.67,0,0,0,.38-.34.65.65,0,0,0,0-.51l-.08-.16A.61.61,0,0,0,155.17,37.85Zm-.8-9.52a.69.69,0,0,0-.2,0,.66.66,0,0,0-.4.35.65.65,0,0,0,0,.49l2,6.32a.66.66,0,0,0,.63.47l.23,0a.7.7,0,0,0,.41-.85l-2-6.3A.66.66,0,0,0,154.37,28.33Zm-6.19,10.55a1.79,1.79,0,0,1-.72-.15,1.73,1.73,0,0,1-.6-.44,1.77,1.77,0,0,1-.32-1.91l.08-.18,2.58-5.88a1.59,1.59,0,0,1,.5-.66,1.78,1.78,0,0,1,2.84,1.88l-.21.53-2.52,5.74a2.1,2.1,0,0,1-.31.48l-.29.26A1.86,1.86,0,0,1,148.18,38.88Zm2.66-8.52a.72.72,0,0,0-.44.16.69.69,0,0,0-.18.24l-2.65,6.06a.68.68,0,0,0,.12.73h0a.57.57,0,0,0,.22.16.7.7,0,0,0,.63-.05l.17-.16a.5.5,0,0,0,.07-.13l2.69-6.16a.65.65,0,0,0-.37-.79A.58.58,0,0,0,150.84,30.36Z"/><path class="cls-3" d="M100.87,76.94V71.26a2,2,0,0,1,.61-.08,2,2,0,0,1,.63.08v5.81a1.81,1.81,0,1,0,3.62,0V71.26a1.77,1.77,0,0,1,.6-.08,2.06,2.06,0,0,1,.62.08v5.68a3,3,0,0,1-6.08,0Z"/><path class="cls-3" d="M115.22,79.73a2.41,2.41,0,0,1-.72.09,2.46,2.46,0,0,1-.71-.09l-2.68-3.91h-.9v3.91a1.68,1.68,0,0,1-.63.09,1.85,1.85,0,0,1-.62-.09V71.26a2.1,2.1,0,0,1,.63-.08,2,2,0,0,1,.62.08v3.58h.88l2.49-3.58a2.27,2.27,0,0,1,.62-.08,2.85,2.85,0,0,1,.67.08l-2.71,3.95Z"/><path class="cls-3" d="M116.39,79.73V71.26a2.44,2.44,0,0,1,1.24,0v8.47a1.93,1.93,0,0,1-.62.09A1.65,1.65,0,0,1,116.39,79.73Z"/><path class="cls-3" d="M124.84,79.31a1.44,1.44,0,0,1-.09.51h-5V71.18h4.93a1.14,1.14,0,0,1,.09.48,1.24,1.24,0,0,1-.09.5H121V75H124a1.19,1.19,0,0,1,.09.47,1.33,1.33,0,0,1-.09.51H121v2.89h3.8A1.17,1.17,0,0,1,124.84,79.31Z"/><path class="cls-3" d="M132.45,79.73a2.41,2.41,0,0,1-.72.09,2.23,2.23,0,0,1-.69-.09l-1.94-3.5h-1.48v3.5a1.75,1.75,0,0,1-.61.09,1.71,1.71,0,0,1-.64-.09V71.18h3.09a2.39,2.39,0,0,1,2.61,2.52,2.32,2.32,0,0,1-1.66,2.39Zm-4.83-4.51h1.69a1.52,1.52,0,0,0,0-3h-1.69Z"/><path class="cls-3" d="M133.8,76.94V71.26a1.87,1.87,0,0,1,.61-.08,1.91,1.91,0,0,1,.62.08v5.81a1.82,1.82,0,1,0,3.63,0V71.26a1.77,1.77,0,0,1,.6-.08,2.06,2.06,0,0,1,.62.08v5.68a3,3,0,0,1-6.08,0Z"/><path class="cls-3" d="M141.89,79.73V71.26a2.94,2.94,0,0,1,.76-.08,2.67,2.67,0,0,1,.76.08l3,5.46a11.77,11.77,0,0,1,.69,1.64h.05s-.08-.9-.08-2v-5.1a1.6,1.6,0,0,1,.57-.08,1.27,1.27,0,0,1,.54.08v8.47a2.25,2.25,0,0,1-.74.09,2.76,2.76,0,0,1-.77-.09l-3-5.52a10.1,10.1,0,0,1-.66-1.55h0s.08.76.08,2v5.08a1.39,1.39,0,0,1-.57.09A1.33,1.33,0,0,1,141.89,79.73Z"/><path class="cls-3" d="M156.52,79.73a2.41,2.41,0,0,1-.72.09,2.34,2.34,0,0,1-.7-.09l-2.69-3.91h-.9v3.91a1.59,1.59,0,0,1-.62.09,1.88,1.88,0,0,1-.63-.09V71.26a2.13,2.13,0,0,1,.64-.08,2,2,0,0,1,.61.08v3.58h.89l2.48-3.58a2.4,2.4,0,0,1,.62-.08,2.94,2.94,0,0,1,.68.08l-2.72,3.95Z"/><path class="cls-3" d="M156.93,75.5c0-3.1,1.32-4.45,3.42-4.45s3.41,1.34,3.41,4.45S162.46,80,160.35,80,156.93,78.6,156.93,75.5Zm5.52,0c0-2.64-.81-3.44-2.1-3.44s-2.1.8-2.1,3.44.82,3.44,2.1,3.44S162.45,78.14,162.45,75.5Z"/><path class="cls-3" d="M166.94,79.73l-2.33-8.47a2,2,0,0,1,.63-.08,1.8,1.8,0,0,1,.61.08l1.57,5.68c.2.8.32,1.57.32,1.57h0a12.81,12.81,0,0,1,.28-1.56l1.46-5.69a2,2,0,0,1,.67-.08,2.12,2.12,0,0,1,.68.08l1.46,5.68a13,13,0,0,1,.25,1.57h0a13.76,13.76,0,0,1,.32-1.56l1.54-5.69a1.82,1.82,0,0,1,.57-.08,1.85,1.85,0,0,1,.58.08l-2.29,8.47a2.41,2.41,0,0,1-.72.09,2.86,2.86,0,0,1-.75-.09l-1.42-5.56a10.09,10.09,0,0,1-.26-1.69h0a11,11,0,0,1-.27,1.69l-1.42,5.56a3.15,3.15,0,0,1-.78.09A2.5,2.5,0,0,1,166.94,79.73Z"/><path class="cls-3" d="M183.16,79.73a1.93,1.93,0,0,1-.66.09,1.64,1.64,0,0,1-.6-.09l-.76-2.11H177.6l-.78,2.11a1.69,1.69,0,0,1-.6.09,1.55,1.55,0,0,1-.58-.09l3-8.47a3.47,3.47,0,0,1,.74-.08,3.22,3.22,0,0,1,.74.08Zm-5.25-3.07h2.9l-1.15-3.16a10.17,10.17,0,0,1-.28-1h0a7.21,7.21,0,0,1-.27,1Z"/><path class="cls-3" d="M184.38,79.73V71.26a3,3,0,0,1,.77-.08,2.63,2.63,0,0,1,.75.08l3,5.46a12.59,12.59,0,0,1,.7,1.64h0s-.08-.9-.08-2v-5.1a1.6,1.6,0,0,1,.57-.08,1.27,1.27,0,0,1,.54.08v8.47a2.18,2.18,0,0,1-.74.09,2.76,2.76,0,0,1-.77-.09l-3-5.52a10.1,10.1,0,0,1-.66-1.55h-.05a18.72,18.72,0,0,1,.09,2v5.08a1.41,1.41,0,0,1-.58.09A1.33,1.33,0,0,1,184.38,79.73Z"/><path class="cls-3" d="M197.9,79.31a1.45,1.45,0,0,1-.1.51h-5.05V71.18h4.93a1.14,1.14,0,0,1,.1.48,1.24,1.24,0,0,1-.1.5H194V75h3.08a1.2,1.2,0,0,1,.1.47,1.32,1.32,0,0,1-.1.51H194v2.89h3.8A1.17,1.17,0,0,1,197.9,79.31Z"/><path class="cls-3" d="M120.72,85.58h2.67c2.29,0,3.57,1.12,3.57,4.32s-1.28,4.32-3.57,4.32h-2.67Zm2.6,7.63c1.45,0,2.32-.63,2.32-3.31s-.87-3.31-2.32-3.31H122v6.62Z"/><path class="cls-3" d="M134.13,93.66a1.79,1.79,0,0,1-.08.56H128a2.75,2.75,0,0,1-.07-.56,2.24,2.24,0,0,1,.07-.51l4.49-6.51h-4.15a2.19,2.19,0,0,1-.07-.56,1.67,1.67,0,0,1,.07-.5h5.59a1.37,1.37,0,0,1,.08.5,1.75,1.75,0,0,1-.08.56l-4.52,6.51h4.67A1.76,1.76,0,0,1,134.13,93.66Z"/><path class="cls-3" d="M135.64,94.13V85.66a2.06,2.06,0,0,1,.62-.08,2.1,2.1,0,0,1,.63.08v8.47a2,2,0,0,1-.63.09A1.65,1.65,0,0,1,135.64,94.13Z"/><path class="cls-3" d="M145.62,94.13a1.93,1.93,0,0,1-.66.09,1.64,1.64,0,0,1-.6-.09L143.59,92h-3.53l-.78,2.11a1.73,1.73,0,0,1-.6.09,1.51,1.51,0,0,1-.58-.09l3-8.47a3.35,3.35,0,0,1,.73-.08,3.25,3.25,0,0,1,.75.08Zm-5.25-3.07h2.9l-1.15-3.16a8,8,0,0,1-.28-1h0a7.21,7.21,0,0,1-.27,1Z"/><path class="cls-3" d="M152.1,93.69a2.58,2.58,0,0,1-.08.53h-4.86V90.51l-.9.52a1.32,1.32,0,0,1-.37-.66l1.27-.74v-4a2.06,2.06,0,0,1,.62-.08,2,2,0,0,1,.62.08v3.26L150,88a1.37,1.37,0,0,1,.38.66l-1.95,1.13v3.38H152A1.58,1.58,0,0,1,152.1,93.69Z"/><path class="cls-3" d="M160,94.13a1.9,1.9,0,0,1-.65.09,1.6,1.6,0,0,1-.6-.09L158,92h-3.54l-.78,2.11a1.64,1.64,0,0,1-.6.09,1.55,1.55,0,0,1-.58-.09l3-8.47a3.27,3.27,0,0,1,.73-.08,3.14,3.14,0,0,1,.74.08Zm-5.25-3.07h2.9l-1.15-3.16a7.58,7.58,0,0,1-.27-1h-.05a7.21,7.21,0,0,1-.27,1Z"/><path class="cls-3" d="M161.26,94.13V85.66a3.08,3.08,0,0,1,.77-.08,2.63,2.63,0,0,1,.75.08l3,5.46a12.59,12.59,0,0,1,.7,1.64h.05s-.09-.89-.09-2v-5.1a1.64,1.64,0,0,1,.58-.08,1.33,1.33,0,0,1,.54.08v8.47a2.28,2.28,0,0,1-.75.09,2.63,2.63,0,0,1-.76-.09l-3-5.51a10.43,10.43,0,0,1-.66-1.56h0a18.72,18.72,0,0,1,.09,2v5.08a1.41,1.41,0,0,1-.58.09A1.33,1.33,0,0,1,161.26,94.13Z"/><path class="cls-3" d="M169.64,94.13V85.66a2.44,2.44,0,0,1,1.24,0v8.47a1.93,1.93,0,0,1-.62.09A1.65,1.65,0,0,1,169.64,94.13Z"/><path class="cls-3" d="M178.09,93.71a1.44,1.44,0,0,1-.09.51H173V85.58h4.93a1.14,1.14,0,0,1,.09.48,1.24,1.24,0,0,1-.09.5H174.2v2.8h3.08a1.19,1.19,0,0,1,.09.47,1.33,1.33,0,0,1-.09.51H174.2v2.89H178A1.17,1.17,0,0,1,178.09,93.71Z"/></svg>