<svg id="Warstwa_1" data-name="Warstwa 1" xmlns="http://www.w3.org/2000/svg" viewBox="0 0 350 60"><defs><style>.cls-1{fill:#005ca5;}.cls-2{fill:#0056a2;}.cls-3{fill:none;stroke:#cbd413;stroke-miterlimit:10;stroke-width:1.85px;}</style></defs><title>klinicznie_potwierdzona</title><path class="cls-1" d="M50.77,29.52a3.74,3.74,0,0,1-1.08.13,3.79,3.79,0,0,1-1.07-.13l-4-5.89H43.22v5.89a2.53,2.53,0,0,1-.94.13,2.94,2.94,0,0,1-.94-.13V16.77a3,3,0,0,1,1-.13,2.66,2.66,0,0,1,.92.13v5.38h1.34l3.74-5.38a2.82,2.82,0,0,1,.94-.13,3.44,3.44,0,0,1,1,.13l-4.08,5.94Z"/><path class="cls-1" d="M52.15,29.54V16.21a2.65,2.65,0,0,1,.9-.11,3,3,0,0,1,.91.11V29.54a3,3,0,0,1-.91.11A2.65,2.65,0,0,1,52.15,29.54Z"/><path class="cls-1" d="M56.4,18.16V16.53a3.06,3.06,0,0,1,1-.11,3.5,3.5,0,0,1,1,.11v1.63a3.5,3.5,0,0,1-1,.11A3.06,3.06,0,0,1,56.4,18.16Zm.05,11.38v-9.3a2.65,2.65,0,0,1,.9-.11,3,3,0,0,1,.91.11v9.3a3,3,0,0,1-.91.11A2.8,2.8,0,0,1,56.45,29.54Z"/><path class="cls-1" d="M60.7,29.54v-9.3a2.8,2.8,0,0,1,.9-.11,2.87,2.87,0,0,1,.9.11v.93A3.66,3.66,0,0,1,65.3,20a2.53,2.53,0,0,1,2.79,2.71v6.88a3.15,3.15,0,0,1-.91.11,2.8,2.8,0,0,1-.9-.11V23c0-1.05-.54-1.61-1.68-1.61a2.54,2.54,0,0,0-2.1,1.25v6.88a2.87,2.87,0,0,1-.9.11A2.8,2.8,0,0,1,60.7,29.54Z"/><path class="cls-1" d="M70.4,18.16V16.53a3.17,3.17,0,0,1,1-.11,3.59,3.59,0,0,1,1,.11v1.63a3.59,3.59,0,0,1-1,.11A3.17,3.17,0,0,1,70.4,18.16Zm.06,11.38v-9.3a2.65,2.65,0,0,1,.9-.11,2.87,2.87,0,0,1,.9.11v9.3a2.87,2.87,0,0,1-.9.11A2.8,2.8,0,0,1,70.46,29.54Z"/><path class="cls-1" d="M74.31,24.9c0-3.26,1.37-4.95,4-4.95a4.93,4.93,0,0,1,2.42.47,1.83,1.83,0,0,1-.55,1.3,3.8,3.8,0,0,0-1.55-.29c-1.73,0-2.46,1.1-2.46,3.47s.78,3.39,2.53,3.39A4.21,4.21,0,0,0,80.38,28a1.84,1.84,0,0,1,.54,1.28,4.89,4.89,0,0,1-2.6.58C75.68,29.83,74.31,28.15,74.31,24.9Z"/><path class="cls-1" d="M89,28.93a1.79,1.79,0,0,1-.13.72H82.09a2.46,2.46,0,0,1-.1-.78,2.53,2.53,0,0,1,.1-.69l4.83-6.59H82.4a2.28,2.28,0,0,1-.11-.74,1.94,1.94,0,0,1,.11-.72h6.43a2,2,0,0,1,.11.68,2.76,2.76,0,0,1-.11.78L84,28.18h4.84A1.81,1.81,0,0,1,89,28.93Z"/><path class="cls-1" d="M90.86,29.54v-9.3a2.8,2.8,0,0,1,.9-.11,3,3,0,0,1,.91.11v.93A3.62,3.62,0,0,1,95.46,20a2.53,2.53,0,0,1,2.79,2.71v6.88a3.15,3.15,0,0,1-.91.11,2.8,2.8,0,0,1-.9-.11V23c0-1.05-.54-1.61-1.68-1.61a2.51,2.51,0,0,0-2.09,1.25v6.88a3,3,0,0,1-.91.11A2.8,2.8,0,0,1,90.86,29.54Z"/><path class="cls-1" d="M100.56,18.16V16.53a3.17,3.17,0,0,1,1-.11,3.59,3.59,0,0,1,1,.11v1.63a3.59,3.59,0,0,1-1,.11A3.17,3.17,0,0,1,100.56,18.16Zm.06,11.38v-9.3a2.65,2.65,0,0,1,.9-.11,2.87,2.87,0,0,1,.9.11v9.3a2.87,2.87,0,0,1-.9.11A2.8,2.8,0,0,1,100.62,29.54Z"/><path class="cls-1" d="M111.76,25.44h-5.43c.14,2.15,1,2.85,2.51,2.85a4.16,4.16,0,0,0,2.11-.54,1.87,1.87,0,0,1,.6,1.28,5.2,5.2,0,0,1-3,.8c-2.71,0-4-1.66-4-5s1.59-4.91,4-4.91,3.5,1.26,3.5,3.59A8.21,8.21,0,0,1,111.76,25.44Zm-5.45-1.23h3.92a6.81,6.81,0,0,0,0-.87c0-1.1-.48-2-1.8-2S106.45,22.15,106.31,24.21Z"/><path class="cls-1" d="M125.62,24.88c0,3.7-1.35,4.95-3.43,4.95a2.9,2.9,0,0,1-2.64-1.25v5.19a3.74,3.74,0,0,1-1.8,0V20.24a3.74,3.74,0,0,1,1.8,0v.93A2.91,2.91,0,0,1,122.19,20C124.25,20,125.62,21.17,125.62,24.88Zm-1.89,0c0-2.66-.69-3.47-2.17-3.47a2.1,2.1,0,0,0-2,2.28V26a2.14,2.14,0,0,0,2,2.35C123,28.37,123.73,27.57,123.73,24.88Z"/><path class="cls-1" d="M127.25,24.88c0-3.58,1.56-4.93,4.05-4.93s4,1.35,4,4.93-1.54,4.95-4,4.95S127.25,28.47,127.25,24.88Zm6.22,0c0-2.77-.83-3.54-2.17-3.54s-2.17.77-2.17,3.54.83,3.56,2.17,3.56S133.47,27.64,133.47,24.88Z"/><path class="cls-1" d="M142.49,29a2,2,0,0,1-.09.64,5.4,5.4,0,0,1-1.39.16c-2.25,0-3.06-1.18-3.06-3.47V21.48h-1.37a1.8,1.8,0,0,1-.11-.67,1.59,1.59,0,0,1,.11-.68H138V18.39a3.11,3.11,0,0,1,1.81-.34v2.08h2.37a2,2,0,0,1,.09.67,2.35,2.35,0,0,1-.09.68h-2.37v4.81c0,1.57.49,2.09,1.75,2.09a5.63,5.63,0,0,0,.83-.07A1.59,1.59,0,0,1,142.49,29Z"/><path class="cls-1" d="M145.81,29.54l-2.72-9.3a3,3,0,0,1,.9-.11,1.85,1.85,0,0,1,.79.11l1.7,5.6a11.24,11.24,0,0,1,.38,2h.06a12.8,12.8,0,0,1,.41-2l1.66-5.6a4.43,4.43,0,0,1,1-.11,2.87,2.87,0,0,1,.9.11l1.63,5.56a11.85,11.85,0,0,1,.38,2h0a16,16,0,0,1,.44-2L155,20.24a2.49,2.49,0,0,1,.81-.11,2.15,2.15,0,0,1,.79.11l-2.72,9.3a4.83,4.83,0,0,1-2,0l-1.44-4.86a11.63,11.63,0,0,1-.51-2.73h0a12.59,12.59,0,0,1-.54,2.73l-1.45,4.86a5.56,5.56,0,0,1-1,.11A6.05,6.05,0,0,1,145.81,29.54Z"/><path class="cls-1" d="M158.14,18.16V16.53a3.06,3.06,0,0,1,1-.11,3.5,3.5,0,0,1,1,.11v1.63a3.5,3.5,0,0,1-1,.11A3.06,3.06,0,0,1,158.14,18.16Zm.05,11.38v-9.3a2.65,2.65,0,0,1,.9-.11,3,3,0,0,1,.91.11v9.3a3,3,0,0,1-.91.11A2.8,2.8,0,0,1,158.19,29.54Z"/><path class="cls-1" d="M169.34,25.44H163.9c.15,2.15,1,2.85,2.51,2.85a4.18,4.18,0,0,0,2.12-.54,1.91,1.91,0,0,1,.59,1.28,5.19,5.19,0,0,1-3,.8c-2.71,0-4.05-1.66-4.05-5S163.63,20,166,20s3.51,1.26,3.51,3.59A8.21,8.21,0,0,1,169.34,25.44Zm-5.46-1.23h3.92a5.22,5.22,0,0,0,.06-.87c0-1.1-.49-2-1.81-2S164,22.15,163.88,24.21Z"/><path class="cls-1" d="M171.47,29.54v-9.3a2.83,2.83,0,0,1,.91-.11,2.28,2.28,0,0,1,.85.11l0,1.3A2.64,2.64,0,0,1,175.58,20a2.74,2.74,0,0,1,1.55.46,2.14,2.14,0,0,1-.8,1.5,1.72,1.72,0,0,0-1.12-.37A2.44,2.44,0,0,0,173.28,23v6.52a3,3,0,0,1-.9.11A2.83,2.83,0,0,1,171.47,29.54Z"/><path class="cls-1" d="M185.93,16.21V29.54a2.55,2.55,0,0,1-.78.11,2.81,2.81,0,0,1-.81-.11l-.13-1.05a2.94,2.94,0,0,1-2.71,1.34c-2.08,0-3.43-1.25-3.43-4.93S179.41,20,181.5,20a2.91,2.91,0,0,1,2.62,1.22v-5a3,3,0,0,1,.92-.11A2.76,2.76,0,0,1,185.93,16.21Zm-1.81,9.86v-2.4a2.09,2.09,0,0,0-2-2.26c-1.49,0-2.17.83-2.17,3.49s.68,3.47,2.17,3.47A2.09,2.09,0,0,0,184.12,26.07Z"/><path class="cls-1" d="M194.71,28.93a1.92,1.92,0,0,1-.12.72h-6.76a2.44,2.44,0,0,1-.11-.78,2.16,2.16,0,0,1,.11-.69l4.82-6.59h-4.51a2.28,2.28,0,0,1-.11-.74,1.94,1.94,0,0,1,.11-.72h6.43a2.23,2.23,0,0,1,.11.68,3.17,3.17,0,0,1-.11.78l-4.83,6.59h4.85A1.94,1.94,0,0,1,194.71,28.93Z"/><path class="cls-1" d="M196.2,24.88c0-3.58,1.55-4.93,4-4.93s4,1.35,4,4.93-1.53,4.95-4,4.95S196.2,28.47,196.2,24.88Zm6.21,0c0-2.77-.83-3.54-2.17-3.54s-2.16.77-2.16,3.54.83,3.56,2.16,3.56S202.41,27.64,202.41,24.88Z"/><path class="cls-1" d="M206.28,29.54v-9.3a2.8,2.8,0,0,1,.9-.11,3,3,0,0,1,.91.11v.93a3.63,3.63,0,0,1,2.8-1.22,2.53,2.53,0,0,1,2.78,2.71v6.88a3.11,3.11,0,0,1-.9.11,2.83,2.83,0,0,1-.91-.11V23c0-1.05-.54-1.61-1.68-1.61a2.51,2.51,0,0,0-2.09,1.25v6.88a3,3,0,0,1-.91.11A2.8,2.8,0,0,1,206.28,29.54Z"/><path class="cls-1" d="M222.81,23.49v6.05a2,2,0,0,1-.74.11,2.13,2.13,0,0,1-.74-.11l-.25-1.21a2.91,2.91,0,0,1-2.86,1.5c-1.71,0-2.8-1-2.8-3S216.6,24,218.91,24a20.75,20.75,0,0,1,2.1.11v-.74c0-1.28-.56-1.92-1.92-1.92a7.57,7.57,0,0,0-2.42.44,1.33,1.33,0,0,1-.4-.54,1.68,1.68,0,0,1-.12-.76,8.3,8.3,0,0,1,3.19-.65C222,20,222.81,21.14,222.81,23.49ZM221,26v-.67c-.42,0-1.16-.11-1.85-.11-1.26,0-1.89.47-1.89,1.67s.59,1.64,1.57,1.64A2.26,2.26,0,0,0,221,26Z"/><path class="cls-1" d="M228.45,29.18a1.6,1.6,0,0,1,.47-1.28,7.74,7.74,0,0,0,2.48.43c1.19,0,1.88-.42,1.88-1.34s-1.05-1.21-2.14-1.53-2.54-.92-2.54-2.68S229.7,20,232,20a5.94,5.94,0,0,1,2.6.48,1.64,1.64,0,0,1-.45,1.27,6.34,6.34,0,0,0-1.95-.31c-1.26,0-1.88.47-1.88,1.32s1.12,1.12,2.24,1.48,2.5.94,2.5,2.75-1.12,2.89-3.51,2.89A7.39,7.39,0,0,1,228.45,29.18Z"/><path class="cls-1" d="M244.53,29.52a3.49,3.49,0,0,1-1,.13,3.34,3.34,0,0,1-1-.13l-2.69-4.15H238.7v4.17a2.92,2.92,0,0,1-.89.11,3.36,3.36,0,0,1-.92-.11V16.19a4.17,4.17,0,0,1,.92-.09,4,4,0,0,1,.89.09V24h1.17l2.41-3.75a3.18,3.18,0,0,1,.94-.11,3.38,3.38,0,0,1,.9.11l-2.73,4.31Z"/><path class="cls-1" d="M253.19,20.24v9.3a2.8,2.8,0,0,1-.9.11,3,3,0,0,1-.91-.11V28.6a3.57,3.57,0,0,1-2.81,1.23,2.53,2.53,0,0,1-2.77-2.71V20.24a3,3,0,0,1,.91-.11,2.8,2.8,0,0,1,.9.11v6.54c0,1,.54,1.6,1.68,1.6a2.55,2.55,0,0,0,2.09-1.26V20.24a3,3,0,0,1,.91-.11A3,3,0,0,1,253.19,20.24Z"/><path class="cls-1" d="M260.73,29a2,2,0,0,1-.09.64,5.4,5.4,0,0,1-1.39.16c-2.24,0-3.06-1.18-3.06-3.47V21.48h-1.37a1.8,1.8,0,0,1-.11-.67,1.59,1.59,0,0,1,.11-.68h1.37V18.39a3.11,3.11,0,0,1,1.81-.34v2.08h2.37a2,2,0,0,1,.09.67,2.35,2.35,0,0,1-.09.68H258v4.81c0,1.57.49,2.09,1.75,2.09a5.63,5.63,0,0,0,.83-.07A1.59,1.59,0,0,1,260.73,29Z"/><path class="cls-1" d="M269.09,25.44h-5.43c.14,2.15,1,2.85,2.51,2.85a4.16,4.16,0,0,0,2.11-.54,1.87,1.87,0,0,1,.6,1.28,5.2,5.2,0,0,1-3,.8c-2.71,0-4-1.66-4-5s1.59-4.91,4-4.91c2.26,0,3.5,1.26,3.5,3.59A8.21,8.21,0,0,1,269.09,25.44Zm-5.45-1.23h3.92a6.81,6.81,0,0,0,.05-.87c0-1.1-.49-2-1.8-2S263.78,22.15,263.64,24.21Z"/><path class="cls-1" d="M270.83,24.9c0-3.26,1.37-4.95,4-4.95a4.93,4.93,0,0,1,2.42.47,1.86,1.86,0,0,1-.54,1.3,3.86,3.86,0,0,0-1.55-.29c-1.74,0-2.46,1.1-2.46,3.47s.78,3.39,2.53,3.39A4.19,4.19,0,0,0,276.9,28a1.8,1.8,0,0,1,.54,1.28,4.89,4.89,0,0,1-2.6.58C272.2,29.83,270.83,28.15,270.83,24.9Z"/><path class="cls-1" d="M285.5,28.93a1.92,1.92,0,0,1-.12.72h-6.76a2.44,2.44,0,0,1-.11-.78,2.16,2.16,0,0,1,.11-.69l4.82-6.59h-4.51a2.28,2.28,0,0,1-.11-.74,1.94,1.94,0,0,1,.11-.72h6.43a2.23,2.23,0,0,1,.11.68,3.17,3.17,0,0,1-.11.78l-4.83,6.59h4.85A1.94,1.94,0,0,1,285.5,28.93Z"/><path class="cls-1" d="M287.38,29.54v-9.3a2.83,2.83,0,0,1,.91-.11,3,3,0,0,1,.9.11v.93A3.64,3.64,0,0,1,292,20a2.52,2.52,0,0,1,2.78,2.71v6.88a3,3,0,0,1-.9.11,2.8,2.8,0,0,1-.9-.11V23a1.46,1.46,0,0,0-1.68-1.61,2.53,2.53,0,0,0-2.1,1.25v6.88a3,3,0,0,1-.9.11A2.83,2.83,0,0,1,287.38,29.54Z"/><path class="cls-1" d="M296.71,24.88c0-3.58,1.55-4.93,4.05-4.93s4,1.35,4,4.93-1.53,4.95-4,4.95S296.71,28.47,296.71,24.88Zm6.21,0c0-2.77-.83-3.54-2.16-3.54s-2.17.77-2.17,3.54.83,3.56,2.17,3.56S302.92,27.64,302.92,24.88Z"/><path class="cls-1" d="M306.25,29.18a1.57,1.57,0,0,1,.47-1.28,7.68,7.68,0,0,0,2.47.43c1.2,0,1.88-.42,1.88-1.34s-1-1.21-2.13-1.53-2.55-.92-2.55-2.68S307.5,20,309.79,20a6,6,0,0,1,2.6.48,1.64,1.64,0,0,1-.45,1.27,6.4,6.4,0,0,0-1.95-.31c-1.27,0-1.88.47-1.88,1.32s1.12,1.12,2.24,1.48,2.49.94,2.49,2.75-1.12,2.89-3.5,2.89A7.39,7.39,0,0,1,306.25,29.18Zm1.9-10.84,1.8-2.62a1.76,1.76,0,0,1,1.57.67l-2.33,2.51A1.42,1.42,0,0,1,308.15,18.34Z"/><path class="cls-1" d="M314.29,24.9c0-3.26,1.38-4.95,4-4.95a4.93,4.93,0,0,1,2.42.47,1.82,1.82,0,0,1-.54,1.3,3.8,3.8,0,0,0-1.55-.29c-1.74,0-2.46,1.1-2.46,3.47s.78,3.39,2.53,3.39a4.19,4.19,0,0,0,1.66-.32,1.76,1.76,0,0,1,.54,1.28,4.89,4.89,0,0,1-2.6.58C315.67,29.83,314.29,28.15,314.29,24.9Zm2.28-6.65,1.8-2.62a1.78,1.78,0,0,1,1.58.67l-2.33,2.51A1.42,1.42,0,0,1,316.57,18.25Z"/><path class="cls-1" d="M321.84,20.26a10.37,10.37,0,0,1,1.46-5.17.94.94,0,0,1,.44.12.71.71,0,0,1,.32.29,9.27,9.27,0,0,0-1.22,4.76A9.27,9.27,0,0,0,324.06,25a.67.67,0,0,1-.32.31,1.06,1.06,0,0,1-.44.1A10.41,10.41,0,0,1,321.84,20.26Z"/><path class="cls-1" d="M327.65,16.53v7a1.53,1.53,0,0,1-.53.07,1.9,1.9,0,0,1-.55-.07V19.12c0-.49,0-.92,0-1.24a3.62,3.62,0,0,1-1.76,1,1,1,0,0,1-.26-.86,3.38,3.38,0,0,0,2-1.46,1.6,1.6,0,0,1,.53-.07A1.67,1.67,0,0,1,327.65,16.53Z"/><path class="cls-1" d="M329.17,25.33a.68.68,0,0,1-.31-.31,9.27,9.27,0,0,0,1.22-4.76,9.27,9.27,0,0,0-1.22-4.76.71.71,0,0,1,.31-.29,1,1,0,0,1,.45-.12,10.42,10.42,0,0,1,1.45,5.17,10.46,10.46,0,0,1-1.45,5.17A1.09,1.09,0,0,1,329.17,25.33Z"/><path class="cls-2" d="M41.26,41.05,40,36.3a1.22,1.22,0,0,1,.35,0,1.1,1.1,0,0,1,.34,0l.89,3.19c.11.45.18.88.18.88h0a6.88,6.88,0,0,1,.15-.88l.82-3.19a1.83,1.83,0,0,1,.76,0l.82,3.19a8.9,8.9,0,0,1,.14.88h0a8.86,8.86,0,0,1,.17-.88l.87-3.19a1.11,1.11,0,0,1,.32,0,1.23,1.23,0,0,1,.33,0l-1.29,4.75a1.38,1.38,0,0,1-.4.05,1.67,1.67,0,0,1-.43-.05l-.79-3.12a6.84,6.84,0,0,1-.15-1h0a6.84,6.84,0,0,1-.15,1l-.8,3.12a1.58,1.58,0,0,1-.43.05A1.33,1.33,0,0,1,41.26,41.05Z"/><path class="cls-2" d="M49.72,39.32c0,1.38-.5,1.85-1.28,1.85a1.06,1.06,0,0,1-1-.47v1.93a1.18,1.18,0,0,1-.34,0,1.06,1.06,0,0,1-.33,0v-5a1.06,1.06,0,0,1,.33,0,1.18,1.18,0,0,1,.34,0v.35a1.07,1.07,0,0,1,1-.45C49.21,37.49,49.72,37.94,49.72,39.32Zm-.71,0c0-1-.25-1.29-.8-1.29a.79.79,0,0,0-.75.85v.87a.79.79,0,0,0,.75.87C48.76,40.62,49,40.33,49,39.32Z"/><path class="cls-2" d="M51.57,38.44v2.62a1.18,1.18,0,0,1-.34,0,1,1,0,0,1-.33,0V38.83l-.47.27a.39.39,0,0,1-.13-.16.37.37,0,0,1-.08-.2l.68-.4V36.09a1,1,0,0,1,.33,0,1.18,1.18,0,0,1,.34,0V38l.49-.28a.5.5,0,0,1,.13.16.53.53,0,0,1,.08.21Z"/><path class="cls-2" d="M55.84,37.59,54.5,41.66c-.22.71-.48,1.12-1.18,1.12a1.42,1.42,0,0,1-.44-.06.64.64,0,0,1,0-.52,1.05,1.05,0,0,0,.31,0c.32,0,.49-.11.68-.7L54,41.1a.54.54,0,0,1-.21-.05l-1.28-3.46a1.55,1.55,0,0,1,.7,0L54,39.65a6.13,6.13,0,0,1,.24.8h0a7.09,7.09,0,0,1,.21-.8l.69-2.06a1,1,0,0,1,.33,0A1.23,1.23,0,0,1,55.84,37.59Z"/><path class="cls-2" d="M57.15,41.06l-1-3.47a1.27,1.27,0,0,1,.34,0,.75.75,0,0,1,.3,0l.63,2.09a4.14,4.14,0,0,1,.14.73h0a4.53,4.53,0,0,1,.16-.73l.62-2.09a1.61,1.61,0,0,1,.35,0,1.18,1.18,0,0,1,.34,0l.6,2.08a4.49,4.49,0,0,1,.15.74h0a5.38,5.38,0,0,1,.16-.74l.62-2.08a1,1,0,0,1,.31,0,.78.78,0,0,1,.29,0l-1,3.47a2.13,2.13,0,0,1-.39,0,1.9,1.9,0,0,1-.37,0l-.54-1.81a4.49,4.49,0,0,1-.19-1h0a4.57,4.57,0,0,1-.2,1l-.54,1.81a2,2,0,0,1-.38,0A2.13,2.13,0,0,1,57.15,41.06Z"/><path class="cls-2" d="M63.12,40.93a.57.57,0,0,1,.18-.48,2.82,2.82,0,0,0,.92.16c.44,0,.7-.15.7-.5s-.39-.45-.8-.57-1-.34-1-1,.41-1,1.27-1a2.15,2.15,0,0,1,1,.18.65.65,0,0,1-.17.47,2.61,2.61,0,0,0-.73-.11c-.47,0-.7.17-.7.49s.42.41.84.55.93.35.93,1-.42,1.08-1.31,1.08A2.81,2.81,0,0,1,63.12,40.93Z"/><path class="cls-2" d="M68.25,40.87a.83.83,0,0,1,0,.24,2.25,2.25,0,0,1-.52.06c-.84,0-1.14-.44-1.14-1.29V38.06h-.51a.73.73,0,0,1,0-.25.63.63,0,0,1,0-.26h.51v-.64a1.13,1.13,0,0,1,.67-.13v.77h.89a.87.87,0,0,1,0,.25,1,1,0,0,1,0,.26h-.89v1.79c0,.58.19.78.66.78a2,2,0,0,0,.31,0A.65.65,0,0,1,68.25,40.87Z"/><path class="cls-2" d="M68.72,39.32c0-1.33.58-1.83,1.5-1.83s1.5.5,1.5,1.83-.57,1.85-1.5,1.85S68.72,40.66,68.72,39.32Zm2.31,0c0-1-.31-1.32-.81-1.32s-.8.29-.8,1.32.31,1.33.8,1.33S71,40.35,71,39.32Z"/><path class="cls-2" d="M72.34,40.93a.57.57,0,0,1,.18-.48,2.82,2.82,0,0,0,.92.16c.44,0,.7-.15.7-.5s-.39-.45-.8-.57-1-.34-1-1,.41-1,1.27-1a2.15,2.15,0,0,1,1,.18.65.65,0,0,1-.17.47,2.55,2.55,0,0,0-.73-.11c-.47,0-.7.17-.7.49s.42.41.84.55.93.35.93,1-.42,1.08-1.31,1.08A2.81,2.81,0,0,1,72.34,40.93Z"/><path class="cls-2" d="M75.41,39.32c0-1.33.57-1.83,1.5-1.83s1.5.5,1.5,1.83-.57,1.85-1.5,1.85S75.41,40.66,75.41,39.32Zm2.31,0c0-1-.31-1.32-.81-1.32s-.81.29-.81,1.32.31,1.33.81,1.33S77.72,40.35,77.72,39.32Z"/><path class="cls-2" d="M79.92,41.06l-1-3.47a1.14,1.14,0,0,1,.33,0,.69.69,0,0,1,.3,0l.63,2.09a3.36,3.36,0,0,1,.14.73h0a4.53,4.53,0,0,1,.16-.73l.62-2.09a1.61,1.61,0,0,1,.35,0,1.1,1.1,0,0,1,.34,0l.61,2.08a4.2,4.2,0,0,1,.14.74h0c0-.14.07-.39.16-.74l.63-2.08a.88.88,0,0,1,.3,0,.78.78,0,0,1,.29,0l-1,3.47a2.13,2.13,0,0,1-.39,0,2,2,0,0,1-.37,0l-.54-1.81a4.49,4.49,0,0,1-.19-1h0a4,4,0,0,1-.2,1l-.54,1.81a2,2,0,0,1-.38,0A2.23,2.23,0,0,1,79.92,41.06Z"/><path class="cls-2" d="M87.13,38.81v2.25a.82.82,0,0,1-.28,0,.79.79,0,0,1-.27,0l-.1-.45a1.08,1.08,0,0,1-1.06.56,1,1,0,0,1-1-1.11c0-.73.43-1.06,1.29-1.06a7.58,7.58,0,0,1,.79,0v-.27c0-.48-.21-.72-.72-.72a2.84,2.84,0,0,0-.9.16.4.4,0,0,1-.15-.2.65.65,0,0,1,0-.28,3.15,3.15,0,0,1,1.2-.24C86.82,37.49,87.13,37.93,87.13,38.81Zm-.67.92v-.24a6.27,6.27,0,0,0-.69,0c-.47,0-.71.17-.71.61s.22.62.59.62A.85.85,0,0,0,86.46,39.73Z"/><path class="cls-2" d="M88.07,41.06V37.59a1,1,0,0,1,.33,0,1.1,1.1,0,0,1,.34,0v.35a1.38,1.38,0,0,1,1-.45.94.94,0,0,1,1,1v2.56a1.18,1.18,0,0,1-.34,0,1,1,0,0,1-.33,0V38.63a.55.55,0,0,0-.63-.6,1,1,0,0,0-.78.47v2.56a1.1,1.1,0,0,1-.34,0A1,1,0,0,1,88.07,41.06Z"/><path class="cls-2" d="M91.75,36.82v-.61a1.26,1.26,0,0,1,.36,0,1.34,1.34,0,0,1,.36,0v.61a1.34,1.34,0,0,1-.36,0A1.26,1.26,0,0,1,91.75,36.82Zm0,4.24V37.59a1,1,0,0,1,.34,0,1.06,1.06,0,0,1,.33,0v3.47a1.06,1.06,0,0,1-.33,0A1.1,1.1,0,0,1,91.77,41.06Z"/><path class="cls-2" d="M96,38.81v2.25a.82.82,0,0,1-.28,0,.79.79,0,0,1-.27,0l-.1-.45a1.08,1.08,0,0,1-1.06.56,1,1,0,0,1-1-1.11c0-.73.43-1.06,1.3-1.06a7.52,7.52,0,0,1,.78,0v-.27c0-.48-.21-.72-.72-.72a2.84,2.84,0,0,0-.9.16.4.4,0,0,1-.15-.2.65.65,0,0,1,0-.28,3.15,3.15,0,0,1,1.2-.24C95.65,37.49,96,37.93,96,38.81Zm-.67.92v-.24a6.27,6.27,0,0,0-.69,0c-.47,0-.71.17-.71.61s.22.62.59.62A.85.85,0,0,0,95.29,39.73Z"/><path class="cls-2" d="M100.77,40.83a.79.79,0,0,1,0,.27H98.21a.78.78,0,0,1,0-.29.76.76,0,0,1,0-.25L100,38.1H98.32a.9.9,0,0,1,0-.28.79.79,0,0,1,0-.27h2.4a.89.89,0,0,1,0,.26,1.12,1.12,0,0,1,0,.29l-1.8,2.46h1.81A.72.72,0,0,1,100.77,40.83ZM99.52,37a1.06,1.06,0,0,1-.33,0v-.59a1.38,1.38,0,0,1,.66,0V37A1.06,1.06,0,0,1,99.52,37Z"/><path class="cls-2" d="M104.11,39.53h-2c0,.8.36,1.07.93,1.07a1.51,1.51,0,0,0,.79-.21.66.66,0,0,1,.22.48,1.91,1.91,0,0,1-1.13.3c-1,0-1.5-.62-1.5-1.85s.59-1.83,1.48-1.83a1.19,1.19,0,0,1,1.31,1.34A2.8,2.8,0,0,1,104.11,39.53Zm-2-.45h1.46a1.62,1.62,0,0,0,0-.33c0-.41-.18-.75-.67-.75S102.14,38.31,102.08,39.08Z"/><path class="cls-2" d="M105,41.06v-5a1,1,0,0,1,.33,0,1.18,1.18,0,0,1,.34,0v5a1.18,1.18,0,0,1-.34,0A1,1,0,0,1,105,41.06Z"/><path class="cls-2" d="M109.4,37.59v3.47a1.1,1.1,0,0,1-.34,0,1.18,1.18,0,0,1-.34,0v-.35a1.33,1.33,0,0,1-1,.46,1,1,0,0,1-1-1V37.59a1.18,1.18,0,0,1,.34,0,1.1,1.1,0,0,1,.34,0V40a.54.54,0,0,0,.62.6.94.94,0,0,0,.78-.47V37.59a1.46,1.46,0,0,1,.68,0Z"/><path class="cls-2" d="M114.23,40.83a.65.65,0,0,1,0,.27h-2.51a.78.78,0,0,1,0-.29.76.76,0,0,1,0-.25l1.79-2.46h-1.68a.9.9,0,0,1,0-.28.79.79,0,0,1,0-.27h2.4a.89.89,0,0,1,0,.26,1.12,1.12,0,0,1,0,.29l-1.8,2.46h1.8A.6.6,0,0,1,114.23,40.83Z"/><path class="cls-2" d="M116.4,38.68c0-1.64.68-2.5,2-2.5a2.48,2.48,0,0,1,1.17.24.64.64,0,0,1-.21.5,2.62,2.62,0,0,0-.87-.15c-.79,0-1.32.41-1.32,1.91s.53,1.9,1.32,1.9a2.78,2.78,0,0,0,.94-.16.72.72,0,0,1,.21.51,2.73,2.73,0,0,1-1.24.24C117.08,41.17,116.4,40.33,116.4,38.68Z"/><path class="cls-2" d="M123.81,36.3v4.75a1.06,1.06,0,0,1-.35.05.93.93,0,0,1-.35-.05V38.91h-2v2.14a1.14,1.14,0,0,1-.35.05.87.87,0,0,1-.35-.05V36.3a1.22,1.22,0,0,1,.35,0,1.3,1.3,0,0,1,.35,0v2h2v-2a1.3,1.3,0,0,1,.35,0A1.4,1.4,0,0,1,123.81,36.3Z"/><path class="cls-2" d="M128.54,41.05a1.62,1.62,0,0,1-.8,0l-.87-1.38c-.13-.19-.25-.39-.37-.58l-.4.62-.86,1.35a1.46,1.46,0,0,1-.35,0,2.06,2.06,0,0,1-.4,0l1.56-2.47-1.43-2.29a2,2,0,0,1,.8,0l.79,1.23c.11.17.23.35.33.52l.37-.56.78-1.19a1.66,1.66,0,0,1,.37,0,1.82,1.82,0,0,1,.37,0L127,38.56Z"/><path class="cls-2" d="M130.55,38.81c0-1.66.6-2.36,1.69-2.36s1.7.68,1.7,2.36-.62,2.36-1.7,2.36S130.55,40.49,130.55,38.81Zm2.65,0c0-1.38-.32-1.8-1-1.8s-1,.42-1,1.8.33,1.8,1,1.8S133.2,40.18,133.2,38.81Z"/><path class="cls-2" d="M134.75,41.77a1.21,1.21,0,0,0,.25-.67.92.92,0,0,1-.24,0v-.65a1.64,1.64,0,0,1,.72,0v.46a1.38,1.38,0,0,1-.47,1.06Z"/><path class="cls-2" d="M139,40.5a.84.84,0,0,1,.06.3.79.79,0,0,1-.06.3h-2.75a2.35,2.35,0,0,1-.05-.46c0-1,.68-1.41,1.3-1.81s.91-.62.91-1.13-.24-.7-.87-.7a3.07,3.07,0,0,0-1,.19.53.53,0,0,1-.2-.48,3.19,3.19,0,0,1,1.29-.26c.83,0,1.47.35,1.47,1.23s-.47,1.13-1.26,1.6c-.41.25-1,.48-1,1a.88.88,0,0,0,0,.17Z"/><path class="cls-2" d="M139.77,37.62c0-.83.35-1.17.93-1.17s.92.32.92,1.17-.35,1.16-.92,1.16S139.77,38.46,139.77,37.62Zm1.35,0c0-.62-.16-.78-.42-.78s-.43.16-.43.78.16.76.43.76S141.12,38.24,141.12,37.62Zm-.62,3.51,2.6-4.71a.66.66,0,0,1,.27,0,.72.72,0,0,1,.27,0L141,41.13a.75.75,0,0,1-.28,0A.7.7,0,0,1,140.5,41.13Zm2-1.13c0-.83.34-1.17.92-1.17s.94.33.94,1.17-.36,1.17-.94,1.17S142.48,40.84,142.48,40Zm1.34,0c0-.62-.16-.77-.42-.77s-.42.15-.42.77.16.76.42.76S143.82,40.63,143.82,40Z"/><path class="cls-2" d="M146.58,41.06V37.59a1,1,0,0,1,.33,0,1.18,1.18,0,0,1,.34,0v.35a1.38,1.38,0,0,1,1-.45.94.94,0,0,1,1,1v2.56a1.18,1.18,0,0,1-.34,0,1,1,0,0,1-.33,0V38.63A.55.55,0,0,0,148,38a1,1,0,0,0-.78.47v2.56a1.18,1.18,0,0,1-.34,0A1,1,0,0,1,146.58,41.06Z"/><path class="cls-2" d="M152.8,38.81v2.25a.72.72,0,0,1-.27,0,.82.82,0,0,1-.28,0l-.09-.45a1.09,1.09,0,0,1-1.07.56,1,1,0,0,1-1-1.11c0-.73.44-1.06,1.3-1.06a7.21,7.21,0,0,1,.78,0v-.27c0-.48-.21-.72-.71-.72a2.84,2.84,0,0,0-.9.16.35.35,0,0,1-.15-.2.65.65,0,0,1-.05-.28,3.13,3.13,0,0,1,1.19-.24C152.49,37.49,152.8,37.93,152.8,38.81Zm-.67.92v-.24a6,6,0,0,0-.69,0c-.47,0-.7.17-.7.61s.22.62.58.62A.85.85,0,0,0,152.13,39.73Z"/><path class="cls-2" d="M155,40.93a.63.63,0,0,1,.18-.48,2.87,2.87,0,0,0,.92.16c.44,0,.7-.15.7-.5s-.39-.45-.79-.57-1-.34-1-1,.41-1,1.26-1a2.12,2.12,0,0,1,1,.18.61.61,0,0,1-.17.47,2.53,2.53,0,0,0-.72-.11c-.48,0-.7.17-.7.49s.41.41.83.55.93.35.93,1-.42,1.08-1.31,1.08A2.85,2.85,0,0,1,155,40.93Z"/><path class="cls-2" d="M160.17,40.87a.83.83,0,0,1,0,.24,2.18,2.18,0,0,1-.52.06c-.83,0-1.14-.44-1.14-1.29V38.06H158a.73.73,0,0,1,0-.25.63.63,0,0,1,0-.26h.51v-.64a1.16,1.16,0,0,1,.68-.13v.77H160a.87.87,0,0,1,0,.25,1,1,0,0,1,0,.26h-.88v1.79c0,.58.18.78.65.78a2,2,0,0,0,.31,0A.65.65,0,0,1,160.17,40.87Z"/><path class="cls-2" d="M163.32,38.81v2.25a.72.72,0,0,1-.27,0,.82.82,0,0,1-.28,0l-.09-.45a1.09,1.09,0,0,1-1.06.56,1,1,0,0,1-1.05-1.11c0-.73.44-1.06,1.3-1.06a7.21,7.21,0,0,1,.78,0v-.27c0-.48-.21-.72-.71-.72a2.84,2.84,0,0,0-.9.16.35.35,0,0,1-.15-.2.65.65,0,0,1,0-.28,3.13,3.13,0,0,1,1.19-.24C163,37.49,163.32,37.93,163.32,38.81Zm-.67.92v-.24a6,6,0,0,0-.69,0c-.47,0-.7.17-.7.61s.22.62.58.62A.85.85,0,0,0,162.65,39.73Z"/><path class="cls-2" d="M164.26,41.06V37.59a1.1,1.1,0,0,1,.34,0,1.18,1.18,0,0,1,.34,0v.35a1.36,1.36,0,0,1,1-.45.94.94,0,0,1,1,1v2.56a1.14,1.14,0,0,1-.33,0,1.1,1.1,0,0,1-.34,0V38.63a.54.54,0,0,0-.62-.6.93.93,0,0,0-.78.47v2.56a1.18,1.18,0,0,1-.34,0A1.1,1.1,0,0,1,164.26,41.06Z"/><path class="cls-2" d="M172.3,41.05a1.32,1.32,0,0,1-.38.05,1.28,1.28,0,0,1-.37-.05l-1-1.54h-.42v1.55a1.14,1.14,0,0,1-.33,0,1.18,1.18,0,0,1-.34,0v-5a1.27,1.27,0,0,1,.34,0,1.33,1.33,0,0,1,.33,0V39h.44l.89-1.4a1.22,1.22,0,0,1,.35,0,1.36,1.36,0,0,1,.34,0l-1,1.61Z"/><path class="cls-2" d="M172.89,41.06v-5a1,1,0,0,1,.34,0,1.06,1.06,0,0,1,.33,0v5a1.06,1.06,0,0,1-.33,0A1,1,0,0,1,172.89,41.06Z"/><path class="cls-2" d="M174.54,36.82v-.61a1.17,1.17,0,0,1,.36,0,1.34,1.34,0,0,1,.36,0v.61a1.34,1.34,0,0,1-.36,0A1.17,1.17,0,0,1,174.54,36.82Zm0,4.24V37.59a1,1,0,0,1,.34,0,1.06,1.06,0,0,1,.33,0v3.47a1.06,1.06,0,0,1-.33,0A1.1,1.1,0,0,1,174.56,41.06Z"/><path class="cls-2" d="M176.21,41.06V37.59a1.1,1.1,0,0,1,.34,0,1.06,1.06,0,0,1,.33,0v.35a1.4,1.4,0,0,1,1.05-.45.94.94,0,0,1,1,1v2.56a1.14,1.14,0,0,1-.33,0,1.1,1.1,0,0,1-.34,0V38.63a.54.54,0,0,0-.62-.6,1,1,0,0,0-.79.47v2.56a1.06,1.06,0,0,1-.33,0A1.1,1.1,0,0,1,176.21,41.06Z"/><path class="cls-2" d="M179.89,36.82v-.61a1.26,1.26,0,0,1,.36,0,1.38,1.38,0,0,1,.37,0v.61a1.38,1.38,0,0,1-.37,0A1.26,1.26,0,0,1,179.89,36.82Zm0,4.24V37.59a1,1,0,0,1,.33,0,1.18,1.18,0,0,1,.34,0v3.47a1.18,1.18,0,0,1-.34,0A1,1,0,0,1,179.92,41.06Z"/><path class="cls-2" d="M181.42,39.33c0-1.21.51-1.84,1.49-1.84a1.86,1.86,0,0,1,.9.17.66.66,0,0,1-.2.49A1.4,1.4,0,0,0,183,38c-.64,0-.91.41-.91,1.29s.29,1.27.94,1.27a1.46,1.46,0,0,0,.62-.13.7.7,0,0,1,.2.48,1.81,1.81,0,0,1-1,.22C181.93,41.17,181.42,40.54,181.42,39.33Z"/><path class="cls-2" d="M187,40.83a.65.65,0,0,1,0,.27h-2.51a.78.78,0,0,1,0-.29.76.76,0,0,1,0-.25l1.79-2.46H184.5a.9.9,0,0,1,0-.28.79.79,0,0,1,0-.27h2.4a.89.89,0,0,1,0,.26,1.12,1.12,0,0,1,0,.29l-1.8,2.46h1.8A.6.6,0,0,1,187,40.83Z"/><path class="cls-2" d="M187.72,41.06V37.59a1.1,1.1,0,0,1,.34,0,1.06,1.06,0,0,1,.33,0v.35a1.4,1.4,0,0,1,1.05-.45.94.94,0,0,1,1,1v2.56a1.14,1.14,0,0,1-.33,0,1.1,1.1,0,0,1-.34,0V38.63a.54.54,0,0,0-.62-.6,1,1,0,0,0-.79.47v2.56a1.06,1.06,0,0,1-.33,0A1.1,1.1,0,0,1,187.72,41.06Z"/><path class="cls-2" d="M194.37,37.59,193,41.66c-.22.71-.48,1.12-1.18,1.12a1.42,1.42,0,0,1-.44-.06.64.64,0,0,1,0-.52,1.05,1.05,0,0,0,.31,0c.32,0,.49-.11.69-.7l.14-.44a.54.54,0,0,1-.21-.05l-1.28-3.46a1.55,1.55,0,0,1,.7,0l.78,2.06a6.13,6.13,0,0,1,.24.8h0a7.09,7.09,0,0,1,.21-.8l.69-2.06a1,1,0,0,1,.33,0A1.14,1.14,0,0,1,194.37,37.59Z"/><path class="cls-2" d="M199.42,39.33c0,1.37-.5,1.84-1.28,1.84a1.12,1.12,0,0,1-1-.45v.34a1.06,1.06,0,0,1-.33,0,1.1,1.1,0,0,1-.34,0v-5a1.1,1.1,0,0,1,.34,0,1.06,1.06,0,0,1,.33,0v1.85a1.12,1.12,0,0,1,1-.45C198.92,37.49,199.42,38,199.42,39.33Zm-.7,0c0-1-.26-1.3-.81-1.3a.79.79,0,0,0-.75.86v.86a.79.79,0,0,0,.75.87C198.46,40.62,198.72,40.31,198.72,39.33Z"/><path class="cls-2" d="M201.27,38.44v2.62a1.18,1.18,0,0,1-.34,0,1,1,0,0,1-.34,0V38.83l-.46.27s-.07-.05-.14-.16a.52.52,0,0,1-.08-.2l.68-.4V36.09a1,1,0,0,1,.34,0,1.18,1.18,0,0,1,.34,0V38l.49-.28a1.31,1.31,0,0,1,.13.16A.43.43,0,0,1,202,38Z"/><path class="cls-2" d="M202.43,39.32c0-1.33.58-1.83,1.51-1.83s1.5.5,1.5,1.83-.57,1.85-1.5,1.85S202.43,40.66,202.43,39.32Zm2.32,0c0-1-.31-1.32-.81-1.32s-.81.29-.81,1.32.31,1.33.81,1.33S204.75,40.35,204.75,39.32Z"/><path class="cls-2" d="M206.26,41.06V37.59a1,1,0,0,1,.33,0,1.1,1.1,0,0,1,.34,0v.35a1.38,1.38,0,0,1,1-.45.94.94,0,0,1,1,1v2.56a1.18,1.18,0,0,1-.34,0,1,1,0,0,1-.33,0V38.63a.55.55,0,0,0-.63-.6,1,1,0,0,0-.78.47v2.56a1.1,1.1,0,0,1-.34,0A1,1,0,0,1,206.26,41.06Z"/><path class="cls-2" d="M212.9,37.59l-1.33,4.07c-.23.71-.48,1.12-1.19,1.12a1.46,1.46,0,0,1-.44-.06.64.64,0,0,1,0-.52,1.11,1.11,0,0,0,.31,0c.33,0,.5-.11.69-.7l.15-.44a.5.5,0,0,1-.21-.05l-1.29-3.46a1.3,1.3,0,0,1,.35,0,1.14,1.14,0,0,1,.35,0l.79,2.06a7,7,0,0,1,.23.8h0s.07-.33.22-.8l.68-2.06a1.06,1.06,0,0,1,.33,0A1.14,1.14,0,0,1,212.9,37.59Z"/><path class="cls-2" d="M214.82,40.93a.63.63,0,0,1,.18-.48,2.87,2.87,0,0,0,.92.16c.44,0,.7-.15.7-.5s-.39-.45-.79-.57-1-.34-1-1,.41-1,1.26-1a2.12,2.12,0,0,1,1,.18.61.61,0,0,1-.17.47,2.53,2.53,0,0,0-.72-.11c-.47,0-.7.17-.7.49s.41.41.83.55.93.35.93,1-.42,1.08-1.31,1.08A2.85,2.85,0,0,1,214.82,40.93Zm.71-4,.67-1a.68.68,0,0,1,.59.25l-.87.94A.52.52,0,0,1,215.53,36.89Z"/><path class="cls-2" d="M218.06,41.06v-5a1,1,0,0,1,.34,0,1.18,1.18,0,0,1,.34,0v5a1.18,1.18,0,0,1-.34,0A1,1,0,0,1,218.06,41.06Z"/><path class="cls-2" d="M222.45,37.59v3.47a1,1,0,0,1-.33,0,1.1,1.1,0,0,1-.34,0v-.35a1.34,1.34,0,0,1-1.05.46.94.94,0,0,1-1-1V37.59a1.18,1.18,0,0,1,.34,0,1,1,0,0,1,.33,0V40a.55.55,0,0,0,.63.6.94.94,0,0,0,.78-.47V37.59a1.1,1.1,0,0,1,.34,0A1.06,1.06,0,0,1,222.45,37.59Z"/><path class="cls-2" d="M225.79,40.83a.65.65,0,0,1,0,.27h-2.52a1.06,1.06,0,0,1,0-.29.76.76,0,0,1,0-.25L225,38.1h-1.68a.9.9,0,0,1,0-.28.79.79,0,0,1,0-.27h2.39a.89.89,0,0,1,0,.26,1.12,1.12,0,0,1,0,.29l-1.79,2.46h1.8A.6.6,0,0,1,225.79,40.83Z"/><path class="cls-2" d="M226.41,39.32c0-1.33.58-1.83,1.51-1.83s1.5.5,1.5,1.83-.58,1.85-1.5,1.85S226.41,40.66,226.41,39.32Zm2.31,0c0-1-.31-1.32-.8-1.32s-.81.29-.81,1.32.31,1.33.81,1.33S228.72,40.35,228.72,39.32Z"/><path class="cls-2" d="M230.93,41.06l-1-3.47a1.18,1.18,0,0,1,.34,0,.66.66,0,0,1,.29,0l.64,2.09a5.37,5.37,0,0,1,.14.73h0a5.52,5.52,0,0,1,.15-.73l.62-2.09a1.65,1.65,0,0,1,.36,0,1.06,1.06,0,0,1,.33,0l.61,2.08a3.42,3.42,0,0,1,.14.74h0c0-.14.07-.39.16-.74l.63-2.08a1,1,0,0,1,.3,0,.88.88,0,0,1,.3,0l-1,3.47a1.92,1.92,0,0,1-.38,0,2.11,2.11,0,0,1-.38,0l-.54-1.81a3.84,3.84,0,0,1-.18-1h0a4,4,0,0,1-.2,1l-.54,1.81a1.82,1.82,0,0,1-.37,0A2.13,2.13,0,0,1,230.93,41.06Z"/><path class="cls-2" d="M238.17,39.53h-2c.05.8.36,1.07.94,1.07a1.5,1.5,0,0,0,.78-.21.71.71,0,0,1,.23.48,2,2,0,0,1-1.13.3c-1,0-1.51-.62-1.51-1.85s.59-1.83,1.48-1.83a1.19,1.19,0,0,1,1.31,1.34A3.18,3.18,0,0,1,238.17,39.53Zm-2-.45h1.46a1.62,1.62,0,0,0,0-.33c0-.41-.18-.75-.67-.75S236.19,38.31,236.13,39.08Z"/><path class="cls-2" d="M238.24,42.71a.65.65,0,0,1,0-.16.72.72,0,0,1,.07-.34,1.09,1.09,0,0,0,.26,0c.33,0,.5-.17.5-.58V37.59a1,1,0,0,1,.34,0,1.14,1.14,0,0,1,.33,0v4.1c0,.72-.35,1.09-1,1.09A1.4,1.4,0,0,1,238.24,42.71Zm.78-5.89v-.61a1.3,1.3,0,0,1,.37,0,1.22,1.22,0,0,1,.35,0v.61a1.22,1.22,0,0,1-.35,0A1.3,1.3,0,0,1,239,36.82Z"/><path class="cls-2" d="M241.42,42.71a.45.45,0,0,1,0-.16.72.72,0,0,1,.07-.34,1.2,1.2,0,0,0,.26,0c.33,0,.5-.17.5-.58V37.59a1,1,0,0,1,.34,0,1.27,1.27,0,0,1,.34,0v4.1c0,.72-.35,1.09-1,1.09A1.31,1.31,0,0,1,241.42,42.71Zm.78-5.89v-.61a1.26,1.26,0,0,1,.36,0,1.22,1.22,0,0,1,.35,0v.61a1.22,1.22,0,0,1-.35,0A1.26,1.26,0,0,1,242.2,36.82Z"/><path class="cls-2" d="M246.41,38.81v2.25a.75.75,0,0,1-.28,0,.79.79,0,0,1-.27,0l-.1-.45a1.07,1.07,0,0,1-1.06.56,1,1,0,0,1-1-1.11c0-.73.44-1.06,1.3-1.06a7.52,7.52,0,0,1,.78,0v-.27c0-.48-.21-.72-.72-.72a2.92,2.92,0,0,0-.9.16A.47.47,0,0,1,244,38a.57.57,0,0,1,0-.28,3.13,3.13,0,0,1,1.19-.24C246.1,37.49,246.41,37.93,246.41,38.81Zm-.67.92v-.24a6.12,6.12,0,0,0-.69,0c-.47,0-.71.17-.71.61s.23.62.59.62A.85.85,0,0,0,245.74,39.73Z"/><path class="cls-2" d="M247.35,41.06V37.59a1.06,1.06,0,0,1,.33,0,1.1,1.1,0,0,1,.34,0v.35a1.26,1.26,0,0,1,1-.45.88.88,0,0,1,.87.52,1.35,1.35,0,0,1,1.11-.52.92.92,0,0,1,1,1v2.56a1.18,1.18,0,0,1-.34,0,1.06,1.06,0,0,1-.33,0V38.63c0-.4-.18-.6-.58-.6a.82.82,0,0,0-.73.47v2.56a1.27,1.27,0,0,1-.34,0,1.1,1.1,0,0,1-.34,0V38.63c0-.4-.18-.6-.58-.6a.88.88,0,0,0-.73.47v2.56a1.18,1.18,0,0,1-.34,0A1.06,1.06,0,0,1,247.35,41.06Z"/><path class="cls-2" d="M255.89,37.59l-1.34,4.07c-.22.71-.48,1.12-1.18,1.12a1.53,1.53,0,0,1-.45-.06.73.73,0,0,1,0-.25.61.61,0,0,1,.06-.27,1.05,1.05,0,0,0,.31,0c.32,0,.49-.11.68-.7l.15-.44a.54.54,0,0,1-.21-.05l-1.28-3.46a1.55,1.55,0,0,1,.7,0l.78,2.06a5.14,5.14,0,0,1,.23.8h0a7.09,7.09,0,0,1,.21-.8l.69-2.06a1,1,0,0,1,.33,0A1.23,1.23,0,0,1,255.89,37.59Z"/><path class="cls-2" d="M260.74,37.59v3.47a1.06,1.06,0,0,1-.33,0,1.1,1.1,0,0,1-.34,0v-.35a1.34,1.34,0,0,1-1.05.46.94.94,0,0,1-1-1V37.59a1.1,1.1,0,0,1,.34,0,1.06,1.06,0,0,1,.33,0V40a.55.55,0,0,0,.63.6.94.94,0,0,0,.78-.47V37.59a1.1,1.1,0,0,1,.34,0A1.06,1.06,0,0,1,260.74,37.59Z"/><path class="cls-2" d="M261.5,40.93a.59.59,0,0,1,.17-.48,2.93,2.93,0,0,0,.93.16c.44,0,.7-.15.7-.5s-.39-.45-.8-.57-.95-.34-.95-1,.41-1,1.27-1a2.15,2.15,0,0,1,1,.18.65.65,0,0,1-.17.47,2.61,2.61,0,0,0-.73-.11c-.47,0-.7.17-.7.49s.42.41.84.55.93.35.93,1-.42,1.08-1.31,1.08A2.81,2.81,0,0,1,261.5,40.93Z"/><path class="cls-2" d="M266.63,40.87a.83.83,0,0,1,0,.24,2.25,2.25,0,0,1-.52.06c-.84,0-1.14-.44-1.14-1.29V38.06h-.51a.73.73,0,0,1,0-.25.63.63,0,0,1,0-.26h.51v-.64a1.13,1.13,0,0,1,.67-.13v.77h.89a.87.87,0,0,1,0,.25,1,1,0,0,1,0,.26h-.89v1.79c0,.58.19.78.66.78a2,2,0,0,0,.31,0A.65.65,0,0,1,266.63,40.87Z"/><path class="cls-2" d="M267.24,41.06V37.59a1.1,1.1,0,0,1,.34,0,1.18,1.18,0,0,1,.34,0v.35a1.36,1.36,0,0,1,1-.45.94.94,0,0,1,1,1v2.56a1.18,1.18,0,0,1-.34,0,1.1,1.1,0,0,1-.34,0V38.63a.54.54,0,0,0-.62-.6,1,1,0,0,0-.78.47v2.56a1.18,1.18,0,0,1-.34,0A1.1,1.1,0,0,1,267.24,41.06Z"/><path class="cls-2" d="M273.51,39.53h-2c0,.8.36,1.07.94,1.07a1.5,1.5,0,0,0,.78-.21.66.66,0,0,1,.22.48,1.91,1.91,0,0,1-1.13.3c-1,0-1.5-.62-1.5-1.85s.59-1.83,1.48-1.83a1.19,1.19,0,0,1,1.31,1.34A3.18,3.18,0,0,1,273.51,39.53Zm-2-.45h1.46a1.62,1.62,0,0,0,0-.33c0-.41-.18-.75-.67-.75S271.53,38.31,271.47,39.08Z"/><path class="cls-2" d="M273.58,42.71a.65.65,0,0,1,0-.16.72.72,0,0,1,.07-.34,1.09,1.09,0,0,0,.26,0c.33,0,.5-.17.5-.58V37.59a1,1,0,0,1,.34,0,1.14,1.14,0,0,1,.33,0v4.1c0,.72-.35,1.09-1,1.09A1.4,1.4,0,0,1,273.58,42.71Zm.78-5.89v-.61a1.3,1.3,0,0,1,.37,0,1.22,1.22,0,0,1,.35,0v.61a1.22,1.22,0,0,1-.35,0A1.3,1.3,0,0,1,274.36,36.82Z"/><path class="cls-2" d="M278.24,41.06l-1-3.47a1.18,1.18,0,0,1,.34,0,.66.66,0,0,1,.29,0l.63,2.09a4.43,4.43,0,0,1,.15.73h0a5.52,5.52,0,0,1,.15-.73l.62-2.09a1.65,1.65,0,0,1,.36,0,1.06,1.06,0,0,1,.33,0l.61,2.08a4.2,4.2,0,0,1,.14.74h0c0-.14.07-.39.16-.74l.63-2.08a1.14,1.14,0,0,1,.6,0l-1,3.47a1.82,1.82,0,0,1-.76,0L280,39.25a4.49,4.49,0,0,1-.19-1h0a4,4,0,0,1-.2,1L279,41.06a2,2,0,0,1-.37,0A2,2,0,0,1,278.24,41.06Z"/><path class="cls-2" d="M285.86,37.59l-1.33,4.07c-.23.71-.49,1.12-1.19,1.12a1.42,1.42,0,0,1-.44-.06.64.64,0,0,1,0-.52,1.05,1.05,0,0,0,.31,0c.32,0,.49-.11.69-.7l.14-.44a.46.46,0,0,1-.2-.05l-1.29-3.46a1.22,1.22,0,0,1,.35,0,1.14,1.14,0,0,1,.35,0l.78,2.06a6.13,6.13,0,0,1,.24.8h0a7.09,7.09,0,0,1,.21-.8l.69-2.06a1.06,1.06,0,0,1,.33,0A1.14,1.14,0,0,1,285.86,37.59Z"/><path class="cls-2" d="M286.48,41.06V37.59a1.1,1.1,0,0,1,.34,0,.79.79,0,0,1,.31,0v.49a1,1,0,0,1,.87-.59,1.05,1.05,0,0,1,.58.17.8.8,0,0,1-.3.56.7.7,0,0,0-.42-.13.89.89,0,0,0-.72.54v2.43a1.06,1.06,0,0,1-.33,0A1.1,1.1,0,0,1,286.48,41.06Z"/><path class="cls-2" d="M291.68,38.81v2.25a.72.72,0,0,1-.27,0,.82.82,0,0,1-.28,0l-.09-.45a1.09,1.09,0,0,1-1.06.56,1,1,0,0,1-1.05-1.11c0-.73.44-1.06,1.3-1.06a7.21,7.21,0,0,1,.78,0v-.27c0-.48-.21-.72-.71-.72a2.84,2.84,0,0,0-.9.16.35.35,0,0,1-.15-.2.65.65,0,0,1-.05-.28,3.13,3.13,0,0,1,1.19-.24C291.38,37.49,291.68,37.93,291.68,38.81Zm-.67.92v-.24a5.92,5.92,0,0,0-.68,0c-.48,0-.71.17-.71.61s.22.62.58.62A.85.85,0,0,0,291,39.73Z"/><path class="cls-2" d="M295,40.83a.65.65,0,0,1-.05.27h-2.52a1.06,1.06,0,0,1,0-.29.76.76,0,0,1,0-.25l1.8-2.46h-1.68a.9.9,0,0,1,0-.28.79.79,0,0,1,0-.27h2.39a.89.89,0,0,1,0,.26,1.12,1.12,0,0,1,0,.29l-1.79,2.46H295A.6.6,0,0,1,295,40.83ZM293.75,37a1,1,0,0,1-.33,0v-.59a1,1,0,0,1,.33,0,1.14,1.14,0,0,1,.33,0V37A1.14,1.14,0,0,1,293.75,37Z"/><path class="cls-2" d="M295.62,39.32c0-1.33.58-1.83,1.51-1.83s1.5.5,1.5,1.83-.57,1.85-1.5,1.85S295.62,40.66,295.62,39.32Zm2.31,0c0-1-.3-1.32-.8-1.32s-.81.29-.81,1.32.31,1.33.81,1.33S297.93,40.35,297.93,39.32Z"/><path class="cls-2" d="M299.45,41.06V37.59a1,1,0,0,1,.33,0,1.18,1.18,0,0,1,.34,0v.35a1.36,1.36,0,0,1,1-.45.94.94,0,0,1,1,1v2.56a1.18,1.18,0,0,1-.34,0,1.1,1.1,0,0,1-.34,0V38.63a.54.54,0,0,0-.62-.6,1,1,0,0,0-.78.47v2.56a1.18,1.18,0,0,1-.34,0A1,1,0,0,1,299.45,41.06Z"/><path class="cls-2" d="M306.09,37.59l-1.33,4.07c-.23.71-.49,1.12-1.19,1.12a1.42,1.42,0,0,1-.44-.06.64.64,0,0,1,0-.52,1.05,1.05,0,0,0,.31,0c.33,0,.49-.11.69-.7l.15-.44a.5.5,0,0,1-.21-.05l-1.29-3.46a1.22,1.22,0,0,1,.35,0,1.14,1.14,0,0,1,.35,0l.78,2.06a6.13,6.13,0,0,1,.24.8h0s.07-.33.21-.8l.69-2.06a1.06,1.06,0,0,1,.33,0A1.14,1.14,0,0,1,306.09,37.59Z"/><path class="cls-2" d="M41,49.14l-1-3.46a1.27,1.27,0,0,1,.34,0,.75.75,0,0,1,.3,0l.63,2.08a4,4,0,0,1,.14.74h0a4.59,4.59,0,0,1,.16-.74l.61-2.08a1.77,1.77,0,0,1,.36,0,1.18,1.18,0,0,1,.34,0l.6,2.07a3.49,3.49,0,0,1,.14.75h0a7.19,7.19,0,0,1,.17-.74l.62-2.08a1,1,0,0,1,.3,0,.82.82,0,0,1,.3,0l-1,3.46a1.92,1.92,0,0,1-.38,0,2.11,2.11,0,0,1-.38,0l-.53-1.81a3.58,3.58,0,0,1-.19-1h0a5.33,5.33,0,0,1-.2,1l-.54,1.81a2,2,0,0,1-.38,0A2.13,2.13,0,0,1,41,49.14Z"/><path class="cls-2" d="M46.93,49a.59.59,0,0,1,.17-.48,2.93,2.93,0,0,0,.93.16c.44,0,.69-.15.69-.5s-.38-.45-.79-.57-1-.34-1-1,.41-1.06,1.27-1.06a2.3,2.3,0,0,1,1,.18.65.65,0,0,1-.17.47,2.68,2.68,0,0,0-.73-.11c-.47,0-.7.17-.7.49s.42.42.84.55.92.35.92,1-.41,1.08-1.3,1.08A2.77,2.77,0,0,1,46.93,49Z"/><path class="cls-2" d="M52.06,49a.83.83,0,0,1,0,.24,2.25,2.25,0,0,1-.52.06c-.84,0-1.14-.44-1.14-1.29V46.14h-.51a.67.67,0,0,1,0-.25.61.61,0,0,1,0-.25h.51V45a1.13,1.13,0,0,1,.67-.13v.78h.88a.61.61,0,0,1,0,.25.73.73,0,0,1,0,.25H51v1.79c0,.59.18.78.66.78a2,2,0,0,0,.31,0A.71.71,0,0,1,52.06,49Z"/><path class="cls-2" d="M52.53,47.41c0-1.34.57-1.84,1.5-1.84s1.5.5,1.5,1.84S55,49.25,54,49.25,52.53,48.75,52.53,47.41Zm2.31,0c0-1-.31-1.32-.81-1.32s-.81.29-.81,1.32.31,1.32.81,1.32S54.84,48.44,54.84,47.41Z"/><path class="cls-2" d="M59.29,47.41c0,1.38-.51,1.84-1.28,1.84a1.11,1.11,0,0,1-1-.46v1.93a1.06,1.06,0,0,1-.33,0,1.1,1.1,0,0,1-.34,0v-5a1.1,1.1,0,0,1,.34,0,1.06,1.06,0,0,1,.33,0V46a1.08,1.08,0,0,1,1-.46C58.77,45.57,59.29,46,59.29,47.41Zm-.71,0c0-1-.26-1.3-.81-1.3A.79.79,0,0,0,57,47v.87a.81.81,0,0,0,.75.88C58.32,48.71,58.58,48.41,58.58,47.41Z"/><path class="cls-2" d="M60.11,49.14V45.68a1.1,1.1,0,0,1,.34,0,1.06,1.06,0,0,1,.33,0V46a1.35,1.35,0,0,1,1-.46.94.94,0,0,1,1,1v2.56a1.18,1.18,0,0,1-.34,0,1.06,1.06,0,0,1-.33,0V46.71c0-.39-.2-.6-.63-.6a1,1,0,0,0-.78.47v2.56a1.06,1.06,0,0,1-.33,0A1.1,1.1,0,0,1,60.11,49.14Z"/><path class="cls-2" d="M63.79,44.9v-.6a1.64,1.64,0,0,1,.72,0v.6a1.64,1.64,0,0,1-.72,0Zm0,4.24V45.68a1,1,0,0,1,.34,0,1.18,1.18,0,0,1,.34,0v3.46a1.18,1.18,0,0,1-.34,0A1.1,1.1,0,0,1,63.81,49.14Z"/><path class="cls-2" d="M68,46.89v2.25a.75.75,0,0,1-.28,0,.79.79,0,0,1-.27,0l-.1-.45a1.07,1.07,0,0,1-1.06.56,1,1,0,0,1-1-1.11c0-.73.44-1.06,1.3-1.06a7.52,7.52,0,0,1,.78,0v-.27c0-.48-.21-.72-.72-.72a2.77,2.77,0,0,0-.9.17.7.7,0,0,1-.15-.21.57.57,0,0,1,0-.28,3.13,3.13,0,0,1,1.19-.24C67.69,45.57,68,46,68,46.89Zm-.67.93v-.25a6.12,6.12,0,0,0-.69,0c-.47,0-.71.17-.71.62a.53.53,0,0,0,.59.61A.84.84,0,0,0,67.33,47.82Z"/><path class="cls-2" d="M68.79,47.41c0-1.21.51-1.84,1.49-1.84a1.93,1.93,0,0,1,.91.17.71.71,0,0,1-.21.49,1.38,1.38,0,0,0-.57-.11c-.65,0-.92.41-.92,1.29s.29,1.27.94,1.27a1.56,1.56,0,0,0,.62-.12.64.64,0,0,1,.2.47,1.77,1.77,0,0,1-1,.22C69.3,49.25,68.79,48.62,68.79,47.41Z"/><path class="cls-2" d="M74.7,46.58v2.56a1.14,1.14,0,0,1-.33,0,1.1,1.1,0,0,1-.34,0V46.71c0-.39-.2-.6-.63-.6a1,1,0,0,0-.78.47v2.56a1.06,1.06,0,0,1-.33,0,1.1,1.1,0,0,1-.34,0v-5a1.1,1.1,0,0,1,.34,0,1.06,1.06,0,0,1,.33,0V46a1.38,1.38,0,0,1,1-.44A.94.94,0,0,1,74.7,46.58Z"/><path class="cls-2" d="M76.94,49a.57.57,0,0,1,.18-.48,2.82,2.82,0,0,0,.92.16c.44,0,.7-.15.7-.5s-.39-.45-.8-.57-1-.34-1-1,.41-1.06,1.27-1.06a2.3,2.3,0,0,1,1,.18.65.65,0,0,1-.17.47,2.61,2.61,0,0,0-.73-.11c-.47,0-.7.17-.7.49s.42.42.84.55.93.35.93,1-.42,1.08-1.31,1.08A2.81,2.81,0,0,1,76.94,49Z"/><path class="cls-2" d="M82.07,49a.83.83,0,0,1,0,.24,2.25,2.25,0,0,1-.52.06c-.84,0-1.14-.44-1.14-1.29V46.14h-.51a.67.67,0,0,1,0-.25.61.61,0,0,1,0-.25h.51V45a1.13,1.13,0,0,1,.67-.13v.78h.89a.79.79,0,0,1,0,.25,1,1,0,0,1,0,.25h-.89v1.79c0,.59.19.78.66.78a2,2,0,0,0,.31,0A.71.71,0,0,1,82.07,49Z"/><path class="cls-2" d="M82.54,47.41c0-1.34.58-1.84,1.51-1.84s1.5.5,1.5,1.84-.58,1.84-1.5,1.84S82.54,48.75,82.54,47.41Zm2.31,0c0-1-.31-1.32-.8-1.32s-.81.29-.81,1.32.31,1.32.81,1.32S84.85,48.44,84.85,47.41Z"/><path class="cls-2" d="M86.36,49.14V45.68a1.1,1.1,0,0,1,.34,0,1.18,1.18,0,0,1,.34,0V46a1.23,1.23,0,0,1,1-.45.88.88,0,0,1,.88.52A1.35,1.35,0,0,1,90,45.57a.92.92,0,0,1,1,1v2.56a1.27,1.27,0,0,1-.34,0,1.1,1.1,0,0,1-.34,0V46.71c0-.39-.18-.6-.58-.6a.85.85,0,0,0-.73.47v2.56a1.18,1.18,0,0,1-.34,0,1.06,1.06,0,0,1-.33,0V46.71c0-.39-.18-.6-.58-.6a.87.87,0,0,0-.73.47v2.56a1.27,1.27,0,0,1-.34,0A1.1,1.1,0,0,1,86.36,49.14Z"/><path class="cls-2" d="M94.48,46.89v2.25a.72.72,0,0,1-.27,0,.82.82,0,0,1-.28,0l-.09-.45a1.09,1.09,0,0,1-1.07.56,1,1,0,0,1-1-1.11c0-.73.44-1.06,1.3-1.06a7.21,7.21,0,0,1,.78,0v-.27c0-.48-.21-.72-.71-.72a2.69,2.69,0,0,0-.9.17.45.45,0,0,1-.15-.21.64.64,0,0,1,0-.28,3.13,3.13,0,0,1,1.19-.24C94.17,45.57,94.48,46,94.48,46.89Zm-.67.93v-.25a6,6,0,0,0-.69,0c-.47,0-.7.17-.7.62s.22.61.58.61A.84.84,0,0,0,93.81,47.82Z"/><path class="cls-2" d="M97.34,49a.83.83,0,0,1,0,.24,2.25,2.25,0,0,1-.52.06c-.84,0-1.14-.44-1.14-1.29V46.14h-.51a.67.67,0,0,1,0-.25.61.61,0,0,1,0-.25h.51V45a1.13,1.13,0,0,1,.67-.13v.78h.89a.79.79,0,0,1,0,.25,1,1,0,0,1,0,.25h-.89v1.79c0,.59.19.78.66.78a2,2,0,0,0,.31,0A.71.71,0,0,1,97.34,49Z"/><path class="cls-2" d="M97.81,47.41c0-1.34.57-1.84,1.5-1.84s1.5.5,1.5,1.84-.57,1.84-1.5,1.84S97.81,48.75,97.81,47.41Zm2.31,0c0-1-.31-1.32-.81-1.32s-.8.29-.8,1.32.31,1.32.8,1.32S100.12,48.44,100.12,47.41Z"/><path class="cls-2" d="M104.57,47.41c0,1.38-.51,1.84-1.28,1.84a1.11,1.11,0,0,1-1-.46v1.93a1.06,1.06,0,0,1-.33,0,1.18,1.18,0,0,1-.34,0v-5a1.18,1.18,0,0,1,.34,0,1.06,1.06,0,0,1,.33,0V46a1.08,1.08,0,0,1,1-.46C104.05,45.57,104.57,46,104.57,47.41Zm-.71,0c0-1-.26-1.3-.81-1.3a.79.79,0,0,0-.75.85v.87a.81.81,0,0,0,.75.88C103.6,48.71,103.86,48.41,103.86,47.41Z"/><path class="cls-2" d="M107.93,46.89v2.25a.82.82,0,0,1-.28,0,.79.79,0,0,1-.27,0l-.1-.45a1.08,1.08,0,0,1-1.06.56,1,1,0,0,1-1-1.11c0-.73.44-1.06,1.3-1.06a7.21,7.21,0,0,1,.78,0v-.27c0-.48-.2-.72-.71-.72a2.69,2.69,0,0,0-.9.17.55.55,0,0,1-.15-.21.64.64,0,0,1,0-.28,3.13,3.13,0,0,1,1.19-.24C107.62,45.57,107.93,46,107.93,46.89Zm-.68.93v-.25a5.92,5.92,0,0,0-.68,0c-.47,0-.71.17-.71.62a.53.53,0,0,0,.59.61A.84.84,0,0,0,107.25,47.82Z"/><path class="cls-2" d="M110.78,49a.83.83,0,0,1,0,.24,2.18,2.18,0,0,1-.52.06c-.83,0-1.14-.44-1.14-1.29V46.14h-.51a.67.67,0,0,1,0-.25.61.61,0,0,1,0-.25h.51V45a1.16,1.16,0,0,1,.68-.13v.78h.88a.79.79,0,0,1,0,.25,1,1,0,0,1,0,.25h-.88v1.79c0,.59.18.78.65.78a2,2,0,0,0,.31,0A.71.71,0,0,1,110.78,49Z"/><path class="cls-2" d="M111.39,44.9v-.6a1.26,1.26,0,0,1,.36,0,1.34,1.34,0,0,1,.36,0v.6a1.34,1.34,0,0,1-.36,0A1.26,1.26,0,0,1,111.39,44.9Zm0,4.24V45.68a1,1,0,0,1,.34,0,1.06,1.06,0,0,1,.33,0v3.46a1.06,1.06,0,0,1-.33,0A1.1,1.1,0,0,1,111.41,49.14Z"/><path class="cls-2" d="M113.05,44.9v-.6a1.26,1.26,0,0,1,.36,0,1.38,1.38,0,0,1,.37,0v.6a1.38,1.38,0,0,1-.37,0A1.26,1.26,0,0,1,113.05,44.9Zm0,4.24V45.68a1,1,0,0,1,.33,0,1.18,1.18,0,0,1,.34,0v3.46a1.18,1.18,0,0,1-.34,0A1,1,0,0,1,113.08,49.14Z"/><path class="cls-2" d="M119.16,47.41c0,1.38-.5,1.84-1.28,1.84a1.08,1.08,0,0,1-1-.46v1.93a1.1,1.1,0,0,1-.34,0,1.06,1.06,0,0,1-.33,0v-5a1.06,1.06,0,0,1,.33,0,1.1,1.1,0,0,1,.34,0V46a1.06,1.06,0,0,1,1-.46C118.65,45.57,119.16,46,119.16,47.41Zm-.71,0c0-1-.25-1.3-.8-1.3a.79.79,0,0,0-.75.85v.87a.8.8,0,0,0,.75.88C118.2,48.71,118.45,48.41,118.45,47.41Z"/><path class="cls-2" d="M120,49.14V45.68a1,1,0,0,1,.33,0,.88.88,0,0,1,.32,0v.48a1,1,0,0,1,.86-.58,1.08,1.08,0,0,1,.58.16.79.79,0,0,1-.29.56.7.7,0,0,0-.42-.13.91.91,0,0,0-.72.54v2.43a1.18,1.18,0,0,1-.34,0A1,1,0,0,1,120,49.14Z"/><path class="cls-2" d="M122.51,47.41c0-1.34.57-1.84,1.5-1.84s1.5.5,1.5,1.84-.57,1.84-1.5,1.84S122.51,48.75,122.51,47.41Zm2.31,0c0-1-.31-1.32-.81-1.32s-.81.29-.81,1.32.31,1.32.81,1.32S124.82,48.44,124.82,47.41Z"/><path class="cls-2" d="M128.25,49a.64.64,0,0,1,0,.24,2.09,2.09,0,0,1-.51.06c-.84,0-1.14-.44-1.14-1.29V46.14h-.51a.67.67,0,0,1,0-.25.61.61,0,0,1,0-.25h.51V45a1.13,1.13,0,0,1,.67-.13v.78h.88a.61.61,0,0,1,0,.25.73.73,0,0,1,0,.25h-.88v1.79c0,.59.18.78.65.78a1.79,1.79,0,0,0,.31,0A.61.61,0,0,1,128.25,49Z"/><path class="cls-2" d="M131.43,47.61h-2c.05.81.36,1.07.93,1.07a1.57,1.57,0,0,0,.79-.2.64.64,0,0,1,.22.47,1.91,1.91,0,0,1-1.13.3c-1,0-1.51-.62-1.51-1.85s.6-1.83,1.49-1.83a1.19,1.19,0,0,1,1.31,1.34A2.8,2.8,0,0,1,131.43,47.61Zm-2-.45h1.46a1.62,1.62,0,0,0,0-.33c0-.41-.18-.74-.67-.74S129.46,46.39,129.4,47.16Z"/><path class="cls-2" d="M134.21,49a.83.83,0,0,1,0,.24,2.11,2.11,0,0,1-.52.06c-.83,0-1.13-.44-1.13-1.29V46.14H132a.67.67,0,0,1,0-.25.61.61,0,0,1,0-.25h.52V45a1.11,1.11,0,0,1,.67-.13v.78h.88a.79.79,0,0,1,0,.25,1,1,0,0,1,0,.25h-.88v1.79c0,.59.18.78.65.78a1.79,1.79,0,0,0,.31,0A.71.71,0,0,1,134.21,49Z"/><path class="cls-2" d="M137.78,45.68l-1.33,4.06c-.23.71-.48,1.13-1.18,1.13a1.52,1.52,0,0,1-.45-.07.73.73,0,0,1,0-.25.54.54,0,0,1,.06-.26,1.66,1.66,0,0,0,.31,0c.32,0,.49-.11.68-.69l.15-.45a.78.78,0,0,1-.21,0l-1.28-3.46a1.55,1.55,0,0,1,.7,0l.78,2.06a6.58,6.58,0,0,1,.23.79h0s.07-.33.22-.79l.68-2.06a1.06,1.06,0,0,1,.33,0A1.14,1.14,0,0,1,137.78,45.68Z"/><path class="cls-2" d="M138.26,47.41c0-1.21.51-1.84,1.49-1.84a1.86,1.86,0,0,1,.9.17.66.66,0,0,1-.2.49,1.4,1.4,0,0,0-.58-.11c-.64,0-.91.41-.91,1.29s.29,1.27.94,1.27a1.56,1.56,0,0,0,.62-.12.68.68,0,0,1,.2.47,1.77,1.77,0,0,1-1,.22C138.77,49.25,138.26,48.62,138.26,47.41Z"/><path class="cls-2" d="M143.79,48.91a.79.79,0,0,1,0,.27h-2.52a.78.78,0,0,1,0-.29.87.87,0,0,1,0-.25l1.8-2.46h-1.69a.87.87,0,0,1,0-.27.72.72,0,0,1,0-.27h2.4a.76.76,0,0,1,0,.25,1.06,1.06,0,0,1,0,.29l-1.8,2.46h1.81A.72.72,0,0,1,143.79,48.91Z"/><path class="cls-2" d="M144.56,49.14V45.68a1.1,1.1,0,0,1,.34,0,1.06,1.06,0,0,1,.33,0V46a1.37,1.37,0,0,1,1.05-.46.94.94,0,0,1,1,1v2.56a1.14,1.14,0,0,1-.33,0,1.1,1.1,0,0,1-.34,0V46.71a.54.54,0,0,0-.62-.6,1,1,0,0,0-.79.47v2.56a1.06,1.06,0,0,1-.33,0A1.1,1.1,0,0,1,144.56,49.14Z"/><path class="cls-2" d="M150.82,47.61h-2c0,.81.36,1.07.93,1.07a1.57,1.57,0,0,0,.79-.2.64.64,0,0,1,.22.47,1.91,1.91,0,0,1-1.13.3c-1,0-1.5-.62-1.5-1.85s.59-1.83,1.48-1.83a1.19,1.19,0,0,1,1.31,1.34A2.8,2.8,0,0,1,150.82,47.61Zm-2-.45h1.46a1.62,1.62,0,0,0,0-.33c0-.41-.18-.74-.67-.74S148.85,46.39,148.79,47.16Z"/><path class="cls-2" d="M150.9,50.79a.43.43,0,0,1,0-.15.67.67,0,0,1,.08-.35,1.05,1.05,0,0,0,.25,0c.33,0,.51-.17.51-.58V45.68a1,1,0,0,1,.33,0,1.18,1.18,0,0,1,.34,0v4.09c0,.73-.35,1.1-1,1.1A1.22,1.22,0,0,1,150.9,50.79Zm.78-5.89v-.61a1.26,1.26,0,0,1,.36,0,1.22,1.22,0,0,1,.35,0v.61a1.22,1.22,0,0,1-.35,0A1.26,1.26,0,0,1,151.68,44.9Z"/><polyline class="cls-3" points="18.5 11.69 32.06 31.76 18.5 51.91"/></svg>