<svg id="Warstwa_1" data-name="Warstwa 1" xmlns="http://www.w3.org/2000/svg" viewBox="0 0 550 60"><defs><style>.cls-1{fill:#005ca5;}.cls-2{fill:none;stroke:#cbd413;stroke-miterlimit:10;stroke-width:1.85px;}</style></defs><title>kompleksowa_opieka</title><path class="cls-1" d="M115.05,40.67a5.44,5.44,0,0,1-1.52.18,5.24,5.24,0,0,1-1.49-.18l-5.67-8.25h-1.9v8.25a3.61,3.61,0,0,1-1.32.18,4.18,4.18,0,0,1-1.32-.18V22.8a4.27,4.27,0,0,1,1.35-.18,3.86,3.86,0,0,1,1.29.18v7.54h1.87l5.24-7.54a4.35,4.35,0,0,1,1.32-.18,5.21,5.21,0,0,1,1.41.18l-5.72,8.32Z"/><path class="cls-1" d="M116.32,34.16c0-5,2.17-6.91,5.67-6.91s5.64,1.9,5.64,6.91S125.48,41.1,122,41.1,116.32,39.2,116.32,34.16Zm8.71,0c0-3.87-1.17-5-3-5s-3,1.09-3,5,1.16,5,3,5S125,38,125,34.16Z"/><path class="cls-1" d="M130.45,40.69v-13a3.74,3.74,0,0,1,1.26-.16,4,4,0,0,1,1.27.16V29a4.76,4.76,0,0,1,3.74-1.7,3.29,3.29,0,0,1,3.29,2,5.07,5.07,0,0,1,4.18-2,3.47,3.47,0,0,1,3.72,3.82v9.62a4.11,4.11,0,0,1-1.26.16,3.77,3.77,0,0,1-1.27-.16V31.56c0-1.5-.68-2.26-2.18-2.26a3.16,3.16,0,0,0-2.76,1.77v9.62a4.11,4.11,0,0,1-1.26.16,3.84,3.84,0,0,1-1.27-.16V31.56c0-1.5-.68-2.26-2.17-2.26A3.29,3.29,0,0,0,133,31.05v9.64a4.23,4.23,0,0,1-1.27.16A3.74,3.74,0,0,1,130.45,40.69Z"/><path class="cls-1" d="M162.22,34.16c0,5.19-1.9,6.94-4.81,6.94a4.06,4.06,0,0,1-3.7-1.75v7.27a5.41,5.41,0,0,1-2.53,0v-19a5.08,5.08,0,0,1,2.53,0V29a4.06,4.06,0,0,1,3.7-1.72C160.29,27.25,162.22,29,162.22,34.16Zm-2.66,0c0-3.72-1-4.86-3-4.86-1.77,0-2.78,1.5-2.81,3.19v3.27c0,1.67,1,3.29,2.81,3.29C158.6,39.05,159.56,37.93,159.56,34.16Z"/><path class="cls-1" d="M165.16,40.69V22a3.82,3.82,0,0,1,1.26-.15,4.24,4.24,0,0,1,1.27.15V40.69a4,4,0,0,1-1.27.16A3.6,3.6,0,0,1,165.16,40.69Z"/><path class="cls-1" d="M180.8,35h-7.62c.21,3,1.37,4,3.52,4a5.8,5.8,0,0,0,3-.76,2.6,2.6,0,0,1,.84,1.8,7.31,7.31,0,0,1-4.25,1.11c-3.8,0-5.67-2.33-5.67-7,0-4.79,2.22-6.89,5.59-6.89,3.17,0,4.91,1.77,4.91,5A11.56,11.56,0,0,1,180.8,35Zm-7.64-1.72h5.49a8.29,8.29,0,0,0,.08-1.22c0-1.54-.69-2.81-2.53-2.81C174.53,29.2,173.36,30.34,173.16,33.23Z"/><path class="cls-1" d="M194.5,40.67a5.08,5.08,0,0,1-1.42.18,4.73,4.73,0,0,1-1.39-.18l-3.77-5.82h-1.6v5.84a3.89,3.89,0,0,1-1.24.16,4.46,4.46,0,0,1-1.29-.16V22a5.74,5.74,0,0,1,1.29-.13,5.42,5.42,0,0,1,1.24.13V32.92H188l3.37-5.26a4.29,4.29,0,0,1,1.31-.16,4.65,4.65,0,0,1,1.27.16l-3.82,6.05Z"/><path class="cls-1" d="M195.59,40.19a2.26,2.26,0,0,1,.66-1.8,10.73,10.73,0,0,0,3.47.61c1.67,0,2.63-.58,2.63-1.88s-1.47-1.69-3-2.15c-1.72-.5-3.57-1.29-3.57-3.74s1.55-4,4.76-4a8.21,8.21,0,0,1,3.65.69,2.37,2.37,0,0,1-.63,1.77,9,9,0,0,0-2.74-.43c-1.77,0-2.63.66-2.63,1.84s1.57,1.57,3.14,2.08,3.49,1.32,3.49,3.85-1.57,4.05-4.91,4.05A10.4,10.4,0,0,1,195.59,40.19Z"/><path class="cls-1" d="M206.86,34.16c0-5,2.18-6.91,5.67-6.91s5.64,1.9,5.64,6.91S216,41.1,212.53,41.1,206.86,39.2,206.86,34.16Zm8.71,0c0-3.87-1.17-5-3-5s-3,1.09-3,5,1.17,5,3,5S215.57,38,215.57,34.16Z"/><path class="cls-1" d="M223.59,40.69l-3.82-13A4.23,4.23,0,0,1,221,27.5a2.51,2.51,0,0,1,1.11.16l2.38,7.84a15.42,15.42,0,0,1,.53,2.76h.08a18.79,18.79,0,0,1,.58-2.76l2.33-7.84a5.9,5.9,0,0,1,1.34-.16,4,4,0,0,1,1.27.16l2.28,7.79a16.25,16.25,0,0,1,.53,2.81h.07a24.62,24.62,0,0,1,.61-2.78l2.36-7.82a3.32,3.32,0,0,1,1.13-.16,3,3,0,0,1,1.12.16l-3.82,13a6.51,6.51,0,0,1-2.87,0l-2-6.81a16.32,16.32,0,0,1-.71-3.82h-.07a17.65,17.65,0,0,1-.76,3.82l-2,6.81a7,7,0,0,1-1.42.16A7.68,7.68,0,0,1,223.59,40.69Z"/><path class="cls-1" d="M250.43,32.21v8.48a2.72,2.72,0,0,1-1,.16,2.82,2.82,0,0,1-1-.16L248,39c-.63,1.36-2.05,2.1-4,2.1-2.4,0-3.92-1.42-3.92-4.18s1.64-4,4.88-4a26.56,26.56,0,0,1,2.94.15v-1c0-1.8-.79-2.68-2.68-2.68a10.74,10.74,0,0,0-3.4.61,2,2,0,0,1-.55-.76,2.38,2.38,0,0,1-.18-1.07,11.68,11.68,0,0,1,4.48-.91C249.27,27.25,250.43,28.92,250.43,32.21Zm-2.53,3.5v-.94c-.58-.05-1.62-.15-2.58-.15-1.78,0-2.66.66-2.66,2.33s.83,2.3,2.2,2.3C246.81,39.25,247.9,37.66,247.9,35.71Z"/><path class="cls-1" d="M258.53,34.16c0-5,2.18-6.91,5.67-6.91s5.65,1.9,5.65,6.91-2.15,6.94-5.65,6.94S258.53,39.2,258.53,34.16Zm8.71,0c0-3.87-1.16-5-3-5s-3,1.09-3,5,1.16,5,3,5S267.24,38,267.24,34.16Z"/><path class="cls-1" d="M283.7,34.16c0,5.19-1.9,6.94-4.81,6.94a4,4,0,0,1-3.69-1.75v7.27a4.32,4.32,0,0,1-1.27.15,4.24,4.24,0,0,1-1.27-.15v-19a4,4,0,0,1,1.27-.16,4.07,4.07,0,0,1,1.27.16V29a4,4,0,0,1,3.69-1.72C281.78,27.25,283.7,29,283.7,34.16Zm-2.66,0c0-3.72-1-4.86-3-4.86-1.77,0-2.78,1.5-2.8,3.19v3.27c0,1.67,1,3.29,2.8,3.29C280.08,39.05,281,37.93,281,34.16Z"/><path class="cls-1" d="M286.51,24.75V22.47a4.5,4.5,0,0,1,1.34-.15,5.05,5.05,0,0,1,1.37.15v2.28a5.05,5.05,0,0,1-1.37.15A4.5,4.5,0,0,1,286.51,24.75Zm.08,15.94v-13a3.6,3.6,0,0,1,1.26-.16,4,4,0,0,1,1.27.16v13a4,4,0,0,1-1.27.16A3.74,3.74,0,0,1,286.59,40.69Z"/><path class="cls-1" d="M302.21,35h-7.62c.2,3,1.37,4,3.52,4a5.8,5.8,0,0,0,3-.76,2.64,2.64,0,0,1,.84,1.8,7.36,7.36,0,0,1-4.26,1.11c-3.79,0-5.67-2.33-5.67-7,0-4.79,2.23-6.89,5.6-6.89,3.16,0,4.91,1.77,4.91,5A11.56,11.56,0,0,1,302.21,35Zm-7.65-1.72h5.5a8.45,8.45,0,0,0,.07-1.22c0-1.54-.68-2.81-2.53-2.81C295.93,29.2,294.77,30.34,294.56,33.23Z"/><path class="cls-1" d="M315.91,40.67a5.08,5.08,0,0,1-1.42.18,4.73,4.73,0,0,1-1.39-.18l-3.78-5.82h-1.59v5.84a3.89,3.89,0,0,1-1.24.16,4.46,4.46,0,0,1-1.29-.16V22a5.63,5.63,0,0,1,1.29-.13,5.53,5.53,0,0,1,1.24.13V32.92h1.64l3.37-5.26a4.41,4.41,0,0,1,1.32-.16,4.53,4.53,0,0,1,1.26.16l-3.82,6.05Z"/><path class="cls-1" d="M327.3,32.21v8.48a2.72,2.72,0,0,1-1,.16,2.91,2.91,0,0,1-1-.16L324.87,39c-.63,1.36-2.05,2.1-4,2.1-2.41,0-3.92-1.42-3.92-4.18s1.64-4,4.88-4a26.56,26.56,0,0,1,2.94.15v-1c0-1.8-.79-2.68-2.68-2.68a10.74,10.74,0,0,0-3.4.61,2,2,0,0,1-.55-.76,2.38,2.38,0,0,1-.18-1.07,11.68,11.68,0,0,1,4.48-.91C326.14,27.25,327.3,28.92,327.3,32.21Zm-2.53,3.5v-.94c-.58-.05-1.62-.15-2.58-.15-1.78,0-2.66.66-2.66,2.33s.83,2.3,2.2,2.3C323.68,39.25,324.77,37.66,324.77,35.71Z"/><path class="cls-1" d="M347,34.16c0,5.19-1.9,6.94-4.81,6.94a4.06,4.06,0,0,1-3.7-1.75v7.27a5.41,5.41,0,0,1-2.53,0v-19a5.08,5.08,0,0,1,2.53,0V29a4.06,4.06,0,0,1,3.7-1.72C345.07,27.25,347,29,347,34.16Zm-2.66,0c0-3.72-1-4.86-3-4.86-1.77,0-2.78,1.5-2.81,3.19v3.27c0,1.67,1,3.29,2.81,3.29C343.38,39.05,344.34,37.93,344.34,34.16Z"/><path class="cls-1" d="M349.28,34.16c0-5,2.17-6.91,5.67-6.91s5.64,1.9,5.64,6.91S358.44,41.1,355,41.1,349.28,39.2,349.28,34.16Zm8.71,0c0-3.87-1.17-5-3-5s-3,1.09-3,5,1.17,5,3,5S358,38,358,34.16Z"/><path class="cls-1" d="M372.34,39.83a2.71,2.71,0,0,1-.17,1H362.7a3.37,3.37,0,0,1-.15-1.09,3.13,3.13,0,0,1,.15-1l6.76-9.23h-6.33a3.31,3.31,0,0,1-.15-1,2.89,2.89,0,0,1,.15-1h9a3,3,0,0,1,.15,1,4,4,0,0,1-.15,1.09l-6.76,9.23h6.79A2.64,2.64,0,0,1,372.34,39.83Z"/><path class="cls-1" d="M384.52,32.21v8.48a2.72,2.72,0,0,1-1,.16,2.82,2.82,0,0,1-1-.16L382.09,39c-.63,1.36-2,2.1-4,2.1-2.4,0-3.92-1.42-3.92-4.18s1.64-4,4.88-4a26.56,26.56,0,0,1,2.94.15v-1c0-1.8-.79-2.68-2.68-2.68a10.74,10.74,0,0,0-3.4.61,2,2,0,0,1-.55-.76,2.38,2.38,0,0,1-.18-1.07,11.68,11.68,0,0,1,4.48-.91C383.36,27.25,384.52,28.92,384.52,32.21ZM382,35.71v-.94c-.58-.05-1.62-.15-2.58-.15-1.78,0-2.66.66-2.66,2.33s.83,2.3,2.2,2.3C380.9,39.25,382,37.66,382,35.71Z"/><path class="cls-1" d="M398.83,34.19c0,5.16-1.9,6.91-4.84,6.91a4.11,4.11,0,0,1-3.67-1.7v1.29a5.08,5.08,0,0,1-2.53,0V22a5.41,5.41,0,0,1,2.53,0v7A4.08,4.08,0,0,1,394,27.25C396.93,27.25,398.83,29,398.83,34.19Zm-2.66,0c0-3.72-1-4.89-3-4.89-1.8,0-2.78,1.52-2.81,3.22v3.26c0,1.72,1,3.27,2.81,3.27C395.21,39.05,396.17,37.88,396.17,34.19Z"/><path class="cls-1" d="M401.61,24.75V22.47a4.5,4.5,0,0,1,1.34-.15,5.05,5.05,0,0,1,1.37.15v2.28a5.05,5.05,0,0,1-1.37.15A4.5,4.5,0,0,1,401.61,24.75Zm.08,15.94v-13A3.6,3.6,0,0,1,403,27.5a4,4,0,0,1,1.27.16v13a4,4,0,0,1-1.27.16A3.74,3.74,0,0,1,401.69,40.69Z"/><path class="cls-1" d="M417.31,35h-7.62c.2,3,1.37,4,3.52,4a5.8,5.8,0,0,0,3-.76A2.64,2.64,0,0,1,417,40a7.36,7.36,0,0,1-4.26,1.11c-3.8,0-5.67-2.33-5.67-7,0-4.79,2.23-6.89,5.6-6.89,3.16,0,4.91,1.77,4.91,5A11.56,11.56,0,0,1,417.31,35Zm-7.65-1.72h5.5a8.45,8.45,0,0,0,.07-1.22c0-1.54-.68-2.81-2.53-2.81C411,29.2,409.87,30.34,409.66,33.23Z"/><path class="cls-1" d="M431.21,29.25l-2.08-.05a4.64,4.64,0,0,1,.69,2.58c0,2.81-1.72,4.53-5,4.53a8.06,8.06,0,0,1-1.13-.07,2.24,2.24,0,0,0-.54,1.54c.26,2.36,8.05-.17,8.05,5,0,2.48-2.35,4.35-6.55,4.35-3.77,0-5.44-1.46-5.44-3.54a4.32,4.32,0,0,1,2.22-3.52,2,2,0,0,1-.55-1.49,4.31,4.31,0,0,1,1.26-2.81,4.09,4.09,0,0,1-2.33-4c0-2.78,1.77-4.53,5-4.53a6.3,6.3,0,0,1,2.87.63l3.54-.6A3.09,3.09,0,0,1,431.21,29.25ZM422.8,40.82a3.12,3.12,0,0,0-1.19,2.3c0,1.35,1,2.26,3.07,2.26,2.63,0,4.07-.91,4.07-2.28C428.75,40.9,425.13,41.48,422.8,40.82Zm4.56-9.06c0-1.9-1-2.79-2.56-2.79s-2.55.89-2.55,2.79,1,2.83,2.55,2.83S427.36,33.71,427.36,31.76Z"/><path class="cls-1" d="M432.93,34.16c0-5,2.18-6.91,5.67-6.91s5.65,1.9,5.65,6.91-2.15,6.94-5.65,6.94S432.93,39.2,432.93,34.16Zm8.71,0c0-3.87-1.16-5-3-5s-3,1.09-3,5,1.16,5,3,5S441.64,38,441.64,34.16Z"/><path class="cls-1" d="M449.67,40.69l-3.82-13a4.11,4.11,0,0,1,1.26-.16,2.46,2.46,0,0,1,1.11.16l2.39,7.84a15.42,15.42,0,0,1,.53,2.76h.07a20.24,20.24,0,0,1,.58-2.76l2.33-7.84a5.9,5.9,0,0,1,1.34-.16,4,4,0,0,1,1.27.16L459,35.45a16.25,16.25,0,0,1,.53,2.81h.08a22,22,0,0,1,.6-2.78l2.36-7.82a3.35,3.35,0,0,1,1.14-.16,2.92,2.92,0,0,1,1.11.16l-3.82,13a7.35,7.35,0,0,1-1.44.16,7.14,7.14,0,0,1-1.42-.16l-2-6.81a16.32,16.32,0,0,1-.71-3.82h-.07a16.47,16.47,0,0,1-.76,3.82l-2,6.81a6.94,6.94,0,0,1-1.41.16A7.5,7.5,0,0,1,449.67,40.69Z"/><path class="cls-1" d="M476.51,32.21v8.48a2.78,2.78,0,0,1-1,.16,2.91,2.91,0,0,1-1-.16L474.07,39c-.63,1.36-2,2.1-4,2.1-2.41,0-3.93-1.42-3.93-4.18s1.65-4,4.89-4a26.21,26.21,0,0,1,2.93.15v-1c0-1.8-.78-2.68-2.68-2.68a10.64,10.64,0,0,0-3.39.61,1.82,1.82,0,0,1-.56-.76,2.38,2.38,0,0,1-.18-1.07,11.68,11.68,0,0,1,4.48-.91C475.34,27.25,476.51,28.92,476.51,32.21ZM474,35.71v-.94c-.58-.05-1.62-.15-2.58-.15-1.77,0-2.66.66-2.66,2.33s.84,2.3,2.21,2.3C472.88,39.25,474,37.66,474,35.71Z"/><polyline class="cls-2" points="72.02 8.1 86.62 29.71 72.02 51.4"/></svg>