<svg id="Warstwa_1" data-name="Warstwa 1" xmlns="http://www.w3.org/2000/svg" xmlns:xlink="http://www.w3.org/1999/xlink" viewBox="0 0 300 50"><defs><style>.cls-1{fill:none;}.cls-2{fill:#868686;}.cls-3{clip-path:url(#clip-path);}.cls-4{fill:#1d1d1b;}.cls-5{fill:#6f6f6e;}.cls-6{fill:#fff;}</style><clipPath id="clip-path"><rect class="cls-1" x="123.02" y="19.5" width="53.95" height="10.99"/></clipPath></defs><title>logo_PF</title><polygon class="cls-2" points="176.97 29.05 176.97 24.13 152.35 24.13 152.35 29.05 123.05 29.05 123.05 29.97 176.98 29.97 176.98 29.05 176.97 29.05"/><g class="cls-3"><path class="cls-4" d="M126.26,19.5a2.67,2.67,0,0,1,1.47.33,1,1,0,0,1,.5.9,1,1,0,0,1-.5.91,2.67,2.67,0,0,1-1.47.32h-2v1.7h-.86V19.5Zm-.29,2A2.15,2.15,0,0,0,127,21.3a.66.66,0,0,0,0-1.14A2.27,2.27,0,0,0,126,20h-1.68v1.52Z"/><path class="cls-4" d="M129.11,19.5h.76v.61h-.76Zm.76,4.16h-.76v-3h.76Z"/><path class="cls-4" d="M134.81,23.47a3,3,0,0,1-1.31.25,3.87,3.87,0,0,1-1-.11,2,2,0,0,1-.69-.33,1.33,1.33,0,0,1-.42-.5,1.51,1.51,0,0,1-.16-.63,1.23,1.23,0,0,1,.16-.63,1.56,1.56,0,0,1,.46-.5,2,2,0,0,1,.69-.32,3.07,3.07,0,0,1,.88-.12,2.73,2.73,0,0,1,1,.17,1.79,1.79,0,0,1,.66.42,1.27,1.27,0,0,1,.34.56,1.46,1.46,0,0,1,.08.57h-3.49a1,1,0,0,0,.07.38.79.79,0,0,0,.27.31,1.31,1.31,0,0,0,.46.22,2.46,2.46,0,0,0,.65.08,2,2,0,0,0,.8-.14.73.73,0,0,0,.41-.45h.76a1.23,1.23,0,0,1-.68.77m-.18-1.94a1,1,0,0,0-.28-.27,2,2,0,0,0-.42-.18,2.12,2.12,0,0,0-.52-.06,2.23,2.23,0,0,0-.54.06,1.42,1.42,0,0,0-.41.19.87.87,0,0,0-.27.27.66.66,0,0,0-.12.33h2.68a.73.73,0,0,0-.12-.34"/><path class="cls-4" d="M137.68,20.65v.63h0a1.7,1.7,0,0,1,.68-.54,2.59,2.59,0,0,1,1-.16v.52a2.88,2.88,0,0,0-.78.09,1.44,1.44,0,0,0-.53.23,1,1,0,0,0-.28.39,1.33,1.33,0,0,0-.09.51v1.34H137v-3Z"/><path class="cls-4" d="M141.31,20.65v.63h0a1.81,1.81,0,0,1,.69-.54,2.54,2.54,0,0,1,1-.16v.52a3,3,0,0,0-.78.09,1.32,1.32,0,0,0-.52.23,1,1,0,0,0-.29.39,1.33,1.33,0,0,0-.09.51v1.34h-.77v-3Z"/><path class="cls-4" d="M147.39,23.47a3,3,0,0,1-1.31.25,3.87,3.87,0,0,1-1-.11,2,2,0,0,1-.69-.33,1.33,1.33,0,0,1-.42-.5,1.51,1.51,0,0,1-.16-.63,1.23,1.23,0,0,1,.16-.63,1.56,1.56,0,0,1,.46-.5,2,2,0,0,1,.69-.32,3.07,3.07,0,0,1,.88-.12,2.73,2.73,0,0,1,1,.17,1.79,1.79,0,0,1,.66.42,1.27,1.27,0,0,1,.34.56,1.46,1.46,0,0,1,.08.57h-3.49a.83.83,0,0,0,.07.38A.85.85,0,0,0,145,23a1.41,1.41,0,0,0,.46.22,2.59,2.59,0,0,0,.66.08,2,2,0,0,0,.8-.14.73.73,0,0,0,.41-.45h.76a1.23,1.23,0,0,1-.68.77m-.18-1.94a1.2,1.2,0,0,0-.28-.27,2,2,0,0,0-.42-.18A2.12,2.12,0,0,0,146,21a2.23,2.23,0,0,0-.54.06,1.42,1.42,0,0,0-.41.19.77.77,0,0,0-.27.27.66.66,0,0,0-.12.33h2.68a.73.73,0,0,0-.12-.34"/><polygon class="cls-4" points="156.88 19.5 156.88 19.97 153.5 19.97 153.5 21.29 156.46 21.29 156.46 21.76 153.5 21.76 153.5 23.66 152.65 23.66 152.65 19.5 156.88 19.5"/><path class="cls-4" d="M161.28,23.72a.85.85,0,0,1-.48-.11.38.38,0,0,1-.17-.35,1.88,1.88,0,0,1-.74.35,3.27,3.27,0,0,1-.9.11,3.86,3.86,0,0,1-.6,0,1.76,1.76,0,0,1-.49-.15.87.87,0,0,1-.33-.26.62.62,0,0,1-.12-.39.59.59,0,0,1,.13-.41,1,1,0,0,1,.36-.27,1.73,1.73,0,0,1,.5-.15A5.81,5.81,0,0,1,159,22l.6-.06c.19,0,.36,0,.5-.06a1.2,1.2,0,0,0,.35-.11.24.24,0,0,0,.12-.21.4.4,0,0,0-.09-.27.76.76,0,0,0-.25-.15l-.33-.07h-.36a2.41,2.41,0,0,0-.82.12.5.5,0,0,0-.35.45h-.76a.73.73,0,0,1,.18-.47,1.1,1.1,0,0,1,.43-.32,3.27,3.27,0,0,1,.62-.17,5.74,5.74,0,0,1,.74-.05q.32,0,.63,0a2.31,2.31,0,0,1,.56.12,1.05,1.05,0,0,1,.41.25.61.61,0,0,1,.15.43V23a.79.79,0,0,0,0,.26c0,.05.09.08.21.08l.24,0v.39a1.63,1.63,0,0,1-.55.07m-1.08-1.51-.49.05-.51,0a2,2,0,0,0-.47.08.84.84,0,0,0-.34.17.35.35,0,0,0-.13.29.31.31,0,0,0,.07.21.69.69,0,0,0,.2.13,1.11,1.11,0,0,0,.29.08l.34,0a2.49,2.49,0,0,0,.65-.07,1.85,1.85,0,0,0,.44-.16.81.81,0,0,0,.25-.23.35.35,0,0,0,.08-.22V22.1a1.08,1.08,0,0,1-.38.11"/><path class="cls-4" d="M164.15,19.5v1.56h0a1.13,1.13,0,0,1,.6-.37,3.56,3.56,0,0,1,.89-.11,2.92,2.92,0,0,1,.94.13,2,2,0,0,1,.67.34,1.48,1.48,0,0,1,.4.51,1.39,1.39,0,0,1,.14.6,1.55,1.55,0,0,1-.13.61,1.45,1.45,0,0,1-.4.5,2,2,0,0,1-.67.33,3.23,3.23,0,0,1-.93.12l-.38,0a3.1,3.1,0,0,1-.42-.08,1.9,1.9,0,0,1-.4-.14,1.16,1.16,0,0,1-.31-.22h0v.4h-.77V19.5Zm2.75,2.22a.93.93,0,0,0-.26-.36,1.22,1.22,0,0,0-.45-.25,2.13,2.13,0,0,0-.65-.09,1.81,1.81,0,0,0-.65.1,1.29,1.29,0,0,0-.45.25,1,1,0,0,0-.24.37,1,1,0,0,0-.08.41,1.26,1.26,0,0,0,.08.43.83.83,0,0,0,.26.36,1.15,1.15,0,0,0,.45.25,2,2,0,0,0,.68.1,1.83,1.83,0,0,0,.66-.1,1.08,1.08,0,0,0,.43-.26.85.85,0,0,0,.23-.37,1.26,1.26,0,0,0,.08-.43,1,1,0,0,0-.09-.41"/><path class="cls-4" d="M170.11,20.65v.63h0a1.81,1.81,0,0,1,.69-.54,2.56,2.56,0,0,1,1-.16v.52a3,3,0,0,0-.79.09,1.39,1.39,0,0,0-.52.23,1,1,0,0,0-.29.39,1.33,1.33,0,0,0-.09.51v1.34h-.77v-3Z"/><path class="cls-4" d="M176.1,23.47a3,3,0,0,1-1.31.25,3.87,3.87,0,0,1-1-.11,2,2,0,0,1-.69-.33,1.33,1.33,0,0,1-.42-.5,1.51,1.51,0,0,1-.16-.63,1.23,1.23,0,0,1,.16-.63,1.56,1.56,0,0,1,.46-.5,2,2,0,0,1,.69-.32,3.07,3.07,0,0,1,.88-.12,2.73,2.73,0,0,1,1,.17,1.79,1.79,0,0,1,.66.42,1.27,1.27,0,0,1,.34.56,1.46,1.46,0,0,1,.08.57h-3.49a1,1,0,0,0,.07.38.85.85,0,0,0,.26.31,1.41,1.41,0,0,0,.46.22,2.59,2.59,0,0,0,.66.08,2,2,0,0,0,.8-.14.73.73,0,0,0,.41-.45h.76a1.23,1.23,0,0,1-.68.77m-.18-1.94a1,1,0,0,0-.28-.27,2,2,0,0,0-.42-.18,2.12,2.12,0,0,0-.52-.06,2.23,2.23,0,0,0-.54.06,1.42,1.42,0,0,0-.41.19.77.77,0,0,0-.27.27.66.66,0,0,0-.12.33H176a.73.73,0,0,0-.12-.34"/><path class="cls-5" d="M123.21,26.41a1.84,1.84,0,0,1,.53-.59,2.68,2.68,0,0,1,.85-.4,4.67,4.67,0,0,1,2.27,0,2.68,2.68,0,0,1,.85.4,1.84,1.84,0,0,1,.53.59,1.6,1.6,0,0,1,.19.74,1.49,1.49,0,0,1-.19.72,1.74,1.74,0,0,1-.53.59,2.91,2.91,0,0,1-.85.39,4.67,4.67,0,0,1-2.27,0,2.91,2.91,0,0,1-.85-.39,1.74,1.74,0,0,1-.53-.59,1.39,1.39,0,0,1-.19-.72,1.48,1.48,0,0,1,.19-.74m1.1,1.17a1,1,0,0,0,.26.38,1.23,1.23,0,0,0,.46.28,2.47,2.47,0,0,0,1.39,0,1.23,1.23,0,0,0,.46-.28,1,1,0,0,0,.26-.38,1.26,1.26,0,0,0,.08-.43,1.33,1.33,0,0,0-.08-.45,1,1,0,0,0-.26-.39,1.1,1.1,0,0,0-.46-.27A2.25,2.25,0,0,0,125,26a1.1,1.1,0,0,0-.46.27,1,1,0,0,0-.26.39,1.33,1.33,0,0,0-.08.45,1.26,1.26,0,0,0,.08.43"/><path class="cls-5" d="M133.91,25.36a2.71,2.71,0,0,1,.66.08,1.7,1.7,0,0,1,.51.21,1,1,0,0,1,.32.31.66.66,0,0,1,.12.38.76.76,0,0,1-.21.54,1.32,1.32,0,0,1-.66.35h0a1.38,1.38,0,0,1,.36.12,1,1,0,0,1,.24.19.69.69,0,0,1,.14.25,1.31,1.31,0,0,1,.06.27c0,.06,0,.12,0,.2l0,.23a.86.86,0,0,0,.06.23.46.46,0,0,0,.13.18h-1.21a.85.85,0,0,1-.12-.4c0-.16,0-.31-.07-.45a.6.6,0,0,0-.27-.41,1.29,1.29,0,0,0-.65-.13h-1.21v1.39h-1.21V25.36ZM133.48,27a1.28,1.28,0,0,0,.62-.12.41.41,0,0,0,.21-.39.41.41,0,0,0-.21-.38,1.43,1.43,0,0,0-.62-.11h-1.33v1Z"/><path class="cls-5" d="M140.93,25.36,143,28.91h-1.25l-.42-.79h-2.06l-.43.79h-1.21l2.08-3.55Zm.07,2.18-.69-1.3h0l-.72,1.3Z"/><polygon class="cls-5" points="146.37 25.36 146.37 28.25 149.05 28.25 149.05 28.91 145.16 28.91 145.16 25.36 146.37 25.36"/><path class="cls-6" d="M157.32,26.59a1.31,1.31,0,0,0-.27-.19,1.35,1.35,0,0,0-.37-.13,1.54,1.54,0,0,0-.43-.05,2,2,0,0,0-.69.1,1.36,1.36,0,0,0-.46.27,1.07,1.07,0,0,0-.26.39,1.42,1.42,0,0,0-.08.45,1.32,1.32,0,0,0,.08.44,1,1,0,0,0,.26.38,1.36,1.36,0,0,0,.46.27,2,2,0,0,0,.69.1,1.47,1.47,0,0,0,.87-.22.86.86,0,0,0,.38-.57h1.17a1.31,1.31,0,0,1-.24.6,1.59,1.59,0,0,1-.51.45,2.24,2.24,0,0,1-.74.29,3.84,3.84,0,0,1-.93.1,4.31,4.31,0,0,1-1.13-.14,2.47,2.47,0,0,1-.85-.39,1.71,1.71,0,0,1-.53-.58,1.45,1.45,0,0,1-.19-.73,1.42,1.42,0,0,1,.19-.73,1.77,1.77,0,0,1,.53-.6,2.47,2.47,0,0,1,.85-.39,4.25,4.25,0,0,1,2-.06,2.72,2.72,0,0,1,.73.24,1.76,1.76,0,0,1,.52.4,1,1,0,0,1,.26.55h-1.17a.55.55,0,0,0-.13-.25"/><path class="cls-6" d="M162.7,25.65l2.05,3.54H163.5l-.42-.79H161l-.44.79h-1.21l2.08-3.54Zm.07,2.17-.7-1.3h0l-.72,1.3Z"/><path class="cls-6" d="M168.65,25.65a2.76,2.76,0,0,1,.67.07,2,2,0,0,1,.51.21,1.06,1.06,0,0,1,.32.31.67.67,0,0,1,.11.38.85.85,0,0,1-.2.55,1.36,1.36,0,0,1-.67.34h0a1.46,1.46,0,0,1,.37.12,1,1,0,0,1,.24.2.84.84,0,0,1,.14.24,2.56,2.56,0,0,1,.05.27c0,.06,0,.13,0,.2a.85.85,0,0,0,0,.23.86.86,0,0,0,.06.23.57.57,0,0,0,.12.18h-1.2a.94.94,0,0,1-.13-.4,3.5,3.5,0,0,0-.07-.45.61.61,0,0,0-.26-.4,1.19,1.19,0,0,0-.65-.13H166.9v1.38h-1.21V25.65Zm-.43,1.6a1.3,1.3,0,0,0,.63-.12.43.43,0,0,0,.2-.39.4.4,0,0,0-.2-.37,1.3,1.3,0,0,0-.63-.12H166.9v1Z"/><polygon class="cls-6" points="175.82 25.65 175.82 26.3 172.92 26.3 172.92 27.06 175.58 27.06 175.58 27.67 172.92 27.67 172.92 28.54 175.88 28.54 175.88 29.19 171.71 29.19 171.71 25.65 175.82 25.65"/></g></svg>