<svg id="Warstwa_1" data-name="Warstwa 1" xmlns="http://www.w3.org/2000/svg" xmlns:xlink="http://www.w3.org/1999/xlink" viewBox="0 0 300 50"><defs><style>.cls-1,.cls-4{fill:none;}.cls-2{clip-path:url(#clip-path);}.cls-3{fill:url(#Gradient_bez_nazwy_2);}.cls-4{stroke:#fff;stroke-miterlimit:10;}.cls-5{fill:#0056a3;}</style><clipPath id="clip-path"><polygon class="cls-1" points="20 40.32 203.06 40.32 203.06 10.41 20 10.41 20 19.57 23.98 25.71 20 31.74 20 40.32"/></clipPath><linearGradient id="Gradient_bez_nazwy_2" x1="-589.17" y1="323.73" x2="-588.68" y2="323.73" gradientTransform="matrix(372.44, 0, 0, -372.44, 219447.06, 120592.08)" gradientUnits="userSpaceOnUse"><stop offset="0" stop-color="#ccd513"/><stop offset="0.01" stop-color="#ccd513"/><stop offset="0.01" stop-color="#ccd513"/><stop offset="0.39" stop-color="#ccd515"/><stop offset="0.52" stop-color="#ced71c"/><stop offset="0.62" stop-color="#d0d927"/><stop offset="0.69" stop-color="#d4dc38"/><stop offset="0.76" stop-color="#d9e04e"/><stop offset="0.82" stop-color="#dfe46a"/><stop offset="0.87" stop-color="#e6ea8a"/><stop offset="0.92" stop-color="#eef1b0"/><stop offset="0.97" stop-color="#f7f8d9"/><stop offset="1" stop-color="#fff"/></linearGradient></defs><title>miejscowo_dzialajacy</title><g class="cls-2"><rect class="cls-3" x="20" y="10.32" width="183.06" height="29.91"/></g><polyline class="cls-4" points="21.15 10.42 21.15 19.27 21.15 19.18 25.35 25.61 21.15 32.06 21.15 40.41"/><path class="cls-5" d="M29.55,20.82V17a1.39,1.39,0,0,1,.35,0,1.43,1.43,0,0,1,.33,0L31,18.48a4.17,4.17,0,0,1,.31.76h0a2.57,2.57,0,0,1,.18-.48L32.42,17a1.4,1.4,0,0,1,.35,0,1.42,1.42,0,0,1,.36,0v3.81a.72.72,0,0,1-.27,0,.79.79,0,0,1-.27,0V18.93c0-.53,0-1.07,0-1.3h0a8.14,8.14,0,0,1-.4,1l-.7,1.33a.52.52,0,0,1-.19,0,.44.44,0,0,1-.18,0l-.7-1.32a6.85,6.85,0,0,1-.42-1h0a8.91,8.91,0,0,1,.06,1.25v1.94a.67.67,0,0,1-.25,0A.76.76,0,0,1,29.55,20.82Z"/><path class="cls-5" d="M33.9,17.42v-.48a1.42,1.42,0,0,1,.58,0v.48a1.07,1.07,0,0,1-.58,0Zm0,3.41V18.05a.66.66,0,0,1,.27,0,.72.72,0,0,1,.27,0v2.78a1.23,1.23,0,0,1-.54,0Z"/><path class="cls-5" d="M37.23,19.6H35.61c0,.64.29.86.75.86a1.21,1.21,0,0,0,.63-.17.62.62,0,0,1,.18.39,1.61,1.61,0,0,1-.91.23c-.81,0-1.21-.49-1.21-1.48S35.53,18,36.24,18a1,1,0,0,1,1,1.07A2.38,2.38,0,0,1,37.23,19.6Zm-1.63-.37h1.17a.94.94,0,0,0,0-.25c0-.33-.15-.6-.54-.6S35.64,18.62,35.6,19.23Z"/><path class="cls-5" d="M37.21,22.15a.35.35,0,0,1,0-.12.54.54,0,0,1,.06-.28,1.07,1.07,0,0,0,.21,0c.26,0,.4-.13.4-.46V18.05a.66.66,0,0,1,.27,0,.72.72,0,0,1,.27,0v3.29c0,.57-.28.87-.8.87A1.08,1.08,0,0,1,37.21,22.15Zm.63-4.73v-.49a1.11,1.11,0,0,1,.29,0,1,1,0,0,1,.28,0v.49a.75.75,0,0,1-.28,0A.85.85,0,0,1,37.84,17.42Z"/><path class="cls-5" d="M39,20.72a.44.44,0,0,1,.14-.38,2.3,2.3,0,0,0,.74.13c.36,0,.56-.13.56-.4s-.31-.37-.64-.46-.76-.28-.76-.8.33-.85,1-.85a1.71,1.71,0,0,1,.78.15.49.49,0,0,1-.14.37,2.07,2.07,0,0,0-.58-.09c-.38,0-.57.14-.57.4s.34.33.67.44.75.28.75.82-.33.86-1.05.86A2.14,2.14,0,0,1,39,20.72Z"/><path class="cls-5" d="M41.33,19.44c0-1,.41-1.48,1.2-1.48a1.5,1.5,0,0,1,.73.14.54.54,0,0,1-.17.39,1.06,1.06,0,0,0-.46-.09c-.52,0-.74.33-.74,1s.24,1,.76,1a1.21,1.21,0,0,0,.5-.1.53.53,0,0,1,.16.38,1.47,1.47,0,0,1-.78.17C41.74,20.91,41.33,20.41,41.33,19.44Z"/><path class="cls-5" d="M43.6,19.43c0-1.07.47-1.47,1.21-1.47s1.21.4,1.21,1.47-.46,1.48-1.21,1.48S43.6,20.51,43.6,19.43Zm1.86,0c0-.82-.25-1.05-.65-1.05s-.64.23-.64,1.05.25,1.07.64,1.07S45.46,20.26,45.46,19.43Z"/><path class="cls-5" d="M47.11,20.83l-.81-2.78a.72.72,0,0,1,.27,0,.41.41,0,0,1,.23,0l.51,1.67a3,3,0,0,1,.12.59h0a4.13,4.13,0,0,1,.13-.59l.49-1.67a1.1,1.1,0,0,1,.29,0,.72.72,0,0,1,.27,0l.49,1.66a3.74,3.74,0,0,1,.11.6h0a3.24,3.24,0,0,1,.13-.59l.5-1.67a.74.74,0,0,1,.48,0l-.82,2.78a2.32,2.32,0,0,1-.31,0,2.53,2.53,0,0,1-.3,0l-.43-1.45a3.39,3.39,0,0,1-.15-.82h0a3.47,3.47,0,0,1-.16.82l-.43,1.45a2.53,2.53,0,0,1-.3,0A2.69,2.69,0,0,1,47.11,20.83Z"/><path class="cls-5" d="M50.62,19.43c0-1.07.47-1.47,1.21-1.47s1.21.4,1.21,1.47-.46,1.48-1.21,1.48S50.62,20.51,50.62,19.43Zm1.86,0c0-.82-.25-1.05-.65-1.05s-.65.23-.65,1.05.25,1.07.65,1.07S52.48,20.26,52.48,19.43Z"/><path class="cls-5" d="M57,16.84v4a.8.8,0,0,1-.23,0,.83.83,0,0,1-.24,0l0-.32a.88.88,0,0,1-.81.4c-.62,0-1-.37-1-1.47S55,18,55.66,18a.84.84,0,0,1,.78.37V16.84a1.07,1.07,0,0,1,.28,0A.82.82,0,0,1,57,16.84Zm-.54,2.95v-.72a.62.62,0,0,0-.59-.67c-.44,0-.65.25-.65,1s.21,1,.65,1A.63.63,0,0,0,56.44,19.79Z"/><path class="cls-5" d="M59.58,20.64a.68.68,0,0,1,0,.22h-2a.53.53,0,0,1,0-.23.6.6,0,0,1,0-.21l1.44-2H57.62a.76.76,0,0,1,0-.22.68.68,0,0,1,0-.22h1.92a.58.58,0,0,1,0,.21.75.75,0,0,1,0,.23l-1.44,2h1.45A.68.68,0,0,1,59.58,20.64Z"/><path class="cls-5" d="M60.12,17.42v-.48a1,1,0,0,1,.29,0,1.11,1.11,0,0,1,.29,0v.48a.85.85,0,0,1-.29,0A.78.78,0,0,1,60.12,17.42Zm0,3.41V18.05a.66.66,0,0,1,.27,0,.72.72,0,0,1,.27,0v2.78a.94.94,0,0,1-.27,0A.86.86,0,0,1,60.14,20.83Z"/><path class="cls-5" d="M63.42,19v1.81a.61.61,0,0,1-.22,0,.68.68,0,0,1-.22,0l-.08-.36a.85.85,0,0,1-.85.44.79.79,0,0,1-.84-.89c0-.58.35-.85,1-.85a4.68,4.68,0,0,1,.62,0V19c0-.39-.17-.58-.57-.58a2.27,2.27,0,0,0-.72.13.28.28,0,0,1-.12-.16.49.49,0,0,1,0-.23,2.57,2.57,0,0,1,1-.19C63.17,18,63.42,18.32,63.42,19Zm-.54.74v-.2c-.12,0-.34,0-.55,0-.38,0-.57.14-.57.5s.18.49.47.49A.67.67,0,0,0,62.88,19.76Z"/><path class="cls-5" d="M64.92,18.73v2.1a1,1,0,0,1-.27,0,.86.86,0,0,1-.27,0V19l-.38.22a.6.6,0,0,1-.11-.13.31.31,0,0,1-.06-.17l.55-.31V16.84a.86.86,0,0,1,.27,0,1,1,0,0,1,.27,0v1.49l.39-.22s0,0,.11.13a.44.44,0,0,1,.06.16Z"/><path class="cls-5" d="M67.93,19v1.81a.61.61,0,0,1-.22,0,.68.68,0,0,1-.22,0l-.08-.36a.85.85,0,0,1-.85.44.79.79,0,0,1-.84-.89c0-.58.35-.85,1-.85a4.73,4.73,0,0,1,.63,0V19c0-.39-.17-.58-.57-.58a2.37,2.37,0,0,0-.73.13.35.35,0,0,1-.11-.16.49.49,0,0,1,0-.23,2.49,2.49,0,0,1,1-.19C67.68,18,67.93,18.32,67.93,19Zm-.54.74v-.2c-.12,0-.34,0-.55,0-.38,0-.57.14-.57.5s.18.49.47.49A.67.67,0,0,0,67.39,19.76Z"/><path class="cls-5" d="M68,22.15A.35.35,0,0,1,68,22a.62.62,0,0,1,.05-.28,1.21,1.21,0,0,0,.21,0c.27,0,.41-.13.41-.46V18.05a.66.66,0,0,1,.27,0,.79.79,0,0,1,.27,0v3.29c0,.57-.29.87-.8.87A1,1,0,0,1,68,22.15Zm.62-4.73v-.49a1.16,1.16,0,0,1,.3,0,1.07,1.07,0,0,1,.28,0v.49a.82.82,0,0,1-.28,0A.88.88,0,0,1,68.6,17.42Z"/><path class="cls-5" d="M71.92,22.08a.91.91,0,0,1-.49.13c-.33,0-.53-.17-.53-.47a1.34,1.34,0,0,1,.57-.92l-.08-.34a.87.87,0,0,1-.85.43A.79.79,0,0,1,69.7,20c0-.58.35-.85,1-.85a4.73,4.73,0,0,1,.63,0V19c0-.39-.17-.58-.57-.58a2.37,2.37,0,0,0-.73.13.35.35,0,0,1-.11-.16.49.49,0,0,1,0-.23,2.49,2.49,0,0,1,1-.19c.79,0,1,.36,1,1.06v1.81a1.29,1.29,0,0,0-.52.8.18.18,0,0,0,.18.2.73.73,0,0,0,.21-.06A.45.45,0,0,1,71.92,22.08Zm-.55-2.32v-.2c-.12,0-.34,0-.55,0-.38,0-.57.14-.57.5s.18.49.47.49A.67.67,0,0,0,71.37,19.76Z"/><path class="cls-5" d="M72.47,19.44c0-1,.41-1.48,1.2-1.48a1.44,1.44,0,0,1,.72.14.53.53,0,0,1-.16.39,1.11,1.11,0,0,0-.46-.09c-.52,0-.74.33-.74,1s.23,1,.76,1a1.27,1.27,0,0,0,.5-.1.58.58,0,0,1,.16.38,1.51,1.51,0,0,1-.78.17C72.88,20.91,72.47,20.41,72.47,19.44Z"/><path class="cls-5" d="M77.3,18.05l-1.07,3.26c-.19.57-.39.9-1,.9a1.25,1.25,0,0,1-.36-.05.49.49,0,0,1,0-.2.42.42,0,0,1,.05-.21l.25,0c.26,0,.39-.08.55-.55l.12-.36a.47.47,0,0,1-.17,0l-1-2.77a.82.82,0,0,1,.28,0,.75.75,0,0,1,.28,0l.63,1.65a6.21,6.21,0,0,1,.19.64h0s.06-.27.18-.64l.55-1.65A.63.63,0,0,1,77,18,.79.79,0,0,1,77.3,18.05Z"/><path class="cls-5" d="M80.65,20.64a.53.53,0,0,1,0,.22h-2a.75.75,0,0,1,0-.23.62.62,0,0,1,0-.21l1.44-2H78.68a.76.76,0,0,1,0-.22.68.68,0,0,1,0-.22H80.6a.56.56,0,0,1,0,.21.73.73,0,0,1,0,.23l-1.44,2h1.45A.53.53,0,0,1,80.65,20.64Zm-1-3.08a.82.82,0,0,1-.26,0v-.48a.82.82,0,0,1,.26,0,.94.94,0,0,1,.27,0v.48A.94.94,0,0,1,79.64,17.56Z"/><path class="cls-5" d="M83.23,19.6H81.6c0,.64.29.86.75.86a1.21,1.21,0,0,0,.63-.17.53.53,0,0,1,.18.39,1.61,1.61,0,0,1-.91.23c-.81,0-1.21-.49-1.21-1.48S81.52,18,82.24,18A1,1,0,0,1,83.29,19,2.38,2.38,0,0,1,83.23,19.6Zm-1.64-.37h1.18a1.85,1.85,0,0,0,0-.25c0-.33-.14-.6-.54-.6S81.64,18.62,81.59,19.23Z"/><path class="cls-5" d="M83.86,20.83v-4a.86.86,0,0,1,.27,0,.94.94,0,0,1,.27,0v4a.94.94,0,0,1-.27,0A.86.86,0,0,1,83.86,20.83Z"/><path class="cls-5" d="M88.28,19v1.81a.61.61,0,0,1-.22,0,.68.68,0,0,1-.22,0l-.08-.36a.85.85,0,0,1-.85.44.79.79,0,0,1-.84-.89c0-.58.35-.85,1-.85a4.73,4.73,0,0,1,.63,0V19c0-.39-.17-.58-.57-.58a2.37,2.37,0,0,0-.73.13.35.35,0,0,1-.11-.16.49.49,0,0,1,0-.23,2.49,2.49,0,0,1,.95-.19C88,18,88.28,18.32,88.28,19Zm-.54.74v-.2c-.12,0-.34,0-.55,0-.38,0-.57.14-.57.5s.18.49.47.49A.67.67,0,0,0,87.74,19.76Z"/><path class="cls-5" d="M89,20.83V18.05a.93.93,0,0,1,.54,0v.28a1.08,1.08,0,0,1,.84-.37.75.75,0,0,1,.83.81v2.06a1.23,1.23,0,0,1-.54,0V18.88c0-.32-.16-.48-.5-.48a.77.77,0,0,0-.63.37v2.06a1.23,1.23,0,0,1-.54,0Z"/><path class="cls-5" d="M93.38,20.68a.52.52,0,0,1,0,.19,2,2,0,0,1-.41,0c-.67,0-.91-.35-.91-1V18.42h-.42a.62.62,0,0,1,0-.2.58.58,0,0,1,0-.21H92V17.5a.92.92,0,0,1,.54-.11V18h.7a.55.55,0,0,1,0,.2.65.65,0,0,1,0,.21h-.7v1.44c0,.47.14.62.52.62l.25,0A.53.53,0,0,1,93.38,20.68Z"/><path class="cls-5" d="M96.16,18.05l-1.07,3.26c-.18.57-.38.9-1,.9a1.23,1.23,0,0,1-.35-.05.49.49,0,0,1,0-.2.42.42,0,0,1,0-.21l.25,0c.26,0,.39-.08.55-.55l.12-.36a.47.47,0,0,1-.17,0l-1-2.77a1,1,0,0,1,.56,0l.63,1.65a4.76,4.76,0,0,1,.18.64h0a5.62,5.62,0,0,1,.17-.64l.55-1.65a.72.72,0,0,1,.27,0A.7.7,0,0,1,96.16,18.05Z"/><path class="cls-5" d="M96.38,20.72a.51.51,0,0,1,.14-.38,2.3,2.3,0,0,0,.74.13c.36,0,.57-.13.57-.4s-.32-.37-.64-.46-.76-.28-.76-.8.32-.85,1-.85a1.71,1.71,0,0,1,.78.15.49.49,0,0,1-.14.37,2.07,2.07,0,0,0-.58-.09c-.38,0-.56.14-.56.4s.33.33.67.44.74.28.74.82-.33.86-1,.86A2.22,2.22,0,0,1,96.38,20.72Z"/><path class="cls-5" d="M100.94,19.6H99.32c0,.64.29.86.75.86a1.21,1.21,0,0,0,.63-.17.62.62,0,0,1,.18.39,1.61,1.61,0,0,1-.91.23c-.81,0-1.21-.49-1.21-1.48S99.24,18,100,18A1,1,0,0,1,101,19,2.38,2.38,0,0,1,100.94,19.6Zm-1.63-.37h1.18a1.85,1.85,0,0,0,0-.25c0-.33-.14-.6-.54-.6S99.36,18.62,99.31,19.23Z"/><path class="cls-5" d="M103.91,19.43c0,1.11-.4,1.48-1,1.48a.84.84,0,0,1-.78-.37v1.55a1,1,0,0,1-.27,0,.94.94,0,0,1-.27,0v-4a.72.72,0,0,1,.27,0,.79.79,0,0,1,.27,0v.28a.84.84,0,0,1,.78-.37C103.5,18,103.91,18.33,103.91,19.43Zm-.57,0c0-.79-.2-1-.64-1a.62.62,0,0,0-.6.68v.69a.64.64,0,0,0,.6.71C103.14,20.48,103.34,20.24,103.34,19.43Z"/><path class="cls-5" d="M106,20.68a.52.52,0,0,1,0,.19,2,2,0,0,1-.42,0c-.67,0-.91-.35-.91-1V18.42h-.41a.62.62,0,0,1,0-.2.58.58,0,0,1,0-.21h.41V17.5a.94.94,0,0,1,.54-.11V18h.71a.8.8,0,0,1,0,.2,1,1,0,0,1,0,.21h-.71v1.44c0,.47.15.62.52.62a1.72,1.72,0,0,0,.25,0A.44.44,0,0,1,106,20.68Z"/><path class="cls-5" d="M108.8,18.05l-1.06,3.26c-.19.57-.39.9-1,.9a1.23,1.23,0,0,1-.35-.05.49.49,0,0,1,0-.2.42.42,0,0,1,0-.21l.25,0c.26,0,.39-.08.55-.55l.12-.36a.47.47,0,0,1-.17,0l-1-2.77a1,1,0,0,1,.56,0l.63,1.65a6.21,6.21,0,0,1,.19.64h0s.06-.27.17-.64l.56-1.65a.63.63,0,0,1,.26,0A.7.7,0,0,1,108.8,18.05Z"/><path class="cls-5" d="M109,19.44c0-1,.42-1.48,1.2-1.48a1.5,1.5,0,0,1,.73.14.58.58,0,0,1-.16.39,1.14,1.14,0,0,0-.47-.09c-.52,0-.73.33-.73,1s.23,1,.75,1a1.21,1.21,0,0,0,.5-.1.5.5,0,0,1,.16.38,1.47,1.47,0,0,1-.78.17C109.46,20.91,109,20.41,109,19.44Z"/><path class="cls-5" d="M113.41,20.64a.53.53,0,0,1,0,.22h-2a.75.75,0,0,1,0-.23.62.62,0,0,1,0-.21l1.44-2h-1.35a.76.76,0,0,1,0-.22.68.68,0,0,1,0-.22h1.92a.56.56,0,0,1,0,.21.73.73,0,0,1,0,.23l-1.44,2h1.45A.53.53,0,0,1,113.41,20.64Z"/><path class="cls-5" d="M114,20.83V18.05a.66.66,0,0,1,.27,0,.72.72,0,0,1,.27,0v.28a1.05,1.05,0,0,1,.84-.37.75.75,0,0,1,.83.81v2.06a1,1,0,0,1-.27,0,.86.86,0,0,1-.27,0V18.88c0-.32-.16-.48-.51-.48a.74.74,0,0,0-.62.37v2.06a.94.94,0,0,1-.27,0A.86.86,0,0,1,114,20.83Z"/><path class="cls-5" d="M119.17,18.05l-1.07,3.26c-.18.57-.39.9-.95.9a1.25,1.25,0,0,1-.36-.05.49.49,0,0,1,0-.2.42.42,0,0,1,0-.21l.25,0c.26,0,.4-.08.55-.55l.12-.36a.53.53,0,0,1-.17,0l-1-2.77a.82.82,0,0,1,.28,0,.75.75,0,0,1,.28,0l.63,1.65a4.14,4.14,0,0,1,.19.64h0a5.62,5.62,0,0,1,.17-.64l.55-1.65a.7.7,0,0,1,.26,0A.79.79,0,0,1,119.17,18.05Z"/><path class="cls-5" d="M122.52,20.64a.53.53,0,0,1,0,.22h-2a.75.75,0,0,1,0-.23,1.05,1.05,0,0,1,0-.21l1.45-2h-1.35a.59.59,0,0,1,0-.22.53.53,0,0,1,0-.22h1.92a.58.58,0,0,1,0,.21.75.75,0,0,1,0,.23l-1.44,2h1.44A.53.53,0,0,1,122.52,20.64Z"/><path class="cls-5" d="M125.1,19v1.81a.61.61,0,0,1-.22,0,.68.68,0,0,1-.22,0l-.08-.36a.86.86,0,0,1-.85.44.79.79,0,0,1-.84-.89c0-.58.35-.85,1-.85a4.73,4.73,0,0,1,.63,0V19c0-.39-.17-.58-.57-.58a2.29,2.29,0,0,0-.73.13.35.35,0,0,1-.11-.16.49.49,0,0,1,0-.23,2.49,2.49,0,0,1,1-.19C124.85,18,125.1,18.32,125.1,19Zm-.54.74v-.2c-.12,0-.35,0-.55,0-.38,0-.57.14-.57.5s.18.49.47.49A.67.67,0,0,0,124.56,19.76Z"/><path class="cls-5" d="M126.33,20.83l-.81-2.78a.79.79,0,0,1,.27,0,.48.48,0,0,1,.24,0l.5,1.67a3,3,0,0,1,.12.59h0a4.13,4.13,0,0,1,.13-.59l.5-1.67a1.07,1.07,0,0,1,.28,0,.72.72,0,0,1,.27,0l.49,1.66a3.74,3.74,0,0,1,.11.6h0a3.24,3.24,0,0,1,.13-.59l.5-1.67a.64.64,0,0,1,.24,0,.58.58,0,0,1,.24,0l-.82,2.78a2.16,2.16,0,0,1-.3,0,2.51,2.51,0,0,1-.31,0l-.43-1.45a4,4,0,0,1-.15-.82h0a3.47,3.47,0,0,1-.16.82L127,20.83a2.33,2.33,0,0,1-.3,0A2.69,2.69,0,0,1,126.33,20.83Z"/><path class="cls-5" d="M130,17.42v-.48a1,1,0,0,1,.29,0,1.11,1.11,0,0,1,.29,0v.48a.85.85,0,0,1-.29,0A.78.78,0,0,1,130,17.42Zm0,3.41V18.05a.66.66,0,0,1,.27,0,.79.79,0,0,1,.27,0v2.78a1,1,0,0,1-.27,0A.86.86,0,0,1,130,20.83Z"/><path class="cls-5" d="M133.33,19.6H131.7c.05.64.29.86.75.86a1.22,1.22,0,0,0,.64-.17.57.57,0,0,1,.17.39,1.55,1.55,0,0,1-.9.23c-.81,0-1.21-.49-1.21-1.48s.47-1.47,1.19-1.47a1,1,0,0,1,1,1.07A2.38,2.38,0,0,1,133.33,19.6Zm-1.63-.37h1.17a1.69,1.69,0,0,0,0-.25c0-.33-.15-.6-.54-.6S131.74,18.62,131.7,19.23Z"/><path class="cls-5" d="M134,20.83V18.05a.66.66,0,0,1,.27,0,.55.55,0,0,1,.25,0v.39a.79.79,0,0,1,.69-.48.85.85,0,0,1,.47.14.67.67,0,0,1-.24.45.51.51,0,0,0-.33-.11.73.73,0,0,0-.58.44v1.95a.94.94,0,0,1-.27,0A.86.86,0,0,1,134,20.83Z"/><path class="cls-5" d="M138,19v1.81a.61.61,0,0,1-.22,0,.68.68,0,0,1-.22,0l-.08-.36a.86.86,0,0,1-.85.44.79.79,0,0,1-.84-.89c0-.58.35-.85,1-.85a4.73,4.73,0,0,1,.63,0V19c0-.39-.17-.58-.57-.58a2.29,2.29,0,0,0-.73.13.35.35,0,0,1-.11-.16.49.49,0,0,1,0-.23A2.49,2.49,0,0,1,137,18C137.76,18,138,18.32,138,19Zm-.54.74v-.2c-.12,0-.34,0-.55,0-.38,0-.57.14-.57.5s.18.49.47.49A.67.67,0,0,0,137.47,19.76Z"/><path class="cls-5" d="M138.05,22.15a.35.35,0,0,1,0-.12.54.54,0,0,1,.06-.28,1,1,0,0,0,.2,0c.27,0,.41-.13.41-.46V18.05a.66.66,0,0,1,.27,0,.79.79,0,0,1,.27,0v3.29c0,.57-.28.87-.8.87A1.08,1.08,0,0,1,138.05,22.15Zm.63-4.73v-.49a1.11,1.11,0,0,1,.29,0,1.07,1.07,0,0,1,.28,0v.49a.82.82,0,0,1-.28,0A.85.85,0,0,1,138.68,17.42Z"/><path class="cls-5" d="M142,22.08a.91.91,0,0,1-.49.13c-.33,0-.53-.17-.53-.47a1.36,1.36,0,0,1,.58-.92l-.09-.34a.86.86,0,0,1-.85.43.78.78,0,0,1-.83-.89c0-.58.35-.85,1-.85a4.68,4.68,0,0,1,.62,0V19c0-.39-.16-.58-.57-.58a2.27,2.27,0,0,0-.72.13.28.28,0,0,1-.12-.16.49.49,0,0,1,0-.23,2.57,2.57,0,0,1,1-.19c.79,0,1,.36,1,1.06v1.81a1.27,1.27,0,0,0-.51.8c0,.13.07.2.17.2a.73.73,0,0,0,.21-.06A.45.45,0,0,1,142,22.08Zm-.55-2.32v-.2c-.11,0-.34,0-.55,0-.38,0-.56.14-.56.5s.17.49.47.49S141.44,20.18,141.44,19.76Z"/><path class="cls-5" d="M142.54,19.44c0-1,.41-1.48,1.2-1.48a1.5,1.5,0,0,1,.73.14.54.54,0,0,1-.17.39,1.06,1.06,0,0,0-.46-.09c-.52,0-.73.33-.73,1s.23,1,.75,1a1.21,1.21,0,0,0,.5-.1.5.5,0,0,1,.16.38,1.47,1.47,0,0,1-.78.17C143,20.91,142.54,20.41,142.54,19.44Z"/><path class="cls-5" d="M147.37,18.05l-1.07,3.26c-.18.57-.39.9-1,.9a1.25,1.25,0,0,1-.36-.05.49.49,0,0,1,0-.2.42.42,0,0,1,.05-.21l.25,0c.26,0,.4-.08.55-.55l.12-.36a.53.53,0,0,1-.17,0l-1-2.77a.82.82,0,0,1,.28,0,.75.75,0,0,1,.28,0l.63,1.65a4.14,4.14,0,0,1,.19.64h0a5.62,5.62,0,0,1,.17-.64l.55-1.65a.7.7,0,0,1,.26,0A.79.79,0,0,1,147.37,18.05Z"/><path class="cls-5" d="M148.7,19.44c0-1,.41-1.48,1.2-1.48a1.48,1.48,0,0,1,.72.14.58.58,0,0,1-.16.39,1.14,1.14,0,0,0-.47-.09c-.52,0-.73.33-.73,1s.23,1,.75,1a1.21,1.21,0,0,0,.5-.1.5.5,0,0,1,.16.38,1.45,1.45,0,0,1-.77.17C149.11,20.91,148.7,20.41,148.7,19.44Z"/><path class="cls-5" d="M153.37,18.77v2.06a1.07,1.07,0,0,1-.28,0,.82.82,0,0,1-.26,0V18.88q0-.48-.51-.48a.74.74,0,0,0-.62.37v2.06a1,1,0,0,1-.27,0,.86.86,0,0,1-.27,0v-4a.86.86,0,0,1,.27,0,1,1,0,0,1,.27,0v1.48a1.07,1.07,0,0,1,.83-.36A.76.76,0,0,1,153.37,18.77Z"/><path class="cls-5" d="M154.06,20.83v-4a.86.86,0,0,1,.27,0,.94.94,0,0,1,.27,0v4a.94.94,0,0,1-.27,0A.86.86,0,0,1,154.06,20.83Z"/><path class="cls-5" d="M155.2,19.43c0-1.07.46-1.47,1.21-1.47s1.2.4,1.2,1.47-.46,1.48-1.2,1.48S155.2,20.51,155.2,19.43Zm1.85,0c0-.82-.25-1.05-.64-1.05s-.65.23-.65,1.05.25,1.07.65,1.07S157.05,20.26,157.05,19.43Z"/><path class="cls-5" d="M158.19,20.83V18.05a.72.72,0,0,1,.27,0,.55.55,0,0,1,.25,0v.39a.79.79,0,0,1,.7-.48.84.84,0,0,1,.46.14.67.67,0,0,1-.24.45.49.49,0,0,0-.33-.11.73.73,0,0,0-.58.44v1.95a1.23,1.23,0,0,1-.54,0Z"/><path class="cls-5" d="M162.46,18.77v2.06a1.23,1.23,0,0,1-.54,0V18.88c0-.32-.16-.48-.5-.48a.74.74,0,0,0-.62.37v2.06a1,1,0,0,1-.27,0,.86.86,0,0,1-.27,0v-4a.86.86,0,0,1,.27,0,1,1,0,0,1,.27,0v1.48a1.07,1.07,0,0,1,.83-.36A.75.75,0,0,1,162.46,18.77Z"/><path class="cls-5" d="M165.2,19.6h-1.62c0,.64.29.86.75.86a1.21,1.21,0,0,0,.63-.17.62.62,0,0,1,.18.39,1.61,1.61,0,0,1-.91.23c-.81,0-1.21-.49-1.21-1.48s.47-1.47,1.19-1.47a1,1,0,0,1,1,1.07A2.38,2.38,0,0,1,165.2,19.6Zm-1.63-.37h1.17a1.69,1.69,0,0,0,0-.25c0-.33-.15-.6-.54-.6S163.61,18.62,163.57,19.23Z"/><path class="cls-5" d="M168.1,20.82a1,1,0,0,1-.3,0,1,1,0,0,1-.3,0l-.8-1.24h-.34v1.25a.94.94,0,0,1-.27,0,1,1,0,0,1-.27,0v-4a1.23,1.23,0,0,1,.54,0v2.33h.35l.72-1.12a.82.82,0,0,1,.28,0,.87.87,0,0,1,.27,0l-.82,1.29Z"/><path class="cls-5" d="M168.32,20.72a.44.44,0,0,1,.14-.38,2.3,2.3,0,0,0,.74.13c.35,0,.56-.13.56-.4s-.31-.37-.64-.46-.76-.28-.76-.8.33-.85,1-.85a1.66,1.66,0,0,1,.77.15.45.45,0,0,1-.13.37,2.09,2.09,0,0,0-.59-.09c-.37,0-.56.14-.56.4s.34.33.67.44.75.28.75.82-.34.86-1,.86A2.14,2.14,0,0,1,168.32,20.72Z"/><path class="cls-5" d="M173.14,18.05l-1.07,3.26c-.19.57-.39.9-.95.9a1.25,1.25,0,0,1-.36-.05.49.49,0,0,1,0-.2.42.42,0,0,1,.05-.21l.25,0c.26,0,.39-.08.55-.55l.12-.36a.53.53,0,0,1-.17,0l-1-2.77a.82.82,0,0,1,.28,0,.75.75,0,0,1,.28,0l.63,1.65a6.21,6.21,0,0,1,.19.64h0s.06-.27.18-.64l.55-1.65a.63.63,0,0,1,.26,0A.79.79,0,0,1,173.14,18.05Z"/><path class="cls-5" d="M175.74,16.84v4a.8.8,0,0,1-.23,0,.83.83,0,0,1-.24,0l0-.32a.88.88,0,0,1-.81.4c-.62,0-1-.37-1-1.47s.4-1.48,1-1.48a.84.84,0,0,1,.78.37V16.84a1,1,0,0,1,.28,0A.82.82,0,0,1,175.74,16.84Zm-.54,2.95v-.72a.62.62,0,0,0-.59-.67c-.44,0-.65.25-.65,1s.21,1,.65,1A.63.63,0,0,0,175.2,19.79Z"/><path class="cls-5" d="M178.81,18.05l-1.07,3.26c-.18.57-.39.9-1,.9a1.25,1.25,0,0,1-.36-.05.49.49,0,0,1,0-.2.42.42,0,0,1,.05-.21l.25,0c.26,0,.39-.08.55-.55l.12-.36a.53.53,0,0,1-.17,0l-1-2.77a.82.82,0,0,1,.28,0,.75.75,0,0,1,.28,0l.63,1.65a4.14,4.14,0,0,1,.19.64h0a5.62,5.62,0,0,1,.17-.64l.55-1.65a.7.7,0,0,1,.26,0A.79.79,0,0,1,178.81,18.05Z"/><path class="cls-5" d="M179.23,20.83V18.05a.93.93,0,0,1,.54,0v.28a1.07,1.07,0,0,1,.84-.37.75.75,0,0,1,.83.81v2.06a1,1,0,0,1-.27,0,.94.94,0,0,1-.27,0V18.88c0-.32-.16-.48-.5-.48a.77.77,0,0,0-.63.37v2.06a1.23,1.23,0,0,1-.54,0Z"/><path class="cls-5" d="M184.18,19.6h-1.62c0,.64.29.86.75.86a1.21,1.21,0,0,0,.63-.17.62.62,0,0,1,.18.39l-.11.09c-.4.35-.59.73-.53.93a.18.18,0,0,0,.17.13.73.73,0,0,0,.21-.06.45.45,0,0,1,.14.31.91.91,0,0,1-.49.13.45.45,0,0,1-.5-.33c-.1-.31.12-.67.48-1a1.19,1.19,0,0,1-.28,0c-.81,0-1.21-.49-1.21-1.48s.48-1.47,1.19-1.47A1,1,0,0,1,184.24,19,2.38,2.38,0,0,1,184.18,19.6Zm-1.63-.37h1.17a.94.94,0,0,0,0-.25c0-.33-.15-.6-.54-.6S182.59,18.62,182.55,19.23Z"/><path class="cls-5" d="M31.31,26.23a.9.9,0,0,1-.08.4A1,1,0,0,1,31,27a1.13,1.13,0,0,1-.34.23,1.1,1.1,0,0,1-.4.08,1.11,1.11,0,0,1-.41-.08,1.13,1.13,0,0,1-.34-.23,1,1,0,0,1-.23-.35,1,1,0,0,1,0-.8,1,1,0,0,1,.23-.35,1.13,1.13,0,0,1,.34-.23,1.1,1.1,0,0,1,.4-.08,1.15,1.15,0,0,1,.41.08,1.27,1.27,0,0,1,.34.23,1,1,0,0,1,.23.35A.9.9,0,0,1,31.31,26.23Z"/><path class="cls-5" d="M34.39,26v1.68a.68.68,0,0,1-.22,0,.61.61,0,0,1-.22,0V26.12a.37.37,0,0,0-.42-.4A.62.62,0,0,0,33,26v1.68a.82.82,0,0,1-.44,0V24.45a.82.82,0,0,1,.44,0v1.21a.89.89,0,0,1,.69-.3A.62.62,0,0,1,34.39,26Z"/><path class="cls-5" d="M36.59,26.23v1.48a.44.44,0,0,1-.18,0,.52.52,0,0,1-.19,0l-.06-.29a.71.71,0,0,1-.7.37.64.64,0,0,1-.68-.73c0-.48.28-.7.85-.7a3.3,3.3,0,0,1,.51,0v-.18c0-.32-.13-.47-.46-.47a2,2,0,0,0-.6.1.26.26,0,0,1-.09-.13.5.5,0,0,1,0-.19,2,2,0,0,1,.79-.16C36.38,25.36,36.59,25.66,36.59,26.23Zm-.45.61v-.16c-.1,0-.28,0-.45,0s-.46.12-.46.41.14.4.38.4A.55.55,0,0,0,36.14,26.84Z"/><path class="cls-5" d="M37.12,27.71V25.44a.61.61,0,0,1,.22,0,.68.68,0,0,1,.22,0v.22a.84.84,0,0,1,.65-.3.58.58,0,0,1,.58.35.88.88,0,0,1,.73-.35.61.61,0,0,1,.65.67v1.68a.68.68,0,0,1-.22,0,.61.61,0,0,1-.22,0V26.12c0-.26-.12-.4-.38-.4a.55.55,0,0,0-.48.31v1.68a.72.72,0,0,1-.23,0,.61.61,0,0,1-.22,0V26.12c0-.26-.12-.4-.38-.4a.59.59,0,0,0-.48.31v1.68a.68.68,0,0,1-.22,0A.61.61,0,0,1,37.12,27.71Z"/><path class="cls-5" d="M42.5,25.44v2.27a.61.61,0,0,1-.22,0,.72.72,0,0,1-.23,0v-.23a.85.85,0,0,1-.69.31.62.62,0,0,1-.67-.67V25.44a.82.82,0,0,1,.44,0V27c0,.25.13.39.41.39a.6.6,0,0,0,.51-.31V25.44a.72.72,0,0,1,.23,0A.68.68,0,0,1,42.5,25.44Z"/><path class="cls-5" d="M42.52,28.8a.31.31,0,0,1,0-.1.46.46,0,0,1,0-.23.79.79,0,0,0,.17,0c.22,0,.33-.11.33-.38V25.44a.61.61,0,0,1,.22,0,.72.72,0,0,1,.23,0v2.69c0,.47-.23.72-.66.72A.84.84,0,0,1,42.52,28.8ZM43,24.93v-.41a1.33,1.33,0,0,1,.46,0v.41a1.33,1.33,0,0,1-.46,0Z"/><path class="cls-5" d="M45.74,26.71H44.41c0,.53.24.7.62.7a1,1,0,0,0,.51-.13.42.42,0,0,1,.15.31,1.24,1.24,0,0,1-.74.2c-.67,0-1-.41-1-1.22s.38-1.21,1-1.21a.78.78,0,0,1,.86.89A2,2,0,0,1,45.74,26.71Zm-1.33-.3h1a1.34,1.34,0,0,0,0-.21c0-.27-.12-.49-.44-.49S44.44,25.9,44.41,26.41Z"/><path class="cls-5" d="M48.31,27.59a.55.55,0,0,1,0,.16,1.37,1.37,0,0,1-.34,0c-.55,0-.75-.29-.75-.85v-1.2h-.33a.39.39,0,0,1,0-.16.36.36,0,0,1,0-.17h.33V25a.81.81,0,0,1,.45-.08v.51h.58a.55.55,0,0,1,0,.16.68.68,0,0,1,0,.17h-.58v1.18c0,.38.11.51.42.51a1.21,1.21,0,0,0,.21,0A.5.5,0,0,1,48.31,27.59Z"/><path class="cls-5" d="M49.09,27.71l-.67-2.27a.68.68,0,0,1,.22,0,.36.36,0,0,1,.19,0l.42,1.37a2.67,2.67,0,0,1,.09.48h0a2.93,2.93,0,0,1,.1-.48l.41-1.37a.89.89,0,0,1,.23,0,.61.61,0,0,1,.22,0l.4,1.36a2.9,2.9,0,0,1,.09.49h0a3.48,3.48,0,0,1,.1-.49l.41-1.36a.62.62,0,0,1,.2,0,.49.49,0,0,1,.2,0l-.67,2.27a1.06,1.06,0,0,1-.5,0l-.35-1.19a2.78,2.78,0,0,1-.13-.66h0a3.3,3.3,0,0,1-.13.66l-.36,1.19a.9.9,0,0,1-.25,0A1,1,0,0,1,49.09,27.71Z"/><path class="cls-5" d="M51.94,26.57c0-.87.38-1.21,1-1.21s1,.34,1,1.21-.37,1.22-1,1.22S51.94,27.45,51.94,26.57Zm1.52,0c0-.67-.21-.86-.53-.86s-.53.19-.53.86.2.87.53.87S53.46,27.25,53.46,26.57Z"/><path class="cls-5" d="M54.36,27.71V25.44a.61.61,0,0,1,.22,0,.46.46,0,0,1,.21,0v.31a.65.65,0,0,1,.57-.38.66.66,0,0,1,.38.11.51.51,0,0,1-.2.37.42.42,0,0,0-.27-.09.59.59,0,0,0-.47.36v1.59a.72.72,0,0,1-.23,0A.61.61,0,0,1,54.36,27.71Z"/><path class="cls-5" d="M57.59,27.56a.5.5,0,0,1,0,.18H55.91a.5.5,0,0,1,0-.19.43.43,0,0,1,0-.17l1.18-1.61H56a.72.72,0,0,1,0-.18.63.63,0,0,1,0-.18h1.58a.72.72,0,0,1,0,.17,1,1,0,0,1,0,.19l-1.18,1.61h1.18A.44.44,0,0,1,57.59,27.56Z"/><path class="cls-5" d="M59.68,26.71H58.35c0,.53.24.7.62.7a1,1,0,0,0,.51-.13.42.42,0,0,1,.15.31,1.24,1.24,0,0,1-.74.2c-.67,0-1-.41-1-1.22s.39-1.21,1-1.21a.78.78,0,0,1,.86.89A2,2,0,0,1,59.68,26.71Zm-1.33-.3h1a1.34,1.34,0,0,0,0-.21c0-.27-.12-.49-.44-.49S58.38,25.9,58.35,26.41Z"/><path class="cls-5" d="M60.16,27.71V25.44a.61.61,0,0,1,.22,0,.72.72,0,0,1,.23,0v.23a.88.88,0,0,1,.68-.31A.62.62,0,0,1,62,26v1.68a.68.68,0,0,1-.22,0,.61.61,0,0,1-.22,0V26.12a.36.36,0,0,0-.41-.4.62.62,0,0,0-.51.31v1.68a.72.72,0,0,1-.23,0A.61.61,0,0,1,60.16,27.71Z"/><path class="cls-5" d="M62.5,24.93v-.4a.65.65,0,0,1,.23,0,.75.75,0,0,1,.24,0v.4a1.1,1.1,0,0,1-.24,0A.94.94,0,0,1,62.5,24.93Zm0,2.78V25.44a.61.61,0,0,1,.22,0,.72.72,0,0,1,.23,0v2.27a.72.72,0,0,1-.23,0A.61.61,0,0,1,62.51,27.71Z"/><path class="cls-5" d="M65.2,26.71H63.87c0,.53.24.7.62.7a1,1,0,0,0,.51-.13.42.42,0,0,1,.15.31,1.24,1.24,0,0,1-.74.2c-.67,0-1-.41-1-1.22s.38-1.21,1-1.21a.78.78,0,0,1,.86.89A2,2,0,0,1,65.2,26.71Zm-1.33-.3h1a1.34,1.34,0,0,0,0-.21c0-.27-.12-.49-.44-.49S63.9,25.9,63.87,26.41Z"/><path class="cls-5" d="M66.45,27.63a.42.42,0,0,1,.12-.32,1.77,1.77,0,0,0,.6.11c.3,0,.47-.1.47-.33s-.26-.3-.53-.38-.62-.22-.62-.65.27-.7.83-.7a1.5,1.5,0,0,1,.64.12.41.41,0,0,1-.11.31,1.88,1.88,0,0,0-.48-.07c-.31,0-.46.11-.46.32s.27.28.55.37.61.22.61.67-.28.71-.86.71A2,2,0,0,1,66.45,27.63Z"/><path class="cls-5" d="M68.47,24.93v-.4a.75.75,0,0,1,.24,0,.83.83,0,0,1,.24,0v.4a1.22,1.22,0,0,1-.24,0A1.1,1.1,0,0,1,68.47,24.93Zm0,2.78V25.44a.55.55,0,0,1,.22,0,.61.61,0,0,1,.22,0v2.27a.82.82,0,0,1-.44,0Z"/><path class="cls-5" d="M71.18,26.71H69.85c0,.53.23.7.61.7a1,1,0,0,0,.52-.13.51.51,0,0,1,.15.31l-.09.08c-.33.28-.49.59-.44.76a.15.15,0,0,0,.14.1.37.37,0,0,0,.18-.05.41.41,0,0,1,.11.26.72.72,0,0,1-.4.11.39.39,0,0,1-.42-.27.88.88,0,0,1,.4-.81l-.23,0c-.66,0-1-.41-1-1.22s.39-1.21,1-1.21a.79.79,0,0,1,.86.89A2,2,0,0,1,71.18,26.71Zm-1.34-.3h1a1.25,1.25,0,0,0,0-.21c0-.27-.12-.49-.45-.49S69.87,25.9,69.84,26.41Z"/><path class="cls-5" d="M74.49,26.57c0,.91-.33,1.22-.84,1.22a.74.74,0,0,1-.65-.31v1.27a.61.61,0,0,1-.22,0,.68.68,0,0,1-.22,0V25.44a.68.68,0,0,1,.22,0,.61.61,0,0,1,.22,0v.23a.71.71,0,0,1,.65-.31C74.16,25.36,74.49,25.67,74.49,26.57Zm-.46,0c0-.65-.17-.85-.53-.85a.52.52,0,0,0-.5.56v.57a.53.53,0,0,0,.5.58C73.86,27.43,74,27.23,74,26.57Z"/><path class="cls-5" d="M75.62,26v1.72a.68.68,0,0,1-.22,0,.55.55,0,0,1-.22,0V26.25l-.31.18a.42.42,0,0,1-.09-.11.25.25,0,0,1,0-.13l.45-.26V24.45a.55.55,0,0,1,.22,0,.68.68,0,0,1,.22,0v1.22l.32-.19a.4.4,0,0,1,.09.11.26.26,0,0,1,0,.14Z"/><path class="cls-5" d="M78.34,25.44l-.88,2.67c-.15.47-.31.74-.77.74a1.28,1.28,0,0,1-.3,0,.47.47,0,0,1,0-.17.37.37,0,0,1,0-.17l.21,0c.21,0,.32-.07.45-.46l.1-.29a.32.32,0,0,1-.14,0l-.85-2.27a.72.72,0,0,1,.23,0,.65.65,0,0,1,.23,0l.52,1.35a3.49,3.49,0,0,1,.15.52h0s0-.22.15-.52l.45-1.35a.58.58,0,0,1,.21,0A.68.68,0,0,1,78.34,25.44Z"/><path class="cls-5" d="M79.92,27.59a.55.55,0,0,1,0,.16,1.37,1.37,0,0,1-.34,0c-.55,0-.75-.29-.75-.85v-1.2h-.33a.39.39,0,0,1,0-.16.36.36,0,0,1,0-.17h.33V25a.81.81,0,0,1,.45-.08v.51h.57a.39.39,0,0,1,0,.16.47.47,0,0,1,0,.17h-.57v1.18c0,.38.12.51.42.51a1.21,1.21,0,0,0,.21,0A.5.5,0,0,1,79.92,27.59Z"/><path class="cls-5" d="M82.11,27.71a.83.83,0,0,1-.24,0,1,1,0,0,1-.25,0l-.66-1h-.28v1a.58.58,0,0,1-.21,0,.8.8,0,0,1-.23,0V24.44a1.17,1.17,0,0,1,.23,0,1,1,0,0,1,.21,0v1.92H81l.59-.92a.72.72,0,0,1,.23,0,.76.76,0,0,1,.22,0l-.67,1Z"/><path class="cls-5" d="M82.39,24.93v-.4a.75.75,0,0,1,.24,0,.83.83,0,0,1,.24,0v.4a1.22,1.22,0,0,1-.24,0A1.1,1.1,0,0,1,82.39,24.93Zm0,2.78V25.44a.55.55,0,0,1,.22,0,.68.68,0,0,1,.22,0v2.27a.68.68,0,0,1-.22,0A.61.61,0,0,1,82.41,27.71Z"/><path class="cls-5" d="M86.24,26.58c0,.9-.33,1.21-.85,1.21a.74.74,0,0,1-.64-.3v.22a.68.68,0,0,1-.22,0,.61.61,0,0,1-.22,0V24.45a.61.61,0,0,1,.22,0,.68.68,0,0,1,.22,0v1.22a.72.72,0,0,1,.64-.31C85.91,25.36,86.24,25.67,86.24,26.58Zm-.47,0c0-.65-.17-.86-.53-.86a.52.52,0,0,0-.49.57v.57a.52.52,0,0,0,.49.57C85.6,27.43,85.77,27.22,85.77,26.58Z"/><path class="cls-5" d="M88.36,26.23v1.48a.52.52,0,0,1-.19,0,.5.5,0,0,1-.18,0l-.06-.29a.71.71,0,0,1-.7.37.64.64,0,0,1-.68-.73c0-.48.28-.7.85-.7a3.3,3.3,0,0,1,.51,0v-.18c0-.32-.13-.47-.47-.47a2,2,0,0,0-.59.1.32.32,0,0,1-.1-.13.41.41,0,0,1,0-.19,2,2,0,0,1,.79-.16C88.15,25.36,88.36,25.66,88.36,26.23Zm-.45.61v-.16c-.1,0-.28,0-.45,0s-.46.12-.46.41.14.4.38.4A.55.55,0,0,0,87.91,26.84Z"/><path class="cls-5" d="M90.76,27.71a1,1,0,0,1-.25,0,.83.83,0,0,1-.24,0l-.66-1h-.28v1a.82.82,0,0,1-.44,0V24.44a1,1,0,0,1,.22,0,1.12,1.12,0,0,1,.22,0v1.92h.29l.58-.92a.72.72,0,0,1,.23,0,.8.8,0,0,1,.23,0l-.67,1Z"/><path class="cls-5" d="M92.3,27.59a.55.55,0,0,1,0,.16,1.44,1.44,0,0,1-.34,0c-.55,0-.75-.29-.75-.85v-1.2h-.34a.55.55,0,0,1,0-.16.51.51,0,0,1,0-.17h.34V25a.77.77,0,0,1,.44-.08v.51h.58a.55.55,0,0,1,0,.16.68.68,0,0,1,0,.17h-.58v1.18c0,.38.12.51.43.51l.21,0A.5.5,0,0,1,92.3,27.59Z"/><path class="cls-5" d="M94.31,26.71H93c0,.53.24.7.61.7a1,1,0,0,0,.52-.13.46.46,0,0,1,.15.31,1.29,1.29,0,0,1-.75.2c-.66,0-1-.41-1-1.22s.39-1.21,1-1.21a.79.79,0,0,1,.86.89A2,2,0,0,1,94.31,26.71ZM93,26.41h1a1.25,1.25,0,0,0,0-.21c0-.27-.12-.49-.45-.49S93,25.9,93,26.41Z"/><path class="cls-5" d="M94.79,27.71V25.44a.61.61,0,0,1,.22,0,.52.52,0,0,1,.21,0v.31a.67.67,0,0,1,.57-.38.7.7,0,0,1,.39.11.55.55,0,0,1-.2.37.44.44,0,0,0-.27-.09.61.61,0,0,0-.48.36v1.59a.82.82,0,0,1-.44,0Z"/><path class="cls-5" d="M98.4,25.44l-.87,2.67c-.15.47-.32.74-.78.74a1.28,1.28,0,0,1-.3,0,.47.47,0,0,1,0-.17.37.37,0,0,1,0-.17l.21,0c.21,0,.32-.07.45-.46l.1-.29a.32.32,0,0,1-.14,0l-.85-2.27a.72.72,0,0,1,.23,0,.65.65,0,0,1,.23,0l.52,1.35a3.49,3.49,0,0,1,.15.52h0a4.2,4.2,0,0,1,.14-.52L98,25.44a.58.58,0,0,1,.21,0A.68.68,0,0,1,98.4,25.44Z"/><path class="cls-5" d="M98.21,28.8a.31.31,0,0,1,0-.1.46.46,0,0,1,0-.23.65.65,0,0,0,.16,0c.22,0,.34-.11.34-.38V25.44a.55.55,0,0,1,.22,0,.68.68,0,0,1,.22,0v2.69c0,.47-.23.72-.66.72A.81.81,0,0,1,98.21,28.8Zm.51-3.87v-.41a1.1,1.1,0,0,1,.24,0,1,1,0,0,1,.23,0v.41A1,1,0,0,1,99,25,1.1,1.1,0,0,1,98.72,24.93Z"/><path class="cls-5" d="M99.74,27.71V25.44a.61.61,0,0,1,.22,0,.68.68,0,0,1,.22,0v.23a.89.89,0,0,1,.68-.31.63.63,0,0,1,.69.67v1.68a.72.72,0,0,1-.23,0,.61.61,0,0,1-.22,0V26.12a.36.36,0,0,0-.41-.4.62.62,0,0,0-.51.31v1.68a.68.68,0,0,1-.22,0A.61.61,0,0,1,99.74,27.71Z"/><path class="cls-5" d="M103.77,26.71h-1.34c0,.53.24.7.62.7a1.07,1.07,0,0,0,.52-.13.45.45,0,0,1,.14.31,1.24,1.24,0,0,1-.74.2c-.66,0-1-.41-1-1.22s.39-1.21,1-1.21a.79.79,0,0,1,.86.89A2,2,0,0,1,103.77,26.71Zm-1.34-.3h1a1.34,1.34,0,0,0,0-.21c0-.27-.12-.49-.44-.49S102.46,25.9,102.43,26.41Z"/><path class="cls-5" d="M103.73,28.8a.31.31,0,0,1,0-.1.46.46,0,0,1,.05-.23.79.79,0,0,0,.17,0c.22,0,.33-.11.33-.38V25.44a.61.61,0,0,1,.22,0,.68.68,0,0,1,.22,0v2.69c0,.47-.23.72-.65.72A.84.84,0,0,1,103.73,28.8Zm.51-3.87v-.41a1.1,1.1,0,0,1,.24,0,1,1,0,0,1,.23,0v.41a1,1,0,0,1-.23,0A1.1,1.1,0,0,1,104.24,24.93Z"/><path class="cls-5" d="M106.54,27.71l-.67-2.27a.68.68,0,0,1,.22,0,.41.41,0,0,1,.19,0l.42,1.37a2.67,2.67,0,0,1,.09.48h0a2.93,2.93,0,0,1,.1-.48l.4-1.37a1,1,0,0,1,.24,0,.61.61,0,0,1,.22,0l.4,1.36a2.9,2.9,0,0,1,.09.49h0c0-.1,0-.26.11-.49l.41-1.36a.68.68,0,0,1,.4,0l-.67,2.27a1,1,0,0,1-.25,0,.9.9,0,0,1-.25,0l-.36-1.19a2.62,2.62,0,0,1-.12-.66h0a2.86,2.86,0,0,1-.14.66L107,27.71a.9.9,0,0,1-.25,0A1,1,0,0,1,106.54,27.71Z"/><path class="cls-5" d="M112.26,26.58c0,.9-.33,1.21-.84,1.21a.74.74,0,0,1-.64-.3v.22a.68.68,0,0,1-.22,0,.72.72,0,0,1-.23,0V24.45a.72.72,0,0,1,.23,0,.68.68,0,0,1,.22,0v1.22a.72.72,0,0,1,.64-.31C111.93,25.36,112.26,25.67,112.26,26.58Zm-.46,0c0-.65-.17-.86-.53-.86a.51.51,0,0,0-.49.57v.57a.51.51,0,0,0,.49.57C111.63,27.43,111.8,27.22,111.8,26.58Z"/><path class="cls-5" d="M114.41,26.71h-1.34c0,.53.24.7.62.7a1.07,1.07,0,0,0,.52-.13.45.45,0,0,1,.14.31,1.24,1.24,0,0,1-.74.2c-.67,0-1-.41-1-1.22s.39-1.21,1-1.21a.78.78,0,0,1,.86.89A2.46,2.46,0,0,1,114.41,26.71Zm-1.34-.3h1a1.34,1.34,0,0,0,0-.21c0-.27-.12-.49-.44-.49S113.1,25.9,113.07,26.41Z"/><path class="cls-5" d="M116.45,27.56a.5.5,0,0,1,0,.18h-1.66a.92.92,0,0,1,0-.19.79.79,0,0,1,0-.17l1.18-1.61h-1.1a.5.5,0,0,1,0-.18.44.44,0,0,1,0-.18h1.57a.4.4,0,0,1,0,.17.54.54,0,0,1,0,.19l-1.18,1.61h1.19A.44.44,0,0,1,116.45,27.56Z"/><path class="cls-5" d="M118.8,26.57c0,.91-.33,1.22-.84,1.22a.72.72,0,0,1-.65-.31v1.27a.82.82,0,0,1-.44,0V25.44a.82.82,0,0,1,.44,0v.23a.7.7,0,0,1,.65-.31C118.46,25.36,118.8,25.67,118.8,26.57Zm-.47,0c0-.65-.16-.85-.53-.85a.52.52,0,0,0-.49.56v.57a.53.53,0,0,0,.49.58C118.17,27.43,118.33,27.23,118.33,26.57Z"/><path class="cls-5" d="M119.16,26.57c0-.87.38-1.21,1-1.21s1,.34,1,1.21-.37,1.22-1,1.22S119.16,27.45,119.16,26.57Zm1.52,0c0-.67-.21-.86-.53-.86s-.53.19-.53.86.2.87.53.87S120.68,27.25,120.68,26.57Z"/><path class="cls-5" d="M121.45,27.63a.42.42,0,0,1,.12-.32,1.77,1.77,0,0,0,.6.11c.29,0,.46-.1.46-.33s-.25-.3-.52-.38-.62-.22-.62-.65.27-.7.83-.7a1.5,1.5,0,0,1,.64.12.41.41,0,0,1-.12.31,1.73,1.73,0,0,0-.47-.07c-.31,0-.46.11-.46.32s.27.28.55.37.61.22.61.67-.28.71-.86.71A2,2,0,0,1,121.45,27.63Zm.47-2.66.44-.64a.45.45,0,0,1,.38.16l-.57.62A.32.32,0,0,1,121.92,25Z"/><path class="cls-5" d="M123.48,27.71V25.44a.61.61,0,0,1,.22,0,.52.52,0,0,1,.21,0v.31a.65.65,0,0,1,.57-.38.66.66,0,0,1,.38.11.54.54,0,0,1-.19.37.47.47,0,0,0-.28-.09.6.6,0,0,0-.47.36v1.59a.68.68,0,0,1-.22,0A.61.61,0,0,1,123.48,27.71Z"/><path class="cls-5" d="M126.78,26.71h-1.33c0,.53.23.7.61.7a1,1,0,0,0,.52-.13.45.45,0,0,1,.14.31,1.24,1.24,0,0,1-.74.2c-.66,0-1-.41-1-1.22s.39-1.21,1-1.21a.79.79,0,0,1,.86.89A2,2,0,0,1,126.78,26.71Zm-1.34-.3h1a1.25,1.25,0,0,0,0-.21c0-.27-.12-.49-.45-.49S125.48,25.9,125.44,26.41Z"/><path class="cls-5" d="M129.09,24.45v3.26a.52.52,0,0,1-.19,0,.62.62,0,0,1-.2,0l0-.25a.73.73,0,0,1-.66.33c-.51,0-.84-.31-.84-1.21s.32-1.22.84-1.22a.72.72,0,0,1,.64.31V24.45a.65.65,0,0,1,.23,0A.58.58,0,0,1,129.09,24.45Zm-.44,2.42v-.59a.52.52,0,0,0-.49-.56c-.36,0-.53.21-.53.86s.17.85.53.85A.51.51,0,0,0,128.65,26.87Z"/><path class="cls-5" d="M129.64,27.71V25.44a.82.82,0,0,1,.44,0v.23a.9.9,0,0,1,.69-.31.62.62,0,0,1,.68.67v1.68a.68.68,0,0,1-.22,0,.61.61,0,0,1-.22,0V26.12a.37.37,0,0,0-.42-.4.63.63,0,0,0-.51.31v1.68a.82.82,0,0,1-.44,0Z"/><path class="cls-5" d="M132,24.93v-.4a.75.75,0,0,1,.24,0,.83.83,0,0,1,.24,0v.4a1.22,1.22,0,0,1-.24,0A1.1,1.1,0,0,1,132,24.93Zm0,2.78V25.44a.55.55,0,0,1,.22,0,.61.61,0,0,1,.22,0v2.27a.82.82,0,0,1-.44,0Z"/><path class="cls-5" d="M133,27.71V25.44a.82.82,0,0,1,.44,0v.22a.84.84,0,0,1,.65-.3.58.58,0,0,1,.58.35.88.88,0,0,1,.73-.35A.61.61,0,0,1,136,26v1.68a.68.68,0,0,1-.22,0,.61.61,0,0,1-.22,0V26.12c0-.26-.12-.4-.38-.4a.55.55,0,0,0-.48.31v1.68a.72.72,0,0,1-.23,0,.61.61,0,0,1-.22,0V26.12c0-.26-.12-.4-.38-.4a.59.59,0,0,0-.48.31v1.68a.68.68,0,0,1-.22,0A.61.61,0,0,1,133,27.71Z"/><path class="cls-5" d="M137.34,27.63a.42.42,0,0,1,.12-.32,1.77,1.77,0,0,0,.6.11c.29,0,.46-.1.46-.33s-.25-.3-.52-.38-.62-.22-.62-.65.27-.7.83-.7a1.41,1.41,0,0,1,.63.12.37.37,0,0,1-.11.31,1.73,1.73,0,0,0-.47-.07c-.31,0-.46.11-.46.32s.27.28.54.37.62.22.62.67-.28.71-.86.71A2,2,0,0,1,137.34,27.63Zm.47-2.66.44-.64a.45.45,0,0,1,.38.16l-.57.62A.32.32,0,0,1,137.81,25Z"/><path class="cls-5" d="M139.37,27.71V25.44a.61.61,0,0,1,.22,0,.52.52,0,0,1,.21,0v.31a.65.65,0,0,1,.57-.38.66.66,0,0,1,.38.11.54.54,0,0,1-.19.37.47.47,0,0,0-.28-.09.6.6,0,0,0-.47.36v1.59a.68.68,0,0,1-.22,0A.61.61,0,0,1,139.37,27.71Z"/><path class="cls-5" d="M140.88,26.57c0-.87.38-1.21,1-1.21s1,.34,1,1.21-.38,1.22-1,1.22S140.88,27.45,140.88,26.57Zm1.52,0c0-.67-.2-.86-.53-.86s-.53.19-.53.86.2.87.53.87S142.4,27.25,142.4,26.57Z"/><path class="cls-5" d="M145.14,24.45v3.26a.52.52,0,0,1-.19,0,.62.62,0,0,1-.2,0l0-.25a.73.73,0,0,1-.66.33c-.51,0-.84-.31-.84-1.21s.32-1.22.84-1.22a.72.72,0,0,1,.64.31V24.45a.82.82,0,0,1,.44,0Zm-.44,2.42v-.59a.52.52,0,0,0-.49-.56c-.36,0-.53.21-.53.86s.17.85.53.85A.51.51,0,0,0,144.7,26.87Z"/><path class="cls-5" d="M145.59,26.57c0-.87.38-1.21,1-1.21s1,.34,1,1.21-.38,1.22-1,1.22S145.59,27.45,145.59,26.57Zm1.52,0c0-.67-.2-.86-.53-.86s-.53.19-.53.86.2.87.53.87S147.11,27.25,147.11,26.57Z"/><path class="cls-5" d="M148.44,27.71l-.67-2.27a.68.68,0,0,1,.22,0,.44.44,0,0,1,.2,0l.41,1.37a2.14,2.14,0,0,1,.1.48h0a2.93,2.93,0,0,1,.1-.48l.41-1.37a1,1,0,0,1,.23,0,.61.61,0,0,1,.22,0l.4,1.36a3.22,3.22,0,0,1,.1.49h0a2.68,2.68,0,0,1,.11-.49l.41-1.36a.55.55,0,0,1,.2,0,.46.46,0,0,1,.19,0l-.67,2.27a.9.9,0,0,1-.25,0,1,1,0,0,1-.25,0l-.35-1.19a3.44,3.44,0,0,1-.13-.66h0a2.7,2.7,0,0,1-.13.66l-.36,1.19a.88.88,0,0,1-.24,0A1,1,0,0,1,148.44,27.71Z"/><path class="cls-5" d="M151.42,24.93v-.4a.65.65,0,0,1,.23,0,.75.75,0,0,1,.24,0v.4a1.1,1.1,0,0,1-.24,0A.94.94,0,0,1,151.42,24.93Zm0,2.78V25.44a.82.82,0,0,1,.44,0v2.27a.82.82,0,0,1-.44,0Z"/><path class="cls-5" d="M152.3,27.63a.38.38,0,0,1,.11-.32,1.78,1.78,0,0,0,.61.11c.29,0,.46-.1.46-.33s-.26-.3-.52-.38-.63-.22-.63-.65.27-.7.83-.7a1.5,1.5,0,0,1,.64.12.37.37,0,0,1-.11.31,1.81,1.81,0,0,0-.48-.07c-.31,0-.46.11-.46.32s.28.28.55.37.61.22.61.67-.27.71-.86.71A1.9,1.9,0,0,1,152.3,27.63Z"/><path class="cls-5" d="M156.19,27.71a.83.83,0,0,1-.24,0,1,1,0,0,1-.25,0l-.66-1h-.27v1a.68.68,0,0,1-.22,0,.8.8,0,0,1-.23,0V24.44a1.17,1.17,0,0,1,.23,0,1.12,1.12,0,0,1,.22,0v1.92h.28l.59-.92a.72.72,0,0,1,.23,0,.76.76,0,0,1,.22,0l-.67,1Z"/><path class="cls-5" d="M158.27,25.44v2.27a.61.61,0,0,1-.22,0,.68.68,0,0,1-.22,0v-.23a.88.88,0,0,1-.69.31.62.62,0,0,1-.68-.67V25.44a.72.72,0,0,1,.23,0,.61.61,0,0,1,.22,0V27c0,.25.13.39.41.39a.61.61,0,0,0,.51-.31V25.44a.68.68,0,0,1,.22,0A.61.61,0,0,1,158.27,25.44Z"/><path class="cls-5" d="M159.72,27.71V25.44a.61.61,0,0,1,.22,0,.52.52,0,0,1,.21,0v.31a.67.67,0,0,1,.57-.38.64.64,0,0,1,.38.11.54.54,0,0,1-.19.37.44.44,0,0,0-.27-.09.61.61,0,0,0-.48.36v1.59a.82.82,0,0,1-.44,0Z"/><path class="cls-5" d="M163,26.23v1.48a.55.55,0,0,1-.36,0l-.07-.29a.69.69,0,0,1-.69.37.65.65,0,0,1-.69-.73c0-.48.29-.7.85-.7a3.54,3.54,0,0,1,.52,0v-.18c0-.32-.14-.47-.47-.47a2,2,0,0,0-.6.1.26.26,0,0,1-.09-.13.41.41,0,0,1,0-.19,2,2,0,0,1,.78-.16C162.82,25.36,163,25.66,163,26.23Zm-.44.61v-.16c-.1,0-.29,0-.45,0-.31,0-.47.12-.47.41a.35.35,0,0,0,.39.4A.55.55,0,0,0,162.58,26.84Z"/><path class="cls-5" d="M163.55,27.71V25.44a.82.82,0,0,1,.44,0v.23a.91.91,0,0,1,.69-.31.62.62,0,0,1,.68.67v1.68a.68.68,0,0,1-.22,0,.61.61,0,0,1-.22,0V26.12a.36.36,0,0,0-.41-.4A.64.64,0,0,0,164,26v1.68a.82.82,0,0,1-.44,0Z"/><path class="cls-5" d="M167.8,25.44l-.88,2.67c-.15.47-.32.74-.78.74a1.19,1.19,0,0,1-.29,0,.47.47,0,0,1,0-.17.37.37,0,0,1,0-.17l.2,0c.22,0,.33-.07.45-.46l.1-.29a.35.35,0,0,1-.14,0l-.84-2.27a.9.9,0,0,1,.46,0l.51,1.35a4.71,4.71,0,0,1,.16.52h0s0-.22.14-.52l.45-1.35a.61.61,0,0,1,.22,0A.68.68,0,0,1,167.8,25.44Z"/><path class="cls-5" d="M170.86,26.57c0,.91-.33,1.22-.84,1.22a.71.71,0,0,1-.64-.31v1.27a.72.72,0,0,1-.23,0,.68.68,0,0,1-.22,0V25.44a.68.68,0,0,1,.22,0,.72.72,0,0,1,.23,0v.23a.69.69,0,0,1,.64-.31C170.53,25.36,170.86,25.67,170.86,26.57Zm-.46,0c0-.65-.17-.85-.53-.85a.51.51,0,0,0-.49.56v.57a.53.53,0,0,0,.49.58C170.23,27.43,170.4,27.23,170.4,26.57Z"/><path class="cls-5" d="M171.22,26.57c0-.87.38-1.21,1-1.21s1,.34,1,1.21-.38,1.22-1,1.22S171.22,27.45,171.22,26.57Zm1.52,0c0-.67-.2-.86-.53-.86s-.53.19-.53.86.2.87.53.87S172.74,27.25,172.74,26.57Z"/><path class="cls-5" d="M173.55,26.57c0-.87.38-1.21,1-1.21s1,.34,1,1.21-.38,1.22-1,1.22S173.55,27.45,173.55,26.57Zm1.52,0c0-.67-.2-.86-.53-.86s-.53.19-.53.86.21.87.53.87S175.07,27.25,175.07,26.57Z"/><path class="cls-5" d="M177.91,26.57c0,.91-.33,1.22-.84,1.22a.72.72,0,0,1-.65-.31v1.27a.61.61,0,0,1-.22,0,.68.68,0,0,1-.22,0V25.44a.68.68,0,0,1,.22,0,.61.61,0,0,1,.22,0v.23a.7.7,0,0,1,.65-.31C177.57,25.36,177.91,25.67,177.91,26.57Zm-.46,0c0-.65-.17-.85-.54-.85a.52.52,0,0,0-.49.56v.57a.53.53,0,0,0,.49.58C177.28,27.43,177.45,27.23,177.45,26.57Z"/><path class="cls-5" d="M180.06,26.71h-1.34c0,.53.24.7.62.7a1.07,1.07,0,0,0,.52-.13.45.45,0,0,1,.14.31,1.24,1.24,0,0,1-.74.2c-.67,0-1-.41-1-1.22s.39-1.21,1-1.21a.78.78,0,0,1,.85.89A2.46,2.46,0,0,1,180.06,26.71Zm-1.34-.3h1a1.34,1.34,0,0,0,0-.21c0-.27-.12-.49-.44-.49S178.75,25.9,178.72,26.41Z"/><path class="cls-5" d="M180.54,27.71V25.44a.61.61,0,0,1,.22,0,.52.52,0,0,1,.21,0v.31a.65.65,0,0,1,.57-.38.66.66,0,0,1,.38.11.54.54,0,0,1-.19.37.47.47,0,0,0-.28-.09.6.6,0,0,0-.47.36v1.59a.68.68,0,0,1-.22,0A.61.61,0,0,1,180.54,27.71Z"/><path class="cls-5" d="M183.84,26.23v1.48a.55.55,0,0,1-.36,0l-.06-.29a.71.71,0,0,1-.7.37.65.65,0,0,1-.69-.73c0-.48.29-.7.86-.7a3.49,3.49,0,0,1,.51,0v-.18c0-.32-.14-.47-.47-.47a2,2,0,0,0-.59.1.25.25,0,0,1-.1-.13.41.41,0,0,1,0-.19,2,2,0,0,1,.78-.16C183.64,25.36,183.84,25.66,183.84,26.23Zm-.44.61v-.16c-.1,0-.28,0-.45,0s-.47.12-.47.41a.35.35,0,0,0,.39.4A.55.55,0,0,0,183.4,26.84Z"/><path class="cls-5" d="M184.27,26.58c0-.8.34-1.22,1-1.22a1.18,1.18,0,0,1,.59.12.46.46,0,0,1-.13.32,1,1,0,0,0-.38-.07c-.43,0-.61.27-.61.85s.19.83.62.83a1,1,0,0,0,.41-.08.42.42,0,0,1,.13.31,1.1,1.1,0,0,1-.63.15C184.61,27.79,184.27,27.37,184.27,26.58Z"/><path class="cls-5" d="M188.21,25.44l-.88,2.67c-.15.47-.32.74-.78.74a1.19,1.19,0,0,1-.29,0,.47.47,0,0,1,0-.17.37.37,0,0,1,0-.17l.2,0c.22,0,.33-.07.45-.46l.1-.29a.35.35,0,0,1-.14,0L186,25.44a.9.9,0,0,1,.46,0l.51,1.35a4.71,4.71,0,0,1,.16.52h0s0-.22.14-.52l.45-1.35a.61.61,0,0,1,.22,0A.68.68,0,0,1,188.21,25.44Z"/><path class="cls-5" d="M188,28.8a.31.31,0,0,1,0-.1.46.46,0,0,1,0-.23.79.79,0,0,0,.17,0c.22,0,.33-.11.33-.38V25.44a.61.61,0,0,1,.22,0,.72.72,0,0,1,.23,0v2.69c0,.47-.23.72-.66.72A.84.84,0,0,1,188,28.8Zm.52-3.87v-.41a1,1,0,0,1,.23,0,1.1,1.1,0,0,1,.24,0v.41a1.1,1.1,0,0,1-.24,0A1,1,0,0,1,188.53,24.93Z"/><path class="cls-5" d="M189.54,27.71V25.44a.61.61,0,0,1,.22,0,.72.72,0,0,1,.23,0v.23a.88.88,0,0,1,.68-.31.62.62,0,0,1,.68.67v1.68a.68.68,0,0,1-.22,0,.61.61,0,0,1-.22,0V26.12a.36.36,0,0,0-.41-.4A.61.61,0,0,0,190,26v1.68a.72.72,0,0,1-.23,0A.61.61,0,0,1,189.54,27.71Z"/><path class="cls-5" d="M193.57,26.71h-1.33c0,.53.24.7.62.7a1,1,0,0,0,.51-.13.42.42,0,0,1,.15.31,1.24,1.24,0,0,1-.74.2c-.67,0-1-.41-1-1.22s.38-1.21,1-1.21a.78.78,0,0,1,.86.89A2,2,0,0,1,193.57,26.71Zm-1.33-.3h1a1.34,1.34,0,0,0,0-.21c0-.27-.12-.49-.44-.49S192.27,25.9,192.24,26.41Z"/><path class="cls-5" d="M193.54,28.8a.31.31,0,0,1,0-.1.46.46,0,0,1,0-.23.68.68,0,0,0,.17,0c.21,0,.33-.11.33-.38V25.44a.55.55,0,0,1,.22,0,.68.68,0,0,1,.22,0v2.69c0,.47-.23.72-.65.72A.84.84,0,0,1,193.54,28.8Zm.51-3.87v-.41a1.1,1.1,0,0,1,.24,0,1,1,0,0,1,.23,0v.41a1,1,0,0,1-.23,0A1.1,1.1,0,0,1,194.05,24.93Z"/><path class="cls-5" d="M195,25.44a2.49,2.49,0,0,1,.36-1.26.14.14,0,0,1,.1,0,.18.18,0,0,1,.08.07,2.41,2.41,0,0,0,0,2.33s0,0-.08.07a.25.25,0,0,1-.1,0A2.55,2.55,0,0,1,195,25.44Z"/><path class="cls-5" d="M196.79,26a.37.37,0,0,1,0,.12.36.36,0,0,1,0,.11h-1.06a1,1,0,0,1,0-.18c0-.4.26-.54.5-.69s.35-.24.35-.43-.09-.27-.33-.27a1.15,1.15,0,0,0-.38.07.21.21,0,0,1-.07-.19,1.3,1.3,0,0,1,.49-.09c.32,0,.56.13.56.47s-.18.43-.48.61-.37.19-.38.4a.15.15,0,0,0,0,.07Z"/><path class="cls-5" d="M197.13,26.68a.18.18,0,0,1-.08-.07,2.41,2.41,0,0,0,0-2.33.18.18,0,0,1,.08-.07.16.16,0,0,1,.11,0,2.54,2.54,0,0,1,.35,1.26,2.6,2.6,0,0,1-.35,1.27A.27.27,0,0,1,197.13,26.68Z"/><path class="cls-5" d="M31.31,32.13a.92.92,0,0,1-.08.4,1.12,1.12,0,0,1-.23.35,1.11,1.11,0,0,1-.34.22.92.92,0,0,1-.4.08.94.94,0,0,1-.41-.08,1.11,1.11,0,0,1-.34-.22,1.12,1.12,0,0,1-.23-.35.92.92,0,0,1-.08-.4,1,1,0,0,1,.08-.41,1.08,1.08,0,0,1,.23-.34,1.13,1.13,0,0,1,.34-.23,1.1,1.1,0,0,1,.4-.08,1.15,1.15,0,0,1,.41.08,1.08,1.08,0,0,1,.57.57A1,1,0,0,1,31.31,32.13Z"/><path class="cls-5" d="M33,33.61l-.66-2.28a1,1,0,0,1,.22,0,.59.59,0,0,1,.19,0l.42,1.38a2.67,2.67,0,0,1,.09.48h0a3.24,3.24,0,0,1,.11-.48l.4-1.38a1.5,1.5,0,0,1,.24,0,1,1,0,0,1,.22,0l.4,1.37a2.9,2.9,0,0,1,.09.49h0c0-.1,0-.26.11-.49l.41-1.37a.8.8,0,0,1,.2,0,.67.67,0,0,1,.19,0L35,33.61a1,1,0,0,1-.26,0,.88.88,0,0,1-.24,0l-.36-1.19a2.6,2.6,0,0,1-.12-.67h0a2.33,2.33,0,0,1-.13.67l-.35,1.19a.9.9,0,0,1-.25,0A1,1,0,0,1,33,33.61Z"/><path class="cls-5" d="M35.88,33.52a.41.41,0,0,1,.12-.31,1.77,1.77,0,0,0,.6.11c.3,0,.46-.11.46-.33s-.25-.3-.52-.38-.62-.22-.62-.65.27-.7.83-.7a1.5,1.5,0,0,1,.64.12.42.42,0,0,1-.11.31,1.88,1.88,0,0,0-.48-.07c-.31,0-.46.11-.46.32s.27.27.55.36.61.23.61.68-.28.7-.86.7A1.79,1.79,0,0,1,35.88,33.52Z"/><path class="cls-5" d="M39.86,32.47c0,.91-.33,1.21-.84,1.21a.73.73,0,0,1-.65-.3v1.27a.89.89,0,0,1-.22,0,1,1,0,0,1-.22,0V31.33a1,1,0,0,1,.22,0,.89.89,0,0,1,.22,0v.23a.73.73,0,0,1,.65-.3C39.52,31.26,39.86,31.56,39.86,32.47Zm-.46,0c0-.65-.17-.85-.54-.85a.52.52,0,0,0-.49.56v.57a.53.53,0,0,0,.49.58C39.23,33.33,39.4,33.13,39.4,32.47Z"/><path class="cls-5" d="M40.24,32.47c0-.87.38-1.21,1-1.21s1,.34,1,1.21-.38,1.21-1,1.21S40.24,33.35,40.24,32.47Zm1.52,0c0-.68-.2-.87-.53-.87s-.53.19-.53.87.2.87.53.87S41.76,33.15,41.76,32.47Z"/><path class="cls-5" d="M42.69,33.61V31.33a1.22,1.22,0,0,1,.44,0v.23a.84.84,0,0,1,.66-.3.58.58,0,0,1,.57.35.88.88,0,0,1,.73-.35.61.61,0,0,1,.65.67v1.68a.68.68,0,0,1-.22,0,.61.61,0,0,1-.22,0V32c0-.27-.12-.4-.38-.4a.55.55,0,0,0-.48.31v1.68a.68.68,0,0,1-.22,0,.61.61,0,0,1-.22,0V32c0-.27-.12-.4-.38-.4a.59.59,0,0,0-.49.31v1.68a.68.68,0,0,1-.22,0A.61.61,0,0,1,42.69,33.61Z"/><path class="cls-5" d="M48,32.13v1.48a.44.44,0,0,1-.18,0,.5.5,0,0,1-.18,0l-.06-.29a.7.7,0,0,1-.7.36.64.64,0,0,1-.69-.73c0-.47.29-.69.86-.69a3.3,3.3,0,0,1,.51,0V32.1a.41.41,0,0,0-.47-.47,1.82,1.82,0,0,0-.59.11.32.32,0,0,1-.1-.13.41.41,0,0,1,0-.19,2,2,0,0,1,.78-.16C47.76,31.26,48,31.56,48,32.13Zm-.44.61v-.16c-.1,0-.28,0-.45,0s-.46.12-.46.41.14.4.38.4A.55.55,0,0,0,47.52,32.74Z"/><path class="cls-5" d="M50.42,31.61h-.36a.85.85,0,0,1,.12.46c0,.49-.3.79-.88.79l-.2,0a.44.44,0,0,0-.09.27c.05.42,1.41,0,1.41.88,0,.44-.41.77-1.15.77s-1-.26-1-.62a.77.77,0,0,1,.39-.62.35.35,0,0,1-.1-.26.8.8,0,0,1,.22-.49.71.71,0,0,1-.4-.7.77.77,0,0,1,.87-.8,1.06,1.06,0,0,1,.5.11l.62-.1A.5.5,0,0,1,50.42,31.61Zm-1.47,2a.54.54,0,0,0-.2.41c0,.23.17.39.53.39s.71-.16.71-.4S49.36,33.75,49,33.63Zm.8-1.58a.43.43,0,0,0-.45-.49c-.26,0-.44.16-.44.49s.18.5.44.5S49.75,32.39,49.75,32.05Z"/><path class="cls-5" d="M52.45,32.13v1.48a.55.55,0,0,1-.36,0L52,33.32a.69.69,0,0,1-.69.36.64.64,0,0,1-.69-.73c0-.47.29-.69.85-.69a3.54,3.54,0,0,1,.52,0V32.1a.41.41,0,0,0-.47-.47,1.84,1.84,0,0,0-.6.11.26.26,0,0,1-.09-.13.41.41,0,0,1,0-.19,2,2,0,0,1,.78-.16C52.25,31.26,52.45,31.56,52.45,32.13Zm-.44.61v-.16c-.1,0-.29,0-.45,0-.31,0-.47.12-.47.41a.35.35,0,0,0,.39.4A.55.55,0,0,0,52,32.74Z"/><path class="cls-5" d="M55.84,31.33v2.28a.82.82,0,0,1-.44,0v-2h-.9v2a.68.68,0,0,1-.22,0,.72.72,0,0,1-.23,0v-2h-.29a.68.68,0,0,1,0-.17.55.55,0,0,1,0-.16h.29V31c0-.46.25-.73.89-.73a2.64,2.64,0,0,1,.88.15.48.48,0,0,1-.12.31,2.43,2.43,0,0,0-.71-.11c-.37,0-.49.12-.49.39v.28h1.11A1.45,1.45,0,0,1,55.84,31.33Z"/><path class="cls-5" d="M58,33.46a.5.5,0,0,1,0,.18H56.3a.54.54,0,0,1,0-.19.43.43,0,0,1,0-.17l1.18-1.61H56.37a.76.76,0,0,1,0-.19.59.59,0,0,1,0-.17H58a.72.72,0,0,1,0,.17,1,1,0,0,1,0,.19l-1.18,1.61H58A.44.44,0,0,1,58,33.46Z"/><path class="cls-5" d="M57.91,34.7a.31.31,0,0,1,0-.1.46.46,0,0,1,0-.23.68.68,0,0,0,.17,0c.21,0,.33-.11.33-.38V31.33a.8.8,0,0,1,.22,0,1,1,0,0,1,.22,0V34c0,.47-.23.72-.65.72A.84.84,0,0,1,57.91,34.7Zm.51-3.87v-.41a1.1,1.1,0,0,1,.24,0,1,1,0,0,1,.23,0v.41a1,1,0,0,1-.23,0A1.1,1.1,0,0,1,58.42,30.83Z"/><path class="cls-5" d="M59.36,32.47c0-.87.38-1.21,1-1.21s1,.34,1,1.21-.38,1.21-1,1.21S59.36,33.35,59.36,32.47Zm1.52,0c0-.68-.2-.87-.53-.87s-.53.19-.53.87.21.87.53.87S60.88,33.15,60.88,32.47Z"/><path class="cls-5" d="M61.83,33.61V30.35a.82.82,0,0,1,.44,0v3.26a.82.82,0,0,1-.44,0Z"/><path class="cls-5" d="M62.76,32.47c0-.87.38-1.21,1-1.21s1,.34,1,1.21-.38,1.21-1,1.21S62.76,33.35,62.76,32.47Zm1.52,0c0-.68-.2-.87-.53-.87s-.53.19-.53.87.2.87.53.87S64.28,33.15,64.28,32.47Z"/><path class="cls-5" d="M67.12,31.61h-.37a.85.85,0,0,1,.12.46c0,.49-.3.79-.87.79l-.2,0a.44.44,0,0,0-.09.27c0,.42,1.4,0,1.4.88,0,.44-.41.77-1.14.77s-1-.26-1-.62a.77.77,0,0,1,.39-.62.31.31,0,0,1-.1-.26.75.75,0,0,1,.22-.49.71.71,0,0,1-.41-.7.77.77,0,0,1,.88-.8,1.12,1.12,0,0,1,.5.11l.62-.1A.56.56,0,0,1,67.12,31.61Zm-1.47,2a.55.55,0,0,0-.21.41c0,.23.17.39.54.39s.71-.16.71-.4S66.06,33.75,65.65,33.63Zm.8-1.58a.45.45,0,1,0-.9,0c0,.34.18.5.45.5S66.45,32.39,66.45,32.05Z"/><path class="cls-5" d="M67.49,30.83v-.4a.75.75,0,0,1,.24,0,.83.83,0,0,1,.24,0v.4a1.22,1.22,0,0,1-.24,0A1.1,1.1,0,0,1,67.49,30.83Zm0,2.78V31.33a.8.8,0,0,1,.22,0,1,1,0,0,1,.22,0v2.28a.68.68,0,0,1-.22,0A.61.61,0,0,1,67.51,33.61Z"/><path class="cls-5" d="M68.43,32.48c0-.8.34-1.22,1-1.22a1.2,1.2,0,0,1,.6.12.47.47,0,0,1-.14.32.92.92,0,0,0-.38-.07c-.42,0-.6.27-.6.85s.19.83.62.83a1.05,1.05,0,0,0,.41-.08.42.42,0,0,1,.13.31,1.22,1.22,0,0,1-.64.14C68.77,33.68,68.43,33.27,68.43,32.48Z"/><path class="cls-5" d="M72,33.46a.5.5,0,0,1,0,.18H70.32a.54.54,0,0,1,0-.19.74.74,0,0,1,0-.17l1.18-1.61H70.4a.52.52,0,0,1,0-.19.41.41,0,0,1,0-.17H72a.65.65,0,0,1,0,.17,1,1,0,0,1,0,.19l-1.18,1.61H72A.44.44,0,0,1,72,33.46Z"/><path class="cls-5" d="M72.45,33.61V31.33a1.22,1.22,0,0,1,.44,0v.23a.89.89,0,0,1,.69-.3.62.62,0,0,1,.68.67v1.68a.68.68,0,0,1-.22,0,.61.61,0,0,1-.22,0V32a.37.37,0,0,0-.42-.4.63.63,0,0,0-.51.31v1.68a.82.82,0,0,1-.44,0Z"/><path class="cls-5" d="M76.73,31.33,75.85,34c-.15.47-.32.74-.78.74a1.19,1.19,0,0,1-.29,0,.47.47,0,0,1,0-.17.37.37,0,0,1,0-.17s.1,0,.2,0,.32-.07.45-.46l.1-.29a.35.35,0,0,1-.14,0l-.84-2.28a1.33,1.33,0,0,1,.46,0l.51,1.36a4.71,4.71,0,0,1,.16.52h0a4.2,4.2,0,0,1,.14-.52l.45-1.36a.89.89,0,0,1,.22,0A1,1,0,0,1,76.73,31.33Z"/><path class="cls-5" d="M79.83,32.47c0,.91-.33,1.21-.84,1.21a.71.71,0,0,1-.64-.3v1.27a1,1,0,0,1-.22,0,.89.89,0,0,1-.22,0V31.33a.89.89,0,0,1,.22,0,1,1,0,0,1,.22,0v.23a.71.71,0,0,1,.64-.3C79.5,31.26,79.83,31.56,79.83,32.47Zm-.46,0c0-.65-.17-.85-.53-.85a.51.51,0,0,0-.49.56v.57a.53.53,0,0,0,.49.58C79.2,33.33,79.37,33.13,79.37,32.47Z"/><path class="cls-5" d="M80.31,33.61V31.33a.89.89,0,0,1,.22,0,.75.75,0,0,1,.21,0v.32a.65.65,0,0,1,.57-.38.66.66,0,0,1,.38.11.57.57,0,0,1-.2.37.38.38,0,0,0-.27-.09.59.59,0,0,0-.48.36v1.59a.82.82,0,0,1-.44,0Z"/><path class="cls-5" d="M81.85,32.47c0-.87.38-1.21,1-1.21s1,.34,1,1.21-.38,1.21-1,1.21S81.85,33.35,81.85,32.47Zm1.52,0c0-.68-.2-.87-.53-.87s-.53.19-.53.87.2.87.53.87S83.37,33.15,83.37,32.47Z"/><path class="cls-5" d="M84.2,32.48c0-.8.34-1.22,1-1.22a1.2,1.2,0,0,1,.6.12.47.47,0,0,1-.14.32.92.92,0,0,0-.38-.07c-.42,0-.6.27-.6.85s.19.83.62.83a1.05,1.05,0,0,0,.41-.08.42.42,0,0,1,.13.31,1.22,1.22,0,0,1-.64.14C84.54,33.68,84.2,33.27,84.2,32.48Z"/><path class="cls-5" d="M87.85,32.61H86.51c0,.52.24.7.62.7a1,1,0,0,0,.52-.14.5.5,0,0,1,.14.32,1.29,1.29,0,0,1-.74.19c-.66,0-1-.4-1-1.21s.39-1.21,1-1.21a.79.79,0,0,1,.86.88A2,2,0,0,1,87.85,32.61Zm-1.34-.3h1a1.34,1.34,0,0,0,0-.21c0-.27-.12-.5-.44-.5S86.54,31.8,86.51,32.31Z"/><path class="cls-5" d="M88.22,33.52a.37.37,0,0,1,.11-.31,1.83,1.83,0,0,0,.61.11c.29,0,.46-.11.46-.33s-.26-.3-.52-.38-.63-.22-.63-.65.27-.7.83-.7a1.5,1.5,0,0,1,.64.12.39.39,0,0,1-.11.31,1.81,1.81,0,0,0-.48-.07c-.31,0-.46.11-.46.32s.28.27.55.36.61.23.61.68-.27.7-.86.7A1.77,1.77,0,0,1,88.22,33.52Z"/><path class="cls-5" d="M93.1,31.61h-.37a.85.85,0,0,1,.12.46c0,.49-.3.79-.87.79l-.2,0a.44.44,0,0,0-.09.27c0,.42,1.4,0,1.4.88,0,.44-.41.77-1.14.77s-1-.26-1-.62a.79.79,0,0,1,.38-.62.34.34,0,0,1-.09-.26.75.75,0,0,1,.22-.49.71.71,0,0,1-.41-.7.77.77,0,0,1,.88-.8,1.12,1.12,0,0,1,.5.11l.62-.1A.56.56,0,0,1,93.1,31.61Zm-1.47,2a.55.55,0,0,0-.21.41c0,.23.17.39.54.39s.71-.16.71-.4S92,33.75,91.63,33.63Zm.79-1.58c0-.33-.17-.49-.44-.49a.43.43,0,0,0-.45.49c0,.34.18.5.45.5S92.42,32.39,92.42,32.05Z"/><path class="cls-5" d="M93.35,32.47c0-.87.38-1.21,1-1.21s1,.34,1,1.21-.38,1.21-1,1.21S93.35,33.35,93.35,32.47Zm1.52,0c0-.68-.2-.87-.53-.87s-.53.19-.53.87.2.87.53.87S94.87,33.15,94.87,32.47Z"/><path class="cls-5" d="M95.28,34.7a.31.31,0,0,1,0-.1.46.46,0,0,1,0-.23.79.79,0,0,0,.17,0c.22,0,.33-.11.33-.38V31.33a1.22,1.22,0,0,1,.44,0V34c0,.47-.22.72-.65.72A.84.84,0,0,1,95.28,34.7Zm.51-3.87v-.41a1.22,1.22,0,0,1,.24,0,1,1,0,0,1,.23,0v.41a1,1,0,0,1-.23,0A1.22,1.22,0,0,1,95.79,30.83Z"/><path class="cls-5" d="M98.53,32.61H97.19c0,.52.24.7.62.7a1,1,0,0,0,.52-.14.5.5,0,0,1,.14.32,1.29,1.29,0,0,1-.74.19c-.67,0-1-.4-1-1.21s.39-1.21,1-1.21a.78.78,0,0,1,.86.88A2.52,2.52,0,0,1,98.53,32.61Zm-1.34-.3h1a1.34,1.34,0,0,0,0-.21c0-.27-.12-.5-.44-.5S97.22,31.8,97.19,32.31Z"/><path class="cls-5" d="M99,33.61V31.33a1.22,1.22,0,0,1,.44,0v.23a.89.89,0,0,1,.69-.3.62.62,0,0,1,.68.67v1.68a.68.68,0,0,1-.22,0,.61.61,0,0,1-.22,0V32a.37.37,0,0,0-.42-.4.63.63,0,0,0-.51.31v1.68a.82.82,0,0,1-.44,0Z"/><path class="cls-5" d="M101.39,30.83v-.4a.65.65,0,0,1,.23,0,.75.75,0,0,1,.24,0v.4a1.1,1.1,0,0,1-.24,0A.94.94,0,0,1,101.39,30.83Zm0,2.78V31.33a1.22,1.22,0,0,1,.44,0v2.28a.82.82,0,0,1-.44,0Z"/><path class="cls-5" d="M104.09,32.13v1.48a.56.56,0,0,1-.36,0l-.06-.29a.71.71,0,0,1-.7.36.64.64,0,0,1-.69-.73c0-.47.29-.69.85-.69a3.54,3.54,0,0,1,.52,0V32.1a.41.41,0,0,0-.47-.47,1.84,1.84,0,0,0-.6.11.26.26,0,0,1-.09-.13.41.41,0,0,1,0-.19,2,2,0,0,1,.78-.16C103.89,31.26,104.09,31.56,104.09,32.13Zm-.44.61v-.16c-.1,0-.29,0-.45,0-.31,0-.47.12-.47.41a.35.35,0,0,0,.39.4A.55.55,0,0,0,103.65,32.74Z"/><path class="cls-5" d="M104.52,31.34a2.49,2.49,0,0,1,.36-1.26.19.19,0,0,1,.11,0,.26.26,0,0,1,.08.08,2.24,2.24,0,0,0-.3,1.16,2.3,2.3,0,0,0,.3,1.17.18.18,0,0,1-.08.07.27.27,0,0,1-.11,0A2.55,2.55,0,0,1,104.52,31.34Z"/><path class="cls-5" d="M106.34,31.94a.31.31,0,0,1,0,.11.37.37,0,0,1,0,.12h-1a1,1,0,0,1,0-.18c0-.4.26-.54.49-.7s.36-.23.36-.43-.1-.26-.34-.26a1.28,1.28,0,0,0-.38.07.21.21,0,0,1-.07-.19,1.19,1.19,0,0,1,.49-.1c.32,0,.57.14.57.48s-.18.43-.49.61-.37.18-.38.4c0,0,0,.05,0,.07Z"/><path class="cls-5" d="M106.68,32.58a.18.18,0,0,1-.08-.07,2.3,2.3,0,0,0,.3-1.17,2.24,2.24,0,0,0-.3-1.16.17.17,0,0,1,.08-.08.19.19,0,0,1,.11,0,2.54,2.54,0,0,1,.35,1.26,2.6,2.6,0,0,1-.35,1.27A.27.27,0,0,1,106.68,32.58Z"/></svg>