<svg id="Warstwa_1" data-name="Warstwa 1" xmlns="http://www.w3.org/2000/svg" xmlns:xlink="http://www.w3.org/1999/xlink" viewBox="0 0 317.08 235.74"><defs><style>.cls-1{fill:url(#Gradient_bez_nazwy_12);}.cls-2{fill:none;stroke:#fff;stroke-miterlimit:10;stroke-width:3px;}.cls-3{fill:#0066b1;}</style><linearGradient id="Gradient_bez_nazwy_12" x1="158.57" y1="76.38" x2="158.57" y2="235.45" gradientUnits="userSpaceOnUse"><stop offset="0" stop-color="#c3d93a"/><stop offset="0.73" stop-color="#fff"/></linearGradient></defs><title>o_glicerolu</title><polygon class="cls-1" points="0.15 76.38 97.67 76.38 159.86 108.75 221.51 76.38 316.98 76.38 316.98 235.45 0.15 235.45 0.15 76.38"/><polyline class="cls-2" points="0.56 82.14 95.48 82.14 158.77 117.17 224.24 82.14 317.53 82.14"/><path class="cls-3" d="M128.16,132c0,3.31-2.06,5.48-5.37,5.48h-3.94v6.82a3.92,3.92,0,0,1-1.27.17,3.84,3.84,0,0,1-1.31-.17V126.58h6.52C126.1,126.58,128.16,128.72,128.16,132Zm-2.69,0c0-2.14-1.07-3.39-3-3.39h-3.61v6.72h3.61C124.4,135.39,125.47,134.15,125.47,132.06Z"/><path class="cls-3" d="M130.08,137.93c0-4.93,2.14-6.8,5.58-6.8s5.55,1.87,5.55,6.8-2.12,6.82-5.55,6.82S130.08,142.88,130.08,137.93Zm8.56,0c0-3.81-1.14-4.88-3-4.88s-3,1.07-3,4.88,1.14,4.9,3,4.9S138.64,141.74,138.64,137.93Z"/><path class="cls-3" d="M154.52,126v18.37a3.48,3.48,0,0,1-1.07.15,3.88,3.88,0,0,1-1.12-.15l-.17-1.44a4.06,4.06,0,0,1-3.73,1.84c-2.86,0-4.73-1.72-4.73-6.8s1.84-6.82,4.73-6.82a4,4,0,0,1,3.6,1.7V126a4.24,4.24,0,0,1,1.27-.15A3.75,3.75,0,0,1,154.52,126ZM152,139.57v-3.31a2.88,2.88,0,0,0-2.73-3.11c-2,0-3,1.15-3,4.8s.95,4.78,3,4.78C151.07,142.73,152,141.19,152,139.57Z"/><path class="cls-3" d="M161.87,134.67v9.68a4.09,4.09,0,0,1-1.25.15,3.67,3.67,0,0,1-1.24-.15v-8.24l-1.72,1a1.79,1.79,0,0,1-.5-.6,1.65,1.65,0,0,1-.29-.75l2.51-1.46V126a3.67,3.67,0,0,1,1.24-.15,4.09,4.09,0,0,1,1.25.15v6.87l1.82-1a2,2,0,0,1,.49.59,1.91,1.91,0,0,1,.28.78Z"/><path class="cls-3" d="M166.18,137.93c0-4.93,2.14-6.8,5.57-6.8s5.55,1.87,5.55,6.8-2.11,6.82-5.55,6.82S166.18,142.88,166.18,137.93Zm8.56,0c0-3.81-1.15-4.88-3-4.88s-3,1.07-3,4.88,1.15,4.9,3,4.9S174.74,141.74,174.74,137.93Z"/><path class="cls-3" d="M189,143.5a2.59,2.59,0,0,1-.17,1h-9.31a3.24,3.24,0,0,1-.15-1.07,3,3,0,0,1,.15-1l6.64-9.08h-6.22a3.17,3.17,0,0,1-.15-1,2.76,2.76,0,0,1,.15-1h8.86a2.9,2.9,0,0,1,.15,1,3.87,3.87,0,0,1-.15,1.07l-6.64,9.08h6.67A2.53,2.53,0,0,1,189,143.5Zm-4.63-14.21a3.82,3.82,0,0,1-1.22-.15V127a3.82,3.82,0,0,1,1.22-.15,4,4,0,0,1,1.22.15v2.19A4,4,0,0,1,184.32,129.29Z"/><path class="cls-3" d="M201.15,138.7h-7.49c.2,3,1.34,3.93,3.46,3.93a5.79,5.79,0,0,0,2.91-.74,2.55,2.55,0,0,1,.82,1.76,7.17,7.17,0,0,1-4.18,1.1c-3.73,0-5.57-2.29-5.57-6.85s2.18-6.77,5.5-6.77c3.11,0,4.82,1.75,4.82,5A11.42,11.42,0,0,1,201.15,138.7ZM193.63,137H199a8,8,0,0,0,.08-1.2c0-1.51-.67-2.76-2.49-2.76C195,133.05,193.83,134.17,193.63,137Z"/><path class="cls-3" d="M55.32,170.26l-3.75-12.81a4.29,4.29,0,0,1,1.24-.15,2.63,2.63,0,0,1,1.1.15l2.34,7.71a15.51,15.51,0,0,1,.52,2.72h.07a19.39,19.39,0,0,1,.58-2.72l2.29-7.71A5.93,5.93,0,0,1,61,157.3a4.09,4.09,0,0,1,1.25.15l2.24,7.66a15.39,15.39,0,0,1,.52,2.77h.08a20.57,20.57,0,0,1,.59-2.74L68,157.45a3.48,3.48,0,0,1,1.12-.15,3,3,0,0,1,1.09.15l-3.76,12.81a6.66,6.66,0,0,1-2.81,0l-2-6.69a16.26,16.26,0,0,1-.7-3.76H60.9a16.32,16.32,0,0,1-.75,3.76l-2,6.69a6.79,6.79,0,0,1-1.39.15A7.43,7.43,0,0,1,55.32,170.26Z"/><path class="cls-3" d="M71.86,163.84c0-4.92,2.14-6.79,5.57-6.79S83,158.92,83,163.84s-2.12,6.82-5.55,6.82S71.86,168.8,71.86,163.84Zm8.56,0c0-3.8-1.15-4.87-3-4.87s-3,1.07-3,4.87,1.15,4.91,3,4.91S80.42,167.65,80.42,163.84Z"/><path class="cls-3" d="M96.3,151.9v18.36a3.48,3.48,0,0,1-1.07.15,3.88,3.88,0,0,1-1.12-.15l-.18-1.44a4,4,0,0,1-3.73,1.84c-2.86,0-4.73-1.71-4.73-6.79s1.84-6.82,4.73-6.82a4,4,0,0,1,3.61,1.69V151.9a4.16,4.16,0,0,1,1.27-.15A3.82,3.82,0,0,1,96.3,151.9Zm-2.49,13.59v-3.31a2.89,2.89,0,0,0-2.74-3.11c-2,0-3,1.14-3,4.8s.94,4.78,3,4.78A2.89,2.89,0,0,0,93.81,165.49Z"/><path class="cls-3" d="M99.86,170.26V157.45a3.93,3.93,0,0,1,1.25-.15,4,4,0,0,1,1.24.15v1.29a5,5,0,0,1,3.86-1.69,3.48,3.48,0,0,1,3.83,3.73v9.48a4.33,4.33,0,0,1-1.25.15,3.89,3.89,0,0,1-1.24-.15v-9c0-1.44-.75-2.21-2.31-2.21a3.48,3.48,0,0,0-2.89,1.71v9.48a4,4,0,0,1-1.24.15A3.93,3.93,0,0,1,99.86,170.26Z"/><path class="cls-3" d="M113,163.84c0-4.92,2.14-6.79,5.58-6.79s5.55,1.87,5.55,6.79-2.12,6.82-5.55,6.82S113,168.8,113,163.84Zm8.57,0c0-3.8-1.15-4.87-3-4.87s-3,1.07-3,4.87,1.15,4.91,3,4.91S121.52,167.65,121.52,163.84Z"/><path class="cls-3" d="M127,163.2a2.47,2.47,0,0,1,.15-.92h5.13a2.47,2.47,0,0,1,.15.92,2.54,2.54,0,0,1-.15.92h-5.13A2.54,2.54,0,0,1,127,163.2Z"/><path class="cls-3" d="M146.63,159l-2-.05a4.56,4.56,0,0,1,.67,2.54c0,2.76-1.69,4.45-4.92,4.45a7.87,7.87,0,0,1-1.12-.08,2.27,2.27,0,0,0-.53,1.52c.25,2.32,7.92-.17,7.92,5,0,2.43-2.32,4.28-6.45,4.28-3.71,0-5.35-1.45-5.35-3.49a4.27,4.27,0,0,1,2.19-3.46,2,2,0,0,1-.55-1.47,4.26,4.26,0,0,1,1.25-2.76,4,4,0,0,1-2.29-4c0-2.74,1.74-4.46,4.93-4.46a6.07,6.07,0,0,1,2.81.62l3.48-.6A3,3,0,0,1,146.63,159Zm-8.26,11.37a3,3,0,0,0-1.17,2.26c0,1.32,1,2.22,3,2.22,2.59,0,4-.9,4-2.24C144.22,170.46,140.66,171,138.37,170.39Zm4.48-8.91c0-1.87-1-2.74-2.51-2.74s-2.52.87-2.52,2.74,1,2.79,2.52,2.79S142.85,163.4,142.85,161.48Z"/><path class="cls-3" d="M149.22,170.26V151.9a3.78,3.78,0,0,1,1.25-.15,4,4,0,0,1,1.24.15v18.36a4,4,0,0,1-1.24.15A3.78,3.78,0,0,1,149.22,170.26Z"/><path class="cls-3" d="M155.32,154.59v-2.24a4.43,4.43,0,0,1,1.32-.15,5,5,0,0,1,1.35.15v2.24a5,5,0,0,1-1.35.15A4.43,4.43,0,0,1,155.32,154.59Zm.08,15.67V157.45a3.67,3.67,0,0,1,1.24-.15,4.17,4.17,0,0,1,1.25.15v12.81a4.17,4.17,0,0,1-1.25.15A3.89,3.89,0,0,1,155.4,170.26Z"/><path class="cls-3" d="M161,163.87c0-4.48,1.89-6.82,5.52-6.82a6.79,6.79,0,0,1,3.34.65,2.55,2.55,0,0,1-.75,1.79,5.28,5.28,0,0,0-2.14-.4c-2.39,0-3.38,1.52-3.38,4.78s1.07,4.68,3.48,4.68a5.66,5.66,0,0,0,2.29-.45,2.54,2.54,0,0,1,.75,1.77,6.8,6.8,0,0,1-3.59.79C162.84,170.66,161,168.35,161,163.87Z"/><path class="cls-3" d="M181.81,164.62h-7.49c.2,3,1.34,3.93,3.46,3.93a5.73,5.73,0,0,0,2.91-.75,2.62,2.62,0,0,1,.82,1.77,7.21,7.21,0,0,1-4.18,1.09c-3.73,0-5.58-2.29-5.58-6.84s2.19-6.77,5.5-6.77c3.11,0,4.83,1.74,4.83,4.95A11.57,11.57,0,0,1,181.81,164.62Zm-7.52-1.7h5.4a7.85,7.85,0,0,0,.08-1.19c0-1.52-.67-2.76-2.49-2.76C175.64,159,174.49,160.09,174.29,162.92Z"/><path class="cls-3" d="M185,170.26V157.45a3.82,3.82,0,0,1,1.24-.15,3.09,3.09,0,0,1,1.17.15l0,1.79a3.64,3.64,0,0,1,3.21-2.17,3.8,3.8,0,0,1,2.14.63,2.94,2.94,0,0,1-1.1,2.06,2.43,2.43,0,0,0-1.54-.5,3.35,3.35,0,0,0-2.66,2v9a4.17,4.17,0,0,1-1.25.15A3.82,3.82,0,0,1,185,170.26Z"/><path class="cls-3" d="M205.78,157.45l-4.93,15c-.84,2.64-1.79,4.16-4.38,4.16a5.32,5.32,0,0,1-1.64-.23,2.33,2.33,0,0,1-.18-.94,2.07,2.07,0,0,1,.23-1,5.3,5.3,0,0,0,1.14.12c1.2,0,1.82-.4,2.54-2.56l.55-1.65a2.05,2.05,0,0,1-.77-.17l-4.76-12.79a4.52,4.52,0,0,1,1.3-.15,4.23,4.23,0,0,1,1.29.15l2.89,7.61a22.52,22.52,0,0,1,.87,2.94H200a29.25,29.25,0,0,1,.79-2.94l2.54-7.61a3.82,3.82,0,0,1,1.22-.15A4.22,4.22,0,0,1,205.78,157.45Z"/><path class="cls-3" d="M208.07,170.26V157.45a3.93,3.93,0,0,1,1.25-.15,4,4,0,0,1,1.24.15v1.29a5,5,0,0,1,3.86-1.69,3.48,3.48,0,0,1,3.83,3.73v9.48a4.29,4.29,0,0,1-1.24.15,3.93,3.93,0,0,1-1.25-.15v-9c0-1.44-.74-2.21-2.31-2.21a3.48,3.48,0,0,0-2.89,1.71v9.48a4,4,0,0,1-1.24.15A3.93,3.93,0,0,1,208.07,170.26Z"/><path class="cls-3" d="M221.17,163.84c0-4.92,2.14-6.79,5.57-6.79s5.55,1.87,5.55,6.79-2.11,6.82-5.55,6.82S221.17,168.8,221.17,163.84Zm8.56,0c0-3.8-1.15-4.87-3-4.87s-3,1.07-3,4.87,1.15,4.91,3,4.91S229.73,167.65,229.73,163.84Z"/><path class="cls-3" d="M237.7,170.26l-3.76-12.81a4.29,4.29,0,0,1,1.24-.15,2.63,2.63,0,0,1,1.1.15l2.34,7.71a15.51,15.51,0,0,1,.52,2.72h.07a19.39,19.39,0,0,1,.58-2.72l2.29-7.71a5.93,5.93,0,0,1,1.31-.15,4.09,4.09,0,0,1,1.25.15l2.24,7.66a15.39,15.39,0,0,1,.52,2.77h.08a20.57,20.57,0,0,1,.59-2.74l2.32-7.69a3.48,3.48,0,0,1,1.12-.15,3,3,0,0,1,1.09.15l-3.76,12.81a6.66,6.66,0,0,1-2.81,0l-2-6.69a16.26,16.26,0,0,1-.7-3.76h-.07a16.32,16.32,0,0,1-.75,3.76l-2,6.69a6.79,6.79,0,0,1-1.39.15A7.24,7.24,0,0,1,237.7,170.26Z"/><path class="cls-3" d="M264.28,164.62h-7.49c.2,3,1.34,3.93,3.46,3.93a5.69,5.69,0,0,0,2.91-.75,2.57,2.57,0,0,1,.82,1.77,7.21,7.21,0,0,1-4.18,1.09c-3.73,0-5.57-2.29-5.57-6.84s2.19-6.77,5.5-6.77c3.11,0,4.82,1.74,4.82,4.95A11.57,11.57,0,0,1,264.28,164.62Zm-7.52-1.7h5.4a7.85,7.85,0,0,0,.08-1.19c0-1.52-.67-2.76-2.49-2.76C258.11,159,257,160.09,256.76,162.92Z"/><path class="cls-3" d="M100.48,186.5v9.68a4,4,0,0,1-1.24.15,3.78,3.78,0,0,1-1.25-.15v-8.24l-1.71,1a1.79,1.79,0,0,1-.5-.6,1.6,1.6,0,0,1-.3-.75L98,186.13v-8.32a3.78,3.78,0,0,1,1.25-.15,4,4,0,0,1,1.24.15v6.87l1.82-1a2,2,0,0,1,.5.59,1.81,1.81,0,0,1,.27.78Z"/><path class="cls-3" d="M114.72,187.84v8.34a2.82,2.82,0,0,1-1,.15,3,3,0,0,1-1-.15l-.35-1.67c-.62,1.35-2,2.07-3.93,2.07-2.37,0-3.86-1.4-3.86-4.11s1.62-3.91,4.8-3.91a28.32,28.32,0,0,1,2.89.15v-1c0-1.76-.77-2.63-2.64-2.63a10.66,10.66,0,0,0-3.33.59,1.71,1.71,0,0,1-.55-.74,2.37,2.37,0,0,1-.17-1,11.47,11.47,0,0,1,4.4-.89C113.57,183,114.72,184.61,114.72,187.84Zm-2.49,3.44v-.92c-.57-.05-1.59-.15-2.54-.15-1.74,0-2.61.64-2.61,2.29s.82,2.26,2.16,2.26C111.16,194.76,112.23,193.19,112.23,191.28Z"/><path class="cls-3" d="M128.91,184.93l-2-.05a4.58,4.58,0,0,1,.67,2.54c0,2.76-1.69,4.45-4.93,4.45a7.92,7.92,0,0,1-1.12-.07,2.24,2.24,0,0,0-.52,1.52c.25,2.31,7.91-.18,7.91,5,0,2.44-2.31,4.28-6.44,4.28-3.71,0-5.35-1.44-5.35-3.48a4.24,4.24,0,0,1,2.19-3.46,2,2,0,0,1-.55-1.47,4.28,4.28,0,0,1,1.24-2.76,4,4,0,0,1-2.29-4c0-2.74,1.75-4.45,4.93-4.45a6,6,0,0,1,2.81.62l3.49-.6A3.07,3.07,0,0,1,128.91,184.93Zm-8.26,11.37a3,3,0,0,0-1.17,2.27c0,1.32.94,2.21,3,2.21,2.59,0,4-.89,4-2.24C126.49,196.38,122.94,197,120.65,196.3Zm4.48-8.91c0-1.86-1-2.73-2.52-2.73s-2.51.87-2.51,2.73,1,2.79,2.51,2.79S125.13,189.31,125.13,187.39Z"/><path class="cls-3" d="M130.7,189.76c0-4.93,2.14-6.79,5.58-6.79s5.55,1.86,5.55,6.79-2.12,6.82-5.55,6.82S130.7,194.71,130.7,189.76Zm8.56,0c0-3.81-1.14-4.88-3-4.88s-3,1.07-3,4.88,1.15,4.9,3,4.9S139.26,193.57,139.26,189.76Z"/><path class="cls-3" d="M155.15,177.81v18.37a3.56,3.56,0,0,1-1.07.15,3.8,3.8,0,0,1-1.12-.15l-.18-1.44a4.06,4.06,0,0,1-3.73,1.84c-2.86,0-4.73-1.72-4.73-6.8s1.84-6.81,4.73-6.81a4,4,0,0,1,3.61,1.69v-6.85a4.16,4.16,0,0,1,1.27-.15A3.82,3.82,0,0,1,155.15,177.81Zm-2.49,13.59v-3.31a2.89,2.89,0,0,0-2.74-3.11c-2,0-3,1.15-3,4.8s.95,4.78,3,4.78A2.88,2.88,0,0,0,152.66,191.4Z"/><path class="cls-3" d="M158.71,196.18V183.36a3.89,3.89,0,0,1,1.24-.15,4.09,4.09,0,0,1,1.25.15v1.3a5,5,0,0,1,3.86-1.69,3.48,3.48,0,0,1,3.83,3.73v9.48a4.33,4.33,0,0,1-1.25.15,3.89,3.89,0,0,1-1.24-.15v-9c0-1.45-.75-2.22-2.32-2.22a3.48,3.48,0,0,0-2.88,1.72v9.48a4.09,4.09,0,0,1-1.25.15A3.89,3.89,0,0,1,158.71,196.18Z"/><path class="cls-3" d="M181.86,190.53h-7.49c.2,3,1.34,3.93,3.45,3.93a5.8,5.8,0,0,0,2.92-.74,2.59,2.59,0,0,1,.82,1.76,7.17,7.17,0,0,1-4.18,1.1c-3.74,0-5.58-2.29-5.58-6.85S174,183,177.3,183c3.11,0,4.83,1.74,4.83,4.95A11.42,11.42,0,0,1,181.86,190.53Zm-7.52-1.69h5.4a8,8,0,0,0,.08-1.2c0-1.51-.68-2.76-2.49-2.76C175.68,184.88,174.54,186,174.34,188.84Z"/><path class="cls-3" d="M200.9,177.81v18.37a3.48,3.48,0,0,1-1.07.15,3.88,3.88,0,0,1-1.12-.15l-.17-1.44a4.09,4.09,0,0,1-3.74,1.84c-2.86,0-4.73-1.72-4.73-6.8s1.85-6.81,4.73-6.81a4,4,0,0,1,3.61,1.69v-6.85a4.16,4.16,0,0,1,1.27-.15A3.82,3.82,0,0,1,200.9,177.81Zm-2.49,13.59v-3.31a2.88,2.88,0,0,0-2.74-3.11c-2,0-3,1.15-3,4.8s.94,4.78,3,4.78A2.88,2.88,0,0,0,198.41,191.4Z"/><path class="cls-3" d="M204.56,196.18V177.81a3.78,3.78,0,0,1,1.25-.15,4,4,0,0,1,1.24.15v18.37a4,4,0,0,1-1.24.15A3.78,3.78,0,0,1,204.56,196.18Z"/><path class="cls-3" d="M220.07,187.84v8.34a2.82,2.82,0,0,1-1,.15,3,3,0,0,1-1-.15l-.35-1.67c-.62,1.35-2,2.07-3.93,2.07-2.37,0-3.86-1.4-3.86-4.11s1.62-3.91,4.8-3.91a28.32,28.32,0,0,1,2.89.15v-1c0-1.76-.77-2.63-2.64-2.63a10.58,10.58,0,0,0-3.33.59,1.71,1.71,0,0,1-.55-.74,2.3,2.3,0,0,1-.18-1,11.56,11.56,0,0,1,4.41-.89C218.92,183,220.07,184.61,220.07,187.84Zm-2.49,3.44v-.92c-.57-.05-1.59-.15-2.54-.15-1.74,0-2.61.64-2.61,2.29s.82,2.26,2.16,2.26C216.51,194.76,217.58,193.19,217.58,191.28Z"/><path class="cls-3" d="M47.2,221.6a2.21,2.21,0,0,1,.65-1.77,10.63,10.63,0,0,0,3.41.6c1.64,0,2.58-.57,2.58-1.84s-1.44-1.67-2.93-2.12c-1.7-.5-3.51-1.27-3.51-3.68s1.52-3.91,4.68-3.91a8.11,8.11,0,0,1,3.58.67A2.28,2.28,0,0,1,55,211.3a9,9,0,0,0-2.69-.43c-1.74,0-2.59.65-2.59,1.82s1.55,1.54,3.09,2,3.43,1.29,3.43,3.78-1.54,4-4.83,4A10.06,10.06,0,0,1,47.2,221.6Zm2.61-14.93,2.49-3.61a2.47,2.47,0,0,1,2.17.92l-3.21,3.46A2,2,0,0,1,49.81,206.67Z"/><path class="cls-3" d="M59.17,222.1V203.73a3.78,3.78,0,0,1,1.25-.15,4,4,0,0,1,1.24.15V222.1a4,4,0,0,1-1.24.15A3.78,3.78,0,0,1,59.17,222.1Z"/><path class="cls-3" d="M75.4,209.28V222.1a3.89,3.89,0,0,1-1.24.15,4.09,4.09,0,0,1-1.25-.15v-1.3A4.94,4.94,0,0,1,69,222.49a3.47,3.47,0,0,1-3.81-3.73v-9.48a4.09,4.09,0,0,1,1.25-.15,3.89,3.89,0,0,1,1.24.15v9A2,2,0,0,0,70,220.5a3.51,3.51,0,0,0,2.89-1.74v-9.48a5.24,5.24,0,0,1,2.49,0Z"/><path class="cls-3" d="M87.72,221.25a2.66,2.66,0,0,1-.17,1H78.24a3.46,3.46,0,0,1,0-2l6.65-9.08H78.66a3.17,3.17,0,0,1-.15-1,2.76,2.76,0,0,1,.15-1h8.86a2.85,2.85,0,0,1,.15,1,3.93,3.93,0,0,1-.15,1.07l-6.64,9.08h6.67A2.53,2.53,0,0,1,87.72,221.25Z"/><path class="cls-3" d="M89.87,215.67c0-4.92,2.14-6.79,5.57-6.79s5.55,1.87,5.55,6.79-2.11,6.82-5.55,6.82S89.87,220.63,89.87,215.67Zm8.56,0c0-3.8-1.15-4.87-3-4.87s-3,1.07-3,4.87,1.15,4.91,3,4.91S98.43,219.48,98.43,215.67Z"/><path class="cls-3" d="M106.39,222.1l-3.75-12.82a4.21,4.21,0,0,1,1.24-.15,2.63,2.63,0,0,1,1.1.15l2.34,7.71a15.51,15.51,0,0,1,.52,2.72h.07a19.39,19.39,0,0,1,.58-2.72l2.29-7.71a5.93,5.93,0,0,1,1.31-.15,4.17,4.17,0,0,1,1.25.15l2.24,7.66a15.39,15.39,0,0,1,.52,2.77h.08a20.57,20.57,0,0,1,.59-2.74l2.32-7.69a3.48,3.48,0,0,1,1.12-.15,3,3,0,0,1,1.09.15l-3.76,12.82a7.81,7.81,0,0,1-1.41.15,7.9,7.9,0,0,1-1.4-.15l-2-6.7a16.26,16.26,0,0,1-.7-3.76H112a16.32,16.32,0,0,1-.75,3.76l-2,6.7a7.58,7.58,0,0,1-1.39.15A8.3,8.3,0,0,1,106.39,222.1Z"/><path class="cls-3" d="M133,216.45h-7.49c.2,3,1.34,3.93,3.46,3.93a5.73,5.73,0,0,0,2.91-.75,2.57,2.57,0,0,1,.82,1.77,7.21,7.21,0,0,1-4.18,1.09c-3.73,0-5.57-2.29-5.57-6.84,0-4.7,2.18-6.77,5.5-6.77,3.11,0,4.82,1.74,4.82,5A11.57,11.57,0,0,1,133,216.45Zm-7.52-1.7h5.4a7.85,7.85,0,0,0,.08-1.19c0-1.52-.67-2.76-2.49-2.76C126.81,210.8,125.66,211.92,125.46,214.75Z"/><path class="cls-3" d="M133.26,228.19a1.7,1.7,0,0,1-.1-.57,2.5,2.5,0,0,1,.27-1.27,4.56,4.56,0,0,0,.95.1c1.22,0,1.86-.62,1.86-2.14v-15a3.78,3.78,0,0,1,1.25-.15,4.29,4.29,0,0,1,1.24.15v15.16c0,2.66-1.29,4-3.68,4A4.72,4.72,0,0,1,133.26,228.19Zm2.88-21.77v-2.27a4.71,4.71,0,0,1,1.35-.15,4.48,4.48,0,0,1,1.29.15v2.27a4.48,4.48,0,0,1-1.29.15A4.71,4.71,0,0,1,136.14,206.42Z"/><path class="cls-3" d="M145,228.19a1.7,1.7,0,0,1-.1-.57,2.5,2.5,0,0,1,.27-1.27,4.68,4.68,0,0,0,.95.1c1.22,0,1.87-.62,1.87-2.14v-15a3.67,3.67,0,0,1,1.24-.15,4.33,4.33,0,0,1,1.25.15v15.16c0,2.66-1.3,4-3.69,4A4.72,4.72,0,0,1,145,228.19Zm2.89-21.77v-2.27a4.67,4.67,0,0,1,1.34-.15,4.52,4.52,0,0,1,1.3.15v2.27a4.52,4.52,0,0,1-1.3.15A4.67,4.67,0,0,1,147.87,206.42Z"/><path class="cls-3" d="M163.45,213.76v8.34a2.82,2.82,0,0,1-1,.15,3,3,0,0,1-1-.15l-.35-1.67c-.62,1.34-2,2.06-3.93,2.06-2.37,0-3.86-1.39-3.86-4.1s1.62-3.91,4.8-3.91a25.68,25.68,0,0,1,2.89.15v-1c0-1.77-.77-2.64-2.64-2.64a10.5,10.5,0,0,0-3.33.6,1.78,1.78,0,0,1-.55-.75,2.32,2.32,0,0,1-.17-1,11.37,11.37,0,0,1,4.4-.9C162.3,208.88,163.45,210.52,163.45,213.76ZM161,217.19v-.92c-.57-.05-1.59-.15-2.54-.15-1.74,0-2.61.65-2.61,2.29s.82,2.27,2.16,2.27C159.89,220.68,161,219.11,161,217.19Z"/><path class="cls-3" d="M166.91,222.1V209.28a3.93,3.93,0,0,1,1.25-.15,4,4,0,0,1,1.24.15v1.27a4.71,4.71,0,0,1,3.68-1.67,3.25,3.25,0,0,1,3.24,1.94,4.94,4.94,0,0,1,4.1-1.94,3.41,3.41,0,0,1,3.66,3.76v9.46a4.21,4.21,0,0,1-1.24.15,3.93,3.93,0,0,1-1.25-.15v-9c0-1.47-.67-2.21-2.14-2.21a3.07,3.07,0,0,0-2.71,1.74v9.46a4.29,4.29,0,0,1-1.24.15,3.93,3.93,0,0,1-1.25-.15v-9c0-1.47-.67-2.21-2.14-2.21a3.24,3.24,0,0,0-2.71,1.71v9.49a4.29,4.29,0,0,1-1.24.15A3.93,3.93,0,0,1,166.91,222.1Z"/><path class="cls-3" d="M198.32,209.28l-4.92,15c-.85,2.64-1.8,4.16-4.38,4.16a5.34,5.34,0,0,1-1.65-.23,2.45,2.45,0,0,1-.17-.94,2.14,2.14,0,0,1,.22-1,5.33,5.33,0,0,0,1.15.12c1.19,0,1.82-.4,2.54-2.56l.54-1.64a2.06,2.06,0,0,1-.77-.18l-4.75-12.79a4.48,4.48,0,0,1,1.29-.15,4.35,4.35,0,0,1,1.3.15l2.88,7.61a21.79,21.79,0,0,1,.88,2.94h.07s.25-1.22.8-2.94l2.54-7.61a3.71,3.71,0,0,1,1.21-.15A4.14,4.14,0,0,1,198.32,209.28Z"/><path class="cls-3" d="M215.75,209.28V222.1a3.89,3.89,0,0,1-1.24.15,4.09,4.09,0,0,1-1.25-.15v-1.3a4.94,4.94,0,0,1-3.88,1.69,3.47,3.47,0,0,1-3.81-3.73v-9.48a4.09,4.09,0,0,1,1.25-.15,3.89,3.89,0,0,1,1.24.15v9a2,2,0,0,0,2.31,2.21,3.51,3.51,0,0,0,2.89-1.74v-9.48a5.24,5.24,0,0,1,2.49,0Z"/><path class="cls-3" d="M218.54,221.6a2.25,2.25,0,0,1,.65-1.77,10.63,10.63,0,0,0,3.41.6c1.64,0,2.59-.57,2.59-1.84s-1.45-1.67-2.94-2.12c-1.69-.5-3.51-1.27-3.51-3.68s1.52-3.91,4.68-3.91a8.11,8.11,0,0,1,3.58.67,2.28,2.28,0,0,1-.62,1.75,9,9,0,0,0-2.69-.43c-1.74,0-2.59.65-2.59,1.82s1.55,1.54,3.09,2,3.43,1.29,3.43,3.78-1.54,4-4.82,4A10.11,10.11,0,0,1,218.54,221.6Z"/><path class="cls-3" d="M237.51,221.4a2.51,2.51,0,0,1-.13.87,7.51,7.51,0,0,1-1.91.22c-3.09,0-4.21-1.61-4.21-4.77V211h-1.89a2.54,2.54,0,0,1-.15-.92,2.31,2.31,0,0,1,.15-1h1.89v-2.39a4.17,4.17,0,0,1,2.49-.47v2.86H237a2.87,2.87,0,0,1,.12.92,3.46,3.46,0,0,1-.12.95h-3.26v6.62c0,2.16.67,2.88,2.41,2.88a7.61,7.61,0,0,0,1.15-.1A2.32,2.32,0,0,1,237.51,221.4Z"/><path class="cls-3" d="M239.77,222.1V209.28a3.93,3.93,0,0,1,1.25-.15,4,4,0,0,1,1.24.15v1.29a5,5,0,0,1,3.86-1.69,3.48,3.48,0,0,1,3.83,3.73v9.49a4.21,4.21,0,0,1-1.24.15,3.93,3.93,0,0,1-1.25-.15v-9c0-1.44-.74-2.21-2.31-2.21a3.49,3.49,0,0,0-2.89,1.71v9.49a4,4,0,0,1-1.24.15A3.93,3.93,0,0,1,239.77,222.1Z"/><path class="cls-3" d="M262.92,216.45h-7.49c.2,3,1.35,3.93,3.46,3.93a5.69,5.69,0,0,0,2.91-.75,2.53,2.53,0,0,1,.82,1.77,7.17,7.17,0,0,1-4.18,1.09c-3.73,0-5.57-2.29-5.57-6.84,0-4.7,2.19-6.77,5.5-6.77,3.11,0,4.83,1.74,4.83,5A11.18,11.18,0,0,1,262.92,216.45Zm-7.51-1.7h5.4a8,8,0,0,0,.07-1.19c0-1.52-.67-2.76-2.49-2.76C256.75,210.8,255.61,211.92,255.41,214.75Z"/><path class="cls-3" d="M263.2,228.19a1.7,1.7,0,0,1-.1-.57,2.5,2.5,0,0,1,.27-1.27,4.68,4.68,0,0,0,.95.1c1.22,0,1.87-.62,1.87-2.14v-15a3.67,3.67,0,0,1,1.24-.15,4.21,4.21,0,0,1,1.24.15v15.16c0,2.66-1.29,4-3.68,4A4.72,4.72,0,0,1,263.2,228.19Zm2.89-21.77v-2.27a4.59,4.59,0,0,1,1.34-.15,4.39,4.39,0,0,1,1.29.15v2.27a4.39,4.39,0,0,1-1.29.15A4.59,4.59,0,0,1,266.09,206.42Z"/><path class="cls-3" d="M120.61,17.05V30.86a20.36,20.36,0,0,1-7.44,1.29c-7.26,0-11.31-4.61-11.31-13.63s4-13.62,11.31-13.62a17.54,17.54,0,0,1,7,1.29A4.1,4.1,0,0,1,119.06,9a17.39,17.39,0,0,0-5.45-.88c-4.49,0-7.73,2.31-7.73,10.49s3.2,10.38,7.69,10.38a20.53,20.53,0,0,0,3.43-.33v-8.5h-5.38a4.49,4.49,0,0,1-.26-1.51,4.28,4.28,0,0,1,.26-1.55Z"/><path class="cls-3" d="M125.72,31.56V4.38a5.52,5.52,0,0,1,1.84-.22,6,6,0,0,1,1.84.22V31.56a6,6,0,0,1-1.84.22A5.52,5.52,0,0,1,125.72,31.56Z"/><path class="cls-3" d="M134.74,8.36V5.05a6.54,6.54,0,0,1,1.95-.22,7.29,7.29,0,0,1,2,.22V8.36a7.29,7.29,0,0,1-2,.22A6.54,6.54,0,0,1,134.74,8.36Zm.11,23.2v-19a5.52,5.52,0,0,1,1.84-.22,6,6,0,0,1,1.84.22v19a6,6,0,0,1-1.84.22A5.81,5.81,0,0,1,134.85,31.56Z"/><path class="cls-3" d="M143.06,22.09c0-6.62,2.8-10.08,8.18-10.08a10.11,10.11,0,0,1,4.93,1,3.73,3.73,0,0,1-1.11,2.65A7.8,7.8,0,0,0,151.9,15c-3.54,0-5,2.25-5,7.07S148.47,29,152.05,29a8.31,8.31,0,0,0,3.38-.67A3.73,3.73,0,0,1,156.54,31a10,10,0,0,1-5.3,1.18C145.86,32.15,143.06,28.72,143.06,22.09Z"/><path class="cls-3" d="M173.91,23.2H162.83c.3,4.38,2,5.82,5.12,5.82a8.48,8.48,0,0,0,4.31-1.11,3.81,3.81,0,0,1,1.21,2.62,10.63,10.63,0,0,1-6.18,1.62c-5.53,0-8.25-3.39-8.25-10.13,0-7,3.24-10,8.14-10,4.6,0,7.14,2.57,7.14,7.32A16.64,16.64,0,0,1,173.91,23.2ZM162.8,20.69h8a10.79,10.79,0,0,0,.12-1.76c0-2.25-1-4.09-3.69-4.09C164.78,14.84,163.09,16.5,162.8,20.69Z"/><path class="cls-3" d="M178.63,31.56v-19a5.81,5.81,0,0,1,1.84-.22,4.65,4.65,0,0,1,1.73.22l0,2.66C183.67,12.7,185.51,12,187,12a5.68,5.68,0,0,1,3.17.92A4.35,4.35,0,0,1,188.53,16a3.58,3.58,0,0,0-2.28-.74c-1.47,0-2.91,1.14-3.94,3v13.3a6.13,6.13,0,0,1-1.84.22A5.81,5.81,0,0,1,178.63,31.56Z"/><path class="cls-3" d="M191.81,22.06c0-7.29,3.16-10,8.24-10s8.21,2.76,8.21,10-3.12,10.09-8.21,10.09S191.81,29.38,191.81,22.06Zm12.66,0c0-5.64-1.69-7.22-4.42-7.22s-4.41,1.58-4.41,7.22,1.69,7.25,4.41,7.25S204.47,27.69,204.47,22.06Z"/><path class="cls-3" d="M212.86,31.56V4.38a5.62,5.62,0,0,1,1.85-.22,6.13,6.13,0,0,1,1.84.22V31.56a6.13,6.13,0,0,1-1.84.22A5.62,5.62,0,0,1,212.86,31.56Z"/><path class="cls-3" d="M115,55a36.17,36.17,0,0,1,5.12-18.07,3.19,3.19,0,0,1,1.51.4,2.72,2.72,0,0,1,1.14,1A32.45,32.45,0,0,0,118.51,55a32.46,32.46,0,0,0,4.27,16.65,2.39,2.39,0,0,1-1.14,1.06,3.35,3.35,0,0,1-1.51.37A36.37,36.37,0,0,1,115,55Z"/><path class="cls-3" d="M141,63.5a3.88,3.88,0,0,1,.34,1.66,4,4,0,0,1-.34,1.62H125.91a13.8,13.8,0,0,1-.26-2.54c0-5.71,3.72-7.7,7.1-9.91s5-3.35,5-6.15c0-2.13-1.32-3.83-4.78-3.83a16.52,16.52,0,0,0-5.38,1,2.87,2.87,0,0,1-1.07-2.65,17.46,17.46,0,0,1,7-1.4c4.57,0,8.07,1.92,8.07,6.74,0,4.42-2.58,6.15-6.92,8.77-2.25,1.36-5.31,2.61-5.38,5.74a8.61,8.61,0,0,0,.07.92Z"/><path class="cls-3" d="M145.68,54.26c0-9.1,3.27-12.93,9.24-12.93s9.31,3.72,9.31,12.93-3.38,12.92-9.31,12.92S145.68,63.43,145.68,54.26Zm14.5,0c0-7.59-1.73-9.87-5.26-9.87s-5.27,2.28-5.27,9.87,1.81,9.83,5.27,9.83S160.18,61.73,160.18,54.26Z"/><path class="cls-3" d="M178.77,49.55c0,5-2.61,7.54-5.7,7.54s-5.56-2.39-5.6-7.18,2.58-7.47,5.82-7.47S178.77,45,178.77,49.55Zm-8.76.22c-.07,3,1.11,5.37,3.13,5.37s3.09-2.28,3.09-5.41c0-2.95-.84-5.34-3.13-5.34C171.12,44.39,170,46.78,170,49.77Zm2.8,17.45,14.1-24.82H189l-14.1,24.82Zm21.58-7.73c0,5-2.62,7.54-5.71,7.54s-5.56-2.39-5.6-7.21,2.58-7.48,5.82-7.48S194.39,54.92,194.39,59.49Zm-8.77.22c-.07,3,1.11,5.37,3.13,5.37s3.1-2.28,3.1-5.45c0-2.9-.85-5.33-3.13-5.33C186.73,54.3,185.62,56.69,185.62,59.71Z"/><path class="cls-3" d="M196.26,71.23a25,25,0,0,0,4.6-15,24.82,24.82,0,0,0-4.6-15h2.5a23.76,23.76,0,0,1,4.83,15,24.26,24.26,0,0,1-4.83,15Z"/></svg>