<svg id="Warstwa_1" data-name="Warstwa 1" xmlns="http://www.w3.org/2000/svg" viewBox="0 0 238.39 60"><defs><style>.cls-1{fill:#005ca5;}.cls-2{fill:none;stroke:#cbd413;stroke-miterlimit:10;stroke-width:1.85px;}</style></defs><title>sposoby_aplikacji</title><path class="cls-1" d="M42.7,37.47a3.7,3.7,0,0,1,.66-2,16,16,0,0,0,4.76.79c2.68,0,4-1,4-2.89s-1.54-2.46-3.37-3c-2.63-.84-5.84-1.52-5.84-5.32,0-3.11,2.05-5.21,6.22-5.21a14.67,14.67,0,0,1,5,.76,3,3,0,0,1-.68,2,15.61,15.61,0,0,0-3.9-.51c-2.7,0-4,1-4,2.84,0,2,2.13,2.43,4.51,3.19s4.75,1.85,4.75,5.21-2.2,5.32-6.5,5.32A14.32,14.32,0,0,1,42.7,37.47Z"/><path class="cls-1" d="M68.5,31.6c0,5.19-1.9,6.93-4.81,6.93A4.06,4.06,0,0,1,60,36.79v7.26a4.24,4.24,0,0,1-1.27.15,4.32,4.32,0,0,1-1.27-.15v-19a4.32,4.32,0,0,1,1.27-.15,4.24,4.24,0,0,1,1.27.15v1.32a4,4,0,0,1,3.69-1.72C66.58,24.69,68.5,26.41,68.5,31.6Zm-2.66,0c0-3.72-1-4.86-3-4.86C61,26.74,60,28.23,60,29.93v3.26c0,1.67,1,3.29,2.81,3.29C64.88,36.48,65.84,35.37,65.84,31.6Z"/><path class="cls-1" d="M70.78,31.6c0-5,2.18-6.91,5.67-6.91s5.65,1.9,5.65,6.91S80,38.53,76.45,38.53,70.78,36.63,70.78,31.6Zm8.71,0c0-3.88-1.16-5-3-5s-3,1.08-3,5,1.16,5,3,5S79.49,35.47,79.49,31.6Z"/><path class="cls-1" d="M84.15,37.62a2.25,2.25,0,0,1,.66-1.79,10.72,10.72,0,0,0,3.47.6c1.67,0,2.63-.58,2.63-1.87s-1.47-1.7-3-2.15c-1.72-.51-3.57-1.29-3.57-3.75s1.55-4,4.76-4a8.38,8.38,0,0,1,3.65.68,2.36,2.36,0,0,1-.63,1.77,9.34,9.34,0,0,0-2.74-.43c-1.77,0-2.63.66-2.63,1.85s1.57,1.57,3.14,2.08,3.49,1.31,3.49,3.84-1.57,4.05-4.91,4.05A10.24,10.24,0,0,1,84.15,37.62Z"/><path class="cls-1" d="M95.42,31.6c0-5,2.18-6.91,5.67-6.91s5.64,1.9,5.64,6.91-2.15,6.93-5.64,6.93S95.42,36.63,95.42,31.6Zm8.71,0c0-3.88-1.17-5-3-5s-3,1.08-3,5,1.17,5,3,5S104.13,35.47,104.13,31.6Z"/><path class="cls-1" d="M120.58,31.62c0,5.17-1.9,6.91-4.83,6.91a4.13,4.13,0,0,1-3.67-1.69v1.29a5.41,5.41,0,0,1-2.53,0V19.45a5.08,5.08,0,0,1,2.53,0v7a4.08,4.08,0,0,1,3.67-1.72C118.68,24.69,120.58,26.43,120.58,31.62Zm-2.66,0c0-3.72-1-4.88-3-4.88-1.8,0-2.79,1.52-2.81,3.21v3.27c0,1.72,1,3.26,2.81,3.26C117,36.48,117.92,35.32,117.92,31.62Z"/><path class="cls-1" d="M134.51,25.09l-5,15.29c-.86,2.68-1.83,4.23-4.46,4.23a5.52,5.52,0,0,1-1.67-.23,2.43,2.43,0,0,1-.18-1,2.2,2.2,0,0,1,.23-1,5.32,5.32,0,0,0,1.17.13c1.21,0,1.84-.41,2.58-2.61l.55-1.67a2.11,2.11,0,0,1-.78-.18l-4.84-13a4.68,4.68,0,0,1,1.32-.15,4.43,4.43,0,0,1,1.32.15l2.93,7.75a21.35,21.35,0,0,1,.89,3h.08a30.11,30.11,0,0,1,.81-3L132,25.09a3.89,3.89,0,0,1,1.24-.15A4.38,4.38,0,0,1,134.51,25.09Z"/><path class="cls-1" d="M151.52,29.65v8.48a2.85,2.85,0,0,1-1,.15,3.08,3.08,0,0,1-1-.15l-.36-1.7c-.63,1.37-2.05,2.1-4,2.1-2.4,0-3.92-1.41-3.92-4.17s1.65-4,4.89-4a29.06,29.06,0,0,1,2.93.15v-1c0-1.8-.78-2.69-2.68-2.69a10.64,10.64,0,0,0-3.39.61,1.67,1.67,0,0,1-.56-.76,2.33,2.33,0,0,1-.18-1.06,11.68,11.68,0,0,1,4.48-.91C150.36,24.69,151.52,26.36,151.52,29.65ZM149,33.14v-.93c-.58-.06-1.62-.16-2.58-.16-1.77,0-2.66.66-2.66,2.33s.84,2.31,2.2,2.31C147.9,36.69,149,35.09,149,33.14Z"/><path class="cls-1" d="M165.83,31.6c0,5.19-1.9,6.93-4.81,6.93a4.07,4.07,0,0,1-3.7-1.74v7.26a5.41,5.41,0,0,1-2.53,0v-19a5.41,5.41,0,0,1,2.53,0v1.32a4,4,0,0,1,3.7-1.72C163.91,24.69,165.83,26.41,165.83,31.6Zm-2.66,0c0-3.72-1-4.86-3-4.86-1.77,0-2.78,1.49-2.81,3.19v3.26c0,1.67,1,3.29,2.81,3.29C162.21,36.48,163.17,35.37,163.17,31.6Z"/><path class="cls-1" d="M168.77,38.13V19.45a3.6,3.6,0,0,1,1.26-.16,4,4,0,0,1,1.27.16V38.13a4.24,4.24,0,0,1-1.27.15A3.82,3.82,0,0,1,168.77,38.13Z"/><path class="cls-1" d="M174.72,22.18V19.9a4.5,4.5,0,0,1,1.34-.15,5.05,5.05,0,0,1,1.37.15v2.28a5.05,5.05,0,0,1-1.37.15A4.5,4.5,0,0,1,174.72,22.18Zm.07,16v-13a3.85,3.85,0,0,1,1.27-.15,4.24,4.24,0,0,1,1.27.15v13a4.24,4.24,0,0,1-1.27.15A4.08,4.08,0,0,1,174.79,38.13Z"/><path class="cls-1" d="M191.45,38.1a5,5,0,0,1-1.42.18,4.73,4.73,0,0,1-1.39-.18l-3.77-5.82h-1.59v5.85a4.25,4.25,0,0,1-1.25.15,4.83,4.83,0,0,1-1.29-.15V19.42a5.74,5.74,0,0,1,1.29-.13,5.57,5.57,0,0,1,1.25.13V30.36h1.64l3.37-5.27a4.55,4.55,0,0,1,1.31-.15,4.94,4.94,0,0,1,1.27.15l-3.82,6.05Z"/><path class="cls-1" d="M202.84,29.65v8.48a2.85,2.85,0,0,1-1,.15,3.08,3.08,0,0,1-1-.15l-.35-1.7c-.64,1.37-2.06,2.1-4,2.1-2.41,0-3.93-1.41-3.93-4.17s1.65-4,4.89-4a28.89,28.89,0,0,1,2.93.15v-1c0-1.8-.78-2.69-2.68-2.69a10.64,10.64,0,0,0-3.39.61,1.67,1.67,0,0,1-.56-.76,2.33,2.33,0,0,1-.18-1.06,11.7,11.7,0,0,1,4.49-.91C201.68,24.69,202.84,26.36,202.84,29.65Zm-2.53,3.49v-.93c-.58-.06-1.62-.16-2.58-.16-1.77,0-2.66.66-2.66,2.33s.84,2.31,2.21,2.31C199.23,36.69,200.31,35.09,200.31,33.14Z"/><path class="cls-1" d="M205.56,31.62c0-4.55,1.92-6.93,5.62-6.93a6.91,6.91,0,0,1,3.39.66,2.59,2.59,0,0,1-.76,1.82,5.38,5.38,0,0,0-2.18-.41c-2.43,0-3.44,1.55-3.44,4.86s1.09,4.76,3.54,4.76a5.81,5.81,0,0,0,2.33-.45,2.49,2.49,0,0,1,.76,1.79,6.85,6.85,0,0,1-3.64.81C207.48,38.53,205.56,36.18,205.56,31.62Z"/><path class="cls-1" d="M214.22,44.33a1.58,1.58,0,0,1-.11-.58,2.51,2.51,0,0,1,.28-1.29,4.72,4.72,0,0,0,1,.1c1.24,0,1.9-.63,1.9-2.18V25.09a3.85,3.85,0,0,1,1.27-.15,4.37,4.37,0,0,1,1.26.15V40.51c0,2.71-1.31,4.1-3.74,4.1A4.87,4.87,0,0,1,214.22,44.33Zm2.93-22.15v-2.3a4.87,4.87,0,0,1,1.37-.15,4.68,4.68,0,0,1,1.32.15v2.3a4.68,4.68,0,0,1-1.32.15A4.87,4.87,0,0,1,217.15,22.18Z"/><path class="cls-1" d="M223.18,22.18V19.9a4.5,4.5,0,0,1,1.34-.15,5.05,5.05,0,0,1,1.37.15v2.28a5.05,5.05,0,0,1-1.37.15A4.5,4.5,0,0,1,223.18,22.18Zm.07,16v-13a3.85,3.85,0,0,1,1.27-.15,4.2,4.2,0,0,1,1.26.15v13a4.2,4.2,0,0,1-1.26.15A4.08,4.08,0,0,1,223.25,38.13Z"/><polyline class="cls-2" points="13.31 6.32 29.11 29.71 13.31 53.19"/></svg>