<svg id="Warstwa_1" data-name="Warstwa 1" xmlns="http://www.w3.org/2000/svg" viewBox="0 0 825 500"><defs><style>.cls-1{fill:#ccd615;}</style></defs><title>stosowanie_antybiotykow</title><path class="cls-1" d="M149.51,181.92a6.35,6.35,0,0,1,1.15-3.57,27.64,27.64,0,0,0,8.28,1.37c4.68,0,7-1.72,7-5s-2.69-4.27-5.86-5.24c-4.59-1.46-10.19-2.65-10.19-9.26,0-5.42,3.57-9.08,10.85-9.08a26.06,26.06,0,0,1,8.64,1.32,5.27,5.27,0,0,1-1.19,3.44,27,27,0,0,0-6.79-.88c-4.72,0-6.92,1.81-6.92,4.94,0,3.48,3.7,4.23,7.84,5.55s8.29,3.22,8.29,9.08-3.83,9.26-11.33,9.26A24.93,24.93,0,0,1,149.51,181.92Z"/><path class="cls-1" d="M187.29,181.83a4.76,4.76,0,0,1-.22,1.55,13.09,13.09,0,0,1-3.4.39c-5.47,0-7.45-2.86-7.45-8.46v-11.9h-3.35a4.58,4.58,0,0,1-.26-1.63,4.16,4.16,0,0,1,.26-1.68h3.35v-4.23a7.48,7.48,0,0,1,4.41-.84v5.07h5.77a4.94,4.94,0,0,1,.22,1.63,5.81,5.81,0,0,1-.22,1.68h-5.77v11.72c0,3.84,1.19,5.12,4.28,5.12a13.2,13.2,0,0,0,2-.18A4,4,0,0,1,187.29,181.83Z"/><path class="cls-1" d="M189.4,171.7c0-8.73,3.79-12,9.87-12s9.83,3.31,9.83,12-3.74,12.07-9.83,12.07S189.4,180.47,189.4,171.7Zm15.16,0c0-6.75-2-8.64-5.29-8.64S194,165,194,171.7s2,8.68,5.29,8.68S204.56,178.44,204.56,171.7Z"/><path class="cls-1" d="M212.19,182.19a3.92,3.92,0,0,1,1.14-3.13,18.75,18.75,0,0,0,6,1.05c2.91,0,4.59-1,4.59-3.26,0-2.42-2.56-2.95-5.2-3.74-3-.89-6.22-2.25-6.22-6.53s2.69-6.92,8.29-6.92a14.43,14.43,0,0,1,6.35,1.19,4.07,4.07,0,0,1-1.11,3.09,15.72,15.72,0,0,0-4.76-.75c-3.08,0-4.58,1.14-4.58,3.22s2.73,2.73,5.46,3.61c3,1,6.09,2.29,6.09,6.7s-2.74,7.05-8.55,7.05A17.91,17.91,0,0,1,212.19,182.19Z"/><path class="cls-1" d="M231.32,171.7c0-8.73,3.79-12,9.87-12S251,163,251,171.7s-3.75,12.07-9.83,12.07S231.32,180.47,231.32,171.7Zm15.16,0c0-6.75-2-8.64-5.29-8.64s-5.29,1.89-5.29,8.64,2,8.68,5.29,8.68S246.48,178.44,246.48,171.7Z"/><path class="cls-1" d="M260,183.07l-6.66-22.7a7.45,7.45,0,0,1,2.2-.27,4.48,4.48,0,0,1,1.94.27L261.6,174a26,26,0,0,1,.92,4.81h.14a32,32,0,0,1,1-4.81l4.06-13.66a10.43,10.43,0,0,1,2.33-.27,7.16,7.16,0,0,1,2.21.27l4,13.57a27.58,27.58,0,0,1,.93,4.9h.13a38.36,38.36,0,0,1,1.06-4.85l4.1-13.62a6,6,0,0,1,2-.27,5.32,5.32,0,0,1,1.94.27l-6.65,22.7a12.1,12.1,0,0,1-5,0l-3.52-11.86a28.1,28.1,0,0,1-1.24-6.66h-.13a29.05,29.05,0,0,1-1.32,6.66L265,183.07a13,13,0,0,1-2.47.26A13.93,13.93,0,0,1,260,183.07Z"/><path class="cls-1" d="M306.21,168.3v14.77a5.1,5.1,0,0,1-1.81.26,5.38,5.38,0,0,1-1.81-.26l-.62-3c-1.1,2.39-3.57,3.66-7,3.66-4.19,0-6.83-2.46-6.83-7.27s2.86-6.92,8.5-6.92a48.79,48.79,0,0,1,5.12.26V168c0-3.13-1.37-4.68-4.68-4.68a18.57,18.57,0,0,0-5.9,1.06,3,3,0,0,1-1-1.32,4.06,4.06,0,0,1-.31-1.85,20.24,20.24,0,0,1,7.8-1.59C304.18,159.66,306.21,162.57,306.21,168.3Zm-4.41,6.08v-1.63c-1-.09-2.82-.26-4.5-.26-3.09,0-4.63,1.14-4.63,4s1.46,4,3.84,4C299.9,180.56,301.8,177.78,301.8,174.38Z"/><path class="cls-1" d="M311.4,183.07v-22.7a6.86,6.86,0,0,1,2.21-.27,7.13,7.13,0,0,1,2.2.27v2.29a8.85,8.85,0,0,1,6.84-3c4.4,0,6.78,2.65,6.78,6.61v16.8a7.71,7.71,0,0,1-2.2.26,7,7,0,0,1-2.2-.26V167.15c0-2.55-1.33-3.92-4.1-3.92a6.19,6.19,0,0,0-5.12,3v16.8a7.38,7.38,0,0,1-2.2.26A7.1,7.1,0,0,1,311.4,183.07Z"/><path class="cls-1" d="M334.59,155.3v-4a7.6,7.6,0,0,1,2.33-.27,8.45,8.45,0,0,1,2.38.27v4a8.76,8.76,0,0,1-2.38.26A7.87,7.87,0,0,1,334.59,155.3Zm.13,27.77v-22.7a6.46,6.46,0,0,1,2.2-.27,7.16,7.16,0,0,1,2.21.27v22.7a7.42,7.42,0,0,1-2.21.26A7.06,7.06,0,0,1,334.72,183.07Z"/><path class="cls-1" d="M361.43,173.06H348.16c.36,5.25,2.38,7,6.13,7a10.12,10.12,0,0,0,5.16-1.33,4.56,4.56,0,0,1,1.45,3.13s-2.51,1.94-7.4,1.94c-6.61,0-9.88-4.05-9.88-12.12,0-8.33,3.88-12,9.75-12,5.51,0,8.55,3.09,8.55,8.77A19.88,19.88,0,0,1,361.43,173.06Zm-13.31-3h9.57a15.33,15.33,0,0,0,.13-2.11c0-2.69-1.19-4.89-4.41-4.89C350.5,163.06,348.47,165,348.12,170.06Z"/><path class="cls-1" d="M391.67,168.3v14.77a5.1,5.1,0,0,1-1.81.26,5.45,5.45,0,0,1-1.81-.26l-.61-3c-1.1,2.39-3.57,3.66-7,3.66-4.19,0-6.83-2.46-6.83-7.27s2.86-6.92,8.51-6.92a48.41,48.41,0,0,1,5.11.26V168c0-3.13-1.37-4.68-4.67-4.68a18.67,18.67,0,0,0-5.91,1.06,3.11,3.11,0,0,1-1-1.32,4.06,4.06,0,0,1-.31-1.85,20.32,20.32,0,0,1,7.81-1.59C389.64,159.66,391.67,162.57,391.67,168.3Zm-4.41,6.08v-1.63c-1-.09-2.82-.26-4.5-.26-3.08,0-4.62,1.14-4.62,4s1.45,4,3.83,4C385.37,180.56,387.26,177.78,387.26,174.38Z"/><path class="cls-1" d="M396.87,183.07v-22.7a6.75,6.75,0,0,1,2.2-.27,7.16,7.16,0,0,1,2.21.27v2.29a8.83,8.83,0,0,1,6.83-3c4.41,0,6.79,2.65,6.79,6.61v16.8a7.84,7.84,0,0,1-2.21.26,7,7,0,0,1-2.2-.26V167.15c0-2.55-1.32-3.92-4.1-3.92a6.18,6.18,0,0,0-5.11,3v16.8a7.42,7.42,0,0,1-2.21.26A7,7,0,0,1,396.87,183.07Z"/><path class="cls-1" d="M432.66,181.83a4.76,4.76,0,0,1-.22,1.55,13,13,0,0,1-3.4.39c-5.46,0-7.45-2.86-7.45-8.46v-11.9h-3.35a4.58,4.58,0,0,1-.26-1.63,4.16,4.16,0,0,1,.26-1.68h3.35v-4.23A7.51,7.51,0,0,1,426,155v5.07h5.78a4.94,4.94,0,0,1,.22,1.63,5.81,5.81,0,0,1-.22,1.68H426v11.72c0,3.84,1.19,5.12,4.28,5.12a13.41,13.41,0,0,0,2-.18A4,4,0,0,1,432.66,181.83Z"/><path class="cls-1" d="M455.09,160.37,446.37,187c-1.5,4.67-3.18,7.36-7.76,7.36a9.62,9.62,0,0,1-2.91-.39,4.29,4.29,0,0,1-.31-1.68,3.81,3.81,0,0,1,.4-1.72,9.06,9.06,0,0,0,2,.22c2.12,0,3.22-.7,4.5-4.54l1-2.91a3.64,3.64,0,0,1-1.37-.31l-8.41-22.65a7.77,7.77,0,0,1,2.29-.27,7.45,7.45,0,0,1,2.29.27l5.11,13.49a39.64,39.64,0,0,1,1.55,5.2h.13s.44-2.16,1.41-5.2l4.5-13.49a6.61,6.61,0,0,1,2.16-.27A7.27,7.27,0,0,1,455.09,160.37Z"/><path class="cls-1" d="M477.44,171.74c0,9-3.3,12-8.42,12-3.08,0-5.11-1.1-6.39-3v2.25a9.48,9.48,0,0,1-4.41,0V150.54a9.14,9.14,0,0,1,4.41,0v12.12c1.28-1.9,3.31-3,6.39-3C474.14,159.66,477.44,162.7,477.44,171.74Zm-4.63,0c0-6.48-1.67-8.51-5.29-8.51-3.13,0-4.85,2.65-4.89,5.6v5.69c0,3,1.76,5.68,4.89,5.68C471.14,180.2,472.81,178.18,472.81,171.74Z"/><path class="cls-1" d="M481.8,155.3v-4a7.64,7.64,0,0,1,2.34-.27,8.54,8.54,0,0,1,2.38.27v4a8.85,8.85,0,0,1-2.38.26A7.91,7.91,0,0,1,481.8,155.3Zm.14,27.77v-22.7a6.46,6.46,0,0,1,2.2-.27,7.13,7.13,0,0,1,2.2.27v22.7a7.38,7.38,0,0,1-2.2.26A7,7,0,0,1,481.94,183.07Z"/><path class="cls-1" d="M490.84,171.7c0-8.73,3.79-12,9.87-12s9.83,3.31,9.83,12-3.74,12.07-9.83,12.07S490.84,180.47,490.84,171.7Zm15.16,0c0-6.75-2-8.64-5.29-8.64s-5.29,1.89-5.29,8.64,2,8.68,5.29,8.68S506,178.44,506,171.7Z"/><path class="cls-1" d="M527.51,181.83a4.76,4.76,0,0,1-.22,1.55,13,13,0,0,1-3.39.39c-5.47,0-7.45-2.86-7.45-8.46v-11.9H513.1a4.43,4.43,0,0,1-.27-1.63,4,4,0,0,1,.27-1.68h3.35v-4.23a7.48,7.48,0,0,1,4.41-.84v5.07h5.77a4.94,4.94,0,0,1,.22,1.63,5.81,5.81,0,0,1-.22,1.68h-5.77v11.72c0,3.84,1.19,5.12,4.27,5.12a13.24,13.24,0,0,0,2-.18A4,4,0,0,1,527.51,181.83Z"/><path class="cls-1" d="M550,160.37,541.22,187c-1.5,4.67-3.17,7.36-7.76,7.36a9.62,9.62,0,0,1-2.91-.39,4.29,4.29,0,0,1-.31-1.68,3.81,3.81,0,0,1,.4-1.72,9.17,9.17,0,0,0,2,.22c2.11,0,3.22-.7,4.49-4.54l1-2.91a3.55,3.55,0,0,1-1.36-.31l-8.42-22.65a7.77,7.77,0,0,1,2.29-.27,7.45,7.45,0,0,1,2.29.27l5.12,13.49a38.51,38.51,0,0,1,1.54,5.2h.13s.44-2.16,1.41-5.2l4.5-13.49a6.61,6.61,0,0,1,2.16-.27A7.39,7.39,0,0,1,550,160.37Z"/><path class="cls-1" d="M571.72,183a8.89,8.89,0,0,1-2.47.31,8.29,8.29,0,0,1-2.42-.31l-6.57-10.13h-2.78v10.18a7.23,7.23,0,0,1-2.16.26,8.21,8.21,0,0,1-2.24-.26V150.49a10.16,10.16,0,0,1,2.24-.22,9.81,9.81,0,0,1,2.16.22v19h2.87l5.86-9.17a7.77,7.77,0,0,1,2.29-.27,8.26,8.26,0,0,1,2.21.27l-6.66,10.53Z"/><path class="cls-1" d="M573.48,171.7c0-8.73,3.79-12,9.88-12s9.83,3.31,9.83,12-3.75,12.07-9.83,12.07S573.48,180.47,573.48,171.7Zm15.17,0c0-6.75-2-8.64-5.29-8.64s-5.29,1.89-5.29,8.64,2,8.68,5.29,8.68S588.65,178.44,588.65,171.7Zm-9.3-16,4.4-6.39a4.35,4.35,0,0,1,3.84,1.63l-5.69,6.12A3.41,3.41,0,0,1,579.35,155.74Z"/><path class="cls-1" d="M602.13,183.07l-6.65-22.7a7.45,7.45,0,0,1,2.2-.27,4.48,4.48,0,0,1,1.94.27L603.76,174a26.2,26.2,0,0,1,.93,4.81h.13a32.35,32.35,0,0,1,1-4.81l4-13.66a10.58,10.58,0,0,1,2.34-.27,7.13,7.13,0,0,1,2.2.27l4,13.57a27.58,27.58,0,0,1,.93,4.9h.13a38.36,38.36,0,0,1,1.06-4.85l4.1-13.62a6,6,0,0,1,2-.27,5.32,5.32,0,0,1,1.94.27l-6.66,22.7a12.05,12.05,0,0,1-5,0l-3.53-11.86a27.93,27.93,0,0,1-1.23-6.66H612a29.05,29.05,0,0,1-1.32,6.66l-3.53,11.86a13.1,13.1,0,0,1-2.47.26A14.14,14.14,0,0,1,602.13,183.07Z"/><path class="cls-1" d="M145.45,246.76a3.09,3.09,0,0,1-.17-1,4.44,4.44,0,0,1,.48-2.25,8,8,0,0,0,1.68.18c2.16,0,3.3-1.11,3.3-3.8V213.26A6.56,6.56,0,0,1,153,213a7.45,7.45,0,0,1,2.2.27v26.85c0,4.71-2.29,7.14-6.52,7.14A8.55,8.55,0,0,1,145.45,246.76Zm5.12-38.57v-4a8.11,8.11,0,0,1,2.38-.27,7.77,7.77,0,0,1,2.29.27v4a8.05,8.05,0,0,1-2.29.26A8.41,8.41,0,0,1,150.57,208.19Z"/><path class="cls-1" d="M177.46,226H164.19c.35,5.25,2.38,7,6.13,7a10.12,10.12,0,0,0,5.15-1.32,4.57,4.57,0,0,1,1.46,3.13s-2.51,1.94-7.41,1.94c-6.61,0-9.87-4.06-9.87-12.13,0-8.33,3.88-12,9.74-12,5.51,0,8.55,3.09,8.55,8.78A20.23,20.23,0,0,1,177.46,226Zm-13.32-3h9.57a14.13,14.13,0,0,0,.13-2.12c0-2.69-1.19-4.89-4.41-4.89C166.52,216,164.5,217.93,164.14,223Z"/><path class="cls-1" d="M180.85,235.08A3.93,3.93,0,0,1,182,232a18.81,18.81,0,0,0,6,1.06c2.91,0,4.59-1,4.59-3.26,0-2.43-2.56-3-5.2-3.75-3-.88-6.22-2.25-6.22-6.53s2.69-6.92,8.29-6.92a14.58,14.58,0,0,1,6.35,1.19,4.05,4.05,0,0,1-1.11,3.09,16,16,0,0,0-4.76-.75c-3.08,0-4.58,1.15-4.58,3.22s2.73,2.73,5.46,3.61c3,1,6.09,2.3,6.09,6.7s-2.73,7.06-8.55,7.06A17.9,17.9,0,0,1,180.85,235.08Z"/><path class="cls-1" d="M213.51,234.73a4.66,4.66,0,0,1-.22,1.54,12.94,12.94,0,0,1-3.39.4c-5.47,0-7.45-2.87-7.45-8.47V216.3H199.1a4.43,4.43,0,0,1-.27-1.63,4,4,0,0,1,.27-1.68h3.35v-4.23a7.54,7.54,0,0,1,4.4-.84V213h5.78a5,5,0,0,1,.22,1.64,5.78,5.78,0,0,1-.22,1.67h-5.78V228c0,3.83,1.19,5.11,4.28,5.11a13.41,13.41,0,0,0,2-.18A4.07,4.07,0,0,1,213.51,234.73Z"/><path class="cls-1" d="M230,236l-6.66-22.7a7.57,7.57,0,0,1,2.21-.27,4.53,4.53,0,0,1,1.94.27l4.14,13.66a25.13,25.13,0,0,1,.92,4.81h.14a32,32,0,0,1,1-4.81l4.06-13.66a10.43,10.43,0,0,1,2.33-.27,7.16,7.16,0,0,1,2.21.27l4,13.58a27.35,27.35,0,0,1,.93,4.89h.13a38.36,38.36,0,0,1,1.06-4.85l4.1-13.62a6.08,6.08,0,0,1,2-.27,5.26,5.26,0,0,1,1.94.27L249.79,236a13.6,13.6,0,0,1-2.52.27,13.3,13.3,0,0,1-2.46-.27l-3.53-11.86a28,28,0,0,1-1.24-6.65h-.13a29.1,29.1,0,0,1-1.32,6.65L235.06,236a12.93,12.93,0,0,1-2.47.27A13.85,13.85,0,0,1,230,236Z"/><path class="cls-1" d="M258.69,224.63c0-7.93,3.35-12.08,9.78-12.08,4.06,0,5.91,1.15,5.91,1.15a4.43,4.43,0,0,1-1.32,3.17,9.49,9.49,0,0,0-3.79-.7c-4.23,0-6,2.69-6,8.46s1.9,8.29,6.17,8.29a10.11,10.11,0,0,0,4.06-.79,4.43,4.43,0,0,1,1.32,3.13s-2.07,1.41-6.35,1.41C262,236.67,258.69,232.57,258.69,224.63Z"/><path class="cls-1" d="M278.39,208.19v-4a7.91,7.91,0,0,1,2.34-.26,8.85,8.85,0,0,1,2.38.26v4a8.85,8.85,0,0,1-2.38.26A7.91,7.91,0,0,1,278.39,208.19Zm.13,27.77v-22.7a6.49,6.49,0,0,1,2.21-.27,7.13,7.13,0,0,1,2.2.27V236a7.13,7.13,0,0,1-2.2.27A6.86,6.86,0,0,1,278.52,236Z"/><path class="cls-1" d="M305.06,246.19a7.29,7.29,0,0,1-4,1.06c-2.73,0-4.32-1.37-4.32-3.88s1.9-5.2,4.67-7.45l-.7-2.82c-1.1,2.33-3.53,3.57-6.92,3.57-4.19,0-6.84-2.47-6.84-7.28s2.87-6.92,8.51-6.92a45.76,45.76,0,0,1,5.12.27v-1.81c0-3.13-1.37-4.67-4.68-4.67a18.72,18.72,0,0,0-5.9,1.05,3,3,0,0,1-1-1.32,4,4,0,0,1-.31-1.85,20.24,20.24,0,0,1,7.8-1.59c6.44,0,8.46,2.91,8.46,8.64V236c-2.33,1.72-4.23,4.72-4.23,6.53,0,1.1.62,1.63,1.41,1.63a4.86,4.86,0,0,0,1.77-.49A3.83,3.83,0,0,1,305.06,246.19Zm-4.45-18.91v-1.63c-1-.09-2.78-.27-4.5-.27-3.09,0-4.63,1.15-4.63,4.06s1.46,4,3.84,4C298.71,233.45,300.61,230.67,300.61,227.28Z"/><path class="cls-1" d="M325.77,234.46a4.7,4.7,0,0,1-.3,1.77H309a5.71,5.71,0,0,1-.27-1.9,5.53,5.53,0,0,1,.27-1.67l11.77-16.09h-11a5.56,5.56,0,0,1-.27-1.81,4.82,4.82,0,0,1,.27-1.77h15.69a5.38,5.38,0,0,1,.27,1.68,7.39,7.39,0,0,1-.27,1.9l-11.77,16.09h11.82A4.41,4.41,0,0,1,325.77,234.46Zm-8.2-25.17a6.92,6.92,0,0,1-2.16-.26v-3.88a6.68,6.68,0,0,1,2.16-.27,6.91,6.91,0,0,1,2.16.27V209A7.15,7.15,0,0,1,317.57,209.29Z"/><path class="cls-1" d="M358,224.59c0,9-3.3,12.08-8.37,12.08-3.13,0-5.16-1.11-6.44-3v12.66a9.48,9.48,0,0,1-4.41,0v-33a9.14,9.14,0,0,1,4.41,0v2.29c1.28-1.94,3.31-3,6.44-3C354.64,212.55,358,215.55,358,224.59Zm-4.62,0c0-6.48-1.68-8.47-5.29-8.47-3.09,0-4.85,2.61-4.9,5.56v5.69c0,2.9,1.72,5.73,4.9,5.73C351.69,233.1,353.37,231.16,353.37,224.59Z"/><path class="cls-1" d="M361.47,224.59c0-8.73,3.8-12,9.88-12s9.83,3.31,9.83,12-3.75,12.08-9.83,12.08S361.47,233.36,361.47,224.59Zm15.17,0c0-6.75-2-8.64-5.29-8.64s-5.29,1.89-5.29,8.64,2,8.68,5.29,8.68S376.64,231.33,376.64,224.59Z"/><path class="cls-1" d="M390.12,236l-6.65-22.7a7.45,7.45,0,0,1,2.2-.27,4.48,4.48,0,0,1,1.94.27l4.15,13.66a26.85,26.85,0,0,1,.92,4.81h.13a33.72,33.72,0,0,1,1-4.81l4.05-13.66a10.58,10.58,0,0,1,2.34-.27,7.13,7.13,0,0,1,2.2.27l4,13.58a27.35,27.35,0,0,1,.93,4.89h.13a38.36,38.36,0,0,1,1.06-4.85l4.1-13.62a6,6,0,0,1,2-.27,5.32,5.32,0,0,1,1.94.27L409.87,236a11.62,11.62,0,0,1-5,0l-3.52-11.86a28,28,0,0,1-1.24-6.65H400a29.1,29.1,0,0,1-1.32,6.65L395.15,236a13,13,0,0,1-2.47.27A14.07,14.07,0,0,1,390.12,236Z"/><path class="cls-1" d="M418.42,235.08a3.94,3.94,0,0,1,1.15-3.13,18.72,18.72,0,0,0,6,1.06c2.91,0,4.58-1,4.58-3.26,0-2.43-2.56-3-5.2-3.75-3-.88-6.22-2.25-6.22-6.53s2.69-6.92,8.29-6.92a14.54,14.54,0,0,1,6.35,1.19,4.08,4.08,0,0,1-1.1,3.09,16.16,16.16,0,0,0-4.76-.75c-3.09,0-4.59,1.15-4.59,3.22s2.73,2.73,5.47,3.61c2.95,1,6.08,2.3,6.08,6.7s-2.73,7.06-8.55,7.06A17.93,17.93,0,0,1,418.42,235.08Z"/><path class="cls-1" d="M454.08,234.46a4.57,4.57,0,0,1-.31,1.77H437.29a5.71,5.71,0,0,1-.27-1.9,5.23,5.23,0,0,1,.27-1.67l11.77-16.09H438a5.56,5.56,0,0,1-.27-1.81A4.82,4.82,0,0,1,438,213h15.69a5.42,5.42,0,0,1,.26,1.68,7.44,7.44,0,0,1-.26,1.9L442,232.66h11.81A4.29,4.29,0,0,1,454.08,234.46Z"/><path class="cls-1" d="M475,226H461.75c.35,5.25,2.38,7,6.13,7A10.12,10.12,0,0,0,473,231.6a4.53,4.53,0,0,1,1.46,3.13s-2.51,1.94-7.41,1.94c-6.61,0-9.87-4.06-9.87-12.13,0-8.33,3.88-12,9.74-12,5.51,0,8.55,3.09,8.55,8.78A20.23,20.23,0,0,1,475,226Zm-13.31-3h9.56a14.13,14.13,0,0,0,.13-2.12c0-2.69-1.19-4.89-4.4-4.89C464.09,216,462.06,217.93,461.71,223Z"/><path class="cls-1" d="M478.76,224.63c0-7.93,3.35-12.08,9.79-12.08,4.05,0,5.91,1.15,5.91,1.15a4.48,4.48,0,0,1-1.33,3.17,9.43,9.43,0,0,0-3.79-.7c-4.23,0-6,2.69-6,8.46s1.89,8.29,6.17,8.29a10.09,10.09,0,0,0,4.05-.79,4.44,4.44,0,0,1,1.33,3.13s-2.08,1.41-6.35,1.41C482.11,236.67,478.76,232.57,478.76,224.63Z"/><path class="cls-1" d="M516.54,219.17V236a7.48,7.48,0,0,1-2.21.27,6.75,6.75,0,0,1-2.2-.27V220.05c0-2.56-1.32-3.93-4.1-3.93a6.17,6.17,0,0,0-5.11,3V236a7.16,7.16,0,0,1-2.21.27,6.75,6.75,0,0,1-2.2-.27V203.43a6.75,6.75,0,0,1,2.2-.27,7.16,7.16,0,0,1,2.21.27v12a8.93,8.93,0,0,1,6.83-2.91C514.16,212.55,516.54,215.2,516.54,219.17Z"/><path class="cls-1" d="M521.74,236v-22.7a6.75,6.75,0,0,1,2.2-.27,7,7,0,0,1,2.2.27v2.29a8.9,8.9,0,0,1,6.84-3c4.41,0,6.79,2.65,6.79,6.62V236a7.57,7.57,0,0,1-2.21.27,6.75,6.75,0,0,1-2.2-.27V220.05c0-2.56-1.32-3.93-4.1-3.93a6.17,6.17,0,0,0-5.12,3V236a7,7,0,0,1-2.2.27A6.75,6.75,0,0,1,521.74,236Z"/><path class="cls-1" d="M561.8,226H548.54c.35,5.25,2.38,7,6.12,7a10.18,10.18,0,0,0,5.16-1.32,4.57,4.57,0,0,1,1.46,3.13s-2.52,1.94-7.41,1.94c-6.61,0-9.87-4.06-9.87-12.13,0-8.33,3.88-12,9.74-12,5.51,0,8.55,3.09,8.55,8.78A19.84,19.84,0,0,1,561.8,226Zm-13.31-3h9.57a14.13,14.13,0,0,0,.13-2.12c0-2.69-1.19-4.89-4.41-4.89C550.87,216,548.84,217.93,548.49,223Z"/><path class="cls-1" d="M566.12,240.59a7.5,7.5,0,0,0,1.63-4.36,5,5,0,0,1-1.54-.27v-4.27a10.23,10.23,0,0,1,4.67,0v3a9.17,9.17,0,0,1-3.08,7Z"/><path class="cls-1" d="M150.61,288.85v-22.7a7.1,7.1,0,0,1,2.21-.26,7.38,7.38,0,0,1,2.2.26v2.25a8.31,8.31,0,0,1,6.52-2.95,5.77,5.77,0,0,1,5.74,3.43,8.79,8.79,0,0,1,7.27-3.43c4.19,0,6.48,2.64,6.48,6.65v16.75a7.45,7.45,0,0,1-2.2.27,6.86,6.86,0,0,1-2.21-.27V272.94c0-2.6-1.19-3.92-3.79-3.92A5.5,5.5,0,0,0,168,272.1v16.75a7.45,7.45,0,0,1-2.2.27,6.75,6.75,0,0,1-2.2-.27V272.94c0-2.6-1.19-3.92-3.79-3.92a5.73,5.73,0,0,0-4.81,3v16.79a7.45,7.45,0,0,1-2.2.27A6.86,6.86,0,0,1,150.61,288.85Z"/><path class="cls-1" d="M186.18,261.08v-4a7.91,7.91,0,0,1,2.34-.26,8.85,8.85,0,0,1,2.38.26v4a8.54,8.54,0,0,1-2.38.27A7.64,7.64,0,0,1,186.18,261.08Zm.13,27.77v-22.7a6.79,6.79,0,0,1,2.21-.26,7.38,7.38,0,0,1,2.2.26v22.7a7.13,7.13,0,0,1-2.2.27A6.86,6.86,0,0,1,186.31,288.85Z"/><path class="cls-1" d="M196.19,288.85v-22.7a7,7,0,0,1,2.2-.26,7.42,7.42,0,0,1,2.21.26v2.25a8.31,8.31,0,0,1,6.52-2.95,5.76,5.76,0,0,1,5.73,3.43,8.8,8.8,0,0,1,7.27-3.43c4.19,0,6.48,2.64,6.48,6.65v16.75a7.45,7.45,0,0,1-2.2.27,6.75,6.75,0,0,1-2.2-.27V272.94c0-2.6-1.19-3.92-3.79-3.92a5.49,5.49,0,0,0-4.81,3.08v16.75a7.45,7.45,0,0,1-2.2.27,6.86,6.86,0,0,1-2.21-.27V272.94c0-2.6-1.19-3.92-3.79-3.92a5.73,5.73,0,0,0-4.8,3v16.79a7.57,7.57,0,0,1-2.21.27A6.75,6.75,0,0,1,196.19,288.85Z"/><path class="cls-1" d="M230.83,277.48c0-8.73,3.79-12,9.88-12s9.83,3.3,9.83,12-3.75,12.08-9.83,12.08S230.83,286.25,230.83,277.48Zm15.17,0c0-6.74-2-8.64-5.29-8.64s-5.29,1.9-5.29,8.64,2,8.68,5.29,8.68S246,284.23,246,277.48Z"/><path class="cls-1" d="M262.88,277.48c0-8.73,3.79-12,9.87-12s9.83,3.3,9.83,12-3.75,12.08-9.83,12.08S262.88,286.25,262.88,277.48Zm15.16,0c0-6.74-2-8.64-5.29-8.64s-5.29,1.9-5.29,8.64,2,8.68,5.29,8.68S278,284.23,278,277.48Z"/><path class="cls-1" d="M306,268.93l-3.62-.09a8.18,8.18,0,0,1,1.19,4.5c0,4.89-3,7.89-8.73,7.89a15.43,15.43,0,0,1-2-.13,4,4,0,0,0-.93,2.68c.44,4.1,14-.3,14,8.78,0,4.32-4.1,7.58-11.42,7.58-6.56,0-9.47-2.56-9.47-6.17,0-3.4,2.69-5.38,3.88-6.13a3.48,3.48,0,0,1-1-2.6,7.54,7.54,0,0,1,2.2-4.89c-2.56-1.19-4.06-3.53-4.06-7,0-4.85,3.09-7.89,8.73-7.89a10.71,10.71,0,0,1,5,1.1l6.18-1.06A5.47,5.47,0,0,1,306,268.93Zm-14.64,20.14a5.4,5.4,0,0,0-2.07,4c0,2.33,1.67,3.92,5.33,3.92,4.59,0,7.1-1.59,7.1-4C301.71,289.21,295.41,290.22,291.35,289.07Zm7.93-15.78c0-3.3-1.76-4.85-4.45-4.85s-4.45,1.55-4.45,4.85,1.81,4.94,4.45,4.94S299.28,276.69,299.28,273.29Z"/><path class="cls-1" d="M309.46,288.85v-22.7a7.1,7.1,0,0,1,2.21-.26,5.6,5.6,0,0,1,2.07.26l.05,3.18c1.71-3.05,3.92-3.84,5.68-3.84a6.8,6.8,0,0,1,3.79,1.1,5.17,5.17,0,0,1-1.94,3.66,4.27,4.27,0,0,0-2.73-.88c-1.76,0-3.48,1.37-4.72,3.57v15.91a7.13,7.13,0,0,1-2.2.27A6.86,6.86,0,0,1,309.46,288.85Z"/><path class="cls-1" d="M342.61,274.09v14.76a4.84,4.84,0,0,1-1.8.27,5.2,5.2,0,0,1-1.81-.27l-.62-3c-1.1,2.38-3.57,3.66-7,3.66-4.19,0-6.84-2.47-6.84-7.27s2.87-6.93,8.51-6.93a47.94,47.94,0,0,1,5.11.27v-1.81c0-3.13-1.36-4.67-4.67-4.67a18.67,18.67,0,0,0-5.91,1.06,3.28,3.28,0,0,1-1-1.33,4.13,4.13,0,0,1-.3-1.85,20.34,20.34,0,0,1,7.8-1.58C340.58,265.45,342.61,268.36,342.61,274.09Zm-4.41,6.08v-1.63c-1-.09-2.82-.27-4.49-.27-3.09,0-4.63,1.15-4.63,4.06s1.45,4,3.83,4C336.31,286.34,338.2,283.56,338.2,280.17Z"/><path class="cls-1" d="M347.81,288.85v-22.7a7.1,7.1,0,0,1,2.21-.26,7.38,7.38,0,0,1,2.2.26v2.29a8.87,8.87,0,0,1,6.83-3c4.41,0,6.79,2.64,6.79,6.61v16.79a7.45,7.45,0,0,1-2.2.27,6.86,6.86,0,0,1-2.21-.27V272.94c0-2.56-1.32-3.92-4.1-3.92a6.16,6.16,0,0,0-5.11,3v16.79a7.13,7.13,0,0,1-2.2.27A6.86,6.86,0,0,1,347.81,288.85Z"/><path class="cls-1" d="M371,261.08v-4a7.79,7.79,0,0,1,2.33-.26,8.85,8.85,0,0,1,2.38.26v4a8.54,8.54,0,0,1-2.38.27A7.52,7.52,0,0,1,371,261.08Zm.13,27.77v-22.7a6.68,6.68,0,0,1,2.2-.26,7.42,7.42,0,0,1,2.21.26v22.7a7.16,7.16,0,0,1-2.21.27A6.75,6.75,0,0,1,371.13,288.85Z"/><path class="cls-1" d="M380,277.52c0-7.93,3.35-12.07,9.79-12.07,4.05,0,5.9,1.14,5.9,1.14a4.43,4.43,0,0,1-1.32,3.18,9.32,9.32,0,0,0-3.79-.71c-4.23,0-6,2.69-6,8.46s1.89,8.29,6.17,8.29a10.09,10.09,0,0,0,4-.79,4.44,4.44,0,0,1,1.33,3.13s-2.08,1.41-6.35,1.41C383.38,289.56,380,285.46,380,277.52Z"/><path class="cls-1" d="M415.34,287.36a4.48,4.48,0,0,1-.31,1.76H398.54a6,6,0,0,1-.26-1.9,5.62,5.62,0,0,1,.26-1.67l11.77-16.09h-11a5.75,5.75,0,0,1-.26-1.81,4.88,4.88,0,0,1,.26-1.76H415a5.35,5.35,0,0,1,.26,1.67,7.44,7.44,0,0,1-.26,1.9l-11.77,16.09H415A4.31,4.31,0,0,1,415.34,287.36Z"/><path class="cls-1" d="M436.05,274.09v14.76a4.84,4.84,0,0,1-1.8.27,5.2,5.2,0,0,1-1.81-.27l-.62-3c-1.1,2.38-3.57,3.66-7,3.66-4.19,0-6.83-2.47-6.83-7.27s2.86-6.93,8.5-6.93a48.31,48.31,0,0,1,5.12.27v-1.81c0-3.13-1.37-4.67-4.68-4.67a18.57,18.57,0,0,0-5.9,1.06,3.1,3.1,0,0,1-1-1.33,4,4,0,0,1-.31-1.85,20.34,20.34,0,0,1,7.8-1.58C434,265.45,436.05,268.36,436.05,274.09Zm-4.4,6.08v-1.63c-1-.09-2.82-.27-4.5-.27-3.09,0-4.63,1.15-4.63,4.06s1.46,4,3.84,4C429.75,286.34,431.65,283.56,431.65,280.17Z"/><path class="cls-1" d="M441.25,288.85v-22.7a7.1,7.1,0,0,1,2.21-.26,7.38,7.38,0,0,1,2.2.26v2.29a8.88,8.88,0,0,1,6.84-3c4.4,0,6.78,2.64,6.78,6.61v16.79a7.45,7.45,0,0,1-2.2.27,6.75,6.75,0,0,1-2.2-.27V272.94c0-2.56-1.33-3.92-4.1-3.92a6.16,6.16,0,0,0-5.12,3v16.79a7.13,7.13,0,0,1-2.2.27A6.86,6.86,0,0,1,441.25,288.85Z"/><path class="cls-1" d="M464.44,261.08v-4a7.87,7.87,0,0,1,2.33-.26,8.76,8.76,0,0,1,2.38.26v4a8.45,8.45,0,0,1-2.38.27A7.6,7.6,0,0,1,464.44,261.08Zm.13,27.77v-22.7a6.68,6.68,0,0,1,2.2-.26,7.42,7.42,0,0,1,2.21.26v22.7a7.16,7.16,0,0,1-2.21.27A6.82,6.82,0,0,1,464.57,288.85Z"/><path class="cls-1" d="M491.06,274.09v14.76a4.87,4.87,0,0,1-1.81.27,5.17,5.17,0,0,1-1.8-.27l-.62-3c-1.1,2.38-3.57,3.66-7,3.66-4.19,0-6.84-2.47-6.84-7.27s2.87-6.93,8.51-6.93a47.94,47.94,0,0,1,5.11.27v-1.81c0-3.13-1.36-4.67-4.67-4.67a18.67,18.67,0,0,0-5.91,1.06,3.28,3.28,0,0,1-1-1.33,4.13,4.13,0,0,1-.3-1.85,20.34,20.34,0,0,1,7.8-1.58C489,265.45,491.06,268.36,491.06,274.09Zm-4.41,6.08v-1.63c-1-.09-2.82-.27-4.49-.27-3.09,0-4.63,1.15-4.63,4.06s1.45,4,3.83,4C484.76,286.34,486.65,283.56,486.65,280.17Z"/><path class="cls-1" d="M509.71,288.85l-6.66-22.7a7.71,7.71,0,0,1,2.2-.26,4.63,4.63,0,0,1,1.94.26l4.15,13.67a26.78,26.78,0,0,1,.92,4.8h.13a33.37,33.37,0,0,1,1-4.8l4.05-13.67a11,11,0,0,1,2.34-.26,7.38,7.38,0,0,1,2.2.26l4,13.58a27.35,27.35,0,0,1,.93,4.89H527a38.36,38.36,0,0,1,1.06-4.85l4.1-13.62a6.21,6.21,0,0,1,2-.26,5.51,5.51,0,0,1,1.94.26l-6.66,22.7a11.62,11.62,0,0,1-5,0L521,277a28.18,28.18,0,0,1-1.24-6.66h-.13a29.25,29.25,0,0,1-1.32,6.66l-3.53,11.85a12.17,12.17,0,0,1-2.47.27A13,13,0,0,1,509.71,288.85Z"/><path class="cls-1" d="M538,288a3.94,3.94,0,0,1,1.15-3.13,18.72,18.72,0,0,0,6,1.06c2.91,0,4.58-1,4.58-3.26,0-2.43-2.56-3-5.2-3.75-3-.88-6.22-2.25-6.22-6.52s2.69-6.92,8.29-6.92a14.4,14.4,0,0,1,6.35,1.19,4.06,4.06,0,0,1-1.1,3.08,16.16,16.16,0,0,0-4.76-.75c-3.09,0-4.59,1.15-4.59,3.22s2.73,2.73,5.47,3.62c3,1,6.08,2.29,6.08,6.7s-2.73,7.05-8.55,7.05A17.93,17.93,0,0,1,538,288Z"/><path class="cls-1" d="M576.75,288.81a8.89,8.89,0,0,1-2.47.31,8.41,8.41,0,0,1-2.43-.31l-6.56-10.14h-2.78v10.18a7,7,0,0,1-2.16.27,8.05,8.05,0,0,1-2.25-.27V256.28a10.2,10.2,0,0,1,2.25-.22,9.81,9.81,0,0,1,2.16.22v19h2.86l5.87-9.17a8.05,8.05,0,0,1,2.29-.26,8.52,8.52,0,0,1,2.2.26l-6.65,10.54Z"/><path class="cls-1" d="M596.1,274.09v14.76a4.93,4.93,0,0,1-1.81.27,5.2,5.2,0,0,1-1.81-.27l-.61-3c-1.11,2.38-3.58,3.66-7,3.66-4.19,0-6.83-2.47-6.83-7.27s2.86-6.93,8.51-6.93a48.1,48.1,0,0,1,5.11.27v-1.81c0-3.13-1.37-4.67-4.67-4.67a18.67,18.67,0,0,0-5.91,1.06,3.19,3.19,0,0,1-1-1.33,4,4,0,0,1-.31-1.85,20.34,20.34,0,0,1,7.8-1.58C594.07,265.45,596.1,268.36,596.1,274.09Zm-4.41,6.08v-1.63c-1-.09-2.82-.27-4.5-.27-3.08,0-4.63,1.15-4.63,4.06s1.46,4,3.84,4C589.79,286.34,591.69,283.56,591.69,280.17Z"/><path class="cls-1" d="M616.86,287.36a4.48,4.48,0,0,1-.31,1.76H600.06a5.73,5.73,0,0,1-.26-1.9,5.62,5.62,0,0,1,.26-1.67l11.77-16.09h-11a5.75,5.75,0,0,1-.26-1.81,4.88,4.88,0,0,1,.26-1.76H616.5a5,5,0,0,1,.27,1.67,7,7,0,0,1-.27,1.9l-11.77,16.09h11.82A4.31,4.31,0,0,1,616.86,287.36Z"/><path class="cls-1" d="M637.57,274.09v14.76a4.84,4.84,0,0,1-1.8.27,5.2,5.2,0,0,1-1.81-.27l-.62-3c-1.1,2.38-3.57,3.66-7,3.66-4.19,0-6.84-2.47-6.84-7.27s2.87-6.93,8.51-6.93a48.31,48.31,0,0,1,5.12.27v-1.81c0-3.13-1.37-4.67-4.68-4.67a18.67,18.67,0,0,0-5.91,1.06,3.21,3.21,0,0,1-1-1.33,4,4,0,0,1-.31-1.85,20.34,20.34,0,0,1,7.8-1.58C635.55,265.45,637.57,268.36,637.57,274.09Zm-4.4,6.08v-1.63c-1-.09-2.83-.27-4.5-.27-3.09,0-4.63,1.15-4.63,4.06s1.45,4,3.84,4C631.27,286.34,633.17,283.56,633.17,280.17Z"/><path class="cls-1" d="M642.77,288.85v-22.7a7.1,7.1,0,0,1,2.21-.26,7.38,7.38,0,0,1,2.2.26v2.29a8.86,8.86,0,0,1,6.83-3c4.41,0,6.79,2.64,6.79,6.61v16.79a7.45,7.45,0,0,1-2.2.27,6.86,6.86,0,0,1-2.21-.27V272.94c0-2.56-1.32-3.92-4.1-3.92a6.16,6.16,0,0,0-5.11,3v16.79a7.13,7.13,0,0,1-2.2.27A6.86,6.86,0,0,1,642.77,288.85ZM648,261.52l4.41-6.39a4.37,4.37,0,0,1,3.83,1.63l-5.69,6.13A3.4,3.4,0,0,1,648,261.52Z"/><path class="cls-1" d="M155.15,341.75,148.5,319a7.71,7.71,0,0,1,2.2-.26,4.63,4.63,0,0,1,1.94.26l4.14,13.67a26.2,26.2,0,0,1,.93,4.81h.13a32.35,32.35,0,0,1,1-4.81l4-13.67a11,11,0,0,1,2.34-.26,7.38,7.38,0,0,1,2.2.26l4,13.58a27.58,27.58,0,0,1,.93,4.9h.13a38,38,0,0,1,1.06-4.85L177.63,319a6.32,6.32,0,0,1,2-.26,5.51,5.51,0,0,1,1.94.26l-6.66,22.71a12.05,12.05,0,0,1-5,0l-3.53-11.86a27.93,27.93,0,0,1-1.23-6.66H165a29.73,29.73,0,0,1-1.32,6.66l-3.53,11.86a13.1,13.1,0,0,1-2.47.26A14.14,14.14,0,0,1,155.15,341.75Z"/><path class="cls-1" d="M192.71,330.37c0-8.72,3.79-12,9.87-12s9.83,3.31,9.83,12-3.75,12.08-9.83,12.08S192.71,339.15,192.71,330.37Zm15.16,0c0-6.74-2-8.64-5.29-8.64s-5.29,1.9-5.29,8.64,2,8.69,5.29,8.69S207.87,337.12,207.87,330.37Z"/><path class="cls-1" d="M236,330.42c0,9-3.31,12-8.42,12-3.09,0-5.12-1.1-6.4-2.95v2.25a7.38,7.38,0,0,1-2.2.26,7.3,7.3,0,0,1-2.2-.26V309.21A7.3,7.3,0,0,1,219,309a7.38,7.38,0,0,1,2.2.26v12.13c1.28-1.9,3.31-3,6.4-3C232.73,318.34,236,321.38,236,330.42Zm-4.63,0c0-6.48-1.68-8.51-5.29-8.51-3.13,0-4.85,2.65-4.9,5.6v5.69c0,3,1.77,5.68,4.9,5.68C229.73,338.88,231.41,336.85,231.41,330.42Z"/><path class="cls-1" d="M257.28,331.74H244c.35,5.25,2.38,7,6.13,7a10.12,10.12,0,0,0,5.16-1.33,4.56,4.56,0,0,1,1.45,3.13s-2.51,1.94-7.4,1.94c-6.62,0-9.88-4.05-9.88-12.12,0-8.33,3.88-12,9.74-12,5.51,0,8.55,3.09,8.55,8.77A20.27,20.27,0,0,1,257.28,331.74Zm-13.31-3h9.56a13.84,13.84,0,0,0,.14-2.11c0-2.69-1.19-4.9-4.41-4.9C246.35,321.73,244.32,323.72,244,328.74Z"/><path class="cls-1" d="M261,330.42c0-7.94,3.35-12.08,9.79-12.08,4.06,0,5.91,1.15,5.91,1.15a4.51,4.51,0,0,1-1.32,3.17,9.4,9.4,0,0,0-3.8-.71c-4.23,0-6,2.69-6,8.47s1.89,8.29,6.17,8.29a10,10,0,0,0,4.06-.8,4.51,4.51,0,0,1,1.32,3.13s-2.07,1.41-6.35,1.41C264.37,342.45,261,338.35,261,330.42Z"/><path class="cls-1" d="M280.77,341.75V319a7.06,7.06,0,0,1,2.2-.26,7.42,7.42,0,0,1,2.21.26v2.3a8.83,8.83,0,0,1,6.83-3c4.41,0,6.79,2.64,6.79,6.61v16.8a7.71,7.71,0,0,1-2.2.26,7.1,7.1,0,0,1-2.21-.26V325.83c0-2.55-1.32-3.92-4.1-3.92a6.18,6.18,0,0,0-5.11,3v16.8A7.42,7.42,0,0,1,283,342,7.06,7.06,0,0,1,280.77,341.75Z"/><path class="cls-1" d="M323.35,319l-8.73,26.63c-1.5,4.67-3.17,7.36-7.76,7.36a9.56,9.56,0,0,1-2.9-.39,4.35,4.35,0,0,1-.31-1.68,3.89,3.89,0,0,1,.39-1.72,9.17,9.17,0,0,0,2,.22c2.12,0,3.22-.7,4.5-4.54l1-2.91a3.56,3.56,0,0,1-1.37-.31L301.75,319a8.05,8.05,0,0,1,2.29-.26,7.76,7.76,0,0,1,2.3.26l5.11,13.49a38.84,38.84,0,0,1,1.54,5.21h.13s.44-2.16,1.41-5.21L319,319a6.92,6.92,0,0,1,2.16-.26A7.57,7.57,0,0,1,323.35,319Z"/><path class="cls-1" d="M325.51,330.42c0-7.94,3.35-12.08,9.78-12.08,4.06,0,5.91,1.15,5.91,1.15a4.43,4.43,0,0,1-1.32,3.17,9.38,9.38,0,0,0-3.79-.71c-4.23,0-6,2.69-6,8.47s1.9,8.29,6.17,8.29a10,10,0,0,0,4.06-.8,4.47,4.47,0,0,1,1.32,3.13s-2.07,1.41-6.35,1.41C328.86,342.45,325.51,338.35,325.51,330.42Z"/><path class="cls-1" d="M363.28,325v16.8a7.71,7.71,0,0,1-2.2.26,7,7,0,0,1-2.2-.26V325.83c0-2.55-1.33-3.92-4.1-3.92a6.19,6.19,0,0,0-5.12,3v16.8a7.38,7.38,0,0,1-2.2.26,7.1,7.1,0,0,1-2.21-.26V309.21a7.1,7.1,0,0,1,2.21-.26,7.38,7.38,0,0,1,2.2.26v12a9,9,0,0,1,6.84-2.91C360.9,318.34,363.28,321,363.28,325Z"/><path class="cls-1" d="M381.93,341.75,375.27,319a7.71,7.71,0,0,1,2.2-.26,4.63,4.63,0,0,1,1.94.26l4.15,13.67a26,26,0,0,1,.92,4.81h.14a32,32,0,0,1,1-4.81L389.68,319a11,11,0,0,1,2.34-.26,7.42,7.42,0,0,1,2.21.26l4,13.58a27.58,27.58,0,0,1,.93,4.9h.13a38,38,0,0,1,1.06-4.85l4.1-13.63a6.21,6.21,0,0,1,2-.26,5.51,5.51,0,0,1,1.94.26l-6.65,22.71a12.1,12.1,0,0,1-5,0l-3.52-11.86a28.1,28.1,0,0,1-1.24-6.66h-.13a29.15,29.15,0,0,1-1.32,6.66L387,341.75a13,13,0,0,1-2.47.26A13.93,13.93,0,0,1,381.93,341.75Z"/><path class="cls-1" d="M430.9,319l-8.73,26.63c-1.5,4.67-3.17,7.36-7.76,7.36a9.62,9.62,0,0,1-2.91-.39,4.35,4.35,0,0,1-.31-1.68,3.81,3.81,0,0,1,.4-1.72,9.17,9.17,0,0,0,2,.22c2.11,0,3.21-.7,4.49-4.54l1-2.91a3.55,3.55,0,0,1-1.36-.31L409.3,319a8.05,8.05,0,0,1,2.29-.26,7.72,7.72,0,0,1,2.29.26L419,332.53a38.84,38.84,0,0,1,1.54,5.21h.13s.44-2.16,1.41-5.21l4.5-13.49a6.84,6.84,0,0,1,2.16-.26A7.65,7.65,0,0,1,430.9,319Z"/><path class="cls-1" d="M446.59,340.51a4.76,4.76,0,0,1-.22,1.55,13.09,13.09,0,0,1-3.4.39c-5.46,0-7.45-2.86-7.45-8.46v-11.9h-3.35a4.61,4.61,0,0,1-.26-1.64,4.13,4.13,0,0,1,.26-1.67h3.35v-4.23a7.48,7.48,0,0,1,4.41-.84v5.07h5.78a4.94,4.94,0,0,1,.22,1.63,5.81,5.81,0,0,1-.22,1.68h-5.78v11.72c0,3.84,1.19,5.12,4.28,5.12a13.41,13.41,0,0,0,2-.18A4,4,0,0,1,446.59,340.51Z"/><path class="cls-1" d="M469,319l-8.73,26.63c-1.49,4.67-3.17,7.36-7.75,7.36a9.62,9.62,0,0,1-2.91-.39,4.35,4.35,0,0,1-.31-1.68,3.89,3.89,0,0,1,.39-1.72,9.25,9.25,0,0,0,2,.22c2.12,0,3.22-.7,4.5-4.54l1-2.91a3.56,3.56,0,0,1-1.37-.31L447.42,319a8.14,8.14,0,0,1,2.29-.26,7.76,7.76,0,0,1,2.3.26l5.11,13.49a38.84,38.84,0,0,1,1.54,5.21h.14s.44-2.16,1.41-5.21L464.7,319a6.92,6.92,0,0,1,2.16-.26A7.57,7.57,0,0,1,469,319Z"/><path class="cls-1" d="M471.18,330.42c0-7.94,3.35-12.08,9.79-12.08,4,0,5.9,1.15,5.9,1.15a4.43,4.43,0,0,1-1.32,3.17,9.32,9.32,0,0,0-3.79-.71c-4.23,0-6,2.69-6,8.47s1.9,8.29,6.18,8.29a10,10,0,0,0,4.05-.8,4.43,4.43,0,0,1,1.32,3.13s-2.07,1.41-6.34,1.41C474.53,342.45,471.18,338.35,471.18,330.42Z"/><path class="cls-1" d="M506.49,340.25a4.48,4.48,0,0,1-.31,1.76H489.69a5.9,5.9,0,0,1-.26-1.89,5.64,5.64,0,0,1,.26-1.68l11.77-16.09h-11a5.67,5.67,0,0,1-.26-1.81,5,5,0,0,1,.26-1.76h15.7a5.4,5.4,0,0,1,.26,1.67,7.37,7.37,0,0,1-.26,1.9l-11.77,16.09h11.81A4.37,4.37,0,0,1,506.49,340.25Z"/><path class="cls-1" d="M510.58,341.75V319a7.1,7.1,0,0,1,2.21-.26,7.38,7.38,0,0,1,2.2.26v2.3a8.85,8.85,0,0,1,6.84-3c4.4,0,6.79,2.64,6.79,6.61v16.8a7.84,7.84,0,0,1-2.21.26,7,7,0,0,1-2.2-.26V325.83c0-2.55-1.33-3.92-4.1-3.92a6.19,6.19,0,0,0-5.12,3v16.8a7.38,7.38,0,0,1-2.2.26A7.1,7.1,0,0,1,510.58,341.75Z"/><path class="cls-1" d="M553.17,319l-8.73,26.63c-1.5,4.67-3.18,7.36-7.76,7.36a9.62,9.62,0,0,1-2.91-.39,4.35,4.35,0,0,1-.31-1.68,3.81,3.81,0,0,1,.4-1.72,9.14,9.14,0,0,0,2,.22c2.12,0,3.22-.7,4.5-4.54l1-2.91a3.64,3.64,0,0,1-1.37-.31L531.57,319a8.05,8.05,0,0,1,2.29-.26,7.72,7.72,0,0,1,2.29.26l5.11,13.49a38.14,38.14,0,0,1,1.55,5.21h.13s.44-2.16,1.41-5.21l4.5-13.49a6.84,6.84,0,0,1,2.16-.26A7.65,7.65,0,0,1,553.17,319Z"/><path class="cls-1" d="M555.32,330.42c0-7.94,3.35-12.08,9.79-12.08,4.06,0,5.91,1.15,5.91,1.15a4.48,4.48,0,0,1-1.33,3.17,9.32,9.32,0,0,0-3.79-.71c-4.23,0-6,2.69-6,8.47s1.89,8.29,6.17,8.29a10,10,0,0,0,4-.8,4.48,4.48,0,0,1,1.33,3.13s-2.07,1.41-6.35,1.41C558.67,342.45,555.32,338.35,555.32,330.42Z"/><path class="cls-1" d="M593.1,325v16.8a7.75,7.75,0,0,1-2.21.26,7.06,7.06,0,0,1-2.2-.26V325.83c0-2.55-1.32-3.92-4.1-3.92a6.18,6.18,0,0,0-5.11,3v16.8a7.42,7.42,0,0,1-2.21.26,7,7,0,0,1-2.2-.26V309.21a7,7,0,0,1,2.2-.26,7.42,7.42,0,0,1,2.21.26v12a8.93,8.93,0,0,1,6.83-2.91C590.72,318.34,593.1,321,593.1,325Z"/></svg>