<svg xmlns="http://www.w3.org/2000/svg" xmlns:xlink="http://www.w3.org/1999/xlink" viewBox="0 0 600 170"><defs><style>.cls-1,.cls-21,.cls-22,.cls-23,.cls-24,.cls-25,.cls-26{fill:none;}.cls-2{fill:#0056a3;}.cls-3{clip-path:url(#clip-path);}.cls-4{fill:#868686;}.cls-5{clip-path:url(#clip-path-2);}.cls-6{clip-path:url(#clip-path-3);}.cls-7{clip-path:url(#clip-path-4);}.cls-8{clip-path:url(#clip-path-5);}.cls-9{clip-path:url(#clip-path-6);}.cls-10{clip-path:url(#clip-path-7);}.cls-11{clip-path:url(#clip-path-8);}.cls-12{clip-path:url(#clip-path-9);}.cls-13{clip-path:url(#clip-path-10);}.cls-14{clip-path:url(#clip-path-11);}.cls-15{clip-path:url(#clip-path-12);}.cls-16{clip-path:url(#clip-path-13);}.cls-17{clip-path:url(#clip-path-14);}.cls-18{clip-path:url(#clip-path-15);}.cls-19{fill:#98a124;}.cls-20{fill:#1d1d1b;}.cls-21{stroke:#1d1d1b;stroke-width:0.43px;}.cls-22{stroke:#c0bfbf;stroke-miterlimit:10;stroke-width:0.25px;}.cls-23{stroke:#ccd615;}.cls-23,.cls-24{stroke-linecap:round;stroke-linejoin:round;stroke-width:7px;}.cls-24{stroke:#0056a3;}.cls-25{stroke:#c7d300;}.cls-25,.cls-26{stroke-width:2.55px;}.cls-26{stroke:#164193;}</style><clipPath id="clip-path"><rect class="cls-1" x="501.27" y="119.98" width="7.65" height="6.4"/></clipPath><clipPath id="clip-path-2"><rect class="cls-1" x="537.71" y="119.98" width="7.69" height="6.25"/></clipPath><clipPath id="clip-path-3"><rect class="cls-1" x="574.23" y="120.13" width="7.55" height="6.25"/></clipPath><clipPath id="clip-path-4"><rect class="cls-1" x="391.79" y="119.98" width="7.88" height="6.4"/></clipPath><clipPath id="clip-path-5"><rect class="cls-1" x="429.41" y="120.13" width="5.55" height="6.1"/></clipPath><clipPath id="clip-path-6"><rect class="cls-1" x="464.83" y="119.98" width="7.61" height="6.25"/></clipPath><clipPath id="clip-path-7"><rect class="cls-1" x="66.84" y="120.13" width="1.57" height="6.1"/></clipPath><clipPath id="clip-path-8"><rect class="cls-1" x="102.01" y="119.98" width="4.14" height="6.25"/></clipPath><clipPath id="clip-path-9"><rect class="cls-1" x="138.5" y="119.98" width="4.08" height="6.4"/></clipPath><clipPath id="clip-path-10"><rect class="cls-1" x="174.86" y="119.98" width="4.26" height="6.25"/></clipPath><clipPath id="clip-path-11"><rect class="cls-1" x="211.45" y="120.13" width="3.99" height="6.25"/></clipPath><clipPath id="clip-path-12"><rect class="cls-1" x="248.02" y="119.98" width="3.76" height="6.4"/></clipPath><clipPath id="clip-path-13"><rect class="cls-1" x="284.43" y="120.13" width="3.87" height="6.25"/></clipPath><clipPath id="clip-path-14"><rect class="cls-1" x="320.75" y="119.98" width="4.13" height="6.4"/></clipPath><clipPath id="clip-path-15"><rect class="cls-1" x="357.39" y="119.98" width="3.76" height="6.4"/></clipPath></defs><title>wykres_str_03</title><g id="Warstwa_1" data-name="Warstwa 1"><path class="cls-2" d="M26,102.48a1.45,1.45,0,0,1-.82-.26,6.49,6.49,0,0,0,.31-1.91c0-1.07-.39-1.59-1.15-1.59s-1,.61-1.21,1.34c-.33,1-.6,2.34-2.12,2.34-1.25,0-2.09-.82-2.09-2.49a5.92,5.92,0,0,1,.31-2,1.24,1.24,0,0,1,.79.27,6.19,6.19,0,0,0-.21,1.56c0,1.08.42,1.58,1.14,1.58s1-.85,1.27-1.8.74-1.9,2.09-1.9,2.12.88,2.12,2.6A5.8,5.8,0,0,1,26,102.48Z"/><path class="cls-2" d="M26,93.72a1.06,1.06,0,0,1,.35,0,3,3,0,0,1,.09.78c0,1.25-.66,1.71-1.94,1.71H21.79V97a.92.92,0,0,1-.38.07A.81.81,0,0,1,21,97v-.76h-1a1.69,1.69,0,0,1-.2-1H21V93.92a1.13,1.13,0,0,1,.37,0,1.44,1.44,0,0,1,.39,0v1.32h2.69c.88,0,1.17-.27,1.17-1a3.08,3.08,0,0,0,0-.46A.94.94,0,0,1,26,93.72Z"/><path class="cls-2" d="M23.69,93c-2,0-2.76-.87-2.76-2.27s.76-2.25,2.76-2.25,2.77.86,2.77,2.25S25.7,93,23.69,93Zm0-3.48c-1.55,0-2,.46-2,1.21s.43,1.22,2,1.22,2-.47,2-1.22S25.24,89.54,23.69,89.54Z"/><path class="cls-2" d="M23.69,82.86c2.07,0,2.77.76,2.77,1.92a1.61,1.61,0,0,1-.7,1.48h2.91a1.69,1.69,0,0,1,.06.51,1.65,1.65,0,0,1-.06.5H21.09a1.65,1.65,0,0,1-.06-.5,1.69,1.69,0,0,1,.06-.51h.52a1.62,1.62,0,0,1-.68-1.48C20.93,83.63,21.61,82.86,23.69,82.86Zm0,1.06c-1.49,0-1.94.39-1.94,1.22A1.16,1.16,0,0,0,23,86.26h1.31a1.19,1.19,0,0,0,1.31-1.12C25.64,84.31,25.2,83.92,23.69,83.92Z"/><path class="cls-2" d="M19.92,81.64H19A1.8,1.8,0,0,1,19,81.1a2.1,2.1,0,0,1,.06-.55h.91a1.82,1.82,0,0,1,.07.55A1.56,1.56,0,0,1,19.92,81.64Zm6.38,0H21.09A1.61,1.61,0,0,1,21,81.1a1.65,1.65,0,0,1,.06-.5H26.3a1.65,1.65,0,0,1,.06.5A1.69,1.69,0,0,1,26.3,81.61Z"/><path class="cls-2" d="M24,75.26v3c1.21-.08,1.6-.55,1.6-1.41a2.32,2.32,0,0,0-.3-1.18,1,1,0,0,1,.72-.33,2.9,2.9,0,0,1,.44,1.69c0,1.52-.93,2.27-2.78,2.27s-2.75-.89-2.75-2.24a1.79,1.79,0,0,1,2-2A4.6,4.6,0,0,1,24,75.26Zm-.69,3.06v-2.2a3.23,3.23,0,0,0-.48,0c-.62,0-1.12.28-1.12,1S22.16,78.24,23.31,78.32Z"/><path class="cls-2" d="M20,72.77l-1.47-1a1,1,0,0,1,.37-.88l1.41,1.31A.82.82,0,0,1,20,72.77ZM26.3,74H21.09a1.61,1.61,0,0,1-.06-.51,1.65,1.65,0,0,1,.06-.5h.52a2.05,2.05,0,0,1-.68-1.57,1.41,1.41,0,0,1,1.51-1.56H26.3a1.77,1.77,0,0,1,.06.51,1.57,1.57,0,0,1-.06.5H22.65c-.59,0-.9.31-.9.94A1.43,1.43,0,0,0,22.44,73H26.3a1.65,1.65,0,0,1,.06.5A1.61,1.61,0,0,1,26.3,74Z"/><path class="cls-2" d="M26.1,66.47a.9.9,0,0,1-.72-.26,4.37,4.37,0,0,0,.24-1.39c0-.66-.23-1-.75-1s-.68.59-.86,1.2-.51,1.42-1.5,1.42-1.58-.62-1.58-1.9A3.38,3.38,0,0,1,21.2,63a.91.91,0,0,1,.71.26,3.66,3.66,0,0,0-.17,1.09c0,.71.26,1.05.73,1.05s.63-.63.83-1.25.53-1.4,1.54-1.4,1.62.63,1.62,2A4.12,4.12,0,0,1,26.1,66.47Z"/><path class="cls-2" d="M26,58.76a1.06,1.06,0,0,1,.35.05,3.09,3.09,0,0,1,.09.78c0,1.26-.66,1.71-1.94,1.71H21.79v.77a1,1,0,0,1-.38.06.92.92,0,0,1-.38-.06V61.3h-1a1.66,1.66,0,0,1-.2-1H21V59a1,1,0,0,1,.37-.06,1.22,1.22,0,0,1,.39.06v1.32h2.69c.88,0,1.17-.27,1.17-1a3.3,3.3,0,0,0,0-.47A.94.94,0,0,1,26,58.76Z"/><path class="cls-2" d="M23.69,58.06c-2,0-2.76-.87-2.76-2.26s.76-2.26,2.76-2.26,2.77.86,2.77,2.26S25.7,58.06,23.69,58.06Zm0-3.47c-1.55,0-2,.46-2,1.21s.43,1.21,2,1.21,2-.46,2-1.21S25.24,54.59,23.69,54.59Z"/><path class="cls-2" d="M26.3,52.32H21.09a1.61,1.61,0,0,1-.06-.51,1.65,1.65,0,0,1,.06-.5h.51a1.93,1.93,0,0,1-.67-1.5,1.31,1.31,0,0,1,.79-1.31,2,2,0,0,1-.79-1.67,1.38,1.38,0,0,1,1.52-1.49H26.3a1.73,1.73,0,0,1,.06.5,1.61,1.61,0,0,1-.06.51H22.65c-.6,0-.9.27-.9.87a1.25,1.25,0,0,0,.7,1.1H26.3a1.86,1.86,0,0,1,.06.51,1.57,1.57,0,0,1-.06.5H22.65c-.6,0-.9.28-.9.87a1.32,1.32,0,0,0,.69,1.11H26.3a1.73,1.73,0,0,1,.06.5A1.61,1.61,0,0,1,26.3,52.32Z"/><path class="cls-2" d="M22.91,40.12H26.3a1.13,1.13,0,0,1,.06.41,1.23,1.23,0,0,1-.06.42l-.68.14a1.61,1.61,0,0,1,.84,1.6,1.48,1.48,0,0,1-1.67,1.57c-1.09,0-1.59-.66-1.59-2a11,11,0,0,1,.06-1.17h-.41c-.72,0-1.07.31-1.07,1.07A4.36,4.36,0,0,0,22,43.56a.71.71,0,0,1-.3.22,1,1,0,0,1-.43.07,4.71,4.71,0,0,1-.36-1.79C20.93,40.58,21.59,40.12,22.91,40.12Zm1.4,1h-.38c0,.23-.06.65-.06,1,0,.71.26,1.06.93,1.06s.92-.33.92-.88A1.26,1.26,0,0,0,24.31,41.13Z"/><path class="cls-2" d="M26,35.88a1.06,1.06,0,0,1,.35,0,3,3,0,0,1,.09.78c0,1.25-.66,1.71-1.94,1.71H21.79v.77a1,1,0,0,1-.38.06.92.92,0,0,1-.38-.06v-.77h-1a1.66,1.66,0,0,1-.2-1H21V36.08a1.13,1.13,0,0,1,.37,0,1.44,1.44,0,0,1,.39,0v1.33h2.69c.88,0,1.17-.28,1.17-1a3.12,3.12,0,0,0,0-.47A.94.94,0,0,1,26,35.88Z"/><path class="cls-2" d="M23.69,35.18c-2,0-2.76-.87-2.76-2.27s.76-2.25,2.76-2.25,2.77.86,2.77,2.25S25.7,35.18,23.69,35.18Zm0-3.48c-1.55,0-2,.47-2,1.21s.43,1.22,2,1.22,2-.47,2-1.22S25.24,31.7,23.69,31.7Z"/><path class="cls-2" d="M23.69,25c2.07,0,2.77.76,2.77,1.93a1.61,1.61,0,0,1-.7,1.47h2.91a1.77,1.77,0,0,1,.06.51,1.65,1.65,0,0,1-.06.5H21.09a1.65,1.65,0,0,1-.06-.5,1.77,1.77,0,0,1,.06-.51h.52A1.62,1.62,0,0,1,20.93,27C20.93,25.79,21.61,25,23.69,25Zm0,1.07c-1.49,0-1.94.38-1.94,1.21A1.16,1.16,0,0,0,23,28.42h1.31a1.19,1.19,0,0,0,1.31-1.12C25.64,26.47,25.2,26.09,23.69,26.09Z"/><path class="cls-2" d="M22.91,20H26.3a1.13,1.13,0,0,1,.06.41,1.2,1.2,0,0,1-.06.41l-.68.15a1.61,1.61,0,0,1,.84,1.59,1.47,1.47,0,0,1-1.67,1.57c-1.09,0-1.59-.65-1.59-1.95A11,11,0,0,1,23.26,21h-.41c-.72,0-1.07.31-1.07,1.07A4.26,4.26,0,0,0,22,23.41a.62.62,0,0,1-.3.23,1,1,0,0,1-.43.07,4.71,4.71,0,0,1-.36-1.79C20.93,20.44,21.59,20,22.91,20Zm1.4,1h-.38c0,.23-.06.64-.06,1,0,.71.26,1.06.93,1.06s.92-.33.92-.88A1.26,1.26,0,0,0,24.31,21Z"/><path class="cls-2" d="M26,15.73a1.06,1.06,0,0,1,.35,0,3,3,0,0,1,.09.78c0,1.25-.66,1.71-1.94,1.71H21.79V19a.92.92,0,0,1-.38.07A.81.81,0,0,1,21,19v-.76h-1a1.69,1.69,0,0,1-.2-1H21V15.93a1.13,1.13,0,0,1,.37,0,1.44,1.44,0,0,1,.39,0v1.32h2.69c.88,0,1.17-.27,1.17-1a3.08,3.08,0,0,0,0-.46A.94.94,0,0,1,26,15.73Z"/><path class="cls-2" d="M19.92,14.82H19a1.88,1.88,0,0,1-.06-.54,2.1,2.1,0,0,1,.06-.55h.91a1.82,1.82,0,0,1,.07.55A1.63,1.63,0,0,1,19.92,14.82Zm6.38,0H21.09a1.61,1.61,0,0,1-.06-.51,1.77,1.77,0,0,1,.06-.51H26.3a1.77,1.77,0,0,1,.06.51A1.69,1.69,0,0,1,26.3,14.79Z"/><path class="cls-2" d="M19.92,12.32H19a1.8,1.8,0,0,1-.06-.54,2.1,2.1,0,0,1,.06-.55h.91a1.82,1.82,0,0,1,.07.55A1.56,1.56,0,0,1,19.92,12.32Zm6.38,0H21.09a1.61,1.61,0,0,1-.06-.51,1.77,1.77,0,0,1,.06-.51H26.3a1.77,1.77,0,0,1,.06.51A1.69,1.69,0,0,1,26.3,12.29Z"/><g class="cls-3"><path class="cls-4" d="M501.63,120.13h1.2v6.1h-.6v-5.51h-1Z"/><path class="cls-4" d="M505.67,121.54h-.62a2,2,0,0,1,.65-1.16,1.72,1.72,0,0,1,1.14-.41,2,2,0,0,1,.89.22,1.66,1.66,0,0,1,.64.59,1.43,1.43,0,0,1,.22.77,1.4,1.4,0,0,1-.78,1.25,1.81,1.81,0,0,1,.72.52,1.67,1.67,0,0,1,.4,1.09,1.91,1.91,0,0,1-.28,1,2,2,0,0,1-.74.73,2.21,2.21,0,0,1-1.06.25,1.93,1.93,0,0,1-1.31-.45,2.14,2.14,0,0,1-.69-1.34h.59a1.7,1.7,0,0,0,.46.86,1.36,1.36,0,0,0,1,.34,1.41,1.41,0,0,0,1.06-.4,1.27,1.27,0,0,0,.41-.93,1.25,1.25,0,0,0-.2-.67,1.36,1.36,0,0,0-.54-.47,3.07,3.07,0,0,0-1-.19v-.56a1.87,1.87,0,0,0,.76-.15,1.06,1.06,0,0,0,.5-.38.8.8,0,0,0,.16-.49.9.9,0,0,0-.32-.69,1.11,1.11,0,0,0-.8-.29,1.07,1.07,0,0,0-.68.22A1.69,1.69,0,0,0,505.67,121.54Z"/></g><g class="cls-5"><path class="cls-4" d="M538.07,120.13h1.2v6.1h-.61v-5.51h-.95Z"/><path class="cls-4" d="M544.54,120h.12v4.26h.74v.58h-.74v1.42h-.61v-1.42h-2.92Zm-.49,4.26v-2.56l-1.8,2.56Z"/></g><g class="cls-6"><path class="cls-4" d="M574.6,120.13h1.19v6.1h-.6v-5.51h-1Z"/><path class="cls-4" d="M581.63,120.13v.58h-2.17l-.31,1.66a2.53,2.53,0,0,1,.72-.11,1.83,1.83,0,0,1,1.37.55,2,2,0,0,1,.54,1.43,2.34,2.34,0,0,1-.27,1.11,1.92,1.92,0,0,1-.76.76,2.15,2.15,0,0,1-1.09.27,1.84,1.84,0,0,1-1.26-.45,1.88,1.88,0,0,1-.61-1.18h.63a1.36,1.36,0,0,0,.24.57,1.16,1.16,0,0,0,.45.36,1.29,1.29,0,0,0,.58.13,1.4,1.4,0,0,0,1-.45,1.61,1.61,0,0,0,.43-1.14,1.33,1.33,0,0,0-.39-1,1.41,1.41,0,0,0-1-.39,3.43,3.43,0,0,0-1.31.33l.56-3Z"/></g><g class="cls-7"><path class="cls-4" d="M392.15,120.13h1.2v6.1h-.6v-5.51h-1Z"/><path class="cls-4" d="M395.5,123.18a5.4,5.4,0,0,1,.26-1.87,2.13,2.13,0,0,1,.73-1,1.83,1.83,0,0,1,1.06-.34,1.8,1.8,0,0,1,1.07.35,2.2,2.2,0,0,1,.76,1,4.91,4.91,0,0,1,.28,1.84,5,5,0,0,1-.27,1.83,2.36,2.36,0,0,1-.76,1,1.84,1.84,0,0,1-1.08.34,1.77,1.77,0,0,1-1.05-.33,2.19,2.19,0,0,1-.74-1A5.34,5.34,0,0,1,395.5,123.18Zm.58,0a5.1,5.1,0,0,0,.18,1.56,1.67,1.67,0,0,0,.55.81,1.2,1.2,0,0,0,1.52,0,1.63,1.63,0,0,0,.53-.8,4.56,4.56,0,0,0,.23-1.57,4.88,4.88,0,0,0-.2-1.51,1.79,1.79,0,0,0-.56-.86,1.26,1.26,0,0,0-.76-.27,1.22,1.22,0,0,0-.76.27,1.71,1.71,0,0,0-.55.8A5.22,5.22,0,0,0,396.08,123.19Z"/></g><g class="cls-8"><path class="cls-4" d="M429.78,120.13H431v6.1h-.6v-5.51h-1Z"/><path class="cls-4" d="M433.75,120.13H435v6.1h-.61v-5.51h-.95Z"/></g><g class="cls-9"><path class="cls-4" d="M465.2,120.13h1.2v6.1h-.61v-5.51h-1Z"/><path class="cls-4" d="M469,122h-.59a2.14,2.14,0,0,1,.6-1.49,2,2,0,0,1,1.43-.58,1.79,1.79,0,0,1,1.37.55,1.82,1.82,0,0,1,.52,1.28,2,2,0,0,1-.25,1,6.67,6.67,0,0,1-1,1.23l-1.52,1.64h2.82v.59h-4.14l2.33-2.52a7.39,7.39,0,0,0,.92-1.13,1.51,1.51,0,0,0,.21-.77,1.19,1.19,0,0,0-.38-.89,1.3,1.3,0,0,0-.94-.37,1.31,1.31,0,0,0-1,.39A1.63,1.63,0,0,0,469,122Z"/></g><g class="cls-10"><path class="cls-4" d="M67.2,120.13h1.2v6.1h-.6v-5.51h-1Z"/></g><g class="cls-11"><path class="cls-4" d="M102.74,122h-.58a2.06,2.06,0,0,1,.6-1.49,2,2,0,0,1,1.43-.58,1.83,1.83,0,0,1,1.88,1.83,1.92,1.92,0,0,1-.25,1,6.12,6.12,0,0,1-1,1.23l-1.52,1.64h2.81v.59H102l2.33-2.52a7.39,7.39,0,0,0,.92-1.13,1.43,1.43,0,0,0,.22-.77,1.2,1.2,0,0,0-.39-.89,1.27,1.27,0,0,0-.94-.37,1.31,1.31,0,0,0-1,.39A1.68,1.68,0,0,0,102.74,122Z"/></g><g class="cls-12"><path class="cls-4" d="M139.32,121.54h-.62a2.1,2.1,0,0,1,.65-1.16,1.72,1.72,0,0,1,1.14-.41,2,2,0,0,1,.89.22,1.66,1.66,0,0,1,.64.59,1.43,1.43,0,0,1,.22.77,1.4,1.4,0,0,1-.78,1.25,1.81,1.81,0,0,1,.72.52,1.67,1.67,0,0,1,.4,1.09,2,2,0,0,1-.27,1,2.1,2.1,0,0,1-.75.73,2.21,2.21,0,0,1-1.06.25,2,2,0,0,1-1.31-.45,2.24,2.24,0,0,1-.69-1.34h.6a1.62,1.62,0,0,0,.45.86,1.36,1.36,0,0,0,1,.34,1.45,1.45,0,0,0,1.07-.4,1.3,1.3,0,0,0,.4-.93,1.25,1.25,0,0,0-.2-.67,1.36,1.36,0,0,0-.54-.47,3.07,3.07,0,0,0-1.05-.19v-.56a1.87,1.87,0,0,0,.76-.15,1.06,1.06,0,0,0,.5-.38.8.8,0,0,0,.16-.49.9.9,0,0,0-.32-.69,1.11,1.11,0,0,0-.8-.29,1.07,1.07,0,0,0-.68.22A1.77,1.77,0,0,0,139.32,121.54Z"/></g><g class="cls-13"><path class="cls-4" d="M178.26,120h.13v4.26h.74v.58h-.74v1.42h-.61v-1.42h-2.92Zm-.48,4.26v-2.56L176,124.23Z"/></g><g class="cls-14"><path class="cls-4" d="M215.29,120.13v.58h-2.17l-.31,1.66a2.53,2.53,0,0,1,.72-.11,1.82,1.82,0,0,1,1.37.55,2,2,0,0,1,.55,1.43,2.34,2.34,0,0,1-.28,1.11,1.92,1.92,0,0,1-.76.76,2.15,2.15,0,0,1-1.09.27,1.79,1.79,0,0,1-1.25-.45,1.84,1.84,0,0,1-.61-1.18h.62a1.36,1.36,0,0,0,.24.57,1.16,1.16,0,0,0,.45.36,1.31,1.31,0,0,0,.59.13,1.38,1.38,0,0,0,1-.45,1.57,1.57,0,0,0,.43-1.14,1.33,1.33,0,0,0-.39-1,1.41,1.41,0,0,0-1-.39,3.43,3.43,0,0,0-1.31.33l.57-3Z"/></g><g class="cls-15"><path class="cls-4" d="M250.57,120l.5.33-1.65,2.5a1.86,1.86,0,0,1,.63-.11,1.65,1.65,0,0,1,1.23.52,1.78,1.78,0,0,1,.51,1.29,1.86,1.86,0,0,1-.25,1,1.78,1.78,0,0,1-.69.67,2,2,0,0,1-1,.25,1.91,1.91,0,0,1-.94-.24,1.75,1.75,0,0,1-.67-.68,2,2,0,0,1-.24-.94,2.34,2.34,0,0,1,.15-.79,4.54,4.54,0,0,1,.54-1Zm-.67,3.25a1.25,1.25,0,0,0-.91.38,1.29,1.29,0,0,0,0,1.81,1.25,1.25,0,0,0,.91.38,1.29,1.29,0,0,0,0-2.57Z"/></g><g class="cls-16"><path class="cls-4" d="M284.42,120.13h3.88L285,126.38l-.5-.26,2.81-5.41h-2.92Z"/></g><g class="cls-17"><path class="cls-4" d="M323.72,122.88a2.29,2.29,0,0,1,.89.7,1.56,1.56,0,0,1,.27.9,1.88,1.88,0,0,1-.46,1.24,2,2,0,0,1-1.62.66,2,2,0,0,1-1.53-.58,1.84,1.84,0,0,1-.52-1.27,1.63,1.63,0,0,1,.27-.92,2.32,2.32,0,0,1,.91-.73,1.74,1.74,0,0,1-.67-.57,1.33,1.33,0,0,1-.22-.74,1.43,1.43,0,0,1,.24-.78,1.64,1.64,0,0,1,.65-.6,2,2,0,0,1,.91-.22,1.92,1.92,0,0,1,.89.22,1.76,1.76,0,0,1,.64.6,1.54,1.54,0,0,1,.23.79,1.32,1.32,0,0,1-.22.74A1.85,1.85,0,0,1,323.72,122.88Zm-.88.31a1.42,1.42,0,0,0-1,.41,1.26,1.26,0,0,0-.43,1,1.21,1.21,0,0,0,.18.63,1.14,1.14,0,0,0,.51.46,1.67,1.67,0,0,0,.76.17,1.45,1.45,0,0,0,1.06-.4,1.26,1.26,0,0,0,.39-.92,1.22,1.22,0,0,0-.41-.91A1.42,1.42,0,0,0,322.84,123.19Zm0-2.62a1.23,1.23,0,0,0-.83.29.93.93,0,0,0-.33.71,1,1,0,0,0,.36.74,1.19,1.19,0,0,0,1.4.18,1.1,1.1,0,0,0,.42-.41,1,1,0,0,0,.15-.52,1,1,0,0,0-.3-.68A1.14,1.14,0,0,0,322.81,120.57Z"/></g><g class="cls-18"><path class="cls-4" d="M358.61,126.38l-.5-.32,1.65-2.5a2.09,2.09,0,0,1-.63.11,1.69,1.69,0,0,1-1.23-.52,1.8,1.8,0,0,1-.51-1.3,1.82,1.82,0,0,1,.25-.95,1.78,1.78,0,0,1,.69-.67,1.93,1.93,0,0,1,1-.26,1.88,1.88,0,0,1,.93.25,1.78,1.78,0,0,1,.68.68,2,2,0,0,1,.24.94,2.34,2.34,0,0,1-.15.79,4.54,4.54,0,0,1-.54,1Zm.66-3.25a1.28,1.28,0,1,0-.9-.37A1.23,1.23,0,0,0,359.27,123.13Z"/></g><path class="cls-19" d="M193.83,77.6l-.16.22h2.12l.09-.11h22.69l.08.11h2.16l-.17-.22Zm112.45,0-.15.22h4.28l-.17-.22Zm115.44,0-.17.22h3.65L425,77.6Z"/><path class="cls-19" d="M183.44,91.39l-.16.21h2.13l.16-.21Zm45.8,0,.16.21h2.16l-.17-.21Zm66.83,0-.16.21H298l.15-.21Zm23,0,.17.21h2.17l-.17-.21Zm91.64,0-.17.21h2.17l.18-.21Zm22.69,0,.16.21h2.13l-.16-.21Z"/><path class="cls-19" d="M149,105.17v.21H175l.16-.21Zm91,0,.17.21h47.65l.16-.21Zm90,0,.17.21h71.46l.17-.21Zm113.82,0,.16.21h24.86v-.21Zm25,0Z"/><path class="cls-20" d="M48.4,21.53V17.34a1.83,1.83,0,0,1,.47-.05,2,2,0,0,1,.49.05v4.19a2,2,0,0,1-.48,0A1.69,1.69,0,0,1,48.4,21.53Z"/><path class="cls-20" d="M50.52,21.53V17.34a1.87,1.87,0,0,1,.48-.05,2,2,0,0,1,.49.05v4.19a2.12,2.12,0,0,1-.49,0A1.78,1.78,0,0,1,50.52,21.53Z"/><path class="cls-20" d="M48.36,74.33c0-1.46.67-2.09,1.92-2.09s1.93.61,1.93,2.09-.69,2.1-1.93,2.1S48.36,75.82,48.36,74.33Zm2.82,0c0-1.17-.3-1.47-.9-1.47s-.92.3-.92,1.47.32,1.48.92,1.48S51.18,75.51,51.18,74.33Z"/><path class="cls-20" d="M49.59,49.22V45a1.87,1.87,0,0,1,.48-.05,2,2,0,0,1,.49.05v4.19a2.12,2.12,0,0,1-.49.05A1.78,1.78,0,0,1,49.59,49.22Z"/><path class="cls-20" d="M52,99.82V104a1.87,1.87,0,0,1-.48,0,1.82,1.82,0,0,1-.49,0v-1.83h-2V104a2,2,0,0,1-.48,0,1.69,1.69,0,0,1-.48,0V99.82a1.83,1.83,0,0,1,.47,0,2,2,0,0,1,.49,0v1.72h2V99.82a2.12,2.12,0,0,1,.49,0A2,2,0,0,1,52,99.82Z"/><polyline class="cls-21" points="585.61 111.62 60.03 111.62 60.03 1.37"/></g><g id="Warstwa_5" data-name="Warstwa 5"><line class="cls-22" x1="63.85" y1="9.02" x2="586.27" y2="9.02"/><line class="cls-22" x1="63.85" y1="22.78" x2="586.27" y2="22.78"/><line class="cls-22" x1="63.85" y1="36.55" x2="586.27" y2="36.55"/><line class="cls-22" x1="63.85" y1="50.31" x2="586.27" y2="50.31"/><line class="cls-22" x1="63.85" y1="64.07" x2="586.27" y2="64.07"/><line class="cls-22" x1="63.85" y1="77.83" x2="586.27" y2="77.83"/><line class="cls-22" x1="63.85" y1="91.6" x2="586.27" y2="91.6"/><line class="cls-22" x1="63.85" y1="105.36" x2="586.27" y2="105.36"/></g><g id="Warstwa_3" data-name="Warstwa 3"><polyline class="cls-23" points="69.41 105.84 107.81 105.84 143.5 76.18 181.45 76.18 217.6 104.99 287.62 104.99 323.31 75.61 360.81 105.27 471.95 105.27 507.64 75.89 543.33 104.99 581.28 104.99"/></g><g id="Warstwa_2" data-name="Warstwa 2"><polyline class="cls-24" points="68.51 50.47 107.81 22.5 181.45 22.5 217.14 51.6 254.19 22.22 290.33 22.22 361.72 78.44 397.86 49.91 434.45 78.15 472.86 78.15 509.45 50.19 543.79 50.19 579.48 77.59"/></g><g id="Warstwa_4" data-name="Warstwa 4"><path class="cls-2" d="M260,154.71a1,1,0,0,1,.19-.57,4.28,4.28,0,0,0,1.31.22c.75,0,1.11-.27,1.11-.8s-.43-.68-.93-.83c-.73-.23-1.62-.42-1.62-1.47,0-.86.57-1.45,1.72-1.45a4.2,4.2,0,0,1,1.38.21.87.87,0,0,1-.19.55,4.55,4.55,0,0,0-1.08-.14c-.75,0-1.1.29-1.1.79s.59.67,1.25.88,1.31.51,1.31,1.44-.61,1.47-1.8,1.47A4,4,0,0,1,260,154.71Z"/><path class="cls-2" d="M266.11,154.7a.83.83,0,0,1,0,.24,1.91,1.91,0,0,1-.54.06c-.87,0-1.19-.45-1.19-1.34v-1.89h-.53a.76.76,0,0,1,0-.26.72.72,0,0,1,0-.27h.53v-.67a1.23,1.23,0,0,1,.7-.13v.8H266a.7.7,0,0,1,0,.26.87.87,0,0,1,0,.27h-.92v1.86c0,.61.19.81.68.81l.32,0A.58.58,0,0,1,266.11,154.7Z"/><path class="cls-2" d="M266.59,153.09c0-1.39.6-1.92,1.57-1.92s1.56.53,1.56,1.92-.59,1.91-1.56,1.91S266.59,154.48,266.59,153.09Zm2.41,0c0-1.08-.32-1.38-.84-1.38s-.84.3-.84,1.38.32,1.37.84,1.37S269,154.16,269,153.09Z"/><path class="cls-2" d="M273.62,153.09c0,1.43-.52,1.91-1.33,1.91a1.11,1.11,0,0,1-1-.48v2a1.55,1.55,0,0,1-.7,0v-5.25a1.55,1.55,0,0,1,.7,0v.37a1.11,1.11,0,0,1,1-.48C273.09,151.17,273.62,151.65,273.62,153.09Zm-.73,0c0-1-.27-1.35-.84-1.35a.81.81,0,0,0-.78.88v.91a.83.83,0,0,0,.78.91C272.62,154.44,272.89,154.13,272.89,153.09Z"/><path class="cls-2" d="M274.47,150.48v-.63a1.3,1.3,0,0,1,.37,0,1.52,1.52,0,0,1,.38,0v.63a1.52,1.52,0,0,1-.38,0A1.3,1.3,0,0,1,274.47,150.48Zm0,4.41v-3.61a1.06,1.06,0,0,1,.35,0,1.22,1.22,0,0,1,.35,0v3.61a1.22,1.22,0,0,1-.35,0A1.14,1.14,0,0,1,274.49,154.89Z"/><path class="cls-2" d="M278.88,153.3h-2.11c.06.84.38,1.11,1,1.11a1.6,1.6,0,0,0,.82-.21.74.74,0,0,1,.24.5,2.07,2.07,0,0,1-1.18.3c-1.05,0-1.57-.64-1.57-1.92s.62-1.91,1.55-1.91a1.25,1.25,0,0,1,1.36,1.4A3,3,0,0,1,278.88,153.3Zm-2.12-.47h1.52a1.78,1.78,0,0,0,0-.34c0-.43-.18-.78-.7-.78S276.82,152,276.76,152.83Z"/><path class="cls-2" d="M279.77,154.89v-3.61a1.55,1.55,0,0,1,.7,0v.37a1.43,1.43,0,0,1,1.09-.48,1,1,0,0,1,1.08,1.05v2.67a1.3,1.3,0,0,1-.35,0,1.14,1.14,0,0,1-.35,0v-2.53c0-.4-.21-.62-.65-.62a1,1,0,0,0-.82.48v2.67a1.55,1.55,0,0,1-.7,0Zm.84-4.34.7-1a.73.73,0,0,1,.61.26l-.91,1A.52.52,0,0,1,280.61,150.55Z"/><path class="cls-2" d="M285,154.75a.66.66,0,0,1,.18-.5,2.85,2.85,0,0,0,1,.17c.46,0,.73-.16.73-.52s-.41-.46-.83-.59-1-.36-1-1,.42-1.1,1.31-1.1a2.26,2.26,0,0,1,1,.19.64.64,0,0,1-.17.49,2.88,2.88,0,0,0-.76-.12c-.49,0-.73.19-.73.51s.44.44.87.58,1,.36,1,1.06-.44,1.12-1.36,1.12A2.86,2.86,0,0,1,285,154.75Z"/><path class="cls-2" d="M290.3,154.7a.64.64,0,0,1,0,.24,1.87,1.87,0,0,1-.54.06c-.87,0-1.18-.45-1.18-1.34v-1.89H288a.63.63,0,0,1-.05-.26.6.6,0,0,1,.05-.27h.53v-.67a1.21,1.21,0,0,1,.7-.13v.8h.92a.9.9,0,0,1,0,.26,1.13,1.13,0,0,1,0,.27h-.92v1.86c0,.61.19.81.68.81l.32,0A.58.58,0,0,1,290.3,154.7Z"/><path class="cls-2" d="M290.78,153.09c0-1.39.6-1.92,1.57-1.92s1.56.53,1.56,1.92-.6,1.91-1.56,1.91S290.78,154.48,290.78,153.09Zm2.41,0c0-1.08-.33-1.38-.84-1.38s-.84.3-.84,1.38.32,1.37.84,1.37S293.19,154.16,293.19,153.09Z"/><path class="cls-2" d="M294.75,154.89v-3.61a1.55,1.55,0,0,1,.7,0v.36a1.33,1.33,0,0,1,1-.47.91.91,0,0,1,.91.55,1.4,1.4,0,0,1,1.16-.55,1,1,0,0,1,1,1.06v2.66a1.3,1.3,0,0,1-.35,0,1.14,1.14,0,0,1-.35,0v-2.53a.54.54,0,0,0-.61-.62.86.86,0,0,0-.76.49v2.66a1.3,1.3,0,0,1-.35,0,1.14,1.14,0,0,1-.35,0v-2.53c0-.41-.19-.62-.6-.62a.92.92,0,0,0-.77.48v2.67a1.55,1.55,0,0,1-.7,0Z"/><path class="cls-2" d="M303.2,152.55v2.34a.85.85,0,0,1-.29,0,.93.93,0,0,1-.29,0l-.1-.47a1.1,1.1,0,0,1-1.1.58,1,1,0,0,1-1.09-1.15c0-.76.46-1.1,1.35-1.1.33,0,.63,0,.82,0v-.29c0-.49-.22-.74-.75-.74a2.91,2.91,0,0,0-.93.17.52.52,0,0,1-.16-.21.71.71,0,0,1-.05-.29,3.15,3.15,0,0,1,1.24-.26C302.87,151.17,303.2,151.64,303.2,152.55Zm-.7,1v-.26c-.16,0-.45,0-.72,0-.49,0-.73.18-.73.65a.55.55,0,0,0,.61.63A.88.88,0,0,0,302.5,153.51Z"/><path class="cls-2" d="M306.16,154.7a.83.83,0,0,1,0,.24,1.91,1.91,0,0,1-.54.06c-.87,0-1.18-.45-1.18-1.34v-1.89h-.54a.76.76,0,0,1,0-.26.72.72,0,0,1,0-.27h.54v-.67a1.19,1.19,0,0,1,.7-.13v.8H306a.7.7,0,0,1,0,.26.87.87,0,0,1,0,.27h-.91v1.86c0,.61.19.81.68.81l.32,0A.68.68,0,0,1,306.16,154.7Z"/><path class="cls-2" d="M306.65,153.09c0-1.39.6-1.92,1.56-1.92s1.57.53,1.57,1.92-.6,1.91-1.57,1.91S306.65,154.48,306.65,153.09Zm2.41,0c0-1.08-.33-1.38-.85-1.38s-.84.3-.84,1.38.33,1.37.84,1.37S309.06,154.16,309.06,153.09Z"/><path class="cls-2" d="M313.68,153.09c0,1.43-.53,1.91-1.34,1.91a1.13,1.13,0,0,1-1-.48v2a1.55,1.55,0,0,1-.7,0v-5.25a1.55,1.55,0,0,1,.7,0v.37a1.13,1.13,0,0,1,1-.48C313.14,151.17,313.68,151.65,313.68,153.09Zm-.74,0c0-1-.27-1.35-.84-1.35a.81.81,0,0,0-.78.88v.91a.83.83,0,0,0,.78.91C312.67,154.44,312.94,154.13,312.94,153.09Z"/><path class="cls-2" d="M317.17,152.55v2.34a.85.85,0,0,1-.29,0,.93.93,0,0,1-.29,0l-.09-.47a1.13,1.13,0,0,1-1.11.58,1,1,0,0,1-1.09-1.15c0-.76.46-1.1,1.36-1.1a7.86,7.86,0,0,1,.81,0v-.29a.65.65,0,0,0-.74-.74,2.93,2.93,0,0,0-.94.17.52.52,0,0,1-.16-.21.62.62,0,0,1,0-.29,3.07,3.07,0,0,1,1.23-.26C316.85,151.17,317.17,151.64,317.17,152.55Zm-.7,1v-.26c-.16,0-.45,0-.72,0-.49,0-.73.18-.73.65a.55.55,0,0,0,.61.63A.87.87,0,0,0,316.47,153.51Z"/><path class="cls-2" d="M320.14,154.7a.64.64,0,0,1,0,.24,1.87,1.87,0,0,1-.54.06c-.87,0-1.18-.45-1.18-1.34v-1.89h-.53a.63.63,0,0,1-.05-.26.6.6,0,0,1,.05-.27h.53v-.67a1.21,1.21,0,0,1,.7-.13v.8H320a.9.9,0,0,1,0,.26,1.13,1.13,0,0,1,0,.27h-.92v1.86c0,.61.19.81.68.81a3,3,0,0,0,.32,0A.58.58,0,0,1,320.14,154.7Z"/><path class="cls-2" d="M320.76,150.48v-.63a1.34,1.34,0,0,1,.38,0,1.38,1.38,0,0,1,.37,0v.63a1.38,1.38,0,0,1-.37,0A1.34,1.34,0,0,1,320.76,150.48Zm0,4.41v-3.61a1.06,1.06,0,0,1,.35,0,1.22,1.22,0,0,1,.35,0v3.61a1.22,1.22,0,0,1-.35,0A1.14,1.14,0,0,1,320.79,154.89Z"/><path class="cls-2" d="M322.49,150.48v-.63a1.34,1.34,0,0,1,.38,0,1.38,1.38,0,0,1,.37,0v.63a1.38,1.38,0,0,1-.37,0A1.34,1.34,0,0,1,322.49,150.48Zm0,4.41v-3.61a1.06,1.06,0,0,1,.35,0,1.22,1.22,0,0,1,.35,0v3.61a1.22,1.22,0,0,1-.35,0A1.14,1.14,0,0,1,322.52,154.89Z"/><path class="cls-2" d="M263.19,163.65c0,1.43-.52,1.92-1.33,1.92a1.11,1.11,0,0,1-1-.49v2a1.55,1.55,0,0,1-.7,0v-5.24a1.25,1.25,0,0,1,.7,0v.36a1.11,1.11,0,0,1,1-.48C262.66,161.73,263.19,162.21,263.19,163.65Zm-.73,0c0-1-.27-1.35-.84-1.35a.82.82,0,0,0-.78.88v.91a.83.83,0,0,0,.78.91C262.19,165,262.46,164.69,262.46,163.65Z"/><path class="cls-2" d="M263.89,163.65c0-1.39.6-1.92,1.57-1.92s1.56.53,1.56,1.92-.59,1.92-1.56,1.92S263.89,165,263.89,163.65Zm2.41,0c0-1.08-.32-1.38-.84-1.38s-.84.3-.84,1.38.32,1.38.84,1.38S266.3,164.72,266.3,163.65Z"/><path class="cls-2" d="M269.46,165.45v-5.17a1.06,1.06,0,0,1,.35,0,1.22,1.22,0,0,1,.35,0v5.17a1,1,0,0,1-.35.05A.87.87,0,0,1,269.46,165.45Z"/><path class="cls-2" d="M273.85,163.86h-2.1c.05.84.37,1.11,1,1.11a1.6,1.6,0,0,0,.82-.21.74.74,0,0,1,.23.5,2,2,0,0,1-1.18.31c-1,0-1.57-.65-1.57-1.93s.62-1.91,1.55-1.91a1.25,1.25,0,0,1,1.36,1.4A3,3,0,0,1,273.85,163.86Zm-2.11-.47h1.52a3.11,3.11,0,0,0,0-.34c0-.43-.19-.78-.7-.78S271.79,162.59,271.74,163.39Z"/><path class="cls-2" d="M274.59,163.65c0-1.26.54-1.92,1.56-1.92a1.87,1.87,0,0,1,.94.19.74.74,0,0,1-.21.5,1.53,1.53,0,0,0-.61-.11c-.67,0-.95.43-.95,1.34s.3,1.32,1,1.32a1.58,1.58,0,0,0,.65-.13.79.79,0,0,1,.21.5,1.87,1.87,0,0,1-1,.23C275.13,165.57,274.59,164.91,274.59,163.65Z"/><path class="cls-2" d="M280.35,165.22a.73.73,0,0,1-.05.28h-2.62a.93.93,0,0,1,0-.31.89.89,0,0,1,0-.26l1.87-2.56H277.8a.93.93,0,0,1,0-.29.82.82,0,0,1,0-.28h2.49a.93.93,0,0,1,0,.27,1.17,1.17,0,0,1,0,.3l-1.87,2.56h1.88A.7.7,0,0,1,280.35,165.22Z"/><path class="cls-2" d="M283.82,163.86h-2.11c.06.84.38,1.11,1,1.11a1.65,1.65,0,0,0,.82-.21.74.74,0,0,1,.23.5,2,2,0,0,1-1.18.31c-1.05,0-1.57-.65-1.57-1.93s.62-1.91,1.55-1.91a1.25,1.25,0,0,1,1.36,1.4A3,3,0,0,1,283.82,163.86Zm-2.11-.47h1.52a3.11,3.11,0,0,0,0-.34c0-.43-.19-.78-.7-.78S281.76,162.59,281.71,163.39Z"/><path class="cls-2" d="M284.72,165.45v-3.6a.93.93,0,0,1,.35,0,1,1,0,0,1,.35,0v.36a1.39,1.39,0,0,1,1.08-.48,1,1,0,0,1,1.08,1.05v2.67a1.06,1.06,0,0,1-.35.05.93.93,0,0,1-.35-.05v-2.52a.57.57,0,0,0-.65-.63,1,1,0,0,0-.81.48v2.67a1,1,0,0,1-.35.05A.93.93,0,0,1,284.72,165.45Z"/><path class="cls-2" d="M288.55,161v-.63a1.21,1.21,0,0,1,.37,0,1.38,1.38,0,0,1,.37,0V161a1.38,1.38,0,0,1-.37,0A1.21,1.21,0,0,1,288.55,161Zm0,4.41v-3.6a.87.87,0,0,1,.35,0,1,1,0,0,1,.35,0v3.6a1,1,0,0,1-.35.05A.93.93,0,0,1,288.57,165.45Z"/><path class="cls-2" d="M293.12,161.85v3.6a.93.93,0,0,1-.35.05,1,1,0,0,1-.35-.05v-.36a1.38,1.38,0,0,1-1.09.48,1,1,0,0,1-1.07-1v-2.67a1,1,0,0,1,.35,0,.93.93,0,0,1,.35,0v2.53a.57.57,0,0,0,.65.63,1,1,0,0,0,.81-.49v-2.67a1,1,0,0,1,.35,0A.93.93,0,0,1,293.12,161.85Z"/><line class="cls-25" x1="258.63" y1="142.9" x2="289.01" y2="142.9"/><path class="cls-2" d="M79.17,154.71a1,1,0,0,1,.18-.57,4.34,4.34,0,0,0,1.32.22c.74,0,1.11-.27,1.11-.8s-.43-.68-.94-.83c-.73-.23-1.61-.42-1.61-1.47,0-.86.56-1.45,1.72-1.45a4.18,4.18,0,0,1,1.37.21.82.82,0,0,1-.19.55,4.42,4.42,0,0,0-1.08-.14c-.75,0-1.1.29-1.1.79s.59.67,1.25.88,1.32.51,1.32,1.44-.61,1.47-1.8,1.47A4,4,0,0,1,79.17,154.71Z"/><path class="cls-2" d="M85.32,154.7a.64.64,0,0,1,0,.24,1.87,1.87,0,0,1-.54.06c-.87,0-1.18-.45-1.18-1.34v-1.89H83a.63.63,0,0,1,0-.26.6.6,0,0,1,0-.27h.53v-.67a1.21,1.21,0,0,1,.7-.13v.8h.92a.9.9,0,0,1,0,.26,1.13,1.13,0,0,1,0,.27h-.92v1.86c0,.61.19.81.68.81l.32,0A.58.58,0,0,1,85.32,154.7Z"/><path class="cls-2" d="M85.8,153.09c0-1.39.6-1.92,1.57-1.92s1.56.53,1.56,1.92-.6,1.91-1.56,1.91S85.8,154.48,85.8,153.09Zm2.41,0c0-1.08-.32-1.38-.84-1.38s-.84.3-.84,1.38.32,1.37.84,1.37S88.21,154.16,88.21,153.09Z"/><path class="cls-2" d="M92.83,153.09c0,1.43-.53,1.91-1.33,1.91a1.14,1.14,0,0,1-1-.48v2a1.14,1.14,0,0,1-.35,0,1.22,1.22,0,0,1-.35,0v-5.25a1.22,1.22,0,0,1,.35,0,1.14,1.14,0,0,1,.35,0v.37a1.14,1.14,0,0,1,1-.48C92.3,151.17,92.83,151.65,92.83,153.09Zm-.74,0c0-1-.26-1.35-.84-1.35a.81.81,0,0,0-.78.88v.91a.83.83,0,0,0,.78.91C91.83,154.44,92.09,154.13,92.09,153.09Z"/><path class="cls-2" d="M93.67,150.48v-.63a1.3,1.3,0,0,1,.37,0,1.42,1.42,0,0,1,.38,0v.63a1.42,1.42,0,0,1-.38,0A1.3,1.3,0,0,1,93.67,150.48Zm0,4.41v-3.61a1.14,1.14,0,0,1,.35,0,1.26,1.26,0,0,1,.36,0v3.61a1.26,1.26,0,0,1-.36,0A1.22,1.22,0,0,1,93.69,154.89Z"/><path class="cls-2" d="M98.08,153.3H96c0,.84.37,1.11,1,1.11a1.6,1.6,0,0,0,.82-.21.74.74,0,0,1,.23.5,2.07,2.07,0,0,1-1.18.3c-1,0-1.57-.64-1.57-1.92s.62-1.91,1.55-1.91a1.24,1.24,0,0,1,1.36,1.4A3,3,0,0,1,98.08,153.3ZM96,152.83h1.52a3.28,3.28,0,0,0,0-.34c0-.43-.19-.78-.7-.78S96,152,96,152.83Z"/><path class="cls-2" d="M99,154.89v-3.61a1.14,1.14,0,0,1,.35,0,1.22,1.22,0,0,1,.35,0v.37a1.43,1.43,0,0,1,1.09-.48,1,1,0,0,1,1.07,1.05v2.67a1.55,1.55,0,0,1-.7,0v-2.53c0-.4-.21-.62-.65-.62a1,1,0,0,0-.81.48v2.67a1.22,1.22,0,0,1-.35,0A1.14,1.14,0,0,1,99,154.89Zm.83-4.34.7-1a.72.72,0,0,1,.61.26l-.9,1A.54.54,0,0,1,99.81,150.55Z"/><path class="cls-2" d="M104.17,154.75a.62.62,0,0,1,.18-.5,2.81,2.81,0,0,0,1,.17c.46,0,.73-.16.73-.52s-.41-.46-.83-.59-1-.36-1-1,.43-1.1,1.32-1.1a2.29,2.29,0,0,1,1,.19.65.65,0,0,1-.18.49,2.73,2.73,0,0,0-.75-.12c-.49,0-.73.19-.73.51s.43.44.87.58,1,.36,1,1.06-.43,1.12-1.36,1.12A2.81,2.81,0,0,1,104.17,154.75Z"/><path class="cls-2" d="M109.5,154.7a.83.83,0,0,1,0,.24,1.91,1.91,0,0,1-.54.06c-.87,0-1.19-.45-1.19-1.34v-1.89h-.53a.76.76,0,0,1,0-.26.72.72,0,0,1,0-.27h.53v-.67a1.23,1.23,0,0,1,.7-.13v.8h.92a.7.7,0,0,1,0,.26.87.87,0,0,1,0,.27h-.92v1.86c0,.61.19.81.68.81l.32,0A.58.58,0,0,1,109.5,154.7Z"/><path class="cls-2" d="M110,153.09c0-1.39.61-1.92,1.57-1.92s1.56.53,1.56,1.92-.59,1.91-1.56,1.91S110,154.48,110,153.09Zm2.41,0c0-1.08-.32-1.38-.84-1.38s-.84.3-.84,1.38.32,1.37.84,1.37S112.39,154.16,112.39,153.09Z"/><path class="cls-2" d="M114,154.89v-3.61a1.14,1.14,0,0,1,.35,0,1.22,1.22,0,0,1,.35,0v.36a1.32,1.32,0,0,1,1-.47.92.92,0,0,1,.91.55,1.38,1.38,0,0,1,1.15-.55,1,1,0,0,1,1,1.06v2.66a1.22,1.22,0,0,1-.35,0,1.14,1.14,0,0,1-.35,0v-2.53c0-.41-.19-.62-.6-.62a.86.86,0,0,0-.76.49v2.66a1.34,1.34,0,0,1-.36,0,1.1,1.1,0,0,1-.34,0v-2.53a.54.54,0,0,0-.61-.62.91.91,0,0,0-.76.48v2.67a1.3,1.3,0,0,1-.35,0A1.14,1.14,0,0,1,114,154.89Z"/><path class="cls-2" d="M122.4,152.55v2.34a.85.85,0,0,1-.29,0,.82.82,0,0,1-.28,0l-.1-.47a1.13,1.13,0,0,1-1.11.58,1,1,0,0,1-1.08-1.15c0-.76.45-1.1,1.35-1.1a7.86,7.86,0,0,1,.81,0v-.29a.65.65,0,0,0-.74-.74,2.93,2.93,0,0,0-.94.17.45.45,0,0,1-.15-.21.56.56,0,0,1-.05-.29,3.15,3.15,0,0,1,1.24-.26C122.08,151.17,122.4,151.64,122.4,152.55Zm-.7,1v-.26c-.16,0-.45,0-.71,0-.49,0-.74.18-.74.65a.55.55,0,0,0,.61.63A.87.87,0,0,0,121.7,153.51Z"/><path class="cls-2" d="M125.37,154.7a.64.64,0,0,1,0,.24,1.79,1.79,0,0,1-.53.06c-.87,0-1.19-.45-1.19-1.34v-1.89h-.53a.76.76,0,0,1,0-.26.72.72,0,0,1,0-.27h.53v-.67a1.23,1.23,0,0,1,.7-.13v.8h.92a.7.7,0,0,1,0,.26.87.87,0,0,1,0,.27h-.92v1.86c0,.61.19.81.68.81a3,3,0,0,0,.32,0A.58.58,0,0,1,125.37,154.7Z"/><path class="cls-2" d="M125.85,153.09c0-1.39.6-1.92,1.57-1.92s1.56.53,1.56,1.92-.59,1.91-1.56,1.91S125.85,154.48,125.85,153.09Zm2.41,0c0-1.08-.32-1.38-.84-1.38s-.84.3-.84,1.38.32,1.37.84,1.37S128.26,154.16,128.26,153.09Z"/><path class="cls-2" d="M132.88,153.09c0,1.43-.52,1.91-1.33,1.91a1.11,1.11,0,0,1-1-.48v2a1.55,1.55,0,0,1-.7,0v-5.25a1.55,1.55,0,0,1,.7,0v.37a1.11,1.11,0,0,1,1-.48C132.35,151.17,132.88,151.65,132.88,153.09Zm-.73,0c0-1-.27-1.35-.84-1.35a.81.81,0,0,0-.78.88v.91a.83.83,0,0,0,.78.91C131.88,154.44,132.15,154.13,132.15,153.09Z"/><path class="cls-2" d="M136.37,152.55v2.34a.75.75,0,0,1-.28,0,.85.85,0,0,1-.29,0l-.1-.47a1.1,1.1,0,0,1-1.1.58,1,1,0,0,1-1.09-1.15c0-.76.46-1.1,1.35-1.1a7.86,7.86,0,0,1,.81,0v-.29c0-.49-.21-.74-.74-.74a2.93,2.93,0,0,0-.94.17.7.7,0,0,1-.15-.21.71.71,0,0,1-.05-.29,3.15,3.15,0,0,1,1.24-.26C136.05,151.17,136.37,151.64,136.37,152.55Zm-.7,1v-.26c-.16,0-.44,0-.71,0-.49,0-.74.18-.74.65a.55.55,0,0,0,.61.63A.87.87,0,0,0,135.67,153.51Z"/><path class="cls-2" d="M139.34,154.7a.83.83,0,0,1,0,.24,1.91,1.91,0,0,1-.54.06c-.87,0-1.19-.45-1.19-1.34v-1.89h-.53a.76.76,0,0,1,0-.26.72.72,0,0,1,0-.27h.53v-.67a1.23,1.23,0,0,1,.7-.13v.8h.92a.7.7,0,0,1,0,.26.87.87,0,0,1,0,.27h-.92v1.86c0,.61.19.81.68.81l.33,0A.68.68,0,0,1,139.34,154.7Z"/><path class="cls-2" d="M140,150.48v-.63a1.3,1.3,0,0,1,.37,0,1.42,1.42,0,0,1,.38,0v.63a1.42,1.42,0,0,1-.38,0A1.3,1.3,0,0,1,140,150.48Zm0,4.41v-3.61a1.14,1.14,0,0,1,.35,0,1.22,1.22,0,0,1,.35,0v3.61a1.22,1.22,0,0,1-.35,0A1.14,1.14,0,0,1,140,154.89Z"/><path class="cls-2" d="M141.7,150.48v-.63a1.3,1.3,0,0,1,.37,0,1.42,1.42,0,0,1,.38,0v.63a1.42,1.42,0,0,1-.38,0A1.3,1.3,0,0,1,141.7,150.48Zm0,4.41v-3.61a1.14,1.14,0,0,1,.35,0,1.22,1.22,0,0,1,.35,0v3.61a1.22,1.22,0,0,1-.35,0A1.14,1.14,0,0,1,141.72,154.89Z"/><path class="cls-2" d="M82.4,163.65c0,1.43-.53,1.92-1.33,1.92a1.14,1.14,0,0,1-1-.49v2a1.14,1.14,0,0,1-.35,0,1.22,1.22,0,0,1-.35,0v-5.24a1,1,0,0,1,.35,0,.93.93,0,0,1,.35,0v.36a1.14,1.14,0,0,1,1-.48C81.87,161.73,82.4,162.21,82.4,163.65Zm-.74,0c0-1-.26-1.35-.84-1.35a.82.82,0,0,0-.78.88v.91a.83.83,0,0,0,.78.91C81.4,165,81.66,164.69,81.66,163.65Z"/><path class="cls-2" d="M83.25,165.45v-3.6a.93.93,0,0,1,.35,0,.75.75,0,0,1,.33,0v.5a1,1,0,0,1,.9-.61,1.07,1.07,0,0,1,.6.18.8.8,0,0,1-.31.58.65.65,0,0,0-.43-.14.93.93,0,0,0-.75.57v2.52a1,1,0,0,1-.35.05A.93.93,0,0,1,83.25,165.45Z"/><path class="cls-2" d="M88.49,165.22a.9.9,0,0,1,0,.28H85.83a.91.91,0,0,1,0-.31.86.86,0,0,1,0-.26l1.87-2.56H85.94a.93.93,0,0,1,0-.29.82.82,0,0,1,0-.28h2.5a1,1,0,0,1,0,.27,1.21,1.21,0,0,1,0,.3l-1.87,2.56h1.88A.85.85,0,0,1,88.49,165.22Z"/><path class="cls-2" d="M92,163.86H89.86c.06.84.38,1.11,1,1.11a1.6,1.6,0,0,0,.82-.21.7.7,0,0,1,.23.5,2,2,0,0,1-1.17.31c-1,0-1.57-.65-1.57-1.93s.61-1.91,1.55-1.91a1.24,1.24,0,0,1,1.35,1.4A3.42,3.42,0,0,1,92,163.86Zm-2.12-.47h1.52a1.72,1.72,0,0,0,0-.34c0-.43-.19-.78-.7-.78S89.91,162.59,89.85,163.39Z"/><path class="cls-2" d="M95.76,160.28v5.17a.85.85,0,0,1-.3.05,1,1,0,0,1-.32-.05l0-.4a1.17,1.17,0,0,1-1.06.52c-.8,0-1.33-.49-1.33-1.92s.52-1.92,1.33-1.92a1.14,1.14,0,0,1,1,.48v-1.93a1.26,1.26,0,0,1,.36,0A1.1,1.1,0,0,1,95.76,160.28Zm-.7,3.83v-.93a.82.82,0,0,0-.77-.88c-.57,0-.84.32-.84,1.35s.27,1.35.84,1.35A.81.81,0,0,0,95.06,164.11Z"/><path class="cls-2" d="M98.35,165.45v-5.17a1.06,1.06,0,0,1,.35,0,1.22,1.22,0,0,1,.35,0v5.17a1,1,0,0,1-.35.05A.87.87,0,0,1,98.35,165.45Z"/><path class="cls-2" d="M102.75,163.86h-2.11c0,.84.38,1.11,1,1.11a1.6,1.6,0,0,0,.82-.21.7.7,0,0,1,.23.5,2,2,0,0,1-1.17.31c-1,0-1.57-.65-1.57-1.93s.61-1.91,1.54-1.91a1.25,1.25,0,0,1,1.36,1.4A3.42,3.42,0,0,1,102.75,163.86Zm-2.12-.47h1.52a1.72,1.72,0,0,0,0-.34c0-.43-.19-.78-.7-.78S100.69,162.59,100.63,163.39Z"/><path class="cls-2" d="M103.49,163.65c0-1.26.53-1.92,1.55-1.92a1.83,1.83,0,0,1,.94.19.74.74,0,0,1-.21.5,1.51,1.51,0,0,0-.6-.11c-.67,0-1,.43-1,1.34s.3,1.32,1,1.32a1.56,1.56,0,0,0,.64-.13.74.74,0,0,1,.21.5,1.87,1.87,0,0,1-1,.23C104,165.57,103.49,164.91,103.49,163.65Z"/><path class="cls-2" d="M109.24,165.22a.73.73,0,0,1,0,.28h-2.62a1.3,1.3,0,0,1,0-.31.89.89,0,0,1,0-.26l1.87-2.56h-1.75a.93.93,0,0,1,0-.29.82.82,0,0,1,0-.28h2.5a1,1,0,0,1,0,.27,1.21,1.21,0,0,1,0,.3l-1.87,2.56h1.87A.7.7,0,0,1,109.24,165.22Z"/><path class="cls-2" d="M112.71,163.86h-2.1c0,.84.37,1.11,1,1.11a1.6,1.6,0,0,0,.82-.21.74.74,0,0,1,.23.5,2,2,0,0,1-1.18.31c-1,0-1.57-.65-1.57-1.93s.62-1.91,1.55-1.91a1.25,1.25,0,0,1,1.36,1.4A3,3,0,0,1,112.71,163.86Zm-2.11-.47h1.52a3.11,3.11,0,0,0,0-.34c0-.43-.19-.78-.7-.78S110.65,162.59,110.6,163.39Z"/><path class="cls-2" d="M113.61,165.45v-3.6a.93.93,0,0,1,.35,0,1,1,0,0,1,.35,0v.36a1.43,1.43,0,0,1,1.09-.48,1,1,0,0,1,1.07,1.05v2.67a1.25,1.25,0,0,1-.7,0v-2.52a.57.57,0,0,0-.65-.63,1,1,0,0,0-.81.48v2.67a1,1,0,0,1-.35.05A.93.93,0,0,1,113.61,165.45Z"/><path class="cls-2" d="M117.44,161v-.63a1.3,1.3,0,0,1,.37,0,1.52,1.52,0,0,1,.38,0V161a1.52,1.52,0,0,1-.38,0A1.3,1.3,0,0,1,117.44,161Zm0,4.41v-3.6a.87.87,0,0,1,.35,0,1,1,0,0,1,.35,0v3.6a1,1,0,0,1-.35.05A.93.93,0,0,1,117.46,165.45Z"/><path class="cls-2" d="M121.85,163.86h-2.11c.06.84.38,1.11,1,1.11a1.6,1.6,0,0,0,.82-.21.74.74,0,0,1,.24.5,2,2,0,0,1-1.18.31c-1,0-1.57-.65-1.57-1.93s.62-1.91,1.55-1.91a1.25,1.25,0,0,1,1.36,1.4A3,3,0,0,1,121.85,163.86Zm-2.12-.47h1.52a1.65,1.65,0,0,0,0-.34c0-.43-.19-.78-.71-.78S119.79,162.59,119.73,163.39Z"/><path class="cls-2" d="M122.74,165.45v-3.6a1.25,1.25,0,0,1,.7,0v.35a1.36,1.36,0,0,1,1-.47.92.92,0,0,1,.91.55,1.4,1.4,0,0,1,1.16-.55,1,1,0,0,1,1,1.06v2.66a1.06,1.06,0,0,1-.35.05.93.93,0,0,1-.35-.05v-2.52c0-.42-.19-.63-.61-.63a.88.88,0,0,0-.76.49v2.66a1.06,1.06,0,0,1-.35.05.93.93,0,0,1-.35-.05v-2.52c0-.42-.19-.63-.6-.63a.92.92,0,0,0-.77.48v2.67a1.25,1.25,0,0,1-.7,0Z"/><line class="cls-26" x1="78.85" y1="142.9" x2="109.23" y2="142.9"/><path class="cls-2" d="M439.12,153.25v-3.31a1.09,1.09,0,0,1,.36-.05,1,1,0,0,1,.36.05v3.39a1,1,0,0,0,1.07,1.07,1,1,0,0,0,1-1.07v-3.39a1,1,0,0,1,.35-.05,1.09,1.09,0,0,1,.36.05v3.31a1.78,1.78,0,0,1-3.55,0Z"/><path class="cls-2" d="M443.46,154.75a.66.66,0,0,1,.18-.5,2.85,2.85,0,0,0,1,.17c.46,0,.73-.16.73-.52s-.41-.46-.82-.59-1-.36-1-1,.42-1.1,1.31-1.1a2.23,2.23,0,0,1,1,.19.64.64,0,0,1-.17.49,2.74,2.74,0,0,0-.76-.12c-.49,0-.73.19-.73.51s.44.44.87.58,1,.36,1,1.06-.44,1.12-1.36,1.12A2.86,2.86,0,0,1,443.46,154.75Z"/><path class="cls-2" d="M448.8,154.7a.64.64,0,0,1,0,.24,1.87,1.87,0,0,1-.54.06c-.87,0-1.18-.45-1.18-1.34v-1.89h-.53a.63.63,0,0,1-.05-.26.6.6,0,0,1,.05-.27H447v-.67a1.21,1.21,0,0,1,.7-.13v.8h.92a.9.9,0,0,1,0,.26,1.13,1.13,0,0,1,0,.27h-.92v1.86c0,.61.19.81.68.81l.32,0A.58.58,0,0,1,448.8,154.7Z"/><path class="cls-2" d="M452.08,156.52a1.23,1.23,0,0,1-.63.17c-.44,0-.69-.22-.69-.62a1.68,1.68,0,0,1,.75-1.18l-.12-.45a1.11,1.11,0,0,1-1.1.56,1,1,0,0,1-1.08-1.15c0-.76.45-1.1,1.35-1.1a7.86,7.86,0,0,1,.81,0v-.29a.65.65,0,0,0-.74-.74,2.93,2.93,0,0,0-.94.17.45.45,0,0,1-.15-.21.56.56,0,0,1-.05-.29,3.15,3.15,0,0,1,1.24-.26c1,0,1.34.47,1.34,1.38v2.34a1.65,1.65,0,0,0-.67,1c0,.17.1.26.22.26a.65.65,0,0,0,.28-.08A.6.6,0,0,1,452.08,156.52Zm-.71-3v-.26c-.15,0-.44,0-.71,0-.49,0-.74.18-.74.65a.55.55,0,0,0,.61.63A.87.87,0,0,0,451.37,153.51Z"/><path class="cls-2" d="M456.1,153.09c0,1.43-.53,1.91-1.33,1.91a1.14,1.14,0,0,1-1-.48v2a1.14,1.14,0,0,1-.35,0,1.22,1.22,0,0,1-.35,0v-5.25a1.22,1.22,0,0,1,.35,0,1.14,1.14,0,0,1,.35,0v.37a1.14,1.14,0,0,1,1-.48C455.57,151.17,456.1,151.65,456.1,153.09Zm-.74,0c0-1-.26-1.35-.84-1.35a.81.81,0,0,0-.78.88v.91a.83.83,0,0,0,.78.91C455.1,154.44,455.36,154.13,455.36,153.09Z"/><path class="cls-2" d="M456.94,150.48v-.63a1.3,1.3,0,0,1,.37,0,1.42,1.42,0,0,1,.38,0v.63a1.42,1.42,0,0,1-.38,0A1.3,1.3,0,0,1,456.94,150.48Zm0,4.41v-3.61a1.14,1.14,0,0,1,.35,0,1.26,1.26,0,0,1,.36,0v3.61a1.26,1.26,0,0,1-.36,0A1.22,1.22,0,0,1,457,154.89Z"/><path class="cls-2" d="M461.35,153.3h-2.1c.05.84.37,1.11,1,1.11a1.6,1.6,0,0,0,.82-.21.74.74,0,0,1,.23.5,2.07,2.07,0,0,1-1.18.3c-1,0-1.57-.64-1.57-1.92s.62-1.91,1.55-1.91a1.24,1.24,0,0,1,1.36,1.4A3,3,0,0,1,461.35,153.3Zm-2.11-.47h1.52a3.28,3.28,0,0,0,0-.34c0-.43-.19-.78-.7-.78S459.3,152,459.24,152.83Z"/><path class="cls-2" d="M462.25,154.89v-3.61a1.14,1.14,0,0,1,.35,0,1.22,1.22,0,0,1,.35,0v.37a1.43,1.43,0,0,1,1.09-.48,1,1,0,0,1,1.07,1.05v2.67a1.55,1.55,0,0,1-.7,0v-2.53c0-.4-.21-.62-.65-.62a1,1,0,0,0-.81.48v2.67a1.22,1.22,0,0,1-.35,0A1.14,1.14,0,0,1,462.25,154.89Z"/><path class="cls-2" d="M466.08,150.48v-.63a1.3,1.3,0,0,1,.37,0,1.52,1.52,0,0,1,.38,0v.63a1.52,1.52,0,0,1-.38,0A1.3,1.3,0,0,1,466.08,150.48Zm0,4.41v-3.61a1.06,1.06,0,0,1,.35,0,1.22,1.22,0,0,1,.35,0v3.61a1.22,1.22,0,0,1-.35,0A1.14,1.14,0,0,1,466.1,154.89Z"/><path class="cls-2" d="M470.49,153.3h-2.11c.06.84.38,1.11,1,1.11a1.6,1.6,0,0,0,.82-.21.74.74,0,0,1,.24.5,2.07,2.07,0,0,1-1.18.3c-1.05,0-1.57-.64-1.57-1.92s.62-1.91,1.55-1.91a1.25,1.25,0,0,1,1.36,1.4A3,3,0,0,1,470.49,153.3Zm-2.12-.47h1.52a1.72,1.72,0,0,0,0-.34c0-.43-.19-.78-.71-.78S468.43,152,468.37,152.83Z"/><path class="cls-2" d="M475.84,149.72v5.17a1,1,0,0,1-.3,0,1.07,1.07,0,0,1-.31,0l-.05-.4a1.13,1.13,0,0,1-1.05.51c-.81,0-1.33-.48-1.33-1.91s.52-1.92,1.33-1.92a1.12,1.12,0,0,1,1,.48v-1.93a1.26,1.26,0,0,1,.36,0A1.1,1.1,0,0,1,475.84,149.72Zm-.7,3.83v-.93a.81.81,0,0,0-.77-.88c-.57,0-.84.32-.84,1.35s.27,1.35.84,1.35A.81.81,0,0,0,475.14,153.55Z"/><path class="cls-2" d="M476.69,153.09c0-1.39.6-1.92,1.57-1.92s1.56.53,1.56,1.92-.59,1.91-1.56,1.91S476.69,154.48,476.69,153.09Zm2.41,0c0-1.08-.32-1.38-.84-1.38s-.84.3-.84,1.38.32,1.37.84,1.37S479.1,154.16,479.1,153.09Z"/><path class="cls-2" d="M480.69,154.89v-5.17a1.14,1.14,0,0,1,.35,0,1.22,1.22,0,0,1,.35,0v5.17a1.22,1.22,0,0,1-.35,0A1.14,1.14,0,0,1,480.69,154.89Z"/><path class="cls-2" d="M485.09,153.3H483c.06.84.38,1.11,1,1.11a1.65,1.65,0,0,0,.82-.21.78.78,0,0,1,.23.5,2.07,2.07,0,0,1-1.18.3c-1.05,0-1.57-.64-1.57-1.92s.62-1.91,1.55-1.91a1.25,1.25,0,0,1,1.36,1.4A3,3,0,0,1,485.09,153.3Zm-2.11-.47h1.52a3.28,3.28,0,0,0,0-.34c0-.43-.19-.78-.7-.78S483,152,483,152.83Z"/><path class="cls-2" d="M489,151.73l-.57,0a1.29,1.29,0,0,1,.19.72c0,.77-.48,1.25-1.39,1.25l-.31,0a.63.63,0,0,0-.15.43c.07.65,2.23-.05,2.23,1.39,0,.69-.65,1.21-1.82,1.21s-1.5-.41-1.5-1a1.2,1.2,0,0,1,.61-1,.59.59,0,0,1-.15-.41,1.21,1.21,0,0,1,.35-.78,1.12,1.12,0,0,1-.64-1.11,1.21,1.21,0,0,1,1.38-1.26,1.71,1.71,0,0,1,.79.18l1-.17A.8.8,0,0,1,489,151.73Zm-2.32,3.2a.84.84,0,0,0-.33.63c0,.38.27.63.85.63.73,0,1.13-.25,1.13-.63C488.33,155,487.32,155.11,486.68,154.93Zm1.26-2.51c0-.53-.28-.77-.71-.77a.67.67,0,0,0-.71.77c0,.54.29.78.71.78S487.94,153,487.94,152.42Z"/><path class="cls-2" d="M489.73,154.89v-5.17a1.14,1.14,0,0,1,.35,0,1.22,1.22,0,0,1,.35,0v5.17a1.22,1.22,0,0,1-.35,0A1.14,1.14,0,0,1,489.73,154.89Z"/><path class="cls-2" d="M491.45,150.48v-.63a1.21,1.21,0,0,1,.37,0,1.38,1.38,0,0,1,.37,0v.63a1.38,1.38,0,0,1-.37,0A1.21,1.21,0,0,1,491.45,150.48Zm0,4.41v-3.61a1.06,1.06,0,0,1,.35,0,1.22,1.22,0,0,1,.35,0v3.61a1.22,1.22,0,0,1-.35,0A1.14,1.14,0,0,1,491.47,154.89Z"/><path class="cls-2" d="M493.9,154.89l-1-3.61a1.22,1.22,0,0,1,.35,0,.69.69,0,0,1,.3,0l.66,2.18a3.74,3.74,0,0,1,.15.76h0a4.72,4.72,0,0,1,.16-.76l.65-2.18a1.69,1.69,0,0,1,.37,0,1.22,1.22,0,0,1,.35,0l.63,2.16a3.78,3.78,0,0,1,.14.78h0a7.64,7.64,0,0,1,.16-.77l.66-2.17a1,1,0,0,1,.31,0,.92.92,0,0,1,.31,0L497,154.89a2.15,2.15,0,0,1-.4,0,2.13,2.13,0,0,1-.39,0l-.56-1.88a4.51,4.51,0,0,1-.2-1.06h0a4.18,4.18,0,0,1-.21,1.06l-.56,1.88a2.13,2.13,0,0,1-.39,0A2.48,2.48,0,0,1,493.9,154.89Z"/><path class="cls-2" d="M498.56,153.09c0-1.39.6-1.92,1.57-1.92s1.56.53,1.56,1.92-.6,1.91-1.56,1.91S498.56,154.48,498.56,153.09Zm2.41,0c0-1.08-.33-1.38-.84-1.38s-.84.3-.84,1.38.32,1.37.84,1.37S501,154.16,501,153.09Z"/><path class="cls-2" d="M502.32,154.75a.66.66,0,0,1,.19-.5,2.8,2.8,0,0,0,.95.17c.47,0,.73-.16.73-.52s-.4-.46-.82-.59-1-.36-1-1,.43-1.1,1.32-1.1a2.21,2.21,0,0,1,1,.19.61.61,0,0,1-.17.49,2.74,2.74,0,0,0-.76-.12c-.49,0-.72.19-.72.51s.43.44.86.58,1,.36,1,1.06-.43,1.12-1.36,1.12A2.89,2.89,0,0,1,502.32,154.75Zm.74-4.2.7-1a.73.73,0,0,1,.61.26l-.91,1A.52.52,0,0,1,503.06,150.55Z"/><path class="cls-2" d="M505.51,153.09c0-1.26.53-1.92,1.55-1.92a1.91,1.91,0,0,1,.94.18.74.74,0,0,1-.21.51,1.51,1.51,0,0,0-.6-.11c-.67,0-.95.42-.95,1.34s.3,1.32,1,1.32a1.56,1.56,0,0,0,.64-.13.72.72,0,0,1,.21.5,1.93,1.93,0,0,1-1,.22C506,155,505.51,154.35,505.51,153.09Z"/><path class="cls-2" d="M508.78,150.48v-.63a1.34,1.34,0,0,1,.38,0,1.38,1.38,0,0,1,.37,0v.63a1.38,1.38,0,0,1-.37,0A1.34,1.34,0,0,1,508.78,150.48Zm0,4.41v-3.61a1.06,1.06,0,0,1,.35,0,1.22,1.22,0,0,1,.35,0v3.61a1.22,1.22,0,0,1-.35,0A1.14,1.14,0,0,1,508.81,154.89Z"/><path class="cls-2" d="M515,154.89a1.66,1.66,0,0,1-.39,0,1.52,1.52,0,0,1-.38,0l-1-1.62h-.44v1.62a1.18,1.18,0,0,1-.34,0,1.34,1.34,0,0,1-.36,0v-5.17a1.44,1.44,0,0,1,.36,0,1.36,1.36,0,0,1,.34,0v3h.46l.93-1.46a1.34,1.34,0,0,1,.36,0,1.4,1.4,0,0,1,.35,0l-1,1.68Z"/><path class="cls-2" d="M515.65,154.89v-5.17a1.14,1.14,0,0,1,.35,0,1.22,1.22,0,0,1,.35,0v5.17a1.22,1.22,0,0,1-.35,0A1.14,1.14,0,0,1,515.65,154.89Z"/><path class="cls-2" d="M517.37,150.48v-.63a1.3,1.3,0,0,1,.37,0,1.52,1.52,0,0,1,.38,0v.63a1.52,1.52,0,0,1-.38,0A1.3,1.3,0,0,1,517.37,150.48Zm0,4.41v-3.61a1.06,1.06,0,0,1,.35,0,1.22,1.22,0,0,1,.35,0v3.61a1.22,1.22,0,0,1-.35,0A1.14,1.14,0,0,1,517.39,154.89Z"/><path class="cls-2" d="M519.1,154.89v-3.61a1.14,1.14,0,0,1,.35,0,1.22,1.22,0,0,1,.35,0v.37a1.43,1.43,0,0,1,1.09-.48,1,1,0,0,1,1.08,1.05v2.67a1.3,1.3,0,0,1-.35,0,1.14,1.14,0,0,1-.35,0v-2.53c0-.4-.21-.62-.66-.62a1,1,0,0,0-.81.48v2.67a1.22,1.22,0,0,1-.35,0A1.14,1.14,0,0,1,519.1,154.89Z"/><path class="cls-2" d="M522.93,150.48v-.63a1.3,1.3,0,0,1,.37,0,1.42,1.42,0,0,1,.38,0v.63a1.42,1.42,0,0,1-.38,0A1.3,1.3,0,0,1,522.93,150.48Zm0,4.41v-3.61a1.14,1.14,0,0,1,.35,0,1.22,1.22,0,0,1,.35,0v3.61a1.22,1.22,0,0,1-.35,0A1.14,1.14,0,0,1,523,154.89Z"/><path class="cls-2" d="M524.51,153.09c0-1.26.54-1.92,1.56-1.92a2,2,0,0,1,.94.18.74.74,0,0,1-.21.51,1.53,1.53,0,0,0-.61-.11c-.67,0-1,.42-1,1.34s.3,1.32,1,1.32a1.58,1.58,0,0,0,.65-.13.76.76,0,0,1,.21.5,1.93,1.93,0,0,1-1,.22C525.05,155,524.51,154.35,524.51,153.09Z"/><path class="cls-2" d="M530.27,154.65a.68.68,0,0,1,0,.28H527.6a.84.84,0,0,1,0-.3.89.89,0,0,1,0-.26l1.87-2.56h-1.75a.93.93,0,0,1,0-.29.82.82,0,0,1,0-.28h2.49a.93.93,0,0,1,0,.27,1.17,1.17,0,0,1,0,.3l-1.87,2.56h1.88A.62.62,0,0,1,530.27,154.65Z"/><path class="cls-2" d="M531.06,154.89v-3.61a1.26,1.26,0,0,1,.36,0,1.1,1.1,0,0,1,.34,0v.37a1.43,1.43,0,0,1,1.09-.48,1,1,0,0,1,1.08,1.05v2.67a1.3,1.3,0,0,1-.35,0,1.14,1.14,0,0,1-.35,0v-2.53c0-.4-.21-.62-.65-.62a1,1,0,0,0-.82.48v2.67a1.1,1.1,0,0,1-.34,0A1.26,1.26,0,0,1,531.06,154.89Z"/><path class="cls-2" d="M537.93,151.28l-1.38,4.24c-.24.74-.51,1.17-1.24,1.17a1.59,1.59,0,0,1-.46-.07.63.63,0,0,1-.05-.26.56.56,0,0,1,.07-.28,1.08,1.08,0,0,0,.32,0c.33,0,.51-.11.71-.72l.16-.47a.78.78,0,0,1-.22,0l-1.34-3.61a1.38,1.38,0,0,1,.37,0,1.26,1.26,0,0,1,.36,0l.81,2.15a5.64,5.64,0,0,1,.25.82h0s.07-.34.22-.82l.72-2.15a1.1,1.1,0,0,1,.34,0A1.18,1.18,0,0,1,537.93,151.28Z"/><path class="cls-2" d="M538.36,153.09c0-1.26.53-1.92,1.55-1.92a1.91,1.91,0,0,1,.94.18.7.7,0,0,1-.21.51,1.51,1.51,0,0,0-.6-.11c-.67,0-.95.42-.95,1.34s.3,1.32,1,1.32a1.56,1.56,0,0,0,.64-.13.68.68,0,0,1,.21.5,1.93,1.93,0,0,1-1,.22C538.89,155,538.36,154.35,538.36,153.09Z"/><path class="cls-2" d="M544.51,152.22v2.67a1.3,1.3,0,0,1-.35,0,1.14,1.14,0,0,1-.35,0v-2.53c0-.4-.21-.62-.66-.62a1,1,0,0,0-.81.48v2.67a1.22,1.22,0,0,1-.35,0,1.14,1.14,0,0,1-.35,0v-5.17a1.14,1.14,0,0,1,.35,0,1.22,1.22,0,0,1,.35,0v1.92a1.42,1.42,0,0,1,1.09-.47A1,1,0,0,1,544.51,152.22Z"/><path class="cls-2" d="M438.89,161.49c0-1.39.6-1.92,1.57-1.92s1.56.53,1.56,1.92-.59,1.91-1.56,1.91S438.89,162.88,438.89,161.49Zm2.41,0c0-1.08-.32-1.38-.84-1.38s-.84.3-.84,1.38.32,1.37.84,1.37S441.3,162.56,441.3,161.49Z"/><path class="cls-2" d="M442.87,163.29v-3.6a.93.93,0,0,1,.35-.05.75.75,0,0,1,.33.05v.5a1,1,0,0,1,.91-.61,1,1,0,0,1,.6.18.84.84,0,0,1-.31.58.67.67,0,0,0-.43-.14.93.93,0,0,0-.75.56v2.53a1.22,1.22,0,0,1-.35,0A1.14,1.14,0,0,1,442.87,163.29Z"/><path class="cls-2" d="M448.24,161v2.34a.85.85,0,0,1-.29,0,.93.93,0,0,1-.29,0l-.1-.47a1.1,1.1,0,0,1-1.1.58,1,1,0,0,1-1.09-1.15c0-.76.46-1.1,1.35-1.1.33,0,.63,0,.82,0v-.29c0-.49-.22-.74-.75-.74a2.91,2.91,0,0,0-.93.17.52.52,0,0,1-.16-.21.71.71,0,0,1-.05-.29,3.15,3.15,0,0,1,1.24-.26C447.91,159.57,448.24,160,448.24,161Zm-.7,1v-.26c-.16,0-.45,0-.72,0-.49,0-.73.18-.73.65a.55.55,0,0,0,.61.63A.88.88,0,0,0,447.54,161.91Z"/><path class="cls-2" d="M451.68,163.05a.68.68,0,0,1-.05.28H449a.84.84,0,0,1,0-.3.89.89,0,0,1,0-.26l1.87-2.56h-1.75a.93.93,0,0,1,0-.29.82.82,0,0,1,0-.28h2.5a1,1,0,0,1,0,.27,1.21,1.21,0,0,1,0,.3l-1.87,2.56h1.87A.62.62,0,0,1,451.68,163.05Z"/><path class="cls-2" d="M453.88,161.49c0-1.39.61-1.92,1.57-1.92s1.56.53,1.56,1.92-.59,1.91-1.56,1.91S453.88,162.88,453.88,161.49Zm2.41,0c0-1.08-.32-1.38-.84-1.38s-.84.3-.84,1.38.32,1.37.84,1.37S456.29,162.56,456.29,161.49Z"/><path class="cls-2" d="M460.76,158.12v5.17a1,1,0,0,1-.3,0,1.19,1.19,0,0,1-.32,0l-.05-.4a1.13,1.13,0,0,1-1,.51c-.8,0-1.33-.48-1.33-1.91s.52-1.92,1.33-1.92a1.14,1.14,0,0,1,1,.48v-1.93a1.26,1.26,0,0,1,.36,0A1.1,1.1,0,0,1,460.76,158.12Zm-.7,3.83V161a.82.82,0,0,0-.77-.88c-.58,0-.84.32-.84,1.35s.26,1.35.84,1.35A.81.81,0,0,0,460.06,162Z"/><path class="cls-2" d="M461.6,161.49c0-1.26.54-1.92,1.56-1.92a1.87,1.87,0,0,1,.94.19.74.74,0,0,1-.21.5,1.51,1.51,0,0,0-.6-.11c-.68,0-1,.42-1,1.34s.3,1.32,1,1.32a1.58,1.58,0,0,0,.65-.13.76.76,0,0,1,.21.5,1.93,1.93,0,0,1-1,.22C462.14,163.4,461.6,162.75,461.6,161.49Z"/><path class="cls-2" d="M467.36,163.05a.68.68,0,0,1-.05.28h-2.62a.84.84,0,0,1,0-.3.89.89,0,0,1,0-.26l1.87-2.56h-1.75a.93.93,0,0,1,0-.29.82.82,0,0,1,0-.28h2.49a.68.68,0,0,1,.05.27.85.85,0,0,1-.05.3l-1.87,2.56h1.88A.62.62,0,0,1,467.36,163.05Z"/><path class="cls-2" d="M471,159.69v3.6a1.14,1.14,0,0,1-.35,0,1.22,1.22,0,0,1-.35,0v-.36a1.39,1.39,0,0,1-1.09.47,1,1,0,0,1-1.07-1.05v-2.66a1.25,1.25,0,0,1,.7,0v2.53c0,.4.21.62.65.62a1,1,0,0,0,.81-.49v-2.66a1.25,1.25,0,0,1,.7,0Z"/><path class="cls-2" d="M472.71,163.29l-1-3.6a1,1,0,0,1,.35-.05.57.57,0,0,1,.3.05l.66,2.17a3.74,3.74,0,0,1,.15.76h0a4.72,4.72,0,0,1,.16-.76l.65-2.17a1.37,1.37,0,0,1,.37-.05,1,1,0,0,1,.35.05l.63,2.15a5,5,0,0,1,.15.78h0a7.64,7.64,0,0,1,.16-.77l.66-2.16a.81.81,0,0,1,.31-.05.75.75,0,0,1,.31.05l-1.06,3.6a2.15,2.15,0,0,1-.4,0,2.13,2.13,0,0,1-.39,0l-.56-1.88a4.51,4.51,0,0,1-.2-1.06h0a4.18,4.18,0,0,1-.21,1.06l-.56,1.88a2.13,2.13,0,0,1-.39,0A2.48,2.48,0,0,1,472.71,163.29Z"/><path class="cls-2" d="M480.16,161v2.34a.85.85,0,0,1-.29,0,.93.93,0,0,1-.29,0l-.1-.47a1.1,1.1,0,0,1-1.1.58,1,1,0,0,1-1.09-1.15c0-.76.46-1.1,1.35-1.1.33,0,.63,0,.82,0v-.29c0-.49-.22-.74-.75-.74a2.91,2.91,0,0,0-.93.17.52.52,0,0,1-.16-.21.71.71,0,0,1-.05-.29,3.15,3.15,0,0,1,1.24-.26C479.83,159.57,480.16,160,480.16,161Zm-.7,1v-.26c-.16,0-.45,0-.72,0-.49,0-.73.18-.73.65a.55.55,0,0,0,.61.63A.88.88,0,0,0,479.46,161.91Z"/><path class="cls-2" d="M481.16,163.29v-5.17a1.06,1.06,0,0,1,.35,0,1.22,1.22,0,0,1,.35,0v5.17a1.22,1.22,0,0,1-.35,0A1.06,1.06,0,0,1,481.16,163.29Z"/><path class="cls-2" d="M482.88,163.29v-3.6a.93.93,0,0,1,.35-.05,1,1,0,0,1,.35.05v.36a1.39,1.39,0,0,1,1.08-.48,1,1,0,0,1,1.08,1.05v2.67a1.22,1.22,0,0,1-.35,0,1.14,1.14,0,0,1-.35,0v-2.53c0-.4-.21-.62-.65-.62a1,1,0,0,0-.81.48v2.67a1.22,1.22,0,0,1-.35,0A1.14,1.14,0,0,1,482.88,163.29Z"/><path class="cls-2" d="M489.75,159.69l-1.39,4.23c-.24.74-.51,1.17-1.23,1.17a1.61,1.61,0,0,1-.47-.07.76.76,0,0,1,0-.26.69.69,0,0,1,.06-.28,1.13,1.13,0,0,0,.32,0c.34,0,.51-.11.71-.72l.16-.47a.78.78,0,0,1-.22,0l-1.34-3.6a1.13,1.13,0,0,1,.37-.05,1,1,0,0,1,.36.05l.81,2.14a6.09,6.09,0,0,1,.25.82h0s.07-.34.22-.82l.72-2.14a.9.9,0,0,1,.34-.05A1.06,1.06,0,0,1,489.75,159.69Z"/><path class="cls-2" d="M490.17,161.49c0-1.26.53-1.92,1.56-1.92a1.87,1.87,0,0,1,.94.19.7.7,0,0,1-.22.5,1.51,1.51,0,0,0-.6-.11c-.67,0-1,.42-1,1.34s.3,1.32,1,1.32a1.5,1.5,0,0,0,.64-.13.68.68,0,0,1,.21.5,1.87,1.87,0,0,1-1,.22C490.7,163.4,490.17,162.75,490.17,161.49Z"/><path class="cls-2" d="M496.32,160.62v2.67a1.3,1.3,0,0,1-.35,0,1.14,1.14,0,0,1-.35,0v-2.53c0-.4-.21-.62-.65-.62a1,1,0,0,0-.82.48v2.67a1.14,1.14,0,0,1-.35,0,1.22,1.22,0,0,1-.35,0v-5.17a1.22,1.22,0,0,1,.35,0,1.14,1.14,0,0,1,.35,0V160a1.42,1.42,0,0,1,1.09-.47A1,1,0,0,1,496.32,160.62Z"/><path class="cls-2" d="M501.69,159.69v3.6a1.14,1.14,0,0,1-.35,0,1.22,1.22,0,0,1-.35,0v-.36a1.37,1.37,0,0,1-1.09.47,1,1,0,0,1-1.07-1.05v-2.66a1,1,0,0,1,.35-.05.93.93,0,0,1,.35.05v2.53c0,.4.21.62.65.62a1,1,0,0,0,.81-.49v-2.66a1,1,0,0,1,.35-.05A.93.93,0,0,1,501.69,159.69Z"/><path class="cls-2" d="M507.3,161.49c0,1.43-.52,1.91-1.33,1.91a1.11,1.11,0,0,1-1-.48v2a1.55,1.55,0,0,1-.7,0v-5.24a1.25,1.25,0,0,1,.7,0v.36a1.11,1.11,0,0,1,1-.48C506.77,159.57,507.3,160.05,507.3,161.49Zm-.73,0c0-1-.27-1.35-.84-1.35a.81.81,0,0,0-.78.88v.91a.83.83,0,0,0,.78.91C506.3,162.84,506.57,162.53,506.57,161.49Z"/><path class="cls-2" d="M510.79,161v2.34a.75.75,0,0,1-.28,0,.85.85,0,0,1-.29,0l-.1-.47a1.12,1.12,0,0,1-1.11.58,1,1,0,0,1-1.08-1.15c0-.76.45-1.1,1.35-1.1a7.86,7.86,0,0,1,.81,0v-.29c0-.49-.21-.74-.74-.74a2.93,2.93,0,0,0-.94.17.55.55,0,0,1-.15-.21.71.71,0,0,1-.05-.29,3.15,3.15,0,0,1,1.24-.26C510.47,159.57,510.79,160,510.79,161Zm-.7,1v-.26c-.16,0-.44,0-.71,0-.49,0-.74.18-.74.65a.55.55,0,0,0,.61.63A.87.87,0,0,0,510.09,161.91Z"/><path class="cls-2" d="M511.61,161.49c0-1.26.53-1.92,1.56-1.92a1.87,1.87,0,0,1,.94.19.7.7,0,0,1-.22.5,1.51,1.51,0,0,0-.6-.11c-.67,0-.95.42-.95,1.34s.3,1.32,1,1.32a1.5,1.5,0,0,0,.64-.13.68.68,0,0,1,.21.5,1.87,1.87,0,0,1-1,.22C512.14,163.4,511.61,162.75,511.61,161.49Z"/><path class="cls-2" d="M514.08,165a.45.45,0,0,1,0-.16.77.77,0,0,1,.07-.36,1.24,1.24,0,0,0,.27,0c.34,0,.53-.18.53-.6v-4.23a.87.87,0,0,1,.35-.05,1.06,1.06,0,0,1,.35.05V164c0,.75-.37,1.14-1,1.14A1.27,1.27,0,0,1,514.08,165Zm.81-6.13v-.64a1.73,1.73,0,0,1,.74,0v.64a1.73,1.73,0,0,1-.74,0Z"/><path class="cls-2" d="M519.31,161.7H517.2c0,.84.38,1.11,1,1.11a1.6,1.6,0,0,0,.82-.21.7.7,0,0,1,.23.5,2.05,2.05,0,0,1-1.17.3c-1,0-1.57-.64-1.57-1.92s.61-1.91,1.54-1.91a1.24,1.24,0,0,1,1.36,1.4A3.42,3.42,0,0,1,519.31,161.7Zm-2.12-.47h1.52a1.72,1.72,0,0,0,0-.34c0-.43-.19-.78-.7-.78S517.25,160.43,517.19,161.23Z"/><path class="cls-2" d="M520.2,163.29v-3.6a.93.93,0,0,1,.35-.05,1,1,0,0,1,.35.05v.36a1.43,1.43,0,0,1,1.09-.48,1,1,0,0,1,1.07,1.05v2.67a1.55,1.55,0,0,1-.7,0v-2.53c0-.4-.21-.62-.65-.62a1,1,0,0,0-.81.48v2.67a1.22,1.22,0,0,1-.35,0A1.14,1.14,0,0,1,520.2,163.29Z"/><path class="cls-2" d="M526,163.1a.83.83,0,0,1,0,.24,1.91,1.91,0,0,1-.54.06c-.87,0-1.19-.45-1.19-1.34v-1.89h-.53a.76.76,0,0,1,0-.26.72.72,0,0,1,0-.27h.53V159a1.23,1.23,0,0,1,.7-.13v.8h.92a.7.7,0,0,1,0,.26.87.87,0,0,1,0,.27H525V162c0,.61.19.81.68.81a3,3,0,0,0,.33,0A.68.68,0,0,1,526,163.1Z"/><path class="cls-2" d="M529.31,161v2.34a.85.85,0,0,1-.29,0,.93.93,0,0,1-.29,0l-.09-.47a1.13,1.13,0,0,1-1.11.58,1,1,0,0,1-1.09-1.15c0-.76.46-1.1,1.36-1.1a7.86,7.86,0,0,1,.81,0v-.29a.65.65,0,0,0-.74-.74,2.93,2.93,0,0,0-.94.17.52.52,0,0,1-.16-.21.71.71,0,0,1,0-.29,3.15,3.15,0,0,1,1.24-.26C529,159.57,529.31,160,529.31,161Zm-.7,1v-.26c-.16,0-.45,0-.72,0-.49,0-.73.18-.73.65a.55.55,0,0,0,.61.63A.87.87,0,0,0,528.61,161.91Z"/><path class="cls-4" d="M443.9,138.8v5.44a1.17,1.17,0,0,1-.4.06,1,1,0,0,1-.4-.06v-2.45h-2.31v2.45a1.17,1.17,0,0,1-.4.06,1,1,0,0,1-.4-.06V138.8a1.62,1.62,0,0,1,.8,0v2.32h2.31V138.8a1.3,1.3,0,0,1,.4-.05A1.47,1.47,0,0,1,443.9,138.8Z"/></g></svg>