<svg id="Warstwa_1" data-name="Warstwa 1" xmlns="http://www.w3.org/2000/svg" viewBox="0 0 550 60"><defs><style>.cls-1{fill:none;stroke:#cbd413;stroke-miterlimit:10;stroke-width:1.85px;}.cls-2{fill:#0056a4;}</style></defs><title>zastosowanie_02</title><polyline class="cls-1" points="48.64 8.61 63.24 30.22 48.64 51.91"/><path class="cls-2" d="M86,23.8a2.86,2.86,0,0,1-.1.83H76.72a3.21,3.21,0,0,1-.11-.83,2.76,2.76,0,0,1,.11-.78l6.73-9.77H77.22a3.71,3.71,0,0,1-.11-.83,2.86,2.86,0,0,1,.11-.76h8.39a2,2,0,0,1,.13.76,2.41,2.41,0,0,1-.13.83L78.82,23h7A3.22,3.22,0,0,1,86,23.8Z"/><path class="cls-2" d="M94.74,18.49v6a2,2,0,0,1-.74.11,2.13,2.13,0,0,1-.74-.11L93,23.31a2.89,2.89,0,0,1-2.84,1.5c-1.72,0-2.8-1-2.8-3S88.55,19,90.85,19a18,18,0,0,1,2.09.11v-.74c0-1.28-.56-1.91-1.91-1.91a7.62,7.62,0,0,0-2.41.43,1.24,1.24,0,0,1-.4-.54,1.65,1.65,0,0,1-.12-.75A8.22,8.22,0,0,1,91.28,15C93.91,15,94.74,16.15,94.74,18.49ZM92.94,21v-.66c-.42,0-1.15-.11-1.84-.11-1.26,0-1.89.47-1.89,1.65s.6,1.64,1.57,1.64A2.25,2.25,0,0,0,92.94,21Z"/><path class="cls-2" d="M96.7,24.16a1.59,1.59,0,0,1,.47-1.28,7.58,7.58,0,0,0,2.46.43c1.19,0,1.88-.41,1.88-1.33s-1.05-1.21-2.13-1.53-2.54-.92-2.54-2.67S97.94,15,100.23,15a6,6,0,0,1,2.59.48,1.65,1.65,0,0,1-.45,1.26,6.71,6.71,0,0,0-2-.3c-1.26,0-1.87.47-1.87,1.31s1.12,1.12,2.23,1.48,2.49.93,2.49,2.74-1.12,2.88-3.49,2.88A7.3,7.3,0,0,1,96.7,24.16Z"/><path class="cls-2" d="M110.42,24a1.88,1.88,0,0,1-.09.63,5.28,5.28,0,0,1-1.39.17c-2.23,0-3-1.17-3-3.46V16.49h-1.37a1.8,1.8,0,0,1-.11-.67,1.59,1.59,0,0,1,.11-.68h1.37V13.41a3,3,0,0,1,1.8-.34v2.07h2.36a2,2,0,0,1,.09.66,2.39,2.39,0,0,1-.09.69H107.7v4.79c0,1.56.48,2.09,1.74,2.09a5,5,0,0,0,.83-.08A1.59,1.59,0,0,1,110.42,24Z"/><path class="cls-2" d="M111.65,19.87c0-3.56,1.55-4.91,4-4.91s4,1.35,4,4.91-1.53,4.94-4,4.94S111.65,23.46,111.65,19.87Zm6.2,0c0-2.75-.83-3.53-2.16-3.53s-2.16.78-2.16,3.53.83,3.55,2.16,3.55S117.85,22.63,117.85,19.87Z"/><path class="cls-2" d="M121.34,24.16a1.59,1.59,0,0,1,.47-1.28,7.62,7.62,0,0,0,2.46.43c1.19,0,1.88-.41,1.88-1.33s-1.05-1.21-2.13-1.53-2.54-.92-2.54-2.67,1.1-2.82,3.39-2.82a6,6,0,0,1,2.59.48A1.61,1.61,0,0,1,127,16.7a6.69,6.69,0,0,0-1.94-.3c-1.26,0-1.88.47-1.88,1.31s1.12,1.12,2.24,1.48,2.48.93,2.48,2.74-1.11,2.88-3.49,2.88A7.3,7.3,0,0,1,121.34,24.16Z"/><path class="cls-2" d="M129.53,19.87c0-3.56,1.55-4.91,4-4.91s4,1.35,4,4.91-1.53,4.94-4,4.94S129.53,23.46,129.53,19.87Zm6.19,0c0-2.75-.82-3.53-2.16-3.53s-2.16.78-2.16,3.53.83,3.55,2.16,3.55S135.72,22.63,135.72,19.87Z"/><path class="cls-2" d="M141.61,24.52l-2.72-9.27a3,3,0,0,1,.9-.11,1.85,1.85,0,0,1,.79.11l1.69,5.58a9.54,9.54,0,0,1,.38,2h.06a12.73,12.73,0,0,1,.41-2l1.66-5.58a4.28,4.28,0,0,1,.95-.11,2.87,2.87,0,0,1,.9.11l1.62,5.54a11.78,11.78,0,0,1,.38,2h.05a16,16,0,0,1,.44-2l1.67-5.56a2.49,2.49,0,0,1,.81-.11,2.15,2.15,0,0,1,.79.11l-2.72,9.27a5.68,5.68,0,0,1-1,.11,5.78,5.78,0,0,1-1-.11l-1.44-4.85a10.77,10.77,0,0,1-.5-2.71h-.06a11.25,11.25,0,0,1-.54,2.71l-1.44,4.85a5.56,5.56,0,0,1-1,.11A6,6,0,0,1,141.61,24.52Z"/><path class="cls-2" d="M160.87,18.49v6a2,2,0,0,1-.74.11,2.13,2.13,0,0,1-.74-.11l-.25-1.21a2.89,2.89,0,0,1-2.84,1.5c-1.72,0-2.8-1-2.8-3S154.67,19,157,19a18,18,0,0,1,2.09.11v-.74c0-1.28-.56-1.91-1.91-1.91a7.62,7.62,0,0,0-2.41.43,1.24,1.24,0,0,1-.4-.54,1.65,1.65,0,0,1-.12-.75,8.22,8.22,0,0,1,3.18-.65C160,15,160.87,16.15,160.87,18.49ZM159.07,21v-.66c-.42,0-1.15-.11-1.84-.11-1.26,0-1.89.47-1.89,1.65s.6,1.64,1.57,1.64A2.25,2.25,0,0,0,159.07,21Z"/><path class="cls-2" d="M163.37,24.52V15.25a2.8,2.8,0,0,1,.9-.11,3,3,0,0,1,.9.11v.93A3.62,3.62,0,0,1,168,15a2.52,2.52,0,0,1,2.77,2.7v6.86a3,3,0,0,1-.9.11,2.8,2.8,0,0,1-.9-.11V18c0-1.05-.54-1.6-1.67-1.6a2.51,2.51,0,0,0-2.09,1.24v6.86a3,3,0,0,1-.9.11A2.8,2.8,0,0,1,163.37,24.52Z"/><path class="cls-2" d="M173.22,13.18V11.55a3.34,3.34,0,0,1,.95-.1,3.79,3.79,0,0,1,1,.1v1.63a3.79,3.79,0,0,1-1,.1A3.34,3.34,0,0,1,173.22,13.18Zm.05,11.34V15.25a2.65,2.65,0,0,1,.9-.11,3,3,0,0,1,.9.11v9.27a3,3,0,0,1-.9.11A2.8,2.8,0,0,1,173.27,24.52Z"/><path class="cls-2" d="M184.56,20.43h-5.42c.14,2.14,1,2.85,2.5,2.85a4.16,4.16,0,0,0,2.11-.54,1.88,1.88,0,0,1,.59,1.27,5.17,5.17,0,0,1-3,.8c-2.71,0-4-1.66-4-5s1.59-4.89,4-4.89,3.49,1.26,3.49,3.58A8.58,8.58,0,0,1,184.56,20.43Zm-5.44-1.22H183a7,7,0,0,0,.05-.87c0-1.1-.49-2-1.8-2S179.26,17.15,179.12,19.21Z"/><path class="cls-2" d="M190.6,18.14c0-4.37,1.8-6.68,5.26-6.68a6.7,6.7,0,0,1,3.13.63,1.78,1.78,0,0,1-.55,1.36,6.74,6.74,0,0,0-2.35-.42c-2.1,0-3.51,1.12-3.51,5.13s1.41,5.08,3.51,5.08a7.36,7.36,0,0,0,2.52-.43,1.9,1.9,0,0,1,.58,1.37,7.35,7.35,0,0,1-3.33.64C192.4,24.82,190.6,22.56,190.6,18.14Z"/><path class="cls-2" d="M210.4,11.79V24.5a2.84,2.84,0,0,1-.93.13,2.53,2.53,0,0,1-.94-.13V18.77h-5.38V24.5a3,3,0,0,1-.94.13,2.5,2.5,0,0,1-.93-.13V11.79a2.84,2.84,0,0,1,.93-.13,2.87,2.87,0,0,1,.94.13v5.4h5.38v-5.4a2.87,2.87,0,0,1,.94-.13A2.91,2.91,0,0,1,210.4,11.79Z"/><path class="cls-2" d="M223,24.48a3,3,0,0,1-1.06.15,3.5,3.5,0,0,1-1.06-.13l-2.34-3.69c-.35-.52-.67-1-1-1.57l-1.07,1.68-2.3,3.6a4.16,4.16,0,0,1-.94.11,5.66,5.66,0,0,1-1.06-.11l4.18-6.61-3.84-6.12a3.73,3.73,0,0,1,1.1-.13,3.6,3.6,0,0,1,1,.13l2.11,3.28c.29.45.61.93.9,1.4.33-.5.65-1,1-1.49l2.09-3.19a3.65,3.65,0,0,1,1-.13,3.88,3.88,0,0,1,1,.13l-3.91,6.05Z"/><path class="cls-2" d="M228.4,18.5c0-4.44,1.6-6.32,4.52-6.32s4.56,1.82,4.56,6.32-1.66,6.32-4.56,6.32S228.4,23,228.4,18.5Zm7.1,0c0-3.7-.85-4.82-2.58-4.82s-2.57,1.12-2.57,4.82.88,4.81,2.57,4.81S235.5,22.16,235.5,18.5Z"/><path class="cls-2" d="M239.63,26.41a3.05,3.05,0,0,0,.67-1.78,2.09,2.09,0,0,1-.63-.11V22.77a3.38,3.38,0,0,1,1-.11,3.42,3.42,0,0,1,1,.11V24a3.74,3.74,0,0,1-1.26,2.86Z"/><path class="cls-2" d="M251.08,23a2,2,0,0,1,.16.81,2,2,0,0,1-.16.8h-7.36a6.68,6.68,0,0,1-.13-1.25c0-2.79,1.82-3.76,3.48-4.84s2.45-1.64,2.45-3c0-1-.65-1.87-2.34-1.87a7.8,7.8,0,0,0-2.63.51,1.4,1.4,0,0,1-.52-1.3,8.45,8.45,0,0,1,3.43-.69c2.24,0,3.95.94,3.95,3.3,0,2.16-1.26,3-3.39,4.29-1.1.66-2.59,1.27-2.63,2.8a3,3,0,0,0,0,.45Z"/><path class="cls-2" d="M253,15.3c0-2.22.94-3.12,2.49-3.12s2.48.87,2.48,3.12-.93,3.11-2.48,3.11S253,17.55,253,15.3Zm3.62,0c0-1.66-.43-2.07-1.13-2.07s-1.14.41-1.14,2.07.42,2.05,1.14,2.05S256.66,17,256.66,15.3ZM255,24.7,262,12.09a2,2,0,0,1,.72-.1,2.15,2.15,0,0,1,.73.1l-7,12.61a1.94,1.94,0,0,1-.74.11A1.76,1.76,0,0,1,255,24.7Zm5.29-3c0-2.23.92-3.13,2.47-3.13s2.5.86,2.5,3.13-1,3.12-2.5,3.12S260.3,23.94,260.3,21.69Zm3.6,0c0-1.65-.43-2.07-1.13-2.07s-1.14.42-1.14,2.07.43,2,1.14,2S263.9,23.37,263.9,21.69Z"/><path class="cls-2" d="M277.6,23.91a1.79,1.79,0,0,1-.13.72h-6.73a2.19,2.19,0,0,1-.11-.78,2.05,2.05,0,0,1,.11-.68l4.8-6.57H271a2.48,2.48,0,0,1-.1-.74,2.11,2.11,0,0,1,.1-.72h6.41a2,2,0,0,1,.11.68,2.76,2.76,0,0,1-.11.78l-4.8,6.57h4.82A1.73,1.73,0,0,1,277.6,23.91Z"/><path class="cls-2" d="M279.65,24.52V15.25a2.8,2.8,0,0,1,.9-.11,3,3,0,0,1,.9.11v.91a3.42,3.42,0,0,1,2.66-1.2,2.35,2.35,0,0,1,2.34,1.4,3.58,3.58,0,0,1,3-1.4,2.47,2.47,0,0,1,2.65,2.72v6.84a3,3,0,0,1-.9.11,2.8,2.8,0,0,1-.9-.11V18c0-1.06-.49-1.6-1.55-1.6a2.23,2.23,0,0,0-2,1.26v6.84a3,3,0,0,1-.9.11,2.8,2.8,0,0,1-.9-.11V18c0-1.06-.49-1.6-1.55-1.6a2.32,2.32,0,0,0-2,1.24v6.86a3.11,3.11,0,0,1-.9.11A2.8,2.8,0,0,1,279.65,24.52Z"/><path class="cls-2" d="M294.57,24.52V15.25a2.8,2.8,0,0,1,.9-.11,3,3,0,0,1,.9.11v.93A3.62,3.62,0,0,1,299.16,15a2.52,2.52,0,0,1,2.77,2.7v6.86a3,3,0,0,1-.9.11,2.8,2.8,0,0,1-.9-.11V18c0-1.05-.54-1.6-1.67-1.6a2.51,2.51,0,0,0-2.09,1.24v6.86a3,3,0,0,1-.9.11A2.8,2.8,0,0,1,294.57,24.52Z"/><path class="cls-2" d="M304.41,13.18V11.55a3.47,3.47,0,0,1,1-.1,3.79,3.79,0,0,1,1,.1v1.63a3.79,3.79,0,0,1-1,.1A3.47,3.47,0,0,1,304.41,13.18Zm.06,11.34V15.25a2.65,2.65,0,0,1,.9-.11,3,3,0,0,1,.9.11v9.27a3,3,0,0,1-.9.11A2.8,2.8,0,0,1,304.47,24.52Z"/><path class="cls-2" d="M315.76,20.43h-5.42c.14,2.14,1,2.85,2.5,2.85a4.16,4.16,0,0,0,2.11-.54,1.88,1.88,0,0,1,.59,1.27,5.17,5.17,0,0,1-3,.8c-2.7,0-4-1.66-4-5s1.59-4.89,4-4.89S316,16.22,316,18.54A8.58,8.58,0,0,1,315.76,20.43Zm-5.44-1.22h3.91a7,7,0,0,0,0-.87c0-1.1-.49-2-1.8-2S310.46,17.15,310.32,19.21Z"/><path class="cls-2" d="M316,28.93a1.25,1.25,0,0,1-.07-.41,1.76,1.76,0,0,1,.2-.92,3.32,3.32,0,0,0,.68.07c.88,0,1.35-.45,1.35-1.55V15.25a2.65,2.65,0,0,1,.9-.11,3,3,0,0,1,.9.11v11c0,1.93-.93,2.92-2.66,2.92A3.48,3.48,0,0,1,316,28.93ZM318,13.18V11.54a4.2,4.2,0,0,1,1.91,0v1.64a4.61,4.61,0,0,1-1.91,0Z"/><path class="cls-2" d="M322,24.16a1.63,1.63,0,0,1,.47-1.28,7.64,7.64,0,0,0,2.47.43c1.19,0,1.87-.41,1.87-1.33s-1.05-1.21-2.13-1.53-2.53-.92-2.53-2.67S323.22,15,325.51,15a5.89,5.89,0,0,1,2.59.48,1.61,1.61,0,0,1-.45,1.26,6.63,6.63,0,0,0-1.94-.3c-1.26,0-1.87.47-1.87,1.31s1.11,1.12,2.23,1.48,2.48.93,2.48,2.74-1.11,2.88-3.49,2.88A7.34,7.34,0,0,1,322,24.16Z"/><path class="cls-2" d="M336.92,23.91a1.92,1.92,0,0,1-.12.72h-6.74a2.46,2.46,0,0,1-.1-.78,2.39,2.39,0,0,1,.1-.68l4.81-6.57h-4.5a2.28,2.28,0,0,1-.11-.74,1.94,1.94,0,0,1,.11-.72h6.41a2.23,2.23,0,0,1,.11.68,3.17,3.17,0,0,1-.11.78L332,23.17h4.83A1.85,1.85,0,0,1,336.92,23.91Z"/><path class="cls-2" d="M345.76,18.49v6a2,2,0,0,1-.74.11,2.1,2.1,0,0,1-.73-.11L344,23.31a2.88,2.88,0,0,1-2.84,1.5c-1.71,0-2.79-1-2.79-3S339.57,19,341.87,19a18,18,0,0,1,2.09.11v-.74c0-1.28-.56-1.91-1.91-1.91a7.7,7.7,0,0,0-2.41.43,1.33,1.33,0,0,1-.4-.54,1.65,1.65,0,0,1-.12-.75,8.24,8.24,0,0,1,3.19-.65C344.93,15,345.76,16.15,345.76,18.49ZM344,21v-.66c-.41,0-1.15-.11-1.83-.11-1.27,0-1.89.47-1.89,1.65s.59,1.64,1.56,1.64A2.24,2.24,0,0,0,344,21Z"/><path class="cls-2" d="M352.28,24.52V15.25a2.72,2.72,0,0,1,.9-.11,2.18,2.18,0,0,1,.84.11l0,1.29A2.63,2.63,0,0,1,356.36,15a2.72,2.72,0,0,1,1.55.45,2.09,2.09,0,0,1-.79,1.49,1.77,1.77,0,0,0-1.12-.36A2.42,2.42,0,0,0,354.08,18v6.5a3,3,0,0,1-.9.11A2.72,2.72,0,0,1,352.28,24.52Z"/><path class="cls-2" d="M367.31,15.25l-3.57,10.87c-.61,1.91-1.29,3-3.17,3a4.11,4.11,0,0,1-1.18-.16,1.72,1.72,0,0,1-.13-.69,1.58,1.58,0,0,1,.16-.7,3.54,3.54,0,0,0,.83.09c.86,0,1.32-.29,1.84-1.86l.39-1.18a1.58,1.58,0,0,1-.56-.13l-3.43-9.25a3.14,3.14,0,0,1,.93-.11,3.1,3.1,0,0,1,.94.11l2.09,5.51a15.71,15.71,0,0,1,.63,2.12h.05s.18-.88.58-2.12l1.83-5.51a2.76,2.76,0,0,1,.89-.11A3,3,0,0,1,367.31,15.25Z"/><path class="cls-2" d="M375.32,23.91a1.79,1.79,0,0,1-.13.72h-6.73a2.44,2.44,0,0,1-.11-.78,2.05,2.05,0,0,1,.11-.68l4.81-6.57h-4.51a2.48,2.48,0,0,1-.1-.74,2.11,2.11,0,0,1,.1-.72h6.41a2,2,0,0,1,.11.68,2.76,2.76,0,0,1-.11.78l-4.8,6.57h4.82A1.73,1.73,0,0,1,375.32,23.91Z"/><path class="cls-2" d="M385.27,15.25l-3.56,10.87c-.62,1.91-1.3,3-3.17,3a4.13,4.13,0,0,1-1.19-.16,1.72,1.72,0,0,1-.13-.69,1.51,1.51,0,0,1,.17-.7,3.51,3.51,0,0,0,.82.09c.87,0,1.32-.29,1.84-1.86l.4-1.18a1.53,1.53,0,0,1-.56-.13l-3.44-9.25a3.18,3.18,0,0,1,.94-.11,3,3,0,0,1,.93.11l2.09,5.51a15.71,15.71,0,0,1,.63,2.12h0s.18-.88.58-2.12l1.84-5.51a2.65,2.65,0,0,1,.88-.11A3,3,0,0,1,385.27,15.25Z"/><path class="cls-2" d="M394.54,24.5a3.49,3.49,0,0,1-1,.13,3.34,3.34,0,0,1-1-.13l-2.68-4.14h-1.13v4.16a2.92,2.92,0,0,1-.89.11,3.24,3.24,0,0,1-.91-.11V11.21a4.13,4.13,0,0,1,.91-.09,4,4,0,0,1,.89.09V19h1.17l2.39-3.74a3.18,3.18,0,0,1,.94-.11,3.38,3.38,0,0,1,.9.11l-2.72,4.3Z"/><path class="cls-2" d="M395.64,19.87c0-3.56,1.55-4.91,4-4.91s4,1.35,4,4.91-1.54,4.94-4,4.94S395.64,23.46,395.64,19.87Zm6.19,0c0-2.75-.83-3.53-2.16-3.53s-2.16.78-2.16,3.53.83,3.55,2.16,3.55S401.83,22.63,401.83,19.87Z"/><path class="cls-2" d="M411.73,24.52,409,15.25a3,3,0,0,1,.9-.11,1.85,1.85,0,0,1,.79.11l1.7,5.58a10.07,10.07,0,0,1,.37,2h.06a12.73,12.73,0,0,1,.41-2l1.66-5.58a4.28,4.28,0,0,1,1-.11,2.87,2.87,0,0,1,.9.11l1.62,5.54a10,10,0,0,1,.38,2h.06a15.43,15.43,0,0,1,.43-2l1.67-5.56a2.49,2.49,0,0,1,.81-.11,2.15,2.15,0,0,1,.79.11l-2.71,9.27a4.78,4.78,0,0,1-2,0l-1.44-4.85a10.77,10.77,0,0,1-.5-2.71h-.06a11.25,11.25,0,0,1-.54,2.71l-1.44,4.85a5.56,5.56,0,0,1-1,.11A6,6,0,0,1,411.73,24.52Z"/><path class="cls-2" d="M432.11,15.25l-3.57,10.87c-.61,1.91-1.29,3-3.17,3a4.06,4.06,0,0,1-1.18-.16,1.72,1.72,0,0,1-.13-.69,1.58,1.58,0,0,1,.16-.7,3.54,3.54,0,0,0,.83.09c.86,0,1.31-.29,1.84-1.86l.39-1.18a1.53,1.53,0,0,1-.56-.13l-3.44-9.25a3.26,3.26,0,0,1,.94-.11,3.1,3.1,0,0,1,.94.11l2.09,5.51a15.71,15.71,0,0,1,.63,2.12h.05s.18-.88.58-2.12l1.83-5.51a2.76,2.76,0,0,1,.89-.11A3,3,0,0,1,432.11,15.25Z"/><path class="cls-2" d="M433.22,24.16a1.59,1.59,0,0,1,.47-1.28,7.62,7.62,0,0,0,2.46.43c1.19,0,1.88-.41,1.88-1.33s-1-1.21-2.13-1.53-2.54-.92-2.54-2.67,1.1-2.82,3.39-2.82a5.92,5.92,0,0,1,2.59.48,1.61,1.61,0,0,1-.45,1.26,6.69,6.69,0,0,0-1.94-.3c-1.26,0-1.88.47-1.88,1.31s1.12,1.12,2.24,1.48,2.48.93,2.48,2.74-1.11,2.88-3.49,2.88A7.3,7.3,0,0,1,433.22,24.16Z"/><path class="cls-2" d="M446.94,24a1.88,1.88,0,0,1-.09.63,5.28,5.28,0,0,1-1.39.17c-2.23,0-3-1.17-3-3.46V16.49h-1.37a1.8,1.8,0,0,1-.11-.67,1.59,1.59,0,0,1,.11-.68h1.37V13.41a3,3,0,0,1,1.8-.34v2.07h2.36a2,2,0,0,1,.09.66,2.39,2.39,0,0,1-.09.69h-2.36v4.79c0,1.56.49,2.09,1.75,2.09a4.91,4.91,0,0,0,.82-.08A1.59,1.59,0,0,1,446.94,24Z"/><path class="cls-2" d="M455.38,28.7a3,3,0,0,1-1.62.43c-1.12,0-1.77-.56-1.77-1.59a4.46,4.46,0,0,1,1.91-3l-.28-1.15a2.87,2.87,0,0,1-2.83,1.46c-1.71,0-2.79-1-2.79-3S449.17,19,451.47,19a18,18,0,0,1,2.09.11v-.74c0-1.28-.56-1.91-1.91-1.91a7.62,7.62,0,0,0-2.41.43,1.33,1.33,0,0,1-.4-.54,1.65,1.65,0,0,1-.12-.75A8.22,8.22,0,0,1,451.9,15c2.63,0,3.46,1.19,3.46,3.53v6a4.21,4.21,0,0,0-1.73,2.66c0,.45.26.67.58.67a1.93,1.93,0,0,0,.72-.2A1.56,1.56,0,0,1,455.38,28.7ZM453.56,21v-.66c-.39,0-1.13-.11-1.83-.11-1.27,0-1.9.47-1.9,1.65s.6,1.64,1.57,1.64A2.24,2.24,0,0,0,453.56,21Z"/><path class="cls-2" d="M465.71,19.87c0,3.69-1.35,4.94-3.42,4.94a2.87,2.87,0,0,1-2.63-1.25v5.17a2.87,2.87,0,0,1-.9.11,3,3,0,0,1-.9-.11V15.25a3,3,0,0,1,.9-.11,2.87,2.87,0,0,1,.9.11v.93A2.88,2.88,0,0,1,462.29,15C464.34,15,465.71,16.18,465.71,19.87Zm-1.89,0c0-2.64-.68-3.45-2.16-3.45a2.08,2.08,0,0,0-2,2.26V21a2.12,2.12,0,0,0,2,2.34C463.14,23.35,463.82,22.56,463.82,19.87Z"/><path class="cls-2" d="M467.89,13.18V11.55a3.34,3.34,0,0,1,.95-.1,3.79,3.79,0,0,1,1,.1v1.63a3.79,3.79,0,0,1-1,.1A3.34,3.34,0,0,1,467.89,13.18Zm.05,11.34V15.25a2.65,2.65,0,0,1,.9-.11,2.87,2.87,0,0,1,.9.11v9.27a2.87,2.87,0,0,1-.9.11A2.8,2.8,0,0,1,467.94,24.52Z"/><path class="cls-2" d="M479.23,20.43h-5.42c.14,2.14,1,2.85,2.5,2.85a4.16,4.16,0,0,0,2.11-.54A1.8,1.8,0,0,1,479,24a5.13,5.13,0,0,1-3,.8c-2.7,0-4-1.66-4-5s1.58-4.89,4-4.89,3.49,1.26,3.49,3.58A8.17,8.17,0,0,1,479.23,20.43Zm-5.44-1.22h3.91a5.51,5.51,0,0,0,.05-.87c0-1.1-.48-2-1.8-2S473.94,17.15,473.79,19.21Z"/><path class="cls-2" d="M481.53,24.52V15.25a2.8,2.8,0,0,1,.9-.11,2.87,2.87,0,0,1,.9.11v.93A3.64,3.64,0,0,1,486.12,15a2.52,2.52,0,0,1,2.78,2.7v6.86a3.11,3.11,0,0,1-.9.11,2.72,2.72,0,0,1-.9-.11V18c0-1.05-.54-1.6-1.68-1.6a2.51,2.51,0,0,0-2.09,1.24v6.86a2.87,2.87,0,0,1-.9.11A2.8,2.8,0,0,1,481.53,24.52Z"/><path class="cls-2" d="M491.38,13.18V11.55a3.34,3.34,0,0,1,.95-.1,3.79,3.79,0,0,1,1,.1v1.63a3.79,3.79,0,0,1-1,.1A3.34,3.34,0,0,1,491.38,13.18Zm.05,11.34V15.25a2.65,2.65,0,0,1,.9-.11,2.87,2.87,0,0,1,.9.11v9.27a2.87,2.87,0,0,1-.9.11A2.8,2.8,0,0,1,491.43,24.52Z"/><path class="cls-2" d="M502.63,18.49v6a2,2,0,0,1-.74.11,2.13,2.13,0,0,1-.74-.11l-.25-1.21a2.89,2.89,0,0,1-2.84,1.5c-1.71,0-2.79-1-2.79-3S496.44,19,498.74,19a18,18,0,0,1,2.09.11v-.74c0-1.28-.56-1.91-1.91-1.91a7.62,7.62,0,0,0-2.41.43,1.33,1.33,0,0,1-.4-.54,1.65,1.65,0,0,1-.12-.75,8.22,8.22,0,0,1,3.18-.65C501.8,15,502.63,16.15,502.63,18.49ZM500.83,21v-.66c-.42,0-1.15-.11-1.84-.11-1.26,0-1.89.47-1.89,1.65s.6,1.64,1.57,1.64A2.25,2.25,0,0,0,500.83,21Z"/><path class="cls-2" d="M85.11,41.47c0,3.69-1.35,4.94-3.42,4.94a2.87,2.87,0,0,1-2.63-1.25v5.17a3.74,3.74,0,0,1-1.8,0V36.84a4.1,4.1,0,0,1,1.8,0v.94a2.88,2.88,0,0,1,2.63-1.22C83.74,36.56,85.11,37.78,85.11,41.47Zm-1.89,0c0-2.64-.69-3.45-2.16-3.45a2.08,2.08,0,0,0-2,2.26v2.33a2.13,2.13,0,0,0,2,2.34C82.53,45,83.22,44.16,83.22,41.47Z"/><path class="cls-2" d="M86.91,41.47c0-3.56,1.54-4.91,4-4.91s4,1.35,4,4.91-1.53,4.94-4,4.94S86.91,45.06,86.91,41.47Zm6.19,0c0-2.75-.83-3.53-2.16-3.53s-2.16.78-2.16,3.53S89.61,45,90.94,45,93.1,44.23,93.1,41.47Z"/><path class="cls-2" d="M99,46.12l-2.72-9.28a3.31,3.31,0,0,1,.9-.1,2,2,0,0,1,.79.1l1.69,5.59a11.17,11.17,0,0,1,.38,2h0a14.5,14.5,0,0,1,.42-2l1.65-5.59a4.85,4.85,0,0,1,1-.1,3.23,3.23,0,0,1,.9.1l1.62,5.55a11.78,11.78,0,0,1,.38,2h0a15.43,15.43,0,0,1,.43-2l1.68-5.57a2.72,2.72,0,0,1,.81-.1,2.34,2.34,0,0,1,.79.1l-2.72,9.28a4.74,4.74,0,0,1-2,0l-1.44-4.85a11.43,11.43,0,0,1-.51-2.71h0a12.36,12.36,0,0,1-.54,2.71L101,46.12a5.56,5.56,0,0,1-1,.11A5.82,5.82,0,0,1,99,46.12Z"/><path class="cls-2" d="M111.44,34.77V33.15a3.43,3.43,0,0,1,1-.1,3.93,3.93,0,0,1,1,.1v1.62a3.59,3.59,0,0,1-1,.11A3.13,3.13,0,0,1,111.44,34.77Zm0,11.35V36.84a2.89,2.89,0,0,1,.9-.1,3.14,3.14,0,0,1,.9.1v9.28a2.87,2.87,0,0,1-.9.11A2.8,2.8,0,0,1,111.49,46.12Z"/><path class="cls-2" d="M123.52,46.1a3.58,3.58,0,0,1-1,.13,3.34,3.34,0,0,1-1-.13L118.84,42H117.7v4.16a2.8,2.8,0,0,1-.88.11,3.36,3.36,0,0,1-.92-.11V32.81a4.17,4.17,0,0,1,.92-.09,4,4,0,0,1,.88.09v7.78h1.17l2.4-3.75a3.47,3.47,0,0,1,.94-.1,3.69,3.69,0,0,1,.9.1l-2.72,4.31Z"/><path class="cls-2" d="M127.75,39.11v7a3,3,0,0,1-.9.11,2.65,2.65,0,0,1-.9-.11v-6l-1.24.72a1.23,1.23,0,0,1-.36-.43,1.27,1.27,0,0,1-.22-.54L126,38.84v-6a2.65,2.65,0,0,1,.9-.11,3,3,0,0,1,.9.11v5l1.31-.76a1.48,1.48,0,0,1,.36.44,1.35,1.35,0,0,1,.2.55Z"/><path class="cls-2" d="M138.05,40.09v6a2.07,2.07,0,0,1-.74.11,2.13,2.13,0,0,1-.74-.11l-.25-1.21a2.89,2.89,0,0,1-2.85,1.5c-1.71,0-2.79-1-2.79-3s1.17-2.82,3.48-2.82a17.76,17.76,0,0,1,2.08.11V40c0-1.28-.55-1.91-1.9-1.91a7.72,7.72,0,0,0-2.42.43,1.36,1.36,0,0,1-.39-.54,1.73,1.73,0,0,1-.13-.75,8.3,8.3,0,0,1,3.19-.65C137.22,36.56,138.05,37.75,138.05,40.09Zm-1.81,2.48V41.9c-.41,0-1.15-.1-1.83-.1-1.26,0-1.89.46-1.89,1.65s.59,1.64,1.56,1.64A2.24,2.24,0,0,0,136.24,42.57Z"/><path class="cls-2" d="M140.55,46.12V36.84a3,3,0,0,1,.9-.1,3.23,3.23,0,0,1,.9.1v.94a3.62,3.62,0,0,1,2.79-1.22,2.52,2.52,0,0,1,2.77,2.7v6.86a3,3,0,0,1-.9.11,2.8,2.8,0,0,1-.9-.11v-6.5c0-1-.54-1.6-1.67-1.6a2.49,2.49,0,0,0-2.09,1.24v6.86a3,3,0,0,1-.9.11A2.72,2.72,0,0,1,140.55,46.12ZM142.69,35l1.8-2.61a1.83,1.83,0,0,1,1.57.67l-2.33,2.5A1.36,1.36,0,0,1,142.69,35Z"/><path class="cls-2" d="M162.27,41.47c0,3.69-1.35,4.94-3.42,4.94a2.88,2.88,0,0,1-2.63-1.25v5.17a2.87,2.87,0,0,1-.9.11,3,3,0,0,1-.9-.11V36.84a3.23,3.23,0,0,1,.9-.1,3.14,3.14,0,0,1,.9.1v.94a2.89,2.89,0,0,1,2.63-1.22C160.91,36.56,162.27,37.78,162.27,41.47Zm-1.89,0c0-2.64-.68-3.45-2.16-3.45a2.08,2.08,0,0,0-2,2.26v2.33a2.14,2.14,0,0,0,2,2.34C159.7,45,160.38,44.16,160.38,41.47Z"/><path class="cls-2" d="M164.07,41.47c0-3.56,1.55-4.91,4-4.91s4,1.35,4,4.91-1.53,4.94-4,4.94S164.07,45.06,164.07,41.47Zm6.2,0c0-2.75-.83-3.53-2.17-3.53s-2.16.78-2.16,3.53S166.77,45,168.1,45,170.27,44.23,170.27,41.47Z"/><path class="cls-2" d="M184.66,45.51a1.92,1.92,0,0,1-.12.72h-6.73a2.19,2.19,0,0,1-.11-.78,2.05,2.05,0,0,1,.11-.68l4.8-6.57h-4.5a2.28,2.28,0,0,1-.11-.74,1.94,1.94,0,0,1,.11-.72h6.41a2.23,2.23,0,0,1,.11.68,3.17,3.17,0,0,1-.11.78l-4.81,6.57h4.83A1.85,1.85,0,0,1,184.66,45.51Z"/><path class="cls-2" d="M193.5,40.09v6a2,2,0,0,1-.74.11,2.1,2.1,0,0,1-.73-.11l-.26-1.21a2.88,2.88,0,0,1-2.84,1.5c-1.71,0-2.79-1-2.79-3s1.17-2.82,3.47-2.82a18,18,0,0,1,2.09.11V40c0-1.28-.56-1.91-1.91-1.91a7.7,7.7,0,0,0-2.41.43A1.26,1.26,0,0,1,187,38a1.58,1.58,0,0,1-.13-.75,8.24,8.24,0,0,1,3.19-.65C192.67,36.56,193.5,37.75,193.5,40.09Zm-1.8,2.48V41.9c-.41,0-1.15-.1-1.83-.1-1.26,0-1.89.46-1.89,1.65s.59,1.64,1.56,1.64A2.24,2.24,0,0,0,191.7,42.57Z"/><path class="cls-2" d="M203.85,41.49c0,3.67-1.35,4.92-3.44,4.92a2.92,2.92,0,0,1-2.61-1.21v.92a2.87,2.87,0,0,1-.9.11,3,3,0,0,1-.9-.11V32.83a3,3,0,0,1,.9-.11,2.87,2.87,0,0,1,.9.11v5a2.91,2.91,0,0,1,2.61-1.22C202.5,36.56,203.85,37.8,203.85,41.49Zm-1.89,0c0-2.65-.68-3.47-2.16-3.47a2.09,2.09,0,0,0-2,2.28v2.32a2.1,2.1,0,0,0,2,2.33C201.28,45,202,44.12,202,41.49Z"/><path class="cls-2" d="M206,34.77V33.15a3.43,3.43,0,0,1,1-.1,3.93,3.93,0,0,1,1,.1v1.62a3.59,3.59,0,0,1-1,.11A3.13,3.13,0,0,1,206,34.77Zm.05,11.35V36.84a2.89,2.89,0,0,1,.9-.1,3.14,3.14,0,0,1,.9.1v9.28a2.87,2.87,0,0,1-.9.11A2.8,2.8,0,0,1,206.06,46.12Z"/><path class="cls-2" d="M217.35,42h-5.42c.15,2.14,1,2.85,2.51,2.85a4.09,4.09,0,0,0,2.1-.55,1.89,1.89,0,0,1,.6,1.28,5.19,5.19,0,0,1-3,.8c-2.7,0-4-1.66-4-5s1.58-4.89,4-4.89c2.25,0,3.49,1.26,3.49,3.58A8.17,8.17,0,0,1,217.35,42Zm-5.44-1.22h3.91a5.39,5.39,0,0,0,.06-.87c0-1.1-.49-2-1.8-2S212.06,38.75,211.91,40.81Z"/><path class="cls-2" d="M227.41,38l-1.47,0a3.38,3.38,0,0,1,.48,1.84c0,2-1.22,3.22-3.56,3.22a6.77,6.77,0,0,1-.81,0,1.6,1.6,0,0,0-.38,1.1c.18,1.67,5.73-.13,5.73,3.58,0,1.76-1.68,3.1-4.67,3.1-2.68,0-3.87-1-3.87-2.52a3.08,3.08,0,0,1,1.59-2.51,1.39,1.39,0,0,1-.4-1.06,3.11,3.11,0,0,1,.9-2,2.91,2.91,0,0,1-1.66-2.86c0-2,1.26-3.22,3.57-3.22a4.35,4.35,0,0,1,2,.45l2.52-.43A2.1,2.1,0,0,1,227.41,38Zm-6,8.23a2.19,2.19,0,0,0-.85,1.64c0,.95.68,1.6,2.18,1.6,1.87,0,2.9-.65,2.9-1.62C225.67,46.26,223.09,46.68,221.44,46.21Zm3.24-6.45c0-1.35-.72-2-1.82-2a1.73,1.73,0,0,0-1.82,2c0,1.39.74,2,1.82,2S224.68,41.15,224.68,39.76Z"/><path class="cls-2" d="M236,40.09v6a2,2,0,0,1-.74.11,2.13,2.13,0,0,1-.74-.11l-.25-1.21a2.89,2.89,0,0,1-2.84,1.5c-1.71,0-2.79-1-2.79-3s1.17-2.82,3.47-2.82a18,18,0,0,1,2.09.11V40c0-1.28-.56-1.91-1.91-1.91a7.62,7.62,0,0,0-2.41.43,1.33,1.33,0,0,1-.4-.54,1.65,1.65,0,0,1-.12-.75,8.22,8.22,0,0,1,3.18-.65C235.17,36.56,236,37.75,236,40.09Zm-1.8,2.48V41.9c-.42,0-1.15-.1-1.84-.1-1.26,0-1.89.46-1.89,1.65s.6,1.64,1.57,1.64A2.25,2.25,0,0,0,234.2,42.57Z"/><path class="cls-2" d="M238.1,41.49c0-3.24,1.37-4.93,4-4.93a4.86,4.86,0,0,1,2.41.47,1.74,1.74,0,0,1-.54,1.29,3.8,3.8,0,0,0-1.55-.29c-1.72,0-2.44,1.1-2.44,3.46s.77,3.39,2.52,3.39a4,4,0,0,0,1.65-.33,1.78,1.78,0,0,1,.54,1.28,4.82,4.82,0,0,1-2.59.58C239.47,46.41,238.1,44.73,238.1,41.49Z"/><path class="cls-2" d="M253.91,39.26v6.86a3,3,0,0,1-.9.11,2.8,2.8,0,0,1-.9-.11v-6.5c0-1-.54-1.6-1.67-1.6a2.49,2.49,0,0,0-2.09,1.24v6.86a3,3,0,0,1-.9.11,2.72,2.72,0,0,1-.9-.11V32.83a2.72,2.72,0,0,1,.9-.11,3,3,0,0,1,.9.11v4.92a3.63,3.63,0,0,1,2.79-1.19A2.52,2.52,0,0,1,253.91,39.26Z"/><path class="cls-2" d="M260,41.49c0-3.24,1.37-4.93,4-4.93a4.9,4.9,0,0,1,2.41.47,1.82,1.82,0,0,1-.54,1.29,3.86,3.86,0,0,0-1.55-.29c-1.73,0-2.45,1.1-2.45,3.46s.77,3.39,2.52,3.39a4.08,4.08,0,0,0,1.66-.33,1.86,1.86,0,0,1,.54,1.28,4.87,4.87,0,0,1-2.59.58C261.4,46.41,260,44.73,260,41.49Z"/><path class="cls-2" d="M275.83,39.26v6.86a3,3,0,0,1-.9.11,2.8,2.8,0,0,1-.9-.11v-6.5c0-1-.54-1.6-1.67-1.6a2.51,2.51,0,0,0-2.09,1.24v6.86a3,3,0,0,1-.9.11,2.8,2.8,0,0,1-.9-.11V32.83a2.8,2.8,0,0,1,.9-.11,3,3,0,0,1,.9.11v4.92a3.63,3.63,0,0,1,2.79-1.19A2.52,2.52,0,0,1,275.83,39.26Z"/><path class="cls-2" d="M278.32,34.77V33.15a3.34,3.34,0,0,1,.95-.1,3.79,3.79,0,0,1,1,.1v1.62a3.46,3.46,0,0,1-1,.11A3.06,3.06,0,0,1,278.32,34.77Zm.05,11.35V36.84a2.89,2.89,0,0,1,.9-.1,3.23,3.23,0,0,1,.9.1v9.28a3,3,0,0,1-.9.11A2.8,2.8,0,0,1,278.37,46.12Z"/><path class="cls-2" d="M282.78,46.12V36.84a3.06,3.06,0,0,1,.9-.1,2.48,2.48,0,0,1,.85.1v1.3a2.65,2.65,0,0,1,2.33-1.56,2.71,2.71,0,0,1,1.54.45,2.09,2.09,0,0,1-.79,1.49,1.76,1.76,0,0,0-1.11-.36,2.43,2.43,0,0,0-1.93,1.46v6.5a3,3,0,0,1-.9.11A2.8,2.8,0,0,1,282.78,46.12Z"/><path class="cls-2" d="M297.22,36.84v9.28a2.8,2.8,0,0,1-.9.11,2.87,2.87,0,0,1-.9-.11v-.94a3.62,3.62,0,0,1-2.81,1.23,2.51,2.51,0,0,1-2.76-2.7V36.84a3.23,3.23,0,0,1,.9-.1,3,3,0,0,1,.9.1v6.52c0,1,.54,1.6,1.68,1.6a2.55,2.55,0,0,0,2.09-1.25V36.84a3.14,3.14,0,0,1,.9-.1A3.23,3.23,0,0,1,297.22,36.84Z"/><path class="cls-2" d="M299.77,46.12V36.84a3.06,3.06,0,0,1,.9-.1,2.48,2.48,0,0,1,.85.1v1.3a2.65,2.65,0,0,1,2.33-1.56,2.74,2.74,0,0,1,1.55.45,2.14,2.14,0,0,1-.8,1.49,1.76,1.76,0,0,0-1.11-.36,2.43,2.43,0,0,0-1.93,1.46v6.5a3,3,0,0,1-.9.11A2.8,2.8,0,0,1,299.77,46.12Z"/><path class="cls-2" d="M314.66,38l-1.48,0a3.3,3.3,0,0,1,.49,1.84c0,2-1.23,3.22-3.57,3.22a6.91,6.91,0,0,1-.81,0,1.71,1.71,0,0,0-.38,1.1c.18,1.67,5.73-.13,5.73,3.58,0,1.76-1.67,3.1-4.66,3.1-2.69,0-3.87-1-3.87-2.52a3.08,3.08,0,0,1,1.58-2.51,1.42,1.42,0,0,1-.4-1.06,3.07,3.07,0,0,1,.91-2,2.89,2.89,0,0,1-1.66-2.86c0-2,1.26-3.22,3.56-3.22a4.39,4.39,0,0,1,2,.45l2.52-.43A2.23,2.23,0,0,1,314.66,38Zm-6,8.23a2.22,2.22,0,0,0-.85,1.64c0,.95.69,1.6,2.18,1.6,1.88,0,2.9-.65,2.9-1.62C312.91,46.26,310.34,46.68,308.68,46.21Zm3.24-6.45c0-1.35-.72-2-1.82-2a1.73,1.73,0,0,0-1.82,2c0,1.39.74,2,1.82,2S311.92,41.15,311.92,39.76Z"/><path class="cls-2" d="M316.44,34.77V33.15a3.34,3.34,0,0,1,.95-.1,3.79,3.79,0,0,1,1,.1v1.62a3.46,3.46,0,0,1-1,.11A3.06,3.06,0,0,1,316.44,34.77Zm.05,11.35V36.84a2.89,2.89,0,0,1,.9-.1,3.14,3.14,0,0,1,.9.1v9.28a2.87,2.87,0,0,1-.9.11A2.8,2.8,0,0,1,316.49,46.12Z"/><path class="cls-2" d="M320.51,41.49c0-3.24,1.36-4.93,4-4.93a4.93,4.93,0,0,1,2.42.47,1.82,1.82,0,0,1-.54,1.29,3.86,3.86,0,0,0-1.55-.29c-1.73,0-2.45,1.1-2.45,3.46s.77,3.39,2.52,3.39a4.08,4.08,0,0,0,1.66-.33,1.86,1.86,0,0,1,.54,1.28,4.89,4.89,0,0,1-2.6.58C321.87,46.41,320.51,44.73,320.51,41.49Z"/><path class="cls-2" d="M335.3,45.51a1.92,1.92,0,0,1-.12.72h-6.74a2.46,2.46,0,0,1-.1-.78,2.39,2.39,0,0,1,.1-.68l4.81-6.57h-4.5a2.28,2.28,0,0,1-.11-.74,1.94,1.94,0,0,1,.11-.72h6.41a2.23,2.23,0,0,1,.11.68,3.17,3.17,0,0,1-.11.78l-4.81,6.57h4.83A1.85,1.85,0,0,1,335.3,45.51Z"/><path class="cls-2" d="M337.35,46.12V36.84a3.06,3.06,0,0,1,.9-.1,3.14,3.14,0,0,1,.9.1v.94a3.64,3.64,0,0,1,2.8-1.22,2.52,2.52,0,0,1,2.77,2.7v6.86a3.11,3.11,0,0,1-.9.11,2.8,2.8,0,0,1-.9-.11v-6.5c0-1-.54-1.6-1.68-1.6a2.51,2.51,0,0,0-2.09,1.24v6.86a2.87,2.87,0,0,1-.9.11A2.8,2.8,0,0,1,337.35,46.12Z"/><path class="cls-2" d="M355.12,36.84l-3.56,10.88c-.61,1.91-1.3,3-3.17,3a3.79,3.79,0,0,1-1.19-.17,1.7,1.7,0,0,1-.13-.68,1.51,1.51,0,0,1,.17-.7,4.16,4.16,0,0,0,.82.09c.87,0,1.32-.29,1.84-1.86l.4-1.18a1.53,1.53,0,0,1-.56-.13l-3.44-9.26a3.47,3.47,0,0,1,.94-.1,3.26,3.26,0,0,1,.93.1l2.09,5.51a16,16,0,0,1,.63,2.13H351a20.54,20.54,0,0,1,.57-2.13l1.84-5.51a3,3,0,0,1,.88-.1A3.24,3.24,0,0,1,355.12,36.84Z"/><path class="cls-2" d="M356.38,41.49c0-3.24,1.37-4.93,4-4.93a4.9,4.9,0,0,1,2.41.47,1.82,1.82,0,0,1-.54,1.29A3.8,3.8,0,0,0,360.7,38c-1.73,0-2.45,1.1-2.45,3.46s.78,3.39,2.52,3.39a4.08,4.08,0,0,0,1.66-.33,1.86,1.86,0,0,1,.54,1.28,4.87,4.87,0,0,1-2.59.58C357.75,46.41,356.38,44.73,356.38,41.49Z"/><path class="cls-2" d="M372.19,39.26v6.86a3.11,3.11,0,0,1-.9.11,2.72,2.72,0,0,1-.9-.11v-6.5c0-1-.54-1.6-1.68-1.6a2.51,2.51,0,0,0-2.09,1.24v6.86a2.87,2.87,0,0,1-.9.11,2.8,2.8,0,0,1-.9-.11V32.83a2.8,2.8,0,0,1,.9-.11,2.87,2.87,0,0,1,.9.11v4.92a3.65,3.65,0,0,1,2.79-1.19A2.52,2.52,0,0,1,372.19,39.26Z"/><path class="cls-2" d="M373.94,36.87a10.29,10.29,0,0,1,1.46-5.15,1,1,0,0,1,.43.11.83.83,0,0,1,.33.3,9.84,9.84,0,0,0,0,9.49.69.69,0,0,1-.33.3,1,1,0,0,1-.43.11A10.4,10.4,0,0,1,373.94,36.87Z"/><path class="cls-2" d="M381.34,39.3a1,1,0,0,1,.1.47,1,1,0,0,1-.1.46h-4.29a4.17,4.17,0,0,1-.07-.72c0-1.63,1.06-2.2,2-2.83s1.43-1,1.43-1.75c0-.61-.38-1.09-1.36-1.09a4.81,4.81,0,0,0-1.54.29.82.82,0,0,1-.3-.75,5,5,0,0,1,2-.4c1.3,0,2.3.54,2.3,1.92s-.73,1.75-2,2.5c-.64.39-1.51.74-1.53,1.64a2.28,2.28,0,0,0,0,.26Z"/><path class="cls-2" d="M382.73,41.92a.63.63,0,0,1-.32-.3,9.84,9.84,0,0,0,0-9.49.76.76,0,0,1,.32-.3,1,1,0,0,1,.44-.11,10.34,10.34,0,0,1,1.45,5.15A10.45,10.45,0,0,1,383.17,42,1,1,0,0,1,382.73,41.92Z"/></svg>