<svg id="Warstwa_1" data-name="Warstwa 1" xmlns="http://www.w3.org/2000/svg" viewBox="0 0 750 150"><defs><style>.cls-1{fill:#0056a3;}.cls-2{fill:none;stroke:#ccd513;stroke-miterlimit:10;stroke-width:1.85px;}</style></defs><title>40_ml</title><path class="cls-1" d="M271,44.94a12.45,12.45,0,0,1,4.39-.61,10.56,10.56,0,0,1,4.13.61V81.27h7.66a10.16,10.16,0,0,1,0,6.88h-7.66v14.12a11.4,11.4,0,0,1-4,.6,12.74,12.74,0,0,1-4.22-.6V88.15H244.18a8.92,8.92,0,0,1,0-6.88ZM252.79,81.27H271.3V56.21Z"/><path class="cls-1" d="M295.92,73.6c0-21.17,7.66-30.13,21.35-30.13s21.52,8.7,21.52,30.13-7.83,30.14-21.52,30.14S295.92,95,295.92,73.6Zm9.12,0c0,17.82,4.31,22.82,12.23,22.82,8.09,0,12.22-5,12.22-22.82s-4.13-22.81-12.22-22.81C309.35,50.79,305,55.7,305,73.6Z"/><path class="cls-1" d="M396.47,56.73c8.18,0,12.83,5.25,12.83,13v32.54a12.35,12.35,0,0,1-4.3.6,11.26,11.26,0,0,1-4.31-.6v-31c0-4.82-2.24-7.58-7.49-7.58A10.89,10.89,0,0,0,384,69.21v33.06a12.1,12.1,0,0,1-4.22.6,11.23,11.23,0,0,1-4.3-.6v-31c0-4.82-2.24-7.58-7.49-7.58a11.4,11.4,0,0,0-9.22,5.43v33.14a12.07,12.07,0,0,1-4.21.6,11.26,11.26,0,0,1-4.31-.6V58.19a11.26,11.26,0,0,1,4.31-.6,12.07,12.07,0,0,1,4.21.6v3.88a16.12,16.12,0,0,1,12.4-5.34c5,0,8.87,1.81,11.19,6.28C385.88,58.8,390.53,56.73,396.47,56.73Z"/><path class="cls-1" d="M430.48,102.27a12.45,12.45,0,0,1-4.31.6,11.23,11.23,0,0,1-4.3-.6V38.91a11.23,11.23,0,0,1,4.3-.6,12.45,12.45,0,0,1,4.31.6Z"/><polyline class="cls-2" points="474.34 22.59 509.09 74.04 474.34 125.68"/></svg>