<svg xmlns="http://www.w3.org/2000/svg" xmlns:xlink="http://www.w3.org/1999/xlink" viewBox="0 0 500 110"><defs><style>.cls-1,.cls-5{fill:none;}.cls-2{fill:#fff;}.cls-3{clip-path:url(#clip-path);}.cls-4{fill:url(#Gradient_bez_nazwy_2);}.cls-5{stroke:#fff;stroke-miterlimit:10;}.cls-6{fill:#0056a3;}</style><clipPath id="clip-path"><polygon class="cls-1" points="139.44 73.01 360.56 73.01 360.56 36.88 139.44 36.88 139.44 47.94 144.25 55.37 139.44 62.64 139.44 73.01"/></clipPath><linearGradient id="Gradient_bez_nazwy_2" x1="-961.81" y1="353.73" x2="-961.21" y2="353.73" gradientTransform="matrix(372.44, 0, 0, -372.44, 358349.88, 131795.13)" gradientUnits="userSpaceOnUse"><stop offset="0" stop-color="#ccd513"/><stop offset="0.01" stop-color="#ccd513"/><stop offset="0.01" stop-color="#ccd513"/><stop offset="0.39" stop-color="#ccd515"/><stop offset="0.52" stop-color="#ced71c"/><stop offset="0.62" stop-color="#d0d927"/><stop offset="0.69" stop-color="#d4dc38"/><stop offset="0.76" stop-color="#d9e04e"/><stop offset="0.82" stop-color="#dfe46a"/><stop offset="0.87" stop-color="#e6ea8a"/><stop offset="0.92" stop-color="#eef1b0"/><stop offset="0.97" stop-color="#f7f8d9"/><stop offset="1" stop-color="#fff"/></linearGradient></defs><title>antyseptyka_w_chirurgii</title><g id="Warstwa_2" data-name="Warstwa 2"><rect class="cls-2" width="500" height="110"/></g><g id="Warstwa_1" data-name="Warstwa 1"><g class="cls-3"><rect class="cls-4" x="139.44" y="36.77" width="221.11" height="36.13"/></g><polyline class="cls-5" points="140.84 36.89 140.84 47.58 140.84 47.47 145.91 55.23 140.84 63.02 140.84 73.12"/><path class="cls-6" d="M153.61,48a1.46,1.46,0,0,1,.42,0l1.76,4.94a1.19,1.19,0,0,1-.39.05,1,1,0,0,1-.35-.05l-.43-1.23h-2.07l-.45,1.23a.9.9,0,0,1-.34.05.87.87,0,0,1-.33-.05L153.19,48A1.73,1.73,0,0,1,153.61,48Zm0,.78s-.07.27-.19.63l-.64,1.77h1.67l-.64-1.77a4.9,4.9,0,0,1-.18-.63Z"/><path class="cls-6" d="M159,52.94a.93.93,0,0,1-.35.05,1,1,0,0,1-.35-.05V50.42c0-.39-.2-.62-.65-.62a1,1,0,0,0-.79.45v2.69a1,1,0,0,1-.35.05.93.93,0,0,1-.35-.05V49.36a.93.93,0,0,1,.35,0,1,1,0,0,1,.35,0v.32a1.35,1.35,0,0,1,1.06-.44,1,1,0,0,1,1.08,1Z"/><path class="cls-6" d="M160.67,51.67c0,.63.21.82.7.82a1.92,1.92,0,0,0,.3,0,.83.83,0,0,1,.05.29.67.67,0,0,1,0,.25,2.2,2.2,0,0,1-.5.06c-.86,0-1.21-.47-1.21-1.36V49.83h-.54a.76.76,0,0,1,0-.26.7.7,0,0,1,0-.26H160v-.64a1.23,1.23,0,0,1,.7-.14v.78h.91a.57.57,0,0,1,0,.26.63.63,0,0,1,0,.26h-.91Z"/><path class="cls-6" d="M163.8,53.53c-.26.77-.5,1.21-1.26,1.21a1,1,0,0,1-.38-.07.83.83,0,0,1,0-.26,1,1,0,0,1,0-.28,2,2,0,0,0,.32,0c.31,0,.48-.08.69-.74l.14-.43a.63.63,0,0,1-.22-.05l-1.33-3.58a1.09,1.09,0,0,1,.36,0,1.13,1.13,0,0,1,.37,0l.79,2.12a6.64,6.64,0,0,1,.25.82h0s.07-.33.22-.81l.69-2.13a1,1,0,0,1,.35,0,1,1,0,0,1,.33,0Z"/><path class="cls-6" d="M166.71,49.24a2,2,0,0,1,1,.19.69.69,0,0,1-.18.49,2.57,2.57,0,0,0-.73-.11c-.48,0-.72.18-.72.5s.44.43.89.58.93.36.93,1-.44,1.12-1.33,1.12a2.49,2.49,0,0,1-1.17-.25.69.69,0,0,1,.19-.52,3,3,0,0,0,.94.17c.43,0,.67-.16.67-.5s-.38-.47-.79-.59-1-.34-1-1S165.82,49.24,166.71,49.24Z"/><path class="cls-6" d="M169,51.37c.06.83.4,1.09,1,1.09a1.66,1.66,0,0,0,.82-.2.72.72,0,0,1,.23.51,2.09,2.09,0,0,1-1.16.29c-1.08,0-1.59-.66-1.59-1.93s.63-1.89,1.56-1.89a1.26,1.26,0,0,1,1.39,1.4,3,3,0,0,1-.08.73Zm.84-1.58c-.46,0-.78.3-.84,1.08h1.5a1.8,1.8,0,0,0,0-.32C170.5,50.14,170.33,49.79,169.81,49.79Z"/><path class="cls-6" d="M173.46,49.24c.8,0,1.32.48,1.32,1.91s-.52,1.91-1.32,1.91a1.13,1.13,0,0,1-1-.46v2a1.14,1.14,0,0,1-.35,0,1.22,1.22,0,0,1-.35,0V49.36a1,1,0,0,1,.35,0,.93.93,0,0,1,.35,0v.33A1.13,1.13,0,0,1,173.46,49.24Zm-.24.57a.8.8,0,0,0-.77.88v.9a.81.81,0,0,0,.77.9c.56,0,.84-.3.84-1.34S173.78,49.81,173.22,49.81Z"/><path class="cls-6" d="M176.33,51.67c0,.63.21.82.7.82a1.92,1.92,0,0,0,.3,0,.83.83,0,0,1,0,.29.67.67,0,0,1,0,.25,2.28,2.28,0,0,1-.5.06c-.87,0-1.21-.47-1.21-1.36V49.83h-.54a.76.76,0,0,1,0-.26.7.7,0,0,1,0-.26h.54v-.64a1.21,1.21,0,0,1,.7-.14v.78h.91a.7.7,0,0,1,0,.26.76.76,0,0,1,0,.26h-.91Z"/><path class="cls-6" d="M179.45,53.53c-.25.77-.49,1.21-1.25,1.21a1,1,0,0,1-.38-.07.83.83,0,0,1,0-.26,1,1,0,0,1,0-.28,2,2,0,0,0,.32,0c.31,0,.47-.08.68-.74L179,53a.59.59,0,0,1-.22-.05l-1.33-3.58a1.09,1.09,0,0,1,.36,0,1,1,0,0,1,.36,0l.8,2.12a6.64,6.64,0,0,1,.25.82h0s.07-.33.22-.81l.69-2.13a1,1,0,0,1,.35,0,1,1,0,0,1,.33,0Z"/><path class="cls-6" d="M183.26,49.36a1.17,1.17,0,0,1,.36,0,1.36,1.36,0,0,1,.34,0L182.89,51l1.23,1.92a1.14,1.14,0,0,1-.39.06,1,1,0,0,1-.38-.06l-1-1.61h-.39v1.61a1.11,1.11,0,0,1-.34.05,1.09,1.09,0,0,1-.36-.05V47.77a1.89,1.89,0,0,1,.36,0,1.93,1.93,0,0,1,.34,0v3h.4Z"/><path class="cls-6" d="M185.73,49.24c1,0,1.34.45,1.34,1.35v2.35a.55.55,0,0,1-.27.05.68.68,0,0,1-.28-.05l-.11-.45a1.12,1.12,0,0,1-1.1.57c-.66,0-1.08-.38-1.08-1.17s.47-1.1,1.34-1.1a7.8,7.8,0,0,1,.8,0v-.26c0-.47-.18-.75-.72-.75a2.86,2.86,0,0,0-.94.18.53.53,0,0,1-.16-.21.63.63,0,0,1,0-.29A3,3,0,0,1,185.73,49.24Zm-.07,2c-.47,0-.71.18-.71.62s.23.63.61.63c.55,0,.81-.47.81-1v-.24C186.21,51.3,185.93,51.27,185.66,51.27Z"/><path class="cls-6" d="M191.61,51a5.49,5.49,0,0,1-.19-1h0a4.93,4.93,0,0,1-.2,1l-.55,1.9a1.25,1.25,0,0,1-.4.05,1.32,1.32,0,0,1-.41-.05l-1.06-3.58a1.06,1.06,0,0,1,.35,0c.24,0,.3,0,.3,0l.67,2.23a4.42,4.42,0,0,1,.15.69h0a6,6,0,0,1,.15-.69l.65-2.23a1.4,1.4,0,0,1,.38,0,.9.9,0,0,1,.34,0l.62,2.22a3.5,3.5,0,0,1,.14.7h0a6.6,6.6,0,0,1,.18-.7l.66-2.22a.79.79,0,0,1,.3,0,.7.7,0,0,1,.31,0L193,52.94a1.29,1.29,0,0,1-.4.05,1.4,1.4,0,0,1-.41-.05Z"/><path class="cls-6" d="M196.32,51.15c0,.92.29,1.31,1,1.31a1.91,1.91,0,0,0,.66-.11.68.68,0,0,1,.2.5,1.85,1.85,0,0,1-1,.21c-1,0-1.54-.66-1.54-1.91s.51-1.91,1.54-1.91a1.84,1.84,0,0,1,.93.17.71.71,0,0,1-.2.51,1.59,1.59,0,0,0-.61-.11C196.58,49.81,196.32,50.24,196.32,51.15Z"/><path class="cls-6" d="M201.47,52.94a1,1,0,0,1-.35.05.93.93,0,0,1-.35-.05V50.42c0-.39-.2-.62-.65-.62a1,1,0,0,0-.79.45v2.69A1.06,1.06,0,0,1,199,53a.87.87,0,0,1-.35-.05V47.79a.87.87,0,0,1,.35,0,1.06,1.06,0,0,1,.35,0v1.89a1.33,1.33,0,0,1,1-.44,1,1,0,0,1,1.09,1Z"/><path class="cls-6" d="M202.94,48.6a1.13,1.13,0,0,1-.37,0,1,1,0,0,1-.36,0v-.66a1,1,0,0,1,.36,0,1.13,1.13,0,0,1,.37,0Zm0,4.34a1,1,0,0,1-.35.05.93.93,0,0,1-.35-.05V49.36a.93.93,0,0,1,.35,0,1,1,0,0,1,.35,0Z"/><path class="cls-6" d="M205.26,49.24a1.13,1.13,0,0,1,.61.18.84.84,0,0,1-.31.59.73.73,0,0,0-.44-.15.91.91,0,0,0-.72.53v2.55a1,1,0,0,1-.35.05.93.93,0,0,1-.35-.05V49.36a.93.93,0,0,1,.35,0,1,1,0,0,1,.35,0v.48A1,1,0,0,1,205.26,49.24Z"/><path class="cls-6" d="M206.17,49.36a1,1,0,0,1,.35,0,.93.93,0,0,1,.35,0v2.52c0,.39.21.61.65.61a.93.93,0,0,0,.79-.45V49.36a1.09,1.09,0,0,1,.36,0,.93.93,0,0,1,.35,0v3.58a.93.93,0,0,1-.35.05,1.09,1.09,0,0,1-.36-.05v-.32a1.34,1.34,0,0,1-1.05.44A1,1,0,0,1,206.17,52Z"/><path class="cls-6" d="M211.33,49.24a1.08,1.08,0,0,1,.61.18.81.81,0,0,1-.31.59.68.68,0,0,0-.43-.15.91.91,0,0,0-.72.53v2.55a1,1,0,0,1-.35.05.87.87,0,0,1-.35-.05V49.36a.87.87,0,0,1,.35,0,1,1,0,0,1,.35,0v.48A1,1,0,0,1,211.33,49.24Z"/><path class="cls-6" d="M215.27,49.24a.86.86,0,0,1,0,.55l-.58,0a1.31,1.31,0,0,1,.19.74,1.2,1.2,0,0,1-1.37,1.26l-.31,0a.55.55,0,0,0-.13.4c.07.65,2.19,0,2.19,1.4,0,.69-.67,1.2-1.8,1.2s-1.49-.41-1.49-1a1.19,1.19,0,0,1,.62-1,.54.54,0,0,1-.15-.4,1.27,1.27,0,0,1,.33-.78,1.14,1.14,0,0,1-.63-1.12c0-.79.47-1.26,1.37-1.26a1.67,1.67,0,0,1,.78.16ZM213,53a.83.83,0,0,0-.32.64c0,.35.26.61.83.61.72,0,1.11-.26,1.11-.63C214.59,53,213.6,53.19,213,53Zm.54-3.26a.77.77,0,0,0,0,1.53c.42,0,.7-.24.7-.76S213.93,49.73,213.51,49.73Z"/><path class="cls-6" d="M216.46,48.6a1,1,0,0,1-.36,0,1.05,1.05,0,0,1-.37,0v-.66a1.05,1.05,0,0,1,.37,0,1,1,0,0,1,.36,0Zm0,4.34a1,1,0,0,1-.35.05.87.87,0,0,1-.35-.05V49.36a.87.87,0,0,1,.35,0,1,1,0,0,1,.35,0Z"/><path class="cls-6" d="M218,48.6a1,1,0,0,1-.36,0,1,1,0,0,1-.36,0v-.66a1,1,0,0,1,.36,0,1,1,0,0,1,.36,0Zm0,4.34a1,1,0,0,1-.35.05.87.87,0,0,1-.35-.05V49.36a.87.87,0,0,1,.35,0,1,1,0,0,1,.35,0Z"/><path class="cls-6" d="M220.76,48.6a1.09,1.09,0,0,1-.36,0,1,1,0,0,1-.37,0v-.66a1,1,0,0,1,.37,0,1.09,1.09,0,0,1,.36,0Zm0,4.34a1,1,0,0,1-.35.05.87.87,0,0,1-.35-.05V49.36a.87.87,0,0,1,.35,0,1,1,0,0,1,.35,0Z"/><path class="cls-6" d="M225.28,49.24a1,1,0,0,1,1.05,1v2.65A1,1,0,0,1,226,53a.87.87,0,0,1-.35-.05V50.42a.54.54,0,0,0-.61-.62.89.89,0,0,0-.75.45v2.69a1,1,0,0,1-.34.05.87.87,0,0,1-.35-.05V50.42a.55.55,0,0,0-.61-.62.93.93,0,0,0-.75.44v2.7a1,1,0,0,1-.35.05.93.93,0,0,1-.35-.05V49.36a.93.93,0,0,1,.35,0,1,1,0,0,1,.35,0v.31a1.29,1.29,0,0,1,1-.43.94.94,0,0,1,.92.51A1.37,1.37,0,0,1,225.28,49.24Z"/><path class="cls-6" d="M228.78,49.24c.79,0,1.31.48,1.31,1.91s-.52,1.91-1.31,1.91a1.11,1.11,0,0,1-1-.46v2a1.26,1.26,0,0,1-.36,0,1.1,1.1,0,0,1-.34,0V49.36a.9.9,0,0,1,.34,0,1,1,0,0,1,.36,0v.33A1.1,1.1,0,0,1,228.78,49.24Zm-.25.57a.79.79,0,0,0-.76.88v.9a.8.8,0,0,0,.76.9c.56,0,.84-.3.84-1.34S229.09,49.81,228.53,49.81Z"/><path class="cls-6" d="M231.43,52.94a1,1,0,0,1-.35.05.87.87,0,0,1-.35-.05V47.79a.87.87,0,0,1,.35,0,1,1,0,0,1,.35,0Z"/><path class="cls-6" d="M233.49,49.24c1,0,1.33.45,1.33,1.35v2.35a.5.5,0,0,1-.27.05.73.73,0,0,1-.28-.05l-.1-.45a1.14,1.14,0,0,1-1.1.57A1,1,0,0,1,232,51.89c0-.76.47-1.1,1.35-1.1a7.74,7.74,0,0,1,.79,0v-.26c0-.47-.18-.75-.72-.75a2.86,2.86,0,0,0-.94.18.65.65,0,0,1-.16-.21.63.63,0,0,1,0-.29A3.07,3.07,0,0,1,233.49,49.24Zm-.07,2c-.47,0-.72.18-.72.62s.23.63.61.63c.55,0,.81-.47.81-1v-.24C234,51.3,233.68,51.27,233.42,51.27Z"/><path class="cls-6" d="M238.4,52.94a1,1,0,0,1-.35.05.93.93,0,0,1-.35-.05V50.42c0-.39-.2-.62-.65-.62a1,1,0,0,0-.79.45v2.69a1.06,1.06,0,0,1-.35.05.87.87,0,0,1-.35-.05V49.36a.87.87,0,0,1,.35,0,1.06,1.06,0,0,1,.35,0v.32a1.34,1.34,0,0,1,1.06-.44,1,1,0,0,1,1.08,1Z"/><path class="cls-6" d="M240.08,51.67c0,.63.2.82.7.82a1.72,1.72,0,0,0,.29,0,.83.83,0,0,1,.05.29.87.87,0,0,1,0,.25,2.38,2.38,0,0,1-.51.06c-.86,0-1.2-.47-1.2-1.36V49.83h-.54a.76.76,0,0,1,0-.26.7.7,0,0,1,0-.26h.54v-.64a1.21,1.21,0,0,1,.7-.14v.78H241a.7.7,0,0,1,0,.26.76.76,0,0,1,0,.26h-.91Z"/><path class="cls-6" d="M242.93,49.24c1,0,1.55.52,1.55,1.91s-.59,1.91-1.55,1.91-1.55-.52-1.55-1.91S242,49.24,242.93,49.24Zm0,.54c-.51,0-.84.29-.84,1.37s.33,1.37.84,1.37.83-.29.83-1.37S243.44,49.78,242.93,49.78Z"/><path class="cls-6" d="M245.81,52.94a1,1,0,0,1-.35.05.87.87,0,0,1-.35-.05V47.79a.87.87,0,0,1,.35,0,1,1,0,0,1,.35,0Z"/><path class="cls-6" d="M248,49.24c1,0,1.56.52,1.56,1.91s-.6,1.91-1.56,1.91-1.55-.52-1.55-1.91S247,49.24,248,49.24Zm0,.54c-.51,0-.84.29-.84,1.37s.33,1.37.84,1.37.84-.29.84-1.37S248.49,49.78,248,49.78Z"/><path class="cls-6" d="M253.13,49.24a.86.86,0,0,1,0,.55l-.58,0a1.31,1.31,0,0,1,.19.74,1.2,1.2,0,0,1-1.37,1.26l-.31,0a.66.66,0,0,0-.13.4c.08.65,2.19,0,2.19,1.4,0,.69-.66,1.2-1.8,1.2s-1.49-.41-1.49-1a1.19,1.19,0,0,1,.62-1,.58.58,0,0,1-.15-.4,1.22,1.22,0,0,1,.34-.78A1.15,1.15,0,0,1,250,50.5c0-.79.47-1.26,1.37-1.26a1.61,1.61,0,0,1,.78.16ZM250.83,53a.87.87,0,0,0-.32.64c0,.35.26.61.83.61.72,0,1.12-.26,1.12-.63C252.46,53,251.46,53.19,250.83,53Zm.54-3.26a.77.77,0,0,0,0,1.53c.42,0,.7-.24.7-.76S251.79,49.73,251.37,49.73Z"/><path class="cls-6" d="M254.32,48.6a1,1,0,0,1-.36,0,1,1,0,0,1-.36,0v-.66a1,1,0,0,1,.36,0,1,1,0,0,1,.36,0Zm0,4.34A1,1,0,0,1,254,53a.93.93,0,0,1-.35-.05V49.36a.93.93,0,0,1,.35,0,1,1,0,0,1,.35,0Z"/><path class="cls-6" d="M255.65,51.15c0,.92.29,1.31,1,1.31a1.91,1.91,0,0,0,.66-.11.72.72,0,0,1,.21.5,1.92,1.92,0,0,1-1,.21c-1,0-1.54-.66-1.54-1.91s.51-1.91,1.54-1.91a1.91,1.91,0,0,1,.94.17.72.72,0,0,1-.21.51,1.59,1.59,0,0,0-.61-.11C255.91,49.81,255.65,50.24,255.65,51.15Z"/><path class="cls-6" d="M260.35,52.42a.75.75,0,0,1,0,.28.93.93,0,0,1,0,.29h-2.59a.9.9,0,0,1-.05-.3.68.68,0,0,1,.05-.27l1.86-2.54h-1.75a1,1,0,0,1,0-.29.75.75,0,0,1,0-.28h2.48a.67.67,0,0,1,0,.27.91.91,0,0,1,0,.3l-1.85,2.54Z"/><path class="cls-6" d="M263.81,52.94a1,1,0,0,1-.35.05.93.93,0,0,1-.35-.05V50.42c0-.39-.2-.62-.65-.62a1,1,0,0,0-.79.45v2.69a1.06,1.06,0,0,1-.35.05.87.87,0,0,1-.35-.05V49.36a.87.87,0,0,1,.35,0,1.06,1.06,0,0,1,.35,0v.32a1.34,1.34,0,0,1,1.06-.44,1,1,0,0,1,1.08,1Z"/><path class="cls-6" d="M265.11,51.37c.06.83.39,1.09,1,1.09a1.71,1.71,0,0,0,.82-.2.72.72,0,0,1,.23.51,2.1,2.1,0,0,1-1.17.29c-1.08,0-1.58-.66-1.58-1.93s.62-1.89,1.56-1.89a1.25,1.25,0,0,1,1.38,1.4,3.42,3.42,0,0,1-.07.73Zm.84-1.58c-.46,0-.78.3-.84,1.08h1.5a2.1,2.1,0,0,0,0-.32C266.63,50.14,266.46,49.79,266,49.79Z"/><path class="cls-6" d="M267.9,49.36a1.25,1.25,0,0,1,.7,0v4.25c0,.74-.35,1.13-1,1.13a1.63,1.63,0,0,1-.47-.06.65.65,0,0,1,0-.16.72.72,0,0,1,.07-.36,1.09,1.09,0,0,0,.26,0c.31,0,.47-.17.47-.56Zm.72-.77a1.13,1.13,0,0,1-.37,0,1,1,0,0,1-.36,0v-.66a1,1,0,0,1,.36,0,1.13,1.13,0,0,1,.37,0Z"/><path class="cls-6" d="M273.09,52.42a.75.75,0,0,1,0,.28.93.93,0,0,1,0,.29h-2.6a1.28,1.28,0,0,1,0-.3,1,1,0,0,1,0-.27l1.87-2.54h-1.75a1,1,0,0,1,0-.29.75.75,0,0,1,0-.28h2.48a.67.67,0,0,1,0,.27.91.91,0,0,1,0,.3l-1.85,2.54Z"/><path class="cls-6" d="M275,49.24c1,0,1.34.45,1.34,1.35v2.35a.55.55,0,0,1-.27.05.68.68,0,0,1-.28-.05l-.11-.45a1.13,1.13,0,0,1-1.1.57c-.66,0-1.08-.38-1.08-1.17s.46-1.1,1.34-1.1a7.8,7.8,0,0,1,.8,0v-.26c0-.47-.18-.75-.72-.75A2.86,2.86,0,0,0,274,50a.53.53,0,0,1-.16-.21.5.5,0,0,1,0-.29A3,3,0,0,1,275,49.24Zm-.07,2c-.47,0-.71.18-.71.62s.23.63.61.63c.55,0,.81-.47.81-1v-.24C275.46,51.3,275.18,51.27,274.91,51.27Z"/><path class="cls-6" d="M278.76,49.24c.8,0,1.32.48,1.32,1.91s-.52,1.91-1.32,1.91a1.12,1.12,0,0,1-1-.46v2a1.14,1.14,0,0,1-.35,0,1.22,1.22,0,0,1-.35,0V49.36a1,1,0,0,1,.35,0,.93.93,0,0,1,.35,0v.33A1.12,1.12,0,0,1,278.76,49.24Zm-.24.57a.8.8,0,0,0-.77.88v.9a.81.81,0,0,0,.77.9c.56,0,.84-.3.84-1.34S279.08,49.81,278.52,49.81Z"/><path class="cls-6" d="M281.25,51.37c.06.83.4,1.09,1,1.09a1.71,1.71,0,0,0,.82-.2.72.72,0,0,1,.23.51,2.1,2.1,0,0,1-1.17.29c-1.07,0-1.58-.66-1.58-1.93s.63-1.89,1.56-1.89a1.25,1.25,0,0,1,1.38,1.4,3.42,3.42,0,0,1-.07.73Zm.84-1.58c-.46,0-.78.3-.84,1.08h1.5a2.1,2.1,0,0,0,0-.32C282.77,50.14,282.6,49.79,282.09,49.79Z"/><path class="cls-6" d="M286.53,51a4.17,4.17,0,0,1-.19-1h0a4.93,4.93,0,0,1-.2,1l-.55,1.9a1.22,1.22,0,0,1-.4.05,1.32,1.32,0,0,1-.41-.05l-1.05-3.58a1,1,0,0,1,.35,0,.57.57,0,0,1,.3,0l.66,2.23a4.42,4.42,0,0,1,.15.69h0a4.74,4.74,0,0,1,.16-.69l.64-2.23a1.5,1.5,0,0,1,.38,0,.9.9,0,0,1,.34,0l.62,2.22a2.9,2.9,0,0,1,.14.7h0a6.6,6.6,0,0,1,.18-.7l.66-2.22a.81.81,0,0,1,.31,0,.67.67,0,0,1,.3,0l-1.06,3.58a1.29,1.29,0,0,1-.4.05,1.4,1.4,0,0,1-.41-.05Z"/><path class="cls-6" d="M292.2,52.94a1,1,0,0,1-.35.05.93.93,0,0,1-.35-.05V50.42c0-.39-.21-.62-.66-.62a1,1,0,0,0-.79.45v2.69a1,1,0,0,1-.35.05.93.93,0,0,1-.35-.05V49.36a.93.93,0,0,1,.35,0,1,1,0,0,1,.35,0v.32a1.35,1.35,0,0,1,1.06-.44,1,1,0,0,1,1.09,1Z"/><path class="cls-6" d="M293.66,48.6a1,1,0,0,1-.36,0,1,1,0,0,1-.36,0v-.66a1,1,0,0,1,.36,0,1,1,0,0,1,.36,0Zm0,4.34a1,1,0,0,1-.35.05.87.87,0,0,1-.35-.05V49.36a.87.87,0,0,1,.35,0,1,1,0,0,1,.35,0Z"/><path class="cls-6" d="M295.7,49.24c1,0,1.34.45,1.34,1.35v2.35a.55.55,0,0,1-.27.05.68.68,0,0,1-.28-.05l-.11-.45a1.13,1.13,0,0,1-1.1.57c-.66,0-1.08-.38-1.08-1.17s.47-1.1,1.34-1.1a7.8,7.8,0,0,1,.8,0v-.26c0-.47-.18-.75-.72-.75a2.86,2.86,0,0,0-.94.18.53.53,0,0,1-.16-.21.63.63,0,0,1,0-.29A3,3,0,0,1,295.7,49.24Zm-.07,2c-.47,0-.71.18-.71.62s.23.63.61.63c.55,0,.81-.47.81-1v-.24C296.18,51.3,295.9,51.27,295.63,51.27Z"/><path class="cls-6" d="M154.68,61.34a1,1,0,0,1-.35,0,1,1,0,0,1-.36,0V58.82c0-.39-.2-.62-.65-.62a1,1,0,0,0-.79.45v2.69a1,1,0,0,1-.35,0,.93.93,0,0,1-.35,0V57.76a.93.93,0,0,1,.35,0,1,1,0,0,1,.35,0v.32a1.35,1.35,0,0,1,1.06-.44,1,1,0,0,1,1.09,1Z"/><path class="cls-6" d="M156.14,57a1,1,0,0,1-.36,0,1,1,0,0,1-.36,0v-.66a1,1,0,0,1,.36-.05,1,1,0,0,1,.36.05Zm0,4.34a1,1,0,0,1-.35,0,.87.87,0,0,1-.35,0V57.76a.87.87,0,0,1,.35,0,1,1,0,0,1,.35,0Z"/><path class="cls-6" d="M158.06,57.64a2,2,0,0,1,1,.19.69.69,0,0,1-.18.49,2.69,2.69,0,0,0-.74-.11c-.47,0-.71.18-.71.51s.44.42.88.57.93.36.93,1.05-.44,1.12-1.33,1.12a2.54,2.54,0,0,1-1.17-.25.75.75,0,0,1,.19-.52,3,3,0,0,0,1,.18c.42,0,.67-.17.67-.51s-.39-.47-.8-.59-1-.34-1-1S157.17,57.64,158.06,57.64Z"/><path class="cls-6" d="M161.82,57.76a1.17,1.17,0,0,1,.36,0,1.46,1.46,0,0,1,.34,0l-1.08,1.67,1.24,1.92a1.14,1.14,0,0,1-.39.06,1,1,0,0,1-.38-.06l-1-1.61h-.39v1.61a1.11,1.11,0,0,1-.34,0,1.09,1.09,0,0,1-.36,0V56.17a1.89,1.89,0,0,1,.36,0,1.93,1.93,0,0,1,.34,0v3h.4Z"/><path class="cls-6" d="M164.29,57.64c1,0,1.34.45,1.34,1.36v2.35c-.44.12-.69.4-.69.68s.09.31.36.31a.74.74,0,0,0,.25-.05.45.45,0,0,1,.11.31,1,1,0,0,1-.48.13c-.46,0-.74-.24-.74-.6a1,1,0,0,1,.64-.81l-.11-.43a1.13,1.13,0,0,1-1.1.57,1,1,0,0,1-1.08-1.17c0-.75.47-1.1,1.34-1.1a7.8,7.8,0,0,1,.8,0V59c0-.5-.18-.73-.72-.73a3,3,0,0,0-.94.17.53.53,0,0,1-.16-.21.63.63,0,0,1,0-.29A3,3,0,0,1,164.29,57.64Zm-.07,2c-.47,0-.71.19-.71.62a.55.55,0,0,0,.61.63.86.86,0,0,0,.81-1v-.24C164.77,59.7,164.49,59.67,164.22,59.67Z"/><path class="cls-6" d="M169.23,57.64a1.08,1.08,0,0,1,.61.18.83.83,0,0,1-.3.59.73.73,0,0,0-.44-.15.91.91,0,0,0-.72.53v2.55a1,1,0,0,1-.35,0,.87.87,0,0,1-.35,0V57.76a.87.87,0,0,1,.35,0,1,1,0,0,1,.35,0v.48A1,1,0,0,1,169.23,57.64Z"/><path class="cls-6" d="M170.74,59.77c.06.83.39,1.1,1,1.1a1.67,1.67,0,0,0,.83-.21.67.67,0,0,1,.22.51,2.09,2.09,0,0,1-1.16.29c-1.08,0-1.58-.67-1.58-1.93s.62-1.89,1.55-1.89A1.26,1.26,0,0,1,173,59a2.92,2.92,0,0,1-.08.73Zm.83-1.58c-.45,0-.77.3-.83,1.08h1.5c0-.06,0-.17,0-.32C172.26,58.54,172.09,58.19,171.57,58.19Z"/><path class="cls-6" d="M174.46,60.07c0,.63.2.82.7.82l.29,0a.73.73,0,0,1,.05.28.67.67,0,0,1,0,.25,2.2,2.2,0,0,1-.5.06c-.86,0-1.2-.47-1.2-1.36V58.23h-.54a.63.63,0,0,1-.05-.26.57.57,0,0,1,.05-.26h.54v-.64a1.21,1.21,0,0,1,.7-.14v.78h.91a.7.7,0,0,1,0,.26.76.76,0,0,1,0,.26h-.91Z"/><path class="cls-6" d="M176.47,59.77c.06.83.39,1.1,1,1.1a1.65,1.65,0,0,0,.82-.21.72.72,0,0,1,.23.51,2.1,2.1,0,0,1-1.17.29c-1.07,0-1.58-.67-1.58-1.93s.62-1.89,1.56-1.89a1.25,1.25,0,0,1,1.38,1.4,3.31,3.31,0,0,1-.07.73Zm.84-1.58c-.46,0-.78.3-.84,1.08H178a2.1,2.1,0,0,0,0-.32C178,58.54,177.82,58.19,177.31,58.19Z"/><path class="cls-6" d="M182.09,61.34a1.25,1.25,0,0,1-.7,0V58.82c0-.39-.2-.62-.65-.62a1,1,0,0,0-.79.45v2.69a1,1,0,0,1-.35,0,.93.93,0,0,1-.35,0V57.76a.93.93,0,0,1,.35,0,1,1,0,0,1,.35,0v.32a1.35,1.35,0,0,1,1.06-.44,1,1,0,0,1,1.08,1Z"/><path class="cls-6" d="M183.39,59.55c0,.92.3,1.32,1,1.32a1.77,1.77,0,0,0,.66-.12.68.68,0,0,1,.2.5,1.87,1.87,0,0,1-1,.21c-1,0-1.54-.67-1.54-1.91s.52-1.91,1.54-1.91a1.86,1.86,0,0,1,.94.17.71.71,0,0,1-.2.51,1.68,1.68,0,0,0-.62-.11C183.66,58.21,183.39,58.64,183.39,59.55Z"/><path class="cls-6" d="M185.72,57.76a.87.87,0,0,1,.35,0,1,1,0,0,1,.35,0V62c0,.74-.36,1.13-1,1.13a1.63,1.63,0,0,1-.47-.06.65.65,0,0,1,0-.16.72.72,0,0,1,.07-.36,1.2,1.2,0,0,0,.26,0c.32,0,.48-.17.48-.55Zm.71-.77a1,1,0,0,1-.36,0,1,1,0,0,1-.36,0v-.66a1.17,1.17,0,0,1,.36,0,1.26,1.26,0,0,1,.36,0Z"/><path class="cls-6" d="M188.59,57.64A1.26,1.26,0,0,1,190,59a2.92,2.92,0,0,1-.08.73h-2.14c.05.83.39,1.1,1,1.1a1.6,1.6,0,0,0,.82-.21.72.72,0,0,1,.23.51,1.57,1.57,0,0,1-.51.21.8.8,0,0,0-.65.7c0,.24.17.26.37.26a.49.49,0,0,0,.22-.05.32.32,0,0,1,.11.29,1,1,0,0,1-.47.13c-.39,0-.7-.14-.7-.56a.84.84,0,0,1,.36-.69c-1-.05-1.48-.71-1.48-1.93S187.66,57.64,188.59,57.64Zm0,.55c-.46,0-.78.3-.83,1.08h1.49a1.8,1.8,0,0,0,0-.32C189.28,58.54,189.11,58.19,188.59,58.19Z"/><path class="cls-6" d="M193.56,57.64c.8,0,1.32.48,1.32,1.91s-.52,1.91-1.32,1.91a1.14,1.14,0,0,1-1-.45v2a1.26,1.26,0,0,1-.36,0,1.1,1.1,0,0,1-.34,0V57.76a.9.9,0,0,1,.34,0,1,1,0,0,1,.36,0v.33A1.12,1.12,0,0,1,193.56,57.64Zm-.25.57a.79.79,0,0,0-.76.88V60a.8.8,0,0,0,.76.9c.56,0,.84-.3.84-1.34S193.87,58.21,193.31,58.21Z"/><path class="cls-6" d="M196.18,56.14a1,1,0,0,1,.35,0v1.92l.49-.28a1,1,0,0,1,.14.16.51.51,0,0,1,.07.22l-.7.41v2.72a1,1,0,0,1-.35,0,.87.87,0,0,1-.35,0V59l-.47.27a.46.46,0,0,1-.14-.16.67.67,0,0,1-.08-.22l.69-.39V56.19A.87.87,0,0,1,196.18,56.14Z"/><path class="cls-6" d="M199.3,61.93c-.25.77-.5,1.21-1.25,1.21a1,1,0,0,1-.39-.07.83.83,0,0,1,0-.26.62.62,0,0,1,.06-.28,1.79,1.79,0,0,0,.31,0c.32,0,.48-.08.69-.74l.15-.43a.68.68,0,0,1-.23,0l-1.33-3.58a1.13,1.13,0,0,1,.37,0,1.09,1.09,0,0,1,.36,0l.8,2.12a7.57,7.57,0,0,1,.24.82h0s.07-.32.23-.81l.69-2.13a.9.9,0,0,1,.34,0,.93.93,0,0,1,.33,0Z"/><path class="cls-6" d="M202,60.07c0,.63.21.82.7.82l.3,0a.73.73,0,0,1,0,.28.67.67,0,0,1,0,.25,2.2,2.2,0,0,1-.5.06c-.86,0-1.21-.47-1.21-1.36V58.23h-.54a.76.76,0,0,1,0-.26.7.7,0,0,1,0-.26h.54v-.64a1.23,1.23,0,0,1,.7-.14v.78h.91a.57.57,0,0,1,0,.26.63.63,0,0,1,0,.26H202Z"/><path class="cls-6" d="M205.5,57.76a1.17,1.17,0,0,1,.36,0,1.46,1.46,0,0,1,.34,0l-1.08,1.67,1.24,1.92a1.14,1.14,0,0,1-.39.06,1,1,0,0,1-.38-.06l-1.05-1.61h-.39v1.61a1.11,1.11,0,0,1-.34,0,1.09,1.09,0,0,1-.36,0V56.17a1.89,1.89,0,0,1,.36,0,1.93,1.93,0,0,1,.34,0v3h.4Z"/><path class="cls-6" d="M207.43,57a1.13,1.13,0,0,1-.37,0,1,1,0,0,1-.36,0v-.66a1,1,0,0,1,.36-.05,1.13,1.13,0,0,1,.37.05Zm0,4.34a1,1,0,0,1-.35,0,.93.93,0,0,1-.35,0V57.76a.93.93,0,0,1,.35,0,1,1,0,0,1,.35,0Z"/><path class="cls-6" d="M212.35,61.34a1,1,0,0,1-.35,0,.93.93,0,0,1-.35,0V58.82a.57.57,0,0,0-.65-.62,1,1,0,0,0-.8.45v2.69a1,1,0,0,1-.35,0,.93.93,0,0,1-.35,0V57.76a.93.93,0,0,1,.35,0,1,1,0,0,1,.35,0v.32a1.37,1.37,0,0,1,1.06-.44,1,1,0,0,1,1.09,1Z"/><path class="cls-6" d="M214.36,57.64c1,0,1.34.45,1.34,1.36v2.34a.55.55,0,0,1-.27,0,.68.68,0,0,1-.28,0l-.11-.45a1.13,1.13,0,0,1-1.1.57c-.66,0-1.08-.38-1.08-1.17s.47-1.1,1.34-1.1a7.8,7.8,0,0,1,.8,0V59c0-.47-.18-.74-.72-.74a3,3,0,0,0-.94.17.53.53,0,0,1-.16-.21.63.63,0,0,1,0-.29A3,3,0,0,1,214.36,57.64Zm-.07,2c-.47,0-.71.18-.71.62s.23.63.61.63a.85.85,0,0,0,.81-1v-.25C214.84,59.7,214.56,59.67,214.29,59.67Z"/><path class="cls-6" d="M218.83,60.82a.75.75,0,0,1,0,.28.93.93,0,0,1,0,.29h-2.6a1.28,1.28,0,0,1,0-.3,1,1,0,0,1,0-.27l1.86-2.54h-1.74a1,1,0,0,1,0-.29.75.75,0,0,1,0-.28h2.48a.67.67,0,0,1,0,.27.91.91,0,0,1,0,.3L217,60.82Z"/><path class="cls-6" d="M220.84,57.64a1.25,1.25,0,0,1,1.38,1.4,3.31,3.31,0,0,1-.07.73H220c.06.83.4,1.1,1,1.1a1.65,1.65,0,0,0,.82-.21.72.72,0,0,1,.23.51,1.57,1.57,0,0,1-.51.21.8.8,0,0,0-.65.7c0,.24.16.26.37.26a.49.49,0,0,0,.22-.05.32.32,0,0,1,.11.29,1,1,0,0,1-.47.13c-.4,0-.7-.14-.7-.56a.84.84,0,0,1,.36-.69c-1-.05-1.48-.71-1.48-1.93S219.91,57.64,220.84,57.64Zm0,.55c-.46,0-.78.3-.84,1.08h1.5a2.1,2.1,0,0,0,0-.32C221.52,58.54,221.36,58.19,220.84,58.19Z"/><path class="cls-6" d="M223.48,58.09a1.12,1.12,0,0,1,1-.45c.8,0,1.32.48,1.32,1.91s-.52,1.91-1.32,1.91a1.14,1.14,0,0,1-1-.45v.33a1,1,0,0,1-.35,0,.93.93,0,0,1-.35,0V56.19a.93.93,0,0,1,.35,0,1,1,0,0,1,.35,0Zm.77.12a.8.8,0,0,0-.77.88V60a.81.81,0,0,0,.77.9c.56,0,.84-.3.84-1.34S224.81,58.21,224.25,58.21Z"/><path class="cls-6" d="M229.26,61.34a1,1,0,0,1-.35,0,.93.93,0,0,1-.35,0V58.82c0-.39-.2-.62-.65-.62a1,1,0,0,0-.79.45v2.69a1.06,1.06,0,0,1-.35,0,.87.87,0,0,1-.35,0V57.76a.87.87,0,0,1,.35,0,1.06,1.06,0,0,1,.35,0v.32a1.33,1.33,0,0,1,1-.44,1,1,0,0,1,1.09,1Z"/><path class="cls-6" d="M230.56,59.77c.06.83.39,1.1,1,1.1a1.67,1.67,0,0,0,.83-.21.67.67,0,0,1,.22.51,2.09,2.09,0,0,1-1.16.29c-1.08,0-1.58-.67-1.58-1.93s.62-1.89,1.55-1.89a1.26,1.26,0,0,1,1.39,1.4,2.92,2.92,0,0,1-.08.73Zm.83-1.58c-.45,0-.77.3-.83,1.08h1.5a2.1,2.1,0,0,0,0-.32C232.08,58.54,231.91,58.19,231.39,58.19Z"/><path class="cls-6" d="M233.35,57.76a.93.93,0,0,1,.35,0,1,1,0,0,1,.35,0V62c0,.74-.35,1.13-1,1.13a1.54,1.54,0,0,1-.47-.06.65.65,0,0,1,0-.16.72.72,0,0,1,.07-.36,1.09,1.09,0,0,0,.26,0c.31,0,.47-.17.47-.55Zm.72-.77a1.13,1.13,0,0,1-.37,0,1,1,0,0,1-.36,0v-.66a1.17,1.17,0,0,1,.36,0,1.38,1.38,0,0,1,.37,0Z"/><path class="cls-6" d="M236.87,57a1,1,0,0,1-.36,0,1,1,0,0,1-.36,0v-.66a1,1,0,0,1,.36-.05,1,1,0,0,1,.36.05Zm0,4.34a1,1,0,0,1-.35,0,.87.87,0,0,1-.35,0V57.76a.87.87,0,0,1,.35,0,1,1,0,0,1,.35,0Z"/><path class="cls-6" d="M240.35,57.64c1,0,1.55.52,1.55,1.91s-.59,1.91-1.55,1.91-1.56-.52-1.56-1.91S239.39,57.64,240.35,57.64Zm0,.54c-.51,0-.84.29-.84,1.37s.33,1.37.84,1.37.83-.29.83-1.37S240.86,58.18,240.35,58.18Z"/><path class="cls-6" d="M245.49,57.64a.86.86,0,0,1,0,.55l-.58,0a1.32,1.32,0,0,1,.2.74c0,.78-.47,1.26-1.38,1.26l-.3,0a.61.61,0,0,0-.14.4c.08.65,2.2,0,2.2,1.4,0,.69-.67,1.2-1.8,1.2s-1.5-.41-1.5-1a1.2,1.2,0,0,1,.63-1,.55.55,0,0,1-.16-.41A1.27,1.27,0,0,1,243,60a1.15,1.15,0,0,1-.64-1.12,1.2,1.2,0,0,1,1.37-1.26,1.61,1.61,0,0,1,.78.16Zm-2.29,3.75a.84.84,0,0,0-.33.64c0,.35.26.61.84.61s1.11-.26,1.11-.63C244.82,61.44,243.83,61.59,243.2,61.39Zm.53-3.26c-.42,0-.7.24-.7.77s.28.76.7.76.7-.24.7-.76S244.15,58.13,243.73,58.13Z"/><path class="cls-6" d="M247.51,57.64a1.08,1.08,0,0,1,.61.18.8.8,0,0,1-.3.59.73.73,0,0,0-.44-.15.91.91,0,0,0-.72.53v2.55a1,1,0,0,1-.35,0,.87.87,0,0,1-.35,0V57.76a.87.87,0,0,1,.35,0,1,1,0,0,1,.35,0v.48A1,1,0,0,1,247.51,57.64Z"/><path class="cls-6" d="M249.73,57.64c1,0,1.34.45,1.34,1.36v2.34a.55.55,0,0,1-.27,0,.68.68,0,0,1-.28,0l-.11-.45a1.12,1.12,0,0,1-1.1.57c-.66,0-1.08-.38-1.08-1.17s.47-1.1,1.34-1.1a7.8,7.8,0,0,1,.8,0V59c0-.47-.18-.74-.72-.74a3,3,0,0,0-.94.17.53.53,0,0,1-.16-.21.63.63,0,0,1,0-.29A3,3,0,0,1,249.73,57.64Zm-.07,2c-.47,0-.71.18-.71.62s.23.63.61.63a.85.85,0,0,0,.81-1v-.25C250.21,59.7,249.93,59.67,249.66,59.67Z"/><path class="cls-6" d="M254.65,61.34a1,1,0,0,1-.35,0,.93.93,0,0,1-.35,0V58.82a.57.57,0,0,0-.65-.62,1,1,0,0,0-.79.45v2.69a1.09,1.09,0,0,1-.36,0,.93.93,0,0,1-.35,0V57.76a.93.93,0,0,1,.35,0,1.09,1.09,0,0,1,.36,0v.32a1.33,1.33,0,0,1,1.05-.44,1,1,0,0,1,1.09,1Z"/><path class="cls-6" d="M256.12,57a1.13,1.13,0,0,1-.37,0,1,1,0,0,1-.36,0v-.66a1,1,0,0,1,.36-.05,1.13,1.13,0,0,1,.37.05Zm0,4.34a1,1,0,0,1-.35,0,.93.93,0,0,1-.35,0V57.76a.93.93,0,0,1,.35,0,1,1,0,0,1,.35,0Z"/><path class="cls-6" d="M257.44,59.55c0,.92.29,1.32,1,1.32a1.75,1.75,0,0,0,.65-.12.72.72,0,0,1,.21.5,1.92,1.92,0,0,1-1,.21c-1,0-1.54-.67-1.54-1.91s.52-1.91,1.54-1.91a1.91,1.91,0,0,1,.94.17.72.72,0,0,1-.21.51,1.59,1.59,0,0,0-.61-.11C257.71,58.21,257.44,58.64,257.44,59.55Z"/><path class="cls-6" d="M262.14,60.82a.62.62,0,0,1,.05.28.76.76,0,0,1-.05.29h-2.59a1.28,1.28,0,0,1,0-.3,1,1,0,0,1,0-.27l1.86-2.54h-1.74a.83.83,0,0,1-.05-.29.62.62,0,0,1,.05-.28h2.47a.65.65,0,0,1,.05.27.9.9,0,0,1-.05.3l-1.85,2.54Z"/><path class="cls-6" d="M264,57.64c1,0,1.34.45,1.34,1.36v2.34a.5.5,0,0,1-.27,0,.68.68,0,0,1-.28,0l-.11-.45a1.12,1.12,0,0,1-1.1.57,1,1,0,0,1-1.08-1.17c0-.76.47-1.1,1.34-1.1a7.8,7.8,0,0,1,.8,0V59c0-.47-.18-.74-.72-.74a3,3,0,0,0-.94.17.65.65,0,0,1-.16-.21.63.63,0,0,1,0-.29A3,3,0,0,1,264,57.64Zm-.07,2c-.46,0-.71.18-.71.62s.23.63.61.63a.85.85,0,0,0,.81-1v-.25C264.51,59.7,264.23,59.67,264,59.67Z"/><path class="cls-6" d="M268.58,57.64a2,2,0,0,1,1,.19.69.69,0,0,1-.18.49,2.57,2.57,0,0,0-.73-.11c-.48,0-.72.18-.72.51s.44.42.89.57.93.36.93,1.05-.44,1.12-1.33,1.12a2.49,2.49,0,0,1-1.17-.25.71.71,0,0,1,.19-.52,2.86,2.86,0,0,0,.94.18c.43,0,.67-.17.67-.51s-.38-.47-.79-.59-1-.34-1-1S267.69,57.64,268.58,57.64Z"/><path class="cls-6" d="M271.22,60.07c0,.63.21.82.7.82l.3,0a.73.73,0,0,1,0,.28.67.67,0,0,1,0,.25,2.28,2.28,0,0,1-.5.06c-.86,0-1.21-.47-1.21-1.36V58.23H270a.76.76,0,0,1,0-.26.7.7,0,0,1,0-.26h.54v-.64a1.21,1.21,0,0,1,.7-.14v.78h.91a.57.57,0,0,1,.05.26.63.63,0,0,1-.05.26h-.91Z"/><path class="cls-6" d="M274,57.64c1,0,1.34.45,1.34,1.36v2.34a.55.55,0,0,1-.27,0,.68.68,0,0,1-.28,0l-.11-.45a1.12,1.12,0,0,1-1.1.57c-.66,0-1.08-.38-1.08-1.17s.47-1.1,1.34-1.1a7.8,7.8,0,0,1,.8,0V59c0-.47-.18-.74-.72-.74a3,3,0,0,0-.94.17.53.53,0,0,1-.16-.21.63.63,0,0,1,0-.29A3,3,0,0,1,274,57.64Zm-.07,2c-.47,0-.71.18-.71.62s.23.63.61.63a.85.85,0,0,0,.81-1v-.25C274.43,59.7,274.15,59.67,273.88,59.67Z"/><path class="cls-6" d="M278.87,61.34a1,1,0,0,1-.35,0,.93.93,0,0,1-.35,0V58.82a.57.57,0,0,0-.65-.62,1,1,0,0,0-.8.45v2.69a1,1,0,0,1-.35,0,.93.93,0,0,1-.35,0V57.76a.93.93,0,0,1,.35,0,1,1,0,0,1,.35,0v.32a1.37,1.37,0,0,1,1.06-.44,1,1,0,0,1,1.09,1Z"/><path class="cls-6" d="M283.32,60.82a.75.75,0,0,1,0,.28.93.93,0,0,1,0,.29h-2.6a1.28,1.28,0,0,1,0-.3,1,1,0,0,1,0-.27l1.86-2.54h-1.74a1,1,0,0,1,0-.29.75.75,0,0,1,0-.28h2.48a.67.67,0,0,1,0,.27.91.91,0,0,1,0,.3l-1.86,2.54Z"/><path class="cls-6" d="M285.21,57.64c1,0,1.34.45,1.34,1.36v2.34a.57.57,0,0,1-.28,0,.73.73,0,0,1-.28,0l-.1-.45a1.13,1.13,0,0,1-1.1.57,1,1,0,0,1-1.09-1.17c0-.76.47-1.1,1.35-1.1.31,0,.61,0,.8,0V59c0-.47-.19-.74-.72-.74a3,3,0,0,0-.94.17.53.53,0,0,1-.16-.21.57.57,0,0,1,0-.29A3.07,3.07,0,0,1,285.21,57.64Zm-.07,2c-.47,0-.71.18-.71.62s.23.63.6.63a.85.85,0,0,0,.82-1v-.25C285.69,59.7,285.41,59.67,285.14,59.67Z"/><path class="cls-6" d="M289,57.64c.8,0,1.32.48,1.32,1.91s-.52,1.91-1.32,1.91a1.14,1.14,0,0,1-1-.45v2a1.26,1.26,0,0,1-.36,0,1.1,1.1,0,0,1-.34,0V57.76a.9.9,0,0,1,.34,0,1,1,0,0,1,.36,0v.33A1.12,1.12,0,0,1,289,57.64Zm-.25.57a.79.79,0,0,0-.76.88V60a.8.8,0,0,0,.76.9c.56,0,.84-.3.84-1.34S289.3,58.21,288.74,58.21Z"/><path class="cls-6" d="M292.19,57.64c1,0,1.34.45,1.34,1.36v2.34a.5.5,0,0,1-.27,0,.68.68,0,0,1-.28,0l-.11-.45a1.12,1.12,0,0,1-1.1.57,1,1,0,0,1-1.08-1.17c0-.76.47-1.1,1.34-1.1a7.8,7.8,0,0,1,.8,0V59c0-.47-.18-.74-.72-.74a3,3,0,0,0-.94.17.65.65,0,0,1-.16-.21.63.63,0,0,1,0-.29A3,3,0,0,1,292.19,57.64Zm-.07,2c-.46,0-.71.18-.71.62s.23.63.61.63a.85.85,0,0,0,.81-1v-.25C292.67,59.7,292.39,59.67,292.12,59.67Z"/><path class="cls-6" d="M295,61.34a1,1,0,0,1-.35,0,.87.87,0,0,1-.35,0V56.19a.87.87,0,0,1,.35,0,1,1,0,0,1,.35,0Z"/><path class="cls-6" d="M298.61,61.34a.93.93,0,0,1-.35,0,1,1,0,0,1-.35,0V58.82c0-.39-.2-.62-.65-.62a1,1,0,0,0-.79.45v2.69a1,1,0,0,1-.35,0,.93.93,0,0,1-.35,0V57.76a.93.93,0,0,1,.35,0,1,1,0,0,1,.35,0v.32a1.35,1.35,0,0,1,1.06-.44,1,1,0,0,1,1.08,1Z"/><path class="cls-6" d="M301,61.93c-.25.77-.5,1.21-1.25,1.21a1.06,1.06,0,0,1-.39-.07.83.83,0,0,1-.05-.26.62.62,0,0,1,.06-.28,1.84,1.84,0,0,0,.32,0c.31,0,.47-.08.68-.74l.15-.43a.68.68,0,0,1-.23,0L299,57.76a1.2,1.2,0,0,1,.37,0,1,1,0,0,1,.36,0l.8,2.12a6.64,6.64,0,0,1,.25.82h0s.07-.32.23-.81l.69-2.13a.93.93,0,0,1,.35,0,.9.9,0,0,1,.32,0Z"/><path class="cls-6" d="M306.62,56.14a1,1,0,0,1,.35,0v5.15a.85.85,0,0,1-.3,0,1,1,0,0,1-.31,0l-.05-.38a1.16,1.16,0,0,1-1.05.5c-.8,0-1.32-.48-1.32-1.91s.52-1.91,1.32-1.91a1.11,1.11,0,0,1,1,.45v-1.9A1,1,0,0,1,306.62,56.14Zm-1.12,2.07c-.56,0-.84.29-.84,1.34s.28,1.34.84,1.34a.8.8,0,0,0,.76-.9v-.9A.8.8,0,0,0,305.5,58.21Z"/><path class="cls-6" d="M310.12,60.82a.75.75,0,0,1,0,.28.93.93,0,0,1,0,.29h-2.6a1.28,1.28,0,0,1,0-.3,1,1,0,0,1,0-.27l1.87-2.54h-1.75a1,1,0,0,1,0-.29.75.75,0,0,1,0-.28h2.48a.67.67,0,0,1,0,.27.91.91,0,0,1,0,.3l-1.85,2.54Z"/><path class="cls-6" d="M311.47,57a1.13,1.13,0,0,1-.37,0,1,1,0,0,1-.36,0v-.66a1,1,0,0,1,.36-.05,1.13,1.13,0,0,1,.37.05Zm0,4.34a1,1,0,0,1-.35,0,.93.93,0,0,1-.35,0V57.76a.93.93,0,0,1,.35,0,1,1,0,0,1,.35,0Z"/><path class="cls-6" d="M313.5,57.64c1,0,1.34.45,1.34,1.36v2.35c-.44.12-.69.4-.69.68s.09.31.36.31a.74.74,0,0,0,.25-.05.45.45,0,0,1,.11.31,1,1,0,0,1-.48.13c-.46,0-.74-.24-.74-.6a1,1,0,0,1,.64-.81l-.11-.43a1.13,1.13,0,0,1-1.1.57A1,1,0,0,1,312,60.29c0-.75.47-1.1,1.34-1.1a7.8,7.8,0,0,1,.8,0V59c0-.5-.18-.73-.72-.73a3,3,0,0,0-.94.17.53.53,0,0,1-.16-.21.63.63,0,0,1,0-.29A3,3,0,0,1,313.5,57.64Zm-.07,2c-.47,0-.71.19-.71.62a.55.55,0,0,0,.61.63.86.86,0,0,0,.81-1v-.24C314,59.7,313.7,59.67,313.43,59.67Z"/><path class="cls-6" d="M316.73,57.64a2,2,0,0,1,1,.19.74.74,0,0,1-.18.49,2.69,2.69,0,0,0-.74-.11c-.48,0-.71.18-.71.51s.44.42.88.57.93.36.93,1.05-.44,1.12-1.33,1.12a2.49,2.49,0,0,1-1.17-.25.71.71,0,0,1,.19-.52,2.86,2.86,0,0,0,.94.18c.43,0,.68-.17.68-.51s-.39-.47-.8-.59-1-.34-1-1S315.84,57.64,316.73,57.64Z"/><path class="cls-6" d="M319,59.77c.05.83.39,1.1,1,1.1a1.67,1.67,0,0,0,.83-.21.75.75,0,0,1,.22.51,2.09,2.09,0,0,1-1.16.29c-1.08,0-1.58-.67-1.58-1.93s.62-1.89,1.55-1.89a1.26,1.26,0,0,1,1.39,1.4,2.92,2.92,0,0,1-.08.73Zm.83-1.58c-.45,0-.78.3-.83,1.08h1.5c0-.06,0-.17,0-.32C320.52,58.54,320.35,58.19,319.83,58.19Z"/><path class="cls-6" d="M322.46,56.14a1,1,0,0,1,.35,0v1.92l.49-.28a.46.46,0,0,1,.14.16.67.67,0,0,1,.08.22l-.71.41v2.72a1,1,0,0,1-.35,0,.93.93,0,0,1-.35,0V59l-.47.27a.74.74,0,0,1-.13-.16.47.47,0,0,1-.08-.22l.68-.39V56.19A.93.93,0,0,1,322.46,56.14Z"/><path class="cls-6" d="M324.47,55.92a4,4,0,0,0,0,3.67.28.28,0,0,1-.12.12.44.44,0,0,1-.18,0,4.17,4.17,0,0,1-.55-2,4.12,4.12,0,0,1,.55-2,.3.3,0,0,1,.17,0A.27.27,0,0,1,324.47,55.92Z"/><path class="cls-6" d="M324.75,56.4a2,2,0,0,1,.76-.15c.49,0,.88.21.88.74s-.29.69-.77,1c-.24.15-.58.29-.58.62a.78.78,0,0,0,0,.09h1.27a.36.36,0,0,1,0,.19.34.34,0,0,1,0,.18h-1.65a2,2,0,0,1,0-.27c0-.64.41-.87.78-1.11s.54-.37.54-.67-.16-.42-.53-.42a1.85,1.85,0,0,0-.57.1A.32.32,0,0,1,324.75,56.4Z"/><path class="cls-6" d="M326.6,55.92a.27.27,0,0,1,.13-.12.32.32,0,0,1,.17,0,4.07,4.07,0,0,1,.56,2,4.12,4.12,0,0,1-.56,2,.39.39,0,0,1-.17,0,.27.27,0,0,1-.13-.12,3.89,3.89,0,0,0,0-3.67Z"/></g></svg>