<svg id="Warstwa_1" data-name="Warstwa 1" xmlns="http://www.w3.org/2000/svg" viewBox="0 0 453.86 70"><defs><style>.cls-1{fill:#005ca6;}.cls-2{fill:none;stroke:#ccd513;stroke-miterlimit:10;stroke-width:1.85px;}</style></defs><title>antyseptyka_mozliwa</title><path class="cls-1" d="M76.24,10.35a3.31,3.31,0,0,1,.93.11l3.88,10.93a2.48,2.48,0,0,1-.85.11,2.09,2.09,0,0,1-.77-.11l-1-2.73H73.88l-1,2.73a2.12,2.12,0,0,1-.76.11,2,2,0,0,1-.73-.11l3.89-10.93A3.78,3.78,0,0,1,76.24,10.35Zm-.08,1.72s-.14.62-.4,1.39l-1.43,3.92H78l-1.41-3.92a11.78,11.78,0,0,1-.4-1.39Z"/><path class="cls-1" d="M84.83,13.2a4.42,4.42,0,0,1,2.19.42,1.6,1.6,0,0,1-.4,1.1A5.77,5.77,0,0,0,85,14.47c-1,0-1.58.38-1.58,1.11s1,1,2,1.27,2.06.81,2.06,2.33-1,2.47-2.94,2.47a5.59,5.59,0,0,1-2.59-.55A1.58,1.58,0,0,1,82.31,20a6.59,6.59,0,0,0,2.09.39c.95,0,1.49-.36,1.49-1.12s-.85-1-1.77-1.3-2.2-.76-2.2-2.29S82.87,13.2,84.83,13.2Z"/><path class="cls-1" d="M90.27,17.91c.12,1.84.87,2.43,2.15,2.43a3.76,3.76,0,0,0,1.83-.45,1.6,1.6,0,0,1,.5,1.11,4.6,4.6,0,0,1-2.57.65c-2.39,0-3.5-1.47-3.5-4.27s1.37-4.18,3.43-4.18a2.79,2.79,0,0,1,3.07,3.11,6.64,6.64,0,0,1-.17,1.6Zm1.84-3.49c-1,0-1.72.67-1.84,2.39h3.31a4.71,4.71,0,0,0,0-.7C93.63,15.2,93.26,14.42,92.11,14.42Z"/><path class="cls-1" d="M100.62,13.2c1.76,0,2.91,1.07,2.91,4.23s-1.15,4.22-2.91,4.22a2.48,2.48,0,0,1-2.23-1V25a2.49,2.49,0,0,1-.79.1,2.17,2.17,0,0,1-.76-.1V13.46a2,2,0,0,1,.76-.11,2.29,2.29,0,0,1,.79.11v.74A2.48,2.48,0,0,1,100.62,13.2Zm-.55,1.27a1.75,1.75,0,0,0-1.68,2v2a1.77,1.77,0,0,0,1.68,2c1.24,0,1.86-.65,1.86-2.95S101.31,14.47,100.07,14.47Z"/><path class="cls-1" d="M107.38,18.57c0,1.41.45,1.83,1.55,1.83a4.36,4.36,0,0,0,.65-.06,1.74,1.74,0,0,1,.11.62,1.82,1.82,0,0,1-.07.55,4.38,4.38,0,0,1-1.12.14c-1.91,0-2.66-1-2.66-3V14.51h-1.2a1.91,1.91,0,0,1,0-1.16h1.2V11.94a2.72,2.72,0,0,1,1.54-.31v1.72h2a1.53,1.53,0,0,1,.09.58,1.74,1.74,0,0,1-.09.58h-2Z"/><path class="cls-1" d="M114.71,22.69c-.56,1.71-1.1,2.68-2.77,2.68a2.29,2.29,0,0,1-.85-.15,1.88,1.88,0,0,1-.11-.58,1.64,1.64,0,0,1,.12-.62,3.94,3.94,0,0,0,.7.07c.69,0,1-.19,1.52-1.65l.32-.94a1.56,1.56,0,0,1-.49-.11l-3-7.93a2.57,2.57,0,0,1,.81-.11,2.39,2.39,0,0,1,.8.11l1.77,4.71a14,14,0,0,1,.54,1.81h.06s.16-.73.5-1.8l1.53-4.72a2.06,2.06,0,0,1,.76-.11,2.17,2.17,0,0,1,.73.11Z"/><path class="cls-1" d="M123.55,13.46a2.58,2.58,0,0,1,.79-.11,2.81,2.81,0,0,1,.76.1l-2.38,3.7,2.74,4.24a2.86,2.86,0,0,1-.87.12,2.5,2.5,0,0,1-.83-.12l-2.33-3.56h-.86v3.56a2.57,2.57,0,0,1-.76.11,2.43,2.43,0,0,1-.79-.11V10a3.48,3.48,0,0,1,.79-.08,3.82,3.82,0,0,1,.76.08v6.71h.88Z"/><path class="cls-1" d="M129.44,13.2c2.25,0,3,1,3,3v5.19a1.22,1.22,0,0,1-.61.11,1.61,1.61,0,0,1-.62-.11l-.23-1a2.48,2.48,0,0,1-2.43,1.25,2.26,2.26,0,0,1-2.4-2.58c0-1.69,1-2.43,3-2.43a15.82,15.82,0,0,1,1.77.09v-.57c0-1.06-.4-1.66-1.6-1.66a6.39,6.39,0,0,0-2.07.39,1.26,1.26,0,0,1-.36-.47,1.3,1.3,0,0,1-.09-.65A6.74,6.74,0,0,1,129.44,13.2Zm-.16,4.49c-1,0-1.58.4-1.58,1.38a1.21,1.21,0,0,0,1.35,1.39c1.23,0,1.8-1,1.8-2.14v-.54C130.49,17.75,129.87,17.69,129.28,17.69Z"/><path class="cls-1" d="M146.09,13.2a2.16,2.16,0,0,1,2.31,2.34v5.85a2.25,2.25,0,0,1-.78.11,2,2,0,0,1-.77-.11V15.81a1.2,1.2,0,0,0-1.35-1.36,2,2,0,0,0-1.66,1v6a2.12,2.12,0,0,1-.76.11,2,2,0,0,1-.77-.11V15.81A1.2,1.2,0,0,0,141,14.45a2,2,0,0,0-1.65,1v6a2.19,2.19,0,0,1-.76.11,2,2,0,0,1-.78-.11V13.46a2,2,0,0,1,.78-.11,2.19,2.19,0,0,1,.76.11v.7a2.89,2.89,0,0,1,2.23-1,2.07,2.07,0,0,1,2,1.13A3.11,3.11,0,0,1,146.09,13.2Z"/><path class="cls-1" d="M153.54,13.2c2.14,0,3.44,1.16,3.44,4.23s-1.32,4.22-3.44,4.22-3.44-1.16-3.44-4.22S151.42,13.2,153.54,13.2Zm0,1.19c-1.13,0-1.86.65-1.86,3s.73,3,1.86,3,1.84-.65,1.84-3S154.67,14.39,153.54,14.39Z"/><path class="cls-1" d="M164,20.23a1.65,1.65,0,0,1,.1.63,1.88,1.88,0,0,1-.1.64h-5.74a2.65,2.65,0,0,1-.09-.67,2,2,0,0,1,.09-.6l4.12-5.61h-3.86a2.18,2.18,0,0,1-.09-.65,1.78,1.78,0,0,1,.09-.62H164a1.46,1.46,0,0,1,.1.61,1.87,1.87,0,0,1-.1.66l-4.1,5.61Zm-1.9-8.41a2.48,2.48,0,0,1-.74.09,2.28,2.28,0,0,1-.75-.09V10.49a2.07,2.07,0,0,1,.75-.1,2.25,2.25,0,0,1,.74.1Z"/><path class="cls-1" d="M167.4,21.39a2.16,2.16,0,0,1-.77.11,2,2,0,0,1-.78-.11V10a2,2,0,0,1,.78-.11,2.16,2.16,0,0,1,.77.11Z"/><path class="cls-1" d="M171.16,11.79a2.32,2.32,0,0,1-.8.11,2.21,2.21,0,0,1-.81-.11V10.33a2.21,2.21,0,0,1,.81-.11,2.32,2.32,0,0,1,.8.11Zm0,9.6a2.16,2.16,0,0,1-.77.11,2.06,2.06,0,0,1-.78-.11V13.46a2.06,2.06,0,0,1,.78-.11,2.16,2.16,0,0,1,.77.11Z"/><path class="cls-1" d="M178.78,17.19a10.8,10.8,0,0,1-.41-2.23h-.07a9.71,9.71,0,0,1-.43,2.23l-1.22,4.2a2.93,2.93,0,0,1-.89.11,3.1,3.1,0,0,1-.89-.11l-2.34-7.93a2.29,2.29,0,0,1,.77-.11,1.22,1.22,0,0,1,.67.11l1.47,4.94a9,9,0,0,1,.32,1.52h.05a12.58,12.58,0,0,1,.34-1.52l1.43-4.94a3.24,3.24,0,0,1,.83-.11,2.06,2.06,0,0,1,.76.11l1.38,4.91a8.55,8.55,0,0,1,.31,1.55h0a14.79,14.79,0,0,1,.38-1.53l1.46-4.93a1.83,1.83,0,0,1,.68-.11,1.46,1.46,0,0,1,.67.11l-2.34,7.93a3.12,3.12,0,0,1-.88.11,3.27,3.27,0,0,1-.9-.11Z"/><path class="cls-1" d="M188.28,13.2c2.25,0,3,1,3,3v5.21c-1,.28-1.54.88-1.54,1.5,0,.39.22.68.81.68a1.5,1.5,0,0,0,.54-.11,1,1,0,0,1,.25.7,2.28,2.28,0,0,1-1.05.28c-1,0-1.65-.53-1.65-1.34A2.11,2.11,0,0,1,190,21.34l-.23-.94a2.48,2.48,0,0,1-2.43,1.25,2.26,2.26,0,0,1-2.4-2.58c0-1.66,1-2.43,3-2.43a15.82,15.82,0,0,1,1.77.09v-.61c0-1.11-.39-1.62-1.6-1.62a6.39,6.39,0,0,0-2.07.39,1.26,1.26,0,0,1-.36-.47,1.3,1.3,0,0,1-.09-.65A6.74,6.74,0,0,1,188.28,13.2Zm-.16,4.49c-1,0-1.58.42-1.58,1.38a1.21,1.21,0,0,0,1.35,1.39,1.91,1.91,0,0,0,1.8-2.15v-.53C189.33,17.75,188.71,17.69,188.12,17.69Z"/><path class="cls-1" d="M199.43,13.2c2.25,0,3,1,3,3v5.19a1.22,1.22,0,0,1-.61.11,1.61,1.61,0,0,1-.62-.11l-.23-1a2.48,2.48,0,0,1-2.43,1.25,2.26,2.26,0,0,1-2.4-2.58c0-1.69,1-2.43,3-2.43a15.82,15.82,0,0,1,1.77.09v-.57c0-1.06-.4-1.66-1.6-1.66a6.39,6.39,0,0,0-2.07.39,1.26,1.26,0,0,1-.36-.47,1.3,1.3,0,0,1-.09-.65A6.74,6.74,0,0,1,199.43,13.2Zm-.15,4.49c-1,0-1.58.4-1.58,1.38s.51,1.39,1.34,1.39c1.23,0,1.8-1,1.8-2.14v-.54C200.48,17.75,199.86,17.69,199.28,17.69Z"/><path class="cls-1" d="M206,21.39a2.19,2.19,0,0,1-.78.11,2,2,0,0,1-.77-.11V10a2,2,0,0,1,.77-.11A2.19,2.19,0,0,1,206,10Z"/><path class="cls-1" d="M210.26,18.57c0,1.41.45,1.83,1.55,1.83a4.36,4.36,0,0,0,.65-.06,1.9,1.9,0,0,1,.1.62,1.82,1.82,0,0,1-.07.55,4.38,4.38,0,0,1-1.12.14c-1.9,0-2.66-1-2.66-3V14.51h-1.19a1.73,1.73,0,0,1,0-1.16h1.19V11.94a2.74,2.74,0,0,1,1.55-.31v1.72h2a1.53,1.53,0,0,1,.09.58,1.74,1.74,0,0,1-.09.58h-2Z"/><path class="cls-1" d="M215.13,17.91c.13,1.84.87,2.43,2.16,2.43a3.76,3.76,0,0,0,1.83-.45,1.6,1.6,0,0,1,.49,1.11,4.56,4.56,0,0,1-2.57.65c-2.38,0-3.5-1.47-3.5-4.27s1.38-4.18,3.44-4.18A2.79,2.79,0,0,1,220,16.31a6.64,6.64,0,0,1-.17,1.6ZM217,14.42c-1,0-1.72.67-1.85,2.39h3.32a6.7,6.7,0,0,0,.05-.7C218.5,15.2,218.12,14.42,217,14.42Z"/><path class="cls-1" d="M225.14,13.21a2.43,2.43,0,0,1,1.35.39,1.78,1.78,0,0,1-.68,1.3,1.56,1.56,0,0,0-1-.32,2,2,0,0,0-1.6,1.17v5.64a2.16,2.16,0,0,1-.77.11,2,2,0,0,1-.78-.11V13.46a2,2,0,0,1,.78-.11,2.16,2.16,0,0,1,.77.11v1.07A2.26,2.26,0,0,1,225.14,13.21Z"/><path class="cls-1" d="M233.94,21.39a2.25,2.25,0,0,1-.78.11,2.09,2.09,0,0,1-.77-.11V15.81c0-.86-.45-1.36-1.44-1.36a2.12,2.12,0,0,0-1.75,1v6a2.32,2.32,0,0,1-.78.11,2,2,0,0,1-.77-.11V13.46a2,2,0,0,1,.77-.11,2.32,2.32,0,0,1,.78.11v.71a3,3,0,0,1,2.34-1,2.19,2.19,0,0,1,2.4,2.34Z"/><path class="cls-1" d="M238.82,13.2c2.24,0,3,1,3,3v5.19a1.19,1.19,0,0,1-.6.11,1.55,1.55,0,0,1-.62-.11l-.23-1a2.49,2.49,0,0,1-2.43,1.25,2.26,2.26,0,0,1-2.4-2.58c0-1.69,1-2.43,3-2.43a16,16,0,0,1,1.77.09v-.57c0-1.06-.41-1.66-1.6-1.66a6.39,6.39,0,0,0-2.07.39,1.16,1.16,0,0,1-.36-.47,1.3,1.3,0,0,1-.09-.65A6.74,6.74,0,0,1,238.82,13.2Zm-.16,4.49c-1,0-1.58.4-1.58,1.38s.51,1.39,1.35,1.39a1.9,1.9,0,0,0,1.8-2.14v-.54C239.87,17.75,239.25,17.69,238.66,17.69Z"/><path class="cls-1" d="M245.89,18.57c0,1.41.45,1.83,1.55,1.83a4.36,4.36,0,0,0,.65-.06,1.74,1.74,0,0,1,.11.62,1.61,1.61,0,0,1-.08.55,4.23,4.23,0,0,1-1.11.14c-1.91,0-2.66-1-2.66-3V14.51h-1.2a1.91,1.91,0,0,1,0-1.16h1.2V11.94a2.72,2.72,0,0,1,1.54-.31v1.72h2a1.53,1.53,0,0,1,.09.58,1.74,1.74,0,0,1-.09.58h-2Z"/><path class="cls-1" d="M253.22,22.69c-.56,1.71-1.1,2.68-2.77,2.68a2.29,2.29,0,0,1-.85-.15,1.88,1.88,0,0,1-.11-.58,1.64,1.64,0,0,1,.12-.62,3.94,3.94,0,0,0,.7.07c.7,0,1.05-.19,1.52-1.65l.32-.94a1.56,1.56,0,0,1-.49-.11l-2.95-7.93a2.57,2.57,0,0,1,.81-.11,2.42,2.42,0,0,1,.81.11l1.76,4.71a14,14,0,0,1,.54,1.81h.06s.16-.73.5-1.8l1.53-4.72a2.06,2.06,0,0,1,.76-.11,2.17,2.17,0,0,1,.73.11Z"/><path class="cls-1" d="M263,17.19a10.33,10.33,0,0,1-.42-2.23h-.06a9.71,9.71,0,0,1-.43,2.23l-1.23,4.2a2.9,2.9,0,0,1-.88.11,3.13,3.13,0,0,1-.9-.11l-2.34-7.93a2.32,2.32,0,0,1,.78-.11,1.2,1.2,0,0,1,.66.11l1.47,4.94a9.29,9.29,0,0,1,.33,1.52h.05a10.88,10.88,0,0,1,.34-1.52l1.42-4.94a3.27,3.27,0,0,1,.84-.11,2.06,2.06,0,0,1,.76.11l1.38,4.91a9.55,9.55,0,0,1,.31,1.55h0a13.09,13.09,0,0,1,.39-1.53L267,13.46a1.86,1.86,0,0,1,.69-.11,1.38,1.38,0,0,1,.66.11L266,21.39a3.08,3.08,0,0,1-.88.11,3.36,3.36,0,0,1-.9-.11Z"/><path class="cls-1" d="M272.53,13.2c2.25,0,3,1,3,3v5.21c-1,.28-1.53.88-1.53,1.5,0,.39.22.68.8.68a1.52,1.52,0,0,0,.55-.11,1,1,0,0,1,.24.7,2.23,2.23,0,0,1-1.05.28c-1,0-1.64-.53-1.64-1.34a2.11,2.11,0,0,1,1.41-1.78L274,20.4a2.5,2.5,0,0,1-2.43,1.25,2.27,2.27,0,0,1-2.41-2.58c0-1.66,1-2.43,3-2.43a15.76,15.76,0,0,1,1.76.09v-.61c0-1.11-.38-1.62-1.59-1.62a6.41,6.41,0,0,0-2.08.39,1.31,1.31,0,0,1-.35-.47,1.37,1.37,0,0,1-.1-.65A6.8,6.8,0,0,1,272.53,13.2Zm-.15,4.49c-1,0-1.58.42-1.58,1.38a1.21,1.21,0,0,0,1.35,1.39c1.22,0,1.79-1.07,1.79-2.15v-.53C273.59,17.75,273,17.69,272.38,17.69Z"/><path class="cls-1" d="M283.69,13.2c2.24,0,2.95,1,2.95,3v5.19a1.19,1.19,0,0,1-.6.11,1.55,1.55,0,0,1-.62-.11l-.23-1a2.5,2.5,0,0,1-2.43,1.25,2.26,2.26,0,0,1-2.4-2.58c0-1.69,1-2.43,3-2.43a15.62,15.62,0,0,1,1.76.09v-.57c0-1.06-.4-1.66-1.59-1.66a6.49,6.49,0,0,0-2.08.39,1.25,1.25,0,0,1-.44-1.12A6.74,6.74,0,0,1,283.69,13.2Zm-.16,4.49c-1,0-1.58.4-1.58,1.38s.51,1.39,1.35,1.39c1.22,0,1.79-1,1.79-2.14v-.54C284.74,17.75,284.12,17.69,283.53,17.69Z"/><path class="cls-1" d="M295,21.39a2.25,2.25,0,0,1-.78.11,2,2,0,0,1-.77-.11V15.81c0-.86-.45-1.36-1.44-1.36a2.12,2.12,0,0,0-1.75,1v6a2.32,2.32,0,0,1-.78.11,2,2,0,0,1-.77-.11V13.46a2,2,0,0,1,.77-.11,2.32,2.32,0,0,1,.78.11v.71a3,3,0,0,1,2.34-1,2.19,2.19,0,0,1,2.4,2.34Z"/><path class="cls-1" d="M299.11,18.57c0,1.41.45,1.83,1.55,1.83a4.36,4.36,0,0,0,.65-.06,1.74,1.74,0,0,1,.11.62,1.61,1.61,0,0,1-.08.55,4.29,4.29,0,0,1-1.11.14c-1.91,0-2.67-1-2.67-3V14.51h-1.19a1.91,1.91,0,0,1,0-1.16h1.19V11.94a2.77,2.77,0,0,1,1.55-.31v1.72h2a1.53,1.53,0,0,1,.09.58,1.74,1.74,0,0,1-.09.58h-2Z"/><path class="cls-1" d="M306.44,22.69c-.56,1.71-1.1,2.68-2.78,2.68a2.29,2.29,0,0,1-.85-.15,1.88,1.88,0,0,1-.11-.58,1.38,1.38,0,0,1,.13-.62,3.94,3.94,0,0,0,.7.07c.69,0,1.05-.19,1.51-1.65l.33-.94a1.56,1.56,0,0,1-.5-.11l-2.94-7.93a2.57,2.57,0,0,1,.81-.11,2.39,2.39,0,0,1,.8.11l1.77,4.71a16.3,16.3,0,0,1,.54,1.81h.06s.16-.73.5-1.8l1.53-4.72a2.06,2.06,0,0,1,.76-.11,2.17,2.17,0,0,1,.73.11Z"/><path class="cls-1" d="M312.29,14.2a2.49,2.49,0,0,1,2.23-1c1.77,0,2.91,1.07,2.91,4.23s-1.14,4.22-2.91,4.22a2.49,2.49,0,0,1-2.23-1v.74a2.22,2.22,0,0,1-.79.11,2.06,2.06,0,0,1-.76-.11V10a2.06,2.06,0,0,1,.76-.11,2.22,2.22,0,0,1,.79.11Zm1.69.27a1.76,1.76,0,0,0-1.69,2v2a1.77,1.77,0,0,0,1.69,2c1.24,0,1.86-.65,1.86-2.95S315.22,14.47,314,14.47Z"/><path class="cls-1" d="M320.81,11.79a2.42,2.42,0,0,1-.81.11,2.18,2.18,0,0,1-.8-.11V10.33a2.18,2.18,0,0,1,.8-.11,2.42,2.42,0,0,1,.81.11Zm0,9.6a2.19,2.19,0,0,1-.78.11,2,2,0,0,1-.77-.11V13.46a2,2,0,0,1,.77-.11,2.19,2.19,0,0,1,.78.11Z"/><path class="cls-1" d="M326,13.2c2.14,0,3.44,1.16,3.44,4.23s-1.32,4.22-3.44,4.22-3.44-1.16-3.44-4.22S323.88,13.2,326,13.2Zm0,1.19c-1.13,0-1.86.65-1.86,3s.73,3,1.86,3,1.84-.65,1.84-3S327.13,14.39,326,14.39Z"/><path class="cls-1" d="M333.26,18.57c0,1.41.45,1.83,1.55,1.83a4.36,4.36,0,0,0,.65-.06,1.74,1.74,0,0,1,.11.62,1.61,1.61,0,0,1-.08.55,4.29,4.29,0,0,1-1.11.14c-1.91,0-2.67-1-2.67-3V14.51h-1.19a1.91,1.91,0,0,1,0-1.16h1.19V11.94a2.77,2.77,0,0,1,1.55-.31v1.72h2a1.53,1.53,0,0,1,.09.58,1.74,1.74,0,0,1-.09.58h-2Z"/><path class="cls-1" d="M340.59,22.69c-.56,1.71-1.1,2.68-2.77,2.68a2.38,2.38,0,0,1-.86-.15,2,2,0,0,1-.1-.58A1.45,1.45,0,0,1,337,24a3.94,3.94,0,0,0,.7.07c.69,0,1.05-.19,1.52-1.65l.32-.94a1.68,1.68,0,0,1-.5-.11l-2.94-7.93a2.57,2.57,0,0,1,.81-.11,2.39,2.39,0,0,1,.8.11l1.77,4.71A14,14,0,0,1,340,20h.06s.16-.73.5-1.8l1.53-4.72a2.06,2.06,0,0,1,.76-.11,2.17,2.17,0,0,1,.73.11Z"/><path class="cls-1" d="M349.43,13.46a2.58,2.58,0,0,1,.79-.11,2.81,2.81,0,0,1,.76.1l-2.38,3.7,2.74,4.24a2.86,2.86,0,0,1-.87.12,2.54,2.54,0,0,1-.84-.12l-2.32-3.56h-.87v3.56a2.78,2.78,0,0,1-1.55,0V10a3.48,3.48,0,0,1,.79-.08,3.7,3.7,0,0,1,.76.08v6.71h.89Z"/><path class="cls-1" d="M355.58,13.2c2.14,0,3.44,1.16,3.44,4.23s-1.32,4.22-3.44,4.22-3.44-1.16-3.44-4.22S353.46,13.2,355.58,13.2Zm0,1.19c-1.13,0-1.86.65-1.86,3s.73,3,1.86,3,1.84-.65,1.84-3S356.71,14.39,355.58,14.39Z"/><path class="cls-1" d="M362.84,18.57c0,1.41.45,1.83,1.55,1.83a4.36,4.36,0,0,0,.65-.06,1.74,1.74,0,0,1,.11.62,1.82,1.82,0,0,1-.07.55,4.38,4.38,0,0,1-1.12.14c-1.91,0-2.66-1-2.66-3V14.51h-1.2a1.91,1.91,0,0,1,0-1.16h1.2V11.94a2.72,2.72,0,0,1,1.54-.31v1.72h2a1.53,1.53,0,0,1,.09.58,1.74,1.74,0,0,1-.09.58h-2Z"/><path class="cls-1" d="M367.72,17.91c.13,1.84.87,2.43,2.16,2.43a3.7,3.7,0,0,0,1.82-.45,1.6,1.6,0,0,1,.5,1.11,4.56,4.56,0,0,1-2.57.65c-2.39,0-3.5-1.47-3.5-4.27s1.38-4.18,3.44-4.18a2.79,2.79,0,0,1,3.06,3.11,6.64,6.64,0,0,1-.17,1.6Zm1.85-3.49c-1,0-1.72.67-1.85,2.39H371c0-.13,0-.38,0-.7C371.08,15.2,370.71,14.42,369.57,14.42Z"/><path class="cls-1" d="M377.73,13.21a2.43,2.43,0,0,1,1.35.39,1.76,1.76,0,0,1-.69,1.3,1.52,1.52,0,0,0-1-.32,2,2,0,0,0-1.59,1.17v5.64a2.16,2.16,0,0,1-.77.11,2,2,0,0,1-.78-.11V13.46a2,2,0,0,1,.78-.11,2.16,2.16,0,0,1,.77.11v1.07A2.26,2.26,0,0,1,377.73,13.21Z"/><path class="cls-1" d="M383.06,13.2c2.24,0,2.95,1,2.95,3v5.19a1.19,1.19,0,0,1-.6.11,1.55,1.55,0,0,1-.62-.11l-.23-1a2.49,2.49,0,0,1-2.43,1.25,2.26,2.26,0,0,1-2.4-2.58c0-1.69,1-2.43,3-2.43a16,16,0,0,1,1.77.09v-.57c0-1.06-.41-1.66-1.6-1.66a6.39,6.39,0,0,0-2.07.39,1.16,1.16,0,0,1-.36-.47,1.3,1.3,0,0,1-.09-.65A6.74,6.74,0,0,1,383.06,13.2Zm-.16,4.49c-1,0-1.58.4-1.58,1.38s.51,1.39,1.35,1.39a1.9,1.9,0,0,0,1.8-2.14v-.54C384.11,17.75,383.49,17.69,382.9,17.69Z"/><path class="cls-1" d="M391.84,13.2c1.76,0,2.91,1.07,2.91,4.23s-1.15,4.22-2.91,4.22a2.48,2.48,0,0,1-2.23-1V25a2.49,2.49,0,0,1-.79.1,2.24,2.24,0,0,1-.76-.1V13.46a2.06,2.06,0,0,1,.76-.11,2.29,2.29,0,0,1,.79.11v.74A2.48,2.48,0,0,1,391.84,13.2Zm-.54,1.27a1.75,1.75,0,0,0-1.69,2v2a1.77,1.77,0,0,0,1.69,2c1.23,0,1.85-.65,1.85-2.95S392.53,14.47,391.3,14.47Z"/><path class="cls-1" d="M398.14,11.79a2.39,2.39,0,0,1-.8.11,2.21,2.21,0,0,1-.81-.11V10.33a2.21,2.21,0,0,1,.81-.11,2.39,2.39,0,0,1,.8.11Zm0,9.6a2.16,2.16,0,0,1-.77.11,2,2,0,0,1-.78-.11V13.46a2,2,0,0,1,.78-.11,2.16,2.16,0,0,1,.77.11Z"/><path class="cls-1" d="M401.86,11.79a2.42,2.42,0,0,1-.81.11,2.18,2.18,0,0,1-.8-.11V10.33a2.18,2.18,0,0,1,.8-.11,2.42,2.42,0,0,1,.81.11Zm0,9.6a2.19,2.19,0,0,1-.78.11,2,2,0,0,1-.77-.11V13.46a2,2,0,0,1,.77-.11,2.19,2.19,0,0,1,.78.11Z"/><path class="cls-1" d="M77.82,35.78a10.33,10.33,0,0,1-.42-2.23h-.06a10,10,0,0,1-.44,2.23L75.68,40a3.28,3.28,0,0,1-.88.1,3.54,3.54,0,0,1-.9-.1l-2.34-7.93a2.29,2.29,0,0,1,.77-.11,1.22,1.22,0,0,1,.67.11L74.47,37a10.45,10.45,0,0,1,.33,1.51h0A13,13,0,0,1,75.19,37l1.42-4.94a3.27,3.27,0,0,1,.84-.11,2,2,0,0,1,.75.11L79.58,37a8.49,8.49,0,0,1,.31,1.54h0A13.61,13.61,0,0,1,80.33,37l1.45-4.92a1.83,1.83,0,0,1,.68-.11,1.46,1.46,0,0,1,.67.11L80.79,40a3.54,3.54,0,0,1-.88.1A3.71,3.71,0,0,1,79,40Z"/><path class="cls-1" d="M85.73,36.49c.13,1.84.87,2.43,2.16,2.43a3.7,3.7,0,0,0,1.82-.45,1.63,1.63,0,0,1,.5,1.12,4.56,4.56,0,0,1-2.57.65c-2.39,0-3.5-1.47-3.5-4.27s1.38-4.19,3.44-4.19a2.8,2.8,0,0,1,3.06,3.12,6.6,6.6,0,0,1-.17,1.59ZM87.58,33c-1,0-1.72.66-1.85,2.38h3.32c0-.12,0-.37,0-.69C89.09,33.78,88.72,33,87.58,33Z"/><path class="cls-1" d="M101.14,35.78a11.78,11.78,0,0,1-.42-2.23h-.06a9.81,9.81,0,0,1-.43,2.23L99,40a3.36,3.36,0,0,1-.89.1,3.65,3.65,0,0,1-.9-.1l-2.33-7.93a2.22,2.22,0,0,1,.77-.11,1.22,1.22,0,0,1,.67.11L97.8,37a9,9,0,0,1,.32,1.51h0A12.52,12.52,0,0,1,98.51,37l1.43-4.94a3.24,3.24,0,0,1,.83-.11,2.06,2.06,0,0,1,.76.11L102.91,37a8.49,8.49,0,0,1,.31,1.54h0c.07-.32.18-.82.39-1.53l1.46-4.92a1.83,1.83,0,0,1,.68-.11,1.38,1.38,0,0,1,.66.11L104.12,40a3.57,3.57,0,0,1-.89.1,3.68,3.68,0,0,1-.89-.1Z"/><path class="cls-1" d="M110.37,31.78a4.42,4.42,0,0,1,2.19.42,1.6,1.6,0,0,1-.4,1.1,5.77,5.77,0,0,0-1.63-.25c-1,0-1.58.39-1.58,1.12s1,.94,2,1.27,2.06.8,2.06,2.32-1,2.48-2.94,2.48a5.51,5.51,0,0,1-2.59-.56,1.56,1.56,0,0,1,.42-1.14,6.74,6.74,0,0,0,2.09.38c1,0,1.49-.35,1.49-1.11s-.85-1-1.77-1.3-2.2-.76-2.2-2.29S108.41,31.78,110.37,31.78Z"/><path class="cls-1" d="M118.35,31.78c1.77,0,2.91,1.07,2.91,4.23s-1.14,4.23-2.91,4.23a2.46,2.46,0,0,1-2.23-1v4.34a2.66,2.66,0,0,1-.79.09,2.47,2.47,0,0,1-.76-.09V32.05a2.06,2.06,0,0,1,.76-.11,2.22,2.22,0,0,1,.79.11v.74A2.49,2.49,0,0,1,118.35,31.78Zm-.54,1.27a1.75,1.75,0,0,0-1.69,2v2a1.77,1.77,0,0,0,1.69,2c1.24,0,1.86-.65,1.86-3S119.05,33.05,117.81,33.05Z"/><path class="cls-1" d="M126.13,31.78c2.13,0,3.43,1.17,3.43,4.23s-1.31,4.23-3.43,4.23-3.44-1.16-3.44-4.23S124,31.78,126.13,31.78Zm0,1.2c-1.14,0-1.86.65-1.86,3s.72,3,1.86,3S128,38.4,128,36,127.26,33,126.13,33Z"/><path class="cls-1" d="M139.63,31.78a2.16,2.16,0,0,1,2.31,2.34V40a2.38,2.38,0,0,1-.78.1,2.14,2.14,0,0,1-.77-.1V34.4A1.19,1.19,0,0,0,139,33a2,2,0,0,0-1.65,1V40a2.39,2.39,0,0,1-.76.1,2.17,2.17,0,0,1-.78-.1V34.4A1.19,1.19,0,0,0,134.5,33a2,2,0,0,0-1.65,1v6a2.39,2.39,0,0,1-.76.1,2.24,2.24,0,0,1-.78-.1V32.05a2.06,2.06,0,0,1,.78-.11,2.19,2.19,0,0,1,.76.11v.69a2.89,2.89,0,0,1,2.23-1,2.08,2.08,0,0,1,2,1.13A3.16,3.16,0,0,1,139.63,31.78Z"/><path class="cls-1" d="M146.82,31.78c2.24,0,3,1,3,3V40a1.32,1.32,0,0,1-.61.1,1.69,1.69,0,0,1-.62-.1l-.23-1a2.48,2.48,0,0,1-2.43,1.25c-1.46,0-2.4-.85-2.4-2.59s1-2.43,3-2.43c.7,0,1.36.05,1.77.09v-.57c0-1.05-.41-1.66-1.6-1.66a6.39,6.39,0,0,0-2.07.39,1.08,1.08,0,0,1-.36-.46,1.31,1.31,0,0,1-.09-.65A6.65,6.65,0,0,1,146.82,31.78Zm-.16,4.5c-1,0-1.58.4-1.58,1.37s.51,1.4,1.35,1.4a1.9,1.9,0,0,0,1.8-2.14v-.54C147.87,36.34,147.25,36.28,146.66,36.28Z"/><path class="cls-1" d="M158.43,31.78a1.85,1.85,0,0,1,0,1.23L157.15,33a2.83,2.83,0,0,1,.43,1.62c0,1.74-1,2.79-3,2.79a4.86,4.86,0,0,1-.69,0,1.37,1.37,0,0,0-.29.9c.17,1.43,4.85-.09,4.85,3.1,0,1.52-1.47,2.65-4,2.65-2.33,0-3.3-.92-3.3-2.16a2.62,2.62,0,0,1,1.38-2.13,1.21,1.21,0,0,1-.34-.9,2.77,2.77,0,0,1,.74-1.72,2.52,2.52,0,0,1-1.41-2.48c0-1.73,1.05-2.79,3-2.79a3.71,3.71,0,0,1,1.71.36Zm-5.08,8.3a1.9,1.9,0,0,0-.71,1.41c0,.78.57,1.37,1.84,1.37,1.6,0,2.47-.58,2.47-1.4C157,40.19,154.75,40.52,153.35,40.08Zm1.2-7.21a1.49,1.49,0,0,0-1.57,1.7,1.48,1.48,0,0,0,1.57,1.69c.93,0,1.54-.53,1.54-1.69S155.48,32.87,154.55,32.87Z"/><path class="cls-1" d="M162.71,31.78c2.24,0,3,1,3,3V40a1.32,1.32,0,0,1-.61.1,1.69,1.69,0,0,1-.62-.1l-.23-1a2.48,2.48,0,0,1-2.43,1.25c-1.46,0-2.4-.85-2.4-2.59s1-2.43,3-2.43c.7,0,1.36.05,1.77.09v-.57c0-1.05-.41-1.66-1.6-1.66a6.39,6.39,0,0,0-2.07.39,1.08,1.08,0,0,1-.36-.46,1.31,1.31,0,0,1-.09-.65A6.65,6.65,0,0,1,162.71,31.78Zm-.16,4.5c-1,0-1.58.4-1.58,1.37s.51,1.4,1.35,1.4a1.9,1.9,0,0,0,1.8-2.14v-.54C163.76,36.34,163.14,36.28,162.55,36.28Z"/><path class="cls-1" d="M174,40a2.38,2.38,0,0,1-.78.1,2.28,2.28,0,0,1-.77-.1V34.4c0-.87-.45-1.36-1.44-1.36a2.12,2.12,0,0,0-1.75,1V40a2.5,2.5,0,0,1-.77.1,2.17,2.17,0,0,1-.78-.1V32.05a2,2,0,0,1,.78-.11,2.29,2.29,0,0,1,.77.11v.71a3,3,0,0,1,2.34-1,2.19,2.19,0,0,1,2.4,2.34Z"/><path class="cls-1" d="M177.67,30.37a2.42,2.42,0,0,1-.81.11,2.18,2.18,0,0,1-.8-.11V28.92a2.18,2.18,0,0,1,.8-.11,2.42,2.42,0,0,1,.81.11Zm0,9.61a2.38,2.38,0,0,1-.78.1,2.14,2.14,0,0,1-.77-.1V32.05a2,2,0,0,1,.77-.11,2.19,2.19,0,0,1,.78.11Z"/><path class="cls-1" d="M179.71,32.05a2.25,2.25,0,0,1,.78-.11,2.09,2.09,0,0,1,.77.11v5.57c0,.87.45,1.37,1.44,1.37a2.1,2.1,0,0,0,1.75-1V32.05a2.32,2.32,0,0,1,.78-.11,2,2,0,0,1,.77.11V40a2.14,2.14,0,0,1-.77.1,2.54,2.54,0,0,1-.78-.1v-.72a3,3,0,0,1-2.34,1,2.2,2.2,0,0,1-2.4-2.34Z"/><path class="cls-1" d="M195.22,31.78c1.76,0,2.91,1.07,2.91,4.23s-1.15,4.23-2.91,4.23a2.46,2.46,0,0,1-2.23-1v4.34a2.75,2.75,0,0,1-.79.09,2.47,2.47,0,0,1-.76-.09V32.05a2.06,2.06,0,0,1,.76-.11,2.29,2.29,0,0,1,.79.11v.74A2.49,2.49,0,0,1,195.22,31.78Zm-.55,1.27A1.75,1.75,0,0,0,193,35v2a1.77,1.77,0,0,0,1.68,2c1.24,0,1.86-.65,1.86-3S195.91,33.05,194.67,33.05Z"/><path class="cls-1" d="M203.35,31.8a2.43,2.43,0,0,1,1.35.39,1.78,1.78,0,0,1-.69,1.3,1.53,1.53,0,0,0-1-.33,2,2,0,0,0-1.59,1.18V40a2.35,2.35,0,0,1-.77.1,2.17,2.17,0,0,1-.78-.1V32.05a2,2,0,0,1,.78-.11,2.16,2.16,0,0,1,.77.11v1.07A2.26,2.26,0,0,1,203.35,31.8Z"/><path class="cls-1" d="M208.94,31.78c2.14,0,3.44,1.17,3.44,4.23s-1.32,4.23-3.44,4.23S205.5,39.08,205.5,36,206.82,31.78,208.94,31.78Zm0,1.2c-1.13,0-1.86.65-1.86,3s.73,3,1.86,3,1.84-.65,1.84-3S210.07,33,208.94,33Z"/><path class="cls-1" d="M215.37,36c0,2,.65,2.91,2.13,2.91a4,4,0,0,0,1.46-.26,1.66,1.66,0,0,1,.45,1.12,4.24,4.24,0,0,1-2.23.46c-2.26,0-3.41-1.47-3.41-4.23s1.15-4.23,3.41-4.23a4,4,0,0,1,2.07.39,1.63,1.63,0,0,1-.44,1.12,3.73,3.73,0,0,0-1.37-.24C216,33.05,215.37,34,215.37,36Z"/><path class="cls-1" d="M222.14,36.49c.12,1.84.86,2.43,2.15,2.43a3.76,3.76,0,0,0,1.83-.45,1.58,1.58,0,0,1,.49,1.12,4.56,4.56,0,0,1-2.57.65c-2.38,0-3.5-1.47-3.5-4.27s1.38-4.19,3.44-4.19a2.81,2.81,0,0,1,3.07,3.12,6.26,6.26,0,0,1-.18,1.59ZM224,33c-1,0-1.72.66-1.84,2.38h3.31a4.43,4.43,0,0,0,.05-.69C225.5,33.78,225.12,33,224,33Z"/><path class="cls-1" d="M231.26,31.78a4.35,4.35,0,0,1,2.18.42,1.6,1.6,0,0,1-.4,1.1,5.68,5.68,0,0,0-1.63-.25c-1,0-1.58.39-1.58,1.12s1,.94,1.95,1.27,2.06.8,2.06,2.32-1,2.48-2.94,2.48a5.49,5.49,0,0,1-2.58-.56,1.55,1.55,0,0,1,.41-1.14,6.74,6.74,0,0,0,2.09.38c1,0,1.49-.35,1.49-1.11s-.85-1-1.76-1.3c-1.06-.31-2.2-.76-2.2-2.29S229.29,31.78,231.26,31.78Z"/><path class="cls-1" d="M235.39,32.05a2.25,2.25,0,0,1,.78-.11,2.09,2.09,0,0,1,.77.11v5.57c0,.87.45,1.37,1.44,1.37a2.1,2.1,0,0,0,1.75-1V32.05a2.32,2.32,0,0,1,.78-.11,2,2,0,0,1,.77.11V40a2.14,2.14,0,0,1-.77.1,2.54,2.54,0,0,1-.78-.1v-.72a3,3,0,0,1-2.34,1,2.2,2.2,0,0,1-2.4-2.34Z"/><path class="cls-1" d="M253.73,31.78a1.85,1.85,0,0,1,0,1.23L252.45,33a2.83,2.83,0,0,1,.43,1.62c0,1.74-1,2.79-3,2.79a4.72,4.72,0,0,1-.68,0,1.37,1.37,0,0,0-.29.9c.17,1.43,4.85-.09,4.85,3.1,0,1.52-1.48,2.65-4,2.65-2.33,0-3.3-.92-3.3-2.16a2.64,2.64,0,0,1,1.37-2.13,1.25,1.25,0,0,1-.34-.9,2.78,2.78,0,0,1,.75-1.72,2.52,2.52,0,0,1-1.41-2.48c0-1.73,1.05-2.79,3-2.79a3.75,3.75,0,0,1,1.72.36Zm-5.08,8.3a1.87,1.87,0,0,0-.71,1.41c0,.78.57,1.37,1.84,1.37,1.6,0,2.46-.58,2.46-1.4C252.24,40.19,250,40.52,248.65,40.08Zm1.19-7.21c-.93,0-1.56.54-1.56,1.7a1.47,1.47,0,0,0,1.56,1.69c.93,0,1.55-.53,1.55-1.69S250.77,32.87,249.84,32.87Z"/><path class="cls-1" d="M258.27,31.78c2.14,0,3.44,1.17,3.44,4.23s-1.32,4.23-3.44,4.23-3.44-1.16-3.44-4.23S256.15,31.78,258.27,31.78Zm0,1.2c-1.13,0-1.86.65-1.86,3s.73,3,1.86,3,1.84-.65,1.84-3S259.4,33,258.27,33Z"/><path class="cls-1" d="M263.49,32.05a2,2,0,0,1,.77-.11,2.25,2.25,0,0,1,.78.11v9.4c0,1.64-.79,2.51-2.25,2.51a3.36,3.36,0,0,1-1-.14,2,2,0,0,1,.11-1.15,2.75,2.75,0,0,0,.58.06c.69,0,1.05-.37,1.05-1.22Zm1.58-1.69a2.42,2.42,0,0,1-.81.11,2.12,2.12,0,0,1-.8-.11V28.9a2.12,2.12,0,0,1,.8-.11,2.42,2.42,0,0,1,.81.11Z"/><path class="cls-1" d="M268.41,36.49c.13,1.84.87,2.43,2.16,2.43a3.7,3.7,0,0,0,1.82-.45,1.63,1.63,0,0,1,.5,1.12,4.56,4.56,0,0,1-2.57.65c-2.39,0-3.5-1.47-3.5-4.27s1.38-4.19,3.44-4.19a2.8,2.8,0,0,1,3.06,3.12,6.6,6.6,0,0,1-.17,1.59ZM270.26,33c-1,0-1.72.66-1.85,2.38h3.32c0-.12,0-.37,0-.69C271.77,33.78,271.4,33,270.26,33Z"/><path class="cls-1" d="M281.27,40a2.38,2.38,0,0,1-.78.1,2.28,2.28,0,0,1-.77-.1V34.4c0-.87-.45-1.36-1.44-1.36a2.12,2.12,0,0,0-1.75,1V40a2.5,2.5,0,0,1-.77.1A2.17,2.17,0,0,1,275,40V32.05a2,2,0,0,1,.78-.11,2.29,2.29,0,0,1,.77.11v.71a3,3,0,0,1,2.34-1,2.19,2.19,0,0,1,2.4,2.34Z"/><path class="cls-1" d="M284.94,30.37a2.42,2.42,0,0,1-.81.11,2.18,2.18,0,0,1-.8-.11V28.92a2.18,2.18,0,0,1,.8-.11,2.42,2.42,0,0,1,.81.11Zm0,9.61a2.38,2.38,0,0,1-.78.1,2.14,2.14,0,0,1-.77-.1V32.05a2,2,0,0,1,.77-.11,2.19,2.19,0,0,1,.78.11Z"/><path class="cls-1" d="M289.87,31.78c2.24,0,2.95,1,2.95,3V40a1.29,1.29,0,0,1-.6.1,1.69,1.69,0,0,1-.62-.1l-.23-1a2.5,2.5,0,0,1-2.43,1.25,2.27,2.27,0,0,1-2.41-2.59c0-1.68,1-2.43,3-2.43.7,0,1.36.05,1.76.09v-.57c0-1.05-.4-1.66-1.59-1.66a6.49,6.49,0,0,0-2.08.39,1.21,1.21,0,0,1-.35-.46,1.31,1.31,0,0,1-.09-.65A6.65,6.65,0,0,1,289.87,31.78Zm-.16,4.5c-1,0-1.58.4-1.58,1.37s.51,1.4,1.35,1.4c1.22,0,1.79-1,1.79-2.14v-.54C290.92,36.34,290.3,36.28,289.71,36.28Z"/><path class="cls-1" d="M303.71,35.78a11,11,0,0,1-.42-2.23h-.06a9.81,9.81,0,0,1-.43,2.23L301.57,40a3.23,3.23,0,0,1-.88.1,3.65,3.65,0,0,1-.9-.1l-2.34-7.93a2.32,2.32,0,0,1,.78-.11c.53,0,.66.11.66.11L300.37,37a9,9,0,0,1,.32,1.51h.05a12.52,12.52,0,0,1,.34-1.51l1.42-4.94a3.27,3.27,0,0,1,.84-.11,2.06,2.06,0,0,1,.76.11L305.48,37a8.49,8.49,0,0,1,.31,1.54h0c.07-.32.17-.82.39-1.53l1.46-4.92a1.77,1.77,0,0,1,.68-.11,1.38,1.38,0,0,1,.66.11L306.69,40a3.57,3.57,0,0,1-.89.1,3.82,3.82,0,0,1-.9-.1Z"/><path class="cls-1" d="M315,36c0,2,.66,2.91,2.14,2.91a4.08,4.08,0,0,0,1.46-.26,1.66,1.66,0,0,1,.45,1.12,4.24,4.24,0,0,1-2.23.46c-2.26,0-3.41-1.47-3.41-4.23s1.15-4.23,3.41-4.23a4,4,0,0,1,2.07.39,1.6,1.6,0,0,1-.45,1.12,3.64,3.64,0,0,0-1.36-.24C315.54,33.05,315,34,315,36Z"/><path class="cls-1" d="M326.77,40a2.35,2.35,0,0,1-.77.1,2.31,2.31,0,0,1-.78-.1V34.4c0-.87-.44-1.36-1.44-1.36A2.13,2.13,0,0,0,322,34V40a2.5,2.5,0,0,1-.77.1,2.14,2.14,0,0,1-.77-.1V28.58a2,2,0,0,1,.77-.11,2.29,2.29,0,0,1,.77.11v4.18a3,3,0,0,1,2.34-1,2.19,2.19,0,0,1,2.4,2.34Z"/><path class="cls-1" d="M330.44,30.37a2.39,2.39,0,0,1-.8.11,2.21,2.21,0,0,1-.81-.11V28.92a2.21,2.21,0,0,1,.81-.11,2.39,2.39,0,0,1,.8.11Zm0,9.61a2.35,2.35,0,0,1-.77.1,2.24,2.24,0,0,1-.78-.1V32.05a2.06,2.06,0,0,1,.78-.11,2.16,2.16,0,0,1,.77.11Z"/><path class="cls-1" d="M336,31.8a2.45,2.45,0,0,1,1.35.39,1.78,1.78,0,0,1-.69,1.3,1.53,1.53,0,0,0-1-.33,2,2,0,0,0-1.59,1.18V40a2.35,2.35,0,0,1-.77.1,2.17,2.17,0,0,1-.78-.1V32.05a2,2,0,0,1,.78-.11,2.16,2.16,0,0,1,.77.11v1.07A2.26,2.26,0,0,1,336,31.8Z"/><path class="cls-1" d="M338.44,32.05a2.16,2.16,0,0,1,.77-.11,2,2,0,0,1,.77.11v5.57c0,.87.45,1.37,1.44,1.37a2.08,2.08,0,0,0,1.75-1V32.05a2.32,2.32,0,0,1,.78-.11,2,2,0,0,1,.77.11V40a2.14,2.14,0,0,1-.77.1,2.54,2.54,0,0,1-.78-.1v-.72a3,3,0,0,1-2.33,1,2.19,2.19,0,0,1-2.4-2.34Z"/><path class="cls-1" d="M350.27,31.8a2.45,2.45,0,0,1,1.35.39,1.78,1.78,0,0,1-.69,1.3,1.53,1.53,0,0,0-1-.33,2,2,0,0,0-1.59,1.18V40a2.38,2.38,0,0,1-.78.1,2.14,2.14,0,0,1-.77-.1V32.05a2,2,0,0,1,.77-.11,2.19,2.19,0,0,1,.78.11v1.07A2.26,2.26,0,0,1,350.27,31.8Z"/><path class="cls-1" d="M359.39,31.78a1.85,1.85,0,0,1,0,1.23L358.1,33a2.76,2.76,0,0,1,.44,1.62c0,1.74-1,2.79-3,2.79a4.61,4.61,0,0,1-.68,0,1.37,1.37,0,0,0-.29.9c.17,1.43,4.84-.09,4.84,3.1,0,1.52-1.47,2.65-4,2.65-2.32,0-3.29-.92-3.29-2.16a2.64,2.64,0,0,1,1.37-2.13,1.25,1.25,0,0,1-.34-.9,2.78,2.78,0,0,1,.75-1.72,2.52,2.52,0,0,1-1.41-2.48c0-1.73,1-2.79,3-2.79a3.75,3.75,0,0,1,1.72.36Zm-5.08,8.3a1.87,1.87,0,0,0-.71,1.41c0,.78.57,1.37,1.84,1.37,1.6,0,2.46-.58,2.46-1.4C357.9,40.19,355.7,40.52,354.31,40.08Zm1.19-7.21c-.93,0-1.56.54-1.56,1.7a1.47,1.47,0,0,0,1.56,1.69c.93,0,1.55-.53,1.55-1.69S356.43,32.87,355.5,32.87Z"/><path class="cls-1" d="M362.46,30.37a2.42,2.42,0,0,1-.81.11,2.12,2.12,0,0,1-.8-.11V28.92a2.12,2.12,0,0,1,.8-.11,2.42,2.42,0,0,1,.81.11Zm0,9.61a2.46,2.46,0,0,1-.78.1,2.14,2.14,0,0,1-.77-.1V32.05a2,2,0,0,1,.77-.11,2.25,2.25,0,0,1,.78.11Z"/><path class="cls-1" d="M366.17,30.37a2.32,2.32,0,0,1-.8.11,2.21,2.21,0,0,1-.81-.11V28.92a2.21,2.21,0,0,1,.81-.11,2.32,2.32,0,0,1,.8.11Zm0,9.61a2.35,2.35,0,0,1-.77.1,2.24,2.24,0,0,1-.78-.1V32.05a2.06,2.06,0,0,1,.78-.11,2.16,2.16,0,0,1,.77.11Z"/><path class="cls-1" d="M73.91,49a2.32,2.32,0,0,1-.8.11A2.21,2.21,0,0,1,72.3,49V47.5a2.41,2.41,0,0,1,.81-.1,2.53,2.53,0,0,1,.8.1Zm0,9.6a2.16,2.16,0,0,1-.77.11,2.06,2.06,0,0,1-.78-.11V50.63a2.06,2.06,0,0,1,.78-.11,2.16,2.16,0,0,1,.77.11Z"/><path class="cls-1" d="M84.34,50.37a2.16,2.16,0,0,1,2.31,2.34v5.85a2.25,2.25,0,0,1-.78.11,2,2,0,0,1-.77-.11V53a1.2,1.2,0,0,0-1.35-1.37,1.94,1.94,0,0,0-1.66,1v5.94a2.12,2.12,0,0,1-.76.11,2,2,0,0,1-.77-.11V53a1.2,1.2,0,0,0-1.35-1.37,2.09,2.09,0,0,0-1.66,1v6a2.1,2.1,0,0,1-.75.11,2,2,0,0,1-.78-.11V50.63a2,2,0,0,1,.78-.11,2.1,2.1,0,0,1,.75.11v.7a2.92,2.92,0,0,1,2.23-1,2.07,2.07,0,0,1,2,1.13A3.11,3.11,0,0,1,84.34,50.37Z"/><path class="cls-1" d="M92.49,50.37c1.76,0,2.91,1.07,2.91,4.23s-1.15,4.23-2.91,4.23a2.49,2.49,0,0,1-2.23-1v4.34a2.75,2.75,0,0,1-.79.09,2.39,2.39,0,0,1-.76-.09V50.63a2,2,0,0,1,.76-.11,2.29,2.29,0,0,1,.79.11v.75A2.46,2.46,0,0,1,92.49,50.37Zm-.55,1.27a1.75,1.75,0,0,0-1.68,2v2a1.77,1.77,0,0,0,1.68,2c1.24,0,1.86-.65,1.86-3S93.18,51.64,91.94,51.64Z"/><path class="cls-1" d="M98.77,58.56a2.16,2.16,0,0,1-.77.11,2.06,2.06,0,0,1-.78-.11V47.16a2.06,2.06,0,0,1,.78-.11,2.16,2.16,0,0,1,.77.11Z"/><path class="cls-1" d="M103.74,50.37c2.25,0,3,1,3,3v5.19a1.19,1.19,0,0,1-.6.11,1.55,1.55,0,0,1-.62-.11l-.23-1a2.51,2.51,0,0,1-2.43,1.26,2.27,2.27,0,0,1-2.41-2.59c0-1.69,1-2.43,3-2.43a15.62,15.62,0,0,1,1.76.09v-.57c0-1.06-.4-1.66-1.59-1.66a6.49,6.49,0,0,0-2.08.39,1.31,1.31,0,0,1-.35-.47,1.37,1.37,0,0,1-.1-.65A6.8,6.8,0,0,1,103.74,50.37Zm-.15,4.49c-1,0-1.58.4-1.58,1.38s.51,1.39,1.35,1.39c1.22,0,1.79-1,1.79-2.13V55C104.8,54.92,104.18,54.86,103.59,54.86Z"/><path class="cls-1" d="M115,58.56a2.25,2.25,0,0,1-.78.11,2,2,0,0,1-.77-.11V53c0-.87-.45-1.37-1.44-1.37a2.13,2.13,0,0,0-1.75,1v5.94a2.32,2.32,0,0,1-.78.11,2,2,0,0,1-.77-.11V50.63a2,2,0,0,1,.77-.11,2.32,2.32,0,0,1,.78.11v.72a3,3,0,0,1,2.33-1A2.19,2.19,0,0,1,115,52.71Z"/><path class="cls-1" d="M119.17,55.74c0,1.41.45,1.83,1.55,1.83a4.36,4.36,0,0,0,.65-.06,1.74,1.74,0,0,1,.11.62,1.64,1.64,0,0,1-.08.56,4.85,4.85,0,0,1-1.11.14c-1.91,0-2.67-1-2.67-3V51.69h-1.19a1.67,1.67,0,0,1-.09-.58,1.63,1.63,0,0,1,.09-.59h1.19v-1.4a2.61,2.61,0,0,1,1.55-.31v1.71h2a1.6,1.6,0,0,1,.09.58,1.84,1.84,0,0,1-.09.59h-2Z"/><path class="cls-1" d="M125.89,50.37c2.14,0,3.44,1.16,3.44,4.23s-1.32,4.23-3.44,4.23-3.44-1.17-3.44-4.23S123.77,50.37,125.89,50.37Zm0,1.19c-1.13,0-1.86.65-1.86,3s.73,3,1.86,3,1.85-.65,1.85-3S127,51.56,125.89,51.56Z"/><path class="cls-1" d="M132.68,58.56a2.25,2.25,0,0,1-.78.11,2,2,0,0,1-.77-.11V47.16a2,2,0,0,1,.77-.11,2.25,2.25,0,0,1,.78.11Z"/><path class="cls-1" d="M137.91,50.37c2.14,0,3.44,1.16,3.44,4.23s-1.32,4.23-3.44,4.23-3.44-1.17-3.44-4.23S135.79,50.37,137.91,50.37Zm0,1.19c-1.13,0-1.86.65-1.86,3s.73,3,1.86,3,1.84-.65,1.84-3S139,51.56,137.91,51.56Z"/><path class="cls-1" d="M149.71,50.37a1.82,1.82,0,0,1,0,1.22l-1.28-.06a2.87,2.87,0,0,1,.43,1.63c0,1.73-1,2.79-3,2.79a4.86,4.86,0,0,1-.69-.05,1.37,1.37,0,0,0-.29.9c.17,1.42,4.85-.1,4.85,3.09,0,1.52-1.47,2.65-4,2.65-2.33,0-3.3-.91-3.3-2.15a2.62,2.62,0,0,1,1.38-2.14,1.19,1.19,0,0,1-.34-.9,2.72,2.72,0,0,1,.74-1.71,2.54,2.54,0,0,1-1.41-2.48c0-1.74,1.05-2.79,3-2.79a3.58,3.58,0,0,1,1.71.36Zm-5.08,8.3a1.9,1.9,0,0,0-.71,1.41c0,.77.57,1.36,1.84,1.36,1.6,0,2.47-.57,2.47-1.39C148.23,58.78,146,59.1,144.63,58.67Zm1.2-7.22a1.49,1.49,0,0,0-1.57,1.71,1.48,1.48,0,0,0,1.57,1.69c.93,0,1.54-.53,1.54-1.69S146.76,51.45,145.83,51.45Z"/><path class="cls-1" d="M152.78,49a2.42,2.42,0,0,1-.81.11,2.18,2.18,0,0,1-.8-.11V47.5a2.38,2.38,0,0,1,.8-.1,2.64,2.64,0,0,1,.81.1Zm0,9.6a2.19,2.19,0,0,1-.78.11,2,2,0,0,1-.77-.11V50.63a2,2,0,0,1,.77-.11,2.19,2.19,0,0,1,.78.11Z"/><path class="cls-1" d="M156.12,54.6c0,2,.66,2.91,2.14,2.91a4.08,4.08,0,0,0,1.46-.26,1.66,1.66,0,0,1,.45,1.11,4.17,4.17,0,0,1-2.23.47c-2.26,0-3.41-1.48-3.41-4.23s1.15-4.23,3.41-4.23a4,4,0,0,1,2.07.39,1.57,1.57,0,0,1-.45,1.11,3.78,3.78,0,0,0-1.36-.23C156.71,51.64,156.12,52.58,156.12,54.6Z"/><path class="cls-1" d="M167,57.4A1.84,1.84,0,0,1,167,58a2,2,0,0,1-.09.63h-5.74a2.56,2.56,0,0,1-.1-.67,2,2,0,0,1,.1-.6l4.12-5.61h-3.86a2.18,2.18,0,0,1-.09-.65,1.78,1.78,0,0,1,.09-.62H167a1.67,1.67,0,0,1,.09.61,2.1,2.1,0,0,1-.09.66l-4.1,5.61Z"/><path class="cls-1" d="M175,58.56a2.16,2.16,0,0,1-.77.11,2.12,2.12,0,0,1-.78-.11V53c0-.87-.45-1.37-1.44-1.37a2.13,2.13,0,0,0-1.75,1v5.94a2.29,2.29,0,0,1-.77.11,2.06,2.06,0,0,1-.78-.11V50.63a2.06,2.06,0,0,1,.78-.11,2.29,2.29,0,0,1,.77.11v.72a3,3,0,0,1,2.34-1,2.19,2.19,0,0,1,2.4,2.34Z"/><path class="cls-1" d="M178.32,55.08c.12,1.84.87,2.43,2.15,2.43a3.76,3.76,0,0,0,1.83-.45,1.63,1.63,0,0,1,.5,1.12,4.61,4.61,0,0,1-2.58.65c-2.38,0-3.5-1.48-3.5-4.28s1.38-4.18,3.44-4.18a2.79,2.79,0,0,1,3.07,3.11,6.64,6.64,0,0,1-.17,1.6Zm1.84-3.49c-1,0-1.72.67-1.84,2.39h3.31a4.59,4.59,0,0,0,.05-.7C181.68,52.37,181.31,51.59,180.16,51.59Z"/><path class="cls-1" d="M184.92,50.63a2,2,0,0,1,.77-.11,2.25,2.25,0,0,1,.78.11V60c0,1.65-.79,2.51-2.25,2.51a3.36,3.36,0,0,1-1-.14,1.5,1.5,0,0,1,0-.35,1.6,1.6,0,0,1,.15-.79,2.75,2.75,0,0,0,.58.06c.69,0,1-.37,1-1.22Zm1.58-1.69a2.42,2.42,0,0,1-.81.11,2.12,2.12,0,0,1-.8-.11V47.49a2.12,2.12,0,0,1,.8-.11,2.42,2.42,0,0,1,.81.11Z"/><path class="cls-1" d="M189.84,46.55a8.73,8.73,0,0,0,0,8.15.64.64,0,0,1-.28.26,1,1,0,0,1-.39.1,8.61,8.61,0,0,1,0-8.87.8.8,0,0,1,.38.1A.63.63,0,0,1,189.84,46.55Z"/><path class="cls-1" d="M190.7,47.61a4.28,4.28,0,0,1,1.67-.33c1.09,0,2,.46,2,1.65s-.65,1.53-1.73,2.18c-.53.34-1.27.65-1.27,1.39a.88.88,0,0,0,0,.2h2.82a.8.8,0,0,1,.09.41.94.94,0,0,1-.09.4h-3.66a3.36,3.36,0,0,1-.06-.6c0-1.41.91-1.92,1.75-2.46s1.2-.81,1.2-1.49-.36-.93-1.19-.93a4.16,4.16,0,0,0-1.27.23A.68.68,0,0,1,190.7,47.61Z"/><path class="cls-1" d="M195,46.55a.7.7,0,0,1,.3-.26.8.8,0,0,1,.38-.1,8.61,8.61,0,0,1,0,8.87,1,1,0,0,1-.39-.1.71.71,0,0,1-.29-.26,8.65,8.65,0,0,0,0-8.15Z"/><polyline class="cls-2" points="41.34 6.57 60.34 34.7 41.34 62.93"/></svg>