<svg id="Warstwa_1" data-name="Warstwa 1" xmlns="http://www.w3.org/2000/svg" viewBox="0 0 530 70"><defs><style>.cls-1{fill:#005ca6;}.cls-2{fill:none;stroke:#ccd513;stroke-miterlimit:10;stroke-width:1.85px;}</style></defs><title>antyseptyka_mozliwa</title><path class="cls-1" d="M48.31,10.35a3.31,3.31,0,0,1,.93.11l3.88,10.93a2.55,2.55,0,0,1-.85.11,2.09,2.09,0,0,1-.77-.11l-1-2.73H46l-1,2.73a2.19,2.19,0,0,1-.76.11,2,2,0,0,1-.73-.11l3.89-10.93A3.68,3.68,0,0,1,48.31,10.35Zm-.08,1.72s-.14.62-.4,1.39L46.4,17.38h3.69l-1.41-3.92a11.78,11.78,0,0,1-.4-1.39Z"/><path class="cls-1" d="M56.9,13.2a4.42,4.42,0,0,1,2.19.42,1.56,1.56,0,0,1-.41,1.1,5.65,5.65,0,0,0-1.62-.25c-1.06,0-1.58.38-1.58,1.11s1,1,2,1.27,2.06.81,2.06,2.33-1,2.47-2.94,2.47A5.59,5.59,0,0,1,54,21.1,1.58,1.58,0,0,1,54.38,20a6.51,6.51,0,0,0,2.09.39c.94,0,1.49-.36,1.49-1.12s-.86-1-1.77-1.3S54,17.16,54,15.63,54.94,13.2,56.9,13.2Z"/><path class="cls-1" d="M62.34,17.91c.12,1.84.87,2.43,2.15,2.43a3.76,3.76,0,0,0,1.83-.45,1.6,1.6,0,0,1,.5,1.11,4.61,4.61,0,0,1-2.58.65c-2.38,0-3.5-1.47-3.5-4.27s1.38-4.18,3.44-4.18a2.79,2.79,0,0,1,3.07,3.11,6.64,6.64,0,0,1-.17,1.6Zm1.84-3.49c-1,0-1.72.67-1.84,2.39h3.31a4.71,4.71,0,0,0,0-.7C65.7,15.2,65.33,14.42,64.18,14.42Z"/><path class="cls-1" d="M72.68,13.2c1.77,0,2.92,1.07,2.92,4.23s-1.15,4.22-2.92,4.22a2.47,2.47,0,0,1-2.22-1V25a2.49,2.49,0,0,1-.79.1,2.17,2.17,0,0,1-.76-.1V13.46a2,2,0,0,1,.76-.11,2.29,2.29,0,0,1,.79.11v.74A2.47,2.47,0,0,1,72.68,13.2Zm-.54,1.27a1.75,1.75,0,0,0-1.68,2v2a1.77,1.77,0,0,0,1.68,2c1.24,0,1.86-.65,1.86-2.95S73.38,14.47,72.14,14.47Z"/><path class="cls-1" d="M79.45,18.57c0,1.41.45,1.83,1.55,1.83a4.36,4.36,0,0,0,.65-.06,1.74,1.74,0,0,1,.11.62,1.61,1.61,0,0,1-.08.55,4.29,4.29,0,0,1-1.11.14c-1.91,0-2.67-1-2.67-3V14.51H76.71a1.91,1.91,0,0,1,0-1.16H77.9V11.94a2.77,2.77,0,0,1,1.55-.31v1.72h2a1.53,1.53,0,0,1,.09.58,1.74,1.74,0,0,1-.09.58h-2Z"/><path class="cls-1" d="M86.78,22.69c-.56,1.71-1.1,2.68-2.77,2.68a2.38,2.38,0,0,1-.86-.15,2,2,0,0,1-.1-.58,1.45,1.45,0,0,1,.12-.62,3.94,3.94,0,0,0,.7.07c.69,0,1-.19,1.51-1.65l.33-.94a1.56,1.56,0,0,1-.5-.11l-2.94-7.93a2.57,2.57,0,0,1,.81-.11,2.39,2.39,0,0,1,.8.11l1.77,4.71A14,14,0,0,1,86.19,20h.06s.16-.73.5-1.8l1.53-4.72a2.06,2.06,0,0,1,.76-.11,2.17,2.17,0,0,1,.73.11Z"/><path class="cls-1" d="M95.62,13.46a2.58,2.58,0,0,1,.79-.11,2.81,2.81,0,0,1,.76.1l-2.38,3.7,2.74,4.24a2.86,2.86,0,0,1-.87.12,2.54,2.54,0,0,1-.84-.12L93.5,17.83h-.87v3.56a2.46,2.46,0,0,1-.75.11,2.43,2.43,0,0,1-.79-.11V10a3.37,3.37,0,0,1,.79-.08,3.66,3.66,0,0,1,.75.08v6.71h.89Z"/><path class="cls-1" d="M101.51,13.2c2.24,0,3,1,3,3v5.19a1.22,1.22,0,0,1-.61.11,1.55,1.55,0,0,1-.62-.11l-.23-1a2.48,2.48,0,0,1-2.43,1.25,2.26,2.26,0,0,1-2.4-2.58c0-1.69,1-2.43,3-2.43a16,16,0,0,1,1.77.09v-.57c0-1.06-.41-1.66-1.6-1.66a6.39,6.39,0,0,0-2.07.39,1.26,1.26,0,0,1-.36-.47,1.3,1.3,0,0,1-.09-.65A6.74,6.74,0,0,1,101.51,13.2Zm-.16,4.49c-1,0-1.58.4-1.58,1.38s.51,1.39,1.35,1.39a1.9,1.9,0,0,0,1.8-2.14v-.54C102.56,17.75,101.94,17.69,101.35,17.69Z"/><path class="cls-1" d="M118.16,13.2a2.15,2.15,0,0,1,2.3,2.34v5.85a2.16,2.16,0,0,1-.77.11,2,2,0,0,1-.77-.11V15.81a1.2,1.2,0,0,0-1.35-1.36,2,2,0,0,0-1.66,1v6a2.12,2.12,0,0,1-.76.11,2,2,0,0,1-.77-.11V15.81A1.2,1.2,0,0,0,113,14.45a2.06,2.06,0,0,0-1.66,1v6a2.1,2.1,0,0,1-.75.11,2,2,0,0,1-.78-.11V13.46a2,2,0,0,1,.78-.11,2.1,2.1,0,0,1,.75.11v.7a2.92,2.92,0,0,1,2.23-1,2.07,2.07,0,0,1,2,1.13A3.11,3.11,0,0,1,118.16,13.2Z"/><path class="cls-1" d="M125.61,13.2c2.13,0,3.44,1.16,3.44,4.23s-1.32,4.22-3.44,4.22-3.44-1.16-3.44-4.22S123.49,13.2,125.61,13.2Zm0,1.19c-1.13,0-1.86.65-1.86,3s.73,3,1.86,3,1.84-.65,1.84-3S126.74,14.39,125.61,14.39Z"/><path class="cls-1" d="M136.09,20.23a1.65,1.65,0,0,1,.1.63,1.88,1.88,0,0,1-.1.64h-5.74a2.63,2.63,0,0,1-.1-.67,1.92,1.92,0,0,1,.1-.6l4.12-5.61h-3.86a2.18,2.18,0,0,1-.09-.65,1.78,1.78,0,0,1,.09-.62h5.48a1.65,1.65,0,0,1,.1.61,2.13,2.13,0,0,1-.1.66L132,20.23Zm-1.9-8.41a2.6,2.6,0,0,1-.75.09,2.25,2.25,0,0,1-.74-.09V10.49a2,2,0,0,1,.74-.1,2.36,2.36,0,0,1,.75.1Z"/><path class="cls-1" d="M139.47,21.39a2.19,2.19,0,0,1-.78.11,2,2,0,0,1-.77-.11V10a2,2,0,0,1,.77-.11,2.19,2.19,0,0,1,.78.11Z"/><path class="cls-1" d="M143.23,11.79a2.39,2.39,0,0,1-.8.11,2.21,2.21,0,0,1-.81-.11V10.33a2.21,2.21,0,0,1,.81-.11,2.39,2.39,0,0,1,.8.11Zm0,9.6a2.16,2.16,0,0,1-.77.11,2,2,0,0,1-.78-.11V13.46a2,2,0,0,1,.78-.11,2.16,2.16,0,0,1,.77.11Z"/><path class="cls-1" d="M150.85,17.19a11.78,11.78,0,0,1-.42-2.23h-.06a9.71,9.71,0,0,1-.43,2.23l-1.22,4.2a3,3,0,0,1-.89.11,3.22,3.22,0,0,1-.9-.11l-2.33-7.93a2.29,2.29,0,0,1,.77-.11,1.22,1.22,0,0,1,.67.11l1.47,4.94a9,9,0,0,1,.32,1.52h0a12.58,12.58,0,0,1,.34-1.52l1.43-4.94a3.24,3.24,0,0,1,.83-.11,2.06,2.06,0,0,1,.76.11l1.38,4.91a8.55,8.55,0,0,1,.31,1.55h0c.07-.33.18-.82.39-1.53l1.46-4.93a1.83,1.83,0,0,1,.68-.11,1.46,1.46,0,0,1,.67.11l-2.34,7.93a3.15,3.15,0,0,1-.89.11,3.24,3.24,0,0,1-.89-.11Z"/><path class="cls-1" d="M160.35,13.2c2.24,0,3,1,3,3v5.21c-1,.28-1.54.88-1.54,1.5,0,.39.22.68.81.68a1.5,1.5,0,0,0,.54-.11,1,1,0,0,1,.25.7,2.29,2.29,0,0,1-1.06.28c-1,0-1.64-.53-1.64-1.34a2.11,2.11,0,0,1,1.41-1.78l-.23-.94a2.48,2.48,0,0,1-2.43,1.25,2.26,2.26,0,0,1-2.4-2.58c0-1.66,1-2.43,3-2.43a16,16,0,0,1,1.77.09v-.61c0-1.11-.39-1.62-1.6-1.62a6.39,6.39,0,0,0-2.07.39,1.26,1.26,0,0,1-.36-.47,1.3,1.3,0,0,1-.09-.65A6.74,6.74,0,0,1,160.35,13.2Zm-.16,4.49c-1,0-1.58.42-1.58,1.38A1.21,1.21,0,0,0,160,20.46a1.91,1.91,0,0,0,1.8-2.15v-.53C161.4,17.75,160.78,17.69,160.19,17.69Z"/><path class="cls-1" d="M171.5,13.2c2.25,0,3,1,3,3v5.19a1.22,1.22,0,0,1-.61.11,1.61,1.61,0,0,1-.62-.11l-.23-1a2.48,2.48,0,0,1-2.43,1.25,2.26,2.26,0,0,1-2.4-2.58c0-1.69,1-2.43,3-2.43a15.82,15.82,0,0,1,1.77.09v-.57c0-1.06-.4-1.66-1.6-1.66a6.39,6.39,0,0,0-2.07.39,1.26,1.26,0,0,1-.36-.47,1.3,1.3,0,0,1-.09-.65A6.74,6.74,0,0,1,171.5,13.2Zm-.16,4.49c-1,0-1.58.4-1.58,1.38a1.21,1.21,0,0,0,1.35,1.39c1.23,0,1.8-1,1.8-2.14v-.54C172.55,17.75,171.93,17.69,171.34,17.69Z"/><path class="cls-1" d="M178.1,21.39a2.25,2.25,0,0,1-.78.11,2,2,0,0,1-.77-.11V10a2,2,0,0,1,.77-.11,2.25,2.25,0,0,1,.78.11Z"/><path class="cls-1" d="M182.33,18.57c0,1.41.44,1.83,1.54,1.83a4.36,4.36,0,0,0,.65-.06,1.74,1.74,0,0,1,.11.62,1.82,1.82,0,0,1-.07.55,4.38,4.38,0,0,1-1.12.14c-1.9,0-2.66-1-2.66-3V14.51h-1.2a1.91,1.91,0,0,1,0-1.16h1.2V11.94a2.74,2.74,0,0,1,1.55-.31v1.72h2a1.53,1.53,0,0,1,.09.58,1.74,1.74,0,0,1-.09.58h-2Z"/><path class="cls-1" d="M187.2,17.91c.13,1.84.87,2.43,2.16,2.43a3.7,3.7,0,0,0,1.82-.45,1.6,1.6,0,0,1,.5,1.11,4.56,4.56,0,0,1-2.57.65c-2.39,0-3.5-1.47-3.5-4.27s1.38-4.18,3.44-4.18a2.79,2.79,0,0,1,3.06,3.11,6.64,6.64,0,0,1-.17,1.6Zm1.85-3.49c-1,0-1.72.67-1.85,2.39h3.32c0-.13,0-.38,0-.7C190.56,15.2,190.19,14.42,189.05,14.42Z"/><path class="cls-1" d="M197.21,13.21a2.45,2.45,0,0,1,1.35.39,1.76,1.76,0,0,1-.69,1.3,1.52,1.52,0,0,0-1-.32,2,2,0,0,0-1.59,1.17v5.64a2.19,2.19,0,0,1-.78.11,2,2,0,0,1-.77-.11V13.46a2,2,0,0,1,.77-.11,2.19,2.19,0,0,1,.78.11v1.07A2.26,2.26,0,0,1,197.21,13.21Z"/><path class="cls-1" d="M206,21.39a2.25,2.25,0,0,1-.78.11,2.09,2.09,0,0,1-.77-.11V15.81c0-.86-.45-1.36-1.44-1.36a2.12,2.12,0,0,0-1.75,1v6a2.32,2.32,0,0,1-.78.11,2,2,0,0,1-.77-.11V13.46a2,2,0,0,1,.77-.11,2.32,2.32,0,0,1,.78.11v.71a3,3,0,0,1,2.34-1,2.19,2.19,0,0,1,2.4,2.34Z"/><path class="cls-1" d="M210.88,13.2c2.25,0,3,1,3,3v5.19a1.19,1.19,0,0,1-.6.11,1.55,1.55,0,0,1-.62-.11l-.23-1A2.5,2.5,0,0,1,210,21.65a2.27,2.27,0,0,1-2.41-2.58c0-1.69,1-2.43,3-2.43a15.62,15.62,0,0,1,1.76.09v-.57c0-1.06-.4-1.66-1.59-1.66a6.49,6.49,0,0,0-2.08.39,1.31,1.31,0,0,1-.35-.47,1.37,1.37,0,0,1-.1-.65A6.8,6.8,0,0,1,210.88,13.2Zm-.15,4.49c-1,0-1.58.4-1.58,1.38s.51,1.39,1.35,1.39c1.22,0,1.79-1,1.79-2.14v-.54C211.94,17.75,211.32,17.69,210.73,17.69Z"/><path class="cls-1" d="M218,18.57c0,1.41.45,1.83,1.55,1.83a4.36,4.36,0,0,0,.65-.06,1.74,1.74,0,0,1,.11.62,1.61,1.61,0,0,1-.08.55,4.29,4.29,0,0,1-1.11.14c-1.91,0-2.67-1-2.67-3V14.51h-1.19a1.91,1.91,0,0,1,0-1.16h1.19V11.94a2.77,2.77,0,0,1,1.55-.31v1.72h2a1.53,1.53,0,0,1,.09.58,1.74,1.74,0,0,1-.09.58h-2Z"/><path class="cls-1" d="M225.29,22.69c-.56,1.71-1.1,2.68-2.77,2.68a2.29,2.29,0,0,1-.85-.15,1.88,1.88,0,0,1-.11-.58,1.64,1.64,0,0,1,.12-.62,3.94,3.94,0,0,0,.7.07c.69,0,1.05-.19,1.52-1.65l.32-.94a1.68,1.68,0,0,1-.5-.11l-2.94-7.93a2.57,2.57,0,0,1,.81-.11,2.39,2.39,0,0,1,.8.11l1.77,4.71A14,14,0,0,1,224.7,20h.06s.16-.73.5-1.8l1.53-4.72a2.06,2.06,0,0,1,.76-.11,2.17,2.17,0,0,1,.73.11Z"/><path class="cls-1" d="M235.11,17.19a10.33,10.33,0,0,1-.42-2.23h-.06a9.88,9.88,0,0,1-.44,2.23L233,21.39a2.9,2.9,0,0,1-.88.11,3.13,3.13,0,0,1-.9-.11l-2.34-7.93a2.32,2.32,0,0,1,.78-.11,1.2,1.2,0,0,1,.66.11l1.47,4.94a10.51,10.51,0,0,1,.33,1.52h0a13.09,13.09,0,0,1,.35-1.52l1.42-4.94a3.27,3.27,0,0,1,.84-.11,2.06,2.06,0,0,1,.76.11l1.37,4.91a7.75,7.75,0,0,1,.31,1.55h0a13.09,13.09,0,0,1,.39-1.53l1.45-4.93a1.83,1.83,0,0,1,.68-.11,1.46,1.46,0,0,1,.67.11l-2.34,7.93a3.12,3.12,0,0,1-.88.11,3.27,3.27,0,0,1-.9-.11Z"/><path class="cls-1" d="M244.6,13.2c2.25,0,3,1,3,3v5.21c-1,.28-1.53.88-1.53,1.5,0,.39.21.68.8.68a1.52,1.52,0,0,0,.55-.11,1,1,0,0,1,.24.7,2.23,2.23,0,0,1-1.05.28c-1,0-1.64-.53-1.64-1.34a2.11,2.11,0,0,1,1.41-1.78l-.24-.94a2.48,2.48,0,0,1-2.43,1.25,2.27,2.27,0,0,1-2.4-2.58c0-1.66,1-2.43,3-2.43a15.76,15.76,0,0,1,1.76.09v-.61c0-1.11-.38-1.62-1.59-1.62a6.41,6.41,0,0,0-2.08.39,1.31,1.31,0,0,1-.35-.47,1.37,1.37,0,0,1-.1-.65A6.74,6.74,0,0,1,244.6,13.2Zm-.15,4.49c-1,0-1.58.42-1.58,1.38a1.21,1.21,0,0,0,1.35,1.39c1.22,0,1.79-1.07,1.79-2.15v-.53C245.66,17.75,245,17.69,244.45,17.69Z"/><path class="cls-1" d="M255.75,13.2c2.25,0,3,1,3,3v5.19a1.19,1.19,0,0,1-.6.11,1.55,1.55,0,0,1-.62-.11l-.23-1a2.5,2.5,0,0,1-2.43,1.25,2.27,2.27,0,0,1-2.41-2.58c0-1.69,1-2.43,3-2.43a15.76,15.76,0,0,1,1.76.09v-.57c0-1.06-.4-1.66-1.59-1.66a6.41,6.41,0,0,0-2.08.39,1.31,1.31,0,0,1-.35-.47,1.37,1.37,0,0,1-.1-.65A6.8,6.8,0,0,1,255.75,13.2Zm-.15,4.49c-1,0-1.58.4-1.58,1.38s.51,1.39,1.35,1.39c1.22,0,1.79-1,1.79-2.14v-.54C256.81,17.75,256.19,17.69,255.6,17.69Z"/><path class="cls-1" d="M267,21.39a2.16,2.16,0,0,1-.77.11,2,2,0,0,1-.77-.11V15.81c0-.86-.45-1.36-1.44-1.36a2.1,2.1,0,0,0-1.75,1v6a2.32,2.32,0,0,1-.78.11,2,2,0,0,1-.77-.11V13.46a2,2,0,0,1,.77-.11,2.32,2.32,0,0,1,.78.11v.71a3,3,0,0,1,2.33-1,2.19,2.19,0,0,1,2.4,2.34Z"/><path class="cls-1" d="M271.18,18.57c0,1.41.45,1.83,1.55,1.83a4.36,4.36,0,0,0,.65-.06,1.74,1.74,0,0,1,.11.62,1.61,1.61,0,0,1-.08.55,4.35,4.35,0,0,1-1.11.14c-1.91,0-2.67-1-2.67-3V14.51h-1.19a1.91,1.91,0,0,1,0-1.16h1.19V11.94a2.76,2.76,0,0,1,1.55-.31v1.72h2a1.4,1.4,0,0,1,.1.58,1.58,1.58,0,0,1-.1.58h-2Z"/><path class="cls-1" d="M278.51,22.69c-.56,1.71-1.1,2.68-2.78,2.68a2.29,2.29,0,0,1-.85-.15,1.88,1.88,0,0,1-.11-.58,1.38,1.38,0,0,1,.13-.62,3.9,3.9,0,0,0,.69.07c.7,0,1.06-.19,1.52-1.65l.33-.94a1.56,1.56,0,0,1-.5-.11L274,13.46a2.46,2.46,0,0,1,.8-.11,2.42,2.42,0,0,1,.81.11l1.77,4.71a16.3,16.3,0,0,1,.54,1.81H278a18.23,18.23,0,0,1,.5-1.8L280,13.46a2.06,2.06,0,0,1,.76-.11,2.17,2.17,0,0,1,.73.11Z"/><path class="cls-1" d="M284.36,14.2a2.48,2.48,0,0,1,2.23-1c1.77,0,2.91,1.07,2.91,4.23s-1.14,4.22-2.91,4.22a2.48,2.48,0,0,1-2.23-1v.74a2.22,2.22,0,0,1-.79.11,2.06,2.06,0,0,1-.76-.11V10a2.06,2.06,0,0,1,.76-.11,2.22,2.22,0,0,1,.79.11Zm1.69.27a1.75,1.75,0,0,0-1.69,2v2a1.77,1.77,0,0,0,1.69,2c1.24,0,1.86-.65,1.86-2.95S287.29,14.47,286.05,14.47Z"/><path class="cls-1" d="M292.88,11.79a2.42,2.42,0,0,1-.81.11,2.18,2.18,0,0,1-.8-.11V10.33a2.18,2.18,0,0,1,.8-.11,2.42,2.42,0,0,1,.81.11Zm0,9.6a2.19,2.19,0,0,1-.78.11,2,2,0,0,1-.77-.11V13.46a2,2,0,0,1,.77-.11,2.19,2.19,0,0,1,.78.11Z"/><path class="cls-1" d="M298.07,13.2c2.13,0,3.44,1.16,3.44,4.23s-1.32,4.22-3.44,4.22-3.44-1.16-3.44-4.22S296,13.2,298.07,13.2Zm0,1.19c-1.13,0-1.86.65-1.86,3s.73,3,1.86,3,1.84-.65,1.84-3S299.2,14.39,298.07,14.39Z"/><path class="cls-1" d="M305.33,18.57c0,1.41.45,1.83,1.55,1.83a4.36,4.36,0,0,0,.65-.06,1.74,1.74,0,0,1,.11.62,1.61,1.61,0,0,1-.08.55,4.35,4.35,0,0,1-1.11.14c-1.91,0-2.67-1-2.67-3V14.51h-1.19a1.91,1.91,0,0,1,0-1.16h1.19V11.94a2.76,2.76,0,0,1,1.55-.31v1.72h2a1.4,1.4,0,0,1,.1.58,1.58,1.58,0,0,1-.1.58h-2Z"/><path class="cls-1" d="M312.66,22.69c-.56,1.71-1.1,2.68-2.78,2.68a2.29,2.29,0,0,1-.85-.15,1.88,1.88,0,0,1-.11-.58,1.38,1.38,0,0,1,.13-.62,3.94,3.94,0,0,0,.7.07c.69,0,1.05-.19,1.51-1.65l.33-.94a1.56,1.56,0,0,1-.5-.11l-2.94-7.93a2.57,2.57,0,0,1,.81-.11,2.39,2.39,0,0,1,.8.11l1.77,4.71a16.3,16.3,0,0,1,.54,1.81h.06s.16-.73.5-1.8l1.53-4.72a2.06,2.06,0,0,1,.76-.11,2.17,2.17,0,0,1,.73.11Z"/><path class="cls-1" d="M321.5,13.46a2.58,2.58,0,0,1,.79-.11,2.9,2.9,0,0,1,.76.1l-2.39,3.7,2.75,4.24a2.94,2.94,0,0,1-.87.12,2.54,2.54,0,0,1-.84-.12l-2.32-3.56h-.87v3.56a2.78,2.78,0,0,1-1.55,0V10a3.48,3.48,0,0,1,.79-.08,3.7,3.7,0,0,1,.76.08v6.71h.88Z"/><path class="cls-1" d="M327.65,13.2c2.14,0,3.44,1.16,3.44,4.23s-1.32,4.22-3.44,4.22-3.44-1.16-3.44-4.22S325.53,13.2,327.65,13.2Zm0,1.19c-1.13,0-1.86.65-1.86,3s.73,3,1.86,3,1.84-.65,1.84-3S328.78,14.39,327.65,14.39Z"/><path class="cls-1" d="M334.91,18.57c0,1.41.45,1.83,1.55,1.83a4.36,4.36,0,0,0,.65-.06,1.74,1.74,0,0,1,.11.62,1.61,1.61,0,0,1-.08.55,4.29,4.29,0,0,1-1.11.14c-1.91,0-2.67-1-2.67-3V14.51h-1.19a1.91,1.91,0,0,1,0-1.16h1.19V11.94a2.77,2.77,0,0,1,1.55-.31v1.72h2a1.53,1.53,0,0,1,.09.58,1.74,1.74,0,0,1-.09.58h-2Z"/><path class="cls-1" d="M339.79,17.91c.13,1.84.87,2.43,2.16,2.43a3.75,3.75,0,0,0,1.82-.45,1.6,1.6,0,0,1,.5,1.11,4.56,4.56,0,0,1-2.57.65c-2.39,0-3.5-1.47-3.5-4.27s1.38-4.18,3.44-4.18a2.79,2.79,0,0,1,3.06,3.11,6.64,6.64,0,0,1-.17,1.6Zm1.85-3.49c-1,0-1.72.67-1.85,2.39h3.32c0-.13,0-.38,0-.7C343.15,15.2,342.78,14.42,341.64,14.42Z"/><path class="cls-1" d="M349.8,13.21a2.39,2.39,0,0,1,1.34.39,1.72,1.72,0,0,1-.68,1.3,1.52,1.52,0,0,0-1-.32,2,2,0,0,0-1.59,1.17v5.64a2.25,2.25,0,0,1-.78.11,2,2,0,0,1-.77-.11V13.46a2,2,0,0,1,.77-.11,2.25,2.25,0,0,1,.78.11v1.07A2.26,2.26,0,0,1,349.8,13.21Z"/><path class="cls-1" d="M355.13,13.2c2.24,0,2.95,1,2.95,3v5.19a1.19,1.19,0,0,1-.6.11,1.55,1.55,0,0,1-.62-.11l-.23-1a2.5,2.5,0,0,1-2.43,1.25,2.27,2.27,0,0,1-2.41-2.58c0-1.69,1-2.43,3-2.43a15.62,15.62,0,0,1,1.76.09v-.57c0-1.06-.4-1.66-1.59-1.66a6.49,6.49,0,0,0-2.08.39,1.25,1.25,0,0,1-.44-1.12A6.74,6.74,0,0,1,355.13,13.2ZM355,17.69c-1,0-1.58.4-1.58,1.38s.51,1.39,1.35,1.39c1.22,0,1.79-1,1.79-2.14v-.54C356.18,17.75,355.56,17.69,355,17.69Z"/><path class="cls-1" d="M363.91,13.2c1.76,0,2.91,1.07,2.91,4.23s-1.15,4.22-2.91,4.22a2.48,2.48,0,0,1-2.23-1V25a2.49,2.49,0,0,1-.79.1,2.24,2.24,0,0,1-.76-.1V13.46a2.06,2.06,0,0,1,.76-.11,2.29,2.29,0,0,1,.79.11v.74A2.48,2.48,0,0,1,363.91,13.2Zm-.55,1.27a1.75,1.75,0,0,0-1.68,2v2a1.77,1.77,0,0,0,1.68,2c1.24,0,1.86-.65,1.86-2.95S364.6,14.47,363.36,14.47Z"/><path class="cls-1" d="M370.21,11.79a2.39,2.39,0,0,1-.8.11,2.21,2.21,0,0,1-.81-.11V10.33a2.21,2.21,0,0,1,.81-.11,2.39,2.39,0,0,1,.8.11Zm0,9.6a2.16,2.16,0,0,1-.77.11,2,2,0,0,1-.78-.11V13.46a2,2,0,0,1,.78-.11,2.16,2.16,0,0,1,.77.11Z"/><path class="cls-1" d="M373.93,11.79a2.42,2.42,0,0,1-.81.11,2.12,2.12,0,0,1-.8-.11V10.33a2.12,2.12,0,0,1,.8-.11,2.42,2.42,0,0,1,.81.11Zm0,9.6a2.25,2.25,0,0,1-.78.11,2,2,0,0,1-.77-.11V13.46a2,2,0,0,1,.77-.11,2.25,2.25,0,0,1,.78.11Z"/><path class="cls-1" d="M49.89,35.78a10.33,10.33,0,0,1-.42-2.23h-.06A10,10,0,0,1,49,35.78L47.75,40a3.28,3.28,0,0,1-.88.1A3.54,3.54,0,0,1,46,40l-2.34-7.93a2.29,2.29,0,0,1,.77-.11,1.22,1.22,0,0,1,.67.11L46.54,37a10.45,10.45,0,0,1,.33,1.51h0A12.52,12.52,0,0,1,47.25,37l1.43-4.94a3.24,3.24,0,0,1,.83-.11,2,2,0,0,1,.76.11L51.65,37A8.49,8.49,0,0,1,52,38.5h0A13.61,13.61,0,0,1,52.4,37l1.45-4.92a1.83,1.83,0,0,1,.68-.11,1.46,1.46,0,0,1,.67.11L52.86,40a3.54,3.54,0,0,1-.88.1,3.71,3.71,0,0,1-.9-.1Z"/><path class="cls-1" d="M57.8,36.49c.12,1.84.87,2.43,2.15,2.43a3.76,3.76,0,0,0,1.83-.45,1.63,1.63,0,0,1,.5,1.12,4.6,4.6,0,0,1-2.57.65c-2.39,0-3.5-1.47-3.5-4.27s1.37-4.19,3.43-4.19a2.8,2.8,0,0,1,3.07,3.12,6.6,6.6,0,0,1-.17,1.59ZM59.64,33c-1,0-1.72.66-1.84,2.38h3.32c0-.12,0-.37,0-.69C61.16,33.78,60.79,33,59.64,33Z"/><path class="cls-1" d="M73.21,35.78a11,11,0,0,1-.42-2.23h-.06a9.81,9.81,0,0,1-.43,2.23L71.07,40a3.23,3.23,0,0,1-.88.1,3.65,3.65,0,0,1-.9-.1L67,32.05a2.32,2.32,0,0,1,.78-.11c.53,0,.66.11.66.11L69.87,37a9,9,0,0,1,.32,1.51h0A12.52,12.52,0,0,1,70.58,37L72,32.05a3.37,3.37,0,0,1,.84-.11,2.06,2.06,0,0,1,.76.11L75,37a8.49,8.49,0,0,1,.31,1.54h0c.07-.32.17-.82.39-1.53l1.46-4.92a1.77,1.77,0,0,1,.68-.11,1.38,1.38,0,0,1,.66.11L76.19,40a3.57,3.57,0,0,1-.89.1,3.82,3.82,0,0,1-.9-.1Z"/><path class="cls-1" d="M82.44,31.78a4.42,4.42,0,0,1,2.19.42,1.56,1.56,0,0,1-.41,1.1,5.65,5.65,0,0,0-1.62-.25c-1.06,0-1.58.39-1.58,1.12s1,.94,2,1.27,2.06.8,2.06,2.32-1,2.48-2.94,2.48a5.51,5.51,0,0,1-2.59-.56,1.56,1.56,0,0,1,.42-1.14,6.66,6.66,0,0,0,2.09.38c.94,0,1.49-.35,1.49-1.11s-.86-1-1.77-1.3-2.2-.76-2.2-2.29S80.48,31.78,82.44,31.78Z"/><path class="cls-1" d="M90.42,31.78c1.76,0,2.91,1.07,2.91,4.23s-1.15,4.23-2.91,4.23a2.46,2.46,0,0,1-2.23-1v4.34a2.75,2.75,0,0,1-.79.09,2.47,2.47,0,0,1-.76-.09V32.05a2.06,2.06,0,0,1,.76-.11,2.29,2.29,0,0,1,.79.11v.74A2.49,2.49,0,0,1,90.42,31.78Zm-.54,1.27a1.75,1.75,0,0,0-1.69,2v2a1.77,1.77,0,0,0,1.69,2c1.24,0,1.85-.65,1.85-3S91.12,33.05,89.88,33.05Z"/><path class="cls-1" d="M98.19,31.78c2.14,0,3.44,1.17,3.44,4.23s-1.31,4.23-3.44,4.23S94.76,39.08,94.76,36,96.07,31.78,98.19,31.78Zm0,1.2c-1.13,0-1.85.65-1.85,3s.72,3,1.85,3S100,38.4,100,36,99.32,33,98.19,33Z"/><path class="cls-1" d="M111.7,31.78A2.16,2.16,0,0,1,114,34.12V40a2.46,2.46,0,0,1-.78.1,2.14,2.14,0,0,1-.77-.1V34.4A1.19,1.19,0,0,0,111.11,33a2,2,0,0,0-1.66,1V40a2.32,2.32,0,0,1-.76.1,2.14,2.14,0,0,1-.77-.1V34.4A1.19,1.19,0,0,0,106.57,33a2,2,0,0,0-1.65,1v6a2.39,2.39,0,0,1-.76.1,2.24,2.24,0,0,1-.78-.1V32.05a2.06,2.06,0,0,1,.78-.11,2.19,2.19,0,0,1,.76.11v.69a2.89,2.89,0,0,1,2.23-1,2.08,2.08,0,0,1,2,1.13A3.14,3.14,0,0,1,111.7,31.78Z"/><path class="cls-1" d="M118.89,31.78c2.24,0,3,1,3,3V40a1.29,1.29,0,0,1-.6.1,1.69,1.69,0,0,1-.62-.1l-.23-1A2.49,2.49,0,0,1,118,40.24c-1.46,0-2.4-.85-2.4-2.59s1-2.43,3-2.43c.7,0,1.36.05,1.76.09v-.57c0-1.05-.4-1.66-1.59-1.66a6.39,6.39,0,0,0-2.07.39,1.08,1.08,0,0,1-.36-.46,1.31,1.31,0,0,1-.09-.65A6.65,6.65,0,0,1,118.89,31.78Zm-.16,4.5c-1,0-1.58.4-1.58,1.37s.51,1.4,1.35,1.4c1.22,0,1.79-1,1.79-2.14v-.54C119.94,36.34,119.32,36.28,118.73,36.28Z"/><path class="cls-1" d="M130.5,31.78a1.85,1.85,0,0,1,0,1.23L129.22,33a2.83,2.83,0,0,1,.43,1.62c0,1.74-1,2.79-3,2.79a4.72,4.72,0,0,1-.68,0,1.37,1.37,0,0,0-.29.9c.17,1.43,4.85-.09,4.85,3.1,0,1.52-1.48,2.65-4,2.65-2.33,0-3.3-.92-3.3-2.16a2.62,2.62,0,0,1,1.38-2.13,1.21,1.21,0,0,1-.34-.9,2.77,2.77,0,0,1,.74-1.72,2.52,2.52,0,0,1-1.41-2.48c0-1.73,1-2.79,3-2.79a3.75,3.75,0,0,1,1.72.36Zm-5.08,8.3a1.87,1.87,0,0,0-.71,1.41c0,.78.57,1.37,1.84,1.37,1.6,0,2.46-.58,2.46-1.4C129,40.19,126.82,40.52,125.42,40.08Zm1.19-7.21c-.93,0-1.56.54-1.56,1.7a1.47,1.47,0,0,0,1.56,1.69c.93,0,1.55-.53,1.55-1.69S127.54,32.87,126.61,32.87Z"/><path class="cls-1" d="M134.78,31.78c2.24,0,2.95,1,2.95,3V40a1.29,1.29,0,0,1-.6.1,1.69,1.69,0,0,1-.62-.1l-.23-1a2.49,2.49,0,0,1-2.43,1.25c-1.46,0-2.4-.85-2.4-2.59s1-2.43,3-2.43c.7,0,1.36.05,1.77.09v-.57c0-1.05-.41-1.66-1.6-1.66a6.39,6.39,0,0,0-2.07.39,1.08,1.08,0,0,1-.36-.46,1.31,1.31,0,0,1-.09-.65A6.65,6.65,0,0,1,134.78,31.78Zm-.16,4.5c-1,0-1.58.4-1.58,1.37s.51,1.4,1.35,1.4a1.9,1.9,0,0,0,1.8-2.14v-.54C135.83,36.34,135.21,36.28,134.62,36.28Z"/><path class="cls-1" d="M146.07,40a2.46,2.46,0,0,1-.78.1,2.28,2.28,0,0,1-.77-.1V34.4c0-.87-.45-1.36-1.44-1.36a2.12,2.12,0,0,0-1.75,1V40a2.54,2.54,0,0,1-.78.1,2.14,2.14,0,0,1-.77-.1V32.05a2,2,0,0,1,.77-.11,2.32,2.32,0,0,1,.78.11v.71a3,3,0,0,1,2.34-1,2.2,2.2,0,0,1,2.4,2.34Z"/><path class="cls-1" d="M149.74,30.37a2.42,2.42,0,0,1-.81.11,2.18,2.18,0,0,1-.8-.11V28.92a2.18,2.18,0,0,1,.8-.11,2.42,2.42,0,0,1,.81.11Zm0,9.61a2.46,2.46,0,0,1-.78.1,2.14,2.14,0,0,1-.77-.1V32.05a2,2,0,0,1,.77-.11,2.25,2.25,0,0,1,.78.11Z"/><path class="cls-1" d="M151.78,32.05a2.25,2.25,0,0,1,.78-.11,2.09,2.09,0,0,1,.77.11v5.57c0,.87.45,1.37,1.44,1.37a2.1,2.1,0,0,0,1.75-1V32.05a2.32,2.32,0,0,1,.78-.11,2,2,0,0,1,.77.11V40a2.14,2.14,0,0,1-.77.1,2.54,2.54,0,0,1-.78-.1v-.72a3,3,0,0,1-2.34,1,2.19,2.19,0,0,1-2.4-2.34Z"/><path class="cls-1" d="M167.29,31.78c1.76,0,2.91,1.07,2.91,4.23s-1.15,4.23-2.91,4.23a2.46,2.46,0,0,1-2.23-1v4.34a2.75,2.75,0,0,1-.79.09,2.39,2.39,0,0,1-.76-.09V32.05a2,2,0,0,1,.76-.11,2.29,2.29,0,0,1,.79.11v.74A2.49,2.49,0,0,1,167.29,31.78Zm-.55,1.27a1.75,1.75,0,0,0-1.68,2v2a1.77,1.77,0,0,0,1.68,2c1.24,0,1.86-.65,1.86-3S168,33.05,166.74,33.05Z"/><path class="cls-1" d="M175.42,31.8a2.39,2.39,0,0,1,1.34.39,1.73,1.73,0,0,1-.68,1.3,1.53,1.53,0,0,0-1-.33,2,2,0,0,0-1.59,1.18V40a2.46,2.46,0,0,1-.78.1A2.14,2.14,0,0,1,172,40V32.05a2,2,0,0,1,.77-.11,2.25,2.25,0,0,1,.78.11v1.07A2.26,2.26,0,0,1,175.42,31.8Z"/><path class="cls-1" d="M181,31.78c2.14,0,3.44,1.17,3.44,4.23s-1.32,4.23-3.44,4.23-3.44-1.16-3.44-4.23S178.89,31.78,181,31.78Zm0,1.2c-1.13,0-1.86.65-1.86,3s.73,3,1.86,3,1.84-.65,1.84-3S182.14,33,181,33Z"/><path class="cls-1" d="M187.44,36c0,2,.65,2.91,2.13,2.91a4.08,4.08,0,0,0,1.46-.26,1.66,1.66,0,0,1,.45,1.12,4.24,4.24,0,0,1-2.23.46c-2.26,0-3.41-1.47-3.41-4.23s1.15-4.23,3.41-4.23a4,4,0,0,1,2.07.39,1.6,1.6,0,0,1-.45,1.12,3.64,3.64,0,0,0-1.36-.24C188,33.05,187.44,34,187.44,36Z"/><path class="cls-1" d="M194.2,36.49c.13,1.84.87,2.43,2.16,2.43a3.7,3.7,0,0,0,1.82-.45,1.59,1.59,0,0,1,.5,1.12,4.56,4.56,0,0,1-2.57.65c-2.39,0-3.5-1.47-3.5-4.27s1.38-4.19,3.44-4.19a2.8,2.8,0,0,1,3.06,3.12,6.6,6.6,0,0,1-.17,1.59ZM196.05,33c-1,0-1.72.66-1.85,2.38h3.32a6.23,6.23,0,0,0,0-.69C197.57,33.78,197.19,33,196.05,33Z"/><path class="cls-1" d="M203.33,31.78a4.4,4.4,0,0,1,2.18.42,1.6,1.6,0,0,1-.4,1.1,5.77,5.77,0,0,0-1.63-.25c-1,0-1.58.39-1.58,1.12s1,.94,1.95,1.27,2.06.8,2.06,2.32-1,2.48-2.94,2.48a5.51,5.51,0,0,1-2.59-.56,1.56,1.56,0,0,1,.42-1.14,6.74,6.74,0,0,0,2.09.38c1,0,1.49-.35,1.49-1.11s-.85-1-1.77-1.3-2.19-.76-2.19-2.29S201.36,31.78,203.33,31.78Z"/><path class="cls-1" d="M207.46,32.05a2.25,2.25,0,0,1,.78-.11,2.09,2.09,0,0,1,.77.11v5.57c0,.87.45,1.37,1.44,1.37a2.1,2.1,0,0,0,1.75-1V32.05a2.32,2.32,0,0,1,.78-.11,2,2,0,0,1,.77.11V40a2.14,2.14,0,0,1-.77.1,2.54,2.54,0,0,1-.78-.1v-.72a3,3,0,0,1-2.34,1,2.19,2.19,0,0,1-2.4-2.34Z"/><path class="cls-1" d="M225.8,31.78a1.85,1.85,0,0,1,0,1.23L224.51,33a2.76,2.76,0,0,1,.44,1.62c0,1.74-1,2.79-3,2.79a4.61,4.61,0,0,1-.68,0,1.37,1.37,0,0,0-.29.9c.17,1.43,4.84-.09,4.84,3.1,0,1.52-1.47,2.65-4,2.65-2.32,0-3.3-.92-3.3-2.16a2.62,2.62,0,0,1,1.38-2.13,1.25,1.25,0,0,1-.34-.9,2.78,2.78,0,0,1,.75-1.72,2.52,2.52,0,0,1-1.41-2.48c0-1.73,1.05-2.79,3-2.79a3.75,3.75,0,0,1,1.72.36Zm-5.08,8.3a1.87,1.87,0,0,0-.71,1.41c0,.78.57,1.37,1.84,1.37,1.6,0,2.46-.58,2.46-1.4C224.31,40.19,222.11,40.52,220.72,40.08Zm1.19-7.21c-.93,0-1.56.54-1.56,1.7a1.47,1.47,0,0,0,1.56,1.69c.93,0,1.55-.53,1.55-1.69S222.84,32.87,221.91,32.87Z"/><path class="cls-1" d="M230.34,31.78c2.13,0,3.44,1.17,3.44,4.23s-1.32,4.23-3.44,4.23S226.9,39.08,226.9,36,228.22,31.78,230.34,31.78Zm0,1.2c-1.13,0-1.86.65-1.86,3s.73,3,1.86,3,1.84-.65,1.84-3S231.47,33,230.34,33Z"/><path class="cls-1" d="M235.56,32.05a2,2,0,0,1,.77-.11,2.25,2.25,0,0,1,.78.11v9.4c0,1.64-.79,2.51-2.25,2.51a3.36,3.36,0,0,1-1-.14,2,2,0,0,1,.11-1.15,2.71,2.71,0,0,0,.57.06c.7,0,1.06-.37,1.06-1.22Zm1.58-1.69a2.42,2.42,0,0,1-.81.11,2.12,2.12,0,0,1-.8-.11V28.9a2.12,2.12,0,0,1,.8-.11,2.42,2.42,0,0,1,.81.11Z"/><path class="cls-1" d="M240.48,36.49c.13,1.84.87,2.43,2.15,2.43a3.76,3.76,0,0,0,1.83-.45,1.63,1.63,0,0,1,.5,1.12,4.56,4.56,0,0,1-2.57.65c-2.39,0-3.5-1.47-3.5-4.27s1.37-4.19,3.44-4.19a2.8,2.8,0,0,1,3.06,3.12,6.6,6.6,0,0,1-.17,1.59ZM242.33,33c-1,0-1.72.66-1.85,2.38h3.32c0-.12,0-.37,0-.69C243.84,33.78,243.47,33,242.33,33Z"/><path class="cls-1" d="M253.34,40a2.46,2.46,0,0,1-.78.1,2.28,2.28,0,0,1-.77-.1V34.4c0-.87-.45-1.36-1.44-1.36a2.12,2.12,0,0,0-1.75,1V40a2.54,2.54,0,0,1-.78.1,2.14,2.14,0,0,1-.77-.1V32.05a2,2,0,0,1,.77-.11,2.32,2.32,0,0,1,.78.11v.71a3,3,0,0,1,2.34-1,2.19,2.19,0,0,1,2.4,2.34Z"/><path class="cls-1" d="M257,30.37a2.42,2.42,0,0,1-.81.11,2.12,2.12,0,0,1-.8-.11V28.92a2.12,2.12,0,0,1,.8-.11,2.42,2.42,0,0,1,.81.11ZM257,40a2.46,2.46,0,0,1-.78.1,2.14,2.14,0,0,1-.77-.1V32.05a2,2,0,0,1,.77-.11,2.25,2.25,0,0,1,.78.11Z"/><path class="cls-1" d="M261.93,31.78c2.25,0,3,1,3,3V40a1.29,1.29,0,0,1-.6.1,1.69,1.69,0,0,1-.62-.1l-.23-1A2.51,2.51,0,0,1,261,40.24a2.27,2.27,0,0,1-2.4-2.59c0-1.68,1-2.43,3-2.43.69,0,1.36.05,1.76.09v-.57c0-1.05-.4-1.66-1.59-1.66a6.41,6.41,0,0,0-2.08.39,1.21,1.21,0,0,1-.35-.46,1.39,1.39,0,0,1-.1-.65A6.65,6.65,0,0,1,261.93,31.78Zm-.15,4.5c-1,0-1.58.4-1.58,1.37s.51,1.4,1.35,1.4c1.22,0,1.79-1,1.79-2.14v-.54C263,36.34,262.37,36.28,261.78,36.28Z"/><path class="cls-1" d="M275.78,35.78a11,11,0,0,1-.42-2.23h-.06a9.81,9.81,0,0,1-.43,2.23L273.64,40a3.28,3.28,0,0,1-.88.1,3.59,3.59,0,0,1-.9-.1l-2.34-7.93a2.32,2.32,0,0,1,.78-.11,1.2,1.2,0,0,1,.66.11L272.43,37a9.23,9.23,0,0,1,.33,1.51h.05a12.52,12.52,0,0,1,.34-1.51l1.42-4.94a3.27,3.27,0,0,1,.84-.11,2.06,2.06,0,0,1,.76.11L277.55,37a9.48,9.48,0,0,1,.31,1.54h0a13.61,13.61,0,0,1,.39-1.53l1.46-4.92a1.77,1.77,0,0,1,.68-.11,1.38,1.38,0,0,1,.66.11L278.75,40a3.49,3.49,0,0,1-.88.1,3.82,3.82,0,0,1-.9-.1Z"/><path class="cls-1" d="M287,36c0,2,.65,2.91,2.14,2.91a4.08,4.08,0,0,0,1.46-.26,1.66,1.66,0,0,1,.45,1.12,4.28,4.28,0,0,1-2.23.46c-2.26,0-3.41-1.47-3.41-4.23s1.15-4.23,3.41-4.23a4,4,0,0,1,2.07.39,1.6,1.6,0,0,1-.45,1.12,3.64,3.64,0,0,0-1.36-.24C287.61,33.05,287,34,287,36Z"/><path class="cls-1" d="M298.84,40a2.35,2.35,0,0,1-.77.1,2.31,2.31,0,0,1-.78-.1V34.4c0-.87-.45-1.36-1.44-1.36a2.12,2.12,0,0,0-1.75,1V40a2.5,2.5,0,0,1-.77.1,2.24,2.24,0,0,1-.78-.1V28.58a2.06,2.06,0,0,1,.78-.11,2.29,2.29,0,0,1,.77.11v4.18a3,3,0,0,1,2.34-1,2.19,2.19,0,0,1,2.4,2.34Z"/><path class="cls-1" d="M302.51,30.37a2.39,2.39,0,0,1-.8.11,2.21,2.21,0,0,1-.81-.11V28.92a2.21,2.21,0,0,1,.81-.11,2.39,2.39,0,0,1,.8.11Zm0,9.61a2.35,2.35,0,0,1-.77.1,2.17,2.17,0,0,1-.78-.1V32.05a2,2,0,0,1,.78-.11,2.16,2.16,0,0,1,.77.11Z"/><path class="cls-1" d="M308.06,31.8a2.39,2.39,0,0,1,1.34.39,1.73,1.73,0,0,1-.68,1.3,1.53,1.53,0,0,0-1-.33,2,2,0,0,0-1.59,1.18V40a2.46,2.46,0,0,1-.78.1,2.14,2.14,0,0,1-.77-.1V32.05a2,2,0,0,1,.77-.11,2.25,2.25,0,0,1,.78.11v1.07A2.26,2.26,0,0,1,308.06,31.8Z"/><path class="cls-1" d="M310.5,32.05a2.25,2.25,0,0,1,.78-.11,2.09,2.09,0,0,1,.77.11v5.57c0,.87.45,1.37,1.44,1.37a2.09,2.09,0,0,0,1.75-1V32.05a2.32,2.32,0,0,1,.78-.11,2,2,0,0,1,.77.11V40a2.14,2.14,0,0,1-.77.1,2.54,2.54,0,0,1-.78-.1v-.72a3,3,0,0,1-2.33,1,2.2,2.2,0,0,1-2.41-2.34Z"/><path class="cls-1" d="M322.34,31.8a2.39,2.39,0,0,1,1.34.39,1.73,1.73,0,0,1-.68,1.3,1.53,1.53,0,0,0-1-.33,2,2,0,0,0-1.59,1.18V40a2.46,2.46,0,0,1-.78.1,2.14,2.14,0,0,1-.77-.1V32.05a2,2,0,0,1,.77-.11,2.25,2.25,0,0,1,.78.11v1.07A2.26,2.26,0,0,1,322.34,31.8Z"/><path class="cls-1" d="M331.46,31.78a1.85,1.85,0,0,1,0,1.23L330.17,33a2.76,2.76,0,0,1,.44,1.62c0,1.74-1,2.79-3,2.79a4.61,4.61,0,0,1-.68,0,1.32,1.32,0,0,0-.29.9c.17,1.43,4.84-.09,4.84,3.1,0,1.52-1.47,2.65-4,2.65-2.32,0-3.3-.92-3.3-2.16a2.62,2.62,0,0,1,1.38-2.13,1.25,1.25,0,0,1-.34-.9,2.78,2.78,0,0,1,.75-1.72,2.52,2.52,0,0,1-1.41-2.48c0-1.73,1-2.79,3-2.79a3.75,3.75,0,0,1,1.72.36Zm-5.08,8.3a1.87,1.87,0,0,0-.71,1.41c0,.78.57,1.37,1.84,1.37,1.59,0,2.46-.58,2.46-1.4C330,40.19,327.77,40.52,326.38,40.08Zm1.19-7.21c-.93,0-1.56.54-1.56,1.7a1.47,1.47,0,0,0,1.56,1.69c.93,0,1.55-.53,1.55-1.69S328.5,32.87,327.57,32.87Z"/><path class="cls-1" d="M334.53,30.37a2.42,2.42,0,0,1-.81.11,2.12,2.12,0,0,1-.8-.11V28.92a2.12,2.12,0,0,1,.8-.11,2.42,2.42,0,0,1,.81.11Zm0,9.61a2.35,2.35,0,0,1-.77.1A2.14,2.14,0,0,1,333,40V32.05a2,2,0,0,1,.77-.11,2.16,2.16,0,0,1,.77.11Z"/><path class="cls-1" d="M338.24,30.37a2.39,2.39,0,0,1-.8.11,2.21,2.21,0,0,1-.81-.11V28.92a2.21,2.21,0,0,1,.81-.11,2.39,2.39,0,0,1,.8.11Zm0,9.61a2.35,2.35,0,0,1-.77.1,2.24,2.24,0,0,1-.78-.1V32.05a2.06,2.06,0,0,1,.78-.11,2.16,2.16,0,0,1,.77.11Z"/><path class="cls-1" d="M46,49a2.32,2.32,0,0,1-.8.11,2.21,2.21,0,0,1-.81-.11V47.5a2.41,2.41,0,0,1,.81-.1,2.53,2.53,0,0,1,.8.1Zm0,9.6a2.16,2.16,0,0,1-.77.11,2.06,2.06,0,0,1-.78-.11V50.63a2.06,2.06,0,0,1,.78-.11,2.16,2.16,0,0,1,.77.11Z"/><path class="cls-1" d="M56.41,50.37a2.15,2.15,0,0,1,2.3,2.34v5.85a2.16,2.16,0,0,1-.77.11,2,2,0,0,1-.77-.11V53a1.2,1.2,0,0,0-1.35-1.37,1.94,1.94,0,0,0-1.66,1v5.94a2.12,2.12,0,0,1-.76.11,2,2,0,0,1-.77-.11V53a1.2,1.2,0,0,0-1.35-1.37,2.09,2.09,0,0,0-1.66,1v6a2.12,2.12,0,0,1-.76.11,2,2,0,0,1-.77-.11V50.63a2,2,0,0,1,.77-.11,2.12,2.12,0,0,1,.76.11v.7a2.92,2.92,0,0,1,2.23-1,2.07,2.07,0,0,1,2,1.13A3.11,3.11,0,0,1,56.41,50.37Z"/><path class="cls-1" d="M64.55,50.37c1.77,0,2.92,1.07,2.92,4.23s-1.15,4.23-2.92,4.23a2.5,2.5,0,0,1-2.23-1v4.34a2.66,2.66,0,0,1-.79.09,2.36,2.36,0,0,1-.75-.09V50.63a2,2,0,0,1,.75-.11,2.22,2.22,0,0,1,.79.11v.75A2.47,2.47,0,0,1,64.55,50.37ZM64,51.64a1.76,1.76,0,0,0-1.69,2v2a1.78,1.78,0,0,0,1.69,2c1.24,0,1.86-.65,1.86-3S65.25,51.64,64,51.64Z"/><path class="cls-1" d="M70.84,58.56a2.16,2.16,0,0,1-.77.11,2.06,2.06,0,0,1-.78-.11V47.16a2.06,2.06,0,0,1,.78-.11,2.16,2.16,0,0,1,.77.11Z"/><path class="cls-1" d="M75.81,50.37c2.25,0,3,1,3,3v5.19a1.19,1.19,0,0,1-.6.11,1.55,1.55,0,0,1-.62-.11l-.23-1a2.51,2.51,0,0,1-2.44,1.26,2.27,2.27,0,0,1-2.4-2.59c0-1.69,1-2.43,3-2.43a15.76,15.76,0,0,1,1.76.09v-.57c0-1.06-.4-1.66-1.59-1.66a6.41,6.41,0,0,0-2.08.39,1.31,1.31,0,0,1-.35-.47,1.37,1.37,0,0,1-.1-.65A6.74,6.74,0,0,1,75.81,50.37Zm-.15,4.49c-1,0-1.58.4-1.58,1.38s.51,1.39,1.35,1.39c1.22,0,1.79-1,1.79-2.13V55C76.87,54.92,76.25,54.86,75.66,54.86Z"/><path class="cls-1" d="M87.1,58.56a2.16,2.16,0,0,1-.77.11,2,2,0,0,1-.77-.11V53c0-.87-.45-1.37-1.44-1.37a2.11,2.11,0,0,0-1.75,1v5.94a2.32,2.32,0,0,1-.78.11,2,2,0,0,1-.77-.11V50.63a2,2,0,0,1,.77-.11,2.32,2.32,0,0,1,.78.11v.72a3,3,0,0,1,2.33-1,2.19,2.19,0,0,1,2.4,2.34Z"/><path class="cls-1" d="M91.24,55.74c0,1.41.45,1.83,1.55,1.83a4.36,4.36,0,0,0,.65-.06,1.74,1.74,0,0,1,.11.62,1.64,1.64,0,0,1-.08.56,4.85,4.85,0,0,1-1.11.14c-1.91,0-2.67-1-2.67-3V51.69H88.5a1.67,1.67,0,0,1-.09-.58,1.63,1.63,0,0,1,.09-.59h1.19v-1.4a2.6,2.6,0,0,1,1.55-.31v1.71h2a1.46,1.46,0,0,1,.1.58,1.68,1.68,0,0,1-.1.59h-2Z"/><path class="cls-1" d="M98,50.37c2.14,0,3.44,1.16,3.44,4.23s-1.32,4.23-3.44,4.23-3.44-1.17-3.44-4.23S95.84,50.37,98,50.37Zm0,1.19c-1.13,0-1.86.65-1.86,3s.73,3,1.86,3,1.84-.65,1.84-3S99.09,51.56,98,51.56Z"/><path class="cls-1" d="M104.75,58.56a2.25,2.25,0,0,1-.78.11,2,2,0,0,1-.77-.11V47.16a2,2,0,0,1,.77-.11,2.25,2.25,0,0,1,.78.11Z"/><path class="cls-1" d="M110,50.37c2.14,0,3.44,1.16,3.44,4.23s-1.32,4.23-3.44,4.23-3.44-1.17-3.44-4.23S107.86,50.37,110,50.37Zm0,1.19c-1.13,0-1.86.65-1.86,3s.73,3,1.86,3,1.84-.65,1.84-3S111.11,51.56,110,51.56Z"/><path class="cls-1" d="M121.78,50.37a1.82,1.82,0,0,1,0,1.22l-1.28-.06a2.87,2.87,0,0,1,.43,1.63c0,1.73-1,2.79-3,2.79a4.72,4.72,0,0,1-.68-.05,1.37,1.37,0,0,0-.29.9c.17,1.42,4.85-.1,4.85,3.09,0,1.52-1.48,2.65-4,2.65-2.33,0-3.3-.91-3.3-2.15a2.62,2.62,0,0,1,1.38-2.14,1.2,1.2,0,0,1-.35-.9,2.73,2.73,0,0,1,.75-1.71,2.54,2.54,0,0,1-1.41-2.48c0-1.74,1-2.79,3-2.79a3.63,3.63,0,0,1,1.72.36Zm-5.08,8.3a1.87,1.87,0,0,0-.71,1.41c0,.77.57,1.36,1.84,1.36,1.6,0,2.46-.57,2.46-1.39C120.29,58.78,118.1,59.1,116.7,58.67Zm1.19-7.22c-.93,0-1.56.55-1.56,1.71a1.47,1.47,0,0,0,1.56,1.69c.93,0,1.55-.53,1.55-1.69S118.82,51.45,117.89,51.45Z"/><path class="cls-1" d="M124.85,49a2.42,2.42,0,0,1-.81.11,2.18,2.18,0,0,1-.8-.11V47.5a2.38,2.38,0,0,1,.8-.1,2.64,2.64,0,0,1,.81.1Zm0,9.6a2.25,2.25,0,0,1-.78.11,2,2,0,0,1-.77-.11V50.63a2,2,0,0,1,.77-.11,2.25,2.25,0,0,1,.78.11Z"/><path class="cls-1" d="M128.19,54.6c0,2,.65,2.91,2.14,2.91a4.08,4.08,0,0,0,1.46-.26,1.66,1.66,0,0,1,.45,1.11,4.21,4.21,0,0,1-2.23.47c-2.26,0-3.41-1.48-3.41-4.23s1.15-4.23,3.41-4.23a4,4,0,0,1,2.07.39,1.57,1.57,0,0,1-.45,1.11,3.78,3.78,0,0,0-1.36-.23C128.78,51.64,128.19,52.58,128.19,54.6Z"/><path class="cls-1" d="M139,57.4a1.84,1.84,0,0,1,.09.64,2,2,0,0,1-.09.63h-5.75a3.1,3.1,0,0,1-.09-.67,2.38,2.38,0,0,1,.09-.6l4.12-5.61h-3.85a2,2,0,0,1-.1-.65,1.62,1.62,0,0,1,.1-.62H139a1.67,1.67,0,0,1,.09.61,2.1,2.1,0,0,1-.09.66l-4.1,5.61Z"/><path class="cls-1" d="M147.09,58.56a2.16,2.16,0,0,1-.77.11,2.12,2.12,0,0,1-.78-.11V53c0-.87-.45-1.37-1.44-1.37a2.13,2.13,0,0,0-1.75,1v5.94a2.29,2.29,0,0,1-.77.11,2,2,0,0,1-.78-.11V50.63a2,2,0,0,1,.78-.11,2.29,2.29,0,0,1,.77.11v.72a3,3,0,0,1,2.34-1,2.19,2.19,0,0,1,2.4,2.34Z"/><path class="cls-1" d="M150.39,55.08c.12,1.84.87,2.43,2.15,2.43a3.76,3.76,0,0,0,1.83-.45,1.58,1.58,0,0,1,.49,1.12,4.56,4.56,0,0,1-2.57.65c-2.38,0-3.5-1.48-3.5-4.28s1.38-4.18,3.44-4.18a2.79,2.79,0,0,1,3.07,3.11,6.64,6.64,0,0,1-.17,1.6Zm1.84-3.49c-1,0-1.72.67-1.84,2.39h3.31a4.59,4.59,0,0,0,.05-.7C153.75,52.37,153.38,51.59,152.23,51.59Z"/><path class="cls-1" d="M157,50.63a2,2,0,0,1,.77-.11,2.25,2.25,0,0,1,.78.11V60c0,1.65-.79,2.51-2.25,2.51a3.36,3.36,0,0,1-1-.14,1.5,1.5,0,0,1,0-.35,1.6,1.6,0,0,1,.15-.79,2.71,2.71,0,0,0,.57.06c.7,0,1.06-.37,1.06-1.22Zm1.58-1.69a2.42,2.42,0,0,1-.81.11,2.12,2.12,0,0,1-.8-.11V47.49a2.12,2.12,0,0,1,.8-.11,2.42,2.42,0,0,1,.81.11Z"/><path class="cls-1" d="M161.91,46.55a8.73,8.73,0,0,0,0,8.15.64.64,0,0,1-.28.26,1,1,0,0,1-.39.1,8.61,8.61,0,0,1,0-8.87.8.8,0,0,1,.38.1A.63.63,0,0,1,161.91,46.55Z"/><path class="cls-1" d="M162.77,47.61a4.28,4.28,0,0,1,1.67-.33c1.09,0,2,.46,2,1.65s-.65,1.53-1.73,2.18c-.53.34-1.27.65-1.27,1.39a.88.88,0,0,0,0,.2h2.81a.71.71,0,0,1,.09.41.82.82,0,0,1-.09.4h-3.65a3.36,3.36,0,0,1-.06-.6c0-1.41.91-1.92,1.74-2.46s1.21-.81,1.21-1.49-.37-.93-1.19-.93a4.08,4.08,0,0,0-1.27.23A.68.68,0,0,1,162.77,47.61Z"/><path class="cls-1" d="M167.09,46.55a.7.7,0,0,1,.3-.26.8.8,0,0,1,.38-.1,8.61,8.61,0,0,1,0,8.87,1,1,0,0,1-.39-.1.71.71,0,0,1-.29-.26,8.65,8.65,0,0,0,0-8.15Z"/><polyline class="cls-2" points="13.41 6.57 32.41 34.7 13.41 62.93"/></svg>