<svg xmlns="http://www.w3.org/2000/svg" viewBox="0 0 200 100"><defs><style>.cls-1{fill:#ccd513;}.cls-2{fill:none;stroke:#fff;stroke-miterlimit:10;stroke-width:2px;}.cls-3{fill:#fff;}</style></defs><title>dalej</title><g id="Warstwa_1" data-name="Warstwa 1"><rect class="cls-1" x="68.98" y="32.66" width="56.74" height="40.92" rx="20.46"/></g><g id="Warstwa_2" data-name="Warstwa 2"><path class="cls-2" d="M93.28,57.82h11.33A1.14,1.14,0,0,1,105.75,59v4.27a.78.78,0,0,0,1.33.55l10.38-10.38a1.15,1.15,0,0,0,0-1.63L107.71,42a1.15,1.15,0,0,0-2,.81v3.38a1.14,1.14,0,0,1-1.14,1.14H93.28a1.16,1.16,0,0,0-1.15,1.15v8.15A1.16,1.16,0,0,0,93.28,57.82Z"/><rect class="cls-3" x="80.88" y="41.7" width="2.05" height="22.32" rx="1.03" transform="translate(163.82 105.72) rotate(-180)"/></g></svg>