<svg xmlns="http://www.w3.org/2000/svg" viewBox="0 0 300 100"><defs><style>.cls-1{fill:#ccd513;}.cls-2{fill:none;stroke:#fff;stroke-miterlimit:10;stroke-width:2px;}.cls-3{fill:#fff;}</style></defs><title>dalej_normal</title><g id="Warstwa_1" data-name="Warstwa 1"><rect class="cls-1" x="116.44" y="28.2" width="59.42" height="42.86" rx="21.43"/></g><g id="Warstwa_2" data-name="Warstwa 2"><path class="cls-2" d="M141.89,54.55h11.86a1.2,1.2,0,0,1,1.2,1.2v4.48a.82.82,0,0,0,1.39.58l10.87-10.88a1.2,1.2,0,0,0,0-1.7L157,38a1.21,1.21,0,0,0-2.06.85v3.54a1.2,1.2,0,0,1-1.2,1.2H141.89a1.21,1.21,0,0,0-1.2,1.21v8.53A1.2,1.2,0,0,0,141.89,54.55Z"/><rect class="cls-3" x="128.9" y="37.67" width="2.15" height="23.38" rx="1.03" transform="translate(259.96 98.72) rotate(-180)"/></g></svg>