<svg id="Warstwa_1" data-name="Warstwa 1" xmlns="http://www.w3.org/2000/svg" viewBox="0 0 200 100"><defs><style>.cls-1{fill:#ccd615;}.cls-2{fill:#fff;}.cls-3{fill:#075da7;}</style></defs><title>ikona_01</title><path class="cls-1" d="M100,60.35a25,25,0,1,0-25-25,25,25,0,0,0,25,25"/><path class="cls-2" d="M100,53.61a3.84,3.84,0,0,1-3.83-3.83V47.73a13.78,13.78,0,0,1-2.72-1.12L92,48.06a3.93,3.93,0,0,1-5.41,0,3.83,3.83,0,0,1,0-5.41L88,41.2a14.33,14.33,0,0,1-1.13-2.72h-2a3.84,3.84,0,0,1,0-7.67h2A13.94,13.94,0,0,1,88,28.1l-1.45-1.45A3.83,3.83,0,0,1,92,21.24l1.46,1.45a12.84,12.84,0,0,1,2.71-1.13v-2a3.83,3.83,0,0,1,7.66,0v2a13.81,13.81,0,0,1,2.72,1.13L108,21.24a3.83,3.83,0,1,1,5.42,5.41L112,28.1a13.25,13.25,0,0,1,1.12,2.71h2.05a3.84,3.84,0,1,1,0,7.67h-2A13.81,13.81,0,0,1,112,41.2l1.45,1.45A3.83,3.83,0,0,1,108,48.06l-1.45-1.45a14.18,14.18,0,0,1-2.72,1.12v2.05A3.84,3.84,0,0,1,100,53.61Zm-6.73-8.4.37.22a12,12,0,0,0,3.22,1.33l.42.11v2.91a2.72,2.72,0,0,0,5.44,0V46.87l.42-.11a12.46,12.46,0,0,0,3.22-1.33l.37-.21,2.06,2.05a2.78,2.78,0,0,0,3.83,0,2.7,2.7,0,0,0,0-3.83l-2.05-2.06.22-.37a12.36,12.36,0,0,0,1.33-3.23l.11-.41h2.91a2.72,2.72,0,0,0,0-5.44h-2.9l-.11-.42a12.67,12.67,0,0,0-1.33-3.22l-.22-.37,2.06-2.06A2.72,2.72,0,1,0,108.78,22l-2.06,2.06-.37-.22a12.67,12.67,0,0,0-3.22-1.34l-.42-.11v-2.9a2.72,2.72,0,0,0-5.43,0v2.91l-.42.1a12.47,12.47,0,0,0-3.23,1.34l-.37.22L91.21,22a2.71,2.71,0,0,0-4.63,1.92,2.69,2.69,0,0,0,.79,1.92l2.06,2.06-.22.37a12,12,0,0,0-1.33,3.22l-.11.42H84.86a2.72,2.72,0,0,0,0,5.44h2.91l.11.41A12.65,12.65,0,0,0,89.21,41l.22.37-2.05,2.06a2.7,2.7,0,0,0,0,3.83,2.78,2.78,0,0,0,3.83,0Zm1.52-1.14a1.79,1.79,0,0,1-1.7-1.24l-2-6.31a1.79,1.79,0,0,1,.12-1.36,1.74,1.74,0,0,1,1-.88l.24-.06a1.55,1.55,0,0,1-.27-.24,1.77,1.77,0,0,1,0-2.4l.64-.61L97.28,27a1.79,1.79,0,0,1,1.28-.47,1.74,1.74,0,0,1,1.24.59,1.78,1.78,0,0,1,.46,1.28,1.8,1.8,0,0,1-.59,1.23l-4.9,4.43a1.78,1.78,0,0,1-.91.45,1.73,1.73,0,0,1,.64.9l2,6.3a1.7,1.7,0,0,1-.12,1.36,1.81,1.81,0,0,1-1,.88A2,2,0,0,1,94.79,44.07Zm-2-8.76a.64.64,0,0,0-.2,0,.67.67,0,0,0-.39.33.65.65,0,0,0,0,.51l2,6.31a.7.7,0,0,0,.83.44h0a.68.68,0,0,0,.4-.32.69.69,0,0,0,0-.51l-2-6.31a.67.67,0,0,0-.33-.39A.68.68,0,0,0,92.8,35.31Zm5.67-7.63a.62.62,0,0,0-.44.18l-.93.84-4,3.66a.63.63,0,0,0,0,.87.59.59,0,0,0,1,.06l4.88-4.42a.66.66,0,0,0,.08-1,.6.6,0,0,0-.46-.22Zm.44,14.79a1.78,1.78,0,0,1-1.47-.79,1.73,1.73,0,0,1-.21-.41A1.8,1.8,0,0,1,98.32,39l6.26-2.17a1.84,1.84,0,0,1,.73-.09,1.66,1.66,0,0,1-.63-.88l-2-6.31a1.8,1.8,0,0,1,1.17-2.25,1.78,1.78,0,0,1,2.23,1.16l2,6.31A1.81,1.81,0,0,1,106.91,37l-.08,0-.37.05a1.07,1.07,0,0,1-.25,0,1.79,1.79,0,0,1,.5.56l.12.25a1.79,1.79,0,0,1-1.07,2.32h0l-6.26,2.16A1.57,1.57,0,0,1,98.91,42.47Zm6.26-4.62a.66.66,0,0,0-.23,0l-6.25,2.16a.68.68,0,0,0-.41.86.53.53,0,0,0,.08.14.68.68,0,0,0,.76.27l6.27-2.16a.67.67,0,0,0,.38-.34.65.65,0,0,0,0-.51l-.08-.16A.61.61,0,0,0,105.17,37.85Zm-.8-9.52a.69.69,0,0,0-.2,0,.66.66,0,0,0-.4.35.65.65,0,0,0,0,.49l2,6.32a.66.66,0,0,0,.63.47l.23,0a.7.7,0,0,0,.41-.85l-2-6.3A.66.66,0,0,0,104.37,28.33ZM98.18,38.88a1.79,1.79,0,0,1-.72-.15,1.73,1.73,0,0,1-.6-.44,1.77,1.77,0,0,1-.32-1.91l.08-.18,2.58-5.88a1.59,1.59,0,0,1,.5-.66,1.78,1.78,0,0,1,2.84,1.88l-.21.53-2.52,5.74a2.1,2.1,0,0,1-.31.48l-.29.26A1.86,1.86,0,0,1,98.18,38.88Zm2.66-8.52a.72.72,0,0,0-.44.16.69.69,0,0,0-.18.24l-2.65,6.06a.68.68,0,0,0,.12.73h0a.57.57,0,0,0,.22.16.7.7,0,0,0,.63-.05l.17-.16a.5.5,0,0,0,.07-.13l2.69-6.16a.65.65,0,0,0-.37-.79A.58.58,0,0,0,100.84,30.36Z"/><path class="cls-3" d="M56.92,76.89a3,3,0,1,1-6.05,0V71.26a1.77,1.77,0,0,1,.6-.08,1.8,1.8,0,0,1,.61.08v5.82a1.82,1.82,0,0,0,3.64,0V71.26a1.64,1.64,0,0,1,.58-.08,2,2,0,0,1,.62.08Z"/><path class="cls-3" d="M63.56,71.26a3.24,3.24,0,0,1,.62-.08,3.6,3.6,0,0,1,.65.08L62.11,75.2l3.08,4.53a2.29,2.29,0,0,1-.71.09,2.37,2.37,0,0,1-.71-.09l-2.68-3.91h-.87v3.91a1.5,1.5,0,0,1-.61.09,1.85,1.85,0,0,1-.62-.09V71.26a2,2,0,0,1,.63-.08,1.84,1.84,0,0,1,.6.08v3.58h.87Z"/><path class="cls-3" d="M66.4,71.26a1.77,1.77,0,0,1,.6-.08,1.84,1.84,0,0,1,.62.08v8.47a1.69,1.69,0,0,1-.61.09,1.5,1.5,0,0,1-.61-.09Z"/><path class="cls-3" d="M74.63,71.18a1.4,1.4,0,0,1,.09.47,1.51,1.51,0,0,1-.09.53H71V75h3a1.46,1.46,0,0,1,.09.48,1.39,1.39,0,0,1-.09.5H71v2.88h3.77a1.94,1.94,0,0,1,.09.48,1.54,1.54,0,0,1-.09.52h-5V71.18Z"/><path class="cls-3" d="M79.5,71.18a2.41,2.41,0,0,1,2.58,2.53,2.36,2.36,0,0,1-1.69,2.4l2.09,3.62a2.41,2.41,0,0,1-.72.09,2.26,2.26,0,0,1-.7-.09l-2-3.5H77.65v3.5a1.59,1.59,0,0,1-.6.09,1.53,1.53,0,0,1-.62-.09V71.18Zm-1.85,4h1.69a1.51,1.51,0,0,0,0-3H77.65Z"/><path class="cls-3" d="M89.93,76.89a3,3,0,1,1-6.05,0V71.26a1.84,1.84,0,0,1,.6-.08,1.8,1.8,0,0,1,.61.08v5.82a1.67,1.67,0,0,0,1.83,1.82,1.65,1.65,0,0,0,1.81-1.82V71.26a1.64,1.64,0,0,1,.58-.08,2,2,0,0,1,.62.08Z"/><path class="cls-3" d="M93.8,74.27a9.88,9.88,0,0,1-.7-1.54h0s.08.8.08,2v5a1.39,1.39,0,0,1-.57.09,1.22,1.22,0,0,1-.55-.09V71.26a2.64,2.64,0,0,1,.73-.08,2.51,2.51,0,0,1,.72.08l3,5.41a13.25,13.25,0,0,1,.75,1.6h0s-.08-.89-.08-2v-5a1.54,1.54,0,0,1,.57-.08,1.38,1.38,0,0,1,.56.08v8.47a2.14,2.14,0,0,1-.71.09,2.36,2.36,0,0,1-.73-.09Z"/><path class="cls-3" d="M105,71.26a3,3,0,0,1,.61-.08,3.84,3.84,0,0,1,.66.08l-2.73,3.94,3.09,4.53a2.41,2.41,0,0,1-.72.09,2.37,2.37,0,0,1-.71-.09l-2.68-3.91h-.87v3.91a1.5,1.5,0,0,1-.61.09,1.75,1.75,0,0,1-.61-.09V71.26a1.91,1.91,0,0,1,.62-.08,1.77,1.77,0,0,1,.6.08v3.58h.87Z"/><path class="cls-3" d="M110.41,71.06c2.08,0,3.38,1.33,3.38,4.44s-1.28,4.44-3.38,4.44S107,78.6,107,75.5,108.34,71.06,110.41,71.06Zm0,1c-1.27,0-2.1.77-2.1,3.42s.83,3.42,2.1,3.42,2.1-.77,2.1-3.42S111.7,72.08,110.41,72.08Z"/><path class="cls-3" d="M120.5,74.24a10.52,10.52,0,0,1-.27-1.76h0a12.63,12.63,0,0,1-.29,1.76l-1.38,5.49a3.81,3.81,0,0,1-.78.09,2.89,2.89,0,0,1-.69-.09l-2.35-8.47a1.8,1.8,0,0,1,.61-.08,1.73,1.73,0,0,1,.61.08l1.57,5.64a14.68,14.68,0,0,1,.34,1.58h.05a14.94,14.94,0,0,1,.28-1.58l1.44-5.64a1.83,1.83,0,0,1,.64-.08,1.94,1.94,0,0,1,.65.08l1.42,5.64a11.66,11.66,0,0,1,.28,1.58h0s.11-.72.34-1.58l1.57-5.64a1.76,1.76,0,0,1,.55-.08,1.85,1.85,0,0,1,.58.08l-2.34,8.47a2.51,2.51,0,0,1-.7.09,3.09,3.09,0,0,1-.73-.09Z"/><path class="cls-3" d="M129.42,71.18a2.69,2.69,0,0,1,.72.08l3,8.47a1.91,1.91,0,0,1-.66.09,1.53,1.53,0,0,1-.6-.09l-.74-2.11H127.6l-.76,2.11a1.56,1.56,0,0,1-.59.09,1.42,1.42,0,0,1-.56-.09l3-8.47A3.08,3.08,0,0,1,129.42,71.18Zm-.06,1.33s-.11.48-.31,1.08l-1.1,3h2.85l-1.09-3a8.43,8.43,0,0,1-.31-1.08Z"/><path class="cls-3" d="M136.21,74.27a10.54,10.54,0,0,1-.71-1.54h0s.08.8.08,2v5a1.39,1.39,0,0,1-.57.09,1.3,1.3,0,0,1-.56-.09V71.26a2.77,2.77,0,0,1,.74-.08,2.6,2.6,0,0,1,.72.08l3,5.41a14.14,14.14,0,0,1,.74,1.6h0s-.08-.89-.08-2v-5a1.54,1.54,0,0,1,.57-.08,1.3,1.3,0,0,1,.55.08v8.47a2,2,0,0,1-.7.09,2.36,2.36,0,0,1-.73-.09Z"/><path class="cls-3" d="M147.68,71.18a1.4,1.4,0,0,1,.1.47,1.51,1.51,0,0,1-.1.53H144V75h3a1.46,1.46,0,0,1,.1.48,1.39,1.39,0,0,1-.1.5h-3v2.88h3.76a1.58,1.58,0,0,1,.1.48,1.55,1.55,0,0,1-.1.52h-5V71.18Z"/><path class="cls-3" d="M73.4,85.58c2.22,0,3.52,1.14,3.52,4.32s-1.3,4.32-3.52,4.32H70.74V85.58Zm-.09,7.62c1.41,0,2.31-.6,2.31-3.3s-.9-3.3-2.31-3.3H72v6.6Z"/><path class="cls-3" d="M83.86,85.58a1.35,1.35,0,0,1,.09.52,1.81,1.81,0,0,1-.09.55l-4.51,6.49H84a2.24,2.24,0,0,1,.07.51,3.06,3.06,0,0,1-.07.57H78a1.64,1.64,0,0,1-.1-.56,1.34,1.34,0,0,1,.1-.52l4.45-6.49H78.33a3.06,3.06,0,0,1-.07-.57,2.14,2.14,0,0,1,.07-.5Z"/><path class="cls-3" d="M85.68,85.66a1.77,1.77,0,0,1,.6-.08,1.84,1.84,0,0,1,.62.08v8.47a1.75,1.75,0,0,1-.61.09,1.5,1.5,0,0,1-.61-.09Z"/><path class="cls-3" d="M91.89,85.58a2.69,2.69,0,0,1,.72.08l3,8.47a1.91,1.91,0,0,1-.66.09,1.53,1.53,0,0,1-.6-.09L93.62,92H90.07l-.76,2.11a1.56,1.56,0,0,1-.59.09,1.42,1.42,0,0,1-.56-.09l3-8.47A3.08,3.08,0,0,1,91.89,85.58Zm-.06,1.33s-.11.48-.31,1.08l-1.1,3h2.85l-1.09-3a8.43,8.43,0,0,1-.31-1.08Z"/><path class="cls-3" d="M97.77,85.58a1.94,1.94,0,0,1,.63.08v3.26L100,88a1.37,1.37,0,0,1,.38.66l-2,1.14v3.37H102a1.43,1.43,0,0,1,.1.53,1.51,1.51,0,0,1-.1.53H97.17V90.5l-.89.5a1.3,1.3,0,0,1-.38-.65l1.27-.73v-4A1.84,1.84,0,0,1,97.77,85.58Z"/><path class="cls-3" d="M106.25,85.58a2.69,2.69,0,0,1,.72.08l3,8.47a1.91,1.91,0,0,1-.66.09,1.53,1.53,0,0,1-.6-.09L108,92h-3.55l-.75,2.11a1.63,1.63,0,0,1-.59.09,1.42,1.42,0,0,1-.56-.09l3-8.47A2.94,2.94,0,0,1,106.25,85.58Zm0,1.33a11.25,11.25,0,0,1-.32,1.08l-1.1,3h2.85l-1.09-3a11.07,11.07,0,0,1-.31-1.08Z"/><path class="cls-3" d="M113.05,88.67a9.42,9.42,0,0,1-.71-1.54h0a19.88,19.88,0,0,1,.09,2v5a1.41,1.41,0,0,1-.58.09,1.28,1.28,0,0,1-.55-.09V85.66a2.64,2.64,0,0,1,.73-.08,2.51,2.51,0,0,1,.72.08l3,5.41a14.14,14.14,0,0,1,.74,1.6h0s-.09-.89-.09-2v-5a1.57,1.57,0,0,1,.58-.08,1.35,1.35,0,0,1,.55.08v8.47a2.14,2.14,0,0,1-.71.09,2.36,2.36,0,0,1-.73-.09Z"/><path class="cls-3" d="M119.65,85.66a1.77,1.77,0,0,1,.6-.08,1.84,1.84,0,0,1,.62.08v8.47a1.69,1.69,0,0,1-.61.09,1.5,1.5,0,0,1-.61-.09Z"/><path class="cls-3" d="M127.88,85.58a1.4,1.4,0,0,1,.09.47,1.51,1.51,0,0,1-.09.53h-3.65v2.78h3a1.46,1.46,0,0,1,.09.48,1.39,1.39,0,0,1-.09.5h-3v2.88H128a1.94,1.94,0,0,1,.09.48,1.54,1.54,0,0,1-.09.52h-5V85.58Z"/></svg>