<svg id="Warstwa_1" data-name="Warstwa 1" xmlns="http://www.w3.org/2000/svg" viewBox="0 0 200 100"><defs><style>.cls-1{fill:#ccd615;}.cls-2{fill:#fff;}.cls-3{fill:#075da7;}</style></defs><title>ikona_03</title><path class="cls-1" d="M100,60.35a25,25,0,1,0-25-25,25,25,0,0,0,25,25"/><path class="cls-2" d="M100,52.86l-.44-.1c-1.3-.57-12.68-5.79-12.68-12.9V23A1.06,1.06,0,0,1,88,22C97.3,22,99,18.53,99,18.5a1.05,1.05,0,0,1,1-.65,1.09,1.09,0,0,1,1,.67S102.69,22,112.05,22A1.06,1.06,0,0,1,113.11,23V39.86c0,7.3-12.17,12.67-12.69,12.9Zm0-1.14h0l.08,0S112,46.44,112,39.86V23.08c-9.4,0-11.64-3.35-12-4-.44.81-2.77,4-12,4L88,39.86C88,46.22,99,51.28,100,51.72Z"/><path class="cls-2" d="M100.5,46.9l-.26-.12c-.82-.4-8-4-8.35-7.41-.31-3.25-.15-12.29-.14-12.67v-.55h16.41v.55c0,.07.08,6.94-.16,11.9-.2,4.18-7,8-7.26,8.16ZM92.85,27.26c0,2-.12,9.27.15,12,.22,2.31,5.23,5.27,7.46,6.38,1.2-.71,6.29-3.93,6.45-7.09.2-4.11.17-9.56.16-11.29Z"/><rect class="cls-2" x="99.39" y="17.85" width="1.11" height="34.99"/><path class="cls-3" d="M64.23,71.18a1.4,1.4,0,0,1,.1.47,1.51,1.51,0,0,1-.1.53H60.58V75h3.05a1.46,1.46,0,0,1,.1.48,1.39,1.39,0,0,1-.1.5H60.58v2.88h3.77a1.58,1.58,0,0,1,.1.48,1.55,1.55,0,0,1-.1.52h-5V71.18Z"/><path class="cls-3" d="M67.26,79.73a1.75,1.75,0,0,1-.63.09,1.66,1.66,0,0,1-.6-.09V71.18h4.78a1.19,1.19,0,0,1,.09.49,1.36,1.36,0,0,1-.09.51H67.26V75.1H70.4a1.11,1.11,0,0,1,.09.48,1.42,1.42,0,0,1-.09.52H67.26Z"/><path class="cls-3" d="M77.29,71.18a1.71,1.71,0,0,1,.09.47,1.51,1.51,0,0,1-.09.53H73.64V75h3a1.46,1.46,0,0,1,.09.48,1.39,1.39,0,0,1-.09.5h-3v2.88h3.77a1.94,1.94,0,0,1,.09.48,1.54,1.54,0,0,1-.09.52h-5V71.18Z"/><path class="cls-3" d="M83.66,71.26a3,3,0,0,1,.61-.08,3.84,3.84,0,0,1,.66.08L82.21,75.2l3.08,4.53a2.33,2.33,0,0,1-.72.09,2.46,2.46,0,0,1-.71-.09l-2.67-3.91h-.88v3.91a1.5,1.5,0,0,1-.61.09,1.82,1.82,0,0,1-.61-.09V71.26a1.91,1.91,0,0,1,.62-.08,1.77,1.77,0,0,1,.6.08v3.58h.88Z"/><path class="cls-3" d="M91.58,71.18a1.51,1.51,0,0,1,.09.52,1.63,1.63,0,0,1-.09.54H89.35v7.49a1.75,1.75,0,0,1-.61.09,1.53,1.53,0,0,1-.62-.09V72.24H85.83a1.46,1.46,0,0,1-.09-.53,1.6,1.6,0,0,1,.09-.53Z"/><path class="cls-3" d="M98.68,71.18A2.19,2.19,0,0,1,101,73.55a2.06,2.06,0,0,1-1,1.83,2.1,2.1,0,0,1,1.22,2,2.32,2.32,0,0,1-2.56,2.44H95.47V71.18ZM98.42,75a1.26,1.26,0,0,0,1.37-1.43,1.25,1.25,0,0,0-1.38-1.42H96.69V75Zm.08,3.89A1.33,1.33,0,0,0,100,77.38c0-1-.48-1.49-1.54-1.49h-1.8v3Z"/><path class="cls-3" d="M105.78,71.18a2.65,2.65,0,0,1,.71.08l3,8.47a1.91,1.91,0,0,1-.66.09,1.53,1.53,0,0,1-.6-.09l-.75-2.11H104l-.75,2.11a1.63,1.63,0,0,1-.59.09,1.42,1.42,0,0,1-.56-.09l3-8.47A3.08,3.08,0,0,1,105.78,71.18Zm-.06,1.33a11.25,11.25,0,0,1-.32,1.08l-1.1,3h2.85l-1.09-3a11.07,11.07,0,0,1-.31-1.08Z"/><path class="cls-3" d="M113.84,71.18a2.41,2.41,0,0,1,2.58,2.53,2.36,2.36,0,0,1-1.69,2.4l2.08,3.62a2.33,2.33,0,0,1-.72.09,2.23,2.23,0,0,1-.69-.09l-2-3.5H112v3.5a1.59,1.59,0,0,1-.6.09,1.53,1.53,0,0,1-.62-.09V71.18Zm-1.85,4h1.69a1.51,1.51,0,0,0,0-3H112Z"/><path class="cls-3" d="M118.28,71.26a2.37,2.37,0,0,1,1.22,0v8.47a1.69,1.69,0,0,1-.61.09,1.5,1.5,0,0,1-.61-.09Z"/><path class="cls-3" d="M126.51,71.18a1.4,1.4,0,0,1,.1.47,1.51,1.51,0,0,1-.1.53h-3.65V75h3a1.46,1.46,0,0,1,.1.48,1.39,1.39,0,0,1-.1.5h-3v2.88h3.77a1.58,1.58,0,0,1,.1.48,1.55,1.55,0,0,1-.1.52h-5V71.18Z"/><path class="cls-3" d="M131.38,71.18A2.41,2.41,0,0,1,134,73.71a2.35,2.35,0,0,1-1.69,2.4l2.09,3.62a2.33,2.33,0,0,1-.72.09,2.26,2.26,0,0,1-.7-.09l-2-3.5h-1.41v3.5a1.66,1.66,0,0,1-.6.09,1.56,1.56,0,0,1-.63-.09V71.18Zm-1.84,4h1.69a1.51,1.51,0,0,0,0-3h-1.69Z"/><path class="cls-3" d="M141.2,71.18a2.63,2.63,0,0,1,.68.08l-3,4.95v3.52a1.66,1.66,0,0,1-.6.09,1.68,1.68,0,0,1-.63-.09v-3.5l-3-5a2.9,2.9,0,0,1,.75-.08,2.48,2.48,0,0,1,.69.08l2.2,3.71,2.25-3.71A2.05,2.05,0,0,1,141.2,71.18Z"/><path class="cls-3" d="M70.33,85.46c2.08,0,3.39,1.33,3.39,4.44s-1.29,4.44-3.39,4.44S67,93,67,89.9,68.26,85.46,70.33,85.46Zm0,1c-1.27,0-2.09.77-2.09,3.42s.82,3.42,2.09,3.42,2.1-.77,2.1-3.42S71.62,86.48,70.33,86.48Z"/><path class="cls-3" d="M78.6,85.46a4.44,4.44,0,0,1,2.05.41,1.16,1.16,0,0,1-.36.91,4.57,4.57,0,0,0-1.55-.28c-1.39,0-2.36.74-2.36,3.41s1,3.36,2.36,3.36A5.08,5.08,0,0,0,80.41,93a1.35,1.35,0,0,1,.37.94,5,5,0,0,1-2.18.41c-2.29,0-3.49-1.52-3.49-4.44S76.3,85.46,78.6,85.46Z"/><path class="cls-3" d="M87.05,85.66a2.37,2.37,0,0,1,1.22,0v8.47a1.59,1.59,0,0,1-.6.09,1.47,1.47,0,0,1-.62-.09V90.32h-3.6v3.81a1.75,1.75,0,0,1-.61.09,1.5,1.5,0,0,1-.61-.09V85.66a1.77,1.77,0,0,1,.6-.08,2,2,0,0,1,.62.08v3.6h3.6Z"/><path class="cls-3" d="M93.48,85.58a2.41,2.41,0,0,1,2.58,2.53,2.36,2.36,0,0,1-1.69,2.4l2.09,3.62a2.41,2.41,0,0,1-.72.09,2.26,2.26,0,0,1-.7-.09l-2-3.5H91.63v3.5a1.59,1.59,0,0,1-.6.09,1.53,1.53,0,0,1-.62-.09V85.58Zm-1.85,4h1.7a1.51,1.51,0,0,0,0-3h-1.7Z"/><path class="cls-3" d="M100.87,85.46c2.08,0,3.39,1.33,3.39,4.44s-1.29,4.44-3.39,4.44S97.49,93,97.49,89.9,98.8,85.46,100.87,85.46Zm0,1c-1.27,0-2.1.77-2.1,3.42s.83,3.42,2.1,3.42,2.1-.77,2.1-3.42S102.16,86.48,100.87,86.48Z"/><path class="cls-3" d="M107.82,88.67a10.54,10.54,0,0,1-.71-1.54h0s.08.8.08,2v5a1.41,1.41,0,0,1-.58.09,1.28,1.28,0,0,1-.55-.09V85.66a2.73,2.73,0,0,1,.73-.08,2.51,2.51,0,0,1,.72.08l3,5.41a14.14,14.14,0,0,1,.74,1.6h0s-.08-.89-.08-2v-5a1.54,1.54,0,0,1,.57-.08,1.3,1.3,0,0,1,.55.08v8.47a2,2,0,0,1-.7.09,2.48,2.48,0,0,1-.74-.09Z"/><path class="cls-3" d="M116.22,88.67a10.54,10.54,0,0,1-.71-1.54h0s.08.8.08,2v5a1.41,1.41,0,0,1-.58.09,1.28,1.28,0,0,1-.55-.09V85.66a2.64,2.64,0,0,1,.73-.08,2.51,2.51,0,0,1,.72.08l3,5.41a14.14,14.14,0,0,1,.74,1.6h0s-.08-.89-.08-2v-5a1.54,1.54,0,0,1,.57-.08,1.3,1.3,0,0,1,.55.08v8.47a2,2,0,0,1-.7.09,2.48,2.48,0,0,1-.74-.09Z"/><path class="cls-3" d="M127.69,85.58a1.4,1.4,0,0,1,.1.47,1.51,1.51,0,0,1-.1.53h-3.64v2.78h3a1.46,1.46,0,0,1,.1.48,1.39,1.39,0,0,1-.1.5h-3v2.88h3.76a1.58,1.58,0,0,1,.1.48,1.55,1.55,0,0,1-.1.52h-5V85.58Z"/><path class="cls-3" d="M131.51,85.66a1.6,1.6,0,0,1,.61-.08,1.8,1.8,0,0,1,.61.08v6.26a2.15,2.15,0,0,1-2.31,2.42,4.69,4.69,0,0,1-1.75-.36,1.19,1.19,0,0,1,.32-.93,3.52,3.52,0,0,0,1.16.22A1.19,1.19,0,0,0,131.51,92Z"/></svg>