<svg id="Warstwa_1" data-name="Warstwa 1" xmlns="http://www.w3.org/2000/svg" viewBox="0 0 200 100"><defs><style>.cls-1{fill:#ccd615;}.cls-2{fill:#fff;}.cls-3{fill:#075da7;}</style></defs><title>ikona_02</title><path class="cls-1" d="M100,60.35a25,25,0,1,0-25-25,25,25,0,0,0,25,25"/><path class="cls-2" d="M100.68,33.49v-8.6a.56.56,0,1,0-1.11,0v8.53a1.94,1.94,0,0,0,0,3.83v.86a.56.56,0,1,0,1.11,0v-.93a1.93,1.93,0,0,0,0-3.69"/><rect class="cls-2" x="99.4" y="15.81" width="1.2" height="3.04"/><path class="cls-2" d="M111.75,24.36l1.48-1.43.65.63.83-.8-2.21-2.13-.83.8.73.7-1.5,1.44a16.7,16.7,0,0,0-10.9-4c-9,0-16.37,7.08-16.37,15.78S91,51.1,100,51.1,116.37,44,116.37,35.33a15.41,15.41,0,0,0-4.62-11M100.67,50V47.16H99.33V50A14.93,14.93,0,0,1,84.82,35.9H87.2V34.76H84.82A14.94,14.94,0,0,1,99.41,20.7v2.44h1.18V20.7a14.94,14.94,0,0,1,14.59,14.06H113V35.9h2.21A14.94,14.94,0,0,1,100.67,50"/><path class="cls-3" d="M68.8,71.06c2.07,0,3.38,1.33,3.38,4.44s-1.28,4.44-3.38,4.44-3.38-1.34-3.38-4.44S66.72,71.06,68.8,71.06Zm0,1c-1.27,0-2.1.77-2.1,3.42s.83,3.42,2.1,3.42,2.1-.77,2.1-3.42S70.08,72.08,68.8,72.08Z"/><path class="cls-3" d="M75.17,79.73a1.59,1.59,0,0,1-.6.09,1.53,1.53,0,0,1-.62-.09V71.18h3.13a2.64,2.64,0,0,1,0,5.27H75.17Zm1.75-4.3c1,0,1.47-.6,1.47-1.61s-.52-1.62-1.47-1.62H75.17v3.23Z"/><path class="cls-3" d="M86.3,71.18a1.38,1.38,0,0,1,.1.52,1.49,1.49,0,0,1-.1.54H84.07v7.49a1.69,1.69,0,0,1-.61.09,1.5,1.5,0,0,1-.61-.09V72.24H80.56a1.34,1.34,0,0,1-.1-.53,1.46,1.46,0,0,1,.1-.53Z"/><path class="cls-3" d="M93.47,71.18a2.63,2.63,0,0,1,.68.08l-3,4.95v3.52a1.66,1.66,0,0,1-.6.09,1.68,1.68,0,0,1-.63-.09v-3.5l-3-5a2.9,2.9,0,0,1,.75-.08,2.48,2.48,0,0,1,.69.08L90.58,75l2.25-3.71A2.05,2.05,0,0,1,93.47,71.18Z"/><path class="cls-3" d="M102.49,71.18a3.48,3.48,0,0,1,.79.08v8.47a1.59,1.59,0,0,1-.6.09,1.82,1.82,0,0,1-.61-.09V75.89c0-1.17,0-2.48.07-3.2h-.06A18.29,18.29,0,0,1,101,75.1l-1.41,2.64a1.09,1.09,0,0,1-.37.06.69.69,0,0,1-.33-.06l-1.38-2.59a18.22,18.22,0,0,1-1.1-2.46h0a21,21,0,0,1,.12,3v4a1.53,1.53,0,0,1-.58.09,1.49,1.49,0,0,1-.54-.09V71.26a3,3,0,0,1,.73-.08,3.71,3.71,0,0,1,.73.08l1.59,3a15.9,15.9,0,0,1,.83,1.86h0a9.2,9.2,0,0,1,.45-1.07c.67-1.26,1.32-2.51,1.95-3.79A4.91,4.91,0,0,1,102.49,71.18Z"/><path class="cls-3" d="M108.27,71.18a2.78,2.78,0,0,1,.72.08l3,8.47a1.91,1.91,0,0,1-.66.09,1.53,1.53,0,0,1-.6-.09L110,77.62h-3.55l-.75,2.11a1.63,1.63,0,0,1-.59.09,1.42,1.42,0,0,1-.56-.09l3-8.47A3.08,3.08,0,0,1,108.27,71.18Zm-.06,1.33a11.25,11.25,0,0,1-.32,1.08l-1.1,3h2.86l-1.1-3a11.07,11.07,0,0,1-.31-1.08Z"/><path class="cls-3" d="M113.26,71.26a1.77,1.77,0,0,1,.6-.08,1.84,1.84,0,0,1,.62.08v7.5h3.59a1.44,1.44,0,0,1,.09.53,1.51,1.51,0,0,1-.09.53h-4.81Z"/><path class="cls-3" d="M121.29,74.27a9.42,9.42,0,0,1-.71-1.54h0s.08.8.08,2v5a1.39,1.39,0,0,1-.57.09,1.28,1.28,0,0,1-.55-.09V71.26a2.64,2.64,0,0,1,.73-.08,2.51,2.51,0,0,1,.72.08l3,5.41a13.25,13.25,0,0,1,.75,1.6h0s-.08-.89-.08-2v-5a1.57,1.57,0,0,1,.58-.08,1.35,1.35,0,0,1,.55.08v8.47a2.14,2.14,0,0,1-.71.09,2.36,2.36,0,0,1-.73-.09Z"/><path class="cls-3" d="M133.57,71.18a2.76,2.76,0,0,1,.69.08l-3,4.95v3.52a2.11,2.11,0,0,1-1.22,0v-3.5l-3-5a2.77,2.77,0,0,1,.74-.08,2.61,2.61,0,0,1,.7.08L130.68,75l2.26-3.71A1.94,1.94,0,0,1,133.57,71.18Z"/><path class="cls-3" d="M58.32,85.46a4.44,4.44,0,0,1,2,.41,1.16,1.16,0,0,1-.36.91,4.55,4.55,0,0,0-1.54-.28c-1.39,0-2.37.74-2.37,3.41s1,3.36,2.37,3.36A5.05,5.05,0,0,0,60.13,93a1.35,1.35,0,0,1,.37.94,5,5,0,0,1-2.18.41c-2.29,0-3.49-1.52-3.49-4.44S56,85.46,58.32,85.46Z"/><path class="cls-3" d="M67.26,85.58a1.38,1.38,0,0,1,.08.52,1.82,1.82,0,0,1-.08.55l-4.51,6.49h4.67a2.24,2.24,0,0,1,.07.51,3.06,3.06,0,0,1-.07.57h-6a1.64,1.64,0,0,1-.1-.56,1.34,1.34,0,0,1,.1-.52l4.45-6.49H61.73a3.06,3.06,0,0,1-.07-.57,2.14,2.14,0,0,1,.07-.5Z"/><path class="cls-3" d="M71.93,85.58a2.69,2.69,0,0,1,.72.08l3,8.47a1.91,1.91,0,0,1-.66.09,1.53,1.53,0,0,1-.6-.09L73.66,92H70.11l-.76,2.11a1.56,1.56,0,0,1-.59.09,1.42,1.42,0,0,1-.56-.09l3-8.47A3.08,3.08,0,0,1,71.93,85.58Zm-.06,1.33s-.11.48-.31,1.08l-1.1,3h2.85l-1.09-3a8.43,8.43,0,0,1-.31-1.08Z"/><path class="cls-3" d="M79.44,85.46a7.33,7.33,0,0,1,2.35.34,1.47,1.47,0,0,1-.33,1,6.56,6.56,0,0,0-1.85-.27c-1.27,0-1.88.49-1.88,1.37s1,1.14,2.14,1.5,2.25.9,2.25,2.47-1.05,2.51-3,2.51a6.16,6.16,0,0,1-2.59-.51,1.71,1.71,0,0,1,.28-1,8.32,8.32,0,0,0,2.25.37c1.23,0,1.82-.47,1.82-1.36s-.68-1.16-1.51-1.42c-1.25-.42-2.84-.72-2.84-2.53C76.52,86.44,77.49,85.46,79.44,85.46Z"/><path class="cls-3" d="M91,85.66a3.12,3.12,0,0,1,.61-.08,3.84,3.84,0,0,1,.66.08L89.56,89.6l3.08,4.53a2.33,2.33,0,0,1-.72.09,2.46,2.46,0,0,1-.71-.09l-2.67-3.91h-.88v3.91a1.5,1.5,0,0,1-.61.09,1.82,1.82,0,0,1-.61-.09V85.66a2,2,0,0,1,.62-.08,1.77,1.77,0,0,1,.6.08v3.58h.88Z"/><path class="cls-3" d="M96.45,85.46c2.07,0,3.38,1.33,3.38,4.44s-1.29,4.44-3.38,4.44S93.06,93,93.06,89.9,94.37,85.46,96.45,85.46Zm0,1c-1.28,0-2.1.77-2.1,3.42s.82,3.42,2.1,3.42,2.09-.77,2.09-3.42S97.73,86.48,96.45,86.48Z"/><path class="cls-3" d="M103.39,88.67a9.88,9.88,0,0,1-.7-1.54h0s.08.8.08,2v5a1.39,1.39,0,0,1-.57.09,1.22,1.22,0,0,1-.55-.09V85.66a2.64,2.64,0,0,1,.73-.08,2.51,2.51,0,0,1,.72.08l3,5.41a15.33,15.33,0,0,1,.75,1.6h0s-.08-.89-.08-2v-5a1.54,1.54,0,0,1,.57-.08,1.38,1.38,0,0,1,.56.08v8.47a2.14,2.14,0,0,1-.71.09,2.36,2.36,0,0,1-.73-.09Z"/><path class="cls-3" d="M115.08,85.58a1.38,1.38,0,0,1,.1.52,1.49,1.49,0,0,1-.1.54h-2.23v7.49a1.75,1.75,0,0,1-.61.09,1.5,1.5,0,0,1-.61-.09V86.64h-2.29a1.34,1.34,0,0,1-.1-.53,1.46,1.46,0,0,1,.1-.53Z"/><path class="cls-3" d="M118.71,85.58a2.78,2.78,0,0,1,.72.08l3,8.47a1.91,1.91,0,0,1-.66.09,1.53,1.53,0,0,1-.6-.09L120.43,92h-3.55l-.75,2.11a1.63,1.63,0,0,1-.59.09,1.42,1.42,0,0,1-.56-.09l3-8.47A3.08,3.08,0,0,1,118.71,85.58Zm-.06,1.33a11.25,11.25,0,0,1-.32,1.08l-1.1,3h2.85L119,88a11.07,11.07,0,0,1-.31-1.08Z"/><path class="cls-3" d="M128.27,85.66a3,3,0,0,1,.61-.08,3.84,3.84,0,0,1,.66.08l-2.72,3.94,3.08,4.53a2.33,2.33,0,0,1-.72.09,2.46,2.46,0,0,1-.71-.09l-2.67-3.91h-.88v3.91a1.5,1.5,0,0,1-.61.09,1.82,1.82,0,0,1-.61-.09V85.66a2,2,0,0,1,.62-.08,1.77,1.77,0,0,1,.6.08v3.58h.88Z"/><path class="cls-3" d="M136.19,85.58a1.51,1.51,0,0,1,.09.52,1.63,1.63,0,0,1-.09.54H134v7.49a1.75,1.75,0,0,1-.61.09,1.53,1.53,0,0,1-.62-.09V86.64h-2.29a1.46,1.46,0,0,1-.09-.53,1.6,1.6,0,0,1,.09-.53Z"/><path class="cls-3" d="M143.65,91.29a3,3,0,1,1-6,0V85.66a1.77,1.77,0,0,1,.6-.08,1.8,1.8,0,0,1,.61.08v5.82a1.82,1.82,0,1,0,3.63,0V85.66a1.67,1.67,0,0,1,.59-.08,1.87,1.87,0,0,1,.61.08Z"/></svg>