<svg id="Warstwa_1" data-name="Warstwa 1" xmlns="http://www.w3.org/2000/svg" viewBox="0 0 453.86 60"><defs><style>.cls-1{fill:#005ca6;}.cls-2{fill:#0056a3;}.cls-3{fill:none;stroke:#ccd513;stroke-miterlimit:10;stroke-width:1.85px;}</style></defs><title>klinicznie_potwierdzona</title><path class="cls-1" d="M50.78,8.69a5.4,5.4,0,0,1,1.29-.18,6.62,6.62,0,0,1,1.39.18L47.71,17l6.51,9.57a5.19,5.19,0,0,1-1.52.18,5.24,5.24,0,0,1-1.49-.18l-5.65-8.25H43.71v8.25a3.33,3.33,0,0,1-1.29.18,4,4,0,0,1-1.29-.18V8.69a4,4,0,0,1,1.32-.18,3.56,3.56,0,0,1,1.26.18v7.54h1.85Z"/><path class="cls-1" d="M58.7,26.56a3.56,3.56,0,0,1-1.26.18,3.27,3.27,0,0,1-1.27-.18V7.93a3.27,3.27,0,0,1,1.27-.18,3.56,3.56,0,0,1,1.26.18Z"/><path class="cls-1" d="M64.86,10.87a4.17,4.17,0,0,1-1.32.17,3.8,3.8,0,0,1-1.32-.17V8.49a3.61,3.61,0,0,1,1.32-.18,4,4,0,0,1,1.32.18Zm0,15.69a3.59,3.59,0,0,1-1.27.18,3.27,3.27,0,0,1-1.27-.18v-13a3.27,3.27,0,0,1,1.27-.18,3.59,3.59,0,0,1,1.27.18Z"/><path class="cls-1" d="M78.58,26.56a3.59,3.59,0,0,1-1.27.18,3.36,3.36,0,0,1-1.26-.18V17.45c0-1.42-.74-2.23-2.36-2.23a3.48,3.48,0,0,0-2.86,1.62v9.72a3.7,3.7,0,0,1-1.26.18,3.27,3.27,0,0,1-1.27-.18v-13a3.27,3.27,0,0,1,1.27-.18,3.7,3.7,0,0,1,1.26.18v1.17a4.9,4.9,0,0,1,3.82-1.6A3.58,3.58,0,0,1,78.58,17Z"/><path class="cls-1" d="M84.58,10.87a4.17,4.17,0,0,1-1.32.17A3.7,3.7,0,0,1,82,10.87V8.49a3.51,3.51,0,0,1,1.31-.18,4,4,0,0,1,1.32.18Zm0,15.69a3.59,3.59,0,0,1-1.27.18A3.24,3.24,0,0,1,82,26.56v-13a3.24,3.24,0,0,1,1.26-.18,3.59,3.59,0,0,1,1.27.18Z"/><path class="cls-1" d="M90.05,20.08c0,3.32,1.06,4.76,3.49,4.76a6.54,6.54,0,0,0,2.38-.43,2.68,2.68,0,0,1,.74,1.82A6.91,6.91,0,0,1,93,27c-3.7,0-5.57-2.4-5.57-6.91s1.87-6.91,5.57-6.91a6.66,6.66,0,0,1,3.39.63,2.61,2.61,0,0,1-.73,1.83,6.19,6.19,0,0,0-2.23-.38C91,15.25,90.05,16.79,90.05,20.08Z"/><path class="cls-1" d="M107.75,24.66a3,3,0,0,1,.15,1,3.31,3.31,0,0,1-.15,1h-9.4a4.78,4.78,0,0,1-.15-1.09,3.69,3.69,0,0,1,.15-1l6.74-9.16H98.78a3.53,3.53,0,0,1-.15-1.06,2.89,2.89,0,0,1,.15-1h9a2.68,2.68,0,0,1,.15,1,3.46,3.46,0,0,1-.15,1.09L101,24.66Z"/><path class="cls-1" d="M120.94,26.56a3.59,3.59,0,0,1-1.27.18,3.36,3.36,0,0,1-1.26-.18V17.45c0-1.42-.74-2.23-2.36-2.23a3.48,3.48,0,0,0-2.86,1.62v9.72a3.8,3.8,0,0,1-1.27.18,3.24,3.24,0,0,1-1.26-.18v-13a3.24,3.24,0,0,1,1.26-.18,3.8,3.8,0,0,1,1.27.18v1.17a4.9,4.9,0,0,1,3.82-1.6A3.58,3.58,0,0,1,120.94,17Z"/><path class="cls-1" d="M126.94,10.87a4.17,4.17,0,0,1-1.32.17,3.7,3.7,0,0,1-1.31-.17V8.49a3.51,3.51,0,0,1,1.31-.18,4,4,0,0,1,1.32.18Zm0,15.69a3.59,3.59,0,0,1-1.27.18,3.24,3.24,0,0,1-1.26-.18v-13a3.24,3.24,0,0,1,1.26-.18,3.59,3.59,0,0,1,1.27.18Z"/><path class="cls-1" d="M132.41,20.87c.2,3,1.42,4,3.52,4a6.15,6.15,0,0,0,3-.73,2.56,2.56,0,0,1,.81,1.82,7.47,7.47,0,0,1-4.2,1.06c-3.9,0-5.72-2.4-5.72-7,0-4.79,2.25-6.84,5.62-6.84,3.11,0,5,1.72,5,5.09a10.83,10.83,0,0,1-.28,2.61Zm3-5.7c-1.65,0-2.81,1.09-3,3.9h5.42a10.33,10.33,0,0,0,.07-1.14C137.9,16.44,137.29,15.17,135.42,15.17Z"/><path class="cls-1" d="M154.76,13.17c2.89,0,4.76,1.75,4.76,6.91S157.65,27,154.76,27a4.06,4.06,0,0,1-3.64-1.64v7.08a4.06,4.06,0,0,1-1.29.16,3.67,3.67,0,0,1-1.24-.16V13.6a3.3,3.3,0,0,1,1.24-.18,3.65,3.65,0,0,1,1.29.18v1.22A4,4,0,0,1,154.76,13.17Zm-.88,2.08c-1.77,0-2.76,1.46-2.76,3.19v3.24c0,1.74,1,3.24,2.76,3.24,2,0,3-1.07,3-4.84S155.9,15.25,153.88,15.25Z"/><path class="cls-1" d="M167.47,13.17c3.5,0,5.62,1.9,5.62,6.91S170.94,27,167.47,27s-5.62-1.9-5.62-6.91S164,13.17,167.47,13.17Zm0,1.95c-1.85,0-3,1.06-3,5s1.18,5,3,5,3-1.06,3-5S169.32,15.12,167.47,15.12Z"/><path class="cls-1" d="M179.35,22c0,2.3.73,3,2.53,3a6.89,6.89,0,0,0,1.06-.1,2.87,2.87,0,0,1,.18,1,2.63,2.63,0,0,1-.13.91,7.08,7.08,0,0,1-1.82.23c-3.11,0-4.35-1.69-4.35-4.91V15.32h-1.95a2.56,2.56,0,0,1-.15-.93,2.55,2.55,0,0,1,.15-1h1.95v-2.3a4.39,4.39,0,0,1,2.53-.51v2.81h3.29a2.46,2.46,0,0,1,.15.94,2.85,2.85,0,0,1-.15,1h-3.29Z"/><path class="cls-1" d="M194.31,19.7a17.57,17.57,0,0,1-.68-3.64h-.1a16.52,16.52,0,0,1-.71,3.64l-2,6.86a4.8,4.8,0,0,1-1.44.18,5.15,5.15,0,0,1-1.47-.18l-3.83-13a3.8,3.8,0,0,1,1.27-.18,2,2,0,0,1,1.09.18l2.4,8.08a16.65,16.65,0,0,1,.54,2.48h.07a20.27,20.27,0,0,1,.56-2.48l2.33-8.08a5.25,5.25,0,0,1,1.36-.18,3.3,3.3,0,0,1,1.24.18l2.26,8a13.69,13.69,0,0,1,.5,2.53h.08a24.77,24.77,0,0,1,.63-2.51l2.38-8a3,3,0,0,1,1.12-.18,2.29,2.29,0,0,1,1.08.18l-3.82,13a5.07,5.07,0,0,1-1.44.18,5.43,5.43,0,0,1-1.47-.18Z"/><path class="cls-1" d="M207.86,10.87a4.17,4.17,0,0,1-1.32.17,3.7,3.7,0,0,1-1.31-.17V8.49a3.51,3.51,0,0,1,1.31-.18,4,4,0,0,1,1.32.18Zm-.05,15.69a3.59,3.59,0,0,1-1.27.18,3.24,3.24,0,0,1-1.26-.18v-13a3.24,3.24,0,0,1,1.26-.18,3.59,3.59,0,0,1,1.27.18Z"/><path class="cls-1" d="M213.33,20.87c.2,3,1.42,4,3.52,4a6.15,6.15,0,0,0,3-.73,2.56,2.56,0,0,1,.81,1.82,7.47,7.47,0,0,1-4.2,1.06c-3.9,0-5.72-2.4-5.72-7,0-4.79,2.25-6.84,5.62-6.84,3.11,0,5,1.72,5,5.09a10.83,10.83,0,0,1-.28,2.61Zm3-5.7c-1.65,0-2.81,1.09-3,3.9h5.41a7.84,7.84,0,0,0,.08-1.14C218.82,16.44,218.21,15.17,216.34,15.17Z"/><path class="cls-1" d="M229.68,13.2a3.9,3.9,0,0,1,2.2.63A2.87,2.87,0,0,1,230.77,16a2.53,2.53,0,0,0-1.57-.54,3.28,3.28,0,0,0-2.61,1.93v9.21a3.56,3.56,0,0,1-1.26.18,3.27,3.27,0,0,1-1.27-.18v-13a3.27,3.27,0,0,1,1.27-.18,3.56,3.56,0,0,1,1.26.18v1.75C227.56,13.75,228.67,13.2,229.68,13.2Z"/><path class="cls-1" d="M242.92,7.75a3.3,3.3,0,0,1,1.24.18V26.56a3,3,0,0,1-1.06.18,3.81,3.81,0,0,1-1.14-.18l-.17-1.36A4.17,4.17,0,0,1,238,27c-2.89,0-4.76-1.74-4.76-6.91s1.87-6.91,4.76-6.91a4.09,4.09,0,0,1,3.64,1.65V7.93A3.65,3.65,0,0,1,242.92,7.75Zm-4,7.5c-2,0-3,1.06-3,4.83s1,4.84,3,4.84c1.78,0,2.76-1.5,2.76-3.24V18.41C241.61,16.71,240.62,15.25,238.87,15.25Z"/><path class="cls-1" d="M256.27,24.66a3,3,0,0,1,.15,1,3.31,3.31,0,0,1-.15,1h-9.39a4.25,4.25,0,0,1-.16-1.09,3.3,3.3,0,0,1,.16-1l6.73-9.16h-6.3a3.33,3.33,0,0,1-.16-1.06,2.72,2.72,0,0,1,.16-1h9a2.68,2.68,0,0,1,.15,1,3.46,3.46,0,0,1-.15,1.09l-6.71,9.16Z"/><path class="cls-1" d="M264.22,13.17c3.49,0,5.62,1.9,5.62,6.91S267.69,27,264.22,27s-5.62-1.9-5.62-6.91S260.75,13.17,264.22,13.17Zm0,1.95c-1.85,0-3,1.06-3,5s1.19,5,3,5,3-1.06,3-5S266.07,15.12,264.22,15.12Z"/><path class="cls-1" d="M283,26.56a3.59,3.59,0,0,1-1.27.18,3.36,3.36,0,0,1-1.26-.18V17.45c0-1.42-.74-2.23-2.36-2.23a3.48,3.48,0,0,0-2.86,1.62v9.72a3.7,3.7,0,0,1-1.26.18,3.27,3.27,0,0,1-1.27-.18v-13a3.27,3.27,0,0,1,1.27-.18,3.7,3.7,0,0,1,1.26.18v1.17a4.91,4.91,0,0,1,3.83-1.6A3.57,3.57,0,0,1,283,17Z"/><path class="cls-1" d="M291,13.17c3.67,0,4.83,1.65,4.83,4.91v8.48a2,2,0,0,1-1,.18,2.55,2.55,0,0,1-1-.18l-.38-1.62c-.66,1.34-2.05,2-4,2-2.38,0-3.93-1.39-3.93-4.22s1.7-4,4.86-4c1.14,0,2.23.08,2.89.15V18c0-1.73-.66-2.71-2.61-2.71a10.58,10.58,0,0,0-3.39.63,2.11,2.11,0,0,1-.58-.76,2.14,2.14,0,0,1-.15-1.06A10.91,10.91,0,0,1,291,13.17Zm-.26,7.34c-1.69,0-2.58.66-2.58,2.26S289,25,290.32,25c2,0,2.94-1.69,2.94-3.49v-.89C292.68,20.61,291.67,20.51,290.7,20.51Z"/><path class="cls-1" d="M308.75,13.17a7.19,7.19,0,0,1,3.57.68,2.57,2.57,0,0,1-.65,1.8,9.54,9.54,0,0,0-2.66-.4c-1.72,0-2.58.63-2.58,1.82s1.59,1.54,3.19,2.08S313,20.46,313,22.94s-1.59,4-4.81,4a9,9,0,0,1-4.22-.91,2.56,2.56,0,0,1,.68-1.87,10.8,10.8,0,0,0,3.42.63c1.54,0,2.43-.58,2.43-1.82s-1.4-1.7-2.89-2.13c-1.72-.5-3.59-1.24-3.59-3.74S305.54,13.17,308.75,13.17Z"/><path class="cls-1" d="M323,13.6a4.27,4.27,0,0,1,1.3-.18,4.83,4.83,0,0,1,1.24.16l-3.9,6,4.48,6.93a4.61,4.61,0,0,1-1.42.2,4.09,4.09,0,0,1-1.37-.2l-3.79-5.82h-1.42v5.82a4.09,4.09,0,0,1-1.24.18,4,4,0,0,1-1.29-.18V7.88a5.63,5.63,0,0,1,1.29-.13,6.12,6.12,0,0,1,1.24.13v11h1.44Z"/><path class="cls-1" d="M328,13.6a3.56,3.56,0,0,1,1.26-.18,3.46,3.46,0,0,1,1.27.18v9.11c0,1.42.73,2.23,2.35,2.23a3.42,3.42,0,0,0,2.86-1.62V13.6a3.8,3.8,0,0,1,1.27-.18,3.27,3.27,0,0,1,1.27.18v13a3.27,3.27,0,0,1-1.27.18,3.8,3.8,0,0,1-1.27-.18V25.4A4.92,4.92,0,0,1,331.87,27,3.57,3.57,0,0,1,328,23.17Z"/><path class="cls-1" d="M345.06,22c0,2.3.74,3,2.53,3a7.1,7.1,0,0,0,1.07-.1,3,3,0,0,1,.17,1,2.83,2.83,0,0,1-.12.91,7.15,7.15,0,0,1-1.82.23c-3.12,0-4.36-1.69-4.36-4.91V15.32h-1.95a2.56,2.56,0,0,1-.15-.93,2.55,2.55,0,0,1,.15-1h1.95v-2.3a4.41,4.41,0,0,1,2.53-.51v2.81h3.29a2.33,2.33,0,0,1,.16.94,2.69,2.69,0,0,1-.16,1h-3.29Z"/><path class="cls-1" d="M353,20.87c.2,3,1.42,4,3.52,4a6.1,6.1,0,0,0,3-.73,2.56,2.56,0,0,1,.81,1.82,7.47,7.47,0,0,1-4.2,1.06c-3.9,0-5.72-2.4-5.72-7,0-4.79,2.25-6.84,5.62-6.84,3.12,0,5,1.72,5,5.09a11.21,11.21,0,0,1-.27,2.61Zm3-5.7c-1.64,0-2.81,1.09-3,3.9h5.42a10.33,10.33,0,0,0,.07-1.14C358.53,16.44,357.92,15.17,356.05,15.17Z"/><path class="cls-1" d="M365.8,20.08c0,3.32,1.06,4.76,3.49,4.76a6.47,6.47,0,0,0,2.38-.43,2.68,2.68,0,0,1,.74,1.82,6.91,6.91,0,0,1-3.65.76c-3.69,0-5.57-2.4-5.57-6.91s1.88-6.91,5.57-6.91a6.66,6.66,0,0,1,3.39.63,2.57,2.57,0,0,1-.73,1.83,6.19,6.19,0,0,0-2.23-.38C366.76,15.25,365.8,16.79,365.8,20.08Z"/><path class="cls-1" d="M383.5,24.66a3,3,0,0,1,.15,1,3.31,3.31,0,0,1-.15,1h-9.39a4.25,4.25,0,0,1-.16-1.09,3.3,3.3,0,0,1,.16-1l6.73-9.16h-6.3a3.33,3.33,0,0,1-.16-1.06,2.72,2.72,0,0,1,.16-1h9a2.68,2.68,0,0,1,.15,1,3.46,3.46,0,0,1-.15,1.09l-6.71,9.16Z"/><path class="cls-1" d="M396.69,26.56a3.59,3.59,0,0,1-1.27.18,3.36,3.36,0,0,1-1.26-.18V17.45c0-1.42-.74-2.23-2.36-2.23a3.48,3.48,0,0,0-2.86,1.62v9.72a3.73,3.73,0,0,1-1.27.18,3.24,3.24,0,0,1-1.26-.18v-13a3.24,3.24,0,0,1,1.26-.18,3.73,3.73,0,0,1,1.27.18v1.17a4.9,4.9,0,0,1,3.82-1.6A3.58,3.58,0,0,1,396.69,17Z"/><path class="cls-1" d="M405.09,13.17c3.5,0,5.62,1.9,5.62,6.91S408.56,27,405.09,27s-5.62-1.9-5.62-6.91S401.63,13.17,405.09,13.17Zm0,1.95c-1.84,0-3,1.06-3,5s1.19,5,3,5,3-1.06,3-5S406.94,15.12,405.09,15.12Z"/><path class="cls-1" d="M417.75,13.17a7.19,7.19,0,0,1,3.57.68,2.57,2.57,0,0,1-.65,1.8,9.54,9.54,0,0,0-2.66-.4c-1.72,0-2.58.63-2.58,1.82s1.41,1.52,3,2c1.72.54,3.59,1.29,3.59,3.9s-1.59,4-4.81,4a9,9,0,0,1-4.23-.91,2.57,2.57,0,0,1,.69-1.87,10.8,10.8,0,0,0,3.42.63c1.54,0,2.43-.58,2.43-1.82,0-1.42-1.42-1.72-2.94-2.15-1.7-.51-3.54-1.22-3.54-3.72S414.54,13.17,417.75,13.17Zm-.86-1.72a2.11,2.11,0,0,1-1.44-.79l2.41-3.56a2.52,2.52,0,0,1,2.2.93Z"/><path class="cls-1" d="M426.64,20.08c0,3.32,1.07,4.76,3.49,4.76a6.47,6.47,0,0,0,2.38-.43,2.64,2.64,0,0,1,.74,1.82,6.91,6.91,0,0,1-3.65.76c-3.69,0-5.57-2.4-5.57-6.91s1.88-6.91,5.57-6.91a6.73,6.73,0,0,1,3.4.63,2.58,2.58,0,0,1-.74,1.83,6.12,6.12,0,0,0-2.23-.38C427.6,15.25,426.64,16.79,426.64,20.08Zm2.1-8.63a2.09,2.09,0,0,1-1.44-.79l2.41-3.56a2.53,2.53,0,0,1,2.2.93Z"/><path class="cls-1" d="M437.7,6.93a13.4,13.4,0,0,0-1.65,6.66,13.38,13.38,0,0,0,1.65,6.65,1.08,1.08,0,0,1-.46.43,1.63,1.63,0,0,1-.63.16,14.87,14.87,0,0,1-2-7.24,14.88,14.88,0,0,1,2-7.25,1.41,1.41,0,0,1,.62.16A1.22,1.22,0,0,1,437.7,6.93Z"/><path class="cls-1" d="M441.27,8.38a1.79,1.79,0,0,1,.73-.11,1.88,1.88,0,0,1,.72.11V18.2a1.82,1.82,0,0,1-.74.11,2.23,2.23,0,0,1-.75-.11v-6c0-.79,0-1.44.07-1.92a5.38,5.38,0,0,1-2.49,1.34,1.38,1.38,0,0,1-.36-1.23A4.65,4.65,0,0,0,441.27,8.38Z"/><path class="cls-1" d="M444.43,6.93a1.3,1.3,0,0,1,.49-.43,1.41,1.41,0,0,1,.62-.16,14.93,14.93,0,0,1,2,7.25,14.92,14.92,0,0,1-2,7.24,1.66,1.66,0,0,1-.64-.16,1.16,1.16,0,0,1-.47-.43,13.27,13.27,0,0,0,1.67-6.65A13.28,13.28,0,0,0,444.43,6.93Z"/><path class="cls-2" d="M43.7,38.4A8.49,8.49,0,0,1,43.48,37h0a8.49,8.49,0,0,1-.22,1.39l-1.09,4.32a3.12,3.12,0,0,1-.61.06,2.47,2.47,0,0,1-.55-.06l-1.85-6.66a1.54,1.54,0,0,1,.49-.06,1.43,1.43,0,0,1,.48.06l1.23,4.43c.17.62.27,1.25.27,1.25h0s.08-.62.23-1.25L43,36.06a1.5,1.5,0,0,1,.5-.06,1.53,1.53,0,0,1,.51.06l1.12,4.43a10.11,10.11,0,0,1,.22,1.25h0a12,12,0,0,1,.26-1.25l1.24-4.43a1.41,1.41,0,0,1,.43-.06,1.48,1.48,0,0,1,.45.06L45.9,42.72a2.16,2.16,0,0,1-.54.06,2.87,2.87,0,0,1-.58-.06Z"/><path class="cls-2" d="M51,37.73c1.08,0,1.78.65,1.78,2.57s-.7,2.58-1.78,2.58a1.5,1.5,0,0,1-1.35-.61v2.64a1.78,1.78,0,0,1-.48.05,1.65,1.65,0,0,1-.47-.05v-7a1.21,1.21,0,0,1,.47-.07,1.31,1.31,0,0,1,.48.07v.45A1.5,1.5,0,0,1,51,37.73Zm-.33.77a1.06,1.06,0,0,0-1,1.19V40.9a1.08,1.08,0,0,0,1,1.21c.76,0,1.14-.4,1.14-1.81S51.41,38.5,50.65,38.5Z"/><path class="cls-2" d="M54.86,35.71a1.28,1.28,0,0,1,.47.07v2.59L56,38a1.19,1.19,0,0,1,.18.22.76.76,0,0,1,.11.29l-1,.56v3.66a1.47,1.47,0,0,1-.47.06,1.32,1.32,0,0,1-.47-.06V39.61l-.63.35a.69.69,0,0,1-.18-.21.76.76,0,0,1-.11-.29l.92-.53V35.78A1.15,1.15,0,0,1,54.86,35.71Z"/><path class="cls-2" d="M59.42,43.51c-.34,1-.67,1.63-1.69,1.63a1.44,1.44,0,0,1-.52-.09,1.2,1.2,0,0,1-.06-.35.94.94,0,0,1,.07-.38,2.61,2.61,0,0,0,.43,0c.42,0,.64-.11.92-1l.2-.58a.8.8,0,0,1-.3-.06l-1.79-4.83a1.47,1.47,0,0,1,.49-.07,1.4,1.4,0,0,1,.49.07l1.07,2.87a8.13,8.13,0,0,1,.33,1.1h0a11.3,11.3,0,0,1,.3-1.09l.93-2.88a1.28,1.28,0,0,1,.47-.07,1.26,1.26,0,0,1,.44.07Z"/><path class="cls-2" d="M65.5,40.16a6.6,6.6,0,0,1-.26-1.36h0a5.38,5.38,0,0,1-.26,1.36l-.74,2.56a1.79,1.79,0,0,1-.54.06,1.89,1.89,0,0,1-.55-.06l-1.42-4.83a1.34,1.34,0,0,1,.47-.07c.32,0,.4.07.4.07l.9,3a6.32,6.32,0,0,1,.2.92h0a6.61,6.61,0,0,1,.2-.92l.87-3a2,2,0,0,1,.51-.07,1.18,1.18,0,0,1,.46.07l.84,3a5.45,5.45,0,0,1,.19.94h0a9.17,9.17,0,0,1,.23-.93l.89-3a1.07,1.07,0,0,1,.42-.07.81.81,0,0,1,.4.07l-1.42,4.83a1.86,1.86,0,0,1-.54.06,2,2,0,0,1-.55-.06Z"/><path class="cls-2" d="M73.34,37.73a2.74,2.74,0,0,1,1.33.25,1,1,0,0,1-.25.67,3.49,3.49,0,0,0-1-.15c-.64,0-1,.24-1,.68s.6.58,1.19.78,1.26.49,1.26,1.41-.6,1.51-1.8,1.51a3.33,3.33,0,0,1-1.57-.34,1,1,0,0,1,.25-.7,4,4,0,0,0,1.28.24c.57,0,.9-.22.9-.68s-.52-.63-1.07-.79-1.34-.47-1.34-1.4S72.14,37.73,73.34,37.73Z"/><path class="cls-2" d="M77.26,41c0,.86.27,1.11.94,1.11a3.3,3.3,0,0,0,.4,0,1.16,1.16,0,0,1,.06.37,1,1,0,0,1,0,.34,2.53,2.53,0,0,1-.67.09c-1.16,0-1.63-.63-1.63-1.83V38.53h-.72a.9.9,0,0,1-.06-.35.93.93,0,0,1,.06-.36h.72V37a1.63,1.63,0,0,1,1-.19v1h1.22a.9.9,0,0,1,.06.35,1,1,0,0,1-.06.36H77.26Z"/><path class="cls-2" d="M81.45,37.73c1.3,0,2.09.71,2.09,2.57s-.8,2.58-2.09,2.58-2.1-.71-2.1-2.58S80.15,37.73,81.45,37.73Zm0,.73c-.69,0-1.14.39-1.14,1.84s.45,1.85,1.14,1.85,1.12-.39,1.12-1.85S82.13,38.46,81.45,38.46Z"/><path class="cls-2" d="M86.26,37.73a2.74,2.74,0,0,1,1.33.25,1,1,0,0,1-.25.67,3.49,3.49,0,0,0-1-.15c-.64,0-1,.24-1,.68s.6.58,1.19.78,1.25.49,1.25,1.41-.59,1.51-1.79,1.51a3.33,3.33,0,0,1-1.57-.34,1,1,0,0,1,.25-.7,4,4,0,0,0,1.28.24c.57,0,.9-.22.9-.68s-.52-.63-1.07-.79-1.34-.47-1.34-1.4S85.06,37.73,86.26,37.73Z"/><path class="cls-2" d="M90.79,37.73c1.3,0,2.09.71,2.09,2.57s-.8,2.58-2.09,2.58-2.1-.71-2.1-2.58S89.5,37.73,90.79,37.73Zm0,.73c-.69,0-1.13.39-1.13,1.84s.44,1.85,1.13,1.85,1.12-.39,1.12-1.85S91.48,38.46,90.79,38.46Z"/><path class="cls-2" d="M97.4,40.16a6.41,6.41,0,0,1-.25-1.36h0a6.49,6.49,0,0,1-.26,1.36l-.75,2.56a1.75,1.75,0,0,1-.54.06,1.86,1.86,0,0,1-.54-.06l-1.43-4.83a1.34,1.34,0,0,1,.47-.07.74.74,0,0,1,.41.07l.9,3a6,6,0,0,1,.19.92h0a9.2,9.2,0,0,1,.21-.92l.87-3a1.86,1.86,0,0,1,.51-.07,1.18,1.18,0,0,1,.46.07l.84,3a5.45,5.45,0,0,1,.19.94h0c0-.2.11-.5.24-.93l.89-3a1,1,0,0,1,.41-.07.88.88,0,0,1,.41.07l-1.43,4.83a1.86,1.86,0,0,1-.54.06,2,2,0,0,1-.54-.06Z"/><path class="cls-2" d="M103.28,37.73c1.37,0,1.8.61,1.8,1.83v3.16a.76.76,0,0,1-.36.06,1,1,0,0,1-.38-.06l-.14-.61a1.53,1.53,0,0,1-1.48.77,1.39,1.39,0,0,1-1.47-1.58c0-1,.64-1.48,1.82-1.48a9.42,9.42,0,0,1,1.07.06v-.35c0-.64-.24-1-1-1a3.83,3.83,0,0,0-1.26.24.73.73,0,0,1-.22-.29.75.75,0,0,1-.06-.39A4.1,4.1,0,0,1,103.28,37.73Zm-.09,2.73c-.63,0-1,.25-1,.84s.31.85.82.85c.74,0,1.09-.63,1.09-1.3v-.33C103.92,40.5,103.55,40.46,103.19,40.46Z"/><path class="cls-2" d="M110.25,42.72a1.47,1.47,0,0,1-.47.06,1.39,1.39,0,0,1-.47-.06v-3.4c0-.52-.27-.83-.88-.83a1.28,1.28,0,0,0-1.06.61v3.62a1.54,1.54,0,0,1-.47.06,1.32,1.32,0,0,1-.47-.06V37.89a1.15,1.15,0,0,1,.47-.07,1.34,1.34,0,0,1,.47.07v.43a1.84,1.84,0,0,1,1.42-.59,1.33,1.33,0,0,1,1.46,1.42Z"/><path class="cls-2" d="M112.59,36.87a1.4,1.4,0,0,1-.49.07,1.27,1.27,0,0,1-.49-.07V36a1.27,1.27,0,0,1,.49-.07,1.4,1.4,0,0,1,.49.07Zm0,5.85a1.47,1.47,0,0,1-.47.06,1.43,1.43,0,0,1-.48-.06V37.89a1.24,1.24,0,0,1,.48-.07,1.28,1.28,0,0,1,.47.07Z"/><path class="cls-2" d="M115.68,37.73c1.37,0,1.8.61,1.8,1.83v3.16a.76.76,0,0,1-.36.06,1,1,0,0,1-.38-.06l-.14-.61a1.53,1.53,0,0,1-1.48.77,1.39,1.39,0,0,1-1.47-1.58c0-1,.64-1.48,1.81-1.48a9.62,9.62,0,0,1,1.08.06v-.35c0-.64-.25-1-1-1a3.93,3.93,0,0,0-1.27.24.91.91,0,0,1-.21-.29.75.75,0,0,1-.06-.39A4.1,4.1,0,0,1,115.68,37.73Zm-.09,2.73c-.63,0-1,.25-1,.84s.31.85.82.85c.74,0,1.09-.63,1.09-1.3v-.33C116.32,40.5,116,40.46,115.59,40.46Z"/><path class="cls-2" d="M124.17,42a1,1,0,0,1,.06.39,1.12,1.12,0,0,1-.06.38h-3.49a1.53,1.53,0,0,1-.06-.4,1.24,1.24,0,0,1,.06-.37l2.5-3.41h-2.34a1.24,1.24,0,0,1-.06-.4,1,1,0,0,1,.06-.38h3.33a1,1,0,0,1,.06.37,1.27,1.27,0,0,1-.06.41L121.67,42ZM123,36.89a1.4,1.4,0,0,1-.45.06,1.26,1.26,0,0,1-.45-.06v-.81a1.26,1.26,0,0,1,.45-.06,1.4,1.4,0,0,1,.45.06Z"/><path class="cls-2" d="M126.11,40.6c.08,1.12.53,1.48,1.31,1.48a2.23,2.23,0,0,0,1.11-.28.94.94,0,0,1,.3.68,2.72,2.72,0,0,1-1.56.4c-1.45,0-2.13-.9-2.13-2.6s.84-2.55,2.09-2.55a1.7,1.7,0,0,1,1.87,1.89,4.23,4.23,0,0,1-.1,1Zm1.12-2.13c-.61,0-1,.41-1.12,1.46h2a3.24,3.24,0,0,0,0-.43C128.16,39,127.93,38.47,127.23,38.47Z"/><path class="cls-2" d="M131.18,42.72a1.47,1.47,0,0,1-.47.06,1.43,1.43,0,0,1-.48-.06V35.78a1.24,1.24,0,0,1,.48-.07,1.28,1.28,0,0,1,.47.07Z"/><path class="cls-2" d="M132.55,37.89a1.28,1.28,0,0,1,.47-.07,1.21,1.21,0,0,1,.47.07v3.4c0,.52.27.82.88.82a1.26,1.26,0,0,0,1.06-.6V37.89a1.34,1.34,0,0,1,.47-.07,1.24,1.24,0,0,1,.48.07v4.83a1.43,1.43,0,0,1-.48.06,1.54,1.54,0,0,1-.47-.06v-.44a1.83,1.83,0,0,1-1.42.6,1.34,1.34,0,0,1-1.46-1.43Z"/><path class="cls-2" d="M143.1,42a1,1,0,0,1,.06.39,1.12,1.12,0,0,1-.06.38h-3.49a1.53,1.53,0,0,1-.06-.4,1.24,1.24,0,0,1,.06-.37l2.5-3.41h-2.34a1.24,1.24,0,0,1-.06-.4,1,1,0,0,1,.06-.38h3.33a1,1,0,0,1,.06.37,1.27,1.27,0,0,1-.06.41L140.6,42Z"/><path class="cls-2" d="M149,35.9a3.48,3.48,0,0,1,1.61.32.94.94,0,0,1-.28.72,3.65,3.65,0,0,0-1.22-.22c-1.09,0-1.85.58-1.85,2.68S148,42,149.12,42a3.94,3.94,0,0,0,1.31-.22,1.08,1.08,0,0,1,.3.74,4,4,0,0,1-1.72.32c-1.8,0-2.74-1.19-2.74-3.49S147.2,35.9,149,35.9Z"/><path class="cls-2" d="M155.65,36.06a1.58,1.58,0,0,1,.48-.06,1.61,1.61,0,0,1,.49.06v6.66a1.5,1.5,0,0,1-.48.06,1.39,1.39,0,0,1-.49-.06v-3h-2.83v3a1.5,1.5,0,0,1-.48.06,1.36,1.36,0,0,1-.48-.06V36.06a1.47,1.47,0,0,1,.47-.06,1.54,1.54,0,0,1,.49.06v2.83h2.83Z"/><path class="cls-2" d="M162.52,36a1.69,1.69,0,0,1,.51.06l-2,3.14,2.19,3.5a1.61,1.61,0,0,1-.55.08,1.79,1.79,0,0,1-.54-.07L160.38,40l-1.74,2.76a1.65,1.65,0,0,1-.48.06,1.88,1.88,0,0,1-.57-.06l2.2-3.46-2-3.2a2,2,0,0,1,.55-.06,2.26,2.26,0,0,1,.54.06l1.54,2.46L162,36.06A1.93,1.93,0,0,1,162.52,36Z"/><path class="cls-2" d="M166.05,39.58c0-2.32.84-3.3,2.34-3.3s2.36.95,2.36,3.3-.86,3.3-2.36,3.3S166.05,41.93,166.05,39.58Zm1,0c0,2,.48,2.5,1.34,2.5s1.34-.55,1.34-2.5-.45-2.5-1.34-2.5S167.05,37.62,167.05,39.58Z"/><path class="cls-2" d="M171.9,43.73a1.69,1.69,0,0,0,.35-.95.87.87,0,0,1-.32-.06v-.89a1.61,1.61,0,0,1,.49-.06,1.65,1.65,0,0,1,.5.06v.6a2,2,0,0,1-.68,1.53Z"/><path class="cls-2" d="M174.24,36.62a4.51,4.51,0,0,1,1.74-.34c1.14,0,2.06.48,2.06,1.72s-.68,1.6-1.8,2.28c-.56.34-1.33.68-1.33,1.45,0,.09,0,.17,0,.21h3a.84.84,0,0,1,.09.42,1,1,0,0,1-.09.42h-3.82a3.63,3.63,0,0,1-.06-.63c0-1.47.95-2,1.82-2.56s1.26-.85,1.26-1.56-.38-1-1.24-1a4.29,4.29,0,0,0-1.33.24A.71.71,0,0,1,174.24,36.62Z"/><path class="cls-2" d="M179.33,39.23a2.24,2.24,0,0,1,0-2.61,1.42,1.42,0,0,1,1.12-.5,1.37,1.37,0,0,1,1.1.5,2.24,2.24,0,0,1,0,2.61,1.37,1.37,0,0,1-1.1.5A1.42,1.42,0,0,1,179.33,39.23Zm1.79-.38a1.84,1.84,0,0,0,0-1.85.76.76,0,0,0-.67-.34.79.79,0,0,0-.68.34,1.5,1.5,0,0,0-.25.92,1.53,1.53,0,0,0,.25.93.79.79,0,0,0,.68.34A.76.76,0,0,0,181.12,38.85Zm3.31-2.67h.73l-4.52,6.6h-.72Zm-.91,6.17a2.25,2.25,0,0,1,0-2.62,1.38,1.38,0,0,1,1.11-.49,1.36,1.36,0,0,1,1.11.5,2.18,2.18,0,0,1,0,2.6,1.49,1.49,0,0,1-2.22,0ZM185.3,42a1.48,1.48,0,0,0,.25-.92,1.53,1.53,0,0,0-.25-.93.84.84,0,0,0-1.35,0,1.49,1.49,0,0,0-.25.93A1.53,1.53,0,0,0,184,42a.8.8,0,0,0,.68.33A.79.79,0,0,0,185.3,42Z"/><path class="cls-2" d="M193.15,42.72a1.47,1.47,0,0,1-.47.06,1.39,1.39,0,0,1-.47-.06v-3.4c0-.52-.27-.83-.88-.83a1.28,1.28,0,0,0-1.06.61v3.62a1.54,1.54,0,0,1-.47.06,1.32,1.32,0,0,1-.47-.06V37.89a1.15,1.15,0,0,1,.47-.07,1.34,1.34,0,0,1,.47.07v.43a1.84,1.84,0,0,1,1.42-.59,1.33,1.33,0,0,1,1.46,1.42Z"/><path class="cls-2" d="M196.22,37.73c1.37,0,1.8.61,1.8,1.83v3.16a.76.76,0,0,1-.36.06,1,1,0,0,1-.38-.06l-.14-.61a1.53,1.53,0,0,1-1.48.77,1.38,1.38,0,0,1-1.46-1.58c0-1,.63-1.48,1.81-1.48a9.42,9.42,0,0,1,1.07.06v-.35c0-.64-.24-1-1-1a3.83,3.83,0,0,0-1.26.24.73.73,0,0,1-.22-.29.75.75,0,0,1-.06-.39A4.1,4.1,0,0,1,196.22,37.73Zm-.09,2.73c-.63,0-1,.25-1,.84s.31.85.82.85c.74,0,1.09-.63,1.09-1.3v-.33C196.86,40.5,196.49,40.46,196.13,40.46Z"/><path class="cls-2" d="M203,37.73a2.77,2.77,0,0,1,1.34.25,1,1,0,0,1-.25.67,3.49,3.49,0,0,0-1-.15c-.64,0-1,.24-1,.68s.59.58,1.19.78,1.25.49,1.25,1.41-.59,1.51-1.79,1.51a3.4,3.4,0,0,1-1.58-.34,1,1,0,0,1,.26-.7,3.93,3.93,0,0,0,1.27.24c.58,0,.91-.22.91-.68s-.52-.63-1.08-.79-1.34-.47-1.34-1.4S201.85,37.73,203,37.73Z"/><path class="cls-2" d="M207,41c0,.86.28,1.11.94,1.11a3.3,3.3,0,0,0,.4,0,1,1,0,0,1,.07.37,1,1,0,0,1-.05.34,2.55,2.55,0,0,1-.68.09c-1.16,0-1.62-.63-1.62-1.83V38.53h-.73a1.06,1.06,0,0,1,0-.35,1.09,1.09,0,0,1,0-.36H206V37a1.58,1.58,0,0,1,.94-.19v1h1.23a1.06,1.06,0,0,1,.05.35,1.17,1.17,0,0,1-.05.36H207Z"/><path class="cls-2" d="M211,37.73c1.37,0,1.8.61,1.8,1.83v3.16a.79.79,0,0,1-.37.06,1,1,0,0,1-.37-.06l-.14-.61a1.54,1.54,0,0,1-1.49.77A1.38,1.38,0,0,1,209,41.3c0-1,.63-1.48,1.81-1.48a9.62,9.62,0,0,1,1.08.06v-.35c0-.64-.25-1-1-1a3.93,3.93,0,0,0-1.27.24.77.77,0,0,1-.21-.29.75.75,0,0,1-.06-.39A4.1,4.1,0,0,1,211,37.73Zm-.09,2.73c-.64,0-1,.25-1,.84s.32.85.82.85c.75,0,1.1-.63,1.1-1.3v-.33C211.63,40.5,211.25,40.46,210.9,40.46Z"/><path class="cls-2" d="M218,42.72a1.47,1.47,0,0,1-.47.06,1.39,1.39,0,0,1-.47-.06v-3.4c0-.52-.27-.83-.88-.83a1.28,1.28,0,0,0-1.06.61v3.62a1.54,1.54,0,0,1-.47.06,1.43,1.43,0,0,1-.48-.06V37.89a1.24,1.24,0,0,1,.48-.07,1.34,1.34,0,0,1,.47.07v.43a1.84,1.84,0,0,1,1.42-.59A1.33,1.33,0,0,1,218,39.15Z"/><path class="cls-2" d="M224.2,37.89a1.52,1.52,0,0,1,.48-.07,1.68,1.68,0,0,1,.46.06l-1.45,2.25,1.67,2.59a1.83,1.83,0,0,1-.53.07,1.61,1.61,0,0,1-.51-.07l-1.41-2.17h-.53v2.17a1.68,1.68,0,0,1-.46.06,1.66,1.66,0,0,1-.48-.06v-7a2.07,2.07,0,0,1,.48,0,2.22,2.22,0,0,1,.46,0v4.08h.54Z"/><path class="cls-2" d="M227.14,42.72a1.47,1.47,0,0,1-.47.06,1.43,1.43,0,0,1-.48-.06V35.78a1.24,1.24,0,0,1,.48-.07,1.28,1.28,0,0,1,.47.07Z"/><path class="cls-2" d="M229.52,36.87a1.4,1.4,0,0,1-.49.07,1.27,1.27,0,0,1-.49-.07V36a1.27,1.27,0,0,1,.49-.07,1.4,1.4,0,0,1,.49.07Zm0,5.85a1.5,1.5,0,0,1-.48.06,1.32,1.32,0,0,1-.47-.06V37.89a1.15,1.15,0,0,1,.47-.07,1.31,1.31,0,0,1,.48.07Z"/><path class="cls-2" d="M234.73,42.72a1.47,1.47,0,0,1-.47.06,1.39,1.39,0,0,1-.47-.06v-3.4c0-.52-.27-.83-.88-.83a1.28,1.28,0,0,0-1.06.61v3.62a1.54,1.54,0,0,1-.47.06,1.36,1.36,0,0,1-.48-.06V37.89a1.18,1.18,0,0,1,.48-.07,1.34,1.34,0,0,1,.47.07v.43a1.84,1.84,0,0,1,1.42-.59,1.33,1.33,0,0,1,1.46,1.42Z"/><path class="cls-2" d="M237.06,36.87a1.4,1.4,0,0,1-.49.07,1.27,1.27,0,0,1-.49-.07V36a1.27,1.27,0,0,1,.49-.07,1.4,1.4,0,0,1,.49.07Zm0,5.85a1.5,1.5,0,0,1-.48.06,1.32,1.32,0,0,1-.47-.06V37.89a1.15,1.15,0,0,1,.47-.07,1.31,1.31,0,0,1,.48.07Z"/><path class="cls-2" d="M239.2,40.3c0,1.24.39,1.78,1.3,1.78a2.45,2.45,0,0,0,.89-.16,1,1,0,0,1,.27.68,2.61,2.61,0,0,1-1.36.28c-1.38,0-2.07-.9-2.07-2.58s.69-2.57,2.07-2.57a2.4,2.4,0,0,1,1.26.24.94.94,0,0,1-.27.67,2.31,2.31,0,0,0-.83-.14C239.56,38.5,239.2,39.08,239.2,40.3Z"/><path class="cls-2" d="M245.89,42a1.19,1.19,0,0,1,.05.39,1.32,1.32,0,0,1-.05.38h-3.5a1.53,1.53,0,0,1-.06-.4,1.24,1.24,0,0,1,.06-.37l2.51-3.41h-2.35a1.24,1.24,0,0,1-.06-.4,1,1,0,0,1,.06-.38h3.34a1.22,1.22,0,0,1,.05.37,1.64,1.64,0,0,1-.05.41L243.39,42Z"/><path class="cls-2" d="M250.9,42.72a1.47,1.47,0,0,1-.47.06,1.43,1.43,0,0,1-.48-.06v-3.4a.76.76,0,0,0-.87-.83,1.3,1.3,0,0,0-1.07.61v3.62a1.54,1.54,0,0,1-.47.06,1.32,1.32,0,0,1-.47-.06V37.89a1.15,1.15,0,0,1,.47-.07,1.34,1.34,0,0,1,.47.07v.43a1.85,1.85,0,0,1,1.43-.59,1.33,1.33,0,0,1,1.46,1.42Z"/><path class="cls-2" d="M254.49,43.51c-.34,1-.67,1.63-1.68,1.63a1.37,1.37,0,0,1-.52-.09,1,1,0,0,1-.07-.35.86.86,0,0,1,.08-.38,2.42,2.42,0,0,0,.42,0c.42,0,.64-.11.92-1l.2-.58a.84.84,0,0,1-.3-.06l-1.79-4.83a1.47,1.47,0,0,1,.49-.07,1.4,1.4,0,0,1,.49.07l1.07,2.87a8.13,8.13,0,0,1,.33,1.1h0s.1-.44.3-1.09l.94-2.88a1.18,1.18,0,0,1,.46-.07,1.26,1.26,0,0,1,.44.07Z"/><path class="cls-2" d="M260.28,38.34a1.52,1.52,0,0,1,1.36-.61c1.07,0,1.77.65,1.77,2.57s-.7,2.58-1.77,2.58a1.52,1.52,0,0,1-1.36-.61v.45a1.5,1.5,0,0,1-.48.06,1.36,1.36,0,0,1-.46-.06V35.78a1.18,1.18,0,0,1,.46-.07,1.31,1.31,0,0,1,.48.07Zm1,.16a1.07,1.07,0,0,0-1,1.19V40.9a1.08,1.08,0,0,0,1,1.21c.75,0,1.13-.4,1.13-1.81S262.06,38.5,261.31,38.5Z"/><path class="cls-2" d="M265.51,35.71a1.28,1.28,0,0,1,.47.07v2.59l.66-.38a1,1,0,0,1,.19.22.84.84,0,0,1,.1.29l-.95.56v3.66a1.47,1.47,0,0,1-.47.06,1.43,1.43,0,0,1-.48-.06V39.61l-.63.35a.69.69,0,0,1-.18-.21.76.76,0,0,1-.11-.29l.92-.53V35.78A1.24,1.24,0,0,1,265.51,35.71Z"/><path class="cls-2" d="M269.7,37.73c1.3,0,2.09.71,2.09,2.57s-.8,2.58-2.09,2.58-2.1-.71-2.1-2.58S268.4,37.73,269.7,37.73Zm0,.73c-.69,0-1.14.39-1.14,1.84s.45,1.85,1.14,1.85,1.12-.39,1.12-1.85S270.38,38.46,269.7,38.46Z"/><path class="cls-2" d="M276.78,42.72a1.47,1.47,0,0,1-.47.06,1.39,1.39,0,0,1-.47-.06v-3.4c0-.52-.27-.83-.88-.83a1.28,1.28,0,0,0-1.06.61v3.62a1.58,1.58,0,0,1-.48.06,1.32,1.32,0,0,1-.47-.06V37.89a1.15,1.15,0,0,1,.47-.07,1.37,1.37,0,0,1,.48.07v.43a1.84,1.84,0,0,1,1.42-.59,1.33,1.33,0,0,1,1.46,1.42Z"/><path class="cls-2" d="M280.38,43.51c-.34,1-.67,1.63-1.69,1.63a1.44,1.44,0,0,1-.52-.09,1.2,1.2,0,0,1-.06-.35.94.94,0,0,1,.07-.38,2.61,2.61,0,0,0,.43,0c.42,0,.64-.11.92-1l.2-.58a.8.8,0,0,1-.3-.06l-1.8-4.83a1.47,1.47,0,0,1,.49-.07,1.34,1.34,0,0,1,.49.07l1.08,2.87a8.13,8.13,0,0,1,.33,1.1h0a11.3,11.3,0,0,1,.3-1.09l.93-2.88a1.18,1.18,0,0,1,.46-.07,1.29,1.29,0,0,1,.45.07Z"/><path class="cls-2" d="M286.78,37.73a2.74,2.74,0,0,1,1.33.25,1,1,0,0,1-.25.67,3.49,3.49,0,0,0-1-.15c-.64,0-1,.24-1,.68s.53.57,1.1.74,1.34.48,1.34,1.45-.59,1.51-1.79,1.51a3.4,3.4,0,0,1-1.58-.34,1,1,0,0,1,.26-.7,3.93,3.93,0,0,0,1.27.24c.58,0,.91-.22.91-.68s-.53-.64-1.1-.8S285,40.14,285,39.21,285.58,37.73,286.78,37.73Zm-.32-.64a.8.8,0,0,1-.54-.29l.89-1.33a.92.92,0,0,1,.82.35Z"/><path class="cls-2" d="M290.4,42.72a1.47,1.47,0,0,1-.47.06,1.32,1.32,0,0,1-.47-.06V35.78a1.15,1.15,0,0,1,.47-.07,1.28,1.28,0,0,1,.47.07Z"/><path class="cls-2" d="M291.77,37.89a1.28,1.28,0,0,1,.47-.07,1.21,1.21,0,0,1,.47.07v3.4c0,.52.28.82.88.82a1.26,1.26,0,0,0,1.06-.6V37.89a1.37,1.37,0,0,1,.48-.07,1.15,1.15,0,0,1,.47.07v4.83a1.32,1.32,0,0,1-.47.06,1.58,1.58,0,0,1-.48-.06v-.44a1.82,1.82,0,0,1-1.42.6,1.34,1.34,0,0,1-1.46-1.43Z"/><path class="cls-2" d="M300.2,42a1,1,0,0,1,.06.39,1.12,1.12,0,0,1-.06.38h-3.49a1.53,1.53,0,0,1-.06-.4,1.24,1.24,0,0,1,.06-.37l2.5-3.41h-2.34a1.24,1.24,0,0,1-.06-.4,1,1,0,0,1,.06-.38h3.33a1,1,0,0,1,.06.37,1.27,1.27,0,0,1-.06.41L297.7,42Z"/><path class="cls-2" d="M303.26,37.73c1.3,0,2.09.71,2.09,2.57s-.8,2.58-2.09,2.58-2.09-.71-2.09-2.58S302,37.73,303.26,37.73Zm0,.73c-.69,0-1.13.39-1.13,1.84s.44,1.85,1.13,1.85,1.12-.39,1.12-1.85S304,38.46,303.26,38.46Z"/><path class="cls-2" d="M309.88,40.16a6.6,6.6,0,0,1-.26-1.36h0a5.88,5.88,0,0,1-.26,1.36l-.75,2.56a1.72,1.72,0,0,1-.53.06,1.89,1.89,0,0,1-.55-.06l-1.42-4.83a1.34,1.34,0,0,1,.47-.07c.32,0,.4.07.4.07l.9,3a6.32,6.32,0,0,1,.2.92h0a6.61,6.61,0,0,1,.2-.92l.87-3a2,2,0,0,1,.51-.07,1.18,1.18,0,0,1,.46.07l.84,3a5.45,5.45,0,0,1,.19.94h0a9.17,9.17,0,0,1,.23-.93l.89-3a1,1,0,0,1,.41-.07.83.83,0,0,1,.41.07l-1.42,4.83a1.86,1.86,0,0,1-.54.06,2,2,0,0,1-.55-.06Z"/><path class="cls-2" d="M314.79,40.6c.08,1.12.53,1.48,1.31,1.48a2.29,2.29,0,0,0,1.12-.28,1,1,0,0,1,.3.68,2.78,2.78,0,0,1-1.57.4c-1.45,0-2.13-.9-2.13-2.6s.84-2.55,2.1-2.55a1.69,1.69,0,0,1,1.86,1.89,4.23,4.23,0,0,1-.1,1Zm1.13-2.13c-.62,0-1.05.41-1.13,1.46h2a3.24,3.24,0,0,0,0-.43C316.84,39,316.61,38.47,315.92,38.47Z"/><path class="cls-2" d="M318.91,37.89a1.15,1.15,0,0,1,.47-.07,1.28,1.28,0,0,1,.47.07v5.72c0,1-.48,1.53-1.37,1.53a2.18,2.18,0,0,1-.63-.08.85.85,0,0,1,0-.22.92.92,0,0,1,.1-.48,1.5,1.5,0,0,0,.35,0c.42,0,.64-.23.64-.75Zm1-1a1.4,1.4,0,0,1-.49.07,1.27,1.27,0,0,1-.49-.07V36a1.27,1.27,0,0,1,.49-.07,1.4,1.4,0,0,1,.49.07Z"/><path class="cls-2" d="M323.39,37.89a1.15,1.15,0,0,1,.47-.07,1.28,1.28,0,0,1,.47.07v5.72c0,1-.48,1.53-1.36,1.53a2.21,2.21,0,0,1-.64-.08,1.25,1.25,0,0,1,0-.22,1,1,0,0,1,.09-.48,1.5,1.5,0,0,0,.35,0c.42,0,.64-.23.64-.75Zm1-1a1.4,1.4,0,0,1-.49.07,1.27,1.27,0,0,1-.49-.07V36a1.27,1.27,0,0,1,.49-.07,1.4,1.4,0,0,1,.49.07Z"/><path class="cls-2" d="M327.45,37.73c1.37,0,1.8.61,1.8,1.83v3.16a.84.84,0,0,1-.37.06,1.12,1.12,0,0,1-.38-.06l-.14-.61a1.51,1.51,0,0,1-1.48.77,1.38,1.38,0,0,1-1.46-1.58c0-1,.63-1.48,1.81-1.48a9.62,9.62,0,0,1,1.08.06v-.35c0-.64-.25-1-1-1a3.83,3.83,0,0,0-1.26.24.85.85,0,0,1-.22-.29.81.81,0,0,1-.05-.39A4,4,0,0,1,327.45,37.73Zm-.1,2.73c-.63,0-1,.25-1,.84s.31.85.82.85c.75,0,1.1-.63,1.1-1.3v-.33C328.09,40.5,327.71,40.46,327.35,40.46Z"/><path class="cls-2" d="M335.66,37.73a1.31,1.31,0,0,1,1.4,1.42v3.57a1.47,1.47,0,0,1-.47.06,1.32,1.32,0,0,1-.47-.06v-3.4a.73.73,0,0,0-.82-.83,1.18,1.18,0,0,0-1,.61v3.62a1.87,1.87,0,0,1-.94,0v-3.4a.73.73,0,0,0-.82-.83,1.24,1.24,0,0,0-1,.6v3.63a1.47,1.47,0,0,1-.47.06,1.32,1.32,0,0,1-.47-.06V37.89a1.15,1.15,0,0,1,.47-.07,1.28,1.28,0,0,1,.47.07v.42a1.78,1.78,0,0,1,1.35-.58,1.27,1.27,0,0,1,1.23.69A1.91,1.91,0,0,1,335.66,37.73Z"/><path class="cls-2" d="M340.66,43.51c-.34,1-.67,1.63-1.69,1.63a1.44,1.44,0,0,1-.52-.09,1.2,1.2,0,0,1-.06-.35.94.94,0,0,1,.07-.38,2.61,2.61,0,0,0,.43,0c.42,0,.64-.11.92-1l.2-.58a.8.8,0,0,1-.3-.06l-1.8-4.83a1.47,1.47,0,0,1,.49-.07,1.34,1.34,0,0,1,.49.07L340,40.76a8.13,8.13,0,0,1,.33,1.1h0a11.3,11.3,0,0,1,.3-1.09l.93-2.88a1.21,1.21,0,0,1,.47-.07,1.26,1.26,0,0,1,.44.07Z"/><path class="cls-2" d="M345.46,37.89a1.28,1.28,0,0,1,.47-.07,1.31,1.31,0,0,1,.48.07v3.4c0,.52.27.82.87.82a1.28,1.28,0,0,0,1.07-.6V37.89a1.34,1.34,0,0,1,.47-.07,1.15,1.15,0,0,1,.47.07v4.83a1.32,1.32,0,0,1-.47.06,1.54,1.54,0,0,1-.47-.06v-.44a1.84,1.84,0,0,1-1.43.6,1.34,1.34,0,0,1-1.46-1.43Z"/><path class="cls-2" d="M352.23,37.73a2.74,2.74,0,0,1,1.33.25,1,1,0,0,1-.25.67,3.49,3.49,0,0,0-1-.15c-.64,0-1,.24-1,.68s.59.58,1.19.78,1.25.49,1.25,1.41-.59,1.51-1.79,1.51a3.33,3.33,0,0,1-1.57-.34,1,1,0,0,1,.25-.7,3.93,3.93,0,0,0,1.27.24c.58,0,.91-.22.91-.68s-.52-.63-1.08-.79-1.33-.47-1.33-1.4S351,37.73,352.23,37.73Z"/><path class="cls-2" d="M356.14,41c0,.86.28,1.11.95,1.11a3,3,0,0,0,.39,0,1,1,0,0,1,.07.37,1,1,0,0,1-.05.34,2.55,2.55,0,0,1-.68.09c-1.16,0-1.62-.63-1.62-1.83V38.53h-.72a.9.9,0,0,1-.06-.35.93.93,0,0,1,.06-.36h.72V37a1.61,1.61,0,0,1,.94-.19v1h1.23a.9.9,0,0,1,.06.35,1,1,0,0,1-.06.36h-1.23Z"/><path class="cls-2" d="M362.29,42.72a1.58,1.58,0,0,1-.48.06,1.39,1.39,0,0,1-.47-.06v-3.4a.76.76,0,0,0-.87-.83,1.3,1.3,0,0,0-1.07.61v3.62a1.54,1.54,0,0,1-.47.06,1.32,1.32,0,0,1-.47-.06V37.89a1.15,1.15,0,0,1,.47-.07,1.34,1.34,0,0,1,.47.07v.43a1.84,1.84,0,0,1,1.42-.59,1.34,1.34,0,0,1,1.47,1.42Z"/><path class="cls-2" d="M364.39,40.6c.08,1.12.53,1.48,1.31,1.48a2.29,2.29,0,0,0,1.12-.28,1,1,0,0,1,.3.68,2.78,2.78,0,0,1-1.57.4c-1.45,0-2.13-.9-2.13-2.6s.84-2.55,2.09-2.55a1.7,1.7,0,0,1,1.87,1.89,4.23,4.23,0,0,1-.1,1Zm1.12-2.13c-.61,0-1,.41-1.12,1.46h2a3.24,3.24,0,0,0,0-.43C366.44,39,366.21,38.47,365.51,38.47Z"/><path class="cls-2" d="M368.51,37.89a1.15,1.15,0,0,1,.47-.07,1.28,1.28,0,0,1,.47.07v5.72c0,1-.48,1.53-1.37,1.53a2.18,2.18,0,0,1-.63-.08.85.85,0,0,1,0-.22.92.92,0,0,1,.1-.48,1.5,1.5,0,0,0,.35,0c.42,0,.64-.23.64-.75Zm1-1a1.4,1.4,0,0,1-.49.07,1.27,1.27,0,0,1-.49-.07V36a1.27,1.27,0,0,1,.49-.07,1.4,1.4,0,0,1,.49.07Z"/><path class="cls-2" d="M376.33,40.16a6.6,6.6,0,0,1-.26-1.36h0a6,6,0,0,1-.27,1.36L375,42.72a1.75,1.75,0,0,1-.54.06,1.89,1.89,0,0,1-.55-.06l-1.42-4.83a1.34,1.34,0,0,1,.47-.07c.32,0,.4.07.4.07l.9,3a6.32,6.32,0,0,1,.2.92h0a6.61,6.61,0,0,1,.2-.92l.87-3a2,2,0,0,1,.51-.07,1.18,1.18,0,0,1,.46.07l.84,3a4.62,4.62,0,0,1,.19.94h0a7.53,7.53,0,0,1,.24-.93l.88-3a1.07,1.07,0,0,1,.42-.07.81.81,0,0,1,.4.07l-1.42,4.83a1.86,1.86,0,0,1-.54.06,2,2,0,0,1-.55-.06Z"/><path class="cls-2" d="M382.74,43.51c-.34,1-.67,1.63-1.69,1.63a1.44,1.44,0,0,1-.52-.09,1,1,0,0,1-.07-.35.86.86,0,0,1,.08-.38,2.57,2.57,0,0,0,.42,0c.43,0,.64-.11.93-1l.2-.58a.89.89,0,0,1-.31-.06L380,37.89a1.47,1.47,0,0,1,.49-.07,1.4,1.4,0,0,1,.49.07l1.08,2.87a10.47,10.47,0,0,1,.33,1.1h0a11.3,11.3,0,0,1,.3-1.09l.93-2.88a1.18,1.18,0,0,1,.46-.07,1.29,1.29,0,0,1,.45.07Z"/><path class="cls-2" d="M387.55,37.74a1.42,1.42,0,0,1,.82.24,1.08,1.08,0,0,1-.42.79.89.89,0,0,0-.58-.2,1.2,1.2,0,0,0-1,.72v3.43a1.47,1.47,0,0,1-.47.06,1.32,1.32,0,0,1-.47-.06V37.89a1.15,1.15,0,0,1,.47-.07,1.28,1.28,0,0,1,.47.07v.65A1.38,1.38,0,0,1,387.55,37.74Z"/><path class="cls-2" d="M390.89,37.73c1.37,0,1.8.61,1.8,1.83v3.16a.79.79,0,0,1-.37.06,1,1,0,0,1-.37-.06l-.15-.61a1.51,1.51,0,0,1-1.48.77,1.38,1.38,0,0,1-1.46-1.58c0-1,.63-1.48,1.81-1.48a9.62,9.62,0,0,1,1.08.06v-.35c0-.64-.25-1-1-1a3.93,3.93,0,0,0-1.27.24.77.77,0,0,1-.21-.29.75.75,0,0,1-.06-.39A4.1,4.1,0,0,1,390.89,37.73Zm-.09,2.73c-.64,0-1,.25-1,.84s.32.85.82.85c.75,0,1.1-.63,1.1-1.3v-.33C391.53,40.5,391.15,40.46,390.8,40.46Z"/><path class="cls-2" d="M397.26,42a1.19,1.19,0,0,1,.05.39,1.32,1.32,0,0,1-.05.38h-3.5a1.53,1.53,0,0,1-.06-.4,1.24,1.24,0,0,1,.06-.37l2.51-3.41h-2.35a1.24,1.24,0,0,1-.06-.4,1,1,0,0,1,.06-.38h3.34a1,1,0,0,1,.05.37,1.28,1.28,0,0,1-.05.41L394.76,42Zm-1.16-5.12a1.4,1.4,0,0,1-.45.06,1.29,1.29,0,0,1-.46-.06v-.81a1.29,1.29,0,0,1,.46-.06,1.4,1.4,0,0,1,.45.06Z"/><path class="cls-2" d="M400.32,37.73c1.3,0,2.09.71,2.09,2.57s-.8,2.58-2.09,2.58-2.1-.71-2.1-2.58S399,37.73,400.32,37.73Zm0,.73c-.69,0-1.13.39-1.13,1.84s.44,1.85,1.13,1.85,1.12-.39,1.12-1.85S401,38.46,400.32,38.46Z"/><path class="cls-2" d="M407.4,42.72a1.47,1.47,0,0,1-.47.06,1.39,1.39,0,0,1-.47-.06v-3.4c0-.52-.27-.83-.88-.83a1.28,1.28,0,0,0-1.06.61v3.62a1.54,1.54,0,0,1-.47.06,1.43,1.43,0,0,1-.48-.06V37.89a1.24,1.24,0,0,1,.48-.07,1.34,1.34,0,0,1,.47.07v.43a1.84,1.84,0,0,1,1.42-.59,1.33,1.33,0,0,1,1.46,1.42Z"/><path class="cls-2" d="M411,43.51c-.34,1-.67,1.63-1.69,1.63a1.44,1.44,0,0,1-.52-.09,1.2,1.2,0,0,1-.06-.35.94.94,0,0,1,.07-.38,2.61,2.61,0,0,0,.43,0c.42,0,.64-.11.92-1l.2-.58a.8.8,0,0,1-.3-.06l-1.8-4.83a1.5,1.5,0,0,1,.5-.07,1.4,1.4,0,0,1,.49.07l1.07,2.87a8.13,8.13,0,0,1,.33,1.1h0a11.3,11.3,0,0,1,.3-1.09l.93-2.88a1.21,1.21,0,0,1,.47-.07,1.26,1.26,0,0,1,.44.07Z"/><path class="cls-2" d="M42.92,51.49a7.28,7.28,0,0,1-.25-1.36h0a6,6,0,0,1-.26,1.36L41.62,54a1.7,1.7,0,0,1-.53.07,1.88,1.88,0,0,1-.55-.07l-1.42-4.83a1.47,1.47,0,0,1,.47-.06.77.77,0,0,1,.4.06l.9,3a6.67,6.67,0,0,1,.2.93h0a9.25,9.25,0,0,1,.21-.93l.87-3a2.25,2.25,0,0,1,.51-.06,1.36,1.36,0,0,1,.46.06l.84,3a5.71,5.71,0,0,1,.19.95h0a7.49,7.49,0,0,1,.23-.94l.89-3a1.2,1.2,0,0,1,.41-.06,1,1,0,0,1,.41.06L44.74,54a1.86,1.86,0,0,1-.54.07,2,2,0,0,1-.55-.07Z"/><path class="cls-2" d="M50.77,49.05a2.66,2.66,0,0,1,1.33.26,1,1,0,0,1-.25.67,3.49,3.49,0,0,0-1-.15c-.64,0-1,.23-1,.68s.59.57,1.19.77,1.25.49,1.25,1.41-.59,1.51-1.79,1.51A3.33,3.33,0,0,1,49,53.86a1,1,0,0,1,.25-.69,4.08,4.08,0,0,0,1.27.23c.58,0,.91-.22.91-.68s-.52-.63-1.08-.79S49,51.47,49,50.53,49.57,49.05,50.77,49.05Z"/><path class="cls-2" d="M54.68,52.33c0,.85.28,1.11,1,1.11a2.3,2.3,0,0,0,.39,0,1,1,0,0,1,.07.38,1,1,0,0,1-.05.34,2.59,2.59,0,0,1-.68.08c-1.16,0-1.62-.63-1.62-1.83V49.86H53a1.14,1.14,0,0,1,0-.35,1,1,0,0,1,0-.36h.73v-.86a1.6,1.6,0,0,1,.94-.19v1h1.23a.85.85,0,0,1,.06.35,1.06,1.06,0,0,1-.06.36H54.68Z"/><path class="cls-2" d="M58.87,49.05c1.3,0,2.1.71,2.1,2.58s-.8,2.57-2.1,2.57-2.09-.7-2.09-2.57S57.58,49.05,58.87,49.05Zm0,.73c-.69,0-1.13.4-1.13,1.85s.44,1.85,1.13,1.85S60,53.08,60,51.63,59.56,49.78,58.87,49.78Z"/><path class="cls-2" d="M64.43,49.05c1.08,0,1.77.66,1.77,2.58s-.69,2.57-1.77,2.57a1.51,1.51,0,0,1-1.36-.61v2.64a1.5,1.5,0,0,1-.48.06,1.36,1.36,0,0,1-.46-.06v-7a1.36,1.36,0,0,1,.46-.06,1.5,1.5,0,0,1,.48.06v.46A1.51,1.51,0,0,1,64.43,49.05Zm-.33.78a1.07,1.07,0,0,0-1,1.19v1.2a1.08,1.08,0,0,0,1,1.21c.76,0,1.13-.4,1.13-1.8S64.86,49.83,64.1,49.83Z"/><path class="cls-2" d="M71.21,54a1.28,1.28,0,0,1-.47.07,1.21,1.21,0,0,1-.47-.07V50.65c0-.53-.27-.83-.88-.83a1.27,1.27,0,0,0-1.06.6V54a1.34,1.34,0,0,1-.47.07,1.15,1.15,0,0,1-.47-.07V49.21a1.32,1.32,0,0,1,.47-.06,1.54,1.54,0,0,1,.47.06v.44a1.82,1.82,0,0,1,1.42-.6,1.33,1.33,0,0,1,1.46,1.43Z"/><path class="cls-2" d="M73.55,48.2a1.61,1.61,0,0,1-.49.06,1.46,1.46,0,0,1-.49-.06v-.89a1.27,1.27,0,0,1,.49-.07,1.4,1.4,0,0,1,.49.07Zm0,5.84a1.28,1.28,0,0,1-.47.07,1.15,1.15,0,0,1-.47-.07V49.21a1.32,1.32,0,0,1,.47-.06,1.47,1.47,0,0,1,.47.06Z"/><path class="cls-2" d="M76.64,49.05c1.37,0,1.8.62,1.8,1.83V54a.67.67,0,0,1-.36.07A.92.92,0,0,1,77.7,54l-.14-.6a1.52,1.52,0,0,1-1.48.76,1.37,1.37,0,0,1-1.46-1.57c0-1,.63-1.48,1.81-1.48.42,0,.83,0,1.07.05v-.34c0-.65-.24-1-1-1a4,4,0,0,0-1.26.23.65.65,0,0,1-.22-.28.79.79,0,0,1-.06-.4A4.1,4.1,0,0,1,76.64,49.05Zm-.09,2.74c-.63,0-1,.24-1,.84s.31.85.82.85c.74,0,1.09-.64,1.09-1.31v-.32C77.28,51.83,76.91,51.79,76.55,51.79Z"/><path class="cls-2" d="M80.54,51.63c0,1.23.4,1.77,1.3,1.77a2.45,2.45,0,0,0,.89-.16,1,1,0,0,1,.27.68,2.57,2.57,0,0,1-1.36.28c-1.37,0-2.07-.89-2.07-2.57s.7-2.58,2.07-2.58a2.46,2.46,0,0,1,1.27.24,1,1,0,0,1-.28.68,2.31,2.31,0,0,0-.83-.14C80.9,49.83,80.54,50.4,80.54,51.63Z"/><path class="cls-2" d="M87.83,54a1.28,1.28,0,0,1-.47.07,1.21,1.21,0,0,1-.47-.07V50.65c0-.53-.27-.83-.88-.83a1.27,1.27,0,0,0-1.06.6V54a1.34,1.34,0,0,1-.47.07A1.24,1.24,0,0,1,84,54V47.1a1.43,1.43,0,0,1,.48-.06,1.54,1.54,0,0,1,.47.06v2.55a1.82,1.82,0,0,1,1.42-.6,1.34,1.34,0,0,1,1.46,1.43Z"/><path class="cls-2" d="M92.86,49.05a2.61,2.61,0,0,1,1.33.26A1,1,0,0,1,94,50a3.49,3.49,0,0,0-1-.15c-.64,0-1,.23-1,.68s.59.57,1.18.77,1.26.49,1.26,1.41-.6,1.51-1.79,1.51a3.4,3.4,0,0,1-1.58-.34,1,1,0,0,1,.26-.69,4.08,4.08,0,0,0,1.27.23c.58,0,.91-.22.91-.68s-.52-.63-1.08-.79-1.34-.46-1.34-1.4S91.67,49.05,92.86,49.05Z"/><path class="cls-2" d="M96.78,52.33c0,.85.27,1.11.94,1.11a2.5,2.5,0,0,0,.4,0,1,1,0,0,1,.07.38,1,1,0,0,1,0,.34,2.64,2.64,0,0,1-.68.08c-1.16,0-1.62-.63-1.62-1.83V49.86h-.73a1,1,0,0,1-.06-.35.87.87,0,0,1,.06-.36h.73v-.86a1.58,1.58,0,0,1,.94-.19v1H98a1,1,0,0,1,0,.35,1.25,1.25,0,0,1,0,.36H96.78Z"/><path class="cls-2" d="M101,49.05c1.3,0,2.09.71,2.09,2.58s-.8,2.57-2.09,2.57-2.09-.7-2.09-2.57S99.68,49.05,101,49.05Zm0,.73c-.69,0-1.13.4-1.13,1.85s.44,1.85,1.13,1.85,1.12-.4,1.12-1.85S101.66,49.78,101,49.78Z"/><path class="cls-2" d="M109.29,49.05a1.32,1.32,0,0,1,1.41,1.43V54a1.31,1.31,0,0,1-.48.07,1.15,1.15,0,0,1-.47-.07V50.65a.73.73,0,0,0-.82-.83,1.22,1.22,0,0,0-1,.6V54a1.25,1.25,0,0,1-.46.07A1.15,1.15,0,0,1,107,54V50.65a.73.73,0,0,0-.82-.83,1.24,1.24,0,0,0-1,.59V54a1.25,1.25,0,0,1-.46.07,1.15,1.15,0,0,1-.47-.07V49.21a1.32,1.32,0,0,1,.47-.06,1.43,1.43,0,0,1,.46.06v.43a1.76,1.76,0,0,1,1.36-.59,1.25,1.25,0,0,1,1.22.69A1.92,1.92,0,0,1,109.29,49.05Z"/><path class="cls-2" d="M113.77,49.05c1.36,0,1.8.62,1.8,1.83V54a.74.74,0,0,1-.37.07.92.92,0,0,1-.38-.07l-.14-.6a1.5,1.5,0,0,1-1.48.76,1.37,1.37,0,0,1-1.46-1.57c0-1,.63-1.48,1.81-1.48.42,0,.83,0,1.07.05v-.34c0-.65-.24-1-1-1a4,4,0,0,0-1.26.23.75.75,0,0,1-.22-.28.85.85,0,0,1,0-.4A4,4,0,0,1,113.77,49.05Zm-.1,2.74c-.63,0-1,.24-1,.84s.31.85.82.85c.75,0,1.09-.64,1.09-1.31v-.32C114.41,51.83,114,51.79,113.67,51.79Z"/><path class="cls-2" d="M118.17,52.33c0,.85.28,1.11,1,1.11a2.47,2.47,0,0,0,.39,0,1,1,0,0,1,.07.38,1,1,0,0,1,0,.34,2.59,2.59,0,0,1-.68.08c-1.16,0-1.62-.63-1.62-1.83V49.86h-.73a1.14,1.14,0,0,1,0-.35,1,1,0,0,1,0-.36h.73v-.86a1.6,1.6,0,0,1,.94-.19v1h1.23a.85.85,0,0,1,.06.35,1.06,1.06,0,0,1-.06.36h-1.23Z"/><path class="cls-2" d="M122.36,49.05c1.3,0,2.1.71,2.1,2.58s-.8,2.57-2.1,2.57-2.09-.7-2.09-2.57S121.07,49.05,122.36,49.05Zm0,.73c-.69,0-1.13.4-1.13,1.85s.44,1.85,1.13,1.85,1.13-.4,1.13-1.85S123.05,49.78,122.36,49.78Z"/><path class="cls-2" d="M127.92,49.05c1.08,0,1.77.66,1.77,2.58s-.69,2.57-1.77,2.57a1.51,1.51,0,0,1-1.36-.61v2.64a1.5,1.5,0,0,1-.48.06,1.36,1.36,0,0,1-.46-.06v-7a1.36,1.36,0,0,1,.46-.06,1.5,1.5,0,0,1,.48.06v.46A1.51,1.51,0,0,1,127.92,49.05Zm-.33.78a1.07,1.07,0,0,0-1,1.19v1.2a1.08,1.08,0,0,0,1,1.21c.75,0,1.13-.4,1.13-1.8S128.34,49.83,127.59,49.83Z"/><path class="cls-2" d="M132.59,49.05c1.37,0,1.8.62,1.8,1.83V54a.67.67,0,0,1-.36.07.92.92,0,0,1-.38-.07l-.14-.6a1.52,1.52,0,0,1-1.48.76,1.38,1.38,0,0,1-1.47-1.57c0-1,.64-1.48,1.82-1.48.42,0,.83,0,1.07.05v-.34c0-.65-.24-1-1-1a4,4,0,0,0-1.26.23.65.65,0,0,1-.22-.28.79.79,0,0,1-.06-.4A4.1,4.1,0,0,1,132.59,49.05Zm-.09,2.74c-.63,0-1,.24-1,.84s.31.85.82.85c.74,0,1.09-.64,1.09-1.31v-.32C133.23,51.83,132.86,51.79,132.5,51.79Z"/><path class="cls-2" d="M137,52.33c0,.85.27,1.11.94,1.11a2.5,2.5,0,0,0,.4,0,1.33,1.33,0,0,1,0,.72,2.64,2.64,0,0,1-.68.08c-1.16,0-1.62-.63-1.62-1.83V49.86h-.73a1,1,0,0,1-.06-.35.87.87,0,0,1,.06-.36h.73v-.86a1.58,1.58,0,0,1,.94-.19v1h1.23a1,1,0,0,1,.05.35,1.25,1.25,0,0,1-.05.36H137Z"/><path class="cls-2" d="M140.29,48.2a1.61,1.61,0,0,1-.49.06,1.46,1.46,0,0,1-.49-.06v-.89a1.27,1.27,0,0,1,.49-.07,1.4,1.4,0,0,1,.49.07Zm0,5.84a1.28,1.28,0,0,1-.47.07,1.15,1.15,0,0,1-.47-.07V49.21a1.32,1.32,0,0,1,.47-.06,1.47,1.47,0,0,1,.47.06Z"/><path class="cls-2" d="M142.65,48.2a1.61,1.61,0,0,1-.49.06,1.46,1.46,0,0,1-.49-.06v-.89a1.27,1.27,0,0,1,.49-.07,1.4,1.4,0,0,1,.49.07Zm0,5.84a1.28,1.28,0,0,1-.47.07,1.15,1.15,0,0,1-.47-.07V49.21a1.32,1.32,0,0,1,.47-.06,1.47,1.47,0,0,1,.47.06Z"/><path class="cls-2" d="M148.46,49.05c1.07,0,1.77.66,1.77,2.58s-.7,2.57-1.77,2.57a1.5,1.5,0,0,1-1.36-.61v2.64a1.5,1.5,0,0,1-.48.06,1.39,1.39,0,0,1-.47-.06v-7a1.39,1.39,0,0,1,.47-.06,1.5,1.5,0,0,1,.48.06v.46A1.5,1.5,0,0,1,148.46,49.05Zm-.34.78a1.06,1.06,0,0,0-1,1.19v1.2a1.08,1.08,0,0,0,1,1.21c.76,0,1.14-.4,1.14-1.8S148.88,49.83,148.12,49.83Z"/><path class="cls-2" d="M153.5,49.06a1.48,1.48,0,0,1,.82.24,1,1,0,0,1-.41.79,1,1,0,0,0-.59-.2,1.25,1.25,0,0,0-1,.72V54a1.28,1.28,0,0,1-.47.07,1.15,1.15,0,0,1-.47-.07V49.21a1.32,1.32,0,0,1,.47-.06,1.47,1.47,0,0,1,.47.06v.66A1.38,1.38,0,0,1,153.5,49.06Z"/><path class="cls-2" d="M157,49.05c1.31,0,2.1.71,2.1,2.58s-.8,2.57-2.1,2.57-2.09-.7-2.09-2.57S155.71,49.05,157,49.05Zm0,.73c-.68,0-1.13.4-1.13,1.85s.45,1.85,1.13,1.85,1.13-.4,1.13-1.85S157.69,49.78,157,49.78Z"/><path class="cls-2" d="M161.53,52.33c0,.85.27,1.11.94,1.11a2.3,2.3,0,0,0,.39,0,1,1,0,0,1,.07.38,1,1,0,0,1-.05.34,2.59,2.59,0,0,1-.68.08c-1.16,0-1.62-.63-1.62-1.83V49.86h-.72a1,1,0,0,1-.06-.35.87.87,0,0,1,.06-.36h.72v-.86a1.63,1.63,0,0,1,.95-.19v1h1.22a.85.85,0,0,1,.06.35,1.06,1.06,0,0,1-.06.36h-1.22Z"/><path class="cls-2" d="M164.59,51.92c.08,1.12.53,1.48,1.31,1.48a2.35,2.35,0,0,0,1.12-.27,1,1,0,0,1,.3.68,2.83,2.83,0,0,1-1.57.39c-1.45,0-2.13-.89-2.13-2.6s.84-2.55,2.09-2.55a1.71,1.71,0,0,1,1.87,1.9,4.19,4.19,0,0,1-.1,1Zm1.12-2.12c-.61,0-1,.4-1.12,1.45h2a3.05,3.05,0,0,0,0-.42C166.64,50.27,166.41,49.8,165.71,49.8Z"/><path class="cls-2" d="M170,52.33c0,.85.28,1.11.94,1.11a2.5,2.5,0,0,0,.4,0,1,1,0,0,1,.07.38,1,1,0,0,1-.05.34,2.59,2.59,0,0,1-.68.08c-1.16,0-1.62-.63-1.62-1.83V49.86h-.73a1.14,1.14,0,0,1-.05-.35,1,1,0,0,1,.05-.36H169v-.86a1.58,1.58,0,0,1,.94-.19v1h1.23a1,1,0,0,1,0,.35,1.25,1.25,0,0,1,0,.36H170Z"/><path class="cls-2" d="M174.51,54.83c-.34,1-.67,1.64-1.69,1.64a1.32,1.32,0,0,1-.52-.1,1.2,1.2,0,0,1-.06-.35.92.92,0,0,1,.07-.37,3.46,3.46,0,0,0,.43,0c.42,0,.64-.11.92-1l.2-.57a.82.82,0,0,1-.3-.07l-1.8-4.83a1.7,1.7,0,0,1,.49-.06,1.65,1.65,0,0,1,.5.06l1.07,2.87a8.13,8.13,0,0,1,.33,1.1h0a11.3,11.3,0,0,1,.3-1.09l.93-2.88a1.39,1.39,0,0,1,.47-.06,1.44,1.44,0,0,1,.44.06Z"/><path class="cls-2" d="M178,51.63c0,1.23.4,1.77,1.3,1.77a2.45,2.45,0,0,0,.89-.16,1,1,0,0,1,.27.68,2.55,2.55,0,0,1-1.35.28c-1.38,0-2.08-.89-2.08-2.57s.7-2.58,2.08-2.58a2.44,2.44,0,0,1,1.26.24,1,1,0,0,1-.27.68,2.31,2.31,0,0,0-.83-.14C178.34,49.83,178,50.4,178,51.63Z"/><path class="cls-2" d="M184.67,53.33a1.08,1.08,0,0,1,.06.39,1.14,1.14,0,0,1-.06.39h-3.5a1.64,1.64,0,0,1,0-.41,1.27,1.27,0,0,1,0-.37l2.51-3.41h-2.35a1.44,1.44,0,0,1-.05-.39,1.16,1.16,0,0,1,.05-.38h3.34a.92.92,0,0,1,.06.37,1.16,1.16,0,0,1-.06.4l-2.5,3.41Z"/><path class="cls-2" d="M189.68,54a1.28,1.28,0,0,1-.47.07,1.21,1.21,0,0,1-.47-.07V50.65c0-.53-.27-.83-.88-.83a1.27,1.27,0,0,0-1.06.6V54a1.34,1.34,0,0,1-.47.07,1.24,1.24,0,0,1-.48-.07V49.21a1.43,1.43,0,0,1,.48-.06,1.54,1.54,0,0,1,.47.06v.44a1.82,1.82,0,0,1,1.42-.6,1.34,1.34,0,0,1,1.46,1.43Z"/><path class="cls-2" d="M191.79,51.92c.07,1.12.53,1.48,1.31,1.48a2.29,2.29,0,0,0,1.11-.27,1,1,0,0,1,.3.68,2.77,2.77,0,0,1-1.56.39c-1.45,0-2.13-.89-2.13-2.6s.84-2.55,2.09-2.55a1.71,1.71,0,0,1,1.87,1.9,3.83,3.83,0,0,1-.11,1Zm1.12-2.12c-.61,0-1,.4-1.12,1.45h2a3.59,3.59,0,0,0,0-.42C193.83,50.27,193.61,49.8,192.91,49.8Z"/><path class="cls-2" d="M195.9,49.21a1.36,1.36,0,0,1,.48-.06,1.47,1.47,0,0,1,.47.06v5.73c0,1-.48,1.53-1.37,1.53a1.88,1.88,0,0,1-.63-.09.76.76,0,0,1,0-.22,1,1,0,0,1,.09-.48,1.5,1.5,0,0,0,.35,0c.43,0,.64-.23.64-.74Zm1-1a1.61,1.61,0,0,1-.49.06,1.57,1.57,0,0,1-.5-.06V47.3a1.37,1.37,0,0,1,.5-.07,1.4,1.4,0,0,1,.49.07Z"/><polyline class="cls-3" points="9.05 1.57 28.05 29.7 9.05 57.93"/></svg>