<svg id="Warstwa_1" data-name="Warstwa 1" xmlns="http://www.w3.org/2000/svg" viewBox="0 0 471.15 60"><defs><style>.cls-1{fill:#005ca6;}.cls-2{fill:#0056a3;}.cls-3{fill:none;stroke:#ccd513;stroke-miterlimit:10;stroke-width:1.85px;}</style></defs><title>klinicznie_potwierdzona</title><path class="cls-1" d="M54.68,16.7a4.42,4.42,0,0,1,.93-.13,5.18,5.18,0,0,1,1,.13l-4.1,5.93,4.64,6.82a3.66,3.66,0,0,1-1.08.13A3.79,3.79,0,0,1,55,29.45l-4-5.89H49.64v5.89a2.34,2.34,0,0,1-.92.13,2.81,2.81,0,0,1-.92-.13V16.7a2.8,2.8,0,0,1,.94-.13,2.47,2.47,0,0,1,.9.13v5.38H51Z"/><path class="cls-1" d="M60.34,29.45a2.47,2.47,0,0,1-.9.13,2.28,2.28,0,0,1-.9-.13V16.16a2.28,2.28,0,0,1,.9-.13,2.47,2.47,0,0,1,.9.13Z"/><path class="cls-1" d="M64.73,18.25a2.73,2.73,0,0,1-.94.13,2.53,2.53,0,0,1-.94-.13V16.56a2.53,2.53,0,0,1,.94-.13,2.73,2.73,0,0,1,.94.13Zm0,11.2a2.57,2.57,0,0,1-.91.13,2.28,2.28,0,0,1-.9-.13V20.2a2.45,2.45,0,0,1,.9-.12,2.76,2.76,0,0,1,.91.12Z"/><path class="cls-1" d="M74.53,29.45a2.57,2.57,0,0,1-.91.13,2.4,2.4,0,0,1-.9-.13V23c0-1-.52-1.59-1.68-1.59a2.46,2.46,0,0,0-2,1.16v6.93a2.7,2.7,0,0,1-.91.13,2.28,2.28,0,0,1-.9-.13V20.2a2.45,2.45,0,0,1,.9-.12,2.91,2.91,0,0,1,.91.12V21a3.47,3.47,0,0,1,2.73-1.14,2.56,2.56,0,0,1,2.8,2.73Z"/><path class="cls-1" d="M78.81,18.25a2.73,2.73,0,0,1-.94.13,2.53,2.53,0,0,1-.94-.13V16.56a2.53,2.53,0,0,1,.94-.13,2.73,2.73,0,0,1,.94.13Zm0,11.2a2.47,2.47,0,0,1-.9.13,2.28,2.28,0,0,1-.9-.13V20.2a2.45,2.45,0,0,1,.9-.12,2.65,2.65,0,0,1,.9.12Z"/><path class="cls-1" d="M82.72,24.83c0,2.37.75,3.4,2.49,3.4a4.65,4.65,0,0,0,1.7-.31,1.93,1.93,0,0,1,.52,1.3,4.9,4.9,0,0,1-2.6.54c-2.64,0-4-1.71-4-4.93s1.34-4.93,4-4.93a4.77,4.77,0,0,1,2.42.45,1.86,1.86,0,0,1-.52,1.3,4.46,4.46,0,0,0-1.59-.27C83.4,21.38,82.72,22.48,82.72,24.83Z"/><path class="cls-1" d="M95.34,28.1a2,2,0,0,1,.11.74,2.28,2.28,0,0,1-.11.74h-6.7a3.49,3.49,0,0,1-.11-.78,2.57,2.57,0,0,1,.11-.7l4.81-6.54H89a2.49,2.49,0,0,1-.11-.76,1.94,1.94,0,0,1,.11-.72h6.39a1.68,1.68,0,0,1,.11.7,2.26,2.26,0,0,1-.11.78L90.56,28.1Z"/><path class="cls-1" d="M104.76,29.45a2.54,2.54,0,0,1-.9.13,2.43,2.43,0,0,1-.91-.13V23c0-1-.52-1.59-1.68-1.59a2.46,2.46,0,0,0-2,1.16v6.93a2.6,2.6,0,0,1-.9.13,2.37,2.37,0,0,1-.91-.13V20.2a2.55,2.55,0,0,1,.91-.12,2.8,2.8,0,0,1,.9.12V21A3.47,3.47,0,0,1,102,19.9a2.55,2.55,0,0,1,2.8,2.73Z"/><path class="cls-1" d="M109,18.25a2.73,2.73,0,0,1-.94.13,2.53,2.53,0,0,1-.94-.13V16.56a2.53,2.53,0,0,1,.94-.13,2.73,2.73,0,0,1,.94.13Zm0,11.2a2.57,2.57,0,0,1-.91.13,2.28,2.28,0,0,1-.9-.13V20.2a2.45,2.45,0,0,1,.9-.12,2.76,2.76,0,0,1,.91.12Z"/><path class="cls-1" d="M113,25.39c.14,2.15,1,2.84,2.51,2.84a4.34,4.34,0,0,0,2.13-.53,1.86,1.86,0,0,1,.58,1.3,5.32,5.32,0,0,1-3,.76c-2.78,0-4.08-1.71-4.08-5,0-3.42,1.61-4.88,4-4.88a3.26,3.26,0,0,1,3.58,3.63,7.63,7.63,0,0,1-.2,1.86Zm2.15-4.07c-1.18,0-2,.78-2.15,2.79h3.87c0-.15.05-.44.05-.82C116.87,22.23,116.44,21.32,115.1,21.32Z"/><path class="cls-1" d="M128.91,19.9c2.05,0,3.39,1.24,3.39,4.93s-1.34,4.93-3.39,4.93a2.9,2.9,0,0,1-2.61-1.17v5.06a3.22,3.22,0,0,1-.92.1,3,3,0,0,1-.88-.1V20.2a2.52,2.52,0,0,1,.88-.12,2.72,2.72,0,0,1,.92.12v.87A2.9,2.9,0,0,1,128.91,19.9Zm-.64,1.48a2.05,2.05,0,0,0-2,2.28V26a2.07,2.07,0,0,0,2,2.31c1.45,0,2.17-.76,2.17-3.45S129.72,21.38,128.27,21.38Z"/><path class="cls-1" d="M138,19.9c2.49,0,4,1.35,4,4.93s-1.54,4.93-4,4.93-4-1.35-4-4.93S135.5,19.9,138,19.9Zm0,1.39c-1.32,0-2.17.76-2.17,3.54s.85,3.54,2.17,3.54,2.15-.76,2.15-3.54S139.3,21.29,138,21.29Z"/><path class="cls-1" d="M146.45,26.17c0,1.64.53,2.13,1.81,2.13a5.16,5.16,0,0,0,.76-.07,2.12,2.12,0,0,1,.12.72,2,2,0,0,1-.09.65,5.17,5.17,0,0,1-1.3.16c-2.22,0-3.1-1.21-3.1-3.5V21.43h-1.4a2,2,0,0,1-.1-.67,1.86,1.86,0,0,1,.1-.68h1.4V18.43a3.16,3.16,0,0,1,1.8-.36v2h2.35a1.68,1.68,0,0,1,.11.67,2,2,0,0,1-.11.68h-2.35Z"/><path class="cls-1" d="M157.13,24.56a13.14,13.14,0,0,1-.49-2.6h-.07a11.19,11.19,0,0,1-.5,2.6l-1.43,4.89a3.49,3.49,0,0,1-1,.13,3.82,3.82,0,0,1-1.05-.13l-2.73-9.25a2.91,2.91,0,0,1,.91-.12,1.47,1.47,0,0,1,.77.12L153.23,26a12.58,12.58,0,0,1,.38,1.77h0a17.67,17.67,0,0,1,.4-1.77l1.66-5.77a4.15,4.15,0,0,1,1-.12,2.52,2.52,0,0,1,.88.12l1.61,5.73a9,9,0,0,1,.36,1.81h.06a16.86,16.86,0,0,1,.45-1.79l1.7-5.75a2.25,2.25,0,0,1,.79-.12,1.79,1.79,0,0,1,.78.12l-2.73,9.25a3.77,3.77,0,0,1-1,.13,4,4,0,0,1-1-.13Z"/><path class="cls-1" d="M166.8,18.25a2.73,2.73,0,0,1-.94.13,2.53,2.53,0,0,1-.94-.13V16.56a2.53,2.53,0,0,1,.94-.13,2.73,2.73,0,0,1,.94.13Zm0,11.2a2.47,2.47,0,0,1-.9.13,2.28,2.28,0,0,1-.9-.13V20.2a2.45,2.45,0,0,1,.9-.12,2.65,2.65,0,0,1,.9.12Z"/><path class="cls-1" d="M170.7,25.39c.15,2.15,1,2.84,2.52,2.84a4.34,4.34,0,0,0,2.13-.53,1.9,1.9,0,0,1,.58,1.3,5.32,5.32,0,0,1-3,.76c-2.79,0-4.09-1.71-4.09-5,0-3.42,1.61-4.88,4-4.88a3.26,3.26,0,0,1,3.58,3.63,7.63,7.63,0,0,1-.2,1.86Zm2.15-4.07c-1.17,0-2,.78-2.15,2.79h3.87a6.34,6.34,0,0,0,.05-.82C174.62,22.23,174.19,21.32,172.85,21.32Z"/><path class="cls-1" d="M182.38,19.92a2.78,2.78,0,0,1,1.57.45,2,2,0,0,1-.8,1.51,1.82,1.82,0,0,0-1.12-.37,2.34,2.34,0,0,0-1.86,1.37v6.57a2.47,2.47,0,0,1-.9.13,2.28,2.28,0,0,1-.9-.13V20.2a2.45,2.45,0,0,1,.9-.12,2.65,2.65,0,0,1,.9.12v1.25A2.64,2.64,0,0,1,182.38,19.92Z"/><path class="cls-1" d="M191.83,16a2.34,2.34,0,0,1,.88.13V29.45a2.08,2.08,0,0,1-.76.13,2.65,2.65,0,0,1-.81-.13l-.13-1a3,3,0,0,1-2.7,1.28c-2.06,0-3.4-1.24-3.4-4.93s1.34-4.93,3.4-4.93a2.94,2.94,0,0,1,2.6,1.17V16.16A2.53,2.53,0,0,1,191.83,16Zm-2.89,5.35c-1.45,0-2.17.76-2.17,3.45s.72,3.45,2.17,3.45a2.07,2.07,0,0,0,2-2.31V23.64A2.07,2.07,0,0,0,188.94,21.38Z"/><path class="cls-1" d="M201.35,28.1a2,2,0,0,1,.11.74,2.28,2.28,0,0,1-.11.74h-6.7a3,3,0,0,1-.11-.78,2.23,2.23,0,0,1,.11-.7l4.8-6.54H195a2.49,2.49,0,0,1-.11-.76,1.94,1.94,0,0,1,.11-.72h6.39a1.86,1.86,0,0,1,.11.7,2.53,2.53,0,0,1-.11.78l-4.79,6.54Z"/><path class="cls-1" d="M207,19.9c2.49,0,4,1.35,4,4.93s-1.54,4.93-4,4.93-4-1.35-4-4.93S204.55,19.9,207,19.9Zm0,1.39c-1.32,0-2.17.76-2.17,3.54s.85,3.54,2.17,3.54,2.15-.76,2.15-3.54S208.35,21.29,207,21.29Z"/><path class="cls-1" d="M220.42,29.45a2.57,2.57,0,0,1-.91.13,2.4,2.4,0,0,1-.9-.13V23c0-1-.52-1.59-1.68-1.59a2.46,2.46,0,0,0-2,1.16v6.93a2.67,2.67,0,0,1-.9.13,2.31,2.31,0,0,1-.91-.13V20.2a2.48,2.48,0,0,1,.91-.12,2.88,2.88,0,0,1,.9.12V21a3.47,3.47,0,0,1,2.73-1.14,2.56,2.56,0,0,1,2.8,2.73Z"/><path class="cls-1" d="M226.11,19.9c2.62,0,3.45,1.17,3.45,3.5v6.05a1.38,1.38,0,0,1-.7.13,1.88,1.88,0,0,1-.73-.13l-.27-1.15A2.89,2.89,0,0,1,225,29.76c-1.7,0-2.8-1-2.8-3s1.21-2.83,3.47-2.83a17.59,17.59,0,0,1,2.05.11v-.67c0-1.23-.46-1.93-1.86-1.93a7.58,7.58,0,0,0-2.42.45,1.51,1.51,0,0,1-.41-.55,1.58,1.58,0,0,1-.11-.75A7.8,7.8,0,0,1,226.11,19.9Zm-.18,5.24c-1.21,0-1.84.47-1.84,1.6s.59,1.63,1.57,1.63c1.43,0,2.09-1.21,2.09-2.49v-.63C227.34,25.21,226.62,25.14,225.93,25.14Z"/><path class="cls-1" d="M238.82,19.9a5.07,5.07,0,0,1,2.54.49,1.84,1.84,0,0,1-.47,1.28,6.6,6.6,0,0,0-1.89-.29c-1.23,0-1.85.45-1.85,1.3s1.14,1.1,2.28,1.48,2.4.94,2.4,2.71-1.14,2.89-3.43,2.89a6.45,6.45,0,0,1-3-.65,1.89,1.89,0,0,1,.49-1.34,7.55,7.55,0,0,0,2.44.46c1.1,0,1.73-.42,1.73-1.3s-1-1.22-2.06-1.52-2.56-.89-2.56-2.68S236.52,19.9,238.82,19.9Z"/><path class="cls-1" d="M249,20.2a3.18,3.18,0,0,1,.92-.12,3.5,3.5,0,0,1,.88.11L248,24.5l3.2,4.95a3.14,3.14,0,0,1-1,.15,2.77,2.77,0,0,1-1-.15l-2.71-4.15h-1v4.15a3.21,3.21,0,0,1-1.81,0V16.12a4.28,4.28,0,0,1,.92-.09,4.52,4.52,0,0,1,.89.09v7.82h1Z"/><path class="cls-1" d="M252.51,20.2a2.76,2.76,0,0,1,.91-.12,2.58,2.58,0,0,1,.9.12v6.51c0,1,.52,1.59,1.68,1.59a2.45,2.45,0,0,0,2-1.16V20.2a2.91,2.91,0,0,1,.91-.12,2.45,2.45,0,0,1,.9.12v9.25a2.28,2.28,0,0,1-.9.13,2.7,2.7,0,0,1-.91-.13v-.83a3.53,3.53,0,0,1-2.73,1.14,2.56,2.56,0,0,1-2.8-2.73Z"/><path class="cls-1" d="M264.73,26.17c0,1.64.52,2.13,1.81,2.13a5.16,5.16,0,0,0,.76-.07,2.12,2.12,0,0,1,.12.72,2,2,0,0,1-.09.65,5.17,5.17,0,0,1-1.3.16c-2.22,0-3.11-1.21-3.11-3.5V21.43h-1.39a1.8,1.8,0,0,1-.11-.67,1.71,1.71,0,0,1,.11-.68h1.39V18.43a3.19,3.19,0,0,1,1.81-.36v2h2.35a1.68,1.68,0,0,1,.11.67,2,2,0,0,1-.11.68h-2.35Z"/><path class="cls-1" d="M270.42,25.39c.15,2.15,1,2.84,2.51,2.84a4.36,4.36,0,0,0,2.14-.53,1.85,1.85,0,0,1,.57,1.3,5.32,5.32,0,0,1-3,.76c-2.78,0-4.08-1.71-4.08-5,0-3.42,1.61-4.88,4-4.88a3.26,3.26,0,0,1,3.58,3.63,7.63,7.63,0,0,1-.2,1.86Zm2.15-4.07c-1.17,0-2,.78-2.15,2.79h3.87a6.34,6.34,0,0,0,0-.82C274.34,22.23,273.91,21.32,272.57,21.32Z"/><path class="cls-1" d="M279.53,24.83c0,2.37.76,3.4,2.49,3.4a4.59,4.59,0,0,0,1.7-.31,1.89,1.89,0,0,1,.53,1.3,5,5,0,0,1-2.61.54c-2.63,0-4-1.71-4-4.93s1.34-4.93,4-4.93a4.8,4.8,0,0,1,2.43.45,1.83,1.83,0,0,1-.53,1.3,4.39,4.39,0,0,0-1.59-.27C280.22,21.38,279.53,22.48,279.53,24.83Z"/><path class="cls-1" d="M292.16,28.1a2,2,0,0,1,.11.74,2.28,2.28,0,0,1-.11.74h-6.7a3,3,0,0,1-.11-.78,2.23,2.23,0,0,1,.11-.7l4.8-6.54h-4.5a2.72,2.72,0,0,1-.1-.76,2.11,2.11,0,0,1,.1-.72h6.4a1.86,1.86,0,0,1,.11.7,2.53,2.53,0,0,1-.11.78l-4.79,6.54Z"/><path class="cls-1" d="M301.58,29.45a2.57,2.57,0,0,1-.91.13,2.4,2.4,0,0,1-.9-.13V23c0-1-.52-1.59-1.68-1.59a2.45,2.45,0,0,0-2,1.16v6.93a2.7,2.7,0,0,1-.91.13,2.28,2.28,0,0,1-.9-.13V20.2a2.45,2.45,0,0,1,.9-.12,2.91,2.91,0,0,1,.91.12V21a3.47,3.47,0,0,1,2.73-1.14,2.56,2.56,0,0,1,2.8,2.73Z"/><path class="cls-1" d="M307.58,19.9c2.49,0,4,1.35,4,4.93s-1.54,4.93-4,4.93-4-1.35-4-4.93S305.1,19.9,307.58,19.9Zm0,1.39c-1.32,0-2.17.76-2.17,3.54s.85,3.54,2.17,3.54,2.15-.76,2.15-3.54S308.9,21.29,307.58,21.29Z"/><path class="cls-1" d="M316.61,19.9a5.14,5.14,0,0,1,2.55.49,1.84,1.84,0,0,1-.47,1.28,6.71,6.71,0,0,0-1.9-.29c-1.23,0-1.84.45-1.84,1.3s1,1.08,2.11,1.41,2.57.92,2.57,2.78-1.14,2.89-3.43,2.89a6.45,6.45,0,0,1-3-.65,1.84,1.84,0,0,1,.49-1.34,7.55,7.55,0,0,0,2.44.46c1.1,0,1.73-.42,1.73-1.3s-1-1.23-2.09-1.54-2.53-.87-2.53-2.66S314.32,19.9,316.61,19.9ZM316,18.67a1.48,1.48,0,0,1-1-.56l1.71-2.55a1.82,1.82,0,0,1,1.58.67Z"/><path class="cls-1" d="M323,24.83c0,2.37.75,3.4,2.49,3.4a4.65,4.65,0,0,0,1.7-.31,1.93,1.93,0,0,1,.52,1.3,4.9,4.9,0,0,1-2.6.54c-2.64,0-4-1.71-4-4.93s1.34-4.93,4-4.93a4.77,4.77,0,0,1,2.42.45,1.86,1.86,0,0,1-.52,1.3,4.46,4.46,0,0,0-1.59-.27C323.64,21.38,323,22.48,323,24.83Zm1.49-6.16a1.53,1.53,0,0,1-1-.56l1.72-2.55a1.8,1.8,0,0,1,1.57.67Z"/><path class="cls-1" d="M330.85,15.45a9.52,9.52,0,0,0-1.18,4.74,9.53,9.53,0,0,0,1.18,4.75.81.81,0,0,1-.33.31,1.2,1.2,0,0,1-.45.11,10.61,10.61,0,0,1-1.43-5.17A10.66,10.66,0,0,1,330.07,15a.92.92,0,0,1,.44.12A.88.88,0,0,1,330.85,15.45Z"/><path class="cls-1" d="M333.4,16.48a1.19,1.19,0,0,1,.51-.08,1.33,1.33,0,0,1,.52.08v7a1.46,1.46,0,0,1-.53.07,1.75,1.75,0,0,1-.53-.07V19.17c0-.56,0-1,.05-1.37a3.84,3.84,0,0,1-1.78,1,.94.94,0,0,1-.25-.87A3.38,3.38,0,0,0,333.4,16.48Z"/><path class="cls-1" d="M335.65,15.45a1,1,0,0,1,.35-.31.92.92,0,0,1,.44-.12,10.66,10.66,0,0,1,1.43,5.17,10.61,10.61,0,0,1-1.43,5.17,1.2,1.2,0,0,1-.45-.11.89.89,0,0,1-.34-.31,9.47,9.47,0,0,0,1.19-4.75A9.46,9.46,0,0,0,335.65,15.45Z"/><path class="cls-2" d="M49.63,37.9a5.67,5.67,0,0,1-.15-1h0a6.63,6.63,0,0,1-.16,1L48.51,41a2.33,2.33,0,0,1-.43,0,1.79,1.79,0,0,1-.39,0l-1.32-4.75a.9.9,0,0,1,.34-.05.84.84,0,0,1,.34.05l.89,3.16a7.35,7.35,0,0,1,.18.89h0a7.71,7.71,0,0,1,.16-.89l.81-3.16a1.32,1.32,0,0,1,.72,0l.8,3.16a6.29,6.29,0,0,1,.16.89h0s.06-.41.18-.89l.89-3.16a.88.88,0,0,1,.31-.05.9.9,0,0,1,.32.05L51.21,41a1.77,1.77,0,0,1-.39,0,2.1,2.1,0,0,1-.41,0Z"/><path class="cls-2" d="M54.83,37.43c.77,0,1.27.46,1.27,1.83s-.5,1.84-1.27,1.84a1.07,1.07,0,0,1-1-.44v1.89a1.1,1.1,0,0,1-.34,0,1.06,1.06,0,0,1-.33,0v-5a.87.87,0,0,1,.33,0,.9.9,0,0,1,.34,0v.32A1.09,1.09,0,0,1,54.83,37.43ZM54.6,38a.77.77,0,0,0-.74.85v.86a.78.78,0,0,0,.74.86c.53,0,.8-.28.8-1.29S55.13,38,54.6,38Z"/><path class="cls-2" d="M57.6,36a1.18,1.18,0,0,1,.34,0v1.85l.47-.26s.06,0,.13.15a.59.59,0,0,1,.08.21l-.68.4V41a1.18,1.18,0,0,1-.34,0,1,1,0,0,1-.33,0V38.77l-.46.25a.63.63,0,0,1-.12-.15.42.42,0,0,1-.08-.21l.66-.38V36A1,1,0,0,1,57.6,36Z"/><path class="cls-2" d="M60.85,41.55c-.24.74-.47,1.17-1.2,1.17a1,1,0,0,1-.37-.07.82.82,0,0,1-.05-.25.56.56,0,0,1,.06-.27,1.61,1.61,0,0,0,.3,0c.3,0,.46-.08.66-.72l.14-.41a.6.6,0,0,1-.22,0L58.9,37.54a1,1,0,0,1,.35,0,1.06,1.06,0,0,1,.35,0l.76,2.05a6.52,6.52,0,0,1,.24.78h0a7.6,7.6,0,0,1,.21-.78l.67-2.05a.87.87,0,0,1,.33,0,.88.88,0,0,1,.31,0Z"/><path class="cls-2" d="M65.19,39.16a4.22,4.22,0,0,1-.18-1h0a3.86,3.86,0,0,1-.19,1L64.26,41a1.43,1.43,0,0,1-.38,0,1.56,1.56,0,0,1-.39,0l-1-3.45a1,1,0,0,1,.34,0c.23,0,.29,0,.29,0l.64,2.15a5.34,5.34,0,0,1,.14.66h0a5.41,5.41,0,0,1,.15-.66l.62-2.15a1.34,1.34,0,0,1,.36,0,.87.87,0,0,1,.33,0l.6,2.13a4.18,4.18,0,0,1,.13.68h0c0-.14.08-.36.17-.67l.63-2.14a.79.79,0,0,1,.3,0,.6.6,0,0,1,.29,0l-1,3.45a1.53,1.53,0,0,1-.38,0,1.67,1.67,0,0,1-.39,0Z"/><path class="cls-2" d="M70.79,37.43a1.93,1.93,0,0,1,.95.18.68.68,0,0,1-.18.48,2.4,2.4,0,0,0-.7-.11c-.46,0-.69.17-.69.48s.42.41.85.55.89.35.89,1-.42,1.08-1.28,1.08a2.42,2.42,0,0,1-1.12-.24.68.68,0,0,1,.18-.5,2.87,2.87,0,0,0,.91.17c.41,0,.65-.16.65-.49s-.37-.45-.77-.56-1-.33-1-1S69.93,37.43,70.79,37.43Z"/><path class="cls-2" d="M73.58,39.76c0,.61.2.8.68.8a1.69,1.69,0,0,0,.28,0,.71.71,0,0,1,0,.27.64.64,0,0,1,0,.24,2.09,2.09,0,0,1-.48.06c-.83,0-1.16-.45-1.16-1.31V38h-.52a.73.73,0,0,1,0-.25.7.7,0,0,1,0-.26h.52v-.61a1.13,1.13,0,0,1,.67-.13v.74h.88a.67.67,0,0,1,0,.25.76.76,0,0,1,0,.26h-.88Z"/><path class="cls-2" d="M76.57,37.43c.93,0,1.5.5,1.5,1.83s-.57,1.84-1.5,1.84-1.49-.5-1.49-1.84S75.65,37.43,76.57,37.43Zm0,.51c-.49,0-.8.29-.8,1.32s.31,1.32.8,1.32.8-.28.8-1.32S77.07,37.94,76.57,37.94Z"/><path class="cls-2" d="M80,37.43a1.93,1.93,0,0,1,.95.18.68.68,0,0,1-.18.48,2.4,2.4,0,0,0-.7-.11c-.46,0-.69.17-.69.48s.42.41.85.55.89.35.89,1-.42,1.08-1.28,1.08a2.42,2.42,0,0,1-1.12-.24.68.68,0,0,1,.18-.5,2.87,2.87,0,0,0,.91.17c.41,0,.65-.16.65-.49s-.37-.45-.77-.56-1-.33-1-1S79.16,37.43,80,37.43Z"/><path class="cls-2" d="M83.24,37.43c.93,0,1.5.5,1.5,1.83s-.58,1.84-1.5,1.84-1.49-.5-1.49-1.84S82.32,37.43,83.24,37.43Zm0,.51c-.49,0-.81.29-.81,1.32s.32,1.32.81,1.32.8-.28.8-1.32S83.73,37.94,83.24,37.94Z"/><path class="cls-2" d="M88,39.16a4.22,4.22,0,0,1-.18-1h0a4.22,4.22,0,0,1-.18,1L87,41a1.38,1.38,0,0,1-.38,0,1.56,1.56,0,0,1-.39,0l-1-3.45a1,1,0,0,1,.34,0c.23,0,.29,0,.29,0l.64,2.15a3.94,3.94,0,0,1,.14.66h0a5.41,5.41,0,0,1,.15-.66l.62-2.15a1.34,1.34,0,0,1,.36,0,.87.87,0,0,1,.33,0l.6,2.13a3.3,3.3,0,0,1,.13.68h0c0-.14.08-.36.17-.67l.64-2.14a.7.7,0,0,1,.29,0,.6.6,0,0,1,.29,0l-1,3.45a1.53,1.53,0,0,1-.38,0,1.67,1.67,0,0,1-.39,0Z"/><path class="cls-2" d="M92.16,37.43c1,0,1.29.43,1.29,1.3V41a.66.66,0,0,1-.27,0,.79.79,0,0,1-.27,0l-.1-.43a1.08,1.08,0,0,1-1,.54A1,1,0,0,1,90.71,40c0-.74.45-1.06,1.3-1.06a7.09,7.09,0,0,1,.76,0v-.25c0-.46-.17-.72-.69-.72a2.77,2.77,0,0,0-.9.17A.54.54,0,0,1,91,38a.58.58,0,0,1,0-.28A3,3,0,0,1,92.16,37.43Zm-.07,2c-.45,0-.68.17-.68.6s.22.6.58.6c.53,0,.78-.45.78-.93v-.23A5.77,5.77,0,0,0,92.09,39.38Z"/><path class="cls-2" d="M97.14,41a1.18,1.18,0,0,1-.34,0,1.1,1.1,0,0,1-.34,0V38.56c0-.37-.19-.59-.62-.59a.91.91,0,0,0-.76.43V41a1.18,1.18,0,0,1-.34,0,1,1,0,0,1-.34,0V37.54a.84.84,0,0,1,.34,0,1,1,0,0,1,.34,0v.31a1.28,1.28,0,0,1,1-.42,1,1,0,0,1,1,1Z"/><path class="cls-2" d="M98.8,36.81a1,1,0,0,1-.35,0,.93.93,0,0,1-.35,0v-.63a.93.93,0,0,1,.35,0,1,1,0,0,1,.35,0Zm0,4.18a1.18,1.18,0,0,1-.34,0,1,1,0,0,1-.33,0V37.54a.81.81,0,0,1,.33,0,1,1,0,0,1,.34,0Z"/><path class="cls-2" d="M101,37.43c1,0,1.28.43,1.28,1.3V41a.58.58,0,0,1-.26,0,.79.79,0,0,1-.27,0l-.1-.43a1.08,1.08,0,0,1-1,.54,1,1,0,0,1-1-1.12c0-.74.45-1.06,1.3-1.06a7.09,7.09,0,0,1,.76,0v-.25c0-.46-.17-.72-.69-.72a2.77,2.77,0,0,0-.9.17.54.54,0,0,1-.16-.2.58.58,0,0,1,0-.28A3,3,0,0,1,101,37.43Zm-.07,2c-.45,0-.68.17-.68.6s.22.6.58.6c.53,0,.78-.45.78-.93v-.23A5.77,5.77,0,0,0,100.94,39.38Z"/><path class="cls-2" d="M107.07,40.48a.82.82,0,0,1,0,.28.79.79,0,0,1,0,.27h-2.5a1.19,1.19,0,0,1,0-.29,1,1,0,0,1,0-.26l1.79-2.43h-1.67a1,1,0,0,1,0-.29.79.79,0,0,1,0-.27h2.38a.67.67,0,0,1,0,.27.88.88,0,0,1,0,.29l-1.78,2.43Zm-.83-3.65a1,1,0,0,1-.32,0,1,1,0,0,1-.32,0v-.58a1,1,0,0,1,.32,0,1,1,0,0,1,.32,0Z"/><path class="cls-2" d="M108.45,39.47c.06.8.38,1.06.94,1.06a1.57,1.57,0,0,0,.79-.2.72.72,0,0,1,.22.49,2,2,0,0,1-1.12.28c-1,0-1.52-.64-1.52-1.86s.6-1.81,1.49-1.81a1.22,1.22,0,0,1,1.34,1.35,2.66,2.66,0,0,1-.08.69Zm.8-1.51c-.43,0-.74.29-.8,1h1.44a1.8,1.8,0,0,0,0-.3C109.91,38.29,109.75,38,109.25,38Z"/><path class="cls-2" d="M112.07,41a1.1,1.1,0,0,1-.34,0,1,1,0,0,1-.33,0V36a1,1,0,0,1,.33,0,1.1,1.1,0,0,1,.34,0Z"/><path class="cls-2" d="M113.05,37.54a.87.87,0,0,1,.33,0,.9.9,0,0,1,.34,0V40c0,.38.19.6.63.6a.93.93,0,0,0,.76-.44V37.54a.93.93,0,0,1,.33,0,.84.84,0,0,1,.34,0V41a1,1,0,0,1-.34,0,1.14,1.14,0,0,1-.33,0v-.31a1.35,1.35,0,0,1-1,.42,1,1,0,0,1-1-1Z"/><path class="cls-2" d="M120.58,40.48a.82.82,0,0,1,0,.28.79.79,0,0,1,0,.27h-2.5a2,2,0,0,1,0-.29,1.59,1.59,0,0,1,0-.26l1.79-2.43H118.2a1,1,0,0,1,0-.29.79.79,0,0,1,0-.27h2.38a.67.67,0,0,1,0,.27.88.88,0,0,1,0,.29l-1.78,2.43Z"/><path class="cls-2" d="M124.8,36.12a2.47,2.47,0,0,1,1.15.23.68.68,0,0,1-.2.51,2.69,2.69,0,0,0-.87-.15c-.78,0-1.33.41-1.33,1.91s.55,1.88,1.33,1.88a2.92,2.92,0,0,0,.93-.15.69.69,0,0,1,.21.52,2.78,2.78,0,0,1-1.22.23c-1.29,0-2-.85-2-2.49S123.51,36.12,124.8,36.12Z"/><path class="cls-2" d="M129.54,36.24a1,1,0,0,1,.34-.05,1.06,1.06,0,0,1,.35.05V41a1.18,1.18,0,0,1-.34,0,1,1,0,0,1-.35,0V38.85h-2V41a1.18,1.18,0,0,1-.34,0,1.14,1.14,0,0,1-.35,0V36.24a1,1,0,0,1,.34-.05,1,1,0,0,1,.35.05v2h2Z"/><path class="cls-2" d="M134.44,36.19a1.18,1.18,0,0,1,.37.05l-1.44,2.24L134.93,41a1.1,1.1,0,0,1-.4.06,1.23,1.23,0,0,1-.38-.05l-1.24-2-1.24,2a1.76,1.76,0,0,1-.75,0l1.57-2.47-1.41-2.28a1.3,1.3,0,0,1,.4-.05,1.44,1.44,0,0,1,.39.05L133,38l1.12-1.75A1.2,1.2,0,0,1,134.44,36.19Z"/><path class="cls-2" d="M137,38.75c0-1.66.6-2.36,1.67-2.36s1.69.68,1.69,2.36-.62,2.35-1.69,2.35S137,40.42,137,38.75Zm.72,0c0,1.39.33,1.78.95,1.78s1-.39,1-1.78-.32-1.79-1-1.79S137.68,37.35,137.68,38.75Z"/><path class="cls-2" d="M141.13,41.71a1.18,1.18,0,0,0,.25-.68.48.48,0,0,1-.22,0v-.64a1.55,1.55,0,0,1,.7,0v.43a1.42,1.42,0,0,1-.49,1.09Z"/><path class="cls-2" d="M142.8,36.63a3.32,3.32,0,0,1,1.25-.24c.81,0,1.47.34,1.47,1.23s-.49,1.14-1.29,1.62c-.4.25-.95.49-.95,1,0,.07,0,.12,0,.15h2.1a.53.53,0,0,1,.07.3.7.7,0,0,1-.07.3h-2.72a2.7,2.7,0,0,1,0-.45c0-1,.68-1.42,1.3-1.83s.89-.6.89-1.11-.27-.69-.88-.69a3.11,3.11,0,0,0-.95.17A.55.55,0,0,1,142.8,36.63Z"/><path class="cls-2" d="M146.44,38.49a1.37,1.37,0,0,1-.3-.93,1.4,1.4,0,0,1,.3-.93,1.08,1.08,0,0,1,1.59,0,1.61,1.61,0,0,1,0,1.87,1,1,0,0,1-.79.35A1,1,0,0,1,146.44,38.49Zm1.28-.26a1.09,1.09,0,0,0,.18-.67,1.08,1.08,0,0,0-.18-.66.61.61,0,0,0-1,0,1.12,1.12,0,0,0-.17.66,1.08,1.08,0,0,0,.17.66.56.56,0,0,0,.49.25A.57.57,0,0,0,147.72,38.23Zm2.36-1.91h.52L147.38,41h-.52Zm-.65,4.4a1.61,1.61,0,0,1,0-1.87,1,1,0,0,1,.79-.35,1,1,0,0,1,.79.36,1.55,1.55,0,0,1,0,1.86,1.07,1.07,0,0,1-1.58,0Zm1.27-.27a1.3,1.3,0,0,0,0-1.32.6.6,0,0,0-1,0,1.16,1.16,0,0,0-.17.67,1.15,1.15,0,0,0,.17.66.61.61,0,0,0,1,0Z"/><path class="cls-2" d="M156.31,41a1.18,1.18,0,0,1-.34,0,1.1,1.1,0,0,1-.34,0V38.56c0-.37-.19-.59-.62-.59a.91.91,0,0,0-.76.43V41a1.27,1.27,0,0,1-.34,0,1,1,0,0,1-.34,0V37.54a.84.84,0,0,1,.34,0,1,1,0,0,1,.34,0v.31a1.28,1.28,0,0,1,1-.42,1,1,0,0,1,1.05,1Z"/><path class="cls-2" d="M158.5,37.43c1,0,1.28.43,1.28,1.3V41a.58.58,0,0,1-.26,0,.79.79,0,0,1-.27,0l-.1-.43a1.1,1.1,0,0,1-1.06.54,1,1,0,0,1-1-1.12c0-.74.45-1.06,1.29-1.06a7.47,7.47,0,0,1,.77,0v-.25c0-.46-.18-.72-.7-.72a2.77,2.77,0,0,0-.9.17.77.77,0,0,1-.15-.2.58.58,0,0,1,0-.28A2.89,2.89,0,0,1,158.5,37.43Zm-.07,2c-.45,0-.69.17-.69.6a.52.52,0,0,0,.59.6c.53,0,.78-.45.78-.93v-.23A6.07,6.07,0,0,0,158.43,39.38Z"/><path class="cls-2" d="M163.37,37.43a1.91,1.91,0,0,1,.94.18.72.72,0,0,1-.17.48,2.43,2.43,0,0,0-.71-.11c-.46,0-.68.17-.68.48s.42.41.84.55.9.35.9,1-.42,1.08-1.28,1.08a2.37,2.37,0,0,1-1.12-.24.68.68,0,0,1,.18-.5,2.87,2.87,0,0,0,.91.17c.41,0,.64-.16.64-.49s-.37-.45-.76-.56-1-.33-1-1S162.51,37.43,163.37,37.43Z"/><path class="cls-2" d="M166.16,39.76c0,.61.2.8.67.8a1.72,1.72,0,0,0,.29,0,.87.87,0,0,1,0,.27.83.83,0,0,1,0,.24,2.11,2.11,0,0,1-.49.06c-.82,0-1.15-.45-1.15-1.31V38H165a.73.73,0,0,1,0-.25.7.7,0,0,1,0-.26h.52v-.61a1.11,1.11,0,0,1,.67-.13v.74H167a.67.67,0,0,1,0,.25.76.76,0,0,1,0,.26h-.88Z"/><path class="cls-2" d="M169,37.43c1,0,1.28.43,1.28,1.3V41a.58.58,0,0,1-.26,0,.79.79,0,0,1-.27,0l-.1-.43a1.1,1.1,0,0,1-1.06.54,1,1,0,0,1-1-1.12c0-.74.45-1.06,1.29-1.06a7.47,7.47,0,0,1,.77,0v-.25c0-.46-.18-.72-.7-.72a2.77,2.77,0,0,0-.9.17.77.77,0,0,1-.15-.2.58.58,0,0,1,0-.28A2.89,2.89,0,0,1,169,37.43Zm-.07,2c-.45,0-.69.17-.69.6a.52.52,0,0,0,.59.6c.53,0,.78-.45.78-.93v-.23A6.07,6.07,0,0,0,169,39.38Z"/><path class="cls-2" d="M174,41a1.06,1.06,0,0,1-.33,0,1.1,1.1,0,0,1-.34,0V38.56c0-.37-.2-.59-.63-.59a.93.93,0,0,0-.76.43V41a1.14,1.14,0,0,1-.33,0,1,1,0,0,1-.34,0V37.54a.84.84,0,0,1,.34,0,.93.93,0,0,1,.33,0v.31a1.3,1.3,0,0,1,1-.42,1,1,0,0,1,1,1Z"/><path class="cls-2" d="M178.46,37.54a1.14,1.14,0,0,1,.35,0,1.33,1.33,0,0,1,.33,0l-1,1.61L179.29,41a1.28,1.28,0,0,1-.37,0,1.2,1.2,0,0,1-.37,0l-1-1.55h-.37V41a1.33,1.33,0,0,1-.33,0,1.3,1.3,0,0,1-.35,0V36a1.84,1.84,0,0,1,.35,0,1.88,1.88,0,0,1,.33,0v2.91h.38Z"/><path class="cls-2" d="M180.56,41a1.1,1.1,0,0,1-.34,0,1,1,0,0,1-.33,0V36a1,1,0,0,1,.33,0,1.1,1.1,0,0,1,.34,0Z"/><path class="cls-2" d="M182.27,36.81a1.09,1.09,0,0,1-.36,0,.84.84,0,0,1-.34,0v-.63a.84.84,0,0,1,.34,0,1.09,1.09,0,0,1,.36,0Zm0,4.18a1.1,1.1,0,0,1-.34,0,1,1,0,0,1-.33,0V37.54a.81.81,0,0,1,.33,0,.9.9,0,0,1,.34,0Z"/><path class="cls-2" d="M186,41a1.1,1.1,0,0,1-.34,0,1.06,1.06,0,0,1-.33,0V38.56c0-.37-.2-.59-.63-.59a.93.93,0,0,0-.76.43V41a1.14,1.14,0,0,1-.33,0,1,1,0,0,1-.34,0V37.54a.84.84,0,0,1,.34,0,.93.93,0,0,1,.33,0v.31a1.28,1.28,0,0,1,1-.42,1,1,0,0,1,1,1Z"/><path class="cls-2" d="M187.65,36.81a1,1,0,0,1-.35,0,.87.87,0,0,1-.35,0v-.63a.87.87,0,0,1,.35,0,1,1,0,0,1,.35,0Zm0,4.18a1.06,1.06,0,0,1-.33,0,1,1,0,0,1-.34,0V37.54a.84.84,0,0,1,.34,0,.87.87,0,0,1,.33,0Z"/><path class="cls-2" d="M189.17,39.26c0,.88.28,1.27.93,1.27a1.64,1.64,0,0,0,.63-.12.76.76,0,0,1,.2.49,1.86,1.86,0,0,1-1,.2c-1,0-1.48-.64-1.48-1.84s.49-1.83,1.48-1.83a1.86,1.86,0,0,1,.9.16.7.7,0,0,1-.2.49,1.61,1.61,0,0,0-.59-.1C189.42,38,189.17,38.39,189.17,39.26Z"/><path class="cls-2" d="M193.94,40.48a.82.82,0,0,1,0,.28.79.79,0,0,1,0,.27h-2.49a1.19,1.19,0,0,1,0-.29,1,1,0,0,1,0-.26l1.79-2.43h-1.68a1,1,0,0,1,0-.29.79.79,0,0,1,0-.27h2.38a.67.67,0,0,1,0,.27.88.88,0,0,1,0,.29l-1.78,2.43Z"/><path class="cls-2" d="M197.52,41a1.18,1.18,0,0,1-.34,0,1,1,0,0,1-.33,0V38.56c0-.37-.2-.59-.63-.59a.91.91,0,0,0-.76.43V41a1.18,1.18,0,0,1-.34,0,1,1,0,0,1-.33,0V37.54a.81.81,0,0,1,.33,0,1,1,0,0,1,.34,0v.31a1.28,1.28,0,0,1,1-.42,1,1,0,0,1,1,1Z"/><path class="cls-2" d="M200.09,41.55c-.25.74-.48,1.17-1.21,1.17a1,1,0,0,1-.37-.07.82.82,0,0,1,0-.25.56.56,0,0,1,.06-.27,1.75,1.75,0,0,0,.3,0c.3,0,.46-.08.66-.72l.14-.41a.52.52,0,0,1-.21,0l-1.28-3.45a1.06,1.06,0,0,1,.35,0,1,1,0,0,1,.35,0l.76,2.05a6.52,6.52,0,0,1,.24.78h0a7.6,7.6,0,0,1,.21-.78l.67-2.05a.87.87,0,0,1,.33,0,.88.88,0,0,1,.31,0Z"/><path class="cls-2" d="M204.21,37.86a1.1,1.1,0,0,1,1-.43c.77,0,1.27.46,1.27,1.83s-.5,1.84-1.27,1.84a1.08,1.08,0,0,1-1-.44V41a1.1,1.1,0,0,1-.34,0,1.06,1.06,0,0,1-.33,0V36a1.06,1.06,0,0,1,.33,0,1.1,1.1,0,0,1,.34,0ZM205,38a.77.77,0,0,0-.74.85v.86a.78.78,0,0,0,.74.86c.54,0,.81-.28.81-1.29S205.49,38,205,38Z"/><path class="cls-2" d="M208,36a1.06,1.06,0,0,1,.33,0v1.85l.47-.26s.06,0,.14.15A.46.46,0,0,1,209,38l-.68.4V41a1.06,1.06,0,0,1-.33,0,1,1,0,0,1-.34,0V38.77l-.45.25a.53.53,0,0,1-.13-.15.59.59,0,0,1-.08-.21l.66-.38V36A1,1,0,0,1,208,36Z"/><path class="cls-2" d="M210.94,37.43c.93,0,1.49.5,1.49,1.83s-.57,1.84-1.49,1.84-1.5-.5-1.5-1.84S210,37.43,210.94,37.43Zm0,.51c-.49,0-.81.29-.81,1.32s.32,1.32.81,1.32.8-.28.8-1.32S211.43,37.94,210.94,37.94Z"/><path class="cls-2" d="M216,41a1.06,1.06,0,0,1-.33,0,1.1,1.1,0,0,1-.34,0V38.56c0-.37-.19-.59-.62-.59a.94.94,0,0,0-.77.43V41a1.14,1.14,0,0,1-.33,0,1,1,0,0,1-.34,0V37.54a.84.84,0,0,1,.34,0,.93.93,0,0,1,.33,0v.31a1.31,1.31,0,0,1,1-.42,1,1,0,0,1,1,1Z"/><path class="cls-2" d="M218.56,41.55c-.24.74-.48,1.17-1.2,1.17a.89.89,0,0,1-.37-.07.82.82,0,0,1-.05-.25.85.85,0,0,1,.05-.27,1.79,1.79,0,0,0,.31,0c.3,0,.45-.08.65-.72l.15-.41a.57.57,0,0,1-.22,0l-1.28-3.45a1.06,1.06,0,0,1,.35,0,1,1,0,0,1,.35,0l.77,2.05a5.34,5.34,0,0,1,.23.78h0s.07-.31.22-.78l.66-2.05a.87.87,0,0,1,.33,0,.9.9,0,0,1,.32,0Z"/><path class="cls-2" d="M223.13,37.43a1.93,1.93,0,0,1,1,.18.68.68,0,0,1-.18.48,2.4,2.4,0,0,0-.7-.11c-.46,0-.69.17-.69.48s.38.41.79.53.95.34.95,1-.42,1.08-1.28,1.08a2.42,2.42,0,0,1-1.12-.24.68.68,0,0,1,.18-.5,2.87,2.87,0,0,0,.91.17c.41,0,.65-.16.65-.49s-.38-.45-.79-.57-.94-.32-.94-1S222.27,37.43,223.13,37.43ZM222.9,37a.56.56,0,0,1-.38-.21l.64-.95a.68.68,0,0,1,.58.25Z"/><path class="cls-2" d="M225.71,41a1.06,1.06,0,0,1-.33,0,1,1,0,0,1-.34,0V36a1,1,0,0,1,.34,0,1.06,1.06,0,0,1,.33,0Z"/><path class="cls-2" d="M226.69,37.54a1,1,0,0,1,.34,0,.9.9,0,0,1,.34,0V40a.54.54,0,0,0,.62.6.91.91,0,0,0,.76-.44V37.54a1,1,0,0,1,.34,0,.81.81,0,0,1,.33,0V41a1,1,0,0,1-.33,0,1.18,1.18,0,0,1-.34,0v-.31a1.33,1.33,0,0,1-1,.42,1,1,0,0,1-1.05-1Z"/><path class="cls-2" d="M232.71,40.48a.82.82,0,0,1,0,.28.79.79,0,0,1,0,.27h-2.5a1.19,1.19,0,0,1,0-.29,1,1,0,0,1,0-.26L232,38.05h-1.67a1,1,0,0,1,0-.29.79.79,0,0,1,0-.27h2.38a.67.67,0,0,1,0,.27.88.88,0,0,1,0,.29l-1.78,2.43Z"/><path class="cls-2" d="M234.89,37.43c.93,0,1.5.5,1.5,1.83s-.57,1.84-1.5,1.84-1.49-.5-1.49-1.84S234,37.43,234.89,37.43Zm0,.51c-.49,0-.8.29-.8,1.32s.31,1.32.8,1.32.8-.28.8-1.32S235.38,37.94,234.89,37.94Z"/><path class="cls-2" d="M239.61,39.16a5.74,5.74,0,0,1-.18-1h0a5.08,5.08,0,0,1-.19,1L238.69,41a1.51,1.51,0,0,1-.39,0,1.61,1.61,0,0,1-.39,0l-1-3.45a.93.93,0,0,1,.33,0c.23,0,.29,0,.29,0l.64,2.15a3.94,3.94,0,0,1,.14.66h0a5.41,5.41,0,0,1,.15-.66l.62-2.15a1.34,1.34,0,0,1,.36,0,.87.87,0,0,1,.33,0l.6,2.13a4.52,4.52,0,0,1,.14.68h0a5.32,5.32,0,0,1,.16-.67l.64-2.14a.7.7,0,0,1,.29,0,.6.6,0,0,1,.29,0l-1,3.45a1.61,1.61,0,0,1-.39,0,1.67,1.67,0,0,1-.39,0Z"/><path class="cls-2" d="M243.12,39.47c.06.8.38,1.06.94,1.06a1.57,1.57,0,0,0,.79-.2.68.68,0,0,1,.22.49,2,2,0,0,1-1.12.28c-1,0-1.52-.64-1.52-1.86s.6-1.81,1.5-1.81a1.21,1.21,0,0,1,1.33,1.35,2.66,2.66,0,0,1-.08.69Zm.81-1.51c-.44,0-.75.29-.81,1h1.45c0-.05,0-.16,0-.3C244.59,38.29,244.42,38,243.93,38Z"/><path class="cls-2" d="M246.06,37.54a.84.84,0,0,1,.34,0,1,1,0,0,1,.34,0v4.08c0,.72-.35,1.1-1,1.1a1.48,1.48,0,0,1-.45-.06.65.65,0,0,1,0-.16.63.63,0,0,1,.07-.34,1.35,1.35,0,0,0,.24,0c.31,0,.46-.16.46-.53Zm.69-.73a1.22,1.22,0,0,1-.35,0,1.14,1.14,0,0,1-.35,0v-.64a1.14,1.14,0,0,1,.35,0,1.22,1.22,0,0,1,.35,0Z"/><path class="cls-2" d="M249.26,37.54a.84.84,0,0,1,.34,0,.87.87,0,0,1,.33,0v4.08c0,.72-.34,1.1-1,1.1a1.48,1.48,0,0,1-.45-.06.65.65,0,0,1,0-.16.71.71,0,0,1,.06-.34,1.55,1.55,0,0,0,.25,0c.31,0,.46-.16.46-.53Zm.69-.73a1.22,1.22,0,0,1-.35,0,1.14,1.14,0,0,1-.35,0v-.64a1.14,1.14,0,0,1,.35,0,1.22,1.22,0,0,1,.35,0Z"/><path class="cls-2" d="M252.16,37.43c1,0,1.28.43,1.28,1.3V41a.58.58,0,0,1-.26,0,.79.79,0,0,1-.27,0l-.1-.43a1.1,1.1,0,0,1-1.06.54,1,1,0,0,1-1-1.12c0-.74.45-1.06,1.29-1.06a7.47,7.47,0,0,1,.77,0v-.25c0-.46-.18-.72-.69-.72a2.79,2.79,0,0,0-.91.17A.77.77,0,0,1,251,38a.58.58,0,0,1,0-.28A2.89,2.89,0,0,1,252.16,37.43Zm-.07,2c-.45,0-.69.17-.69.6a.52.52,0,0,0,.59.6c.53,0,.78-.45.78-.93v-.23A6.07,6.07,0,0,0,252.09,39.38Z"/><path class="cls-2" d="M258,37.43a.94.94,0,0,1,1,1V41a1.18,1.18,0,0,1-.34,0,1,1,0,0,1-.34,0V38.56a.52.52,0,0,0-.58-.59.84.84,0,0,0-.72.43V41a1.14,1.14,0,0,1-.33,0,1,1,0,0,1-.34,0V38.56a.52.52,0,0,0-.58-.59.87.87,0,0,0-.72.43V41a1.14,1.14,0,0,1-.33,0,1,1,0,0,1-.34,0V37.54a.84.84,0,0,1,.34,0,.93.93,0,0,1,.33,0v.3a1.25,1.25,0,0,1,1-.41.89.89,0,0,1,.87.49A1.36,1.36,0,0,1,258,37.43Z"/><path class="cls-2" d="M261.59,41.55c-.25.74-.48,1.17-1.21,1.17a1,1,0,0,1-.37-.07.82.82,0,0,1-.05-.25.56.56,0,0,1,.06-.27,1.75,1.75,0,0,0,.3,0c.3,0,.46-.08.66-.72l.14-.41a.52.52,0,0,1-.21,0l-1.28-3.45a1.06,1.06,0,0,1,.35,0,1,1,0,0,1,.35,0l.76,2.05a6.52,6.52,0,0,1,.24.78h0a7.6,7.6,0,0,1,.21-.78l.67-2.05a.87.87,0,0,1,.33,0,.88.88,0,0,1,.31,0Z"/><path class="cls-2" d="M265,37.54a1,1,0,0,1,.34,0,.9.9,0,0,1,.34,0V40a.54.54,0,0,0,.62.6.91.91,0,0,0,.76-.44V37.54a1,1,0,0,1,.34,0,.84.84,0,0,1,.34,0V41a1,1,0,0,1-.34,0,1.27,1.27,0,0,1-.34,0v-.31a1.31,1.31,0,0,1-1,.42,1,1,0,0,1-1.05-1Z"/><path class="cls-2" d="M269.84,37.43a1.93,1.93,0,0,1,1,.18.72.72,0,0,1-.17.48,2.52,2.52,0,0,0-.71-.11c-.46,0-.69.17-.69.48s.43.41.85.55.9.35.9,1-.43,1.08-1.28,1.08a2.37,2.37,0,0,1-1.12-.24.68.68,0,0,1,.18-.5,2.79,2.79,0,0,0,.91.17c.41,0,.64-.16.64-.49s-.37-.45-.77-.56-.95-.33-.95-1S269,37.43,269.84,37.43Z"/><path class="cls-2" d="M272.64,39.76c0,.61.19.8.67.8a1.53,1.53,0,0,0,.28,0,.71.71,0,0,1,.05.27.83.83,0,0,1,0,.24,2.11,2.11,0,0,1-.49.06c-.82,0-1.15-.45-1.15-1.31V38h-.52a.73.73,0,0,1,0-.25.7.7,0,0,1,0-.26H272v-.61a1.11,1.11,0,0,1,.67-.13v.74h.87a.67.67,0,0,1,0,.25.76.76,0,0,1,0,.26h-.87Z"/><path class="cls-2" d="M277,41a1.06,1.06,0,0,1-.33,0,1.1,1.1,0,0,1-.34,0V38.56c0-.37-.2-.59-.63-.59a.93.93,0,0,0-.76.43V41a1.14,1.14,0,0,1-.33,0,1,1,0,0,1-.34,0V37.54a.84.84,0,0,1,.34,0,.93.93,0,0,1,.33,0v.31a1.28,1.28,0,0,1,1-.42,1,1,0,0,1,1,1Z"/><path class="cls-2" d="M278.53,39.47c.05.8.37,1.06.93,1.06a1.57,1.57,0,0,0,.79-.2.68.68,0,0,1,.22.49,2,2,0,0,1-1.12.28c-1,0-1.52-.64-1.52-1.86s.6-1.81,1.5-1.81a1.21,1.21,0,0,1,1.33,1.35,2.66,2.66,0,0,1-.08.69Zm.8-1.51c-.44,0-.75.29-.8,1H280c0-.05,0-.16,0-.3C280,38.29,279.82,38,279.33,38Z"/><path class="cls-2" d="M281.46,37.54a.84.84,0,0,1,.34,0,1,1,0,0,1,.34,0v4.08c0,.72-.35,1.1-1,1.1a1.48,1.48,0,0,1-.45-.06.65.65,0,0,1,0-.16.63.63,0,0,1,.07-.34,1.35,1.35,0,0,0,.24,0c.31,0,.46-.16.46-.53Zm.69-.73a1.22,1.22,0,0,1-.35,0,1.14,1.14,0,0,1-.35,0v-.64a1.14,1.14,0,0,1,.35,0,1.22,1.22,0,0,1,.35,0Z"/><path class="cls-2" d="M287,39.16a5.74,5.74,0,0,1-.18-1h0a4.22,4.22,0,0,1-.18,1L286.12,41a1.51,1.51,0,0,1-.39,0,1.61,1.61,0,0,1-.39,0l-1-3.45a.93.93,0,0,1,.33,0c.23,0,.29,0,.29,0l.64,2.15a3.94,3.94,0,0,1,.14.66h0a5.41,5.41,0,0,1,.15-.66l.62-2.15a1.34,1.34,0,0,1,.36,0,.87.87,0,0,1,.33,0l.6,2.13a4.52,4.52,0,0,1,.14.68h0a5.32,5.32,0,0,1,.16-.67l.64-2.14a.7.7,0,0,1,.29,0,.6.6,0,0,1,.29,0l-1,3.45a1.92,1.92,0,0,1-.78,0Z"/><path class="cls-2" d="M291.62,41.55c-.24.74-.48,1.17-1.21,1.17a1,1,0,0,1-.37-.07,1,1,0,0,1,0-.25.62.62,0,0,1,.05-.27,1.75,1.75,0,0,0,.3,0c.31,0,.46-.08.66-.72l.14-.41a.56.56,0,0,1-.21,0l-1.28-3.45a1.06,1.06,0,0,1,.35,0,1,1,0,0,1,.35,0l.77,2.05a7.54,7.54,0,0,1,.23.78h0s.07-.31.21-.78l.67-2.05a.87.87,0,0,1,.33,0,.9.9,0,0,1,.32,0Z"/><path class="cls-2" d="M295.05,37.43a1.11,1.11,0,0,1,.59.17.79.79,0,0,1-.3.57.64.64,0,0,0-.41-.14.87.87,0,0,0-.7.51V41a1.06,1.06,0,0,1-.33,0,1,1,0,0,1-.34,0V37.54a.84.84,0,0,1,.34,0,.87.87,0,0,1,.33,0V38A1,1,0,0,1,295.05,37.43Z"/><path class="cls-2" d="M297.44,37.43c1,0,1.28.43,1.28,1.3V41a.58.58,0,0,1-.26,0,.79.79,0,0,1-.27,0l-.1-.43a1.1,1.1,0,0,1-1.06.54A1,1,0,0,1,296,40c0-.74.45-1.06,1.29-1.06a7.31,7.31,0,0,1,.77,0v-.25c0-.46-.18-.72-.69-.72a2.87,2.87,0,0,0-.91.17.77.77,0,0,1-.15-.2.58.58,0,0,1,0-.28A2.89,2.89,0,0,1,297.44,37.43Zm-.07,2c-.45,0-.69.17-.69.6a.53.53,0,0,0,.59.6c.53,0,.78-.45.78-.93v-.23A5.77,5.77,0,0,0,297.37,39.38Z"/><path class="cls-2" d="M302,40.48a.82.82,0,0,1,0,.28.79.79,0,0,1,0,.27h-2.49a1.19,1.19,0,0,1,0-.29,1,1,0,0,1,0-.26l1.79-2.43H299.6a1,1,0,0,1,0-.29.79.79,0,0,1,0-.27H302a.67.67,0,0,1,0,.27.88.88,0,0,1,0,.29l-1.78,2.43Zm-.82-3.65a1.14,1.14,0,0,1-.33,0,1,1,0,0,1-.32,0v-.58a1,1,0,0,1,.32,0,1.14,1.14,0,0,1,.33,0Z"/><path class="cls-2" d="M304.17,37.43c.92,0,1.49.5,1.49,1.83s-.57,1.84-1.49,1.84-1.5-.5-1.5-1.84S303.24,37.43,304.17,37.43Zm0,.51c-.5,0-.81.29-.81,1.32s.31,1.32.81,1.32.8-.28.8-1.32S304.66,37.94,304.17,37.94Z"/><path class="cls-2" d="M309.22,41a1.06,1.06,0,0,1-.33,0,1.1,1.1,0,0,1-.34,0V38.56c0-.37-.19-.59-.63-.59a.93.93,0,0,0-.76.43V41a1.14,1.14,0,0,1-.33,0,1,1,0,0,1-.34,0V37.54a.84.84,0,0,1,.34,0,.93.93,0,0,1,.33,0v.31a1.31,1.31,0,0,1,1-.42,1,1,0,0,1,1,1Z"/><path class="cls-2" d="M311.79,41.55c-.24.74-.48,1.17-1.2,1.17a.89.89,0,0,1-.37-.07.82.82,0,0,1-.05-.25.85.85,0,0,1,.05-.27,1.79,1.79,0,0,0,.31,0c.3,0,.45-.08.66-.72l.14-.41a.6.6,0,0,1-.22,0l-1.28-3.45a1.06,1.06,0,0,1,.35,0,1,1,0,0,1,.35,0l.77,2.05a6.52,6.52,0,0,1,.24.78h0s.07-.31.22-.78l.66-2.05a.87.87,0,0,1,.33,0,.9.9,0,0,1,.32,0Z"/><path class="cls-2" d="M49.08,47.24a4.25,4.25,0,0,1-.18-1h0a3.88,3.88,0,0,1-.19,1l-.53,1.83a1.4,1.4,0,0,1-.38,0,1.54,1.54,0,0,1-.39,0l-1-3.45a1.18,1.18,0,0,1,.34,0,.61.61,0,0,1,.29,0l.64,2.15a5.34,5.34,0,0,1,.14.66h0a5.86,5.86,0,0,1,.15-.66l.62-2.15a1.65,1.65,0,0,1,.36,0,1.06,1.06,0,0,1,.33,0l.6,2.14a3.93,3.93,0,0,1,.13.67h0c0-.14.08-.36.17-.67l.63-2.14a1,1,0,0,1,.3,0,.72.72,0,0,1,.29,0l-1,3.45a1.52,1.52,0,0,1-.38,0,1.67,1.67,0,0,1-.39,0Z"/><path class="cls-2" d="M54.68,45.51a1.93,1.93,0,0,1,1,.18.66.66,0,0,1-.18.48,2.4,2.4,0,0,0-.7-.11c-.46,0-.69.17-.69.48s.42.42.85.56.89.35.89,1-.42,1.07-1.28,1.07a2.42,2.42,0,0,1-1.12-.24.71.71,0,0,1,.18-.5,2.87,2.87,0,0,0,.91.17c.41,0,.65-.15.65-.48s-.37-.46-.77-.57-1-.33-1-1S53.82,45.51,54.68,45.51Z"/><path class="cls-2" d="M57.47,47.84c0,.62.2.8.68.8a1.69,1.69,0,0,0,.28,0,.71.71,0,0,1,0,.27.64.64,0,0,1,0,.24,1.65,1.65,0,0,1-.48.06c-.83,0-1.16-.45-1.16-1.3v-1.8h-.52a.67.67,0,0,1,0-.25.61.61,0,0,1,0-.25h.52V45a1.21,1.21,0,0,1,.67-.13v.75h.88a.58.58,0,0,1,0,.24.76.76,0,0,1,0,.26h-.88Z"/><path class="cls-2" d="M60.46,45.51c.93,0,1.5.5,1.5,1.84s-.57,1.83-1.5,1.83S59,48.68,59,47.35,59.54,45.51,60.46,45.51Zm0,.52c-.49,0-.8.28-.8,1.32s.31,1.31.8,1.31.8-.28.8-1.31S61,46,60.46,46Z"/><path class="cls-2" d="M64.43,45.51c.77,0,1.27.46,1.27,1.84s-.5,1.83-1.27,1.83a1.09,1.09,0,0,1-1-.43v1.88a1.1,1.1,0,0,1-.34,0,1.06,1.06,0,0,1-.33,0v-5a1.06,1.06,0,0,1,.33,0,1.1,1.1,0,0,1,.34,0V46A1.07,1.07,0,0,1,64.43,45.51Zm-.23.55a.76.76,0,0,0-.74.85v.86a.77.77,0,0,0,.74.86c.53,0,.8-.28.8-1.28S64.73,46.06,64.2,46.06Z"/><path class="cls-2" d="M69.27,49.07a.87.87,0,0,1-.33,0,.9.9,0,0,1-.34,0V46.65a.55.55,0,0,0-.63-.6.93.93,0,0,0-.76.43v2.59a.93.93,0,0,1-.33,0,.84.84,0,0,1-.34,0V45.62a1,1,0,0,1,.34,0,1.14,1.14,0,0,1,.33,0v.31a1.32,1.32,0,0,1,1-.42,1,1,0,0,1,1,1Z"/><path class="cls-2" d="M70.94,44.9a1.22,1.22,0,0,1-.35,0,1.14,1.14,0,0,1-.35,0v-.64a1.14,1.14,0,0,1,.35,0,1.22,1.22,0,0,1,.35,0Zm0,4.17a.87.87,0,0,1-.33,0,.84.84,0,0,1-.34,0V45.62a1,1,0,0,1,.34,0,1.06,1.06,0,0,1,.33,0Z"/><path class="cls-2" d="M73.15,45.51c1,0,1.28.44,1.28,1.3v2.26a.48.48,0,0,1-.26,0,.65.65,0,0,1-.27,0l-.1-.43a1.1,1.1,0,0,1-1.06.54,1,1,0,0,1-1-1.12c0-.73.45-1.06,1.29-1.06a7.47,7.47,0,0,1,.77,0v-.25c0-.45-.18-.72-.69-.72a2.79,2.79,0,0,0-.91.17A.59.59,0,0,1,72,46a.58.58,0,0,1,0-.28A2.89,2.89,0,0,1,73.15,45.51Zm-.07,2c-.45,0-.69.17-.69.6a.52.52,0,0,0,.59.6.82.82,0,0,0,.78-.92V47.5C73.6,47.49,73.33,47.46,73.08,47.46Z"/><path class="cls-2" d="M75.93,47.35c0,.88.28,1.26.93,1.26a1.77,1.77,0,0,0,.63-.11.73.73,0,0,1,.2.48,1.86,1.86,0,0,1-1,.2c-1,0-1.48-.64-1.48-1.83s.49-1.84,1.48-1.84a1.77,1.77,0,0,1,.9.17.68.68,0,0,1-.2.48,1.61,1.61,0,0,0-.59-.1C76.18,46.06,75.93,46.47,75.93,47.35Z"/><path class="cls-2" d="M81.13,49.07a.87.87,0,0,1-.33,0,.9.9,0,0,1-.34,0V46.65c0-.38-.19-.6-.63-.6a.93.93,0,0,0-.76.43v2.59a.93.93,0,0,1-.33,0,.84.84,0,0,1-.34,0v-5a.84.84,0,0,1,.34,0,.93.93,0,0,1,.33,0v1.81a1.35,1.35,0,0,1,1-.42,1,1,0,0,1,1,1Z"/><path class="cls-2" d="M84.72,45.51a1.93,1.93,0,0,1,1,.18.7.7,0,0,1-.17.48,2.43,2.43,0,0,0-.71-.11c-.46,0-.68.17-.68.48s.42.42.84.56.9.35.9,1-.43,1.07-1.28,1.07a2.37,2.37,0,0,1-1.12-.24.71.71,0,0,1,.18-.5,2.87,2.87,0,0,0,.91.17c.41,0,.64-.15.64-.48s-.37-.46-.77-.57-1-.33-1-1S83.87,45.51,84.72,45.51Z"/><path class="cls-2" d="M87.52,47.84c0,.62.19.8.67.8a1.72,1.72,0,0,0,.29,0,.87.87,0,0,1,0,.27.83.83,0,0,1,0,.24,1.68,1.68,0,0,1-.49.06c-.82,0-1.15-.45-1.15-1.3v-1.8h-.52a.67.67,0,0,1,0-.25.61.61,0,0,1,0-.25h.52V45a1.19,1.19,0,0,1,.67-.13v.75h.87a.58.58,0,0,1,0,.24.76.76,0,0,1,0,.26h-.87Z"/><path class="cls-2" d="M90.51,45.51c.93,0,1.49.5,1.49,1.84s-.57,1.83-1.49,1.83S89,48.68,89,47.35,89.59,45.51,90.51,45.51Zm0,.52c-.49,0-.81.28-.81,1.32s.32,1.31.81,1.31.8-.28.8-1.31S91,46,90.51,46Z"/><path class="cls-2" d="M96.45,45.51a.93.93,0,0,1,1,1v2.55a.9.9,0,0,1-.34,0,.81.81,0,0,1-.33,0V46.65a.53.53,0,0,0-.59-.6.87.87,0,0,0-.72.43v2.59a.87.87,0,0,1-.33,0,.81.81,0,0,1-.33,0V46.65a.53.53,0,0,0-.59-.6.89.89,0,0,0-.72.43v2.59a.87.87,0,0,1-.33,0,.9.9,0,0,1-.34,0V45.62a1.1,1.1,0,0,1,.34,0,1.06,1.06,0,0,1,.33,0v.31a1.27,1.27,0,0,1,1-.42.89.89,0,0,1,.87.49A1.37,1.37,0,0,1,96.45,45.51Z"/><path class="cls-2" d="M99.64,45.51c1,0,1.29.44,1.29,1.3v2.26a.55.55,0,0,1-.27,0,.63.63,0,0,1-.26,0l-.1-.43a1.1,1.1,0,0,1-1.06.54,1,1,0,0,1-1-1.12c0-.73.45-1.06,1.29-1.06a7.09,7.09,0,0,1,.76,0v-.25c0-.45-.17-.72-.69-.72a2.77,2.77,0,0,0-.9.17.4.4,0,0,1-.15-.2.67.67,0,0,1-.05-.28A3,3,0,0,1,99.64,45.51Zm-.06,2c-.46,0-.69.17-.69.6s.22.6.58.6c.54,0,.78-.45.78-.92V47.5C100.1,47.49,99.83,47.46,99.58,47.46Z"/><path class="cls-2" d="M102.79,47.84c0,.62.19.8.67.8a1.53,1.53,0,0,0,.28,0,.71.71,0,0,1,.05.27.83.83,0,0,1,0,.24,1.73,1.73,0,0,1-.49.06c-.82,0-1.15-.45-1.15-1.3v-1.8h-.52a.67.67,0,0,1,0-.25.61.61,0,0,1,0-.25h.52V45a1.19,1.19,0,0,1,.67-.13v.75h.87a.58.58,0,0,1,0,.24.76.76,0,0,1,0,.26h-.87Z"/><path class="cls-2" d="M105.78,45.51c.93,0,1.49.5,1.49,1.84s-.57,1.83-1.49,1.83-1.49-.5-1.49-1.83S104.86,45.51,105.78,45.51Zm0,.52c-.49,0-.81.28-.81,1.32s.32,1.31.81,1.31.8-.28.8-1.31S106.27,46,105.78,46Z"/><path class="cls-2" d="M109.75,45.51c.76,0,1.26.46,1.26,1.84s-.5,1.83-1.26,1.83a1.08,1.08,0,0,1-1-.43v1.88a1.22,1.22,0,0,1-.35,0,1.06,1.06,0,0,1-.33,0v-5a1.06,1.06,0,0,1,.33,0,1.22,1.22,0,0,1,.35,0V46A1.06,1.06,0,0,1,109.75,45.51Zm-.24.55a.76.76,0,0,0-.73.85v.86a.77.77,0,0,0,.73.86c.54,0,.81-.28.81-1.28S110.05,46.06,109.51,46.06Z"/><path class="cls-2" d="M113.08,45.51c1,0,1.29.44,1.29,1.3v2.26a.55.55,0,0,1-.27,0,.65.65,0,0,1-.27,0l-.1-.43a1.08,1.08,0,0,1-1,.54,1,1,0,0,1-1.05-1.12c0-.73.45-1.06,1.3-1.06a7.09,7.09,0,0,1,.76,0v-.25c0-.45-.17-.72-.69-.72a2.77,2.77,0,0,0-.9.17.45.45,0,0,1-.16-.2.58.58,0,0,1,0-.28A3,3,0,0,1,113.08,45.51Zm-.07,2c-.45,0-.68.17-.68.6s.22.6.58.6a.82.82,0,0,0,.78-.92V47.5C113.54,47.49,113.27,47.46,113,47.46Z"/><path class="cls-2" d="M116.23,47.84c0,.62.19.8.67.8a1.69,1.69,0,0,0,.28,0,.71.71,0,0,1,0,.27.83.83,0,0,1,0,.24,1.77,1.77,0,0,1-.49.06c-.83,0-1.16-.45-1.16-1.3v-1.8H115a.55.55,0,0,1-.05-.25.5.5,0,0,1,.05-.25h.51V45a1.24,1.24,0,0,1,.68-.13v.75h.87a.58.58,0,0,1,0,.24.76.76,0,0,1,0,.26h-.87Z"/><path class="cls-2" d="M118.58,44.9a1.22,1.22,0,0,1-.35,0,1.06,1.06,0,0,1-.35,0v-.64a1.06,1.06,0,0,1,.35,0,1.22,1.22,0,0,1,.35,0Zm0,4.17a.87.87,0,0,1-.33,0,.84.84,0,0,1-.34,0V45.62a1,1,0,0,1,.34,0,1.06,1.06,0,0,1,.33,0Z"/><path class="cls-2" d="M120.26,44.9a1.22,1.22,0,0,1-.35,0,1.14,1.14,0,0,1-.35,0v-.64a1.14,1.14,0,0,1,.35,0,1.22,1.22,0,0,1,.35,0Zm0,4.17a1,1,0,0,1-.34,0,.84.84,0,0,1-.34,0V45.62a1,1,0,0,1,.34,0,1.18,1.18,0,0,1,.34,0Z"/><path class="cls-2" d="M124.4,45.51c.77,0,1.27.46,1.27,1.84s-.5,1.83-1.27,1.83a1.09,1.09,0,0,1-1-.43v1.88a1.1,1.1,0,0,1-.34,0,1.06,1.06,0,0,1-.33,0v-5a1.06,1.06,0,0,1,.33,0,1.1,1.1,0,0,1,.34,0V46A1.07,1.07,0,0,1,124.4,45.51Zm-.23.55a.77.77,0,0,0-.74.85v.86a.78.78,0,0,0,.74.86c.53,0,.8-.28.8-1.28S124.7,46.06,124.17,46.06Z"/><path class="cls-2" d="M128,45.52a1.1,1.1,0,0,1,.58.16.74.74,0,0,1-.3.57.62.62,0,0,0-.41-.14.89.89,0,0,0-.7.51v2.45a.87.87,0,0,1-.33,0,.84.84,0,0,1-.34,0V45.62a1,1,0,0,1,.34,0,1.06,1.06,0,0,1,.33,0v.47A1,1,0,0,1,128,45.52Z"/><path class="cls-2" d="M130.5,45.51c.93,0,1.5.5,1.5,1.84s-.57,1.83-1.5,1.83-1.49-.5-1.49-1.83S129.58,45.51,130.5,45.51Zm0,.52c-.49,0-.8.28-.8,1.32s.31,1.31.8,1.31.8-.28.8-1.31S131,46,130.5,46Z"/><path class="cls-2" d="M133.73,47.84c0,.62.2.8.67.8a1.72,1.72,0,0,0,.29,0,.87.87,0,0,1,0,.27.83.83,0,0,1,0,.24,1.68,1.68,0,0,1-.49.06c-.82,0-1.15-.45-1.15-1.3v-1.8h-.52a.67.67,0,0,1,0-.25.61.61,0,0,1,0-.25h.52V45a1.19,1.19,0,0,1,.67-.13v.75h.88a.58.58,0,0,1,0,.24.76.76,0,0,1,0,.26h-.88Z"/><path class="cls-2" d="M135.92,47.55c.05.8.38,1.06.94,1.06a1.68,1.68,0,0,0,.79-.19.7.7,0,0,1,.22.48,2,2,0,0,1-1.12.28c-1,0-1.52-.64-1.52-1.85s.6-1.82,1.49-1.82a1.21,1.21,0,0,1,1.33,1.35,2.92,2.92,0,0,1-.07.69Zm.8-1.51c-.44,0-.75.29-.8,1h1.44a2,2,0,0,0,0-.31C137.38,46.38,137.22,46,136.72,46Z"/><path class="cls-2" d="M139.75,47.84c0,.62.19.8.67.8a1.69,1.69,0,0,0,.28,0,.71.71,0,0,1,.05.27.64.64,0,0,1,0,.24,1.65,1.65,0,0,1-.48.06c-.83,0-1.16-.45-1.16-1.3v-1.8h-.52a.67.67,0,0,1,0-.25.61.61,0,0,1,0-.25h.52V45a1.24,1.24,0,0,1,.68-.13v.75h.87a.58.58,0,0,1,0,.24.76.76,0,0,1,0,.26h-.87Z"/><path class="cls-2" d="M143,49.63c-.24.74-.48,1.17-1.21,1.17a1,1,0,0,1-.37-.07.9.9,0,0,1,0-.25.62.62,0,0,1,.05-.27,1.75,1.75,0,0,0,.3,0c.31,0,.46-.08.66-.71l.14-.41a.91.91,0,0,1-.21,0L141,45.62a1.3,1.3,0,0,1,.35,0,1.22,1.22,0,0,1,.35,0l.77,2.05a7.25,7.25,0,0,1,.23.79h0s.07-.32.21-.79l.67-2.05a1.06,1.06,0,0,1,.33,0,1.11,1.11,0,0,1,.32,0Z"/><path class="cls-2" d="M145.48,47.35c0,.88.28,1.26.93,1.26a1.77,1.77,0,0,0,.63-.11.68.68,0,0,1,.19.48,1.82,1.82,0,0,1-1,.2c-1,0-1.47-.64-1.47-1.83s.49-1.84,1.47-1.84a1.79,1.79,0,0,1,.91.17.68.68,0,0,1-.2.48,1.61,1.61,0,0,0-.59-.1C145.73,46.06,145.48,46.47,145.48,47.35Z"/><path class="cls-2" d="M150.25,48.56a.82.82,0,0,1,0,.28.9.9,0,0,1,0,.28h-2.5a2.54,2.54,0,0,1,0-.29,1.56,1.56,0,0,1,0-.27l1.79-2.43h-1.67a1,1,0,0,1,0-.29.7.7,0,0,1,0-.26h2.38a.62.62,0,0,1,0,.26.85.85,0,0,1,0,.29l-1.78,2.43Z"/><path class="cls-2" d="M153.83,49.07a1,1,0,0,1-.34,0,.9.9,0,0,1-.34,0V46.65a.54.54,0,0,0-.62-.6.91.91,0,0,0-.76.43v2.59a1,1,0,0,1-.34,0,.9.9,0,0,1-.34,0V45.62a1.1,1.1,0,0,1,.34,0,1.18,1.18,0,0,1,.34,0v.31a1.31,1.31,0,0,1,1-.42,1,1,0,0,1,1.05,1Z"/><path class="cls-2" d="M155.33,47.55c0,.8.38,1.06.94,1.06a1.68,1.68,0,0,0,.79-.19.7.7,0,0,1,.22.48,2,2,0,0,1-1.12.28c-1,0-1.52-.64-1.52-1.85s.6-1.82,1.49-1.82a1.21,1.21,0,0,1,1.33,1.35,2.92,2.92,0,0,1-.07.69Zm.8-1.51c-.44,0-.75.29-.8,1h1.44a2,2,0,0,0,0-.31C156.79,46.38,156.63,46,156.13,46Z"/><path class="cls-2" d="M158.27,45.62a1,1,0,0,1,.33,0,1.1,1.1,0,0,1,.34,0v4.09c0,.71-.34,1.09-1,1.09a1.51,1.51,0,0,1-.46-.06.65.65,0,0,1,0-.16.67.67,0,0,1,.07-.34,1.05,1.05,0,0,0,.25,0c.3,0,.46-.17.46-.54Zm.68-.73a1,1,0,0,1-.35,0,.93.93,0,0,1-.35,0v-.63a.93.93,0,0,1,.35,0,1,1,0,0,1,.35,0Z"/><polyline class="cls-3" points="24.9 11.62 38.46 31.7 24.9 51.84"/></svg>