<svg id="Warstwa_1" data-name="Warstwa 1" xmlns="http://www.w3.org/2000/svg" viewBox="0 0 300 60"><defs><style>.cls-1{fill:#005ca6;}.cls-2{fill:none;stroke:#ccd513;stroke-miterlimit:10;stroke-width:1.85px;}</style></defs><title>miejscowa_antyseptyka</title><path class="cls-1" d="M56.12,20.05a7,7,0,0,1,1.67.18V38.1a3.59,3.59,0,0,1-1.27.18,4,4,0,0,1-1.29-.18V30c0-2.48,0-5.24.15-6.76h-.12A39,39,0,0,1,53,28.33L50,33.9a2.34,2.34,0,0,1-.78.13,1.55,1.55,0,0,1-.71-.13l-2.91-5.47a38.08,38.08,0,0,1-2.31-5.19h-.1a43.16,43.16,0,0,1,.26,6.38V38.1a3.31,3.31,0,0,1-1.22.18,3.21,3.21,0,0,1-1.14-.18V20.23a6,6,0,0,1,1.55-.18,7.63,7.63,0,0,1,1.54.18l3.34,6.33a30.33,30.33,0,0,1,1.75,3.92h.1a17.43,17.43,0,0,1,.94-2.25c1.41-2.66,2.78-5.31,4.12-8A8.78,8.78,0,0,1,56.12,20.05Z"/><path class="cls-1" d="M64.25,22.41a4,4,0,0,1-1.32.18,3.51,3.51,0,0,1-1.31-.18V20a3.51,3.51,0,0,1,1.31-.18,4,4,0,0,1,1.32.18Zm0,15.69a3.59,3.59,0,0,1-1.27.18,3.24,3.24,0,0,1-1.26-.18v-13A3.41,3.41,0,0,1,62.93,25a3.78,3.78,0,0,1,1.27.17Z"/><path class="cls-1" d="M69.74,32.41c.21,3,1.42,4,3.52,4a6.17,6.17,0,0,0,3-.73,2.65,2.65,0,0,1,.81,1.82,7.47,7.47,0,0,1-4.2,1.06c-3.9,0-5.72-2.4-5.72-7,0-4.79,2.25-6.84,5.62-6.84,3.11,0,5,1.72,5,5.09a10.83,10.83,0,0,1-.28,2.61Zm3-5.7c-1.65,0-2.81,1.09-3,3.9h5.42a7.84,7.84,0,0,0,.08-1.14C75.24,28,74.63,26.71,72.76,26.71Z"/><path class="cls-1" d="M80.53,25.14A3.41,3.41,0,0,1,81.79,25a3.78,3.78,0,0,1,1.27.17V40.51c0,2.68-1.29,4.1-3.67,4.1a5.49,5.49,0,0,1-1.7-.23,2.38,2.38,0,0,1-.07-.58,2.61,2.61,0,0,1,.25-1.29,4.4,4.4,0,0,0,.94.1c1.14,0,1.72-.61,1.72-2Zm2.58-2.76a3.88,3.88,0,0,1-1.32.18,3.51,3.51,0,0,1-1.31-.18V20a3.7,3.7,0,0,1,1.31-.17,4.09,4.09,0,0,1,1.32.17Z"/><path class="cls-1" d="M90.76,24.71a7.15,7.15,0,0,1,3.57.69,2.57,2.57,0,0,1-.66,1.79,9.54,9.54,0,0,0-2.66-.4c-1.72,0-2.58.63-2.58,1.82s1.59,1.54,3.19,2.08S95,32,95,34.48s-1.59,4.05-4.81,4.05A9,9,0,0,1,86,37.62a2.6,2.6,0,0,1,.68-1.87,10.88,10.88,0,0,0,3.42.63c1.54,0,2.43-.58,2.43-1.82,0-1.39-1.39-1.7-2.89-2.13-1.72-.5-3.59-1.24-3.59-3.74S87.54,24.71,90.76,24.71Z"/><path class="cls-1" d="M99.67,31.62c0,3.32,1.06,4.76,3.49,4.76a6.47,6.47,0,0,0,2.38-.43,2.7,2.7,0,0,1,.74,1.82,6.91,6.91,0,0,1-3.65.76c-3.69,0-5.57-2.4-5.57-6.91s1.88-6.91,5.57-6.91a6.57,6.57,0,0,1,3.39.64,2.56,2.56,0,0,1-.73,1.82,6.19,6.19,0,0,0-2.23-.38C100.63,26.79,99.67,28.33,99.67,31.62Z"/><path class="cls-1" d="M113.44,24.71c3.5,0,5.62,1.9,5.62,6.91s-2.15,6.91-5.62,6.91-5.62-1.9-5.62-6.91S110,24.71,113.44,24.71Zm0,1.95c-1.84,0-3,1.06-3,5s1.19,5,3,5,3-1.06,3-5S115.29,26.66,113.44,26.66Z"/><path class="cls-1" d="M130.76,31.24a17.57,17.57,0,0,1-.68-3.64H130a16.52,16.52,0,0,1-.71,3.64l-2,6.86a4.83,4.83,0,0,1-1.45.18,5.12,5.12,0,0,1-1.46-.18l-3.83-13A4,4,0,0,1,121.8,25a2.09,2.09,0,0,1,1.09.17l2.4,8.08a15.15,15.15,0,0,1,.53,2.48h.08a20.27,20.27,0,0,1,.56-2.48l2.33-8.08a5.54,5.54,0,0,1,1.36-.17,3.47,3.47,0,0,1,1.24.17l2.26,8a13.69,13.69,0,0,1,.5,2.53h.08a24.77,24.77,0,0,1,.63-2.51l2.38-8a3.15,3.15,0,0,1,1.11-.17,2.43,2.43,0,0,1,1.09.17l-3.82,13a5.07,5.07,0,0,1-1.44.18,5.43,5.43,0,0,1-1.47-.18Z"/><path class="cls-1" d="M146.13,24.71c3.67,0,4.84,1.65,4.84,4.91V38.1a2,2,0,0,1-1,.18,2.55,2.55,0,0,1-1-.18l-.38-1.62c-.66,1.34-2.05,2.05-4,2.05-2.38,0-3.92-1.39-3.92-4.22s1.69-4,4.86-4a28.62,28.62,0,0,1,2.88.15v-.93c0-1.72-.65-2.71-2.6-2.71a10.6,10.6,0,0,0-3.4.63,2,2,0,0,1-.73-1.82A11,11,0,0,1,146.13,24.71Zm-.25,7.34c-1.7,0-2.58.66-2.58,2.26s.83,2.27,2.2,2.27c2,0,2.93-1.69,2.93-3.49v-.88C147.85,32.15,146.84,32.05,145.88,32.05Z"/><path class="cls-1" d="M164.38,24.71c3.68,0,4.84,1.65,4.84,4.91V38.1a2,2,0,0,1-1,.18,2.55,2.55,0,0,1-1-.18l-.38-1.62c-.66,1.34-2.05,2.05-4,2.05-2.38,0-3.93-1.39-3.93-4.22s1.7-4,4.86-4c1.14,0,2.23.08,2.89.15v-.93c0-1.72-.66-2.71-2.61-2.71a10.58,10.58,0,0,0-3.39.63,1.9,1.9,0,0,1-.58-.76,2.14,2.14,0,0,1-.15-1.06A10.89,10.89,0,0,1,164.38,24.71Zm-.25,7.34c-1.69,0-2.58.66-2.58,2.26s.83,2.27,2.2,2.27c2,0,2.94-1.69,2.94-3.49v-.88C166.11,32.15,165.09,32.05,164.13,32.05Z"/><path class="cls-1" d="M182.84,38.1a3.56,3.56,0,0,1-1.26.18,3.39,3.39,0,0,1-1.27-.18V29c0-1.42-.73-2.23-2.35-2.23a3.48,3.48,0,0,0-2.87,1.62V38.1a3.7,3.7,0,0,1-1.26.18,3.27,3.27,0,0,1-1.27-.18v-13a3.44,3.44,0,0,1,1.27-.17,3.89,3.89,0,0,1,1.26.17v1.17a4.92,4.92,0,0,1,3.83-1.6,3.58,3.58,0,0,1,3.92,3.82Z"/><path class="cls-1" d="M189.6,33.5c0,2.3.74,3,2.53,3a7.1,7.1,0,0,0,1.07-.1,2.87,2.87,0,0,1,.18,1,2.74,2.74,0,0,1-.13.92,7.67,7.67,0,0,1-1.82.22c-3.12,0-4.36-1.69-4.36-4.91V26.86h-1.95a2.56,2.56,0,0,1-.15-.93,2.46,2.46,0,0,1,.15-1h1.95V22.66a4.33,4.33,0,0,1,2.53-.5V25h3.29a2.25,2.25,0,0,1,.16.93,2.69,2.69,0,0,1-.16,1H189.6Z"/><path class="cls-1" d="M201.6,40.23c-.91,2.78-1.79,4.38-4.53,4.38a3.71,3.71,0,0,1-1.39-.25,2.94,2.94,0,0,1-.18-.94,2.21,2.21,0,0,1,.21-1,7.18,7.18,0,0,0,1.13.1c1.14,0,1.73-.31,2.49-2.69l.53-1.54a2.47,2.47,0,0,1-.81-.18l-4.81-13a4.29,4.29,0,0,1,1.31-.17,4.09,4.09,0,0,1,1.32.17l2.89,7.7a23.53,23.53,0,0,1,.88,3h.1s.26-1.19.81-2.94l2.51-7.72A3.47,3.47,0,0,1,205.3,25a3.75,3.75,0,0,1,1.19.17Z"/><path class="cls-1" d="M212.64,24.71a7.15,7.15,0,0,1,3.57.69,2.52,2.52,0,0,1-.66,1.79,9.43,9.43,0,0,0-2.65-.4c-1.72,0-2.58.63-2.58,1.82s1.59,1.54,3.18,2.08,3.37,1.31,3.37,3.79-1.59,4.05-4.81,4.05a9,9,0,0,1-4.23-.91,2.57,2.57,0,0,1,.69-1.87,10.8,10.8,0,0,0,3.42.63c1.54,0,2.43-.58,2.43-1.82,0-1.39-1.4-1.7-2.89-2.13-1.72-.5-3.6-1.24-3.6-3.74S209.43,24.71,212.64,24.71Z"/><path class="cls-1" d="M221.56,32.41c.2,3,1.41,4,3.52,4a6.15,6.15,0,0,0,3-.73,2.56,2.56,0,0,1,.81,1.82,7.47,7.47,0,0,1-4.2,1.06c-3.9,0-5.72-2.4-5.72-7,0-4.79,2.25-6.84,5.62-6.84,3.11,0,5,1.72,5,5.09a10.83,10.83,0,0,1-.28,2.61Zm3-5.7c-1.65,0-2.81,1.09-3,3.9H227a7.84,7.84,0,0,0,.08-1.14C227.05,28,226.44,26.71,224.57,26.71Z"/><path class="cls-1" d="M238.47,24.71c2.88,0,4.76,1.75,4.76,6.91s-1.88,6.91-4.76,6.91a4,4,0,0,1-3.65-1.64V44a4.31,4.31,0,0,1-1.29.15,4,4,0,0,1-1.24-.15V25.14a3.54,3.54,0,0,1,1.24-.17,3.84,3.84,0,0,1,1.29.17v1.22A4.05,4.05,0,0,1,238.47,24.71Zm-.89,2.08c-1.77,0-2.76,1.47-2.76,3.19v3.24c0,1.74,1,3.24,2.76,3.24,2,0,3-1.07,3-4.84S239.61,26.79,237.58,26.79Z"/><path class="cls-1" d="M249.46,33.5c0,2.3.73,3,2.53,3a6.89,6.89,0,0,0,1.06-.1,2.87,2.87,0,0,1,.18,1,2.74,2.74,0,0,1-.13.92,7.6,7.6,0,0,1-1.82.22c-3.11,0-4.35-1.69-4.35-4.91V26.86h-2a2.56,2.56,0,0,1-.15-.93,2.46,2.46,0,0,1,.15-1h2V22.66a4.29,4.29,0,0,1,2.53-.5V25h3.29a2.37,2.37,0,0,1,.15.93,2.85,2.85,0,0,1-.15,1h-3.29Z"/><path class="cls-1" d="M261.43,40.23c-.91,2.78-1.79,4.38-4.53,4.38a3.71,3.71,0,0,1-1.39-.25,2.94,2.94,0,0,1-.18-.94,2.21,2.21,0,0,1,.21-1,7.18,7.18,0,0,0,1.13.1c1.14,0,1.73-.31,2.49-2.69l.53-1.54a2.47,2.47,0,0,1-.81-.18l-4.81-13a4.29,4.29,0,0,1,1.31-.17,4.17,4.17,0,0,1,1.32.17l2.88,7.7a22.76,22.76,0,0,1,.89,3h.1s.26-1.19.81-2.94l2.51-7.72a3.47,3.47,0,0,1,1.24-.17,3.75,3.75,0,0,1,1.19.17Z"/><path class="cls-1" d="M275.92,25.14a4.38,4.38,0,0,1,1.29-.17,5,5,0,0,1,1.24.15l-3.9,6.05L279,38.1a4.42,4.42,0,0,1-1.42.21,3.91,3.91,0,0,1-1.37-.21l-3.79-5.82H271V38.1a4.09,4.09,0,0,1-1.24.18,4,4,0,0,1-1.29-.18V19.42a5.63,5.63,0,0,1,1.29-.13,6.12,6.12,0,0,1,1.24.13v11h1.44Z"/><path class="cls-1" d="M285.56,24.71c3.67,0,4.84,1.65,4.84,4.91V38.1a2,2,0,0,1-1,.18,2.55,2.55,0,0,1-1-.18L288,36.48c-.66,1.34-2,2.05-4,2.05-2.38,0-3.92-1.39-3.92-4.22s1.7-4,4.86-4c1.14,0,2.23.08,2.89.15v-.93c0-1.72-.66-2.71-2.61-2.71a10.58,10.58,0,0,0-3.39.63,2,2,0,0,1-.59-.76,2.28,2.28,0,0,1-.15-1.06A11,11,0,0,1,285.56,24.71Zm-.25,7.34c-1.7,0-2.58.66-2.58,2.26s.83,2.27,2.2,2.27c2,0,2.94-1.69,2.94-3.49v-.88C287.28,32.15,286.27,32.05,285.31,32.05Z"/><polyline class="cls-2" points="9.05 1.57 28.05 29.7 9.05 57.93"/></svg>