<svg id="Warstwa_1" data-name="Warstwa 1" xmlns="http://www.w3.org/2000/svg" viewBox="0 0 300 60"><defs><style>.cls-1{fill:#005ca7;}.cls-2{fill:none;stroke:#ccd615;stroke-miterlimit:10;stroke-width:1.85px;}</style></defs><title>miejscowa_antyseptyka</title><path class="cls-1" d="M83.4,22.08a4.9,4.9,0,0,1,1.19.13V34.92a2.54,2.54,0,0,1-.9.13,2.81,2.81,0,0,1-.92-.13V29.16c0-1.77,0-3.73.1-4.81h-.09A26.78,26.78,0,0,1,81.18,28l-2.1,4a1.76,1.76,0,0,1-.56.09,1.18,1.18,0,0,1-.51-.09L75.94,28a28.09,28.09,0,0,1-1.64-3.69h-.07a31.5,31.5,0,0,1,.18,4.54v6a2.29,2.29,0,0,1-.86.13,2.21,2.21,0,0,1-.81-.13V22.21a4.17,4.17,0,0,1,1.1-.13,5.32,5.32,0,0,1,1.09.13l2.38,4.5a20.29,20.29,0,0,1,1.24,2.79h.08a11,11,0,0,1,.66-1.6c1-1.89,2-3.78,2.94-5.69A6.25,6.25,0,0,1,83.4,22.08Z"/><path class="cls-1" d="M89.17,23.76a2.9,2.9,0,0,1-.93.12,2.72,2.72,0,0,1-.94-.12v-1.7a2.72,2.72,0,0,1,.94-.12,2.9,2.9,0,0,1,.93.12Zm0,11.16a2.54,2.54,0,0,1-.9.13,2.28,2.28,0,0,1-.9-.13V25.7a2.45,2.45,0,0,1,.9-.12,2.73,2.73,0,0,1,.9.12Z"/><path class="cls-1" d="M93.08,30.87c.14,2.14,1,2.83,2.5,2.83a4.34,4.34,0,0,0,2.13-.53,1.89,1.89,0,0,1,.57,1.3,5.27,5.27,0,0,1-3,.76c-2.77,0-4.07-1.71-4.07-5s1.61-4.86,4-4.86A3.25,3.25,0,0,1,98.79,29a7.63,7.63,0,0,1-.2,1.86Zm2.14-4.05c-1.17,0-2,.77-2.14,2.77h3.85a5.56,5.56,0,0,0,.06-.81C97,27.72,96.55,26.82,95.22,26.82Z"/><path class="cls-1" d="M100.75,25.7a2.45,2.45,0,0,1,.9-.12,2.73,2.73,0,0,1,.9.12V36.63c0,1.91-.92,2.92-2.61,2.92a3.94,3.94,0,0,1-1.21-.16,1.47,1.47,0,0,1-.06-.42,1.87,1.87,0,0,1,.18-.92,3.16,3.16,0,0,0,.67.07c.81,0,1.23-.43,1.23-1.42Zm1.83-2a2.7,2.7,0,0,1-.93.13,2.53,2.53,0,0,1-.94-.13V22.05a2.53,2.53,0,0,1,.94-.13,2.7,2.7,0,0,1,.93.13Z"/><path class="cls-1" d="M108,25.4a5.2,5.2,0,0,1,2.54.48,1.82,1.82,0,0,1-.47,1.28,6.69,6.69,0,0,0-1.89-.29c-1.23,0-1.84.45-1.84,1.3s1.14,1.1,2.27,1.47,2.39.94,2.39,2.71-1.13,2.88-3.42,2.88a6.36,6.36,0,0,1-3-.65,1.84,1.84,0,0,1,.48-1.33,7.68,7.68,0,0,0,2.43.45c1.1,0,1.73-.42,1.73-1.3s-1-1.21-2-1.51c-1.22-.36-2.56-.89-2.56-2.67S105.73,25.4,108,25.4Z"/><path class="cls-1" d="M114.35,30.31c0,2.36.76,3.39,2.49,3.39a4.56,4.56,0,0,0,1.69-.31,1.84,1.84,0,0,1,.52,1.3,4.88,4.88,0,0,1-2.59.54c-2.63,0-4-1.71-4-4.92s1.33-4.91,4-4.91a4.7,4.7,0,0,1,2.41.45,1.8,1.8,0,0,1-.52,1.29,4.37,4.37,0,0,0-1.58-.27C115,26.87,114.35,28,114.35,30.31Z"/><path class="cls-1" d="M124.15,25.4c2.48,0,4,1.35,4,4.91s-1.53,4.92-4,4.92-4-1.35-4-4.92S121.68,25.4,124.15,25.4Zm0,1.38c-1.32,0-2.16.76-2.16,3.53s.84,3.53,2.16,3.53,2.14-.76,2.14-3.53S125.46,26.78,124.15,26.78Z"/><path class="cls-1" d="M136.46,30a13,13,0,0,1-.49-2.59h-.07a11.7,11.7,0,0,1-.5,2.59L134,34.92a3.42,3.42,0,0,1-1,.13,3.82,3.82,0,0,1-1-.13l-2.71-9.22a2.8,2.8,0,0,1,.9-.12,1.47,1.47,0,0,1,.77.12l1.71,5.75a12.51,12.51,0,0,1,.38,1.76H133a13.29,13.29,0,0,1,.4-1.76l1.65-5.75a4.15,4.15,0,0,1,1-.12,2.52,2.52,0,0,1,.88.12l1.6,5.71a8.93,8.93,0,0,1,.36,1.8h.06a14.18,14.18,0,0,1,.45-1.78l1.69-5.73a2.25,2.25,0,0,1,.79-.12,1.79,1.79,0,0,1,.78.12l-2.72,9.22a3.77,3.77,0,0,1-1,.13,3.9,3.9,0,0,1-1-.13Z"/><path class="cls-1" d="M147.38,25.4c2.61,0,3.44,1.17,3.44,3.49v6a1.38,1.38,0,0,1-.7.13,1.79,1.79,0,0,1-.72-.13l-.27-1.15a2.91,2.91,0,0,1-2.83,1.46c-1.69,0-2.79-1-2.79-3s1.21-2.83,3.46-2.83a20.32,20.32,0,0,1,2.05.11v-.67c0-1.22-.47-1.92-1.85-1.92a7.58,7.58,0,0,0-2.42.45,1.54,1.54,0,0,1-.41-.54,1.61,1.61,0,0,1-.11-.76A7.87,7.87,0,0,1,147.38,25.4Zm-.18,5.22c-1.2,0-1.83.46-1.83,1.6s.59,1.62,1.56,1.62c1.43,0,2.09-1.21,2.09-2.48v-.63C148.61,30.69,147.89,30.62,147.2,30.62Z"/><path class="cls-1" d="M160.36,25.4c2.61,0,3.44,1.17,3.44,3.49v6a1.38,1.38,0,0,1-.7.13,1.79,1.79,0,0,1-.72-.13l-.27-1.15a2.91,2.91,0,0,1-2.83,1.46c-1.69,0-2.79-1-2.79-3s1.21-2.83,3.46-2.83a20.32,20.32,0,0,1,2.05.11v-.67c0-1.22-.47-1.92-1.85-1.92a7.5,7.5,0,0,0-2.42.45,1.42,1.42,0,0,1-.41-.54,1.61,1.61,0,0,1-.11-.76A7.87,7.87,0,0,1,160.36,25.4Zm-.18,5.22c-1.2,0-1.84.46-1.84,1.6s.6,1.62,1.57,1.62A2.2,2.2,0,0,0,162,31.36v-.63C161.59,30.69,160.87,30.62,160.18,30.62Z"/><path class="cls-1" d="M173.48,34.92a2.47,2.47,0,0,1-.9.13,2.4,2.4,0,0,1-.9-.13V28.44c0-1-.52-1.59-1.67-1.59A2.49,2.49,0,0,0,168,28v6.91a2.57,2.57,0,0,1-.89.13,2.31,2.31,0,0,1-.91-.13V25.7a2.48,2.48,0,0,1,.91-.12,2.77,2.77,0,0,1,.89.12v.83a3.49,3.49,0,0,1,2.72-1.13,2.54,2.54,0,0,1,2.79,2.71Z"/><path class="cls-1" d="M178.29,31.64c0,1.64.52,2.13,1.8,2.13a5.16,5.16,0,0,0,.76-.07,2.12,2.12,0,0,1,.12.72,1.91,1.91,0,0,1-.09.64,5.11,5.11,0,0,1-1.29.17c-2.22,0-3.1-1.21-3.1-3.5v-4.8H175.1a1.87,1.87,0,0,1-.11-.67,1.71,1.71,0,0,1,.11-.68h1.39V23.94a3,3,0,0,1,1.8-.36v2h2.34a1.65,1.65,0,0,1,.11.66,2,2,0,0,1-.11.69h-2.34Z"/><path class="cls-1" d="M186.82,36.43c-.65,2-1.28,3.12-3.22,3.12a2.57,2.57,0,0,1-1-.18,2.09,2.09,0,0,1-.13-.67,1.62,1.62,0,0,1,.15-.72,5.19,5.19,0,0,0,.81.07c.81,0,1.22-.21,1.76-1.91l.38-1.09a1.85,1.85,0,0,1-.58-.13l-3.42-9.22a3.09,3.09,0,0,1,.94-.12,2.9,2.9,0,0,1,.93.12l2.06,5.47a17.51,17.51,0,0,1,.63,2.11h.07s.18-.84.58-2.09l1.78-5.49a2.52,2.52,0,0,1,.88-.12,2.72,2.72,0,0,1,.85.12Z"/><path class="cls-1" d="M194.67,25.4a5.2,5.2,0,0,1,2.54.48,1.82,1.82,0,0,1-.47,1.28,6.6,6.6,0,0,0-1.89-.29c-1.23,0-1.84.45-1.84,1.3s1.14,1.1,2.27,1.47,2.4.94,2.4,2.71-1.14,2.88-3.43,2.88a6.36,6.36,0,0,1-3-.65,1.84,1.84,0,0,1,.48-1.33,7.7,7.7,0,0,0,2.44.45c1.09,0,1.72-.42,1.72-1.3s-1-1.21-2-1.51c-1.22-.36-2.56-.89-2.56-2.67S192.38,25.4,194.67,25.4Z"/><path class="cls-1" d="M201,30.87c.15,2.14,1,2.83,2.51,2.83a4.28,4.28,0,0,0,2.12-.53,1.86,1.86,0,0,1,.58,1.3,5.31,5.31,0,0,1-3,.76c-2.77,0-4.07-1.71-4.07-5s1.6-4.86,4-4.86A3.24,3.24,0,0,1,206.71,29a7.63,7.63,0,0,1-.2,1.86Zm2.15-4.05c-1.17,0-2,.77-2.15,2.77h3.86a6,6,0,0,0,0-.81C204.91,27.72,204.48,26.82,203.15,26.82Z"/><path class="cls-1" d="M213,25.4c2.05,0,3.38,1.24,3.38,4.91s-1.33,4.92-3.38,4.92a2.89,2.89,0,0,1-2.59-1.17v5a3,3,0,0,1-.92.11,2.65,2.65,0,0,1-.88-.11V25.7a2.45,2.45,0,0,1,.88-.12,2.79,2.79,0,0,1,.92.12v.87A2.86,2.86,0,0,1,213,25.4Zm-.63,1.47a2,2,0,0,0-2,2.27v2.31a2.06,2.06,0,0,0,2,2.3c1.44,0,2.16-.76,2.16-3.44S213.84,26.87,212.4,26.87Z"/><path class="cls-1" d="M220.84,31.64c0,1.64.52,2.13,1.8,2.13a5.16,5.16,0,0,0,.76-.07,2.12,2.12,0,0,1,.12.72,1.91,1.91,0,0,1-.09.64,5.11,5.11,0,0,1-1.29.17c-2.22,0-3.1-1.21-3.1-3.5v-4.8h-1.39a2,2,0,0,1-.1-.67,1.86,1.86,0,0,1,.1-.68H219V23.94a3,3,0,0,1,1.8-.36v2h2.34a1.65,1.65,0,0,1,.11.66,2,2,0,0,1-.11.69h-2.34Z"/><path class="cls-1" d="M229.36,36.43c-.65,2-1.28,3.12-3.23,3.12a2.63,2.63,0,0,1-1-.18,2.24,2.24,0,0,1-.12-.67,1.69,1.69,0,0,1,.14-.72,5.36,5.36,0,0,0,.81.07c.81,0,1.22-.21,1.76-1.91l.38-1.09a1.74,1.74,0,0,1-.57-.13l-3.42-9.22a3.05,3.05,0,0,1,.93-.12,3,3,0,0,1,.94.12l2,5.47a17.51,17.51,0,0,1,.63,2.11h.07s.18-.84.58-2.09l1.78-5.49a2.52,2.52,0,0,1,.88-.12,2.64,2.64,0,0,1,.85.12Z"/><path class="cls-1" d="M239.65,25.7a3.18,3.18,0,0,1,.92-.12,3.83,3.83,0,0,1,.88.1L238.68,30l3.19,4.93a3.34,3.34,0,0,1-1,.14,2.92,2.92,0,0,1-1-.14l-2.71-4.14h-1v4.14a2.87,2.87,0,0,1-.89.13,2.78,2.78,0,0,1-.91-.13V21.63a4.13,4.13,0,0,1,.91-.09,4.52,4.52,0,0,1,.89.09v7.8h1Z"/><path class="cls-1" d="M246.51,25.4c2.61,0,3.44,1.17,3.44,3.49v6a1.38,1.38,0,0,1-.7.13,1.74,1.74,0,0,1-.72-.13l-.28-1.15a2.88,2.88,0,0,1-2.82,1.46c-1.69,0-2.79-1-2.79-3s1.2-2.83,3.45-2.83a20.54,20.54,0,0,1,2.06.11v-.67c0-1.22-.47-1.92-1.86-1.92a7.48,7.48,0,0,0-2.41.45,1.42,1.42,0,0,1-.41-.54,1.48,1.48,0,0,1-.11-.76A7.87,7.87,0,0,1,246.51,25.4Zm-.18,5.22c-1.21,0-1.84.46-1.84,1.6s.6,1.62,1.57,1.62a2.2,2.2,0,0,0,2.09-2.48v-.63C247.73,30.69,247,30.62,246.33,30.62Z"/><polyline class="cls-2" points="40.97 1.57 59.97 29.7 40.97 57.93"/></svg>