<svg id="Warstwa_1" data-name="Warstwa 1" xmlns="http://www.w3.org/2000/svg" viewBox="0 0 480.68 60"><defs><style>.cls-1{fill:#005ca6;}.cls-2{fill:none;stroke:#ccd513;stroke-miterlimit:10;stroke-width:1.85px;}</style></defs><title>niebedny_element</title><path class="cls-1" d="M44.93,29.15a22.47,22.47,0,0,1-1.49-3.27h-.1s.17,1.7.17,4.26V40.67a3.09,3.09,0,0,1-1.21.18,2.86,2.86,0,0,1-1.17-.18V22.8a5.38,5.38,0,0,1,1.55-.18,5,5,0,0,1,1.52.18l6.3,11.41a30.83,30.83,0,0,1,1.57,3.37h.08S52,35.71,52,33.35V22.8a3.09,3.09,0,0,1,1.21-.18,2.69,2.69,0,0,1,1.17.18V40.67a4.68,4.68,0,0,1-1.49.18,5.3,5.3,0,0,1-1.55-.18Z"/><path class="cls-1" d="M60.83,25a3.85,3.85,0,0,1-1.31.18A3.55,3.55,0,0,1,58.2,25V22.59a3.73,3.73,0,0,1,1.32-.17,4.06,4.06,0,0,1,1.31.17Zm0,15.7a3.56,3.56,0,0,1-1.26.18,3.27,3.27,0,0,1-1.27-.18v-13a3.27,3.27,0,0,1,1.27-.18,3.56,3.56,0,0,1,1.26.18Z"/><path class="cls-1" d="M66.3,35c.2,3,1.42,4,3.52,4a6.11,6.11,0,0,0,3-.74A2.67,2.67,0,0,1,73.62,40a7.51,7.51,0,0,1-4.2,1.06c-3.9,0-5.73-2.41-5.73-7,0-4.78,2.26-6.83,5.62-6.83,3.12,0,5,1.72,5,5.09a10.69,10.69,0,0,1-.28,2.6Zm3-5.69c-1.64,0-2.81,1.09-3,3.9h5.42A10.52,10.52,0,0,0,71.79,32C71.79,30.54,71.19,29.28,69.31,29.28Z"/><path class="cls-1" d="M85.69,38.77a2.72,2.72,0,0,1,.16,1,3.12,3.12,0,0,1-.16,1H76.3a5,5,0,0,1-.15-1.09,3.56,3.56,0,0,1,.15-1L83,29.61H76.73a3.56,3.56,0,0,1-.15-1.07,2.79,2.79,0,0,1,.15-1h9a2.43,2.43,0,0,1,.16,1,3.21,3.21,0,0,1-.16,1.09L79,38.77Z"/><path class="cls-1" d="M91.14,28.92a4,4,0,0,1,3.65-1.64c2.88,0,4.75,1.74,4.75,6.91s-1.87,6.91-4.75,6.91a4.05,4.05,0,0,1-3.65-1.65v1.22a3.65,3.65,0,0,1-1.29.18,3.3,3.3,0,0,1-1.24-.18V22a3.3,3.3,0,0,1,1.24-.18,3.65,3.65,0,0,1,1.29.18Zm2.76.43c-1.77,0-2.76,1.47-2.76,3.19v3.24c0,1.75,1,3.24,2.76,3.24,2,0,3-1.06,3-4.83S95.92,29.35,93.9,29.35Z"/><path class="cls-1" d="M107.47,27.28c3.11,0,5,1.72,5,5.09a10.69,10.69,0,0,1-.28,2.6h-7.74c.2,3,1.42,4,3.52,4a6.09,6.09,0,0,0,3-.74,2.59,2.59,0,0,1,.81,1.83,5.4,5.4,0,0,1-1.84.78c-1.42.43-2.36,1.37-2.36,2.53,0,.86.61.94,1.34.94a1.69,1.69,0,0,0,.81-.2,1.27,1.27,0,0,1,.41,1.06,3.56,3.56,0,0,1-1.72.48c-1.42,0-2.51-.53-2.51-2.05a3,3,0,0,1,1.29-2.48c-3.62-.18-5.34-2.56-5.34-7C101.85,29.33,104.1,27.28,107.47,27.28Zm0,2c-1.64,0-2.81,1.09-3,3.9h5.42A10.52,10.52,0,0,0,110,32C110,30.54,109.34,29.28,107.47,29.28Z"/><path class="cls-1" d="M124.33,21.86a3.3,3.3,0,0,1,1.24.18V40.67a3,3,0,0,1-1.06.18,3.81,3.81,0,0,1-1.14-.18l-.18-1.37a4.14,4.14,0,0,1-3.79,1.8c-2.89,0-4.76-1.75-4.76-6.91s1.87-6.91,4.76-6.91A4.09,4.09,0,0,1,123,28.92V22A3.65,3.65,0,0,1,124.33,21.86Zm-4,7.49c-2,0-3,1.07-3,4.84s1,4.83,3,4.83c1.77,0,2.76-1.49,2.76-3.24V32.52C123,30.82,122,29.35,120.28,29.35Z"/><path class="cls-1" d="M139.3,40.67a3.59,3.59,0,0,1-1.27.18,3.46,3.46,0,0,1-1.27-.18V31.56c0-1.42-.73-2.23-2.35-2.23A3.48,3.48,0,0,0,131.55,31v9.72a3.8,3.8,0,0,1-1.27.18,3.24,3.24,0,0,1-1.26-.18v-13a3.24,3.24,0,0,1,1.26-.18,3.8,3.8,0,0,1,1.27.18v1.16a4.89,4.89,0,0,1,3.82-1.59,3.58,3.58,0,0,1,3.93,3.82Z"/><path class="cls-1" d="M148.69,42.79c-.91,2.79-1.8,4.38-4.53,4.38a3.65,3.65,0,0,1-1.39-.25,2.86,2.86,0,0,1-.18-.94,2.56,2.56,0,0,1,.2-1,7.39,7.39,0,0,0,1.14.1c1.14,0,1.72-.3,2.48-2.68l.53-1.54a2.83,2.83,0,0,1-.81-.18l-4.81-13a4.1,4.1,0,0,1,1.32-.18,4,4,0,0,1,1.32.18l2.88,7.69a25.55,25.55,0,0,1,.89,3h.1s.25-1.19.81-2.93l2.51-7.72a3.3,3.3,0,0,1,1.24-.18,3.56,3.56,0,0,1,1.19.18Z"/><path class="cls-1" d="M163.2,35c.2,3,1.42,4,3.52,4a6.09,6.09,0,0,0,3-.74,2.59,2.59,0,0,1,.81,1.83,7.47,7.47,0,0,1-4.2,1.06c-3.9,0-5.72-2.41-5.72-7,0-4.78,2.25-6.83,5.62-6.83,3.11,0,5,1.72,5,5.09a10.69,10.69,0,0,1-.28,2.6Zm3-5.69c-1.64,0-2.81,1.09-3,3.9h5.42a10.52,10.52,0,0,0,.07-1.14C168.69,30.54,168.08,29.28,166.21,29.28Z"/><path class="cls-1" d="M176.54,40.67a3.56,3.56,0,0,1-1.26.18,3.27,3.27,0,0,1-1.27-.18V22a3.27,3.27,0,0,1,1.27-.18,3.56,3.56,0,0,1,1.26.18Z"/><path class="cls-1" d="M182.09,35c.2,3,1.41,4,3.51,4a6.11,6.11,0,0,0,3-.74A2.59,2.59,0,0,1,189.4,40a7.47,7.47,0,0,1-4.2,1.06c-3.9,0-5.72-2.41-5.72-7,0-4.78,2.25-6.83,5.62-6.83,3.11,0,5,1.72,5,5.09a10.69,10.69,0,0,1-.28,2.6Zm3-5.69c-1.65,0-2.81,1.09-3,3.9h5.41a8,8,0,0,0,.08-1.14C187.58,30.54,187,29.28,185.1,29.28Z"/><path class="cls-1" d="M206.42,27.28a3.52,3.52,0,0,1,3.77,3.82v9.57a3.59,3.59,0,0,1-1.27.18,3.24,3.24,0,0,1-1.26-.18V31.56a2,2,0,0,0-2.21-2.23,3.17,3.17,0,0,0-2.7,1.62v9.72a3.5,3.5,0,0,1-1.24.18,3.27,3.27,0,0,1-1.27-.18V31.56a2,2,0,0,0-2.2-2.23,3.36,3.36,0,0,0-2.71,1.59v9.75a3.5,3.5,0,0,1-1.24.18,3.27,3.27,0,0,1-1.27-.18v-13a3.27,3.27,0,0,1,1.27-.18,3.5,3.5,0,0,1,1.24.18v1.14A4.71,4.71,0,0,1,199,27.28a3.38,3.38,0,0,1,3.29,1.84A5.12,5.12,0,0,1,206.42,27.28Z"/><path class="cls-1" d="M215.58,35c.21,3,1.42,4,3.52,4a6.11,6.11,0,0,0,3-.74A2.59,2.59,0,0,1,222.9,40a7.47,7.47,0,0,1-4.2,1.06c-3.9,0-5.72-2.41-5.72-7,0-4.78,2.25-6.83,5.62-6.83,3.11,0,5,1.72,5,5.09a10.69,10.69,0,0,1-.28,2.6Zm3-5.69c-1.65,0-2.81,1.09-3,3.9H221a8,8,0,0,0,.08-1.14C221.08,30.54,220.47,29.28,218.6,29.28Z"/><path class="cls-1" d="M236.6,40.67a3.59,3.59,0,0,1-1.27.18,3.36,3.36,0,0,1-1.26-.18V31.56c0-1.42-.74-2.23-2.36-2.23A3.48,3.48,0,0,0,228.85,31v9.72a3.7,3.7,0,0,1-1.26.18,3.27,3.27,0,0,1-1.27-.18v-13a3.27,3.27,0,0,1,1.27-.18,3.7,3.7,0,0,1,1.26.18v1.16a4.89,4.89,0,0,1,3.82-1.59,3.58,3.58,0,0,1,3.93,3.82Z"/><path class="cls-1" d="M243.36,36.06c0,2.3.73,3,2.53,3A6.89,6.89,0,0,0,247,39a2.87,2.87,0,0,1,.18,1,2.7,2.7,0,0,1-.13.91,7,7,0,0,1-1.82.23c-3.11,0-4.35-1.7-4.35-4.91V29.43h-2a2.66,2.66,0,0,1-.15-.94,2.52,2.52,0,0,1,.15-1h2v-2.3a4.23,4.23,0,0,1,2.53-.51v2.81h3.29a2.46,2.46,0,0,1,.15.94,2.85,2.85,0,0,1-.15,1h-3.29Z"/><path class="cls-1" d="M259.79,27.28c3.49,0,5.62,1.9,5.62,6.91s-2.15,6.91-5.62,6.91-5.62-1.9-5.62-6.91S256.32,27.28,259.79,27.28Zm0,1.95c-1.85,0-3,1.06-3,5s1.19,5,3,5,3-1.06,3-5S261.64,29.23,259.79,29.23Z"/><path class="cls-1" d="M274.45,27.28c2.89,0,4.76,1.74,4.76,6.91s-1.87,6.91-4.76,6.91a4.05,4.05,0,0,1-3.65-1.65v7.09a4.23,4.23,0,0,1-1.29.15,4,4,0,0,1-1.24-.15V27.71a3.36,3.36,0,0,1,1.24-.18,3.58,3.58,0,0,1,1.29.18v1.21A4,4,0,0,1,274.45,27.28Zm-.89,2.07c-1.77,0-2.76,1.47-2.76,3.19v3.24c0,1.75,1,3.24,2.76,3.24,2,0,3-1.06,3-4.83S275.59,29.35,273.56,29.35Z"/><path class="cls-1" d="M284.75,25a3.85,3.85,0,0,1-1.31.18,3.61,3.61,0,0,1-1.32-.18V22.59a3.8,3.8,0,0,1,1.32-.17,4.06,4.06,0,0,1,1.31.17Zm-.05,15.7a3.56,3.56,0,0,1-1.26.18,3.27,3.27,0,0,1-1.27-.18v-13a3.27,3.27,0,0,1,1.27-.18,3.56,3.56,0,0,1,1.26.18Z"/><path class="cls-1" d="M290.22,35c.21,3,1.42,4,3.52,4a6.11,6.11,0,0,0,3-.74,2.59,2.59,0,0,1,.81,1.83,7.47,7.47,0,0,1-4.2,1.06c-3.9,0-5.72-2.41-5.72-7,0-4.78,2.25-6.83,5.62-6.83,3.11,0,5,1.72,5,5.09A10.69,10.69,0,0,1,298,35Zm3-5.69c-1.65,0-2.81,1.09-3,3.9h5.42a8,8,0,0,0,.08-1.14C295.72,30.54,295.11,29.28,293.24,29.28Z"/><path class="cls-1" d="M308.38,27.71a4.16,4.16,0,0,1,1.29-.18,5,5,0,0,1,1.24.15l-3.9,6,4.48,6.94a4.61,4.61,0,0,1-1.42.2,4,4,0,0,1-1.36-.2l-3.8-5.82h-1.42v5.82a4.53,4.53,0,0,1-2.53,0V22a5.74,5.74,0,0,1,1.29-.13,6.12,6.12,0,0,1,1.24.13V33h1.44Z"/><path class="cls-1" d="M316,25a3.85,3.85,0,0,1-1.31.18,3.61,3.61,0,0,1-1.32-.18V22.59a3.8,3.8,0,0,1,1.32-.17,4.06,4.06,0,0,1,1.31.17Zm0,15.7a3.56,3.56,0,0,1-1.26.18,3.27,3.27,0,0,1-1.27-.18v-13a3.27,3.27,0,0,1,1.27-.18,3.56,3.56,0,0,1,1.26.18Z"/><path class="cls-1" d="M331.09,27.28c2.88,0,4.76,1.74,4.76,6.91S334,41.1,331.09,41.1a4.05,4.05,0,0,1-3.65-1.65v7.09a4.31,4.31,0,0,1-1.29.15,4,4,0,0,1-1.24-.15V27.71a3.36,3.36,0,0,1,1.24-.18,3.65,3.65,0,0,1,1.29.18v1.21A4,4,0,0,1,331.09,27.28Zm-.89,2.07c-1.77,0-2.76,1.47-2.76,3.19v3.24c0,1.75,1,3.24,2.76,3.24,2,0,3-1.06,3-4.83S332.23,29.35,330.2,29.35Z"/><path class="cls-1" d="M343.8,27.28c3.49,0,5.62,1.9,5.62,6.91s-2.15,6.91-5.62,6.91-5.62-1.9-5.62-6.91S340.33,27.28,343.8,27.28Zm0,1.95c-1.85,0-3,1.06-3,5s1.19,5,3,5,3-1.06,3-5S345.65,29.23,343.8,29.23Z"/><path class="cls-1" d="M360.94,38.77a2.88,2.88,0,0,1,.15,1,3.31,3.31,0,0,1-.15,1h-9.39a4.41,4.41,0,0,1-.15-1.09,3.22,3.22,0,0,1,.15-1l6.73-9.16H352a3.56,3.56,0,0,1-.15-1.07,2.79,2.79,0,0,1,.15-1h9a2.64,2.64,0,0,1,.15,1,3.5,3.5,0,0,1-.15,1.09l-6.71,9.16Z"/><path class="cls-1" d="M368.46,27.28c3.67,0,4.83,1.64,4.83,4.91v8.48a1.91,1.91,0,0,1-1,.18,2.58,2.58,0,0,1-1-.18l-.37-1.62c-.66,1.34-2.05,2.05-4,2.05-2.38,0-3.92-1.39-3.92-4.23s1.69-4,4.86-4a25.91,25.91,0,0,1,2.88.15v-.94c0-1.72-.65-2.71-2.6-2.71a10.46,10.46,0,0,0-3.4.64,2.25,2.25,0,0,1-.58-.76,2.17,2.17,0,0,1-.15-1.07A11.06,11.06,0,0,1,368.46,27.28Zm-.25,7.34c-1.7,0-2.58.66-2.58,2.25s.83,2.28,2.2,2.28c2,0,2.93-1.7,2.93-3.49v-.89C370.18,34.72,369.17,34.62,368.21,34.62Z"/><path class="cls-1" d="M379.17,28.92a4,4,0,0,1,3.65-1.64c2.88,0,4.76,1.74,4.76,6.91s-1.88,6.91-4.76,6.91a4.05,4.05,0,0,1-3.65-1.65v1.22a3.65,3.65,0,0,1-1.29.18,3.3,3.3,0,0,1-1.24-.18V22a3.3,3.3,0,0,1,1.24-.18,3.65,3.65,0,0,1,1.29.18Zm2.76.43c-1.77,0-2.76,1.47-2.76,3.19v3.24c0,1.75,1,3.24,2.76,3.24,2,0,3-1.06,3-4.83S384,29.35,381.93,29.35Z"/><path class="cls-1" d="M393.1,25a4,4,0,0,1-1.32.18,3.61,3.61,0,0,1-1.32-.18V22.59a3.8,3.8,0,0,1,1.32-.17,4.17,4.17,0,0,1,1.32.17ZM393,40.67a3.49,3.49,0,0,1-1.26.18,3.27,3.27,0,0,1-1.27-.18v-13a3.27,3.27,0,0,1,1.27-.18,3.49,3.49,0,0,1,1.26.18Z"/><path class="cls-1" d="M398.57,35c.2,3,1.41,4,3.51,4a6.11,6.11,0,0,0,3-.74,2.59,2.59,0,0,1,.81,1.83,7.47,7.47,0,0,1-4.2,1.06c-3.9,0-5.72-2.41-5.72-7,0-4.78,2.25-6.83,5.62-6.83,3.11,0,5,1.72,5,5.09a10.69,10.69,0,0,1-.28,2.6Zm3-5.69c-1.65,0-2.81,1.09-3,3.9H404a8,8,0,0,0,.08-1.14C404.06,30.54,403.45,29.28,401.58,29.28Z"/><path class="cls-1" d="M420.11,27.28a3,3,0,0,1,0,2l-2.1-.1a4.59,4.59,0,0,1,.71,2.65c0,2.84-1.7,4.56-5,4.56a6.41,6.41,0,0,1-1.12-.08,2.24,2.24,0,0,0-.48,1.47c.28,2.33,7.93-.15,7.93,5.07,0,2.48-2.41,4.32-6.51,4.32-3.8,0-5.39-1.49-5.39-3.51a4.3,4.3,0,0,1,2.25-3.5,2,2,0,0,1-.56-1.47,4.6,4.6,0,0,1,1.22-2.81,4.11,4.11,0,0,1-2.31-4.05c0-2.83,1.73-4.55,5-4.55a6.1,6.1,0,0,1,2.81.58Zm-8.3,13.57a3,3,0,0,0-1.17,2.3c0,1.27.94,2.23,3,2.23,2.6,0,4-.94,4-2.28C417.68,41,414.09,41.55,411.81,40.85Zm1.95-11.8c-1.52,0-2.56.89-2.56,2.78s1,2.76,2.56,2.76,2.53-.86,2.53-2.76S415.28,29.05,413.76,29.05Z"/><path class="cls-1" d="M427.53,27.28c3.49,0,5.62,1.9,5.62,6.91S431,41.1,427.53,41.1s-5.62-1.9-5.62-6.91S424.06,27.28,427.53,27.28Zm0,1.95c-1.85,0-3,1.06-3,5s1.19,5,3,5,3-1.06,3-5S429.38,29.23,427.53,29.23Z"/><path class="cls-1" d="M445,33.81a17.52,17.52,0,0,1-.68-3.65h-.1a16,16,0,0,1-.71,3.65l-2,6.86a5.05,5.05,0,0,1-1.44.18,5.58,5.58,0,0,1-1.47-.18l-3.82-13a3.7,3.7,0,0,1,1.26-.18,2,2,0,0,1,1.09.18l2.41,8.07a16.32,16.32,0,0,1,.53,2.48h.07a23.45,23.45,0,0,1,.56-2.48l2.33-8.07a5.38,5.38,0,0,1,1.37-.18,3.36,3.36,0,0,1,1.24.18l2.25,8a13.93,13.93,0,0,1,.51,2.53h.07a22.34,22.34,0,0,1,.64-2.5l2.37-8a3,3,0,0,1,1.12-.18,2.37,2.37,0,0,1,1.09.18l-3.83,13a5.46,5.46,0,0,1-1.44.18,5.92,5.92,0,0,1-1.47-.18Z"/><path class="cls-1" d="M458,35c.21,3,1.42,4,3.52,4a6.11,6.11,0,0,0,3-.74,2.63,2.63,0,0,1,.81,1.83,7.47,7.47,0,0,1-4.2,1.06c-3.9,0-5.72-2.41-5.72-7,0-4.78,2.25-6.83,5.62-6.83,3.11,0,5,1.72,5,5.09a10.69,10.69,0,0,1-.28,2.6Zm3-5.69c-1.65,0-2.81,1.09-3,3.9h5.42a8,8,0,0,0,.08-1.14C463.46,30.54,462.85,29.28,461,29.28Z"/><path class="cls-1" d="M468.75,27.71a3.27,3.27,0,0,1,1.27-.18,3.56,3.56,0,0,1,1.26.18V43.07c0,2.69-1.29,4.1-3.67,4.1a5.6,5.6,0,0,1-1.69-.22,2.22,2.22,0,0,1-.08-.59,2.65,2.65,0,0,1,.25-1.29,4.4,4.4,0,0,0,.94.1c1.14,0,1.72-.6,1.72-2ZM471.33,25a3.85,3.85,0,0,1-1.31.18A3.55,3.55,0,0,1,468.7,25V22.57a3.55,3.55,0,0,1,1.32-.18,3.85,3.85,0,0,1,1.31.18Z"/><polyline class="cls-2" points="9.05 1.57 28.05 29.7 9.05 57.93"/></svg>