<svg id="Warstwa_1" data-name="Warstwa 1" xmlns="http://www.w3.org/2000/svg" viewBox="0 0 480.68 60"><defs><style>.cls-1{fill:#005ca6;}.cls-2{fill:none;stroke:#ccd513;stroke-miterlimit:10;stroke-width:1.85px;}</style></defs><title>niebedny_element</title><path class="cls-1" d="M60.25,26.3a19.5,19.5,0,0,1-1.38-3h-.09s.16,1.57.16,3.93v9.71a3,3,0,0,1-1.12.16,2.62,2.62,0,0,1-1.07-.16V20.44a4.75,4.75,0,0,1,1.42-.17,4.52,4.52,0,0,1,1.4.17L65.38,31a25.72,25.72,0,0,1,1.45,3.1h.07s-.16-1.73-.16-3.9V20.44a2.8,2.8,0,0,1,1.12-.17,2.38,2.38,0,0,1,1.07.17V36.92a4.43,4.43,0,0,1-1.37.16,5.07,5.07,0,0,1-1.43-.16Z"/><path class="cls-1" d="M74.91,22.44a3.52,3.52,0,0,1-1.21.17,3.28,3.28,0,0,1-1.22-.17V20.25a3.46,3.46,0,0,1,1.22-.16,3.72,3.72,0,0,1,1.21.16Zm0,14.48a3.44,3.44,0,0,1-1.17.16,3.11,3.11,0,0,1-1.17-.16V25a2.94,2.94,0,0,1,1.17-.17,3.26,3.26,0,0,1,1.17.17Z"/><path class="cls-1" d="M80,31.67c.18,2.77,1.3,3.66,3.24,3.66A5.66,5.66,0,0,0,86,34.65a2.41,2.41,0,0,1,.74,1.68,6.83,6.83,0,0,1-3.87,1c-3.6,0-5.28-2.22-5.28-6.45,0-4.41,2.08-6.3,5.18-6.3,2.88,0,4.63,1.59,4.63,4.69a9.93,9.93,0,0,1-.26,2.41Zm2.77-5.26c-1.51,0-2.59,1-2.77,3.6h5A7.08,7.08,0,0,0,85,29C85,27.58,84.46,26.41,82.73,26.41Z"/><path class="cls-1" d="M97.84,35.17a2.58,2.58,0,0,1,.14.95,3,3,0,0,1-.14,1H89.18a4.16,4.16,0,0,1-.14-1,3.05,3.05,0,0,1,.14-.91l6.21-8.45H89.58a3.25,3.25,0,0,1-.14-1,2.62,2.62,0,0,1,.14-.94h8.26a2.48,2.48,0,0,1,.14.91,3.28,3.28,0,0,1-.14,1l-6.19,8.45Z"/><path class="cls-1" d="M102.86,26.09a3.74,3.74,0,0,1,3.36-1.52c2.67,0,4.39,1.61,4.39,6.37s-1.72,6.38-4.39,6.38a3.76,3.76,0,0,1-3.36-1.52v1.12a3.51,3.51,0,0,1-1.19.16,3.14,3.14,0,0,1-1.14-.16V19.74a3,3,0,0,1,1.14-.17,3.32,3.32,0,0,1,1.19.17Zm2.55.39a2.65,2.65,0,0,0-2.55,2.94v3c0,1.61.91,3,2.55,3,1.86,0,2.8-1,2.8-4.46S107.27,26.48,105.41,26.48Z"/><path class="cls-1" d="M117.92,24.57c2.87,0,4.62,1.59,4.62,4.69a10.3,10.3,0,0,1-.25,2.41h-7.15c.19,2.77,1.31,3.66,3.25,3.66a5.6,5.6,0,0,0,2.75-.68,2.42,2.42,0,0,1,.75,1.68,4.91,4.91,0,0,1-1.7.73c-1.31.4-2.18,1.26-2.18,2.33,0,.8.57.87,1.24.87a1.51,1.51,0,0,0,.75-.19,1.15,1.15,0,0,1,.37,1,3.29,3.29,0,0,1-1.58.44c-1.31,0-2.32-.49-2.32-1.89a2.77,2.77,0,0,1,1.2-2.28c-3.34-.17-4.93-2.36-4.93-6.45C112.74,26.46,114.82,24.57,117.92,24.57Zm0,1.84c-1.52,0-2.59,1-2.78,3.6h5a8.84,8.84,0,0,0,.07-1.05C120.21,27.58,119.65,26.41,117.92,26.41Z"/><path class="cls-1" d="M133.47,19.57a3.07,3.07,0,0,1,1.15.17V36.92a2.88,2.88,0,0,1-1,.16,3.54,3.54,0,0,1-1-.16l-.17-1.26a3.83,3.83,0,0,1-3.5,1.66c-2.66,0-4.39-1.62-4.39-6.38s1.73-6.37,4.39-6.37a3.79,3.79,0,0,1,3.36,1.52V19.74A3.32,3.32,0,0,1,133.47,19.57Zm-3.73,6.91c-1.87,0-2.8,1-2.8,4.46s.93,4.46,2.8,4.46c1.63,0,2.54-1.38,2.54-3v-3C132.26,27.84,131.35,26.48,129.74,26.48Z"/><path class="cls-1" d="M147.27,36.92a3.37,3.37,0,0,1-1.17.16,3.2,3.2,0,0,1-1.16-.16V28.51c0-1.3-.68-2.05-2.17-2.05A3.19,3.19,0,0,0,140.13,28v9a3.59,3.59,0,0,1-1.17.16,3.11,3.11,0,0,1-1.17-.16V25A2.94,2.94,0,0,1,139,24.8a3.39,3.39,0,0,1,1.17.17V26a4.5,4.5,0,0,1,3.52-1.47,3.3,3.3,0,0,1,3.62,3.52Z"/><path class="cls-1" d="M155.93,38.88c-.84,2.57-1.65,4-4.17,4a3.47,3.47,0,0,1-1.29-.23,2.86,2.86,0,0,1-.16-.87,2.06,2.06,0,0,1,.19-.93,6.82,6.82,0,0,0,1,.09c1.06,0,1.59-.28,2.29-2.47l.49-1.43a2.06,2.06,0,0,1-.74-.16l-4.44-12a3.66,3.66,0,0,1,1.21-.17,3.55,3.55,0,0,1,1.22.17l2.66,7.09a23.43,23.43,0,0,1,.82,2.73h.09s.23-1.09.75-2.7L158.2,25a3,3,0,0,1,1.14-.17,3.19,3.19,0,0,1,1.1.17Z"/><path class="cls-1" d="M169.31,31.67c.19,2.77,1.31,3.66,3.25,3.66a5.6,5.6,0,0,0,2.75-.68,2.42,2.42,0,0,1,.75,1.68,6.83,6.83,0,0,1-3.87,1c-3.6,0-5.28-2.22-5.28-6.45,0-4.41,2.08-6.3,5.18-6.3,2.87,0,4.62,1.59,4.62,4.69a10.3,10.3,0,0,1-.25,2.41Zm2.78-5.26c-1.51,0-2.59,1-2.78,3.6h5a8.84,8.84,0,0,0,.07-1.05C174.38,27.58,173.82,26.41,172.09,26.41Z"/><path class="cls-1" d="M181.62,36.92a3.44,3.44,0,0,1-1.17.16,3.11,3.11,0,0,1-1.17-.16V19.74a2.94,2.94,0,0,1,1.17-.17,3.26,3.26,0,0,1,1.17.17Z"/><path class="cls-1" d="M186.73,31.67c.19,2.77,1.31,3.66,3.25,3.66a5.6,5.6,0,0,0,2.75-.68,2.42,2.42,0,0,1,.75,1.68,6.84,6.84,0,0,1-3.88,1c-3.59,0-5.27-2.22-5.27-6.45,0-4.41,2.08-6.3,5.18-6.3,2.87,0,4.62,1.59,4.62,4.69a10.3,10.3,0,0,1-.25,2.41Zm2.78-5.26c-1.52,0-2.59,1-2.78,3.6h5A8.84,8.84,0,0,0,191.8,29C191.8,27.58,191.24,26.41,189.51,26.41Z"/><path class="cls-1" d="M209.17,24.57a3.25,3.25,0,0,1,3.48,3.52v8.83a3.44,3.44,0,0,1-1.17.16,3.11,3.11,0,0,1-1.17-.16V28.51a1.8,1.8,0,0,0-2-2.05,3,3,0,0,0-2.5,1.49v9a3.28,3.28,0,0,1-1.14.16,3.11,3.11,0,0,1-1.17-.16V28.51a1.8,1.8,0,0,0-2-2.05,3.1,3.1,0,0,0-2.5,1.47v9a3.28,3.28,0,0,1-1.14.16,3.11,3.11,0,0,1-1.17-.16V25a2.94,2.94,0,0,1,1.17-.17,3.1,3.1,0,0,1,1.14.17V26a4.37,4.37,0,0,1,3.37-1.45,3.12,3.12,0,0,1,3,1.7A4.73,4.73,0,0,1,209.17,24.57Z"/><path class="cls-1" d="M217.62,31.67c.19,2.77,1.31,3.66,3.25,3.66a5.6,5.6,0,0,0,2.75-.68,2.42,2.42,0,0,1,.75,1.68,6.83,6.83,0,0,1-3.87,1c-3.6,0-5.28-2.22-5.28-6.45,0-4.41,2.08-6.3,5.18-6.3,2.87,0,4.62,1.59,4.62,4.69a10.3,10.3,0,0,1-.25,2.41Zm2.78-5.26c-1.52,0-2.59,1-2.78,3.6h5a8.84,8.84,0,0,0,.07-1.05C222.69,27.58,222.13,26.41,220.4,26.41Z"/><path class="cls-1" d="M237,36.92a3.34,3.34,0,0,1-1.16.16,3.24,3.24,0,0,1-1.17-.16V28.51c0-1.3-.68-2.05-2.17-2.05A3.2,3.2,0,0,0,229.86,28v9a3.59,3.59,0,0,1-1.17.16,3.17,3.17,0,0,1-1.17-.16V25a3,3,0,0,1,1.17-.17,3.39,3.39,0,0,1,1.17.17V26a4.5,4.5,0,0,1,3.52-1.47A3.3,3.3,0,0,1,237,28.09Z"/><path class="cls-1" d="M243.24,32.67c0,2.12.68,2.75,2.33,2.75a6.57,6.57,0,0,0,1-.09,2.62,2.62,0,0,1,.17.93,2.57,2.57,0,0,1-.12.85,7,7,0,0,1-1.68.21c-2.87,0-4-1.57-4-4.53V26.55h-1.79a2.8,2.8,0,0,1,0-1.75h1.79V22.68a3.94,3.94,0,0,1,2.34-.47V24.8h3a2.29,2.29,0,0,1,.14.87,2.58,2.58,0,0,1-.14.88h-3Z"/><path class="cls-1" d="M258.39,24.57c3.22,0,5.19,1.75,5.19,6.37s-2,6.38-5.19,6.38-5.18-1.76-5.18-6.38S255.19,24.57,258.39,24.57Zm0,1.8c-1.7,0-2.8,1-2.8,4.57s1.1,4.58,2.8,4.58,2.78-1,2.78-4.58S260.1,26.37,258.39,26.37Z"/><path class="cls-1" d="M271.91,24.57c2.66,0,4.39,1.61,4.39,6.37s-1.73,6.38-4.39,6.38a3.74,3.74,0,0,1-3.36-1.52v6.53a4,4,0,0,1-1.19.14,3.66,3.66,0,0,1-1.15-.14V25a3.07,3.07,0,0,1,1.15-.17,3.32,3.32,0,0,1,1.19.17v1.12A3.72,3.72,0,0,1,271.91,24.57Zm-.82,1.91c-1.63,0-2.54,1.36-2.54,2.94v3c0,1.61.91,3,2.54,3,1.87,0,2.8-1,2.8-4.46S273,26.48,271.09,26.48Z"/><path class="cls-1" d="M281.41,22.44a3.52,3.52,0,0,1-1.21.17,3.19,3.19,0,0,1-1.21-.17V20.25a3.36,3.36,0,0,1,1.21-.16,3.72,3.72,0,0,1,1.21.16Zm0,14.48a3.44,3.44,0,0,1-1.17.16,3.11,3.11,0,0,1-1.17-.16V25a2.94,2.94,0,0,1,1.17-.17,3.26,3.26,0,0,1,1.17.17Z"/><path class="cls-1" d="M286.46,31.67c.18,2.77,1.3,3.66,3.24,3.66a5.66,5.66,0,0,0,2.76-.68,2.46,2.46,0,0,1,.75,1.68,6.88,6.88,0,0,1-3.88,1c-3.6,0-5.28-2.22-5.28-6.45,0-4.41,2.08-6.3,5.19-6.3,2.87,0,4.62,1.59,4.62,4.69a9.93,9.93,0,0,1-.26,2.41Zm2.78-5.26c-1.52,0-2.6,1-2.78,3.6h5a7.08,7.08,0,0,0,.07-1.05C291.52,27.58,291,26.41,289.24,26.41Z"/><path class="cls-1" d="M303.2,25a3.82,3.82,0,0,1,1.19-.17,4.59,4.59,0,0,1,1.14.14l-3.59,5.58,4.13,6.4a4.1,4.1,0,0,1-1.31.19,3.66,3.66,0,0,1-1.26-.19L300,31.55h-1.31v5.37a4.32,4.32,0,0,1-2.33,0V19.69a5.29,5.29,0,0,1,1.19-.12,5.54,5.54,0,0,1,1.14.12V29.8H300Z"/><path class="cls-1" d="M310.25,22.44a3.52,3.52,0,0,1-1.21.17,3.28,3.28,0,0,1-1.22-.17V20.25a3.46,3.46,0,0,1,1.22-.16,3.72,3.72,0,0,1,1.21.16Zm-.05,14.48a3.34,3.34,0,0,1-1.16.16,3.11,3.11,0,0,1-1.17-.16V25A2.94,2.94,0,0,1,309,24.8a3.16,3.16,0,0,1,1.16.17Z"/><path class="cls-1" d="M324.14,24.57c2.66,0,4.39,1.61,4.39,6.37s-1.73,6.38-4.39,6.38a3.75,3.75,0,0,1-3.36-1.52v6.53a4,4,0,0,1-1.19.14,3.55,3.55,0,0,1-1.14-.14V25a3,3,0,0,1,1.14-.17,3.32,3.32,0,0,1,1.19.17v1.12A3.73,3.73,0,0,1,324.14,24.57Zm-.81,1.91a2.65,2.65,0,0,0-2.55,2.94v3c0,1.61.91,3,2.55,3,1.86,0,2.8-1,2.8-4.46S325.19,26.48,323.33,26.48Z"/><path class="cls-1" d="M335.86,24.57c3.23,0,5.19,1.75,5.19,6.37s-2,6.38-5.19,6.38-5.18-1.76-5.18-6.38S332.67,24.57,335.86,24.57Zm0,1.8c-1.7,0-2.8,1-2.8,4.57s1.1,4.58,2.8,4.58,2.78-1,2.78-4.58S337.57,26.37,335.86,26.37Z"/><path class="cls-1" d="M351.67,35.17a2.58,2.58,0,0,1,.14.95,3,3,0,0,1-.14,1H343a4.16,4.16,0,0,1-.14-1,3.05,3.05,0,0,1,.14-.91l6.21-8.45h-5.81a3.25,3.25,0,0,1-.14-1,2.62,2.62,0,0,1,.14-.94h8.26a2.29,2.29,0,0,1,.14.91,3,3,0,0,1-.14,1l-6.18,8.45Z"/><path class="cls-1" d="M358.61,24.57c3.38,0,4.46,1.52,4.46,4.53v7.82a1.88,1.88,0,0,1-.91.16,2.45,2.45,0,0,1-.94-.16l-.35-1.5a3.75,3.75,0,0,1-3.66,1.9c-2.2,0-3.62-1.29-3.62-3.9s1.56-3.67,4.48-3.67a25.06,25.06,0,0,1,2.66.14V29c0-1.59-.61-2.5-2.4-2.5a9.75,9.75,0,0,0-3.13.58,1.7,1.7,0,0,1-.54-.7,2,2,0,0,1-.14-1A10.18,10.18,0,0,1,358.61,24.57Zm-.24,6.77c-1.56,0-2.38.61-2.38,2.08s.77,2.1,2,2.1c1.85,0,2.71-1.57,2.71-3.22v-.82C360.19,31.43,359.26,31.34,358.37,31.34Z"/><path class="cls-1" d="M368.48,26.09a3.75,3.75,0,0,1,3.37-1.52c2.66,0,4.39,1.61,4.39,6.37s-1.73,6.38-4.39,6.38a3.77,3.77,0,0,1-3.37-1.52v1.12a3.44,3.44,0,0,1-1.19.16,3.14,3.14,0,0,1-1.14-.16V19.74a3,3,0,0,1,1.14-.17,3.25,3.25,0,0,1,1.19.17Zm2.55.39a2.65,2.65,0,0,0-2.55,2.94v3c0,1.61.91,3,2.55,3,1.87,0,2.8-1,2.8-4.46S372.9,26.48,371,26.48Z"/><path class="cls-1" d="M381.33,22.44a3.55,3.55,0,0,1-1.22.17,3.19,3.19,0,0,1-1.21-.17V20.25a3.36,3.36,0,0,1,1.21-.16,3.75,3.75,0,0,1,1.22.16Zm-.05,14.48a3.44,3.44,0,0,1-1.17.16,3.07,3.07,0,0,1-1.16-.16V25a2.91,2.91,0,0,1,1.16-.17,3.26,3.26,0,0,1,1.17.17Z"/><path class="cls-1" d="M386.37,31.67c.19,2.77,1.31,3.66,3.25,3.66a5.65,5.65,0,0,0,2.75-.68,2.46,2.46,0,0,1,.75,1.68,6.84,6.84,0,0,1-3.88,1c-3.59,0-5.28-2.22-5.28-6.45,0-4.41,2.08-6.3,5.19-6.3,2.87,0,4.62,1.59,4.62,4.69a9.93,9.93,0,0,1-.26,2.41Zm2.78-5.26c-1.52,0-2.59,1-2.78,3.6h5a8.84,8.84,0,0,0,.07-1.05C391.44,27.58,390.88,26.41,389.15,26.41Z"/><path class="cls-1" d="M406.24,24.57a2.77,2.77,0,0,1,0,1.84l-1.94-.09a4.21,4.21,0,0,1,.66,2.45c0,2.62-1.57,4.2-4.58,4.2a6.58,6.58,0,0,1-1-.07,2.08,2.08,0,0,0-.44,1.36c.26,2.15,7.31-.14,7.31,4.67,0,2.28-2.22,4-6,4-3.51,0-5-1.38-5-3.25a4,4,0,0,1,2.08-3.22,1.82,1.82,0,0,1-.51-1.35,4.17,4.17,0,0,1,1.12-2.59,3.82,3.82,0,0,1-2.13-3.74c0-2.61,1.59-4.2,4.58-4.2a5.62,5.62,0,0,1,2.59.54Zm-7.66,12.51a2.84,2.84,0,0,0-1.07,2.13c0,1.16.86,2,2.78,2,2.4,0,3.71-.86,3.71-2.1C404,37.25,400.68,37.74,398.58,37.08Zm1.8-10.88c-1.4,0-2.36.82-2.36,2.57a2.23,2.23,0,0,0,2.36,2.55c1.4,0,2.33-.8,2.33-2.55S401.78,26.2,400.38,26.2Z"/><path class="cls-1" d="M413.08,24.57c3.22,0,5.18,1.75,5.18,6.37s-2,6.38-5.18,6.38-5.18-1.76-5.18-6.38S409.88,24.57,413.08,24.57Zm0,1.8c-1.7,0-2.8,1-2.8,4.57s1.1,4.58,2.8,4.58,2.78-1,2.78-4.58S414.79,26.37,413.08,26.37Z"/><path class="cls-1" d="M429.22,30.59a15.43,15.43,0,0,1-.63-3.36h-.1a14.89,14.89,0,0,1-.65,3.36L426,36.92a4.37,4.37,0,0,1-1.33.16,4.76,4.76,0,0,1-1.35-.16l-3.53-12A3.39,3.39,0,0,1,421,24.8c.8,0,1,.17,1,.17l2.21,7.44a14.08,14.08,0,0,1,.49,2.29h.07a19.88,19.88,0,0,1,.52-2.29L427.39,25a5,5,0,0,1,1.27-.17,3,3,0,0,1,1.14.17l2.08,7.4a12.39,12.39,0,0,1,.46,2.33h.07a23,23,0,0,1,.59-2.31L435.19,25a2.73,2.73,0,0,1,1-.17,2.1,2.1,0,0,1,1,.17l-3.52,12a4.71,4.71,0,0,1-1.33.16,5.07,5.07,0,0,1-1.36-.16Z"/><path class="cls-1" d="M441.15,31.67c.19,2.77,1.31,3.66,3.24,3.66a5.66,5.66,0,0,0,2.76-.68,2.46,2.46,0,0,1,.75,1.68,6.88,6.88,0,0,1-3.88,1c-3.6,0-5.28-2.22-5.28-6.45,0-4.41,2.08-6.3,5.19-6.3,2.87,0,4.62,1.59,4.62,4.69a9.93,9.93,0,0,1-.26,2.41Zm2.78-5.26c-1.52,0-2.59,1-2.78,3.6h5a7.08,7.08,0,0,0,.07-1.05C446.21,27.58,445.65,26.41,443.93,26.41Z"/><path class="cls-1" d="M451.09,25a3,3,0,0,1,1.17-.17,3.26,3.26,0,0,1,1.17.17V39.14c0,2.47-1.19,3.78-3.39,3.78a5,5,0,0,1-1.56-.21,2.14,2.14,0,0,1-.07-.54,2.41,2.41,0,0,1,.23-1.19,4.19,4.19,0,0,0,.87.09c1.05,0,1.58-.56,1.58-1.84Zm2.39-2.55a3.75,3.75,0,0,1-1.22.16,3.36,3.36,0,0,1-1.21-.16V20.23a3.19,3.19,0,0,1,1.21-.17,3.55,3.55,0,0,1,1.22.17Z"/><polyline class="cls-2" points="28.69 8.55 43.15 29.96 28.69 51.45"/></svg>