<svg id="Warstwa_1" data-name="Warstwa 1" xmlns="http://www.w3.org/2000/svg" xmlns:xlink="http://www.w3.org/1999/xlink" viewBox="0 0 317.08 235.74"><defs><style>.cls-1{fill:url(#Gradient_bez_nazwy_12);}.cls-2{fill:none;stroke:#fff;stroke-miterlimit:10;stroke-width:3px;}.cls-3{fill:#0066b1;}</style><linearGradient id="Gradient_bez_nazwy_12" x1="158.57" y1="76.38" x2="158.57" y2="235.45" gradientUnits="userSpaceOnUse"><stop offset="0" stop-color="#c3d93a"/><stop offset="0.73" stop-color="#fff"/></linearGradient></defs><title>o_chlorchex</title><polygon class="cls-1" points="0.15 76.38 97.67 76.38 159.86 108.75 221.51 76.38 316.98 76.38 316.98 235.45 0.15 235.45 0.15 76.38"/><polyline class="cls-2" points="0.56 82.14 95.48 82.14 158.77 117.17 224.24 82.14 317.53 82.14"/><path class="cls-3" d="M132.44,130.21c4.6,0,7.31,2.36,7.31,9s-2.71,9-7.31,9h-5.53V130.21Zm-.18,15.8c2.92,0,4.78-1.24,4.78-6.84s-1.86-6.85-4.78-6.85h-2.81V146Z"/><path class="cls-3" d="M151.41,146.09a2.82,2.82,0,0,1,.15,1,3.17,3.17,0,0,1-.15,1h-9.24a4.67,4.67,0,0,1-.15-1.07,3.47,3.47,0,0,1,.15-1l6.62-9H142.6a3.5,3.5,0,0,1-.15-1.05,2.73,2.73,0,0,1,.15-1h8.81a2.53,2.53,0,0,1,.15,1,3.37,3.37,0,0,1-.15,1.07l-6.6,9Z"/><path class="cls-3" d="M157.11,132.52a3.82,3.82,0,0,1-1.3.18,3.45,3.45,0,0,1-1.29-.18v-2.34a3.63,3.63,0,0,1,1.29-.17,4,4,0,0,1,1.3.17ZM157.06,148a3.46,3.46,0,0,1-1.25.18,3.12,3.12,0,0,1-1.24-.18V135.21a3.28,3.28,0,0,1,1.24-.17,3.64,3.64,0,0,1,1.25.17Z"/><path class="cls-3" d="M165.27,134.79c3.61,0,4.76,1.62,4.76,4.83V148a1.93,1.93,0,0,1-1,.18,2.47,2.47,0,0,1-1-.18l-.37-1.59c-.65,1.32-2,2-3.91,2-2.34,0-3.86-1.37-3.86-4.16s1.67-3.91,4.78-3.91a28.06,28.06,0,0,1,2.84.15v-.92c0-1.69-.65-2.66-2.57-2.66a10.36,10.36,0,0,0-3.33.62,2,2,0,0,1-.57-.75,2.06,2.06,0,0,1-.15-1A10.77,10.77,0,0,1,165.27,134.79ZM165,142c-1.66,0-2.53.64-2.53,2.21s.82,2.24,2.16,2.24c2,0,2.89-1.67,2.89-3.43v-.88C167,142.11,166,142,165,142Z"/><path class="cls-3" d="M176,129.46a3.53,3.53,0,0,1,1.25.18v6.84l1.74-1a2.21,2.21,0,0,1,.5.57,2,2,0,0,1,.27.77l-2.51,1.47V148a3.53,3.53,0,0,1-1.25.18,3.12,3.12,0,0,1-1.24-.18v-8.21l-1.67.95a2,2,0,0,1-.47-.58,1.71,1.71,0,0,1-.3-.77l2.44-1.39v-8.31A3.12,3.12,0,0,1,176,129.46Z"/><path class="cls-3" d="M186.63,134.79c3.61,0,4.76,1.62,4.76,4.83V148a2,2,0,0,1-1,.18,2.45,2.45,0,0,1-1-.18l-.37-1.59c-.65,1.32-2,2-3.91,2-2.34,0-3.86-1.37-3.86-4.16s1.67-3.91,4.78-3.91a28.06,28.06,0,0,1,2.84.15v-.92c0-1.69-.65-2.66-2.57-2.66a10.36,10.36,0,0,0-3.33.62,1.75,1.75,0,0,1-.57-.75,2.06,2.06,0,0,1-.15-1A10.77,10.77,0,0,1,186.63,134.79Zm-.25,7.22c-1.66,0-2.54.64-2.54,2.21s.83,2.24,2.17,2.24c2,0,2.89-1.67,2.89-3.43v-.88C188.32,142.11,187.33,142,186.38,142Z"/><path class="cls-3" d="M79.15,160.7c3.61,0,4.76,1.62,4.76,4.83v8.34a2,2,0,0,1-1,.17,2.59,2.59,0,0,1-1-.17l-.37-1.59c-.65,1.31-2,2-3.91,2-2.34,0-3.86-1.37-3.86-4.15s1.67-3.91,4.78-3.91a25.39,25.39,0,0,1,2.84.15v-.92c0-1.7-.65-2.67-2.57-2.67a10.22,10.22,0,0,0-3.33.63,2.18,2.18,0,0,1-.57-.75,2.09,2.09,0,0,1-.15-1A10.77,10.77,0,0,1,79.15,160.7Zm-.25,7.22c-1.66,0-2.53.65-2.53,2.22s.82,2.24,2.16,2.24c2,0,2.89-1.67,2.89-3.44v-.87C80.85,168,79.85,167.92,78.9,167.92Z"/><path class="cls-3" d="M97.55,173.87a3.64,3.64,0,0,1-1.25.17,3.47,3.47,0,0,1-1.24-.17v-9c0-1.39-.72-2.19-2.31-2.19a3.43,3.43,0,0,0-2.82,1.59v9.56a3.75,3.75,0,0,1-1.24.17,3.37,3.37,0,0,1-1.25-.17V161.13a3.21,3.21,0,0,1,1.25-.18,3.57,3.57,0,0,1,1.24.18v1.14a4.83,4.83,0,0,1,3.76-1.57,3.52,3.52,0,0,1,3.86,3.76Z"/><path class="cls-3" d="M104.45,169.34c0,2.26.72,2.94,2.48,2.94a6.85,6.85,0,0,0,1-.1,3.17,3.17,0,0,1,0,1.89,7.4,7.4,0,0,1-1.79.22c-3.06,0-4.28-1.67-4.28-4.83v-6.64H100a2.54,2.54,0,0,1-.15-.92,2.49,2.49,0,0,1,.15-1H102v-2.26a4.25,4.25,0,0,1,2.49-.5V161h3.23a2.41,2.41,0,0,1,.15.92,2.75,2.75,0,0,1-.15.95h-3.23Z"/><path class="cls-3" d="M116.47,176c-.9,2.74-1.77,4.3-4.46,4.3a3.64,3.64,0,0,1-1.36-.24,2.92,2.92,0,0,1-.18-.93,2.41,2.41,0,0,1,.2-1,7.13,7.13,0,0,0,1.12.1c1.12,0,1.69-.3,2.44-2.64l.52-1.52a2.34,2.34,0,0,1-.79-.17l-4.73-12.74a3.93,3.93,0,0,1,1.29-.18,3.82,3.82,0,0,1,1.3.18l2.83,7.56a24.21,24.21,0,0,1,.87,2.91h.1s.25-1.17.8-2.88l2.46-7.59a3.24,3.24,0,0,1,1.22-.18,3.43,3.43,0,0,1,1.17.18Z"/><path class="cls-3" d="M126.13,162.32a4,4,0,0,1,3.58-1.62c2.84,0,4.68,1.72,4.68,6.8s-1.84,6.79-4.68,6.79a4,4,0,0,1-3.58-1.62v1.2a3.71,3.71,0,0,1-1.27.17,3.41,3.41,0,0,1-1.22-.17V155.55a3.41,3.41,0,0,1,1.22-.17,3.71,3.71,0,0,1,1.27.17Zm2.71.42c-1.74,0-2.71,1.45-2.71,3.14v3.19c0,1.71,1,3.18,2.71,3.18,2,0,3-1,3-4.75S130.83,162.74,128.84,162.74Z"/><path class="cls-3" d="M142,160.7c3.61,0,4.75,1.62,4.75,4.83v8.34a2,2,0,0,1-1,.17,2.57,2.57,0,0,1-1-.17l-.38-1.59c-.64,1.31-2,2-3.9,2-2.34,0-3.86-1.37-3.86-4.15s1.67-3.91,4.78-3.91a25.39,25.39,0,0,1,2.84.15v-.92c0-1.7-.65-2.67-2.57-2.67a10.22,10.22,0,0,0-3.33.63,2,2,0,0,1-.58-.75,2.15,2.15,0,0,1-.14-1A10.77,10.77,0,0,1,142,160.7Zm-.25,7.22c-1.67,0-2.54.65-2.54,2.22s.82,2.24,2.17,2.24c2,0,2.89-1.67,2.89-3.44v-.87C143.7,168,142.71,167.92,141.76,167.92Z"/><path class="cls-3" d="M157.59,161.13a4.1,4.1,0,0,1,1.27-.18,4.86,4.86,0,0,1,1.22.15l-3.83,6,4.4,6.82a4.37,4.37,0,0,1-1.39.2,3.86,3.86,0,0,1-1.34-.2l-3.74-5.73h-1.39v5.73a4.16,4.16,0,0,1-1.22.17,4.08,4.08,0,0,1-1.27-.17V155.5a6,6,0,0,1,1.27-.12,6.38,6.38,0,0,1,1.22.12v10.78h1.42Z"/><path class="cls-3" d="M166.11,169.34c0,2.26.72,2.94,2.49,2.94a6.82,6.82,0,0,0,1-.1,2.76,2.76,0,0,1,.18,1,2.67,2.67,0,0,1-.13.9,7.4,7.4,0,0,1-1.79.22c-3.06,0-4.28-1.67-4.28-4.83v-6.64H161.7a2.54,2.54,0,0,1-.15-.92,2.49,2.49,0,0,1,.15-1h1.92v-2.26a4.27,4.27,0,0,1,2.49-.5V161h3.23a2.41,2.41,0,0,1,.15.92,2.75,2.75,0,0,1-.15.95h-3.23Z"/><path class="cls-3" d="M174.2,168.27c.2,3,1.39,3.91,3.46,3.91a6,6,0,0,0,2.93-.72,2.51,2.51,0,0,1,.8,1.79,7.37,7.37,0,0,1-4.13,1c-3.83,0-5.63-2.36-5.63-6.87,0-4.7,2.22-6.72,5.53-6.72,3.06,0,4.93,1.7,4.93,5a10.42,10.42,0,0,1-.28,2.56Zm3-5.6c-1.62,0-2.76,1.07-3,3.83h5.32a7.5,7.5,0,0,0,.08-1.12C179.6,163.91,179,162.67,177.16,162.67Z"/><path class="cls-3" d="M190.53,160.73a3.87,3.87,0,0,1,2.16.62,2.8,2.8,0,0,1-1.09,2.09,2.52,2.52,0,0,0-1.55-.52,3.23,3.23,0,0,0-2.56,1.89v9.06a3.61,3.61,0,0,1-1.24.17,3.37,3.37,0,0,1-1.25-.17V161.13a3.21,3.21,0,0,1,1.25-.18,3.43,3.43,0,0,1,1.24.18v1.71C188.44,161.28,189.53,160.73,190.53,160.73Z"/><path class="cls-3" d="M200.73,176c-.89,2.74-1.76,4.3-4.45,4.3a3.73,3.73,0,0,1-1.37-.24,3.07,3.07,0,0,1-.17-.93,2.24,2.24,0,0,1,.2-1,7,7,0,0,0,1.12.1c1.12,0,1.69-.3,2.43-2.64L199,174a2.39,2.39,0,0,1-.8-.17l-4.73-12.74a4,4,0,0,1,1.3-.18,3.79,3.79,0,0,1,1.29.18l2.84,7.56a24.21,24.21,0,0,1,.87,2.91h.1s.25-1.17.79-2.88l2.47-7.59a3.24,3.24,0,0,1,1.22-.18,3.43,3.43,0,0,1,1.17.18Z"/><path class="cls-3" d="M208,161.13a3.21,3.21,0,0,1,1.25-.18,3.43,3.43,0,0,1,1.24.18v15.1c0,2.64-1.27,4-3.61,4a5.42,5.42,0,0,1-1.66-.22,2.07,2.07,0,0,1-.08-.57,2.56,2.56,0,0,1,.25-1.27,4.2,4.2,0,0,0,.92.1c1.12,0,1.69-.6,1.69-2Zm2.54-2.72a3.79,3.79,0,0,1-1.29.18,3.39,3.39,0,0,1-1.29-.18v-2.34a3.57,3.57,0,0,1,1.29-.17,4,4,0,0,1,1.29.17Z"/><path class="cls-3" d="M224.23,173.87A3.61,3.61,0,0,1,223,174a3.51,3.51,0,0,1-1.25-.17v-9c0-1.39-.72-2.19-2.31-2.19a3.4,3.4,0,0,0-2.81,1.59v9.56a3.86,3.86,0,0,1-1.25.17,3.28,3.28,0,0,1-1.24-.17V161.13a3.12,3.12,0,0,1,1.24-.18,3.66,3.66,0,0,1,1.25.18v1.14a4.81,4.81,0,0,1,3.75-1.57,3.52,3.52,0,0,1,3.86,3.76Z"/><path class="cls-3" d="M230.38,158.44a3.92,3.92,0,0,1-1.29.17,3.67,3.67,0,0,1-1.3-.17V156.1a3.48,3.48,0,0,1,1.3-.18,3.72,3.72,0,0,1,1.29.18Zm0,15.43a3.61,3.61,0,0,1-1.24.17,3.37,3.37,0,0,1-1.25-.17V161.13a3.21,3.21,0,0,1,1.25-.18,3.43,3.43,0,0,1,1.24.18Z"/><path class="cls-3" d="M236,168.27c.2,3,1.39,3.91,3.46,3.91a6.05,6.05,0,0,0,2.94-.72,2.54,2.54,0,0,1,.79,1.79,7.37,7.37,0,0,1-4.13,1c-3.83,0-5.62-2.36-5.62-6.87,0-4.7,2.21-6.72,5.52-6.72,3.06,0,4.93,1.7,4.93,5a10.42,10.42,0,0,1-.28,2.56Zm3-5.6c-1.62,0-2.76,1.07-3,3.83h5.32a7.5,7.5,0,0,0,.08-1.12C241.41,163.91,240.81,162.67,239,162.67Z"/><path class="cls-3" d="M55.73,184.35a3.79,3.79,0,0,1-1.29.18,3.48,3.48,0,0,1-1.3-.18V182a3.67,3.67,0,0,1,1.3-.17,4,4,0,0,1,1.29.17Zm0,15.43a3.43,3.43,0,0,1-1.24.18,3.21,3.21,0,0,1-1.25-.18V187a3.37,3.37,0,0,1,1.25-.17,3.61,3.61,0,0,1,1.24.17Z"/><path class="cls-3" d="M71,186.62c2.84,0,4.68,1.72,4.68,6.79s-1.84,6.8-4.68,6.8a4,4,0,0,1-3.58-1.62v7a4.24,4.24,0,0,1-1.27.15,3.82,3.82,0,0,1-1.22-.15V187a3.41,3.41,0,0,1,1.22-.17,3.78,3.78,0,0,1,1.27.17v1.2A4,4,0,0,1,71,186.62Zm-.87,2c-1.74,0-2.71,1.44-2.71,3.14V195c0,1.72,1,3.19,2.71,3.19,2,0,3-1,3-4.76S72.16,188.66,70.17,188.66Z"/><path class="cls-3" d="M84.36,186.64a3.87,3.87,0,0,1,2.16.63,2.82,2.82,0,0,1-1.09,2.09,2.5,2.5,0,0,0-1.54-.53,3.24,3.24,0,0,0-2.57,1.89v9.06a3.43,3.43,0,0,1-1.24.18,3.21,3.21,0,0,1-1.25-.18V187a3.37,3.37,0,0,1,1.25-.17,3.61,3.61,0,0,1,1.24.17v1.72C82.27,187.19,83.36,186.64,84.36,186.64Z"/><path class="cls-3" d="M97.15,197.92a2.82,2.82,0,0,1,.15,1,3.17,3.17,0,0,1-.15,1H87.92a4.67,4.67,0,0,1-.15-1.07,3.47,3.47,0,0,1,.15-1l6.62-9h-6.2a3.42,3.42,0,0,1-.15-1,2.73,2.73,0,0,1,.15-1h8.81a2.53,2.53,0,0,1,.15,1,3.37,3.37,0,0,1-.15,1.07l-6.59,9Z"/><path class="cls-3" d="M102.26,194.18c.2,3,1.39,3.91,3.46,3.91a6.05,6.05,0,0,0,2.94-.72,2.58,2.58,0,0,1,.79,1.79,7.32,7.32,0,0,1-4.13,1.05c-3.83,0-5.62-2.37-5.62-6.87,0-4.71,2.21-6.72,5.52-6.72,3.06,0,4.93,1.69,4.93,5a10.32,10.32,0,0,1-.28,2.56Zm3-5.59c-1.62,0-2.76,1.06-3,3.83h5.33a10,10,0,0,0,.07-1.12C107.66,189.83,107.06,188.59,105.22,188.59Z"/><path class="cls-3" d="M115.05,193.41c0,3.26,1,4.68,3.44,4.68a6.44,6.44,0,0,0,2.34-.42,2.64,2.64,0,0,1,.72,1.79,6.75,6.75,0,0,1-3.58.75c-3.64,0-5.48-2.37-5.48-6.8s1.84-6.79,5.48-6.79a6.52,6.52,0,0,1,3.33.62,2.52,2.52,0,0,1-.72,1.79,6.09,6.09,0,0,0-2.19-.37C116,188.66,115.05,190.18,115.05,193.41Z"/><path class="cls-3" d="M126.78,184.35a3.82,3.82,0,0,1-1.3.18,3.45,3.45,0,0,1-1.29-.18V182a3.63,3.63,0,0,1,1.29-.17,4,4,0,0,1,1.3.17Zm0,15.43a3.46,3.46,0,0,1-1.25.18,3.12,3.12,0,0,1-1.24-.18V187a3.28,3.28,0,0,1,1.24-.17,3.64,3.64,0,0,1,1.25.17Z"/><path class="cls-3" d="M139.27,193a17.46,17.46,0,0,1-.67-3.58h-.1a16.31,16.31,0,0,1-.69,3.58l-2,6.74a4.63,4.63,0,0,1-1.42.18,5,5,0,0,1-1.44-.18L129.22,187a3.83,3.83,0,0,1,1.24-.17,2,2,0,0,1,1.07.17L133.9,195a15.5,15.5,0,0,1,.52,2.44h.08A21,21,0,0,1,135,195l2.29-7.94a5.5,5.5,0,0,1,1.35-.17,3.41,3.41,0,0,1,1.22.17l2.21,7.89a13.28,13.28,0,0,1,.5,2.49h.07a23.41,23.41,0,0,1,.63-2.46l2.34-7.92a3,3,0,0,1,1.09-.17,2.38,2.38,0,0,1,1.07.17l-3.76,12.74a4.93,4.93,0,0,1-1.42.18,5.22,5.22,0,0,1-1.44-.18Z"/><path class="cls-3" d="M160.71,186.62a3,3,0,0,1,0,2l-2.07-.1a4.53,4.53,0,0,1,.7,2.61c0,2.79-1.67,4.48-4.88,4.48a7.14,7.14,0,0,1-1.09-.08,2.19,2.19,0,0,0-.48,1.45c.28,2.29,7.79-.15,7.79,5,0,2.44-2.36,4.26-6.39,4.26-3.74,0-5.3-1.47-5.3-3.46a4.2,4.2,0,0,1,2.21-3.43,2,2,0,0,1-.55-1.45,4.5,4.5,0,0,1,1.2-2.76,4,4,0,0,1-2.27-4c0-2.79,1.7-4.48,4.88-4.48a6,6,0,0,1,2.76.57ZM152.54,200a3,3,0,0,0-1.14,2.26c0,1.25.92,2.19,3,2.19,2.56,0,4-.92,4-2.24C158.32,200.13,154.78,200.66,152.54,200Zm1.92-11.6c-1.49,0-2.51.87-2.51,2.74s1,2.71,2.51,2.71S157,193,157,191.1,156,188.36,154.46,188.36Z"/><path class="cls-3" d="M168.82,186.64a3.93,3.93,0,0,1,2.17.63,2.83,2.83,0,0,1-1.1,2.09,2.5,2.5,0,0,0-1.54-.53,3.23,3.23,0,0,0-2.56,1.89v9.06a3.46,3.46,0,0,1-1.25.18,3.12,3.12,0,0,1-1.24-.18V187a3.28,3.28,0,0,1,1.24-.17,3.64,3.64,0,0,1,1.25.17v1.72C166.73,187.19,167.83,186.64,168.82,186.64Z"/><path class="cls-3" d="M181.62,197.92a2.82,2.82,0,0,1,.15,1,3.17,3.17,0,0,1-.15,1h-9.23a4.18,4.18,0,0,1-.15-1.07,3.13,3.13,0,0,1,.15-1l6.62-9h-6.2a3.42,3.42,0,0,1-.15-1,2.73,2.73,0,0,1,.15-1h8.81a2.53,2.53,0,0,1,.15,1,3.37,3.37,0,0,1-.15,1.07l-6.6,9Z"/><path class="cls-3" d="M190.66,201.87c-.9,2.74-1.77,4.31-4.46,4.31a3.6,3.6,0,0,1-1.37-.25,2.89,2.89,0,0,1-.17-.92,2.31,2.31,0,0,1,.2-1,7,7,0,0,0,1.12.1c1.12,0,1.69-.29,2.44-2.63l.52-1.52a2.48,2.48,0,0,1-.8-.18L183.41,187a4.25,4.25,0,0,1,1.3-.17A4,4,0,0,1,186,187l2.84,7.57a23.6,23.6,0,0,1,.87,2.91h.1s.25-1.17.8-2.89l2.46-7.59a3.41,3.41,0,0,1,1.22-.17,3.61,3.61,0,0,1,1.17.17Z"/><path class="cls-3" d="M200.32,188.24a4,4,0,0,1,3.58-1.62c2.84,0,4.68,1.72,4.68,6.79s-1.84,6.8-4.68,6.8a4,4,0,0,1-3.58-1.62v1.19a3.59,3.59,0,0,1-1.27.18,3.18,3.18,0,0,1-1.22-.18V181.47a3.18,3.18,0,0,1,1.22-.18,3.59,3.59,0,0,1,1.27.18Zm2.71.42c-1.75,0-2.71,1.44-2.71,3.14V195c0,1.72,1,3.19,2.71,3.19,2,0,3-1,3-4.76S205,188.66,203,188.66Z"/><path class="cls-3" d="M214.26,184.35a3.82,3.82,0,0,1-1.3.18,3.45,3.45,0,0,1-1.29-.18V182a3.63,3.63,0,0,1,1.29-.17,4,4,0,0,1,1.3.17Zm0,15.43A3.53,3.53,0,0,1,213,200a3.12,3.12,0,0,1-1.24-.18V187a3.28,3.28,0,0,1,1.24-.17,3.71,3.71,0,0,1,1.25.17Z"/><path class="cls-3" d="M219.88,193.41c0,3.26,1.05,4.68,3.44,4.68a6.51,6.51,0,0,0,2.34-.42,2.64,2.64,0,0,1,.72,1.79,6.77,6.77,0,0,1-3.59.75c-3.63,0-5.47-2.37-5.47-6.8s1.84-6.79,5.47-6.79a6.59,6.59,0,0,1,3.34.62,2.57,2.57,0,0,1-.72,1.79,6.16,6.16,0,0,0-2.19-.37C220.83,188.66,219.88,190.18,219.88,193.41Z"/><path class="cls-3" d="M237.53,197.92a2.82,2.82,0,0,1,.15,1,3.17,3.17,0,0,1-.15,1H228.3a4.18,4.18,0,0,1-.15-1.07,3.13,3.13,0,0,1,.15-1l6.62-9h-6.2a3.42,3.42,0,0,1-.15-1,2.73,2.73,0,0,1,.15-1h8.81a2.53,2.53,0,0,1,.15,1,3.37,3.37,0,0,1-.15,1.07l-6.6,9Z"/><path class="cls-3" d="M245.42,186.62c3.44,0,5.53,1.87,5.53,6.79s-2.12,6.8-5.53,6.8-5.52-1.87-5.52-6.8S242,186.62,245.42,186.62Zm0,1.92c-1.81,0-3,1-3,4.87s1.17,4.88,3,4.88,3-1,3-4.88S247.24,188.54,245.42,188.54Z"/><path class="cls-3" d="M256,180.48a14,14,0,0,0,0,13.09,1,1,0,0,1-.45.42,1.63,1.63,0,0,1-.63.16,13.87,13.87,0,0,1,0-14.25,1.22,1.22,0,0,1,.61.16A1.17,1.17,0,0,1,256,180.48Z"/><path class="cls-3" d="M259.41,181.9a1.82,1.82,0,0,1,.71-.1,2,2,0,0,1,.71.1v9.67a2,2,0,0,1-.73.1,2.4,2.4,0,0,1-.74-.1v-5.95c0-.77,0-1.41.08-1.89a5.39,5.39,0,0,1-2.46,1.32,1.32,1.32,0,0,1-.34-1.2A4.61,4.61,0,0,0,259.41,181.9Z"/><path class="cls-3" d="M262.66,180.48a1.25,1.25,0,0,1,.48-.42,1.22,1.22,0,0,1,.61-.16,13.87,13.87,0,0,1,0,14.25,1.63,1.63,0,0,1-.63-.16,1.11,1.11,0,0,1-.46-.42,13.88,13.88,0,0,0,0-13.09Z"/><path class="cls-3" d="M121.69,19.26c0-9.06,3.28-12.89,9.13-12.89S140,10.09,140,19.26s-3.35,12.89-9.21,12.89S121.69,28.43,121.69,19.26Zm3.9,0c0,7.62,1.84,9.76,5.23,9.76s5.23-2.14,5.23-9.76-1.77-9.76-5.23-9.76S125.59,11.6,125.59,19.26Z"/><path class="cls-3" d="M144.48,35.46a6.45,6.45,0,0,0,1.36-3.68,2.76,2.76,0,0,1-1.21-.26V28.06a5.69,5.69,0,0,1,1.91-.26,5.79,5.79,0,0,1,1.92.26v2.32a7.82,7.82,0,0,1-2.65,6Z"/><path class="cls-3" d="M153.61,7.7a17.74,17.74,0,0,1,6.81-1.33c4.46,0,8,1.88,8,6.74,0,4.6-2.65,6.22-7,8.87-2.18,1.37-5.2,2.65-5.2,5.67a3.4,3.4,0,0,0,.08.81h11.48a3.17,3.17,0,0,1,.37,1.66,3.66,3.66,0,0,1-.37,1.66H152.87a15.23,15.23,0,0,1-.22-2.47c0-5.74,3.72-7.81,7.11-10s4.9-3.32,4.9-6.08c0-2.25-1.48-3.79-4.83-3.79a17,17,0,0,0-5.19.92A2.81,2.81,0,0,1,153.61,7.7Z"/><path class="cls-3" d="M182.88,14.55c0,5-2.61,7.54-5.71,7.54s-5.56-2.39-5.59-7.18,2.57-7.47,5.81-7.47S182.88,10,182.88,14.55Zm-8.76.22c-.08,3.05,1.1,5.37,3.13,5.37s3.09-2.28,3.09-5.41c0-3-.85-5.34-3.13-5.34C175.22,9.39,174.12,11.78,174.12,14.77Zm2.79,17.45L191,7.4h2.06L179,32.22Zm21.58-7.73c0,5-2.61,7.54-5.71,7.54s-5.56-2.39-5.59-7.21,2.57-7.48,5.81-7.48S198.49,19.92,198.49,24.49Zm-8.76.22c-.08,3.05,1.1,5.37,3.13,5.37S196,27.8,196,24.63c0-2.9-.85-5.33-3.13-5.33C190.83,19.3,189.73,21.69,189.73,24.71Z"/><path class="cls-3" d="M44.18,39.9a13.69,13.69,0,0,1,6.29,1.25,3.65,3.65,0,0,1-1.1,2.8,14.31,14.31,0,0,0-4.75-.85c-4.27,0-7.26,2.25-7.26,10.46s3,10.31,7.26,10.31A15.72,15.72,0,0,0,49.74,63a4.17,4.17,0,0,1,1.14,2.87,15.51,15.51,0,0,1-6.7,1.26c-7,0-10.72-4.64-10.72-13.63S37.11,39.9,44.18,39.9Z"/><path class="cls-3" d="M69.65,66.52a5.19,5.19,0,0,1-1.84.26A5,5,0,0,1,66,66.52V53.26C66,51.2,64.9,50,62.55,50a5,5,0,0,0-4.16,2.36V66.52a5.57,5.57,0,0,1-1.85.26,4.8,4.8,0,0,1-1.84-.26V39.42a4.8,4.8,0,0,1,1.84-.26,5.57,5.57,0,0,1,1.85.26v9.94A7.12,7.12,0,0,1,64,47c3.68,0,5.7,2.25,5.7,5.56Z"/><path class="cls-3" d="M78.71,66.52a5.26,5.26,0,0,1-1.84.26A4.74,4.74,0,0,1,75,66.52V39.42a4.74,4.74,0,0,1,1.84-.26,5.26,5.26,0,0,1,1.84.26Z"/><path class="cls-3" d="M91.52,47c5.08,0,8.17,2.76,8.17,10.05s-3.13,10.06-8.17,10.06-8.17-2.77-8.17-10.06S86.48,47,91.52,47Zm0,2.84c-2.69,0-4.42,1.54-4.42,7.21s1.73,7.22,4.42,7.22,4.38-1.55,4.38-7.22S94.21,49.88,91.52,49.88Z"/><path class="cls-3" d="M112.4,47.08a5.75,5.75,0,0,1,3.2.92A4.18,4.18,0,0,1,114,51.09a3.75,3.75,0,0,0-2.28-.77c-1.44,0-2.84,1.1-3.8,2.8v13.4a5.19,5.19,0,0,1-1.84.26,4.74,4.74,0,0,1-1.84-.26V47.67a4.74,4.74,0,0,1,1.84-.26,5.19,5.19,0,0,1,1.84.26v2.54C109.3,47.89,110.92,47.08,112.4,47.08Z"/><path class="cls-3" d="M133.68,66.52a5.29,5.29,0,0,1-1.85.26,5,5,0,0,1-1.84-.26V53.26c0-2.06-1.06-3.24-3.42-3.24a5.05,5.05,0,0,0-4.16,2.36V66.52a5.47,5.47,0,0,1-1.84.26,4.74,4.74,0,0,1-1.84-.26V39.42a4.74,4.74,0,0,1,1.84-.26,5.47,5.47,0,0,1,1.84.26v9.94A7.12,7.12,0,0,1,128,47c3.68,0,5.71,2.25,5.71,5.56Z"/><path class="cls-3" d="M141.88,58.24C142.18,62.62,144,64,147,64A8.92,8.92,0,0,0,151.35,63a3.82,3.82,0,0,1,1.18,2.65,10.86,10.86,0,0,1-6.12,1.55c-5.67,0-8.32-3.5-8.32-10.17,0-7,3.28-9.94,8.18-9.94,4.52,0,7.29,2.51,7.29,7.4a15.63,15.63,0,0,1-.41,3.8ZM146.27,50c-2.4,0-4.09,1.58-4.39,5.67h7.88a12.16,12.16,0,0,0,.11-1.66C149.87,51.79,149,50,146.27,50Z"/><path class="cls-3" d="M168.65,47.67a6.2,6.2,0,0,1,1.88-.26,7.24,7.24,0,0,1,1.8.22l-5.67,8.8,6.52,10.09a6.68,6.68,0,0,1-2.06.29,5.94,5.94,0,0,1-2-.29l-5.52-8.47h-2.07v8.47a6.64,6.64,0,0,1-3.68,0V39.35a8.31,8.31,0,0,1,1.88-.19,8.79,8.79,0,0,1,1.8.19V55.29h2.1Z"/><path class="cls-3" d="M182.38,47c3.61,0,5.19,1,5.19,1a3.77,3.77,0,0,1-.95,2.61,13.67,13.67,0,0,0-3.87-.59c-2.5,0-3.76.92-3.76,2.65s2.32,2.25,4.64,3,4.9,1.92,4.9,5.52-2.32,5.9-7,5.9a13.06,13.06,0,0,1-6.14-1.33,3.74,3.74,0,0,1,1-2.72,15.68,15.68,0,0,0,5,.92c2.25,0,3.54-.85,3.54-2.66,0-2-2-2.46-4.2-3.09-2.51-.73-5.23-1.8-5.23-5.45C175.46,49.36,177.71,47,182.38,47Z"/><path class="cls-3" d="M201.2,69.61c-1.33,4-2.62,6.37-6.6,6.37a5.29,5.29,0,0,1-2-.37,4.14,4.14,0,0,1-.26-1.36,3.39,3.39,0,0,1,.3-1.47,10.33,10.33,0,0,0,1.65.15c1.66,0,2.51-.45,3.61-3.91l.77-2.24a3.76,3.76,0,0,1-1.17-.26l-7-18.85a6,6,0,0,1,1.92-.26,5.69,5.69,0,0,1,1.91.26l4.2,11.19a35.21,35.21,0,0,1,1.29,4.31h.14s.37-1.73,1.18-4.27l3.65-11.23a4.87,4.87,0,0,1,1.8-.26,5.14,5.14,0,0,1,1.73.26Z"/><path class="cls-3" d="M224.76,39.16a4.87,4.87,0,0,1,1.8.26v27.1a4.34,4.34,0,0,1-1.54.26,5.56,5.56,0,0,1-1.66-.26l-.26-2c-1.07,1.62-2.76,2.62-5.52,2.62-4.2,0-6.92-2.54-6.92-10.06S213.38,47,217.58,47c2.58,0,4.23.89,5.3,2.4v-10A5.38,5.38,0,0,1,224.76,39.16Zm-5.89,10.9c-3,0-4.42,1.55-4.42,7s1.47,7,4.42,7c2.57,0,4-2.18,4-4.72V54.66C222.84,52.2,221.41,50.06,218.87,50.06Z"/><path class="cls-3" d="M240.7,69.61c-1.33,4-2.62,6.37-6.59,6.37a5.31,5.31,0,0,1-2-.37,4.29,4.29,0,0,1-.25-1.36,3.46,3.46,0,0,1,.29-1.47,10.37,10.37,0,0,0,1.66.15c1.65,0,2.5-.45,3.61-3.91l.77-2.24a3.82,3.82,0,0,1-1.18-.26l-7-18.85a6,6,0,0,1,1.92-.26,5.69,5.69,0,0,1,1.91.26L238,58.86a35.21,35.21,0,0,1,1.29,4.31h.15s.37-1.73,1.18-4.27l3.64-11.23a4.9,4.9,0,0,1,1.81-.26,5.21,5.21,0,0,1,1.73.26Z"/><path class="cls-3" d="M266.25,66.52a5.26,5.26,0,0,1-1.84.26,5,5,0,0,1-1.84-.26V53.26c0-2.06-1.07-3.24-3.43-3.24A5.05,5.05,0,0,0,255,52.38V66.52a5.47,5.47,0,0,1-1.84.26,4.74,4.74,0,0,1-1.84-.26V47.67a4.74,4.74,0,0,1,1.84-.26,5.47,5.47,0,0,1,1.84.26v1.69A7.14,7.14,0,0,1,260.54,47c3.68,0,5.71,2.25,5.71,5.56Z"/><path class="cls-3" d="M278.21,47c5.34,0,7,2.4,7,7.15V66.52a2.91,2.91,0,0,1-1.44.26,3.72,3.72,0,0,1-1.47-.26l-.56-2.36c-.95,2-3,3-5.78,3-3.46,0-5.7-2-5.7-6.15s2.46-5.78,7.07-5.78a39.45,39.45,0,0,1,4.19.22V54.07c0-2.5-.95-3.94-3.79-3.94a15.14,15.14,0,0,0-4.93.93A3,3,0,0,1,272,50a3.21,3.21,0,0,1-.22-1.55A16,16,0,0,1,278.21,47Zm-.36,10.68c-2.47,0-3.76,1-3.76,3.28s1.21,3.31,3.2,3.31c2.91,0,4.27-2.47,4.27-5.08V57.94C280.72,57.87,279.24,57.72,277.85,57.72Z"/></svg>