<svg id="Warstwa_1" data-name="Warstwa 1" xmlns="http://www.w3.org/2000/svg" xmlns:xlink="http://www.w3.org/1999/xlink" viewBox="0 0 317.08 235.74"><defs><style>.cls-1{fill:url(#Gradient_bez_nazwy_12);}.cls-2{fill:none;stroke:#fff;stroke-miterlimit:10;stroke-width:3px;}.cls-3{fill:#0066b1;}</style><linearGradient id="Gradient_bez_nazwy_12" x1="158.57" y1="76.38" x2="158.57" y2="235.45" gradientUnits="userSpaceOnUse"><stop offset="0" stop-color="#c3d93a"/><stop offset="0.73" stop-color="#fff"/></linearGradient></defs><title>o_glicerolu</title><polygon class="cls-1" points="0.15 76.38 97.67 76.38 159.86 108.75 221.51 76.38 316.98 76.38 316.98 235.45 0.15 235.45 0.15 76.38"/><polyline class="cls-2" points="0.56 82.14 95.48 82.14 158.77 117.17 224.24 82.14 317.53 82.14"/><path class="cls-3" d="M118.78,144.33a3.64,3.64,0,0,1-1.25.17,3.44,3.44,0,0,1-1.29-.17V126.58h6.5a5.47,5.47,0,0,1,0,10.93h-4Zm3.63-8.94c2,0,3-1.24,3-3.33s-1.07-3.36-3-3.36h-3.63v6.69Z"/><path class="cls-3" d="M135.56,131.16c3.43,0,5.52,1.87,5.52,6.79s-2.11,6.8-5.52,6.8S130,142.88,130,138,132.15,131.16,135.56,131.16Zm0,1.92c-1.82,0-3,1-3,4.87s1.17,4.88,3,4.88,3-1,3-4.88S137.37,133.08,135.56,133.08Z"/><path class="cls-3" d="M153.13,125.83a3.24,3.24,0,0,1,1.22.18v18.32a3.05,3.05,0,0,1-1,.17,3.86,3.86,0,0,1-1.12-.17L152,143a4.08,4.08,0,0,1-3.73,1.77c-2.84,0-4.68-1.72-4.68-6.8s1.84-6.79,4.68-6.79a4,4,0,0,1,3.58,1.62V126A3.52,3.52,0,0,1,153.13,125.83Zm-4,7.37c-2,0-3,1.05-3,4.75s1,4.76,3,4.76c1.74,0,2.71-1.47,2.71-3.19v-3.21C151.84,134.64,150.86,133.2,149.15,133.2Z"/><path class="cls-3" d="M160.43,125.83a3.43,3.43,0,0,1,1.24.18v6.84l1.74-1a1.85,1.85,0,0,1,.5.57,2,2,0,0,1,.27.77l-2.51,1.47v9.66a3.61,3.61,0,0,1-1.24.17,3.37,3.37,0,0,1-1.25-.17v-8.22l-1.67.95a2.06,2.06,0,0,1-.47-.57,1.93,1.93,0,0,1-.3-.78l2.44-1.39V126A3.21,3.21,0,0,1,160.43,125.83Z"/><path class="cls-3" d="M171.48,131.16c3.43,0,5.52,1.87,5.52,6.79s-2.11,6.8-5.52,6.8S166,142.88,166,138,168.07,131.16,171.48,131.16Zm0,1.92c-1.82,0-3,1-3,4.87s1.17,4.88,3,4.88,3-1,3-4.88S173.29,133.08,171.48,133.08Z"/><path class="cls-3" d="M188.58,142.46a2.82,2.82,0,0,1,.15,1,3.17,3.17,0,0,1-.15,1h-9.23a4.18,4.18,0,0,1-.15-1.07,3.13,3.13,0,0,1,.15-1l6.62-9h-6.2a3.42,3.42,0,0,1-.15-1,2.73,2.73,0,0,1,.15-1h8.81a2.53,2.53,0,0,1,.15,1,3.32,3.32,0,0,1-.15,1.07l-6.6,9ZM185.52,129a4.25,4.25,0,0,1-1.2.14,3.73,3.73,0,0,1-1.19-.14V126.8a3.5,3.5,0,0,1,1.19-.15,4,4,0,0,1,1.2.15Z"/><path class="cls-3" d="M193.68,138.73c.2,3,1.4,3.9,3.46,3.9a6.05,6.05,0,0,0,2.94-.72,2.58,2.58,0,0,1,.8,1.79,7.34,7.34,0,0,1-4.14,1.05c-3.83,0-5.62-2.37-5.62-6.87,0-4.7,2.21-6.72,5.53-6.72,3.06,0,4.92,1.69,4.92,5a10.83,10.83,0,0,1-.27,2.57Zm3-5.6c-1.62,0-2.77,1.07-3,3.83H199a10,10,0,0,0,.07-1.12C199.08,134.37,198.49,133.13,196.65,133.13Z"/><path class="cls-3" d="M61.39,163.5a17.15,17.15,0,0,1-.68-3.59h-.1a16.37,16.37,0,0,1-.69,3.59l-2,6.74a5,5,0,0,1-1.42.17,5.37,5.37,0,0,1-1.44-.17L51.33,157.5a3.63,3.63,0,0,1,1.24-.18,2,2,0,0,1,1.08.18L56,165.44a15.27,15.27,0,0,1,.52,2.44h.08a20.6,20.6,0,0,1,.54-2.44l2.29-7.94a5.22,5.22,0,0,1,1.35-.18,3.24,3.24,0,0,1,1.22.18l2.21,7.89a13.13,13.13,0,0,1,.5,2.49h.07a23.43,23.43,0,0,1,.63-2.47l2.34-7.91a2.82,2.82,0,0,1,1.09-.18,2.27,2.27,0,0,1,1.07.18l-3.76,12.74a5.27,5.27,0,0,1-1.42.17,5.63,5.63,0,0,1-1.44-.17Z"/><path class="cls-3" d="M77.09,157.07c3.44,0,5.53,1.87,5.53,6.8s-2.12,6.79-5.53,6.79-5.52-1.86-5.52-6.79S73.68,157.07,77.09,157.07Zm0,1.92c-1.81,0-3,1-3,4.88s1.17,4.88,3,4.88,3-1.05,3-4.88S78.91,159,77.09,159Z"/><path class="cls-3" d="M94.67,151.75a3.41,3.41,0,0,1,1.22.17v18.32a3.12,3.12,0,0,1-1,.17,3.86,3.86,0,0,1-1.12-.17l-.17-1.34a4.09,4.09,0,0,1-3.73,1.76c-2.84,0-4.68-1.71-4.68-6.79s1.84-6.8,4.68-6.8a4,4,0,0,1,3.58,1.62v-6.77A3.71,3.71,0,0,1,94.67,151.75Zm-4,7.37c-2,0-3,1-3,4.75s1,4.75,3,4.75c1.74,0,2.71-1.47,2.71-3.18v-3.21C93.37,160.56,92.4,159.12,90.69,159.12Z"/><path class="cls-3" d="M109.63,170.24a3.61,3.61,0,0,1-1.24.17,3.51,3.51,0,0,1-1.25-.17v-9c0-1.39-.72-2.19-2.31-2.19a3.43,3.43,0,0,0-2.82,1.59v9.56a3.75,3.75,0,0,1-1.24.17,3.28,3.28,0,0,1-1.24-.17V157.5a3.12,3.12,0,0,1,1.24-.18,3.57,3.57,0,0,1,1.24.18v1.14a4.83,4.83,0,0,1,3.76-1.57,3.52,3.52,0,0,1,3.86,3.76Z"/><path class="cls-3" d="M118.14,157.07c3.44,0,5.53,1.87,5.53,6.8s-2.12,6.79-5.53,6.79-5.52-1.86-5.52-6.79S114.73,157.07,118.14,157.07Zm0,1.92c-1.81,0-3,1-3,4.88s1.17,4.88,3,4.88,3-1.05,3-4.88S120,159,118.14,159Z"/><path class="cls-3" d="M126.78,164.12a2.54,2.54,0,0,1-.15-.92,2.47,2.47,0,0,1,.15-.92H132a2.47,2.47,0,0,1,.15.92,2.54,2.54,0,0,1-.15.92Z"/><path class="cls-3" d="M146.27,157.07a2.9,2.9,0,0,1,0,2l-2.06-.1a4.58,4.58,0,0,1,.69,2.61c0,2.79-1.66,4.48-4.87,4.48a7.36,7.36,0,0,1-1.1-.07,2.21,2.21,0,0,0-.47,1.44c.27,2.29,7.79-.15,7.79,5,0,2.44-2.37,4.26-6.4,4.26-3.73,0-5.3-1.47-5.3-3.46a4.22,4.22,0,0,1,2.22-3.44,1.94,1.94,0,0,1-.55-1.44,4.46,4.46,0,0,1,1.19-2.76,4.06,4.06,0,0,1-2.26-4c0-2.78,1.69-4.48,4.88-4.48a5.88,5.88,0,0,1,2.76.58Zm-8.16,13.34a3,3,0,0,0-1.15,2.27c0,1.24.93,2.19,3,2.19,2.56,0,3.95-.92,3.95-2.24C143.88,170.59,140.35,171.11,138.11,170.41ZM140,158.82c-1.5,0-2.52.87-2.52,2.73s1,2.72,2.52,2.72,2.48-.85,2.48-2.72S141.52,158.82,140,158.82Z"/><path class="cls-3" d="M151.43,170.24a3.71,3.71,0,0,1-1.25.17,3.28,3.28,0,0,1-1.24-.17V151.92a3.28,3.28,0,0,1,1.24-.17,3.71,3.71,0,0,1,1.25.17Z"/><path class="cls-3" d="M157.73,154.81a4,4,0,0,1-1.3.17,3.57,3.57,0,0,1-1.29-.17v-2.34a3.57,3.57,0,0,1,1.29-.17,4,4,0,0,1,1.3.17Zm0,15.43a3.71,3.71,0,0,1-1.25.17,3.28,3.28,0,0,1-1.24-.17V157.5a3.12,3.12,0,0,1,1.24-.18,3.53,3.53,0,0,1,1.25.18Z"/><path class="cls-3" d="M163.35,163.87c0,3.26,1.05,4.68,3.44,4.68a6.29,6.29,0,0,0,2.33-.43,2.65,2.65,0,0,1,.73,1.8,6.85,6.85,0,0,1-3.59.74c-3.63,0-5.47-2.36-5.47-6.79s1.84-6.8,5.47-6.8a6.5,6.5,0,0,1,3.34.63,2.57,2.57,0,0,1-.72,1.79,6.09,6.09,0,0,0-2.19-.37C164.3,159.12,163.35,160.63,163.35,163.87Z"/><path class="cls-3" d="M174.48,164.64c.2,3,1.39,3.91,3.46,3.91a6,6,0,0,0,2.93-.72,2.52,2.52,0,0,1,.8,1.79,7.37,7.37,0,0,1-4.13,1c-3.83,0-5.63-2.36-5.63-6.87,0-4.7,2.22-6.72,5.53-6.72,3.06,0,4.93,1.7,4.93,5a10.42,10.42,0,0,1-.28,2.56Zm3-5.6c-1.62,0-2.76,1.07-3,3.83h5.32a7.5,7.5,0,0,0,.08-1.12C179.88,160.29,179.28,159,177.44,159Z"/><path class="cls-3" d="M190.81,157.1a3.87,3.87,0,0,1,2.16.62,2.8,2.8,0,0,1-1.09,2.09,2.49,2.49,0,0,0-1.54-.52,3.23,3.23,0,0,0-2.57,1.89v9.06a3.61,3.61,0,0,1-1.24.17,3.37,3.37,0,0,1-1.25-.17V157.5a3.21,3.21,0,0,1,1.25-.18,3.43,3.43,0,0,1,1.24.18v1.72C188.72,157.65,189.81,157.1,190.81,157.1Z"/><path class="cls-3" d="M201,172.33c-.89,2.74-1.76,4.31-4.45,4.31a3.6,3.6,0,0,1-1.37-.25,3.05,3.05,0,0,1-.17-.92,2.31,2.31,0,0,1,.2-1,7,7,0,0,0,1.12.1c1.11,0,1.69-.3,2.43-2.64l.53-1.52a2.39,2.39,0,0,1-.8-.17l-4.73-12.74a4,4,0,0,1,1.3-.18,3.79,3.79,0,0,1,1.29.18l2.84,7.56a24,24,0,0,1,.87,2.92h.1s.25-1.17.79-2.89l2.47-7.59a3.24,3.24,0,0,1,1.22-.18,3.43,3.43,0,0,1,1.17.18Z"/><path class="cls-3" d="M218.29,170.24a3.64,3.64,0,0,1-1.25.17,3.47,3.47,0,0,1-1.24-.17v-9c0-1.39-.72-2.19-2.31-2.19a3.43,3.43,0,0,0-2.82,1.59v9.56a3.75,3.75,0,0,1-1.24.17,3.37,3.37,0,0,1-1.25-.17V157.5a3.21,3.21,0,0,1,1.25-.18,3.57,3.57,0,0,1,1.24.18v1.14a4.83,4.83,0,0,1,3.76-1.57,3.52,3.52,0,0,1,3.86,3.76Z"/><path class="cls-3" d="M226.8,157.07c3.44,0,5.53,1.87,5.53,6.8s-2.12,6.79-5.53,6.79-5.52-1.86-5.52-6.79S223.39,157.07,226.8,157.07Zm0,1.92c-1.81,0-3,1-3,4.88s1.17,4.88,3,4.88,3-1.05,3-4.88S228.62,159,226.8,159Z"/><path class="cls-3" d="M244,163.5a17.64,17.64,0,0,1-.67-3.59h-.1a16,16,0,0,1-.7,3.59l-2,6.74a5,5,0,0,1-1.42.17,5.44,5.44,0,0,1-1.45-.17L234,157.5a3.57,3.57,0,0,1,1.24-.18c.85,0,1.07.18,1.07.18l2.36,7.94a15.56,15.56,0,0,1,.53,2.44h.07a21.12,21.12,0,0,1,.55-2.44l2.29-7.94a5.19,5.19,0,0,1,1.34-.18,3.24,3.24,0,0,1,1.22.18l2.22,7.89a12.91,12.91,0,0,1,.49,2.49h.08a22.74,22.74,0,0,1,.62-2.47l2.34-7.91a2.9,2.9,0,0,1,1.1-.18,2.27,2.27,0,0,1,1.07.18l-3.76,12.74a5.37,5.37,0,0,1-1.42.17,5.63,5.63,0,0,1-1.44-.17Z"/><path class="cls-3" d="M257,164.64c.2,3,1.39,3.91,3.46,3.91a6.05,6.05,0,0,0,2.94-.72,2.56,2.56,0,0,1,.79,1.79,7.37,7.37,0,0,1-4.13,1c-3.83,0-5.62-2.36-5.62-6.87,0-4.7,2.21-6.72,5.52-6.72,3.06,0,4.93,1.7,4.93,5a10.79,10.79,0,0,1-.27,2.56Zm3-5.6c-1.62,0-2.76,1.07-3,3.83h5.33a9.86,9.86,0,0,0,.07-1.12C262.4,160.29,261.8,159,260,159Z"/><path class="cls-3" d="M99.21,177.66a3.53,3.53,0,0,1,1.25.18v6.84l1.74-1a2.21,2.21,0,0,1,.5.57,2,2,0,0,1,.27.77l-2.51,1.47v9.66a3.71,3.71,0,0,1-1.25.17,3.28,3.28,0,0,1-1.24-.17v-8.22l-1.67.95a2.06,2.06,0,0,1-.47-.57,1.76,1.76,0,0,1-.3-.78L98,186.15v-8.31A3.12,3.12,0,0,1,99.21,177.66Z"/><path class="cls-3" d="M109.84,183c3.61,0,4.75,1.62,4.75,4.83v8.34a2,2,0,0,1-1,.17,2.57,2.57,0,0,1-1-.17l-.38-1.6c-.64,1.32-2,2-3.9,2-2.34,0-3.86-1.37-3.86-4.16s1.67-3.91,4.78-3.91a28.06,28.06,0,0,1,2.84.15v-.92c0-1.69-.65-2.66-2.57-2.66a10.36,10.36,0,0,0-3.33.62,1.76,1.76,0,0,1-.57-.74,2.1,2.1,0,0,1-.15-1.05A10.77,10.77,0,0,1,109.84,183Zm-.25,7.22c-1.67,0-2.54.64-2.54,2.21s.82,2.24,2.17,2.24c2,0,2.89-1.67,2.89-3.43v-.87C111.53,190.31,110.54,190.21,109.59,190.21Z"/><path class="cls-3" d="M128.76,183a3,3,0,0,1,0,2l-2.07-.1a4.46,4.46,0,0,1,.7,2.61c0,2.79-1.67,4.48-4.88,4.48a7.14,7.14,0,0,1-1.09-.08,2.19,2.19,0,0,0-.48,1.45c.28,2.29,7.79-.15,7.79,5,0,2.43-2.36,4.25-6.39,4.25-3.73,0-5.3-1.47-5.3-3.46a4.21,4.21,0,0,1,2.21-3.43,2,2,0,0,1-.55-1.45,4.5,4.5,0,0,1,1.2-2.76,4.05,4.05,0,0,1-2.27-4c0-2.79,1.7-4.48,4.88-4.48a6,6,0,0,1,2.76.57Zm-8.16,13.34a3,3,0,0,0-1.15,2.26c0,1.25.92,2.19,3,2.19,2.57,0,4-.92,4-2.24C126.37,196.5,122.84,197,120.6,196.33Zm1.91-11.6c-1.49,0-2.51.87-2.51,2.74s1,2.71,2.51,2.71,2.49-.84,2.49-2.71S124,184.73,122.51,184.73Z"/><path class="cls-3" d="M136.13,183c3.43,0,5.52,1.87,5.52,6.79s-2.11,6.8-5.52,6.8-5.53-1.87-5.53-6.8S132.72,183,136.13,183Zm0,1.92c-1.82,0-3,1-3,4.87s1.17,4.88,3,4.88,3-1,3-4.88S138,184.91,136.13,184.91Z"/><path class="cls-3" d="M153.7,177.66a3.24,3.24,0,0,1,1.22.18v18.32a3,3,0,0,1-1,.17,3.78,3.78,0,0,1-1.12-.17l-.18-1.35a4.07,4.07,0,0,1-3.73,1.77c-2.84,0-4.68-1.72-4.68-6.8S146,183,148.85,183a4,4,0,0,1,3.58,1.62v-6.77A3.59,3.59,0,0,1,153.7,177.66Zm-4,7.37c-2,0-3,1.05-3,4.75s1,4.76,3,4.76c1.74,0,2.71-1.47,2.71-3.19v-3.21C152.41,186.47,151.44,185,149.72,185Z"/><path class="cls-3" d="M168.66,196.16a3.61,3.61,0,0,1-1.24.17,3.41,3.41,0,0,1-1.24-.17v-9c0-1.4-.73-2.19-2.32-2.19a3.4,3.4,0,0,0-2.81,1.59v9.56a3.86,3.86,0,0,1-1.25.17,3.28,3.28,0,0,1-1.24-.17V183.41a3.28,3.28,0,0,1,1.24-.17,3.86,3.86,0,0,1,1.25.17v1.15a4.82,4.82,0,0,1,3.76-1.57,3.52,3.52,0,0,1,3.85,3.76Z"/><path class="cls-3" d="M174.22,190.56c.2,3,1.39,3.9,3.46,3.9a6,6,0,0,0,2.93-.72,2.54,2.54,0,0,1,.8,1.79,7.32,7.32,0,0,1-4.13,1.05c-3.83,0-5.63-2.37-5.63-6.87,0-4.7,2.22-6.72,5.53-6.72,3.06,0,4.93,1.69,4.93,5a10.46,10.46,0,0,1-.28,2.57Zm3-5.6c-1.62,0-2.76,1.07-3,3.83h5.32a7.62,7.62,0,0,0,.08-1.12C179.62,186.2,179,185,177.18,185Z"/><path class="cls-3" d="M199.61,177.66a3.24,3.24,0,0,1,1.22.18v18.32a3.12,3.12,0,0,1-1.05.17,3.86,3.86,0,0,1-1.12-.17l-.17-1.35a4.09,4.09,0,0,1-3.74,1.77c-2.83,0-4.68-1.72-4.68-6.8s1.85-6.79,4.68-6.79a4.05,4.05,0,0,1,3.59,1.62v-6.77A3.52,3.52,0,0,1,199.61,177.66Zm-4,7.37c-2,0-3,1.05-3,4.75s1,4.76,3,4.76c1.75,0,2.72-1.47,2.72-3.19v-3.21C198.31,186.47,197.34,185,195.62,185Z"/><path class="cls-3" d="M207,196.16a3.71,3.71,0,0,1-1.25.17,3.28,3.28,0,0,1-1.24-.17V177.84a3.12,3.12,0,0,1,1.24-.18,3.53,3.53,0,0,1,1.25.18Z"/><path class="cls-3" d="M215.27,183c3.6,0,4.75,1.62,4.75,4.83v8.34a2,2,0,0,1-1,.17,2.66,2.66,0,0,1-1-.17l-.37-1.6c-.65,1.32-2,2-3.91,2-2.34,0-3.86-1.37-3.86-4.16s1.67-3.91,4.78-3.91a28.06,28.06,0,0,1,2.84.15v-.92c0-1.69-.65-2.66-2.56-2.66a10.46,10.46,0,0,0-3.34.62,2,2,0,0,1-.57-.74,2.23,2.23,0,0,1-.15-1.05A10.84,10.84,0,0,1,215.27,183Zm-.25,7.22c-1.67,0-2.54.64-2.54,2.21s.82,2.24,2.16,2.24c2,0,2.89-1.67,2.89-3.43v-.87C217,190.31,216,190.21,215,190.21Z"/><path class="cls-3" d="M51.79,208.91a7.09,7.09,0,0,1,3.51.67,2.53,2.53,0,0,1-.65,1.76A9.35,9.35,0,0,0,52,211c-1.69,0-2.54.62-2.54,1.79s1.39,1.49,2.91,1.94C54.1,215.2,56,216,56,218.51s-1.57,4-4.73,4a8.92,8.92,0,0,1-4.16-.89,2.53,2.53,0,0,1,.67-1.84,10.66,10.66,0,0,0,3.36.62c1.52,0,2.39-.57,2.39-1.79,0-1.4-1.39-1.7-2.89-2.12-1.66-.5-3.48-1.19-3.48-3.66S48.63,208.91,51.79,208.91Zm-.85-1.7a2.11,2.11,0,0,1-1.42-.77l2.37-3.51a2.48,2.48,0,0,1,2.16.92Z"/><path class="cls-3" d="M61.35,222.07a3.46,3.46,0,0,1-1.25.18,3.12,3.12,0,0,1-1.24-.18V203.75a3.28,3.28,0,0,1,1.24-.17,3.64,3.64,0,0,1,1.25.17Z"/><path class="cls-3" d="M65,209.33a3.43,3.43,0,0,1,1.24-.18,3.33,3.33,0,0,1,1.25.18v9c0,1.39.72,2.19,2.31,2.19a3.36,3.36,0,0,0,2.81-1.59v-9.56a3.66,3.66,0,0,1,1.25-.18,3.12,3.12,0,0,1,1.24.18v12.74a3.12,3.12,0,0,1-1.24.18,3.66,3.66,0,0,1-1.25-.18v-1.14a4.83,4.83,0,0,1-3.75,1.56A3.51,3.51,0,0,1,65,218.74Z"/><path class="cls-3" d="M87.21,220.2a2.82,2.82,0,0,1,.15,1,3.2,3.2,0,0,1-.15,1H78a4.26,4.26,0,0,1-.15-1.08,3.19,3.19,0,0,1,.15-1l6.62-9H78.4a3.5,3.5,0,0,1-.15-1,2.76,2.76,0,0,1,.15-1h8.81a2.62,2.62,0,0,1,.15,1,3.41,3.41,0,0,1-.15,1.07l-6.59,9Z"/><path class="cls-3" d="M95.1,208.91c3.44,0,5.53,1.86,5.53,6.79s-2.12,6.79-5.53,6.79-5.52-1.86-5.52-6.79S91.69,208.91,95.1,208.91Zm0,1.91c-1.81,0-3,1.05-3,4.88s1.17,4.88,3,4.88,3-1.05,3-4.88S96.92,210.82,95.1,210.82Z"/><path class="cls-3" d="M112.33,215.33a17.64,17.64,0,0,1-.67-3.59h-.1a16,16,0,0,1-.7,3.59l-2,6.74a4.67,4.67,0,0,1-1.42.18,5.05,5.05,0,0,1-1.45-.18l-3.75-12.74a3.57,3.57,0,0,1,1.24-.18c.85,0,1.07.18,1.07.18l2.36,7.94a15.56,15.56,0,0,1,.53,2.44h.07a21.12,21.12,0,0,1,.55-2.44l2.29-7.94a5.19,5.19,0,0,1,1.34-.18,3.24,3.24,0,0,1,1.22.18l2.22,7.89a13.75,13.75,0,0,1,.49,2.49h.08a22.74,22.74,0,0,1,.62-2.47l2.34-7.91a2.9,2.9,0,0,1,1.1-.18,2.27,2.27,0,0,1,1.07.18l-3.76,12.74a5,5,0,0,1-1.42.18,5.22,5.22,0,0,1-1.44-.18Z"/><path class="cls-3" d="M125.3,216.47c.2,3,1.39,3.91,3.46,3.91a6.05,6.05,0,0,0,2.94-.72,2.56,2.56,0,0,1,.79,1.79,7.37,7.37,0,0,1-4.13,1c-3.83,0-5.62-2.36-5.62-6.86,0-4.71,2.21-6.72,5.52-6.72,3.06,0,4.93,1.69,4.93,5a10.68,10.68,0,0,1-.27,2.56Zm3-5.6c-1.62,0-2.76,1.07-3,3.83h5.33a9.68,9.68,0,0,0,.07-1.12C130.7,212.12,130.1,210.87,128.26,210.87Z"/><path class="cls-3" d="M136.15,209.33a3.21,3.21,0,0,1,1.25-.18,3.43,3.43,0,0,1,1.24.18v15.11c0,2.63-1.27,4-3.6,4a5.24,5.24,0,0,1-1.67-.23,2.07,2.07,0,0,1-.08-.57,2.56,2.56,0,0,1,.25-1.27,4.2,4.2,0,0,0,.92.1c1.12,0,1.69-.6,1.69-2Zm2.54-2.71a3.92,3.92,0,0,1-1.29.17,3.57,3.57,0,0,1-1.29-.17v-2.34a3.39,3.39,0,0,1,1.29-.18,3.72,3.72,0,0,1,1.29.18Z"/><path class="cls-3" d="M148,209.33a3.12,3.12,0,0,1,1.24-.18,3.46,3.46,0,0,1,1.25.18v15.11c0,2.63-1.27,4-3.61,4a5.24,5.24,0,0,1-1.67-.23,2.34,2.34,0,0,1-.07-.57,2.56,2.56,0,0,1,.25-1.27,4.09,4.09,0,0,0,.92.1c1.12,0,1.69-.6,1.69-2Zm2.54-2.71a4,4,0,0,1-1.3.17,3.63,3.63,0,0,1-1.29-.17v-2.34a3.45,3.45,0,0,1,1.29-.18,3.82,3.82,0,0,1,1.3.18Z"/><path class="cls-3" d="M158.68,208.91c3.61,0,4.76,1.61,4.76,4.82v8.34a1.93,1.93,0,0,1-1,.18,2.47,2.47,0,0,1-1-.18l-.37-1.59c-.65,1.32-2,2-3.91,2-2.34,0-3.86-1.36-3.86-4.15s1.67-3.91,4.78-3.91a28.06,28.06,0,0,1,2.84.15v-.92c0-1.69-.65-2.66-2.57-2.66a10.36,10.36,0,0,0-3.33.62,2,2,0,0,1-.72-1.79A10.77,10.77,0,0,1,158.68,208.91Zm-.25,7.21c-1.66,0-2.53.65-2.53,2.22s.82,2.24,2.16,2.24c2,0,2.89-1.67,2.89-3.44v-.87C160.37,216.22,159.38,216.12,158.43,216.12Z"/><path class="cls-3" d="M180.34,208.91a3.46,3.46,0,0,1,3.71,3.75v9.41a3.53,3.53,0,0,1-1.25.18,3.12,3.12,0,0,1-1.24-.18v-9a1.92,1.92,0,0,0-2.17-2.19,3.15,3.15,0,0,0-2.66,1.59v9.56a3.37,3.37,0,0,1-1.22.18,3.12,3.12,0,0,1-1.24-.18v-9a1.92,1.92,0,0,0-2.17-2.19,3.28,3.28,0,0,0-2.66,1.57v9.58a3.44,3.44,0,0,1-1.22.18,3.21,3.21,0,0,1-1.25-.18V209.33a3.21,3.21,0,0,1,1.25-.18,3.44,3.44,0,0,1,1.22.18v1.12a4.64,4.64,0,0,1,3.58-1.54,3.35,3.35,0,0,1,3.24,1.81A5,5,0,0,1,180.34,208.91Z"/><path class="cls-3" d="M193.53,224.16c-.89,2.74-1.76,4.31-4.45,4.31a3.6,3.6,0,0,1-1.37-.25,3,3,0,0,1-.17-.92,2.31,2.31,0,0,1,.2-1,7,7,0,0,0,1.12.1c1.11,0,1.69-.3,2.43-2.64l.53-1.51a2.42,2.42,0,0,1-.8-.18l-4.73-12.74a4,4,0,0,1,1.3-.18,3.79,3.79,0,0,1,1.29.18l2.84,7.56a24,24,0,0,1,.87,2.92h.1s.25-1.17.79-2.89l2.47-7.59a3.24,3.24,0,0,1,1.22-.18,3.43,3.43,0,0,1,1.17.18Z"/><path class="cls-3" d="M205.68,209.33a3.53,3.53,0,0,1,1.25-.18,3.3,3.3,0,0,1,1.24.18v9c0,1.39.72,2.19,2.32,2.19a3.38,3.38,0,0,0,2.81-1.59v-9.56a3.63,3.63,0,0,1,1.24-.18,3.21,3.21,0,0,1,1.25.18v12.74a3.21,3.21,0,0,1-1.25.18,3.63,3.63,0,0,1-1.24-.18v-1.14a4.87,4.87,0,0,1-3.76,1.56,3.51,3.51,0,0,1-3.86-3.75Z"/><path class="cls-3" d="M223.53,208.91a7.09,7.09,0,0,1,3.51.67,2.48,2.48,0,0,1-.65,1.76,9.35,9.35,0,0,0-2.61-.39c-1.69,0-2.54.62-2.54,1.79s1.57,1.52,3.14,2,3.31,1.29,3.31,3.73-1.57,4-4.73,4a8.92,8.92,0,0,1-4.16-.89,2.57,2.57,0,0,1,.67-1.84,10.66,10.66,0,0,0,3.36.62c1.52,0,2.39-.57,2.39-1.79,0-1.37-1.37-1.67-2.83-2.09-1.7-.5-3.54-1.22-3.54-3.69S220.37,208.91,223.53,208.91Z"/><path class="cls-3" d="M233.86,217.54c0,2.27.72,2.94,2.49,2.94a6.85,6.85,0,0,0,1.05-.1,2.9,2.9,0,0,1,.17,1,2.8,2.8,0,0,1-.12.9,7.49,7.49,0,0,1-1.8.22c-3.06,0-4.28-1.66-4.28-4.82V211h-1.91a2.54,2.54,0,0,1-.15-.92,2.49,2.49,0,0,1,.15-.95h1.91v-2.26a4.27,4.27,0,0,1,2.49-.5v2.76h3.24a2.44,2.44,0,0,1,.15.93,2.73,2.73,0,0,1-.15.94h-3.24Z"/><path class="cls-3" d="M250.07,222.07a3.53,3.53,0,0,1-1.25.18,3.24,3.24,0,0,1-1.24-.18v-9c0-1.39-.72-2.19-2.32-2.19a3.42,3.42,0,0,0-2.81,1.59v9.56a3.63,3.63,0,0,1-1.24.18,3.15,3.15,0,0,1-1.25-.18V209.33a3.15,3.15,0,0,1,1.25-.18,3.63,3.63,0,0,1,1.24.18v1.14a4.82,4.82,0,0,1,3.76-1.56,3.51,3.51,0,0,1,3.86,3.75Z"/><path class="cls-3" d="M255.62,216.47c.2,3,1.39,3.91,3.46,3.91a6.05,6.05,0,0,0,2.94-.72,2.56,2.56,0,0,1,.79,1.79,7.37,7.37,0,0,1-4.13,1c-3.83,0-5.62-2.36-5.62-6.86,0-4.71,2.21-6.72,5.52-6.72,3.06,0,4.93,1.69,4.93,5a10.32,10.32,0,0,1-.28,2.56Zm3-5.6c-1.62,0-2.76,1.07-3,3.83H261a9.68,9.68,0,0,0,.07-1.12C261,212.12,260.42,210.87,258.58,210.87Z"/><path class="cls-3" d="M266.47,209.33a3.21,3.21,0,0,1,1.25-.18,3.43,3.43,0,0,1,1.24.18v15.11c0,2.63-1.27,4-3.61,4a5.21,5.21,0,0,1-1.66-.23,2.07,2.07,0,0,1-.08-.57,2.56,2.56,0,0,1,.25-1.27,4.2,4.2,0,0,0,.92.1c1.12,0,1.69-.6,1.69-2Zm2.54-2.71a4,4,0,0,1-1.29.17,3.67,3.67,0,0,1-1.3-.17v-2.34a3.48,3.48,0,0,1,1.3-.18,3.79,3.79,0,0,1,1.29.18Z"/><path class="cls-3" d="M112.86,4.9a16.6,16.6,0,0,1,6.88,1.25,3.88,3.88,0,0,1-1.1,2.76,18.68,18.68,0,0,0-5.38-.84c-4.49,0-7.81,2.28-7.81,10.49s3.32,10.34,7.81,10.34a18.37,18.37,0,0,0,3.35-.29v-8.5h-5.34A3.54,3.54,0,0,1,111,18.6a3.58,3.58,0,0,1,.29-1.55h8.88V30.89a18.84,18.84,0,0,1-7.29,1.26c-7.33,0-11.31-4.64-11.31-13.63S105.53,4.9,112.86,4.9Z"/><path class="cls-3" d="M129.05,31.52a5.19,5.19,0,0,1-1.84.26,4.74,4.74,0,0,1-1.84-.26V4.42a4.74,4.74,0,0,1,1.84-.26,5.19,5.19,0,0,1,1.84.26Z"/><path class="cls-3" d="M138.37,8.69a5.72,5.72,0,0,1-1.92.26,5.21,5.21,0,0,1-1.91-.26V5.23A5.21,5.21,0,0,1,136.45,5a5.72,5.72,0,0,1,1.92.26Zm-.08,22.83a5.19,5.19,0,0,1-1.84.26,4.8,4.8,0,0,1-1.84-.26V12.67a4.8,4.8,0,0,1,1.84-.26,5.19,5.19,0,0,1,1.84.26Z"/><path class="cls-3" d="M146.69,22.09c0,4.83,1.55,6.93,5.08,6.93a9.38,9.38,0,0,0,3.46-.63A3.87,3.87,0,0,1,156.3,31s-1.62,1.11-5.3,1.11c-5.38,0-8.1-3.5-8.1-10.06s2.72-10,8.1-10c3.53,0,4.93.92,4.93.92a3.71,3.71,0,0,1-1.07,2.65,9,9,0,0,0-3.24-.55C148.09,15.06,146.69,17.31,146.69,22.09Z"/><path class="cls-3" d="M163.15,23.24c.29,4.38,2.06,5.78,5.11,5.78A8.92,8.92,0,0,0,172.61,28a3.82,3.82,0,0,1,1.18,2.65,10.86,10.86,0,0,1-6.12,1.55c-5.67,0-8.32-3.5-8.32-10.17,0-7,3.28-9.94,8.18-9.94,4.53,0,7.29,2.51,7.29,7.4a15.63,15.63,0,0,1-.41,3.8ZM167.53,15c-2.4,0-4.09,1.58-4.38,5.67H171a14.1,14.1,0,0,0,.11-1.66C171.14,16.79,170.25,15,167.53,15Z"/><path class="cls-3" d="M187.3,12.08a5.75,5.75,0,0,1,3.2.92,4.18,4.18,0,0,1-1.62,3.09,3.75,3.75,0,0,0-2.28-.77c-1.44,0-2.84,1.1-3.79,2.8v13.4a5.29,5.29,0,0,1-1.85.26,4.8,4.8,0,0,1-1.84-.26V12.67a4.8,4.8,0,0,1,1.84-.26,5.29,5.29,0,0,1,1.85.26v2.54C184.2,12.89,185.82,12.08,187.3,12.08Z"/><path class="cls-3" d="M200.4,12c5.09,0,8.18,2.76,8.18,10.05s-3.13,10.06-8.18,10.06-8.17-2.77-8.17-10.06S195.36,12,200.4,12Zm0,2.84c-2.68,0-4.41,1.54-4.41,7.21s1.73,7.22,4.41,7.22,4.38-1.55,4.38-7.22S203.09,14.88,200.4,14.88Z"/><path class="cls-3" d="M216.9,31.52a5.26,5.26,0,0,1-1.84.26,4.83,4.83,0,0,1-1.85-.26V4.42a4.83,4.83,0,0,1,1.85-.26,5.26,5.26,0,0,1,1.84.26Z"/><path class="cls-3" d="M122.83,38.39A33.43,33.43,0,0,0,118.71,55a33.44,33.44,0,0,0,4.12,16.61,2.59,2.59,0,0,1-1.14,1.07,4.1,4.1,0,0,1-1.58.4,37.12,37.12,0,0,1-5-18.08,37.1,37.1,0,0,1,5-18.07,3.24,3.24,0,0,1,1.54.4A2.81,2.81,0,0,1,122.83,38.39Z"/><path class="cls-3" d="M126.7,42.7a17.74,17.74,0,0,1,6.81-1.33c4.45,0,8,1.88,8,6.74,0,4.6-2.66,6.22-7,8.87-2.17,1.37-5.19,2.65-5.19,5.67a3.4,3.4,0,0,0,.08.81h11.48a3.17,3.17,0,0,1,.37,1.66,3.8,3.8,0,0,1-.37,1.66H126a15.23,15.23,0,0,1-.22-2.47c0-5.74,3.72-7.81,7.11-10s4.89-3.32,4.89-6.08c0-2.25-1.47-3.79-4.82-3.79a17,17,0,0,0-5.19.92A2.79,2.79,0,0,1,126.7,42.7Z"/><path class="cls-3" d="M145.77,54.26c0-9.06,3.28-12.89,9.13-12.89s9.2,3.72,9.2,12.89-3.35,12.89-9.2,12.89S145.77,63.43,145.77,54.26Zm3.9,0c0,7.62,1.84,9.76,5.23,9.76s5.23-2.14,5.23-9.76-1.77-9.76-5.23-9.76S149.67,46.6,149.67,54.26Z"/><path class="cls-3" d="M178.72,49.55c0,5-2.61,7.54-5.71,7.54s-5.56-2.39-5.59-7.18,2.57-7.47,5.81-7.47S178.72,45,178.72,49.55Zm-8.76.22c-.08,3,1.1,5.37,3.13,5.37s3.09-2.28,3.09-5.41c0-2.95-.85-5.34-3.13-5.34C171.06,44.39,170,46.78,170,49.77Zm2.79,17.45L186.86,42.4h2.06l-14.1,24.82Zm21.58-7.73c0,5-2.61,7.54-5.71,7.54s-5.56-2.39-5.59-7.21,2.57-7.48,5.81-7.48S194.33,54.92,194.33,59.49Zm-8.76.22c-.08,3,1.1,5.37,3.13,5.37s3.09-2.28,3.09-5.45c0-2.9-.85-5.33-3.13-5.33C186.67,54.3,185.57,56.69,185.57,59.71Z"/><path class="cls-3" d="M196.21,71.23a25.07,25.07,0,0,0,4.6-15,24.82,24.82,0,0,0-4.6-15h2.5a23.76,23.76,0,0,1,4.82,15,24.2,24.2,0,0,1-4.82,15Z"/></svg>