<svg id="Warstwa_1" data-name="Warstwa 1" xmlns="http://www.w3.org/2000/svg" viewBox="0 0 400 60"><defs><style>.cls-1{fill:#005ca6;}.cls-2{fill:none;stroke:#ccd513;stroke-miterlimit:10;stroke-width:1.85px;}</style></defs><title>sposoby_aplikacji</title><path class="cls-1" d="M202.08,19.8a15.61,15.61,0,0,1,5,.71,3,3,0,0,1-.71,2,14,14,0,0,0-3.9-.56c-2.68,0-4,1-4,2.88S200.63,27.27,203,28s4.73,1.9,4.73,5.21-2.2,5.29-6.35,5.29a13.29,13.29,0,0,1-5.47-1.06,3.78,3.78,0,0,1,.61-2,17.29,17.29,0,0,0,4.73.79c2.61,0,3.85-1,3.85-2.89s-1.44-2.43-3.19-3c-2.63-.88-6-1.52-6-5.34C195.9,21.88,198,19.8,202.08,19.8Z"/><path class="cls-1" d="M216.66,24.71c2.89,0,4.76,1.75,4.76,6.91s-1.87,6.91-4.76,6.91A4,4,0,0,1,213,36.89V44a4.35,4.35,0,0,1-1.3.15,4,4,0,0,1-1.24-.15V25.14a3.54,3.54,0,0,1,1.24-.17,3.88,3.88,0,0,1,1.3.17v1.22A4,4,0,0,1,216.66,24.71Zm-.88,2.08C214,26.79,213,28.26,213,30v3.24c0,1.74,1,3.24,2.76,3.24,2,0,3-1.06,3-4.84S217.8,26.79,215.78,26.79Z"/><path class="cls-1" d="M229.37,24.71c3.5,0,5.62,1.9,5.62,6.91s-2.15,6.91-5.62,6.91-5.62-1.9-5.62-6.91S225.9,24.71,229.37,24.71Zm0,1.95c-1.85,0-3,1.06-3,5s1.19,5,3,5,3-1.06,3-5S231.22,26.66,229.37,26.66Z"/><path class="cls-1" d="M242,24.71a7.15,7.15,0,0,1,3.57.69,2.57,2.57,0,0,1-.66,1.79,9.45,9.45,0,0,0-2.66-.4c-1.72,0-2.58.63-2.58,1.82s1.6,1.54,3.19,2.08,3.37,1.31,3.37,3.79-1.6,4.05-4.81,4.05a9,9,0,0,1-4.23-.91,2.57,2.57,0,0,1,.69-1.87,10.78,10.78,0,0,0,3.41.63c1.55,0,2.43-.58,2.43-1.82,0-1.39-1.39-1.7-2.88-2.13-1.72-.5-3.6-1.24-3.6-3.74S238.82,24.71,242,24.71Z"/><path class="cls-1" d="M253.93,24.71c3.49,0,5.62,1.9,5.62,6.91s-2.15,6.91-5.62,6.91-5.62-1.9-5.62-6.91S250.46,24.71,253.93,24.71Zm0,1.95c-1.85,0-3,1.06-3,5s1.19,5,3,5,3-1.06,3-5S255.78,26.66,253.93,26.66Z"/><path class="cls-1" d="M265,26.36a4,4,0,0,1,3.64-1.65c2.89,0,4.76,1.75,4.76,6.91s-1.87,6.91-4.76,6.91A4,4,0,0,1,265,36.89V38.1a3.68,3.68,0,0,1-1.3.18,3.36,3.36,0,0,1-1.24-.18V19.47a3.36,3.36,0,0,1,1.24-.18,3.68,3.68,0,0,1,1.3.18Zm2.76.43c-1.78,0-2.76,1.47-2.76,3.19v3.24c0,1.74,1,3.24,2.76,3.24,2,0,3-1.06,3-4.84S269.73,26.79,267.71,26.79Z"/><path class="cls-1" d="M282.26,40.23c-.91,2.78-1.79,4.38-4.53,4.38a3.71,3.71,0,0,1-1.39-.25,2.94,2.94,0,0,1-.18-.94,2.21,2.21,0,0,1,.21-1,7.18,7.18,0,0,0,1.13.1c1.14,0,1.73-.31,2.49-2.69l.53-1.54a2.47,2.47,0,0,1-.81-.18l-4.81-13a4.29,4.29,0,0,1,1.31-.17,4.17,4.17,0,0,1,1.32.17l2.89,7.7a23.53,23.53,0,0,1,.88,3h.1s.26-1.19.81-2.94l2.51-7.72A3.47,3.47,0,0,1,286,25a3.75,3.75,0,0,1,1.19.17Z"/><path class="cls-1" d="M299.35,24.71c3.67,0,4.84,1.65,4.84,4.91V38.1a2,2,0,0,1-1,.18,2.55,2.55,0,0,1-1-.18l-.38-1.62c-.66,1.34-2.05,2.05-4,2.05-2.38,0-3.93-1.39-3.93-4.22s1.7-4,4.86-4c1.14,0,2.23.08,2.89.15v-.93c0-1.72-.66-2.71-2.61-2.71a10.58,10.58,0,0,0-3.39.63,1.9,1.9,0,0,1-.58-.76,2.21,2.21,0,0,1-.16-1.06A11,11,0,0,1,299.35,24.71Zm-.25,7.34c-1.7,0-2.58.66-2.58,2.26s.83,2.27,2.2,2.27c2,0,2.94-1.69,2.94-3.49v-.88C301.08,32.15,300.06,32.05,299.1,32.05Z"/><path class="cls-1" d="M313.71,24.71c2.89,0,4.76,1.75,4.76,6.91s-1.87,6.91-4.76,6.91a4,4,0,0,1-3.65-1.64V44a4.31,4.31,0,0,1-1.29.15,4,4,0,0,1-1.24-.15V25.14a3.54,3.54,0,0,1,1.24-.17,3.84,3.84,0,0,1,1.29.17v1.22A4.05,4.05,0,0,1,313.71,24.71Zm-.89,2.08c-1.77,0-2.76,1.47-2.76,3.19v3.24c0,1.74,1,3.24,2.76,3.24,2,0,3-1.06,3-4.84S314.85,26.79,312.82,26.79Z"/><path class="cls-1" d="M324,38.1a3.59,3.59,0,0,1-1.27.18,3.24,3.24,0,0,1-1.26-.18V19.47a3.24,3.24,0,0,1,1.26-.18,3.59,3.59,0,0,1,1.27.18Z"/><path class="cls-1" d="M330.14,22.41a3.85,3.85,0,0,1-1.31.18,3.61,3.61,0,0,1-1.32-.18V20a3.61,3.61,0,0,1,1.32-.18,3.85,3.85,0,0,1,1.31.18Zm-.05,15.69a3.56,3.56,0,0,1-1.26.18,3.27,3.27,0,0,1-1.27-.18v-13a3.44,3.44,0,0,1,1.27-.17,3.75,3.75,0,0,1,1.26.17Z"/><path class="cls-1" d="M341,25.14a4.47,4.47,0,0,1,1.29-.17,5.17,5.17,0,0,1,1.25.15l-3.9,6.05,4.48,6.93a4.42,4.42,0,0,1-1.42.21,3.91,3.91,0,0,1-1.37-.21l-3.79-5.82h-1.42V38.1a4.09,4.09,0,0,1-1.24.18,4,4,0,0,1-1.29-.18V19.42a5.63,5.63,0,0,1,1.29-.13,6.12,6.12,0,0,1,1.24.13v11h1.44Z"/><path class="cls-1" d="M350.63,24.71c3.67,0,4.83,1.65,4.83,4.91V38.1a2,2,0,0,1-1,.18,2.55,2.55,0,0,1-1-.18l-.38-1.62c-.66,1.34-2.05,2.05-4,2.05-2.38,0-3.93-1.39-3.93-4.22s1.7-4,4.86-4c1.14,0,2.23.08,2.89.15v-.93c0-1.72-.66-2.71-2.61-2.71a10.58,10.58,0,0,0-3.39.63,1.9,1.9,0,0,1-.58-.76,2.14,2.14,0,0,1-.15-1.06A10.91,10.91,0,0,1,350.63,24.71Zm-.26,7.34c-1.69,0-2.58.66-2.58,2.26s.84,2.27,2.2,2.27c2,0,2.94-1.69,2.94-3.49v-.88C352.35,32.15,351.33,32.05,350.37,32.05Z"/><path class="cls-1" d="M360.83,31.62c0,3.32,1.06,4.76,3.49,4.76A6.47,6.47,0,0,0,366.7,36a2.7,2.7,0,0,1,.74,1.82,6.91,6.91,0,0,1-3.65.76c-3.69,0-5.57-2.4-5.57-6.91s1.88-6.91,5.57-6.91a6.57,6.57,0,0,1,3.39.64,2.56,2.56,0,0,1-.73,1.82,6.19,6.19,0,0,0-2.23-.38C361.79,26.79,360.83,28.33,360.83,31.62Z"/><path class="cls-1" d="M369.92,25.14a3.44,3.44,0,0,1,1.27-.17,3.75,3.75,0,0,1,1.26.17V40.51c0,2.68-1.29,4.1-3.67,4.1a5.38,5.38,0,0,1-1.69-.23,2.1,2.1,0,0,1-.08-.58,2.61,2.61,0,0,1,.25-1.29,4.4,4.4,0,0,0,.94.1c1.14,0,1.72-.61,1.72-2Zm2.58-2.76a3.85,3.85,0,0,1-1.31.18,3.55,3.55,0,0,1-1.32-.18V20a3.73,3.73,0,0,1,1.32-.17,4.06,4.06,0,0,1,1.31.17Z"/><path class="cls-1" d="M378.58,22.41a4,4,0,0,1-1.32.18,3.51,3.51,0,0,1-1.31-.18V20a3.51,3.51,0,0,1,1.31-.18,4,4,0,0,1,1.32.18Zm-.05,15.69a3.59,3.59,0,0,1-1.27.18A3.24,3.24,0,0,1,376,38.1v-13a3.41,3.41,0,0,1,1.26-.17,3.78,3.78,0,0,1,1.27.17Z"/><polyline class="cls-2" points="166.28 6.32 182.07 29.71 166.28 53.19"/></svg>