<svg xmlns="http://www.w3.org/2000/svg" viewBox="0 0 500 110"><defs><style>.cls-1{fill:#fff;}.cls-2{fill:none;stroke:#ccd513;stroke-width:4px;}.cls-3{fill:#0056a3;}</style></defs><title>stosowanie_antyseptyki</title><g id="Warstwa_2" data-name="Warstwa 2"><rect class="cls-1" width="500" height="110"/></g><g id="Warstwa_1" data-name="Warstwa 1"><path class="cls-2" d="M138.89,48.7A2.87,2.87,0,1,0,136,45.84,2.86,2.86,0,0,0,138.89,48.7Z"/><path class="cls-3" d="M151.32,42.91a4.47,4.47,0,0,1,1.44.21.89.89,0,0,1-.21.59,4.11,4.11,0,0,0-1.13-.16c-.78,0-1.16.3-1.16.83s.64.7,1.32.92,1.38.55,1.38,1.52-.64,1.54-1.85,1.54a3.85,3.85,0,0,1-1.59-.31,1.08,1.08,0,0,1,.18-.6,5,5,0,0,0,1.37.23c.76,0,1.12-.29,1.12-.84s-.42-.71-.93-.87c-.76-.26-1.74-.44-1.74-1.55C149.52,43.52,150.12,42.91,151.32,42.91Z"/><path class="cls-3" d="M154.59,46.89c0,.67.21.87.73.87a2,2,0,0,0,.31,0,.9.9,0,0,1,.05.29.79.79,0,0,1,0,.27,1.94,1.94,0,0,1-.53.07c-.9,0-1.26-.5-1.26-1.43V45h-.57a.79.79,0,0,1,0-.27.82.82,0,0,1,0-.28h.57v-.67a1.33,1.33,0,0,1,.74-.14v.81h.95a.68.68,0,0,1,.05.28.71.71,0,0,1-.05.27h-.95Z"/><path class="cls-3" d="M157.71,44.34c1,0,1.64.55,1.64,2s-.63,2-1.64,2-1.63-.56-1.63-2S156.71,44.34,157.71,44.34Zm0,.57c-.53,0-.88.3-.88,1.44s.35,1.44.88,1.44.88-.31.88-1.44S158.25,44.91,157.71,44.91Z"/><path class="cls-3" d="M161.32,44.34a2.1,2.1,0,0,1,1,.2.77.77,0,0,1-.19.52,2.76,2.76,0,0,0-.78-.12c-.5,0-.75.19-.75.53s.47.45.93.61,1,.38,1,1.1-.46,1.18-1.4,1.18a2.61,2.61,0,0,1-1.23-.27.75.75,0,0,1,.2-.54,3.23,3.23,0,0,0,1,.18c.44,0,.7-.17.7-.53s-.4-.49-.84-.62-1-.36-1-1.09S160.39,44.34,161.32,44.34Z"/><path class="cls-3" d="M164.71,44.34c1,0,1.64.55,1.64,2s-.63,2-1.64,2-1.63-.56-1.63-2S163.71,44.34,164.71,44.34Zm0,.57c-.53,0-.88.3-.88,1.44s.35,1.44.88,1.44.88-.31.88-1.44S165.25,44.91,164.71,44.91Z"/><path class="cls-3" d="M169.67,46.24a5.28,5.28,0,0,1-.19-1.06h0a5,5,0,0,1-.21,1.06l-.58,2a1.34,1.34,0,0,1-.42.05,1.49,1.49,0,0,1-.43-.05l-1.11-3.77a1.2,1.2,0,0,1,.37-.05.62.62,0,0,1,.32.05l.7,2.35a5.15,5.15,0,0,1,.15.72h0c0-.16.07-.4.16-.72l.68-2.35a1.66,1.66,0,0,1,.4-.05,1,1,0,0,1,.36.05l.65,2.34a3.44,3.44,0,0,1,.15.73h0a6.16,6.16,0,0,1,.19-.73l.69-2.34a.84.84,0,0,1,.32-.05.72.72,0,0,1,.32.05l-1.11,3.77a1.47,1.47,0,0,1-.42.05,1.49,1.49,0,0,1-.43-.05Z"/><path class="cls-3" d="M174.07,44.34c1.07,0,1.41.48,1.41,1.43v2.46a.65.65,0,0,1-.29.05.79.79,0,0,1-.3-.05l-.11-.47a1.18,1.18,0,0,1-1.15.6,1.08,1.08,0,0,1-1.14-1.23c0-.8.49-1.16,1.41-1.16a8.22,8.22,0,0,1,.84.05v-.28c0-.5-.19-.78-.76-.78a3.1,3.1,0,0,0-1,.18.49.49,0,0,1-.17-.22.62.62,0,0,1-.05-.31A3.27,3.27,0,0,1,174.07,44.34ZM174,46.47c-.5,0-.75.19-.75.66s.24.66.64.66c.58,0,.85-.49.85-1v-.25A6.62,6.62,0,0,0,174,46.47Z"/><path class="cls-3" d="M179.37,48.23a1.39,1.39,0,0,1-.74,0V45.58c0-.41-.21-.64-.68-.64a1,1,0,0,0-.83.47v2.82a1.13,1.13,0,0,1-.37.05,1.05,1.05,0,0,1-.37-.05V44.46a1.05,1.05,0,0,1,.37-.05,1.13,1.13,0,0,1,.37.05v.34a1.42,1.42,0,0,1,1.11-.46,1,1,0,0,1,1.14,1.11Z"/><path class="cls-3" d="M181,43.67a1.16,1.16,0,0,1-.38,0,1.09,1.09,0,0,1-.38,0V43a1.09,1.09,0,0,1,.38,0,1.16,1.16,0,0,1,.38,0Zm0,4.56a1.13,1.13,0,0,1-.37.05,1,1,0,0,1-.37-.05V44.46a1,1,0,0,1,.37-.05,1.13,1.13,0,0,1,.37.05Z"/><path class="cls-3" d="M182.57,46.58c.06.87.41,1.15,1,1.15a1.83,1.83,0,0,0,.87-.21.71.71,0,0,1,.23.53,2.17,2.17,0,0,1-1.22.31c-1.13,0-1.66-.7-1.66-2s.65-2,1.63-2a1.33,1.33,0,0,1,1.46,1.48,3.24,3.24,0,0,1-.08.76Zm.87-1.66c-.48,0-.81.32-.87,1.13h1.57a2.06,2.06,0,0,0,0-.33C184.16,45.29,184,44.92,183.44,44.92Z"/><path class="cls-3" d="M188.48,44.34c1.07,0,1.4.48,1.4,1.43v2.46a.57.57,0,0,1-.28.05.79.79,0,0,1-.3-.05l-.11-.47a1.18,1.18,0,0,1-1.15.6,1.08,1.08,0,0,1-1.14-1.23c0-.8.49-1.16,1.41-1.16a8.22,8.22,0,0,1,.84.05v-.28c0-.5-.19-.78-.76-.78a3.1,3.1,0,0,0-1,.18.49.49,0,0,1-.17-.22.62.62,0,0,1-.05-.31A3.21,3.21,0,0,1,188.48,44.34Zm-.07,2.13c-.5,0-.75.19-.75.66s.24.66.64.66c.58,0,.85-.49.85-1v-.25A6.81,6.81,0,0,0,188.41,46.47Z"/><path class="cls-3" d="M193.78,48.23a1.13,1.13,0,0,1-.37.05,1.05,1.05,0,0,1-.37-.05V45.58c0-.41-.21-.64-.68-.64a1,1,0,0,0-.83.47v2.82a1.2,1.2,0,0,1-.37.05,1,1,0,0,1-.37-.05V44.46a1,1,0,0,1,.37-.05,1.2,1.2,0,0,1,.37.05v.34a1.41,1.41,0,0,1,1.11-.46,1,1,0,0,1,1.14,1.11Z"/><path class="cls-3" d="M195.67,46.89c0,.67.21.87.74.87a2.13,2.13,0,0,0,.31,0,.9.9,0,0,1,.05.29.79.79,0,0,1,0,.27,1.94,1.94,0,0,1-.53.07c-.9,0-1.26-.5-1.26-1.43V45h-.57a.79.79,0,0,1,0-.27.82.82,0,0,1,0-.28h.57v-.67a1.31,1.31,0,0,1,.73-.14v.81h1a.82.82,0,0,1,0,.28.87.87,0,0,1,0,.27h-1Z"/><path class="cls-3" d="M199.09,48.85c-.27.81-.52,1.27-1.32,1.27a1.09,1.09,0,0,1-.4-.07.8.8,0,0,1-.06-.27.86.86,0,0,1,.06-.3,2.2,2.2,0,0,0,.33,0c.34,0,.5-.09.72-.78l.16-.45a.74.74,0,0,1-.24-.05L197,44.46a1.23,1.23,0,0,1,.38-.05,1.16,1.16,0,0,1,.38.05l.84,2.24a8.68,8.68,0,0,1,.26.86h0s.07-.34.23-.85l.73-2.25a1,1,0,0,1,.36-.05,1.14,1.14,0,0,1,.35.05Z"/><path class="cls-3" d="M202.22,44.34a2.1,2.1,0,0,1,1,.2.77.77,0,0,1-.19.52,2.65,2.65,0,0,0-.77-.12c-.5,0-.75.19-.75.53s.46.45.92.61,1,.38,1,1.1-.46,1.18-1.4,1.18a2.54,2.54,0,0,1-1.22-.27.74.74,0,0,1,.19-.54,3.23,3.23,0,0,0,1,.18c.45,0,.7-.17.7-.53s-.4-.49-.84-.62-1-.36-1-1.09S201.29,44.34,202.22,44.34Z"/><path class="cls-3" d="M204.74,46.58c.06.87.41,1.15,1,1.15a1.78,1.78,0,0,0,.87-.21.76.76,0,0,1,.24.53,2.17,2.17,0,0,1-1.22.31c-1.14,0-1.67-.7-1.67-2s.66-2,1.64-2a1.33,1.33,0,0,1,1.45,1.48,3.24,3.24,0,0,1-.08.76Zm.88-1.66c-.48,0-.82.32-.88,1.13h1.58s0-.17,0-.33C206.34,45.29,206.16,44.92,205.62,44.92Z"/><path class="cls-3" d="M209.59,44.34c.84,0,1.38.51,1.38,2s-.54,2-1.38,2a1.19,1.19,0,0,1-1.06-.48v2.06a1.3,1.3,0,0,1-.37,0,1.26,1.26,0,0,1-.36,0V44.46a1,1,0,0,1,.36-.05,1.05,1.05,0,0,1,.37.05v.36A1.19,1.19,0,0,1,209.59,44.34Zm-.25.6a.84.84,0,0,0-.81.93v.94a.84.84,0,0,0,.81.94c.58,0,.88-.31.88-1.4S209.92,44.94,209.34,44.94Z"/><path class="cls-3" d="M212.71,46.89c0,.67.22.87.74.87a2,2,0,0,0,.31,0,.9.9,0,0,1,.05.29.79.79,0,0,1,0,.27,1.94,1.94,0,0,1-.53.07c-.9,0-1.26-.5-1.26-1.43V45h-.57a.79.79,0,0,1,0-.27.82.82,0,0,1,0-.28H212v-.67a1.31,1.31,0,0,1,.73-.14v.81h1a.82.82,0,0,1,0,.28.87.87,0,0,1,0,.27h-1Z"/><path class="cls-3" d="M216.13,48.85c-.27.81-.52,1.27-1.32,1.27a1.09,1.09,0,0,1-.4-.07.94.94,0,0,1,0-.27.66.66,0,0,1,.06-.3,2,2,0,0,0,.33,0c.33,0,.5-.09.72-.78l.15-.45a.68.68,0,0,1-.23-.05L214,44.46a1.23,1.23,0,0,1,.38-.05,1.16,1.16,0,0,1,.38.05l.84,2.24a6.24,6.24,0,0,1,.26.86h0s.07-.34.23-.85l.73-2.25a1,1,0,0,1,.36-.05,1.06,1.06,0,0,1,.35.05Z"/><path class="cls-3" d="M220.27,44.46a1.2,1.2,0,0,1,.37-.05,1.25,1.25,0,0,1,.36.05l-1.13,1.75,1.3,2a1.27,1.27,0,0,1-.41.06,1.17,1.17,0,0,1-.4-.06l-1.1-1.69h-.41v1.69a1.25,1.25,0,0,1-.36.05,1.23,1.23,0,0,1-.38-.05V42.8a2.14,2.14,0,0,1,.38,0,2.33,2.33,0,0,1,.36,0V46h.42Z"/><path class="cls-3" d="M222.42,43.67a1.16,1.16,0,0,1-.38,0,1.09,1.09,0,0,1-.38,0V43a1.09,1.09,0,0,1,.38,0,1.16,1.16,0,0,1,.38,0Zm0,4.56a1.39,1.39,0,0,1-.74,0V44.46a1.39,1.39,0,0,1,.74,0Z"/><path class="cls-3" d="M224.89,44.46a1,1,0,0,1,.37-.05,1.13,1.13,0,0,1,.37.05v4.47c0,.78-.38,1.19-1.07,1.19a1.47,1.47,0,0,1-.49-.07.65.65,0,0,1,0-.16.81.81,0,0,1,.07-.38,1.24,1.24,0,0,0,.27,0c.33,0,.5-.18.5-.58Zm.75-.8a1.16,1.16,0,0,1-.38.05,1,1,0,0,1-.38-.05V43a1,1,0,0,1,.38,0,1.16,1.16,0,0,1,.38,0Z"/><path class="cls-3" d="M227.17,46.58c.06.87.41,1.15,1,1.15a1.83,1.83,0,0,0,.87-.21.75.75,0,0,1,.23.53,2.17,2.17,0,0,1-1.22.31c-1.13,0-1.66-.7-1.66-2s.65-2,1.63-2a1.33,1.33,0,0,1,1.46,1.48,3.24,3.24,0,0,1-.08.76Zm.87-1.66c-.48,0-.81.32-.87,1.13h1.57a2.06,2.06,0,0,0,0-.33C228.76,45.29,228.59,44.92,228,44.92Z"/><path class="cls-3" d="M231.43,44.34a2.06,2.06,0,0,1,1,.2.73.73,0,0,1-.19.52,2.65,2.65,0,0,0-.77-.12c-.5,0-.75.19-.75.53s.46.45.92.61,1,.38,1,1.1-.46,1.18-1.39,1.18a2.56,2.56,0,0,1-1.23-.27.71.71,0,0,1,.2-.54,3.12,3.12,0,0,0,1,.18c.45,0,.71-.17.71-.53s-.41-.49-.84-.62-1-.36-1-1.09S230.5,44.34,231.43,44.34Z"/><path class="cls-3" d="M234.35,46.89c0,.67.21.87.74.87a1.92,1.92,0,0,0,.3,0,.77.77,0,0,1,.06.29.79.79,0,0,1,0,.27,1.94,1.94,0,0,1-.53.07c-.9,0-1.26-.5-1.26-1.43V45h-.57a.65.65,0,0,1-.05-.27.68.68,0,0,1,.05-.28h.57v-.67a1.31,1.31,0,0,1,.73-.14v.81h1a.82.82,0,0,1,0,.28.87.87,0,0,1,0,.27h-1Z"/><path class="cls-3" d="M241.48,44.34a1,1,0,0,1,1.1,1.11v2.78a1.13,1.13,0,0,1-.37.05,1,1,0,0,1-.37-.05V45.58a.56.56,0,0,0-.64-.64.92.92,0,0,0-.78.47v2.82a1.13,1.13,0,0,1-.37.05,1,1,0,0,1-.36-.05V45.58a.56.56,0,0,0-.64-.64,1,1,0,0,0-.79.46v2.83a1.09,1.09,0,0,1-.36.05,1,1,0,0,1-.37-.05V44.46a1,1,0,0,1,.37-.05,1.09,1.09,0,0,1,.36.05v.34a1.36,1.36,0,0,1,1.06-.46,1,1,0,0,1,1,.54A1.47,1.47,0,0,1,241.48,44.34Z"/><path class="cls-3" d="M245,44.34c1,0,1.63.55,1.63,2s-.62,2-1.63,2-1.63-.56-1.63-2S244,44.34,245,44.34Zm0,.57c-.54,0-.88.3-.88,1.44s.34,1.44.88,1.44.87-.31.87-1.44S245.5,44.91,245,44.91Z"/><path class="cls-3" d="M249.84,47.68a.88.88,0,0,1,0,.3,1,1,0,0,1,0,.3h-2.73a1.46,1.46,0,0,1,0-.31,1.06,1.06,0,0,1,0-.29l2-2.66h-1.84a1.16,1.16,0,0,1,0-.31,1,1,0,0,1,0-.3h2.61a.78.78,0,0,1,0,.29,1,1,0,0,1,0,.32l-2,2.66Zm-.91-4a1.22,1.22,0,0,1-.35,0,1.14,1.14,0,0,1-.35,0v-.64a1.14,1.14,0,0,1,.35,0,1.22,1.22,0,0,1,.35,0Z"/><path class="cls-3" d="M251.38,48.23a1.13,1.13,0,0,1-.37.05,1,1,0,0,1-.37-.05V42.82a1,1,0,0,1,.37,0,1.13,1.13,0,0,1,.37,0Z"/><path class="cls-3" d="M253.1,43.67a1.16,1.16,0,0,1-.38,0,1,1,0,0,1-.38,0V43a1,1,0,0,1,.38,0,1.16,1.16,0,0,1,.38,0Zm0,4.56a1.13,1.13,0,0,1-.37.05,1,1,0,0,1-.37-.05V44.46a1,1,0,0,1,.37-.05,1.13,1.13,0,0,1,.37.05Z"/><path class="cls-3" d="M256.66,46.24a4.81,4.81,0,0,1-.2-1.06h0a5,5,0,0,1-.21,1.06l-.58,2a1.34,1.34,0,0,1-.42.05,1.38,1.38,0,0,1-.42-.05l-1.12-3.77a1.2,1.2,0,0,1,.37-.05.62.62,0,0,1,.32.05l.7,2.35a5.15,5.15,0,0,1,.15.72h0a5.65,5.65,0,0,1,.17-.72l.67-2.35a1.66,1.66,0,0,1,.4-.05,1,1,0,0,1,.36.05l.65,2.34a3.44,3.44,0,0,1,.15.73h0c0-.15.09-.39.19-.73l.69-2.34a.9.9,0,0,1,.32-.05.72.72,0,0,1,.32.05l-1.11,3.77a1.42,1.42,0,0,1-.42.05,1.49,1.49,0,0,1-.43-.05Z"/><path class="cls-3" d="M261.05,44.34c1.07,0,1.41.48,1.41,1.43v2.47c-.47.13-.73.42-.73.71s.1.32.38.32a.76.76,0,0,0,.26-.05.48.48,0,0,1,.12.33,1,1,0,0,1-.5.14c-.49,0-.78-.25-.78-.64a1,1,0,0,1,.67-.84l-.11-.45a1.2,1.2,0,0,1-1.16.6,1.08,1.08,0,0,1-1.14-1.23c0-.79.49-1.16,1.41-1.16a8.22,8.22,0,0,1,.84.05v-.29c0-.53-.18-.77-.76-.77a3.1,3.1,0,0,0-1,.18.49.49,0,0,1-.17-.22.62.62,0,0,1-.05-.31A3.27,3.27,0,0,1,261.05,44.34ZM261,46.47c-.49,0-.75.2-.75.66a.57.57,0,0,0,.64.66.91.91,0,0,0,.85-1v-.25A6.62,6.62,0,0,0,261,46.47Z"/><path class="cls-3" d="M266.22,44.34c1.07,0,1.41.48,1.41,1.43v2.46a.65.65,0,0,1-.29.05.79.79,0,0,1-.3-.05l-.11-.47a1.18,1.18,0,0,1-1.15.6,1.08,1.08,0,0,1-1.14-1.23c0-.8.49-1.16,1.41-1.16a8.22,8.22,0,0,1,.84.05v-.28c0-.5-.19-.78-.76-.78a3.1,3.1,0,0,0-1,.18.49.49,0,0,1-.17-.22.62.62,0,0,1-.05-.31A3.21,3.21,0,0,1,266.22,44.34Zm-.07,2.13c-.5,0-.75.19-.75.66s.24.66.64.66c.58,0,.85-.49.85-1v-.25A6.62,6.62,0,0,0,266.15,46.47Z"/><path class="cls-3" d="M269.29,48.23a1.39,1.39,0,0,1-.74,0V42.82a1.39,1.39,0,0,1,.74,0Z"/><path class="cls-3" d="M271.23,46.89c0,.67.22.87.74.87a2,2,0,0,0,.31,0,.9.9,0,0,1,.05.29.79.79,0,0,1,0,.27,1.94,1.94,0,0,1-.53.07c-.9,0-1.26-.5-1.26-1.43V45h-.57a.79.79,0,0,1,0-.27.82.82,0,0,1,0-.28h.57v-.67a1.31,1.31,0,0,1,.73-.14v.81h1a.82.82,0,0,1,0,.28.87.87,0,0,1,0,.27h-1Z"/><path class="cls-3" d="M273.49,46.58c.06.87.41,1.15,1,1.15a1.83,1.83,0,0,0,.87-.21.75.75,0,0,1,.23.53,2.17,2.17,0,0,1-1.22.31c-1.13,0-1.66-.7-1.66-2s.65-2,1.63-2a1.33,1.33,0,0,1,1.46,1.48,3.24,3.24,0,0,1-.08.76Zm.87-1.66c-.48,0-.81.32-.87,1.13h1.57a2.06,2.06,0,0,0,0-.33C275.08,45.29,274.91,44.92,274.36,44.92Z"/><path class="cls-3" d="M278.17,44.35a1.18,1.18,0,0,1,.64.18.84.84,0,0,1-.32.62A.8.8,0,0,0,278,45a1,1,0,0,0-.76.56v2.68a1.05,1.05,0,0,1-.37.05,1,1,0,0,1-.36-.05V44.46a1,1,0,0,1,.36-.05,1.05,1.05,0,0,1,.37.05V45A1.07,1.07,0,0,1,278.17,44.35Z"/><path class="cls-3" d="M282.28,48.23a1.05,1.05,0,0,1-.37.05,1,1,0,0,1-.36-.05V45.58c0-.41-.22-.64-.69-.64a1,1,0,0,0-.83.47v2.82a1.13,1.13,0,0,1-.37.05,1,1,0,0,1-.36-.05V44.46a1,1,0,0,1,.36-.05,1.13,1.13,0,0,1,.37.05v.34a1.44,1.44,0,0,1,1.11-.46,1,1,0,0,1,1.14,1.11Z"/><path class="cls-3" d="M284.54,44.34c1.06,0,1.4.48,1.4,1.43v2.46a.6.6,0,0,1-.29.05.76.76,0,0,1-.29-.05l-.11-.47a1.18,1.18,0,0,1-1.15.6A1.07,1.07,0,0,1,283,47.13c0-.8.49-1.16,1.41-1.16.33,0,.64,0,.84.05v-.28c0-.5-.2-.78-.76-.78a3.12,3.12,0,0,0-1,.18.73.73,0,0,1-.17-.22.7.7,0,0,1,0-.31A3.21,3.21,0,0,1,284.54,44.34Zm-.08,2.13c-.49,0-.75.19-.75.66a.57.57,0,0,0,.64.66c.58,0,.86-.49.86-1v-.25A6.83,6.83,0,0,0,284.46,46.47Z"/><path class="cls-3" d="M287.84,46.89c0,.67.21.87.73.87a2,2,0,0,0,.31,0,.9.9,0,0,1,.05.29.79.79,0,0,1,0,.27,1.94,1.94,0,0,1-.53.07c-.9,0-1.26-.5-1.26-1.43V45h-.57a.79.79,0,0,1,0-.27.82.82,0,0,1,0-.28h.57v-.67a1.33,1.33,0,0,1,.74-.14v.81h1a.68.68,0,0,1,0,.28.71.71,0,0,1,0,.27h-1Z"/><path class="cls-3" d="M291.24,48.85c-.26.81-.52,1.27-1.31,1.27a1.11,1.11,0,0,1-.41-.07.94.94,0,0,1,0-.27.66.66,0,0,1,.06-.3,2,2,0,0,0,.33,0c.33,0,.5-.09.72-.78l.16-.45a.69.69,0,0,1-.24-.05l-1.4-3.77a1.27,1.27,0,0,1,.39-.05,1.16,1.16,0,0,1,.38.05l.84,2.24a7,7,0,0,1,.25.86h0s.08-.34.24-.85l.73-2.25a1,1,0,0,1,.36-.05,1,1,0,0,1,.34.05Z"/><path class="cls-3" d="M295.84,46.24a4.63,4.63,0,0,1-.19-1.06h0a5,5,0,0,1-.21,1.06l-.58,2a1.34,1.34,0,0,1-.42.05,1.45,1.45,0,0,1-.43-.05l-1.11-3.77a1.13,1.13,0,0,1,.37-.05.62.62,0,0,1,.32.05l.69,2.35a4.25,4.25,0,0,1,.16.72h0c0-.16.07-.4.16-.72l.68-2.35a1.66,1.66,0,0,1,.4-.05,1,1,0,0,1,.36.05l.65,2.34a4.24,4.24,0,0,1,.15.73h0a6.16,6.16,0,0,1,.19-.73l.69-2.34a.84.84,0,0,1,.32-.05.72.72,0,0,1,.32.05l-1.11,3.77a1.47,1.47,0,0,1-.42.05,1.49,1.49,0,0,1-.43-.05Z"/><path class="cls-3" d="M300.24,44.34c1.07,0,1.4.48,1.4,1.43v2.47c-.46.13-.72.42-.72.71s.1.32.38.32a.76.76,0,0,0,.26-.05.47.47,0,0,1,.11.33,1,1,0,0,1-.5.14c-.48,0-.78-.25-.78-.64a1,1,0,0,1,.67-.84l-.11-.45a1.18,1.18,0,0,1-1.15.6,1.08,1.08,0,0,1-1.14-1.23c0-.79.49-1.16,1.41-1.16a8.22,8.22,0,0,1,.84.05v-.29c0-.53-.18-.77-.76-.77a3.1,3.1,0,0,0-1,.18.49.49,0,0,1-.17-.22.62.62,0,0,1-.05-.31A3.21,3.21,0,0,1,300.24,44.34Zm-.07,2.13c-.5,0-.75.2-.75.66a.57.57,0,0,0,.64.66.91.91,0,0,0,.85-1v-.25A6.62,6.62,0,0,0,300.17,46.47Z"/><path class="cls-3" d="M305.69,44.34c1.06,0,1.4.48,1.4,1.43v2.46a.6.6,0,0,1-.29.05.76.76,0,0,1-.29-.05l-.11-.47a1.18,1.18,0,0,1-1.15.6,1.07,1.07,0,0,1-1.14-1.23c0-.8.49-1.16,1.41-1.16a8.22,8.22,0,0,1,.84.05v-.28c0-.5-.19-.78-.76-.78a3.12,3.12,0,0,0-1,.18.73.73,0,0,1-.17-.22.7.7,0,0,1,0-.31A3.21,3.21,0,0,1,305.69,44.34Zm-.08,2.13c-.49,0-.75.19-.75.66a.57.57,0,0,0,.64.66c.58,0,.86-.49.86-1v-.25A6.83,6.83,0,0,0,305.61,46.47Z"/><path class="cls-3" d="M311,48.23a1.13,1.13,0,0,1-.37.05,1.05,1.05,0,0,1-.37-.05V45.58c0-.41-.21-.64-.68-.64a1,1,0,0,0-.83.47v2.82a1.2,1.2,0,0,1-.37.05,1,1,0,0,1-.37-.05V44.46a1,1,0,0,1,.37-.05,1.2,1.2,0,0,1,.37.05v.34a1.41,1.41,0,0,1,1.11-.46A1,1,0,0,1,311,45.45Z"/><path class="cls-3" d="M312.88,46.89c0,.67.21.87.74.87a1.92,1.92,0,0,0,.3,0A.77.77,0,0,1,314,48a.79.79,0,0,1,0,.27,1.94,1.94,0,0,1-.53.07c-.91,0-1.27-.5-1.27-1.43V45h-.56a.65.65,0,0,1-.05-.27.68.68,0,0,1,.05-.28h.56v-.67a1.37,1.37,0,0,1,.74-.14v.81h1a.82.82,0,0,1,0,.28.87.87,0,0,1,0,.27h-1Z"/><path class="cls-3" d="M316.3,48.85c-.27.81-.53,1.27-1.32,1.27a1.18,1.18,0,0,1-.41-.07.94.94,0,0,1-.05-.27.66.66,0,0,1,.06-.3,2,2,0,0,0,.33,0c.33,0,.5-.09.72-.78l.16-.45a.69.69,0,0,1-.24-.05l-1.39-3.77a1.23,1.23,0,0,1,.38-.05,1.16,1.16,0,0,1,.38.05l.84,2.24a8.68,8.68,0,0,1,.26.86h0s.07-.34.23-.85l.73-2.25a1.25,1.25,0,0,1,.7,0Z"/><path class="cls-3" d="M319,44.82a1.19,1.19,0,0,1,1.06-.48c.84,0,1.38.51,1.38,2s-.54,2-1.38,2a1.19,1.19,0,0,1-1.06-.48v.35a1.05,1.05,0,0,1-.37.05,1,1,0,0,1-.36-.05V42.82a1,1,0,0,1,.36,0,1.05,1.05,0,0,1,.37,0Zm.8.12a.84.84,0,0,0-.8.93v.94a.84.84,0,0,0,.8.94c.59,0,.89-.31.89-1.4S320.4,44.94,319.81,44.94Z"/><path class="cls-3" d="M323,43.67a1.27,1.27,0,0,1-.39,0,1.09,1.09,0,0,1-.38,0V43a1.09,1.09,0,0,1,.38,0,1.27,1.27,0,0,1,.39,0Zm0,4.56a1.05,1.05,0,0,1-.37.05,1,1,0,0,1-.36-.05V44.46a1,1,0,0,1,.36-.05,1.05,1.05,0,0,1,.37.05Z"/><path class="cls-3" d="M325.4,44.34c1,0,1.63.55,1.63,2s-.63,2-1.63,2-1.64-.56-1.64-2S324.39,44.34,325.4,44.34Zm0,.57c-.54,0-.89.3-.89,1.44s.35,1.44.89,1.44.87-.31.87-1.44S325.93,44.91,325.4,44.91Z"/><path class="cls-3" d="M328.75,46.89c0,.67.21.87.73.87a2,2,0,0,0,.31,0,.9.9,0,0,1,0,.29.79.79,0,0,1,0,.27,1.94,1.94,0,0,1-.53.07c-.9,0-1.26-.5-1.26-1.43V45h-.57a.79.79,0,0,1,0-.27.82.82,0,0,1,0-.28H328v-.67a1.33,1.33,0,0,1,.74-.14v.81h.95a.68.68,0,0,1,.05.28.71.71,0,0,1-.05.27h-.95Z"/><path class="cls-3" d="M332.16,48.85c-.26.81-.52,1.27-1.32,1.27a1.09,1.09,0,0,1-.4-.07.94.94,0,0,1-.05-.27.66.66,0,0,1,.06-.3,2,2,0,0,0,.33,0c.33,0,.5-.09.72-.78l.15-.45a.68.68,0,0,1-.23-.05L330,44.46a1.23,1.23,0,0,1,.38-.05,1.27,1.27,0,0,1,.39.05l.83,2.24a6.24,6.24,0,0,1,.26.86h0a8.24,8.24,0,0,1,.24-.85l.72-2.25a1,1,0,0,1,.36-.05,1.06,1.06,0,0,1,.35.05Z"/><path class="cls-3" d="M336.3,44.46a1.2,1.2,0,0,1,.37-.05,1.25,1.25,0,0,1,.36.05l-1.13,1.75,1.3,2a1.27,1.27,0,0,1-.41.06,1.17,1.17,0,0,1-.4-.06l-1.1-1.69h-.41v1.69a1.25,1.25,0,0,1-.36.05,1.23,1.23,0,0,1-.38-.05V42.8a2.14,2.14,0,0,1,.38,0,2.17,2.17,0,0,1,.36,0V46h.42Z"/><path class="cls-3" d="M339,44.34c1,0,1.63.55,1.63,2s-.62,2-1.63,2-1.63-.56-1.63-2S338,44.34,339,44.34Zm0,.57c-.53,0-.88.3-.88,1.44s.35,1.44.88,1.44.88-.31.88-1.44S339.56,44.91,339,44.91Z"/><path class="cls-3" d="M342.37,46.89c0,.67.22.87.74.87a2.13,2.13,0,0,0,.31,0,.9.9,0,0,1,.05.29.79.79,0,0,1,0,.27,1.94,1.94,0,0,1-.53.07c-.9,0-1.26-.5-1.26-1.43V45h-.57a.79.79,0,0,1,0-.27.82.82,0,0,1,0-.28h.57v-.67a1.31,1.31,0,0,1,.73-.14v.81h1a.82.82,0,0,1,0,.28.87.87,0,0,1,0,.27h-1Z"/><path class="cls-3" d="M344.63,46.58c.05.87.41,1.15,1,1.15a1.83,1.83,0,0,0,.87-.21.75.75,0,0,1,.23.53,2.17,2.17,0,0,1-1.22.31c-1.13,0-1.66-.7-1.66-2s.65-2,1.63-2A1.33,1.33,0,0,1,347,45.82a3.24,3.24,0,0,1-.08.76Zm.87-1.66c-.48,0-.82.32-.87,1.13h1.57a2.06,2.06,0,0,0,0-.33C346.22,45.29,346.05,44.92,345.5,44.92Z"/><path class="cls-3" d="M349.31,44.35a1.16,1.16,0,0,1,.64.18.81.81,0,0,1-.32.62.78.78,0,0,0-.46-.16,1,1,0,0,0-.75.56v2.68a1.13,1.13,0,0,1-.37.05,1,1,0,0,1-.37-.05V44.46a1,1,0,0,1,.37-.05,1.13,1.13,0,0,1,.37.05V45A1.07,1.07,0,0,1,349.31,44.35Z"/><path class="cls-3" d="M351.73,44.34c1.07,0,1.4.48,1.4,1.43v2.46a.57.57,0,0,1-.28.05.79.79,0,0,1-.3-.05l-.11-.47a1.18,1.18,0,0,1-1.15.6,1.08,1.08,0,0,1-1.14-1.23c0-.8.49-1.16,1.41-1.16a8.22,8.22,0,0,1,.84.05v-.28c0-.5-.19-.78-.76-.78a3.1,3.1,0,0,0-1,.18.49.49,0,0,1-.17-.22.62.62,0,0,1-.05-.31A3.21,3.21,0,0,1,351.73,44.34Zm-.07,2.13c-.5,0-.75.19-.75.66s.24.66.64.66c.58,0,.85-.49.85-1v-.25A6.81,6.81,0,0,0,351.66,46.47Z"/><path class="cls-3" d="M355.84,44.34c.83,0,1.38.51,1.38,2s-.55,2-1.38,2a1.17,1.17,0,0,1-1.06-.48v2.06a1.42,1.42,0,0,1-.38,0,1.26,1.26,0,0,1-.36,0V44.46a1,1,0,0,1,.36-.05,1.16,1.16,0,0,1,.38.05v.36A1.17,1.17,0,0,1,355.84,44.34Zm-.26.6a.83.83,0,0,0-.8.93v.94a.83.83,0,0,0,.8.94c.59,0,.88-.31.88-1.4S356.17,44.94,355.58,44.94Z"/><path class="cls-3" d="M358.77,43.67a1.27,1.27,0,0,1-.39,0,1.09,1.09,0,0,1-.38,0V43a1.09,1.09,0,0,1,.38,0,1.27,1.27,0,0,1,.39,0Zm0,4.56a1.05,1.05,0,0,1-.37.05,1,1,0,0,1-.36-.05V44.46a1,1,0,0,1,.36-.05,1.05,1.05,0,0,1,.37.05Z"/><path class="cls-3" d="M360.47,43.67a1.16,1.16,0,0,1-.38,0,1.12,1.12,0,0,1-.39,0V43a1.12,1.12,0,0,1,.39,0,1.16,1.16,0,0,1,.38,0Zm0,4.56a1,1,0,0,1-.36.05,1,1,0,0,1-.37-.05V44.46a1,1,0,0,1,.37-.05,1,1,0,0,1,.36.05Z"/><path class="cls-3" d="M361.31,49a1.31,1.31,0,0,0,.28-.74.7.7,0,0,1-.25-.05v-.69a1.27,1.27,0,0,1,.39,0,1.16,1.16,0,0,1,.38,0V48a1.55,1.55,0,0,1-.53,1.2Z"/><path class="cls-3" d="M152.17,56.51a1,1,0,0,1,0,.3,1.07,1.07,0,0,1,0,.31h-2.73a1.47,1.47,0,0,1,0-.32,1.12,1.12,0,0,1,0-.29l2-2.66h-1.84a1.07,1.07,0,0,1,0-.31.85.85,0,0,1,0-.29h2.61a.72.72,0,0,1,0,.28,1,1,0,0,1,0,.32l-1.95,2.66Z"/><path class="cls-3" d="M154.58,53.17c1.06,0,1.4.48,1.4,1.43v2.46a.51.51,0,0,1-.29.06.65.65,0,0,1-.29-.06l-.11-.47a1.18,1.18,0,0,1-1.15.6c-.7,0-1.14-.4-1.14-1.23s.49-1.15,1.41-1.15c.33,0,.64,0,.84,0v-.27c0-.5-.2-.79-.76-.79a3,3,0,0,0-1,.19.89.89,0,0,1-.17-.23.66.66,0,0,1,0-.3A3.12,3.12,0,0,1,154.58,53.17Zm-.08,2.14c-.49,0-.75.19-.75.65a.57.57,0,0,0,.64.66.9.9,0,0,0,.86-1v-.26C155.08,55.34,154.78,55.31,154.5,55.31Z"/><path class="cls-3" d="M159,53.17c.84,0,1.39.51,1.39,2s-.55,2-1.39,2a1.16,1.16,0,0,1-1.05-.48v2.06a1.16,1.16,0,0,1-.38,0,1,1,0,0,1-.36,0V53.3a1,1,0,0,1,.36,0,1.16,1.16,0,0,1,.38,0v.35A1.16,1.16,0,0,1,159,53.17Zm-.25.61a.82.82,0,0,0-.8.92v.95a.84.84,0,0,0,.8.94c.59,0,.88-.31.88-1.41S159.3,53.78,158.71,53.78Z"/><path class="cls-3" d="M162,55.41c.06.88.41,1.15,1,1.15a1.83,1.83,0,0,0,.87-.21.79.79,0,0,1,.23.53,2.17,2.17,0,0,1-1.22.31c-1.13,0-1.66-.7-1.66-2s.65-2,1.63-2a1.33,1.33,0,0,1,1.46,1.48,3.14,3.14,0,0,1-.08.76Zm.87-1.66c-.48,0-.81.32-.87,1.14h1.57a2.27,2.27,0,0,0,0-.33C163.6,54.12,163.43,53.75,162.88,53.75Z"/><path class="cls-3" d="M167.94,55.07a4.81,4.81,0,0,1-.2-1.06h0a4.88,4.88,0,0,1-.21,1.06l-.58,2a1.29,1.29,0,0,1-.42.06,1.37,1.37,0,0,1-.42-.06L165,53.3a1.09,1.09,0,0,1,.36,0,.62.62,0,0,1,.32,0l.7,2.35a4.63,4.63,0,0,1,.15.72h0a3.88,3.88,0,0,1,.16-.72l.67-2.35a1.66,1.66,0,0,1,.4,0,1,1,0,0,1,.36,0l.66,2.33a3.9,3.9,0,0,1,.14.74h0a5.25,5.25,0,0,1,.18-.73l.69-2.34a.9.9,0,0,1,.32,0,.72.72,0,0,1,.32,0l-1.11,3.76a1.37,1.37,0,0,1-.42.06,1.54,1.54,0,0,1-.43-.06Z"/><path class="cls-3" d="M174.32,57.06a1,1,0,0,1-.37.06.9.9,0,0,1-.37-.06V54.42c0-.42-.21-.65-.68-.65a1,1,0,0,0-.83.47v2.82a1,1,0,0,1-.37.06.84.84,0,0,1-.37-.06V53.3a1,1,0,0,1,.37,0,1.13,1.13,0,0,1,.37,0v.34a1.43,1.43,0,0,1,1.11-.47,1,1,0,0,1,1.14,1.11Z"/><path class="cls-3" d="M176.28,52.5a1,1,0,0,1-.38.06.87.87,0,0,1-.38-.06v-.69a1,1,0,0,1,.38-.05,1.16,1.16,0,0,1,.38.05Zm0,4.56a1,1,0,0,1-.37.06.84.84,0,0,1-.37-.06V53.3a1,1,0,0,1,.37,0,1.13,1.13,0,0,1,.37,0Z"/><path class="cls-3" d="M178.84,53.17c1.07,0,1.41.48,1.41,1.43v2.46a.51.51,0,0,1-.29.06.65.65,0,0,1-.29-.06l-.11-.47a1.2,1.2,0,0,1-1.16.6A1.07,1.07,0,0,1,177.26,56c0-.8.49-1.15,1.41-1.15.33,0,.65,0,.84,0v-.27c0-.5-.19-.79-.76-.79a3,3,0,0,0-1,.19.57.57,0,0,1-.17-.23.53.53,0,0,1,0-.3A3.1,3.1,0,0,1,178.84,53.17Zm-.07,2.14c-.49,0-.75.19-.75.65s.24.66.64.66c.58,0,.85-.49.85-1v-.26C179.34,55.34,179.05,55.31,178.77,55.31Z"/><path class="cls-3" d="M185.76,56.51a.79.79,0,0,1,.05.3.88.88,0,0,1-.05.31H183a1.47,1.47,0,0,1,0-.32,1.12,1.12,0,0,1,0-.29l2-2.66h-1.83a.88.88,0,0,1,0-.31.7.7,0,0,1,0-.29h2.6a.7.7,0,0,1,.05.28,1,1,0,0,1-.05.32l-1.95,2.66Z"/><path class="cls-3" d="M188.17,53.17c1.07,0,1.4.48,1.4,1.43v2.46a.49.49,0,0,1-.28.06.67.67,0,0,1-.3-.06l-.11-.47a1.18,1.18,0,0,1-1.15.6A1.07,1.07,0,0,1,186.59,56c0-.8.49-1.15,1.41-1.15.33,0,.65,0,.84,0v-.27c0-.5-.19-.79-.76-.79a3,3,0,0,0-1,.19.57.57,0,0,1-.17-.23.6.6,0,0,1-.05-.3A3.12,3.12,0,0,1,188.17,53.17Zm-.07,2.14c-.5,0-.75.19-.75.65s.24.66.64.66c.58,0,.85-.49.85-1v-.26C188.67,55.34,188.38,55.31,188.1,55.31Z"/><path class="cls-3" d="M193.42,51.6a1,1,0,0,1,.36,0v5.41a.81.81,0,0,1-.31.06,1,1,0,0,1-.33-.06l0-.39a1.22,1.22,0,0,1-1.11.52c-.84,0-1.38-.51-1.38-2s.54-2,1.38-2a1.19,1.19,0,0,1,1.06.48v-2A1.16,1.16,0,0,1,193.42,51.6Zm-1.18,2.18c-.59,0-.88.31-.88,1.4s.29,1.41.88,1.41a.84.84,0,0,0,.8-.94V54.7A.83.83,0,0,0,192.24,53.78Z"/><path class="cls-3" d="M196.47,53.17c1,0,1.63.56,1.63,2s-.63,2-1.63,2-1.64-.55-1.64-2S195.46,53.17,196.47,53.17Zm0,.57c-.54,0-.89.31-.89,1.44s.35,1.44.89,1.44.87-.31.87-1.44S197,53.74,196.47,53.74Z"/><path class="cls-3" d="M201.71,55.07a4.81,4.81,0,0,1-.2-1.06h0a4.88,4.88,0,0,1-.21,1.06l-.58,2a1.33,1.33,0,0,1-.42.06,1.37,1.37,0,0,1-.42-.06l-1.11-3.76a1.09,1.09,0,0,1,.36,0,.62.62,0,0,1,.32,0l.7,2.35a4.63,4.63,0,0,1,.15.72h0a3.88,3.88,0,0,1,.16-.72l.67-2.35a1.66,1.66,0,0,1,.4,0,1,1,0,0,1,.36,0l.66,2.33a3.9,3.9,0,0,1,.14.74h0c0-.16.09-.39.19-.73l.69-2.34a.9.9,0,0,1,.32,0,.72.72,0,0,1,.32,0l-1.11,3.76a1.42,1.42,0,0,1-.42.06,1.54,1.54,0,0,1-.43-.06Z"/><path class="cls-3" d="M206.39,53.17c1.07,0,1.41.48,1.41,1.43v2.46a.56.56,0,0,1-.29.06.67.67,0,0,1-.3-.06l-.11-.47a1.18,1.18,0,0,1-1.15.6A1.07,1.07,0,0,1,204.81,56c0-.8.49-1.15,1.41-1.15.33,0,.65,0,.84,0v-.27c0-.5-.19-.79-.76-.79a3,3,0,0,0-1,.19.57.57,0,0,1-.17-.23.6.6,0,0,1-.05-.3A3.12,3.12,0,0,1,206.39,53.17Zm-.07,2.14c-.5,0-.75.19-.75.65s.24.66.64.66c.58,0,.85-.49.85-1v-.26C206.89,55.34,206.6,55.31,206.32,55.31Z"/><path class="cls-3" d="M209.75,57.06a1,1,0,0,1-.37.06.84.84,0,0,1-.37-.06V51.65a1,1,0,0,1,.37,0,1.13,1.13,0,0,1,.37,0Z"/><path class="cls-3" d="M212.33,53.17c1.07,0,1.41.48,1.41,1.43v2.46a.51.51,0,0,1-.29.06.65.65,0,0,1-.29-.06l-.11-.47a1.2,1.2,0,0,1-1.16.6A1.07,1.07,0,0,1,210.75,56c0-.8.49-1.15,1.41-1.15.33,0,.65,0,.84,0v-.27c0-.5-.19-.79-.76-.79a3,3,0,0,0-1,.19.57.57,0,0,1-.17-.23.6.6,0,0,1-.05-.3A3.18,3.18,0,0,1,212.33,53.17Zm-.07,2.14c-.49,0-.75.19-.75.65s.24.66.64.66c.58,0,.85-.49.85-1v-.26C212.83,55.34,212.54,55.31,212.26,55.31Z"/><path class="cls-3" d="M214.94,53.3a1,1,0,0,1,.37,0,1,1,0,0,1,.36,0v4.46c0,.78-.37,1.2-1.06,1.2a1.58,1.58,0,0,1-.5-.07.68.68,0,0,1,0-.17.73.73,0,0,1,.08-.38,1.13,1.13,0,0,0,.27,0c.33,0,.5-.17.5-.58Zm.75-.8a1.16,1.16,0,0,1-.38,0,1.12,1.12,0,0,1-.39,0v-.69a1,1,0,0,1,.39-.06,1,1,0,0,1,.38.06Z"/><path class="cls-3" d="M218.25,53.17c1.07,0,1.41.48,1.41,1.43v2.47c-.47.13-.73.42-.73.72s.1.32.38.32a.76.76,0,0,0,.26,0,.44.44,0,0,1,.11.33,1.09,1.09,0,0,1-.5.13c-.48,0-.77-.25-.77-.63a1,1,0,0,1,.66-.85l-.11-.45a1.18,1.18,0,0,1-1.15.6A1.08,1.08,0,0,1,216.67,56c0-.79.49-1.15,1.41-1.15.33,0,.65,0,.84,0v-.29c0-.53-.18-.77-.76-.77a3,3,0,0,0-1,.19.57.57,0,0,1-.17-.23.6.6,0,0,1,0-.3A3.12,3.12,0,0,1,218.25,53.17Zm-.07,2.14c-.5,0-.75.2-.75.65a.57.57,0,0,0,.64.66c.58,0,.85-.5.85-1v-.25C218.75,55.34,218.46,55.31,218.18,55.31Z"/><path class="cls-3" d="M221.43,55.18c0,1,.31,1.38,1,1.38a2,2,0,0,0,.69-.12.8.8,0,0,1,.21.53,2,2,0,0,1-1.06.22c-1.07,0-1.62-.7-1.62-2s.55-2,1.62-2a1.89,1.89,0,0,1,1,.19.73.73,0,0,1-.22.53,1.73,1.73,0,0,0-.64-.11C221.71,53.78,221.43,54.23,221.43,55.18Z"/><path class="cls-3" d="M224.77,55.41c.06.88.42,1.15,1,1.15a1.76,1.76,0,0,0,.86-.21.75.75,0,0,1,.24.53,2.17,2.17,0,0,1-1.22.31c-1.13,0-1.66-.7-1.66-2s.65-2,1.63-2a1.33,1.33,0,0,1,1.46,1.48,2.81,2.81,0,0,1-.09.76Zm.88-1.66c-.48,0-.82.32-.88,1.14h1.58c0-.06,0-.18,0-.33C226.37,54.12,226.19,53.75,225.65,53.75Z"/><path class="cls-3" d="M233.06,53.17a.83.83,0,0,1,0,.58l-.61,0a1.32,1.32,0,0,1,.21.77c0,.82-.5,1.32-1.45,1.32l-.32,0a.67.67,0,0,0-.14.43c.08.67,2.3,0,2.3,1.47,0,.72-.7,1.26-1.89,1.26s-1.56-.44-1.56-1a1.23,1.23,0,0,1,.65-1,.61.61,0,0,1-.16-.43,1.34,1.34,0,0,1,.35-.82,1.18,1.18,0,0,1-.67-1.17,1.26,1.26,0,0,1,1.44-1.33,1.75,1.75,0,0,1,.82.17Zm-2.41,3.95a.85.85,0,0,0-.34.67c0,.36.27.64.87.64.76,0,1.17-.27,1.17-.66C232.35,57.17,231.31,57.32,230.65,57.12Zm.56-3.43c-.44,0-.74.26-.74.81a.7.7,0,0,0,.74.8c.45,0,.74-.25.74-.8S231.66,53.69,231.21,53.69Z"/><path class="cls-3" d="M235.39,53.17c1,0,1.63.56,1.63,2s-.62,2-1.63,2-1.63-.55-1.63-2S234.38,53.17,235.39,53.17Zm0,.57c-.54,0-.88.31-.88,1.44s.34,1.44.88,1.44.87-.31.87-1.44S235.92,53.74,235.39,53.74Z"/><path class="cls-3" d="M238.09,53.3a1,1,0,0,1,.36,0,1.05,1.05,0,0,1,.37,0v4.46c0,.78-.37,1.2-1.07,1.2a1.55,1.55,0,0,1-.49-.07.68.68,0,0,1,0-.17.81.81,0,0,1,.07-.38,1.28,1.28,0,0,0,.28,0c.33,0,.5-.17.5-.58Zm.75-.8a1.27,1.27,0,0,1-.39,0,1.09,1.09,0,0,1-.38,0v-.69a.92.92,0,0,1,.38-.06,1.08,1.08,0,0,1,.39.06Z"/><path class="cls-3" d="M240.65,55.41c.06.88.41,1.15,1,1.15a1.83,1.83,0,0,0,.87-.21.79.79,0,0,1,.23.53,2.17,2.17,0,0,1-1.22.31c-1.13,0-1.66-.7-1.66-2s.65-2,1.63-2A1.33,1.33,0,0,1,243,54.65a3.14,3.14,0,0,1-.08.76Zm.87-1.66c-.48,0-.81.32-.87,1.14h1.57a2.27,2.27,0,0,0,0-.33C242.24,54.12,242.07,53.75,241.52,53.75Z"/><path class="cls-3" d="M247,57.06a1,1,0,0,1-.37.06.9.9,0,0,1-.37-.06V54.42c0-.42-.21-.65-.68-.65a1,1,0,0,0-.83.47v2.82a1,1,0,0,1-.37.06.84.84,0,0,1-.37-.06V53.3a1,1,0,0,1,.37,0,1.2,1.2,0,0,1,.37,0v.34a1.42,1.42,0,0,1,1.11-.47A1,1,0,0,1,247,54.28Z"/><path class="cls-3" d="M248.93,52.5a1,1,0,0,1-.38.06,1,1,0,0,1-.39-.06v-.69a1.12,1.12,0,0,1,.39-.05,1.16,1.16,0,0,1,.38.05Zm0,4.56a.87.87,0,0,1-.36.06.84.84,0,0,1-.37-.06V53.3a1,1,0,0,1,.37,0,1,1,0,0,1,.36,0Z"/><path class="cls-3" d="M250.74,55.41c.06.88.41,1.15,1,1.15a1.83,1.83,0,0,0,.87-.21.8.8,0,0,1,.24.53,2.18,2.18,0,0,1-1.23.31c-1.13,0-1.66-.7-1.66-2s.66-2,1.63-2a1.33,1.33,0,0,1,1.46,1.48,3.14,3.14,0,0,1-.08.76Zm.87-1.66c-.47,0-.81.32-.87,1.14h1.57a1.94,1.94,0,0,0,0-.33C252.34,54.12,252.16,53.75,251.61,53.75Z"/><path class="cls-3" d="M257.51,53.18a1.1,1.1,0,0,1,.64.19.81.81,0,0,1-.32.61.77.77,0,0,0-.46-.15,1,1,0,0,0-.76.56v2.67a.87.87,0,0,1-.36.06.84.84,0,0,1-.37-.06V53.3a1,1,0,0,1,.37,0,1,1,0,0,1,.36,0v.51A1.07,1.07,0,0,1,257.51,53.18Z"/><path class="cls-3" d="M260.21,53.17c1.07,0,1.41.48,1.41,1.43v2.46a.51.51,0,0,1-.29.06.65.65,0,0,1-.29-.06l-.11-.47a1.19,1.19,0,0,1-1.16.6A1.07,1.07,0,0,1,258.63,56c0-.8.5-1.15,1.41-1.15.34,0,.65,0,.84,0v-.27c0-.5-.19-.79-.75-.79a3,3,0,0,0-1,.19.57.57,0,0,1-.17-.23.53.53,0,0,1,0-.3A3.1,3.1,0,0,1,260.21,53.17Zm-.07,2.14c-.49,0-.75.19-.75.65s.24.66.64.66c.58,0,.85-.49.85-1v-.26C260.71,55.34,260.42,55.31,260.14,55.31Z"/><path class="cls-3" d="M265.79,57.06a.9.9,0,0,1-.37.06.82.82,0,0,1-.36-.06V54.42c0-.42-.22-.65-.69-.65a1,1,0,0,0-.83.47v2.82a1,1,0,0,1-.37.06.82.82,0,0,1-.36-.06V53.3a1,1,0,0,1,.36,0,1.13,1.13,0,0,1,.37,0v.34a1.45,1.45,0,0,1,1.11-.47,1,1,0,0,1,1.14,1.11Z"/><path class="cls-3" d="M268.69,57.68c-.26.81-.52,1.28-1.31,1.28a1,1,0,0,1-.41-.08.85.85,0,0,1-.05-.27.6.6,0,0,1,.06-.29,3,3,0,0,0,.33,0c.33,0,.5-.08.72-.78l.16-.44a.71.71,0,0,1-.24-.06l-1.4-3.76a1.27,1.27,0,0,1,.39,0,1.16,1.16,0,0,1,.38,0l.84,2.24a6.46,6.46,0,0,1,.25.86h0s.08-.35.24-.86l.73-2.24a1,1,0,0,1,.36,0,1,1,0,0,1,.34,0Z"/><path class="cls-3" d="M273,52.5a1.08,1.08,0,0,1-.39.06.92.92,0,0,1-.38-.06v-.69a1.09,1.09,0,0,1,.38-.05,1.27,1.27,0,0,1,.39.05Zm0,4.56a.9.9,0,0,1-.37.06.82.82,0,0,1-.36-.06V53.3a1,1,0,0,1,.36,0,1.05,1.05,0,0,1,.37,0Z"/><path class="cls-3" d="M276,53.3a1,1,0,0,1,.37,0,1,1,0,0,1,.36,0v4.46c0,.78-.37,1.2-1.06,1.2a1.58,1.58,0,0,1-.5-.07.68.68,0,0,1,0-.17.73.73,0,0,1,.08-.38,1.13,1.13,0,0,0,.27,0c.33,0,.5-.17.5-.58Zm.75-.8a1.16,1.16,0,0,1-.38,0,1.12,1.12,0,0,1-.39,0v-.69a1,1,0,0,1,.39-.06,1,1,0,0,1,.38.06Z"/><path class="cls-3" d="M278.56,55.41c.06.88.41,1.15,1,1.15a1.83,1.83,0,0,0,.87-.21.8.8,0,0,1,.24.53,2.18,2.18,0,0,1-1.23.31c-1.13,0-1.66-.7-1.66-2s.66-2,1.63-2a1.33,1.33,0,0,1,1.46,1.48,3.14,3.14,0,0,1-.08.76Zm.87-1.66c-.47,0-.81.32-.87,1.14h1.57a1.94,1.94,0,0,0,0-.33C280.16,54.12,280,53.75,279.43,53.75Z"/><path class="cls-3" d="M284.55,51.6a1,1,0,0,1,.36,0v5.41a.75.75,0,0,1-.31.06,1,1,0,0,1-.33-.06l0-.39a1.21,1.21,0,0,1-1.1.52c-.84,0-1.39-.51-1.39-2s.55-2,1.39-2a1.18,1.18,0,0,1,1.05.48v-2A1.16,1.16,0,0,1,284.55,51.6Zm-1.18,2.18c-.58,0-.88.31-.88,1.4s.3,1.41.88,1.41a.84.84,0,0,0,.8-.94V54.7A.83.83,0,0,0,283.37,53.78Z"/><path class="cls-3" d="M289.12,57.06a.9.9,0,0,1-.37.06.82.82,0,0,1-.36-.06V54.42c0-.42-.22-.65-.69-.65a1,1,0,0,0-.83.47v2.82a1,1,0,0,1-.37.06.82.82,0,0,1-.36-.06V53.3a1,1,0,0,1,.36,0,1.13,1.13,0,0,1,.37,0v.34a1.45,1.45,0,0,1,1.11-.47,1,1,0,0,1,1.14,1.11Z"/><path class="cls-3" d="M291.78,53.17c1,0,1.63.56,1.63,2s-.62,2-1.63,2-1.63-.55-1.63-2S290.77,53.17,291.78,53.17Zm0,.57c-.54,0-.88.31-.88,1.44s.34,1.44.88,1.44.88-.31.88-1.44S292.32,53.74,291.78,53.74Z"/><path class="cls-3" d="M295.05,55.18c0,1,.31,1.38,1,1.38a2,2,0,0,0,.69-.12A.8.8,0,0,1,297,57a2,2,0,0,1-1.06.22c-1.07,0-1.62-.7-1.62-2s.55-2,1.62-2a1.89,1.89,0,0,1,1,.19.73.73,0,0,1-.22.53,1.73,1.73,0,0,0-.64-.11C295.33,53.78,295.05,54.23,295.05,55.18Z"/><path class="cls-3" d="M300.41,56.51a1,1,0,0,1,0,.3,1.07,1.07,0,0,1,0,.31h-2.73a1.43,1.43,0,0,1-.05-.32,1.08,1.08,0,0,1,.05-.29l2-2.66H297.8a1.07,1.07,0,0,1,0-.31.85.85,0,0,1,0-.29h2.61a.72.72,0,0,1,0,.28,1,1,0,0,1,0,.32l-2,2.66Z"/><path class="cls-3" d="M302,55.41c.06.88.41,1.15,1,1.15a1.83,1.83,0,0,0,.87-.21.8.8,0,0,1,.24.53,2.18,2.18,0,0,1-1.23.31c-1.13,0-1.66-.7-1.66-2s.66-2,1.64-2a1.33,1.33,0,0,1,1.45,1.48,3.14,3.14,0,0,1-.08.76Zm.88-1.66c-.48,0-.82.32-.88,1.14h1.57a1.94,1.94,0,0,0,0-.33C303.63,54.12,303.45,53.75,302.91,53.75Z"/><path class="cls-3" d="M306.59,53.17a2,2,0,0,1,1,.2.71.71,0,0,1-.19.52,2.86,2.86,0,0,0-.77-.11c-.5,0-.75.18-.75.53s.41.44.86.57,1,.38,1,1.13-.46,1.18-1.39,1.18a2.56,2.56,0,0,1-1.23-.27.72.72,0,0,1,.2-.54,3.12,3.12,0,0,0,1,.18c.45,0,.71-.16.71-.52s-.42-.5-.86-.63-1-.35-1-1.08S305.65,53.17,306.59,53.17Zm-.25-.5a.61.61,0,0,1-.42-.22l.7-1a.72.72,0,0,1,.63.27Z"/><path class="cls-3" d="M311.79,57.06a1,1,0,0,1-.37.06.9.9,0,0,1-.37-.06V54.42c0-.42-.21-.65-.68-.65a1,1,0,0,0-.83.47v2.82a1,1,0,0,1-.37.06.84.84,0,0,1-.37-.06V53.3a1,1,0,0,1,.37,0,1.13,1.13,0,0,1,.37,0v.34a1.43,1.43,0,0,1,1.11-.47,1,1,0,0,1,1.14,1.11Z"/><path class="cls-3" d="M313.75,52.5a1,1,0,0,1-.38.06,1,1,0,0,1-.39-.06v-.69a1.12,1.12,0,0,1,.39-.05,1.16,1.16,0,0,1,.38.05Zm0,4.56a.87.87,0,0,1-.36.06.84.84,0,0,1-.37-.06V53.3a1,1,0,0,1,.37,0,1,1,0,0,1,.36,0Z"/><path class="cls-3" d="M315.56,55.41c.06.88.41,1.15,1,1.15a1.78,1.78,0,0,0,.87-.21.8.8,0,0,1,.24.53,2.17,2.17,0,0,1-1.22.31c-1.14,0-1.67-.7-1.67-2s.66-2,1.64-2a1.33,1.33,0,0,1,1.45,1.48,3.14,3.14,0,0,1-.08.76Zm.88-1.66c-.48,0-.82.32-.88,1.14h1.57a1.94,1.94,0,0,0,0-.33C317.16,54.12,317,53.75,316.44,53.75Z"/><path class="cls-3" d="M323.21,56.51a.79.79,0,0,1,.05.3.88.88,0,0,1-.05.31h-2.72a1,1,0,0,1-.05-.32.79.79,0,0,1,.05-.29l1.95-2.66h-1.83a1.07,1.07,0,0,1,0-.31.85.85,0,0,1,0-.29h2.6a.56.56,0,0,1,.05.28.77.77,0,0,1-.05.32l-1.94,2.66Z"/><path class="cls-3" d="M326.91,51.6a1,1,0,0,1,.36,0v5.41a.75.75,0,0,1-.31.06,1,1,0,0,1-.33-.06l-.05-.39a1.21,1.21,0,0,1-1.1.52c-.84,0-1.39-.51-1.39-2s.55-2,1.39-2a1.21,1.21,0,0,1,1.06.48v-2A1.05,1.05,0,0,1,326.91,51.6Zm-1.18,2.18c-.58,0-.88.31-.88,1.4s.3,1.41.88,1.41a.85.85,0,0,0,.81-.94V54.7A.84.84,0,0,0,325.73,53.78Z"/><path class="cls-3" d="M330.12,53.18a1.1,1.1,0,0,1,.64.19.81.81,0,0,1-.32.61.77.77,0,0,0-.46-.15,1,1,0,0,0-.76.56v2.67a.87.87,0,0,1-.36.06.84.84,0,0,1-.37-.06V53.3a1,1,0,0,1,.37,0,1,1,0,0,1,.36,0v.51A1.07,1.07,0,0,1,330.12,53.18Z"/><path class="cls-3" d="M332.91,53.17c1,0,1.63.56,1.63,2s-.63,2-1.63,2-1.64-.55-1.64-2S331.9,53.17,332.91,53.17Zm0,.57c-.54,0-.89.31-.89,1.44s.35,1.44.89,1.44.87-.31.87-1.44S333.44,53.74,332.91,53.74Z"/><path class="cls-3" d="M338.15,55.07A5.5,5.5,0,0,1,338,54h0a4.19,4.19,0,0,1-.2,1.06l-.58,2a1.33,1.33,0,0,1-.42.06,1.44,1.44,0,0,1-.43-.06l-1.11-3.76a1.13,1.13,0,0,1,.37,0,.62.62,0,0,1,.32,0l.69,2.35a3.88,3.88,0,0,1,.16.72h0a6.79,6.79,0,0,1,.16-.72l.68-2.35a1.56,1.56,0,0,1,.4,0,1,1,0,0,1,.36,0l.65,2.33a4.13,4.13,0,0,1,.15.74h0a7.3,7.3,0,0,1,.18-.73l.7-2.34a.84.84,0,0,1,.32,0,.65.65,0,0,1,.31,0l-1.11,3.76a1.35,1.35,0,0,1-.41.06,1.49,1.49,0,0,1-.43-.06Z"/><path class="cls-3" d="M342.31,52.5a1,1,0,0,1-.38.06.92.92,0,0,1-.38-.06v-.69a1.09,1.09,0,0,1,.38-.05,1.16,1.16,0,0,1,.38.05Zm0,4.56a1,1,0,0,1-.37.06.84.84,0,0,1-.37-.06V53.3a1,1,0,0,1,.37,0,1.13,1.13,0,0,1,.37,0Z"/><path class="cls-3" d="M344.12,55.41c.06.88.42,1.15,1,1.15a1.76,1.76,0,0,0,.86-.21.75.75,0,0,1,.24.53,2.17,2.17,0,0,1-1.22.31c-1.13,0-1.66-.7-1.66-2s.65-2,1.63-2a1.33,1.33,0,0,1,1.46,1.48,3.14,3.14,0,0,1-.08.76Zm.88-1.66c-.48,0-.82.32-.88,1.14h1.58a2.27,2.27,0,0,0,0-.33C345.72,54.12,345.54,53.75,345,53.75Z"/><path class="cls-3" d="M149.67,62.13a1,1,0,0,1,.37-.05,1,1,0,0,1,.36.05V66.6c0,.78-.37,1.19-1.06,1.19a1.58,1.58,0,0,1-.5-.07.68.68,0,0,1,0-.17.71.71,0,0,1,.08-.37,1.13,1.13,0,0,0,.27,0c.33,0,.5-.18.5-.58Zm.75-.8a1.16,1.16,0,0,1-.38.05,1.12,1.12,0,0,1-.39-.05v-.69a1.12,1.12,0,0,1,.39,0,1.16,1.16,0,0,1,.38,0Z"/><path class="cls-3" d="M153,62c1.07,0,1.4.48,1.4,1.43V65.9a.57.57,0,0,1-.28,0,.79.79,0,0,1-.3,0l-.11-.47a1.17,1.17,0,0,1-1.15.59,1.07,1.07,0,0,1-1.14-1.22c0-.8.49-1.16,1.41-1.16a6.08,6.08,0,0,1,.84,0v-.28c0-.5-.19-.78-.76-.78a3.1,3.1,0,0,0-1,.18.58.58,0,0,1-.17-.22.62.62,0,0,1-.05-.31A3.21,3.21,0,0,1,153,62Zm-.07,2.13c-.5,0-.75.19-.75.66a.57.57,0,0,0,.64.66c.58,0,.85-.49.85-1v-.25A6.81,6.81,0,0,0,152.91,64.14Z"/><path class="cls-3" d="M159.52,62a1,1,0,0,1,1.1,1.11V65.9a1.13,1.13,0,0,1-.37,0,1,1,0,0,1-.37,0V63.25a.57.57,0,0,0-.64-.65.93.93,0,0,0-.78.48V65.9a1.13,1.13,0,0,1-.37,0,1,1,0,0,1-.36,0V63.25a.57.57,0,0,0-.64-.65,1,1,0,0,0-.79.47V65.9a1.09,1.09,0,0,1-.36,0,1,1,0,0,1-.37,0V62.13a1,1,0,0,1,.37-.05,1.09,1.09,0,0,1,.36.05v.33a1.39,1.39,0,0,1,1.06-.45,1,1,0,0,1,1,.54A1.47,1.47,0,0,1,159.52,62Z"/><path class="cls-3" d="M163.53,66.52c-.27.81-.52,1.27-1.32,1.27a1.09,1.09,0,0,1-.4-.07,1,1,0,0,1-.05-.28,1,1,0,0,1,.05-.29,2.24,2.24,0,0,0,.34,0c.33,0,.5-.09.72-.78L163,66a.68.68,0,0,1-.23,0l-1.4-3.77a1.23,1.23,0,0,1,.38-.05,1.16,1.16,0,0,1,.38.05l.84,2.24a6.24,6.24,0,0,1,.26.86h0a8.68,8.68,0,0,1,.23-.85l.73-2.25a1,1,0,0,1,.36-.05,1.06,1.06,0,0,1,.35.05Z"/><path class="cls-3" d="M167.42,62.13a1.13,1.13,0,0,1,.37-.05,1.05,1.05,0,0,1,.37.05v2.65a.59.59,0,0,0,.68.65,1,1,0,0,0,.83-.47V62.13a1.2,1.2,0,0,1,.37-.05,1,1,0,0,1,.37.05V65.9a1,1,0,0,1-.37,0,1.2,1.2,0,0,1-.37,0v-.34a1.42,1.42,0,0,1-1.11.46,1,1,0,0,1-1.14-1.11Z"/><path class="cls-3" d="M172.84,62a2.1,2.1,0,0,1,1,.2.77.77,0,0,1-.19.52,2.65,2.65,0,0,0-.77-.12c-.5,0-.75.19-.75.53s.46.45.92.61,1,.38,1,1.1-.46,1.17-1.4,1.17a2.68,2.68,0,0,1-1.23-.26.75.75,0,0,1,.2-.54,3.23,3.23,0,0,0,1,.18c.45,0,.7-.17.7-.53s-.4-.49-.84-.62-1-.36-1-1.09S171.91,62,172.84,62Z"/><path class="cls-3" d="M176,64.56c0,.67.21.87.73.87a2,2,0,0,0,.31,0,.83.83,0,0,1,0,.29,1,1,0,0,1,0,.27,2,2,0,0,1-.53.06c-.91,0-1.27-.49-1.27-1.42v-2h-.56a.65.65,0,0,1-.05-.27.68.68,0,0,1,.05-.28h.56v-.67a1.25,1.25,0,0,1,.74-.14v.81h1a.65.65,0,0,1,0,.27.73.73,0,0,1,0,.28h-1Z"/><path class="cls-3" d="M181,65.9a1.13,1.13,0,0,1-.37,0,1.05,1.05,0,0,1-.37,0V63.25a.59.59,0,0,0-.68-.65,1,1,0,0,0-.83.48V65.9a1.2,1.2,0,0,1-.37,0,1,1,0,0,1-.37,0V62.13a1,1,0,0,1,.37-.05,1.2,1.2,0,0,1,.37.05v.34a1.41,1.41,0,0,1,1.11-.46A1,1,0,0,1,181,63.12Z"/><path class="cls-3" d="M182.76,64.25c.06.87.41,1.15,1,1.15a1.83,1.83,0,0,0,.87-.21.71.71,0,0,1,.23.53,2.18,2.18,0,0,1-1.22.3c-1.13,0-1.66-.69-1.66-2s.66-2,1.63-2a1.33,1.33,0,0,1,1.46,1.48,3.24,3.24,0,0,1-.08.76Zm.87-1.66c-.47,0-.81.32-.87,1.13h1.57a1.83,1.83,0,0,0,0-.33C184.36,63,184.18,62.59,183.63,62.59Z"/><path class="cls-3" d="M186.11,62.13a1,1,0,0,1,.37-.05,1,1,0,0,1,.36.05V66.6c0,.78-.37,1.19-1.06,1.19a1.47,1.47,0,0,1-.49-.07.47.47,0,0,1,0-.17.71.71,0,0,1,.08-.37,1.24,1.24,0,0,0,.27,0c.33,0,.5-.18.5-.58Zm.75-.8a1.16,1.16,0,0,1-.38.05,1.12,1.12,0,0,1-.39-.05v-.69a1.12,1.12,0,0,1,.39,0,1.16,1.16,0,0,1,.38,0Z"/><path class="cls-3" d="M188.52,60.19a4.14,4.14,0,0,0,0,3.87.32.32,0,0,1-.13.13.57.57,0,0,1-.19,0,4.3,4.3,0,0,1-.58-2.1A4.36,4.36,0,0,1,188.2,60a.41.41,0,0,1,.18,0A.34.34,0,0,1,188.52,60.19Z"/><path class="cls-3" d="M189,60.7a2.06,2.06,0,0,1,.8-.16c.51,0,.93.22.93.79s-.31.72-.82,1c-.25.16-.6.31-.6.66a.2.2,0,0,0,0,.09h1.33a.39.39,0,0,1,0,.2.38.38,0,0,1,0,.19h-1.73a1.57,1.57,0,0,1,0-.29c0-.67.43-.91.83-1.16s.57-.39.57-.71-.17-.44-.56-.44a2.11,2.11,0,0,0-.61.1A.33.33,0,0,1,189,60.7Z"/><path class="cls-3" d="M191.07,60.19a.46.46,0,0,1,.14-.12.44.44,0,0,1,.18,0,4.31,4.31,0,0,1,.59,2.11,4.25,4.25,0,0,1-.59,2.1.54.54,0,0,1-.18,0,.41.41,0,0,1-.14-.13,4.07,4.07,0,0,0,0-3.87Z"/></g></svg>