<svg xmlns="http://www.w3.org/2000/svg" xmlns:xlink="http://www.w3.org/1999/xlink" viewBox="0 0 500 110"><defs><style>.cls-1,.cls-5{fill:none;}.cls-2{fill:#fff;}.cls-3{clip-path:url(#clip-path);}.cls-4{fill:url(#Gradient_bez_nazwy_2);}.cls-5{stroke:#fff;stroke-miterlimit:10;}.cls-6{fill:#0056a3;}</style><clipPath id="clip-path"><polygon class="cls-1" points="116.16 73.01 383.84 73.01 383.84 36.88 116.16 36.88 116.16 47.94 120.97 55.37 116.16 62.64 116.16 73.01"/></clipPath><linearGradient id="Gradient_bez_nazwy_2" x1="-961.87" y1="353.73" x2="-961.15" y2="353.73" gradientTransform="matrix(372.44, 0, 0, -372.44, 358349.88, 131795.13)" gradientUnits="userSpaceOnUse"><stop offset="0" stop-color="#ccd513"/><stop offset="0.01" stop-color="#ccd513"/><stop offset="0.01" stop-color="#ccd513"/><stop offset="0.39" stop-color="#ccd515"/><stop offset="0.52" stop-color="#ced71c"/><stop offset="0.62" stop-color="#d0d927"/><stop offset="0.69" stop-color="#d4dc38"/><stop offset="0.76" stop-color="#d9e04e"/><stop offset="0.82" stop-color="#dfe46a"/><stop offset="0.87" stop-color="#e6ea8a"/><stop offset="0.92" stop-color="#eef1b0"/><stop offset="0.97" stop-color="#f7f8d9"/><stop offset="1" stop-color="#fff"/></linearGradient></defs><title>antyseptyka_w_chirurgii</title><g id="Warstwa_2" data-name="Warstwa 2"><rect class="cls-2" width="500" height="110"/></g><g id="Warstwa_1" data-name="Warstwa 1"><g class="cls-3"><rect class="cls-4" x="116.16" y="36.77" width="267.67" height="36.13"/></g><polyline class="cls-5" points="117.56 36.89 117.56 47.58 117.56 47.47 122.63 55.23 117.56 63.02 117.56 73.12"/><path class="cls-6" d="M158.65,48a1.46,1.46,0,0,1,.42,0l1.76,4.94a1.09,1.09,0,0,1-.38.05.93.93,0,0,1-.35-.05l-.44-1.23h-2.07l-.44,1.23a1,1,0,0,1-.35.05.93.93,0,0,1-.33-.05L158.23,48A1.73,1.73,0,0,1,158.65,48Zm0,.78s-.07.27-.18.63l-.65,1.77h1.67l-.64-1.77a4.9,4.9,0,0,1-.18-.63Z"/><path class="cls-6" d="M164,52.94a1,1,0,0,1-.35.05.93.93,0,0,1-.35-.05V50.42c0-.39-.21-.62-.66-.62a1,1,0,0,0-.79.45v2.69a1,1,0,0,1-.35.05.93.93,0,0,1-.35-.05V49.36a.93.93,0,0,1,.35,0,1,1,0,0,1,.35,0v.32a1.37,1.37,0,0,1,1.06-.44,1,1,0,0,1,1.09,1Z"/><path class="cls-6" d="M165.72,51.67c0,.63.2.82.7.82a1.72,1.72,0,0,0,.29,0,.83.83,0,0,1,0,.29.67.67,0,0,1,0,.25,2.2,2.2,0,0,1-.5.06c-.86,0-1.21-.47-1.21-1.36V49.83h-.53a.63.63,0,0,1,0-.26.57.57,0,0,1,0-.26H165v-.64a1.26,1.26,0,0,1,.71-.14v.78h.91a.7.7,0,0,1,0,.26.76.76,0,0,1,0,.26h-.91Z"/><path class="cls-6" d="M168.84,53.53c-.25.77-.5,1.21-1.26,1.21a1,1,0,0,1-.38-.07.83.83,0,0,1,0-.26.62.62,0,0,1,.06-.28,1.79,1.79,0,0,0,.31,0c.32,0,.48-.08.69-.74l.14-.43a.63.63,0,0,1-.22-.05l-1.33-3.58a1.09,1.09,0,0,1,.36,0,1.13,1.13,0,0,1,.37,0l.8,2.12a7.57,7.57,0,0,1,.24.82h0s.07-.33.22-.81l.7-2.13a.9.9,0,0,1,.34,0,1,1,0,0,1,.33,0Z"/><path class="cls-6" d="M171.75,49.24a2,2,0,0,1,1,.19.7.7,0,0,1-.19.49,2.57,2.57,0,0,0-.73-.11c-.48,0-.72.18-.72.5s.45.43.89.58.93.36.93,1-.44,1.12-1.33,1.12a2.49,2.49,0,0,1-1.17-.25.69.69,0,0,1,.19-.52,3,3,0,0,0,.94.17c.43,0,.68-.16.68-.5s-.39-.47-.8-.59-1-.34-1-1S170.86,49.24,171.75,49.24Z"/><path class="cls-6" d="M174,51.37c0,.83.39,1.09,1,1.09a1.73,1.73,0,0,0,.83-.2.75.75,0,0,1,.22.51,2.09,2.09,0,0,1-1.16.29c-1.08,0-1.58-.66-1.58-1.93s.62-1.89,1.55-1.89a1.26,1.26,0,0,1,1.39,1.4,3,3,0,0,1-.08.73Zm.83-1.58c-.45,0-.78.3-.83,1.08h1.5c0-.06,0-.17,0-.32C175.54,50.14,175.37,49.79,174.85,49.79Z"/><path class="cls-6" d="M178.5,49.24c.8,0,1.32.48,1.32,1.91s-.52,1.91-1.32,1.91a1.1,1.1,0,0,1-1-.46v2a1.26,1.26,0,0,1-.36,0,1.1,1.1,0,0,1-.34,0V49.36a.9.9,0,0,1,.34,0,1,1,0,0,1,.36,0v.33A1.1,1.1,0,0,1,178.5,49.24Zm-.24.57a.79.79,0,0,0-.76.88v.9a.8.8,0,0,0,.76.9c.56,0,.84-.3.84-1.34S178.82,49.81,178.26,49.81Z"/><path class="cls-6" d="M181.37,51.67c0,.63.21.82.7.82a1.92,1.92,0,0,0,.3,0,.83.83,0,0,1,0,.29.67.67,0,0,1,0,.25,2.2,2.2,0,0,1-.5.06c-.86,0-1.21-.47-1.21-1.36V49.83h-.54a.76.76,0,0,1,0-.26.7.7,0,0,1,0-.26h.54v-.64a1.23,1.23,0,0,1,.7-.14v.78h.91a.57.57,0,0,1,.05.26.63.63,0,0,1-.05.26h-.91Z"/><path class="cls-6" d="M184.5,53.53c-.26.77-.5,1.21-1.26,1.21a1,1,0,0,1-.38-.07.83.83,0,0,1-.05-.26,1,1,0,0,1,.05-.28,2,2,0,0,0,.32,0c.32,0,.48-.08.69-.74L184,53a.63.63,0,0,1-.22-.05l-1.33-3.58a1.09,1.09,0,0,1,.36,0,1.13,1.13,0,0,1,.37,0l.8,2.12a7.57,7.57,0,0,1,.24.82h0s.07-.33.22-.81l.7-2.13a.9.9,0,0,1,.34,0,1,1,0,0,1,.33,0Z"/><path class="cls-6" d="M188.3,49.36a1.17,1.17,0,0,1,.36,0,1.5,1.5,0,0,1,.35,0L187.93,51l1.24,1.92a1.24,1.24,0,0,1-.4.06,1,1,0,0,1-.37-.06l-1.05-1.61H187v1.61a1.11,1.11,0,0,1-.34.05,1.17,1.17,0,0,1-.36-.05V47.77a1.89,1.89,0,0,1,.36,0,1.93,1.93,0,0,1,.34,0v3h.4Z"/><path class="cls-6" d="M190.78,49.24c1,0,1.33.45,1.33,1.35v2.35a.5.5,0,0,1-.27.05.73.73,0,0,1-.28-.05l-.1-.45a1.14,1.14,0,0,1-1.1.57,1,1,0,0,1-1.09-1.17c0-.76.47-1.1,1.34-1.1a7.8,7.8,0,0,1,.8,0v-.26c0-.47-.18-.75-.72-.75a2.86,2.86,0,0,0-.94.18.65.65,0,0,1-.16-.21.63.63,0,0,1,0-.29A3.07,3.07,0,0,1,190.78,49.24Zm-.07,2c-.47,0-.72.18-.72.62s.23.63.61.63c.55,0,.81-.47.81-1v-.24C191.25,51.3,191,51.27,190.71,51.27Z"/><path class="cls-6" d="M196.66,51a4.17,4.17,0,0,1-.19-1h0a4.93,4.93,0,0,1-.2,1l-.55,1.9a1.22,1.22,0,0,1-.4.05,1.32,1.32,0,0,1-.41-.05l-1-3.58a1,1,0,0,1,.35,0,.57.57,0,0,1,.3,0l.66,2.23a4.42,4.42,0,0,1,.15.69h0a4.74,4.74,0,0,1,.16-.69l.64-2.23a1.5,1.5,0,0,1,.38,0,.9.9,0,0,1,.34,0l.62,2.22a2.9,2.9,0,0,1,.14.7h0a6.6,6.6,0,0,1,.18-.7l.66-2.22a.81.81,0,0,1,.31,0,.67.67,0,0,1,.3,0L198,52.94a1.29,1.29,0,0,1-.4.05,1.4,1.4,0,0,1-.41-.05Z"/><path class="cls-6" d="M201.36,51.15c0,.92.29,1.31,1,1.31a1.89,1.89,0,0,0,.65-.11.72.72,0,0,1,.21.5,1.92,1.92,0,0,1-1,.21c-1,0-1.54-.66-1.54-1.91s.52-1.91,1.54-1.91a1.91,1.91,0,0,1,.94.17.72.72,0,0,1-.21.51,1.59,1.59,0,0,0-.61-.11C201.63,49.81,201.36,50.24,201.36,51.15Z"/><path class="cls-6" d="M206.51,52.94a1,1,0,0,1-.35.05.93.93,0,0,1-.35-.05V50.42c0-.39-.2-.62-.65-.62a1,1,0,0,0-.79.45v2.69A1.06,1.06,0,0,1,204,53a.87.87,0,0,1-.35-.05V47.79a.87.87,0,0,1,.35,0,1.06,1.06,0,0,1,.35,0v1.89a1.34,1.34,0,0,1,1.06-.44,1,1,0,0,1,1.08,1Z"/><path class="cls-6" d="M208,48.6a1.09,1.09,0,0,1-.36,0,1,1,0,0,1-.37,0v-.66a1,1,0,0,1,.37,0,1.09,1.09,0,0,1,.36,0Zm0,4.34a1,1,0,0,1-.35.05.87.87,0,0,1-.35-.05V49.36a.87.87,0,0,1,.35,0,1,1,0,0,1,.35,0Z"/><path class="cls-6" d="M210.3,49.24a1.1,1.1,0,0,1,.61.18.81.81,0,0,1-.31.59.69.69,0,0,0-.44-.15.92.92,0,0,0-.72.53v2.55a1,1,0,0,1-.35.05.93.93,0,0,1-.35-.05V49.36a.93.93,0,0,1,.35,0,1,1,0,0,1,.35,0v.48A1,1,0,0,1,210.3,49.24Z"/><path class="cls-6" d="M211.21,49.36a1,1,0,0,1,.35,0,.93.93,0,0,1,.35,0v2.52c0,.39.21.61.66.61a1,1,0,0,0,.79-.45V49.36a1,1,0,0,1,.35,0,.93.93,0,0,1,.35,0v3.58a.93.93,0,0,1-.35.05,1,1,0,0,1-.35-.05v-.32a1.38,1.38,0,0,1-1.06.44A1,1,0,0,1,211.21,52Z"/><path class="cls-6" d="M216.37,49.24a1.08,1.08,0,0,1,.61.18.83.83,0,0,1-.3.59.73.73,0,0,0-.44-.15.91.91,0,0,0-.72.53v2.55a1,1,0,0,1-.35.05.87.87,0,0,1-.35-.05V49.36a.87.87,0,0,1,.35,0,1,1,0,0,1,.35,0v.48A1,1,0,0,1,216.37,49.24Z"/><path class="cls-6" d="M220.31,49.24a.86.86,0,0,1,0,.55l-.58,0a1.31,1.31,0,0,1,.19.74,1.2,1.2,0,0,1-1.37,1.26l-.31,0a.66.66,0,0,0-.13.4c.08.65,2.19,0,2.19,1.4,0,.69-.66,1.2-1.8,1.2s-1.49-.41-1.49-1a1.19,1.19,0,0,1,.62-1,.58.58,0,0,1-.15-.4,1.22,1.22,0,0,1,.34-.78,1.13,1.13,0,0,1-.64-1.12c0-.79.47-1.26,1.37-1.26a1.61,1.61,0,0,1,.78.16ZM218,53a.87.87,0,0,0-.32.64c0,.35.26.61.83.61s1.12-.26,1.12-.63C219.64,53,218.64,53.19,218,53Zm.54-3.26a.77.77,0,0,0,0,1.53c.42,0,.7-.24.7-.76S219,49.73,218.55,49.73Z"/><path class="cls-6" d="M221.5,48.6a1,1,0,0,1-.36,0,1,1,0,0,1-.36,0v-.66a1,1,0,0,1,.36,0,1,1,0,0,1,.36,0Zm0,4.34a1,1,0,0,1-.35.05.87.87,0,0,1-.35-.05V49.36a.87.87,0,0,1,.35,0,1,1,0,0,1,.35,0Z"/><path class="cls-6" d="M223,48.6a1.13,1.13,0,0,1-.37,0,1,1,0,0,1-.36,0v-.66a1,1,0,0,1,.36,0,1.13,1.13,0,0,1,.37,0Zm0,4.34a1,1,0,0,1-.35.05.93.93,0,0,1-.35-.05V49.36a.93.93,0,0,1,.35,0,1,1,0,0,1,.35,0Z"/><path class="cls-6" d="M225.8,48.6a1,1,0,0,1-.36,0,1.05,1.05,0,0,1-.37,0v-.66a1.05,1.05,0,0,1,.37,0,1,1,0,0,1,.36,0Zm0,4.34a1,1,0,0,1-.35.05.87.87,0,0,1-.35-.05V49.36a.87.87,0,0,1,.35,0,1,1,0,0,1,.35,0Z"/><path class="cls-6" d="M230.33,49.24a1,1,0,0,1,1,1v2.65A1,1,0,0,1,231,53a.87.87,0,0,1-.35-.05V50.42a.54.54,0,0,0-.61-.62.89.89,0,0,0-.75.45v2.69A1,1,0,0,1,229,53a.87.87,0,0,1-.35-.05V50.42a.55.55,0,0,0-.61-.62.93.93,0,0,0-.75.44v2.7a1,1,0,0,1-.34.05.87.87,0,0,1-.35-.05V49.36a.87.87,0,0,1,.35,0,1,1,0,0,1,.34,0v.31a1.3,1.3,0,0,1,1-.43.93.93,0,0,1,.91.51A1.39,1.39,0,0,1,230.33,49.24Z"/><path class="cls-6" d="M233.82,49.24c.8,0,1.32.48,1.32,1.91s-.52,1.91-1.32,1.91a1.12,1.12,0,0,1-1-.46v2a1.26,1.26,0,0,1-.36,0,1.1,1.1,0,0,1-.34,0V49.36a.9.9,0,0,1,.34,0,1,1,0,0,1,.36,0v.33A1.12,1.12,0,0,1,233.82,49.24Zm-.25.57a.79.79,0,0,0-.76.88v.9a.8.8,0,0,0,.76.9c.56,0,.84-.3.84-1.34S234.13,49.81,233.57,49.81Z"/><path class="cls-6" d="M236.47,52.94a1,1,0,0,1-.35.05.93.93,0,0,1-.35-.05V47.79a.93.93,0,0,1,.35,0,1,1,0,0,1,.35,0Z"/><path class="cls-6" d="M238.53,49.24c1,0,1.34.45,1.34,1.35v2.35a.57.57,0,0,1-.28.05.73.73,0,0,1-.28-.05l-.1-.45a1.13,1.13,0,0,1-1.1.57A1,1,0,0,1,237,51.89c0-.76.47-1.1,1.35-1.1.31,0,.61,0,.8,0v-.26c0-.47-.19-.75-.73-.75a2.77,2.77,0,0,0-.93.18.44.44,0,0,1-.16-.21.57.57,0,0,1,0-.29A3.07,3.07,0,0,1,238.53,49.24Zm-.07,2c-.47,0-.72.18-.72.62s.23.63.61.63c.56,0,.82-.47.82-1v-.24C239,51.3,238.72,51.27,238.46,51.27Z"/><path class="cls-6" d="M243.44,52.94a1,1,0,0,1-.35.05.93.93,0,0,1-.35-.05V50.42c0-.39-.2-.62-.65-.62a1,1,0,0,0-.79.45v2.69A1.06,1.06,0,0,1,241,53a.87.87,0,0,1-.35-.05V49.36a.87.87,0,0,1,.35,0,1.06,1.06,0,0,1,.35,0v.32a1.35,1.35,0,0,1,1.06-.44,1,1,0,0,1,1.08,1Z"/><path class="cls-6" d="M245.12,51.67c0,.63.21.82.7.82a1.92,1.92,0,0,0,.3,0,.83.83,0,0,1,0,.29.67.67,0,0,1,0,.25,2.28,2.28,0,0,1-.5.06c-.87,0-1.21-.47-1.21-1.36V49.83h-.54a.76.76,0,0,1,0-.26.7.7,0,0,1,0-.26h.54v-.64a1.21,1.21,0,0,1,.7-.14v.78H246a.7.7,0,0,1,0,.26.76.76,0,0,1,0,.26h-.91Z"/><path class="cls-6" d="M248,49.24c1,0,1.56.52,1.56,1.91s-.6,1.91-1.56,1.91-1.55-.52-1.55-1.91S247,49.24,248,49.24Zm0,.54c-.51,0-.84.29-.84,1.37s.33,1.37.84,1.37.83-.29.83-1.37S248.48,49.78,248,49.78Z"/><path class="cls-6" d="M250.85,52.94a1,1,0,0,1-.35.05.87.87,0,0,1-.35-.05V47.79a.87.87,0,0,1,.35,0,1,1,0,0,1,.35,0Z"/><path class="cls-6" d="M253,49.24c1,0,1.55.52,1.55,1.91s-.6,1.91-1.55,1.91-1.56-.52-1.56-1.91S252.07,49.24,253,49.24Zm0,.54c-.52,0-.85.29-.85,1.37s.33,1.37.85,1.37.83-.29.83-1.37S253.54,49.78,253,49.78Z"/><path class="cls-6" d="M258.17,49.24a.86.86,0,0,1,0,.55l-.58,0a1.32,1.32,0,0,1,.2.74c0,.78-.47,1.26-1.38,1.26l-.31,0a.66.66,0,0,0-.13.4c.08.65,2.19,0,2.19,1.4,0,.69-.66,1.2-1.8,1.2s-1.49-.41-1.49-1a1.2,1.2,0,0,1,.63-1,.54.54,0,0,1-.16-.4,1.27,1.27,0,0,1,.34-.78A1.15,1.15,0,0,1,255,50.5a1.2,1.2,0,0,1,1.37-1.26,1.61,1.61,0,0,1,.78.16ZM255.87,53a.87.87,0,0,0-.32.64c0,.35.26.61.84.61s1.11-.26,1.11-.63C257.5,53,256.5,53.19,255.87,53Zm.54-3.26c-.42,0-.7.24-.7.77s.28.76.7.76.7-.24.7-.76S256.83,49.73,256.41,49.73Z"/><path class="cls-6" d="M259.37,48.6a1.13,1.13,0,0,1-.37,0,1,1,0,0,1-.36,0v-.66a1,1,0,0,1,.36,0,1.13,1.13,0,0,1,.37,0Zm0,4.34A1,1,0,0,1,259,53a.93.93,0,0,1-.35-.05V49.36a.93.93,0,0,1,.35,0,1,1,0,0,1,.35,0Z"/><path class="cls-6" d="M260.69,51.15c0,.92.29,1.31,1,1.31a1.89,1.89,0,0,0,.65-.11.72.72,0,0,1,.21.5,1.92,1.92,0,0,1-1,.21c-1,0-1.54-.66-1.54-1.91s.52-1.91,1.54-1.91a1.91,1.91,0,0,1,.94.17.72.72,0,0,1-.21.51,1.59,1.59,0,0,0-.61-.11C261,49.81,260.69,50.24,260.69,51.15Z"/><path class="cls-6" d="M265.39,52.42a.62.62,0,0,1,.05.28.76.76,0,0,1-.05.29H262.8a1.28,1.28,0,0,1,0-.3,1,1,0,0,1,0-.27l1.86-2.54h-1.74a.83.83,0,0,1-.05-.29.62.62,0,0,1,.05-.28h2.47a.65.65,0,0,1,.05.27.9.9,0,0,1-.05.3l-1.85,2.54Z"/><path class="cls-6" d="M268.85,52.94a1,1,0,0,1-.35.05.93.93,0,0,1-.35-.05V50.42c0-.39-.2-.62-.65-.62a1,1,0,0,0-.79.45v2.69a1.06,1.06,0,0,1-.35.05.87.87,0,0,1-.35-.05V49.36a.87.87,0,0,1,.35,0,1.06,1.06,0,0,1,.35,0v.32a1.35,1.35,0,0,1,1.06-.44,1,1,0,0,1,1.08,1Z"/><path class="cls-6" d="M270.15,51.37c.06.83.4,1.09,1,1.09a1.71,1.71,0,0,0,.82-.2.72.72,0,0,1,.23.51,2.1,2.1,0,0,1-1.17.29c-1.07,0-1.58-.66-1.58-1.93s.63-1.89,1.56-1.89a1.25,1.25,0,0,1,1.38,1.4,3.42,3.42,0,0,1-.07.73Zm.84-1.58c-.46,0-.78.3-.84,1.08h1.5a2.1,2.1,0,0,0,0-.32C271.67,50.14,271.51,49.79,271,49.79Z"/><path class="cls-6" d="M273,49.36a.87.87,0,0,1,.35,0,1,1,0,0,1,.35,0v4.25c0,.74-.36,1.13-1,1.13a1.63,1.63,0,0,1-.47-.06.65.65,0,0,1,0-.16.72.72,0,0,1,.07-.36,1.09,1.09,0,0,0,.26,0c.32,0,.48-.17.48-.56Zm.71-.77a1.09,1.09,0,0,1-.36,0,1,1,0,0,1-.37,0v-.66a1,1,0,0,1,.37,0,1.09,1.09,0,0,1,.36,0Z"/><path class="cls-6" d="M278.13,52.42a.62.62,0,0,1,.05.28.76.76,0,0,1-.05.29h-2.59a.9.9,0,0,1-.05-.3.68.68,0,0,1,.05-.27l1.86-2.54h-1.75a1,1,0,0,1,0-.29.75.75,0,0,1,0-.28h2.48a.65.65,0,0,1,.05.27.9.9,0,0,1-.05.3l-1.85,2.54Z"/><path class="cls-6" d="M280,49.24c1,0,1.34.45,1.34,1.35v2.35a.55.55,0,0,1-.27.05.68.68,0,0,1-.28-.05l-.11-.45a1.12,1.12,0,0,1-1.1.57c-.66,0-1.08-.38-1.08-1.17s.47-1.1,1.34-1.1a7.8,7.8,0,0,1,.8,0v-.26c0-.47-.18-.75-.72-.75A2.86,2.86,0,0,0,279,50a.53.53,0,0,1-.16-.21.63.63,0,0,1,0-.29A3,3,0,0,1,280,49.24Zm-.07,2c-.47,0-.71.18-.71.62s.23.63.61.63c.55,0,.81-.47.81-1v-.24C280.5,51.3,280.22,51.27,280,51.27Z"/><path class="cls-6" d="M283.8,49.24c.8,0,1.32.48,1.32,1.91s-.52,1.91-1.32,1.91a1.1,1.1,0,0,1-1-.46v2a1.26,1.26,0,0,1-.36,0,1.1,1.1,0,0,1-.34,0V49.36a.9.9,0,0,1,.34,0,1,1,0,0,1,.36,0v.33A1.1,1.1,0,0,1,283.8,49.24Zm-.24.57a.79.79,0,0,0-.76.88v.9a.8.8,0,0,0,.76.9c.56,0,.84-.3.84-1.34S284.12,49.81,283.56,49.81Z"/><path class="cls-6" d="M286.3,51.37c.05.83.39,1.09,1,1.09a1.73,1.73,0,0,0,.83-.2.75.75,0,0,1,.22.51,2.09,2.09,0,0,1-1.16.29c-1.08,0-1.59-.66-1.59-1.93s.63-1.89,1.56-1.89a1.26,1.26,0,0,1,1.39,1.4,3,3,0,0,1-.08.73Zm.83-1.58c-.46,0-.78.3-.83,1.08h1.49a1.8,1.8,0,0,0,0-.32C287.82,50.14,287.65,49.79,287.13,49.79Z"/><path class="cls-6" d="M291.57,51a4.17,4.17,0,0,1-.19-1h0a4.32,4.32,0,0,1-.2,1l-.55,1.9a1.18,1.18,0,0,1-.4.05,1.22,1.22,0,0,1-.4-.05l-1.06-3.58a1,1,0,0,1,.35,0c.24,0,.3,0,.3,0l.66,2.23a3.49,3.49,0,0,1,.15.69h0a6.62,6.62,0,0,1,.16-.69l.64-2.23a1.5,1.5,0,0,1,.38,0,.9.9,0,0,1,.34,0l.63,2.22a4.42,4.42,0,0,1,.14.7h0a4.44,4.44,0,0,1,.17-.7l.66-2.22a.81.81,0,0,1,.31,0,.62.62,0,0,1,.3,0l-1.06,3.58a1.25,1.25,0,0,1-.4.05,1.33,1.33,0,0,1-.4-.05Z"/><path class="cls-6" d="M297.24,52.94a1,1,0,0,1-.35.05.93.93,0,0,1-.35-.05V50.42a.57.57,0,0,0-.65-.62,1,1,0,0,0-.79.45v2.69a1.09,1.09,0,0,1-.36.05.93.93,0,0,1-.35-.05V49.36a.93.93,0,0,1,.35,0,1.09,1.09,0,0,1,.36,0v.32a1.33,1.33,0,0,1,1-.44,1,1,0,0,1,1.09,1Z"/><path class="cls-6" d="M298.71,48.6a1.13,1.13,0,0,1-.37,0,1,1,0,0,1-.36,0v-.66a1,1,0,0,1,.36,0,1.13,1.13,0,0,1,.37,0Zm0,4.34a1,1,0,0,1-.35.05.93.93,0,0,1-.35-.05V49.36a.93.93,0,0,1,.35,0,1,1,0,0,1,.35,0Z"/><path class="cls-6" d="M300.74,49.24c1,0,1.34.45,1.34,1.35v2.35a.5.5,0,0,1-.27.05.68.68,0,0,1-.28-.05l-.11-.45a1.12,1.12,0,0,1-1.1.57,1,1,0,0,1-1.08-1.17c0-.76.47-1.1,1.34-1.1a7.8,7.8,0,0,1,.8,0v-.26c0-.47-.18-.75-.72-.75a2.86,2.86,0,0,0-.94.18.65.65,0,0,1-.16-.21.63.63,0,0,1,0-.29A3,3,0,0,1,300.74,49.24Zm-.07,2c-.46,0-.71.18-.71.62s.23.63.61.63c.55,0,.81-.47.81-1v-.24C301.22,51.3,300.94,51.27,300.67,51.27Z"/><path class="cls-6" d="M307,52.94a1.25,1.25,0,0,1-.7,0V50.42c0-.39-.2-.62-.65-.62a1,1,0,0,0-.79.45v2.69a1,1,0,0,1-.35.05.93.93,0,0,1-.35-.05V49.36a.93.93,0,0,1,.35,0,1,1,0,0,1,.35,0v.32a1.35,1.35,0,0,1,1.06-.44,1,1,0,0,1,1.08,1Z"/><path class="cls-6" d="M308.44,48.6a1,1,0,0,1-.36,0,1,1,0,0,1-.36,0v-.66a1,1,0,0,1,.36,0,1,1,0,0,1,.36,0Zm0,4.34a1,1,0,0,1-.35.05.87.87,0,0,1-.35-.05V49.36a.87.87,0,0,1,.35,0,1,1,0,0,1,.35,0Z"/><path class="cls-6" d="M310.36,49.24a2,2,0,0,1,1,.19.69.69,0,0,1-.18.49,2.69,2.69,0,0,0-.74-.11c-.47,0-.71.18-.71.5s.44.43.88.58.93.36.93,1-.44,1.12-1.33,1.12a2.54,2.54,0,0,1-1.17-.25.69.69,0,0,1,.19-.52,3.11,3.11,0,0,0,.95.17c.42,0,.67-.16.67-.5s-.39-.47-.8-.59-1-.34-1-1S309.47,49.24,310.36,49.24Z"/><path class="cls-6" d="M314.12,49.36a1.17,1.17,0,0,1,.36,0,1.46,1.46,0,0,1,.34,0L313.74,51,315,52.94a1.14,1.14,0,0,1-.39.06,1,1,0,0,1-.38-.06l-1-1.61h-.39v1.61a1.11,1.11,0,0,1-.34.05,1.09,1.09,0,0,1-.36-.05V47.77a1.89,1.89,0,0,1,.36,0,1.93,1.93,0,0,1,.34,0v3h.4Z"/><path class="cls-6" d="M316.59,49.24c1,0,1.34.45,1.34,1.35V53c-.44.12-.69.4-.69.68s.09.31.36.31a.74.74,0,0,0,.25,0,.45.45,0,0,1,.11.31,1,1,0,0,1-.48.13c-.46,0-.74-.24-.74-.6a1,1,0,0,1,.64-.81l-.11-.43a1.13,1.13,0,0,1-1.1.57,1,1,0,0,1-1.08-1.17c0-.75.46-1.1,1.34-1.1a7.8,7.8,0,0,1,.8,0v-.27c0-.5-.18-.74-.72-.74a2.86,2.86,0,0,0-.94.18.53.53,0,0,1-.16-.21.63.63,0,0,1,0-.29A3,3,0,0,1,316.59,49.24Zm-.07,2c-.47,0-.71.19-.71.62a.55.55,0,0,0,.61.63.86.86,0,0,0,.81-1v-.24C317.07,51.3,316.79,51.27,316.52,51.27Z"/><path class="cls-6" d="M321.53,49.24a1.08,1.08,0,0,1,.61.18.83.83,0,0,1-.3.59.73.73,0,0,0-.44-.15.91.91,0,0,0-.72.53v2.55a1,1,0,0,1-.35.05.87.87,0,0,1-.35-.05V49.36a.87.87,0,0,1,.35,0,1,1,0,0,1,.35,0v.48A1,1,0,0,1,321.53,49.24Z"/><path class="cls-6" d="M323,51.37c0,.83.39,1.09,1,1.09a1.73,1.73,0,0,0,.83-.2.75.75,0,0,1,.22.51,2.09,2.09,0,0,1-1.16.29c-1.08,0-1.58-.66-1.58-1.93s.62-1.89,1.55-1.89a1.26,1.26,0,0,1,1.39,1.4,3,3,0,0,1-.08.73Zm.83-1.58c-.45,0-.78.3-.83,1.08h1.5c0-.06,0-.17,0-.32C324.56,50.14,324.39,49.79,323.87,49.79Z"/><path class="cls-6" d="M326.76,51.67c0,.63.2.82.7.82a1.72,1.72,0,0,0,.29,0,.83.83,0,0,1,.05.29.67.67,0,0,1,0,.25,2.2,2.2,0,0,1-.5.06c-.86,0-1.21-.47-1.21-1.36V49.83h-.53a.63.63,0,0,1,0-.26.57.57,0,0,1,0-.26h.53v-.64a1.26,1.26,0,0,1,.71-.14v.78h.91a.7.7,0,0,1,0,.26.76.76,0,0,1,0,.26h-.91Z"/><path class="cls-6" d="M328.77,51.37c.06.83.39,1.09,1,1.09a1.73,1.73,0,0,0,.83-.2.72.72,0,0,1,.23.51,2.1,2.1,0,0,1-1.17.29c-1.08,0-1.58-.66-1.58-1.93s.62-1.89,1.55-1.89a1.26,1.26,0,0,1,1.39,1.4,3,3,0,0,1-.08.73Zm.83-1.58c-.45,0-.77.3-.83,1.08h1.5a2.1,2.1,0,0,0,0-.32C330.29,50.14,330.12,49.79,329.6,49.79Z"/><path class="cls-6" d="M334.39,52.94A1,1,0,0,1,334,53a.93.93,0,0,1-.35-.05V50.42c0-.39-.2-.62-.65-.62a1,1,0,0,0-.79.45v2.69a1.06,1.06,0,0,1-.35.05.87.87,0,0,1-.35-.05V49.36a.87.87,0,0,1,.35,0,1.06,1.06,0,0,1,.35,0v.32a1.35,1.35,0,0,1,1.06-.44,1,1,0,0,1,1.08,1Z"/><path class="cls-6" d="M335.69,51.15c0,.92.3,1.31,1,1.31a1.91,1.91,0,0,0,.66-.11.72.72,0,0,1,.2.5,1.92,1.92,0,0,1-1,.21c-1,0-1.54-.66-1.54-1.91s.52-1.91,1.54-1.91a1.86,1.86,0,0,1,.94.17.71.71,0,0,1-.2.51,1.68,1.68,0,0,0-.62-.11C336,49.81,335.69,50.24,335.69,51.15Z"/><path class="cls-6" d="M338,49.36a.87.87,0,0,1,.35,0,1,1,0,0,1,.35,0v4.25c0,.74-.36,1.13-1,1.13a1.63,1.63,0,0,1-.47-.06.65.65,0,0,1,0-.16.72.72,0,0,1,.07-.36,1.09,1.09,0,0,0,.26,0c.32,0,.48-.17.48-.56Zm.71-.77a1,1,0,0,1-.36,0,1.05,1.05,0,0,1-.37,0v-.66a1.05,1.05,0,0,1,.37,0,1,1,0,0,1,.36,0Z"/><path class="cls-6" d="M340.89,49.24a1.26,1.26,0,0,1,1.39,1.4,3,3,0,0,1-.08.73h-2.15c.06.83.4,1.09,1,1.09a1.66,1.66,0,0,0,.82-.2.72.72,0,0,1,.23.51,1.57,1.57,0,0,1-.51.21.8.8,0,0,0-.65.7c0,.24.17.26.37.26a.49.49,0,0,0,.22,0,.32.32,0,0,1,.11.29,1,1,0,0,1-.47.13c-.39,0-.7-.14-.7-.56a.84.84,0,0,1,.36-.69c-1-.05-1.48-.71-1.48-1.93S340,49.24,340.89,49.24Zm0,.55c-.46,0-.78.3-.84,1.08h1.5a1.8,1.8,0,0,0,0-.32C341.58,50.14,341.41,49.79,340.89,49.79Z"/><path class="cls-6" d="M158.58,57.64c.8,0,1.32.48,1.32,1.91s-.52,1.91-1.32,1.91a1.15,1.15,0,0,1-1-.45v2a1.14,1.14,0,0,1-.35,0,1.22,1.22,0,0,1-.35,0V57.76a1,1,0,0,1,.35,0,.93.93,0,0,1,.35,0v.33A1.13,1.13,0,0,1,158.58,57.64Zm-.24.57a.8.8,0,0,0-.77.88V60a.81.81,0,0,0,.77.9c.56,0,.84-.3.84-1.34S158.9,58.21,158.34,58.21Z"/><path class="cls-6" d="M161.2,56.14a1,1,0,0,1,.35,0v1.92l.49-.28a.61.61,0,0,1,.14.16.67.67,0,0,1,.08.22l-.71.41v2.72a1,1,0,0,1-.35,0,.87.87,0,0,1-.35,0V59l-.47.27a.5.5,0,0,1-.13-.16.59.59,0,0,1-.09-.22l.69-.39V56.19A.87.87,0,0,1,161.2,56.14Z"/><path class="cls-6" d="M164.32,61.93c-.25.77-.49,1.21-1.25,1.21a1.06,1.06,0,0,1-.39-.07,1,1,0,0,1,0-.26.69.69,0,0,1,.05-.28,2,2,0,0,0,.32,0c.31,0,.47-.08.68-.74l.15-.43a.59.59,0,0,1-.22,0l-1.34-3.58a1.2,1.2,0,0,1,.37,0,1,1,0,0,1,.36,0l.8,2.12a6.64,6.64,0,0,1,.25.82h0a7.14,7.14,0,0,1,.22-.81l.69-2.13a.93.93,0,0,1,.35,0,1,1,0,0,1,.33,0Z"/><path class="cls-6" d="M167,60.07c0,.63.2.82.7.82l.29,0a.73.73,0,0,1,.05.28.87.87,0,0,1,0,.25,2.38,2.38,0,0,1-.51.06c-.86,0-1.2-.47-1.2-1.36V58.23h-.54a.76.76,0,0,1,0-.26.7.7,0,0,1,0-.26h.54v-.64a1.21,1.21,0,0,1,.7-.14v.78h.91a.7.7,0,0,1,0,.26.76.76,0,0,1,0,.26H167Z"/><path class="cls-6" d="M170.52,57.76a1.17,1.17,0,0,1,.36,0,1.36,1.36,0,0,1,.34,0l-1.07,1.67,1.24,1.92a1.24,1.24,0,0,1-.4.06,1,1,0,0,1-.37-.06l-1.06-1.61h-.39v1.61a1.11,1.11,0,0,1-.34,0,1.17,1.17,0,0,1-.36,0V56.17a1.89,1.89,0,0,1,.36,0,1.93,1.93,0,0,1,.34,0v3h.4Z"/><path class="cls-6" d="M172.45,57a1.13,1.13,0,0,1-.37,0,1,1,0,0,1-.36,0v-.66a1,1,0,0,1,.36-.05,1.13,1.13,0,0,1,.37.05Zm0,4.34a1.25,1.25,0,0,1-.7,0V57.76a1.25,1.25,0,0,1,.7,0Z"/><path class="cls-6" d="M177.37,61.34a1,1,0,0,1-.35,0,.93.93,0,0,1-.35,0V58.82c0-.39-.2-.62-.65-.62a1,1,0,0,0-.79.45v2.69a1.06,1.06,0,0,1-.35,0,.87.87,0,0,1-.35,0V57.76a.87.87,0,0,1,.35,0,1.06,1.06,0,0,1,.35,0v.32a1.34,1.34,0,0,1,1.06-.44,1,1,0,0,1,1.08,1Z"/><path class="cls-6" d="M179.39,57.64c1,0,1.33.45,1.33,1.36v2.34a.5.5,0,0,1-.27,0,.73.73,0,0,1-.28,0l-.11-.45a1.11,1.11,0,0,1-1.09.57,1,1,0,0,1-1.09-1.17c0-.76.47-1.1,1.34-1.1a7.8,7.8,0,0,1,.8,0V59c0-.47-.18-.74-.72-.74a3,3,0,0,0-.94.17.65.65,0,0,1-.16-.21.63.63,0,0,1,0-.29A3.07,3.07,0,0,1,179.39,57.64Zm-.07,2c-.47,0-.72.18-.72.62s.23.63.61.63a.85.85,0,0,0,.81-1v-.25C179.86,59.7,179.58,59.67,179.32,59.67Z"/><path class="cls-6" d="M183.85,60.82a.75.75,0,0,1,0,.28.93.93,0,0,1,0,.29h-2.59a.9.9,0,0,1,0-.3.68.68,0,0,1,0-.27l1.86-2.54h-1.75a1,1,0,0,1,0-.29.75.75,0,0,1,0-.28h2.48a.67.67,0,0,1,0,.27.91.91,0,0,1,0,.3L182,60.82Z"/><path class="cls-6" d="M185.86,57.64a1.26,1.26,0,0,1,1.39,1.4,2.92,2.92,0,0,1-.08.73H185c.05.83.39,1.1,1,1.1a1.67,1.67,0,0,0,.83-.21.71.71,0,0,1,.22.51,1.44,1.44,0,0,1-.51.21.8.8,0,0,0-.65.7c0,.24.17.26.37.26a.49.49,0,0,0,.22-.05.36.36,0,0,1,.12.29,1,1,0,0,1-.48.13c-.39,0-.69-.14-.69-.56a.86.86,0,0,1,.35-.69c-1-.05-1.47-.71-1.47-1.93S184.93,57.64,185.86,57.64Zm0,.55c-.45,0-.78.3-.83,1.08h1.5c0-.06,0-.17,0-.32C186.55,58.54,186.38,58.19,185.86,58.19Z"/><path class="cls-6" d="M188.51,58.09a1.1,1.1,0,0,1,1-.45c.8,0,1.32.48,1.32,1.91s-.52,1.91-1.32,1.91a1.12,1.12,0,0,1-1-.45v.33a1,1,0,0,1-.36,0,.9.9,0,0,1-.34,0V56.19a.9.9,0,0,1,.34,0,1,1,0,0,1,.36,0Zm.76.12a.79.79,0,0,0-.76.88V60a.8.8,0,0,0,.76.9c.56,0,.84-.3.84-1.34S189.83,58.21,189.27,58.21Z"/><path class="cls-6" d="M194.28,61.34a1,1,0,0,1-.35,0,.93.93,0,0,1-.35,0V58.82c0-.39-.2-.62-.65-.62a1,1,0,0,0-.79.45v2.69a1.06,1.06,0,0,1-.35,0,.87.87,0,0,1-.35,0V57.76a.87.87,0,0,1,.35,0,1.06,1.06,0,0,1,.35,0v.32a1.35,1.35,0,0,1,1.06-.44,1,1,0,0,1,1.08,1Z"/><path class="cls-6" d="M195.58,59.77c.06.83.4,1.1,1,1.1a1.65,1.65,0,0,0,.82-.21.72.72,0,0,1,.23.51,2.1,2.1,0,0,1-1.17.29c-1.07,0-1.58-.67-1.58-1.93s.63-1.89,1.56-1.89A1.25,1.25,0,0,1,197.8,59a3.31,3.31,0,0,1-.07.73Zm.84-1.58c-.46,0-.78.3-.84,1.08h1.5a2.1,2.1,0,0,0,0-.32C197.1,58.54,196.93,58.19,196.42,58.19Z"/><path class="cls-6" d="M198.38,57.76a.87.87,0,0,1,.35,0,1,1,0,0,1,.35,0V62c0,.74-.36,1.13-1,1.13a1.63,1.63,0,0,1-.47-.06.65.65,0,0,1,0-.16.72.72,0,0,1,.07-.36,1.09,1.09,0,0,0,.26,0c.32,0,.48-.17.48-.55Zm.71-.77a1.09,1.09,0,0,1-.36,0,1,1,0,0,1-.37,0v-.66a1.21,1.21,0,0,1,.37,0,1.34,1.34,0,0,1,.36,0Z"/><path class="cls-6" d="M201.9,57a1.13,1.13,0,0,1-.37,0,1,1,0,0,1-.36,0v-.66a1,1,0,0,1,.36-.05,1.13,1.13,0,0,1,.37.05Zm0,4.34a1,1,0,0,1-.35,0,.93.93,0,0,1-.35,0V57.76a.93.93,0,0,1,.35,0,1,1,0,0,1,.35,0Z"/><path class="cls-6" d="M205.37,57.64c1,0,1.56.52,1.56,1.91s-.6,1.91-1.56,1.91-1.55-.52-1.55-1.91S204.41,57.64,205.37,57.64Zm0,.54c-.51,0-.84.29-.84,1.37s.33,1.37.84,1.37.83-.29.83-1.37S205.88,58.18,205.37,58.18Z"/><path class="cls-6" d="M210.52,57.64a.86.86,0,0,1,0,.55l-.59,0a1.24,1.24,0,0,1,.2.74,1.2,1.2,0,0,1-1.37,1.26l-.31,0a.55.55,0,0,0-.13.4c.07.65,2.19,0,2.19,1.4,0,.69-.67,1.2-1.8,1.2s-1.49-.41-1.49-1a1.19,1.19,0,0,1,.62-1,.54.54,0,0,1-.15-.41A1.26,1.26,0,0,1,208,60a1.14,1.14,0,0,1-.63-1.12c0-.79.47-1.26,1.37-1.26a1.67,1.67,0,0,1,.78.16Zm-2.3,3.75a.83.83,0,0,0-.32.64c0,.35.26.61.83.61.72,0,1.11-.26,1.11-.63C209.84,61.44,208.85,61.59,208.22,61.39Zm.54-3.26a.77.77,0,0,0,0,1.53c.42,0,.7-.24.7-.76S209.18,58.13,208.76,58.13Z"/><path class="cls-6" d="M212.54,57.64a1.1,1.1,0,0,1,.61.18.81.81,0,0,1-.31.59.69.69,0,0,0-.44-.15.92.92,0,0,0-.72.53v2.55a1,1,0,0,1-.35,0,.93.93,0,0,1-.35,0V57.76a.93.93,0,0,1,.35,0,1,1,0,0,1,.35,0v.48A1,1,0,0,1,212.54,57.64Z"/><path class="cls-6" d="M214.76,57.64c1,0,1.34.45,1.34,1.36v2.34a.57.57,0,0,1-.28,0,.73.73,0,0,1-.28,0l-.1-.45a1.14,1.14,0,0,1-1.1.57,1,1,0,0,1-1.09-1.17c0-.76.47-1.1,1.35-1.1a7.74,7.74,0,0,1,.79,0V59c0-.47-.18-.74-.72-.74a3,3,0,0,0-.94.17.65.65,0,0,1-.16-.21.63.63,0,0,1,0-.29A3.07,3.07,0,0,1,214.76,57.64Zm-.07,2c-.47,0-.72.18-.72.62s.23.63.61.63c.56,0,.81-.47.81-1v-.25C215.23,59.7,215,59.67,214.69,59.67Z"/><path class="cls-6" d="M219.67,61.34a1,1,0,0,1-.35,0,.93.93,0,0,1-.35,0V58.82c0-.39-.2-.62-.65-.62a1,1,0,0,0-.79.45v2.69a1.06,1.06,0,0,1-.35,0,.87.87,0,0,1-.35,0V57.76a.87.87,0,0,1,.35,0,1.06,1.06,0,0,1,.35,0v.32a1.34,1.34,0,0,1,1.06-.44,1,1,0,0,1,1.08,1Z"/><path class="cls-6" d="M221.14,57a1.09,1.09,0,0,1-.36,0,1,1,0,0,1-.37,0v-.66a1,1,0,0,1,.37-.05,1.09,1.09,0,0,1,.36.05Zm0,4.34a1,1,0,0,1-.35,0,.87.87,0,0,1-.35,0V57.76a.87.87,0,0,1,.35,0,1,1,0,0,1,.35,0Z"/><path class="cls-6" d="M222.46,59.55c0,.92.3,1.32,1,1.32a1.84,1.84,0,0,0,.66-.12.72.72,0,0,1,.2.5,1.92,1.92,0,0,1-1,.21c-1,0-1.54-.67-1.54-1.91s.52-1.91,1.54-1.91a1.86,1.86,0,0,1,.94.17.75.75,0,0,1-.2.51,1.68,1.68,0,0,0-.62-.11C222.73,58.21,222.46,58.64,222.46,59.55Z"/><path class="cls-6" d="M227.17,60.82a.75.75,0,0,1,0,.28.93.93,0,0,1,0,.29h-2.6a1.28,1.28,0,0,1,0-.3,1,1,0,0,1,0-.27l1.86-2.54h-1.74a1,1,0,0,1,0-.29.75.75,0,0,1,0-.28h2.48a.67.67,0,0,1,0,.27.91.91,0,0,1,0,.3l-1.86,2.54Z"/><path class="cls-6" d="M229.06,57.64c1,0,1.34.45,1.34,1.36v2.34a.57.57,0,0,1-.28,0,.73.73,0,0,1-.28,0l-.1-.45a1.14,1.14,0,0,1-1.1.57,1,1,0,0,1-1.09-1.17c0-.76.47-1.1,1.35-1.1a7.74,7.74,0,0,1,.79,0V59c0-.47-.18-.74-.72-.74a2.91,2.91,0,0,0-.93.17.5.5,0,0,1-.17-.21.63.63,0,0,1,0-.29A3.07,3.07,0,0,1,229.06,57.64Zm-.07,2c-.47,0-.72.18-.72.62s.23.63.61.63c.56,0,.81-.47.81-1v-.25C229.53,59.7,229.25,59.67,229,59.67Z"/><path class="cls-6" d="M233.6,57.64a2,2,0,0,1,1,.19.69.69,0,0,1-.18.49,2.69,2.69,0,0,0-.74-.11c-.48,0-.71.18-.71.51s.44.42.88.57.93.36.93,1.05-.44,1.12-1.33,1.12a2.49,2.49,0,0,1-1.17-.25.71.71,0,0,1,.19-.52,2.86,2.86,0,0,0,.94.18c.43,0,.68-.17.68-.51s-.39-.47-.8-.59-1-.34-1-1S232.71,57.64,233.6,57.64Z"/><path class="cls-6" d="M236.25,60.07c0,.63.2.82.7.82l.29,0a.73.73,0,0,1,0,.28.67.67,0,0,1,0,.25,2.2,2.2,0,0,1-.5.06c-.86,0-1.2-.47-1.2-1.36V58.23H235a.63.63,0,0,1,0-.26.57.57,0,0,1,0-.26h.54v-.64a1.21,1.21,0,0,1,.7-.14v.78h.91a.7.7,0,0,1,0,.26.76.76,0,0,1,0,.26h-.91Z"/><path class="cls-6" d="M239,57.64c1,0,1.33.45,1.33,1.36v2.34a.5.5,0,0,1-.27,0,.73.73,0,0,1-.28,0l-.1-.45a1.14,1.14,0,0,1-1.1.57,1,1,0,0,1-1.09-1.17c0-.76.47-1.1,1.35-1.1a7.74,7.74,0,0,1,.79,0V59c0-.47-.18-.74-.72-.74a3,3,0,0,0-.94.17.65.65,0,0,1-.16-.21.63.63,0,0,1,0-.29A3.07,3.07,0,0,1,239,57.64Zm-.07,2c-.47,0-.72.18-.72.62s.23.63.61.63a.85.85,0,0,0,.81-1v-.25C239.45,59.7,239.17,59.67,238.91,59.67Z"/><path class="cls-6" d="M243.89,61.34a1,1,0,0,1-.35,0,.93.93,0,0,1-.35,0V58.82c0-.39-.2-.62-.65-.62a1,1,0,0,0-.79.45v2.69a1.06,1.06,0,0,1-.35,0,.87.87,0,0,1-.35,0V57.76a.87.87,0,0,1,.35,0,1.06,1.06,0,0,1,.35,0v.32a1.34,1.34,0,0,1,1.06-.44,1,1,0,0,1,1.08,1Z"/><path class="cls-6" d="M248.34,60.82a.62.62,0,0,1,0,.28.76.76,0,0,1,0,.29h-2.59a.9.9,0,0,1-.05-.3.68.68,0,0,1,.05-.27l1.86-2.54h-1.75a1,1,0,0,1,0-.29.75.75,0,0,1,0-.28h2.48a.65.65,0,0,1,0,.27.9.9,0,0,1,0,.3l-1.85,2.54Z"/><path class="cls-6" d="M250.23,57.64c1,0,1.34.45,1.34,1.36v2.34a.55.55,0,0,1-.27,0,.68.68,0,0,1-.28,0l-.11-.45a1.12,1.12,0,0,1-1.1.57c-.66,0-1.08-.38-1.08-1.17s.47-1.1,1.34-1.1a7.8,7.8,0,0,1,.8,0V59c0-.47-.18-.74-.72-.74a3,3,0,0,0-.94.17.53.53,0,0,1-.16-.21.63.63,0,0,1,0-.29A3,3,0,0,1,250.23,57.64Zm-.07,2c-.47,0-.71.18-.71.62s.23.63.61.63a.85.85,0,0,0,.81-1v-.25C250.71,59.7,250.43,59.67,250.16,59.67Z"/><path class="cls-6" d="M254,57.64c.8,0,1.32.48,1.32,1.91s-.52,1.91-1.32,1.91a1.14,1.14,0,0,1-1-.45v2a1.14,1.14,0,0,1-.35,0,1.22,1.22,0,0,1-.35,0V57.76a1,1,0,0,1,.35,0,.93.93,0,0,1,.35,0v.33A1.12,1.12,0,0,1,254,57.64Zm-.24.57a.8.8,0,0,0-.77.88V60a.81.81,0,0,0,.77.9c.56,0,.84-.3.84-1.34S254.33,58.21,253.77,58.21Z"/><path class="cls-6" d="M257.22,57.64c1,0,1.34.45,1.34,1.36v2.34a.57.57,0,0,1-.28,0,.73.73,0,0,1-.28,0l-.1-.45a1.13,1.13,0,0,1-1.1.57,1,1,0,0,1-1.09-1.17c0-.76.47-1.1,1.35-1.1a7.74,7.74,0,0,1,.79,0V59c0-.47-.18-.74-.72-.74a2.91,2.91,0,0,0-.93.17.5.5,0,0,1-.17-.21.63.63,0,0,1,0-.29A3.07,3.07,0,0,1,257.22,57.64Zm-.07,2c-.47,0-.72.18-.72.62s.23.63.61.63c.56,0,.81-.47.81-1v-.25C257.69,59.7,257.41,59.67,257.15,59.67Z"/><path class="cls-6" d="M260,61.34a1,1,0,0,1-.35,0,.93.93,0,0,1-.35,0V56.19a.93.93,0,0,1,.35,0,1,1,0,0,1,.35,0Z"/><path class="cls-6" d="M263.64,61.34a1,1,0,0,1-.35,0,.93.93,0,0,1-.35,0V58.82a.57.57,0,0,0-.65-.62,1,1,0,0,0-.79.45v2.69a1.09,1.09,0,0,1-.36,0,.84.84,0,0,1-.34,0V57.76a.84.84,0,0,1,.34,0,1.09,1.09,0,0,1,.36,0v.32a1.33,1.33,0,0,1,1.05-.44,1,1,0,0,1,1.09,1Z"/><path class="cls-6" d="M266.05,61.93c-.26.77-.5,1.21-1.26,1.21a1,1,0,0,1-.38-.07.83.83,0,0,1-.05-.26,1,1,0,0,1,.05-.28,2,2,0,0,0,.32,0c.31,0,.48-.08.69-.74l.14-.43a.63.63,0,0,1-.22,0L264,57.76a1.09,1.09,0,0,1,.36,0,1.13,1.13,0,0,1,.37,0l.79,2.12a6.64,6.64,0,0,1,.25.82h0s.07-.32.22-.81l.69-2.13a1,1,0,0,1,.35,0,1,1,0,0,1,.33,0Z"/><path class="cls-6" d="M271.65,56.14a.9.9,0,0,1,.34,0v5.15a.85.85,0,0,1-.3,0,1,1,0,0,1-.31,0l-.05-.38a1.15,1.15,0,0,1-1.05.5c-.8,0-1.32-.48-1.32-1.91s.52-1.91,1.32-1.91a1.13,1.13,0,0,1,1,.45v-1.9A1,1,0,0,1,271.65,56.14Zm-1.13,2.07c-.56,0-.84.29-.84,1.34s.28,1.34.84,1.34a.81.81,0,0,0,.77-.9v-.9A.8.8,0,0,0,270.52,58.21Z"/><path class="cls-6" d="M275.15,60.82a.75.75,0,0,1,0,.28.93.93,0,0,1,0,.29h-2.6a1.28,1.28,0,0,1,0-.3,1,1,0,0,1,0-.27l1.86-2.54h-1.74a.83.83,0,0,1-.05-.29.62.62,0,0,1,.05-.28h2.48a.91.91,0,0,1,0,.27,1.28,1.28,0,0,1,0,.3l-1.86,2.54Z"/><path class="cls-6" d="M276.49,57a1.13,1.13,0,0,1-.37,0,1,1,0,0,1-.36,0v-.66a1,1,0,0,1,.36-.05,1.13,1.13,0,0,1,.37.05Zm0,4.34a1.25,1.25,0,0,1-.7,0V57.76a1.25,1.25,0,0,1,.7,0Z"/><path class="cls-6" d="M278.53,57.64c1,0,1.33.45,1.33,1.36v2.35c-.44.12-.69.4-.69.68s.1.31.37.31a.65.65,0,0,0,.24-.05.41.41,0,0,1,.11.31,1,1,0,0,1-.47.13c-.47,0-.75-.24-.75-.6a1,1,0,0,1,.64-.81l-.1-.43a1.14,1.14,0,0,1-1.1.57A1,1,0,0,1,277,60.29c0-.75.47-1.1,1.35-1.1a7.74,7.74,0,0,1,.79,0V59c0-.5-.17-.73-.72-.73a3,3,0,0,0-.94.17.65.65,0,0,1-.16-.21.63.63,0,0,1,0-.29A3.07,3.07,0,0,1,278.53,57.64Zm-.07,2c-.47,0-.72.19-.72.62a.55.55,0,0,0,.61.63.86.86,0,0,0,.81-1v-.24C279,59.7,278.72,59.67,278.46,59.67Z"/><path class="cls-6" d="M281.75,57.64a2,2,0,0,1,1,.19.69.69,0,0,1-.18.49,2.69,2.69,0,0,0-.74-.11c-.47,0-.71.18-.71.51s.44.42.88.57.93.36.93,1.05-.44,1.12-1.33,1.12a2.54,2.54,0,0,1-1.17-.25.75.75,0,0,1,.19-.52,3,3,0,0,0,.95.18c.42,0,.67-.17.67-.51s-.39-.47-.8-.59-1-.34-1-1S280.86,57.64,281.75,57.64Z"/><path class="cls-6" d="M284,59.77c.06.83.39,1.1,1,1.1a1.67,1.67,0,0,0,.83-.21.72.72,0,0,1,.23.51,2.1,2.1,0,0,1-1.17.29c-1.08,0-1.58-.67-1.58-1.93s.62-1.89,1.55-1.89a1.26,1.26,0,0,1,1.39,1.4,2.92,2.92,0,0,1-.08.73Zm.83-1.58c-.45,0-.77.3-.83,1.08h1.5a2.1,2.1,0,0,0,0-.32C285.54,58.54,285.37,58.19,284.85,58.19Z"/><path class="cls-6" d="M287.49,56.14a1,1,0,0,1,.35,0v1.92l.49-.28a1,1,0,0,1,.14.16.51.51,0,0,1,.07.22l-.7.41v2.72a1,1,0,0,1-.35,0,.87.87,0,0,1-.35,0V59l-.47.27a.46.46,0,0,1-.14-.16.67.67,0,0,1-.08-.22l.69-.39V56.19A.87.87,0,0,1,287.49,56.14Z"/><path class="cls-6" d="M289.5,55.92a3.89,3.89,0,0,0,0,3.67.27.27,0,0,1-.13.12.39.39,0,0,1-.17,0,4.12,4.12,0,0,1-.56-2,4.07,4.07,0,0,1,.56-2,.32.32,0,0,1,.17,0A.27.27,0,0,1,289.5,55.92Z"/><path class="cls-6" d="M289.78,56.4a1.88,1.88,0,0,1,.75-.15c.49,0,.89.21.89.74s-.29.69-.78,1c-.24.15-.57.29-.57.62v.09h1.28a.49.49,0,0,1,0,.19.48.48,0,0,1,0,.18h-1.66a2,2,0,0,1,0-.27c0-.64.41-.87.79-1.11s.54-.37.54-.67-.16-.42-.53-.42a2,2,0,0,0-.58.1A.29.29,0,0,1,289.78,56.4Z"/><path class="cls-6" d="M291.62,55.92a.34.34,0,0,1,.14-.12.3.3,0,0,1,.17,0,4.12,4.12,0,0,1,.55,2,4.17,4.17,0,0,1-.55,2,.44.44,0,0,1-.18,0,.36.36,0,0,1-.13-.12,3.89,3.89,0,0,0,0-3.67Z"/></g></svg>