<svg id="Warstwa_1" data-name="Warstwa 1" xmlns="http://www.w3.org/2000/svg" viewBox="0 0 190 110"><defs><style>.cls-1{fill:#ccd513;}.cls-2{fill:#0056a3;}</style></defs><title>bezposrednia_aplikacja</title><polygon class="cls-1" points="143.8 55.36 129.2 34.09 40.91 34.09 55.5 55.36 40.87 76.8 129.16 76.8 143.8 55.36"/><path class="cls-2" d="M62.32,40.08a1.3,1.3,0,0,1,1.39,1.4,1.19,1.19,0,0,1-.57,1.07,1.24,1.24,0,0,1,.71,1.18,1.36,1.36,0,0,1-1.5,1.43H60.44V40.08Zm-.15,2.24a.84.84,0,0,0,0-1.68h-1v1.68Zm0,2.28a.78.78,0,0,0,.89-.87c0-.59-.28-.87-.9-.87H61.16V44.6Z"/><path class="cls-2" d="M65.18,43.53c.06.83.39,1.1,1,1.1a1.73,1.73,0,0,0,.83-.2.72.72,0,0,1,.23.51,2.1,2.1,0,0,1-1.17.29c-1.09,0-1.6-.67-1.6-1.94s.63-1.91,1.57-1.91a1.27,1.27,0,0,1,1.39,1.42,3.42,3.42,0,0,1-.07.73ZM66,41.94c-.46,0-.78.3-.84,1.08h1.51a1.85,1.85,0,0,0,0-.31C66.71,42.29,66.54,41.94,66,41.94Z"/><path class="cls-2" d="M70.52,44.58a.85.85,0,0,1,0,.29.93.93,0,0,1,0,.29H67.9a1.28,1.28,0,0,1,0-.3,1,1,0,0,1,0-.28L69.78,42H68a1,1,0,0,1,0-.3.82.82,0,0,1,0-.28h2.5a1,1,0,0,1,0,.28,1.28,1.28,0,0,1,0,.3l-1.87,2.55Z"/><path class="cls-2" d="M73,41.38c.81,0,1.33.49,1.33,1.93s-.52,1.92-1.33,1.92a1.12,1.12,0,0,1-1-.46v2a1.26,1.26,0,0,1-.36,0,1.22,1.22,0,0,1-.35,0V41.5a1,1,0,0,1,.35,0,1,1,0,0,1,.36,0v.34A1.12,1.12,0,0,1,73,41.38Zm-.24.58a.8.8,0,0,0-.77.89v.9a.8.8,0,0,0,.77.9c.56,0,.84-.29.84-1.34S73.3,42,72.74,42Z"/><path class="cls-2" d="M76.46,41.38c1,0,1.56.53,1.56,1.93s-.6,1.92-1.56,1.92-1.57-.53-1.57-1.92S75.49,41.38,76.46,41.38Zm0,.54c-.52,0-.85.3-.85,1.39s.33,1.38.85,1.38.84-.3.84-1.38S77,41.92,76.46,41.92Z"/><path class="cls-2" d="M79.92,41.38a2,2,0,0,1,1,.19.7.7,0,0,1-.18.5A2.69,2.69,0,0,0,80,42c-.48,0-.72.18-.72.51s.4.42.83.55,1,.36,1,1.08-.45,1.13-1.34,1.13A2.56,2.56,0,0,1,78.58,45a.69.69,0,0,1,.19-.52,3.11,3.11,0,0,0,1,.17c.43,0,.68-.16.68-.51s-.4-.47-.82-.59-1-.34-1-1S79,41.38,79.92,41.38Zm-.24-.48a.59.59,0,0,1-.4-.22l.67-1a.7.7,0,0,1,.61.26Z"/><path class="cls-2" d="M83.33,41.39a1.14,1.14,0,0,1,.62.18.84.84,0,0,1-.31.59A.73.73,0,0,0,83.2,42a.91.91,0,0,0-.73.54v2.56a1,1,0,0,1-.35,0,.87.87,0,0,1-.35,0V41.5a.87.87,0,0,1,.35,0,1,1,0,0,1,.35,0V42A1,1,0,0,1,83.33,41.39Z"/><path class="cls-2" d="M85,43.53c.06.83.4,1.1,1,1.1a1.79,1.79,0,0,0,.84-.2.75.75,0,0,1,.22.51,2.1,2.1,0,0,1-1.17.29c-1.08,0-1.59-.67-1.59-1.94s.63-1.91,1.56-1.91a1.28,1.28,0,0,1,1.4,1.42,3,3,0,0,1-.08.73Zm.84-1.59c-.46,0-.78.3-.84,1.08h1.51a1.85,1.85,0,0,0,0-.31C86.5,42.29,86.33,41.94,85.81,41.94Z"/><path class="cls-2" d="M90.44,39.87a.93.93,0,0,1,.35.05v5.19a.85.85,0,0,1-.3,0,1,1,0,0,1-.31,0l-.05-.38a1.17,1.17,0,0,1-1.06.5c-.8,0-1.33-.49-1.33-1.92s.53-1.93,1.33-1.93a1.16,1.16,0,0,1,1,.46V39.92A.93.93,0,0,1,90.44,39.87ZM89.32,42c-.57,0-.85.3-.85,1.35s.28,1.34.85,1.34a.81.81,0,0,0,.77-.9v-.91A.81.81,0,0,0,89.32,42Z"/><path class="cls-2" d="M94.55,45.11a1,1,0,0,1-.36,0,.93.93,0,0,1-.35,0V42.57c0-.39-.2-.62-.65-.62a1,1,0,0,0-.8.45v2.71a1.06,1.06,0,0,1-.35,0,1,1,0,0,1-.36,0V41.5a1,1,0,0,1,.36,0,1.06,1.06,0,0,1,.35,0v.33a1.36,1.36,0,0,1,1.06-.45,1,1,0,0,1,1.1,1.07Z"/><path class="cls-2" d="M96.15,40.74a1,1,0,0,1-.36,0,1,1,0,0,1-.37,0v-.66a1,1,0,0,1,.37,0,1,1,0,0,1,.36,0Zm0,4.37a1,1,0,0,1-.35,0,1,1,0,0,1-.36,0V41.5a1,1,0,0,1,.36,0,1,1,0,0,1,.35,0Z"/><path class="cls-2" d="M98.33,41.38c1,0,1.35.46,1.35,1.37v2.36a.57.57,0,0,1-.28,0,.73.73,0,0,1-.28,0l-.1-.45a1.15,1.15,0,0,1-1.11.57,1,1,0,0,1-1.09-1.18c0-.76.47-1.1,1.35-1.1a7.8,7.8,0,0,1,.8,0v-.26c0-.48-.18-.76-.72-.76a2.89,2.89,0,0,0-1,.18.55.55,0,0,1-.2-.51A3.07,3.07,0,0,1,98.33,41.38Zm-.07,2c-.47,0-.72.18-.72.62a.56.56,0,0,0,.62.64c.55,0,.81-.47.81-1v-.25A6.37,6.37,0,0,0,98.26,43.43Z"/><path class="cls-2" d="M103.28,41.38c1,0,1.35.46,1.35,1.37v2.36a.57.57,0,0,1-.28,0,.73.73,0,0,1-.28,0l-.11-.45a1.13,1.13,0,0,1-1.1.57,1,1,0,0,1-1.09-1.18c0-.76.47-1.1,1.35-1.1a7.8,7.8,0,0,1,.8,0v-.26c0-.48-.18-.76-.72-.76a2.89,2.89,0,0,0-1,.18.53.53,0,0,1-.16-.21.66.66,0,0,1,0-.3A3.07,3.07,0,0,1,103.28,41.38Zm-.07,2c-.47,0-.72.18-.72.62s.23.64.61.64c.56,0,.82-.47.82-1v-.25A6.37,6.37,0,0,0,103.21,43.43Z"/><path class="cls-2" d="M107.21,41.38c.81,0,1.33.49,1.33,1.93s-.52,1.92-1.33,1.92a1.12,1.12,0,0,1-1-.46v2a1.26,1.26,0,0,1-.36,0,1.22,1.22,0,0,1-.35,0V41.5a1,1,0,0,1,.35,0,1,1,0,0,1,.36,0v.34A1.12,1.12,0,0,1,107.21,41.38ZM107,42a.8.8,0,0,0-.77.89v.9a.8.8,0,0,0,.77.9c.56,0,.84-.29.84-1.34S107.53,42,107,42Z"/><path class="cls-2" d="M110,45.11a1,1,0,0,1-.35,0,.87.87,0,0,1-.35,0V39.92a.87.87,0,0,1,.35-.05,1,1,0,0,1,.35.05Z"/><path class="cls-2" d="M111.66,40.74a1,1,0,0,1-.36,0,1,1,0,0,1-.37,0v-.66a1,1,0,0,1,.37,0,1,1,0,0,1,.36,0Zm0,4.37a1,1,0,0,1-.35,0,1,1,0,0,1-.36,0V41.5a1,1,0,0,1,.36,0,1,1,0,0,1,.35,0Z"/><path class="cls-2" d="M114.62,41.5a1.17,1.17,0,0,1,.36,0,1.22,1.22,0,0,1,.35,0l-1.09,1.68,1.25,1.93a1.22,1.22,0,0,1-.39.06,1.14,1.14,0,0,1-.39-.06l-1-1.62h-.4v1.62a1.11,1.11,0,0,1-.34,0,1.09,1.09,0,0,1-.36,0v-5.2a1.44,1.44,0,0,1,.36,0,1.46,1.46,0,0,1,.34,0V43h.4Z"/><path class="cls-2" d="M117.24,41.38c1,0,1.35.46,1.35,1.37v2.36a.57.57,0,0,1-.28,0,.68.68,0,0,1-.28,0l-.11-.45a1.13,1.13,0,0,1-1.1.57,1,1,0,0,1-1.1-1.18c0-.76.48-1.1,1.36-1.1a8,8,0,0,1,.8,0v-.26c0-.48-.18-.76-.73-.76a2.86,2.86,0,0,0-.94.18.53.53,0,0,1-.16-.21.53.53,0,0,1,0-.3A3,3,0,0,1,117.24,41.38Zm-.07,2c-.47,0-.72.18-.72.62s.23.64.61.64c.56,0,.82-.47.82-1v-.25A6.37,6.37,0,0,0,117.17,43.43Z"/><path class="cls-2" d="M120,43.31c0,.92.29,1.32,1,1.32a1.77,1.77,0,0,0,.66-.12.77.77,0,0,1,.21.51,1.94,1.94,0,0,1-1,.21c-1,0-1.55-.67-1.55-1.92s.52-1.93,1.55-1.93a1.78,1.78,0,0,1,.94.18.71.71,0,0,1-.2.51A1.68,1.68,0,0,0,121,42C120.28,42,120,42.39,120,43.31Z"/><path class="cls-2" d="M122.48,41.5a.93.93,0,0,1,.35,0,1,1,0,0,1,.36,0v4.28c0,.75-.36,1.14-1,1.14a1.66,1.66,0,0,1-.48-.06.65.65,0,0,1,0-.16.72.72,0,0,1,.07-.36,1.2,1.2,0,0,0,.26,0c.32,0,.48-.17.48-.56Zm.72-.77a1.13,1.13,0,0,1-.37.05,1,1,0,0,1-.36-.05v-.66a1,1,0,0,1,.36,0,1.13,1.13,0,0,1,.37,0Z"/><path class="cls-2" d="M125.38,41.38c1,0,1.35.46,1.35,1.37v2.36a.57.57,0,0,1-.28,0,.73.73,0,0,1-.28,0l-.11-.45a1.13,1.13,0,0,1-1.1.57,1,1,0,0,1-1.1-1.18c0-.76.48-1.1,1.36-1.1a7.8,7.8,0,0,1,.8,0v-.26c0-.48-.18-.76-.72-.76a2.89,2.89,0,0,0-1,.18.53.53,0,0,1-.16-.21.66.66,0,0,1,0-.3A3.07,3.07,0,0,1,125.38,41.38Zm-.07,2c-.47,0-.72.18-.72.62s.23.64.61.64c.56,0,.82-.47.82-1v-.25A6.37,6.37,0,0,0,125.31,43.43Z"/><path class="cls-2" d="M63.19,53.57a1,1,0,0,1-.36,0,.93.93,0,0,1-.35,0V51c0-.39-.2-.62-.66-.62a1,1,0,0,0-.79.45v2.71a1.06,1.06,0,0,1-.35,0,1,1,0,0,1-.36,0V50a1,1,0,0,1,.36-.05A1.06,1.06,0,0,1,61,50v.33a1.36,1.36,0,0,1,1.06-.45,1,1,0,0,1,1.1,1.07Z"/><path class="cls-2" d="M65.34,49.84c1,0,1.35.46,1.35,1.37v2.36a.57.57,0,0,1-.28,0,.73.73,0,0,1-.28,0l-.1-.45a1.15,1.15,0,0,1-1.11.57,1,1,0,0,1-1.09-1.18c0-.77.47-1.1,1.35-1.1a7.8,7.8,0,0,1,.8,0v-.26c0-.48-.18-.76-.72-.76a2.89,2.89,0,0,0-1,.18.55.55,0,0,1-.2-.51A3.07,3.07,0,0,1,65.34,49.84Zm-.07,2c-.47,0-.72.18-.72.62a.56.56,0,0,0,.62.64c.55,0,.81-.48.81-1v-.24A6.37,6.37,0,0,0,65.27,51.89Z"/><path class="cls-2" d="M70.57,49.85a1.23,1.23,0,0,1,.62.17.84.84,0,0,1-.31.6.73.73,0,0,0-.44-.15.92.92,0,0,0-.73.53v2.57a1,1,0,0,1-.35,0,.87.87,0,0,1-.35,0V50a.87.87,0,0,1,.35-.05,1,1,0,0,1,.35.05v.49A1,1,0,0,1,70.57,49.85Z"/><path class="cls-2" d="M72.93,49.84c1,0,1.35.46,1.35,1.37v2.36a.55.55,0,0,1-.27,0,.76.76,0,0,1-.29,0l-.1-.45a1.15,1.15,0,0,1-1.11.57,1,1,0,0,1-1.09-1.18c0-.77.47-1.1,1.35-1.1.32,0,.62,0,.81,0v-.26c0-.48-.19-.76-.73-.76a2.86,2.86,0,0,0-.94.18.5.5,0,0,1-.17-.21.66.66,0,0,1,0-.3A3.07,3.07,0,0,1,72.93,49.84Zm-.07,2c-.47,0-.72.18-.72.62a.56.56,0,0,0,.62.64.87.87,0,0,0,.82-1v-.24A6.73,6.73,0,0,0,72.86,51.89Z"/><path class="cls-2" d="M78,53.57a1,1,0,0,1-.35,0,1,1,0,0,1-.36,0V51c0-.39-.2-.62-.65-.62a1,1,0,0,0-.8.45v2.71a1,1,0,0,1-.35,0,.87.87,0,0,1-.35,0V50a.87.87,0,0,1,.35-.05,1,1,0,0,1,.35.05v.33a1.38,1.38,0,0,1,1.07-.45A1,1,0,0,1,78,50.91Z"/><path class="cls-2" d="M80.29,49.84a1.27,1.27,0,0,1,1.39,1.42,2.88,2.88,0,0,1-.08.72H79.45c0,.84.39,1.11,1,1.11a1.73,1.73,0,0,0,.83-.2.67.67,0,0,1,.22.5,1.34,1.34,0,0,1-.51.22.81.81,0,0,0-.66.71c0,.24.17.26.38.26a.43.43,0,0,0,.22-.06.39.39,0,0,1,.12.3,1,1,0,0,1-.48.13c-.4,0-.7-.15-.7-.57a.84.84,0,0,1,.36-.69c-1,0-1.49-.71-1.49-1.95S79.35,49.84,80.29,49.84Zm0,.56c-.46,0-.79.3-.84,1.08H81s0-.17,0-.31C81,50.75,80.81,50.4,80.29,50.4Z"/><path class="cls-2" d="M85.55,49.84c.8,0,1.32.49,1.32,1.93s-.52,1.92-1.32,1.92a1.13,1.13,0,0,1-1-.46v2a1.26,1.26,0,0,1-.36,0,1.22,1.22,0,0,1-.35,0V50a1,1,0,0,1,.35-.05,1,1,0,0,1,.36.05v.34A1.13,1.13,0,0,1,85.55,49.84Zm-.25.58a.8.8,0,0,0-.77.89v.9a.8.8,0,0,0,.77.9c.56,0,.84-.29.84-1.34S85.86,50.42,85.3,50.42Z"/><path class="cls-2" d="M89,49.84c1,0,1.57.53,1.57,1.93S90,53.69,89,53.69s-1.56-.53-1.56-1.92S88.05,49.84,89,49.84Zm0,.54c-.51,0-.85.3-.85,1.39s.34,1.38.85,1.38.84-.3.84-1.38S89.53,50.38,89,50.38Z"/><path class="cls-2" d="M92.72,49.84c1,0,1.57.53,1.57,1.93s-.6,1.92-1.57,1.92-1.56-.53-1.56-1.92S91.76,49.84,92.72,49.84Zm0,.54c-.51,0-.85.3-.85,1.39s.34,1.38.85,1.38.84-.3.84-1.38S93.24,50.38,92.72,50.38Z"/><path class="cls-2" d="M96.74,49.84c.8,0,1.32.49,1.32,1.93s-.52,1.92-1.32,1.92a1.14,1.14,0,0,1-1-.46v2a1.26,1.26,0,0,1-.36,0,1.1,1.1,0,0,1-.34,0V50a.9.9,0,0,1,.34-.05,1,1,0,0,1,.36.05v.34A1.14,1.14,0,0,1,96.74,49.84Zm-.25.58a.8.8,0,0,0-.77.89v.9a.81.81,0,0,0,.77.9c.57,0,.85-.29.85-1.34S97.06,50.42,96.49,50.42Z"/><path class="cls-2" d="M99.37,52c.06.84.4,1.11,1,1.11a1.73,1.73,0,0,0,.83-.2.71.71,0,0,1,.22.5,2.05,2.05,0,0,1-1.17.3c-1.08,0-1.59-.67-1.59-1.95s.63-1.9,1.56-1.9a1.28,1.28,0,0,1,1.4,1.42,2.88,2.88,0,0,1-.08.72Zm.84-1.58c-.45,0-.78.3-.84,1.08h1.51a1.66,1.66,0,0,0,0-.31C100.91,50.75,100.74,50.4,100.21,50.4Z"/><path class="cls-2" d="M103.87,49.85a1.19,1.19,0,0,1,.61.17.81.81,0,0,1-.31.6.73.73,0,0,0-.44-.15A.91.91,0,0,0,103,51v2.57a1,1,0,0,1-.36,0,.93.93,0,0,1-.35,0V50a.93.93,0,0,1,.35-.05A1,1,0,0,1,103,50v.49A1,1,0,0,1,103.87,49.85Z"/><path class="cls-2" d="M106.23,49.84c1,0,1.34.46,1.34,1.37v2.36a.5.5,0,0,1-.27,0,.68.68,0,0,1-.28,0l-.11-.45a1.14,1.14,0,0,1-1.11.57,1,1,0,0,1-1.09-1.18c0-.77.47-1.1,1.36-1.1a8,8,0,0,1,.8,0v-.26c0-.48-.18-.76-.73-.76a2.86,2.86,0,0,0-.94.18.53.53,0,0,1-.16-.21.59.59,0,0,1-.05-.3A3.09,3.09,0,0,1,106.23,49.84Zm-.07,2c-.48,0-.72.18-.72.62s.23.64.61.64c.56,0,.82-.48.82-1v-.24A6.52,6.52,0,0,0,106.16,51.89Z"/><path class="cls-2" d="M109,51.77c0,.92.3,1.32,1,1.32a1.77,1.77,0,0,0,.66-.12.77.77,0,0,1,.21.51,2,2,0,0,1-1,.21c-1,0-1.55-.67-1.55-1.92s.52-1.93,1.55-1.93a1.78,1.78,0,0,1,.94.18.67.67,0,0,1-.2.5,1.82,1.82,0,0,0-.62-.1C109.27,50.42,109,50.85,109,51.77Z"/><path class="cls-2" d="M113.14,54.16c-.26.78-.51,1.22-1.27,1.22a1,1,0,0,1-.38-.07.83.83,0,0,1,0-.26,1,1,0,0,1,0-.28,2,2,0,0,0,.32,0c.32,0,.48-.09.69-.75l.15-.43a.68.68,0,0,1-.23,0L111.08,50a1.2,1.2,0,0,1,.37-.05,1.13,1.13,0,0,1,.37.05l.8,2.14a6.44,6.44,0,0,1,.25.83h0s.07-.33.22-.82l.7-2.15a.9.9,0,0,1,.34-.05,1,1,0,0,1,.34.05Z"/><path class="cls-2" d="M115.05,50a.87.87,0,0,1,.35-.05,1,1,0,0,1,.35.05v4.28c0,.75-.36,1.14-1,1.14a1.54,1.54,0,0,1-.47-.06.65.65,0,0,1,0-.16.72.72,0,0,1,.07-.36,1.09,1.09,0,0,0,.26,0c.31,0,.48-.17.48-.56Zm.72-.77a1.13,1.13,0,0,1-.37.05,1,1,0,0,1-.37-.05v-.66a1,1,0,0,1,.37-.05,1.13,1.13,0,0,1,.37.05Z"/><path class="cls-2" d="M119.52,53.57a1,1,0,0,1-.35,0,.93.93,0,0,1-.35,0V51c0-.39-.21-.62-.66-.62a1,1,0,0,0-.8.45v2.71a1,1,0,0,1-.35,0,.93.93,0,0,1-.35,0V50a.93.93,0,0,1,.35-.05,1,1,0,0,1,.35.05v.33a1.39,1.39,0,0,1,1.07-.45,1,1,0,0,1,1.09,1.07Z"/><path class="cls-2" d="M121.68,49.84c1,0,1.35.46,1.35,1.37v2.37c-.45.12-.7.4-.7.68s.1.31.36.31a.67.67,0,0,0,.25,0,.45.45,0,0,1,.11.32,1,1,0,0,1-.48.13c-.46,0-.74-.24-.74-.61a1,1,0,0,1,.64-.81l-.11-.43a1.13,1.13,0,0,1-1.1.57,1,1,0,0,1-1.1-1.18c0-.75.48-1.1,1.36-1.1a8,8,0,0,1,.8,0v-.28c0-.5-.18-.74-.73-.74a2.86,2.86,0,0,0-.94.18.53.53,0,0,1-.16-.21.53.53,0,0,1,0-.3A3,3,0,0,1,121.68,49.84Zm-.07,2c-.47,0-.72.19-.72.62s.23.64.61.64a.87.87,0,0,0,.82-1v-.24A6.37,6.37,0,0,0,121.61,51.89Z"/><path class="cls-2" d="M123.81,54.32a1.25,1.25,0,0,0,.26-.7.58.58,0,0,1-.23,0v-.66a1,1,0,0,1,.36,0,1.13,1.13,0,0,1,.37,0v.44a1.5,1.5,0,0,1-.51,1.15Z"/><path class="cls-2" d="M62.73,61.5a.7.7,0,0,1,.05.29.76.76,0,0,1-.05.29H60.12a1.36,1.36,0,0,1,0-.3,1,1,0,0,1,0-.28L62,59H60.24a1,1,0,0,1,0-.3.82.82,0,0,1,0-.28h2.49a.67.67,0,0,1,.05.28.9.9,0,0,1-.05.3L60.87,61.5Z"/><path class="cls-2" d="M64.76,58.3c1,0,1.35.46,1.35,1.37V62a.55.55,0,0,1-.27,0,.76.76,0,0,1-.29,0l-.1-.45a1.15,1.15,0,0,1-1.11.57A1,1,0,0,1,63.25,61c0-.77.47-1.1,1.35-1.1.32,0,.62,0,.81,0v-.26c0-.48-.19-.76-.73-.76a2.86,2.86,0,0,0-.94.18.5.5,0,0,1-.17-.21.66.66,0,0,1,0-.3A3.07,3.07,0,0,1,64.76,58.3Zm-.07,2c-.47,0-.72.19-.72.63a.56.56,0,0,0,.62.64.87.87,0,0,0,.82-1v-.24A6.4,6.4,0,0,0,64.69,60.34Z"/><path class="cls-2" d="M68.7,58.3c.8,0,1.32.49,1.32,1.92s-.52,1.93-1.32,1.93a1.14,1.14,0,0,1-1-.46v2a1.26,1.26,0,0,1-.36,0,1.1,1.1,0,0,1-.34,0V58.42a.9.9,0,0,1,.34-.05,1,1,0,0,1,.36.05v.34A1.14,1.14,0,0,1,68.7,58.3Zm-.25.58a.8.8,0,0,0-.77.89v.9a.81.81,0,0,0,.77.9c.56,0,.85-.29.85-1.35S69,58.88,68.45,58.88Z"/><path class="cls-2" d="M71.33,60.44c.06.84.4,1.11,1,1.11a1.79,1.79,0,0,0,.84-.2.75.75,0,0,1,.22.5,2.05,2.05,0,0,1-1.17.3c-1.09,0-1.59-.67-1.59-1.95s.63-1.9,1.56-1.9a1.28,1.28,0,0,1,1.4,1.42,2.88,2.88,0,0,1-.08.72Zm.84-1.58c-.46,0-.78.3-.84,1.08h1.51a2,2,0,0,0,0-.31C72.86,59.21,72.69,58.86,72.17,58.86Z"/><path class="cls-2" d="M76.77,60.12a4.31,4.31,0,0,1-.19-1h0a4.38,4.38,0,0,1-.2,1L75.8,62a1.28,1.28,0,0,1-.41,0,1.25,1.25,0,0,1-.4,0l-1.07-3.61a1.06,1.06,0,0,1,.35-.05.6.6,0,0,1,.31.05l.67,2.25a4.14,4.14,0,0,1,.14.69h0a4.68,4.68,0,0,1,.15-.69l.65-2.25a1.5,1.5,0,0,1,.38-.05,1,1,0,0,1,.35.05l.62,2.24a3.5,3.5,0,0,1,.14.7h0c0-.15.08-.37.18-.7l.66-2.24a.88.88,0,0,1,.31-.05.7.7,0,0,1,.31.05L78.12,62a1.25,1.25,0,0,1-.4,0,1.4,1.4,0,0,1-.41,0Z"/><path class="cls-2" d="M82.61,62a1,1,0,0,1-.36,0,.93.93,0,0,1-.35,0V59.49c0-.39-.2-.62-.66-.62a1,1,0,0,0-.79.45V62a1.06,1.06,0,0,1-.35,0,1,1,0,0,1-.36,0V58.42a1,1,0,0,1,.36-.05,1.06,1.06,0,0,1,.35.05v.33a1.36,1.36,0,0,1,1.06-.45,1,1,0,0,1,1.1,1.07Z"/><path class="cls-2" d="M84.21,57.66a1,1,0,0,1-.36.05,1,1,0,0,1-.37-.05V57a1,1,0,0,1,.37,0,1,1,0,0,1,.36,0Zm0,4.37a1,1,0,0,1-.35,0,1,1,0,0,1-.36,0V58.42a1,1,0,0,1,.36-.05,1,1,0,0,1,.35.05Z"/><path class="cls-2" d="M86.39,58.3c1,0,1.35.46,1.35,1.37V62a.57.57,0,0,1-.28,0,.73.73,0,0,1-.28,0l-.11-.45a1.13,1.13,0,0,1-1.1.57A1,1,0,0,1,84.88,61c0-.77.47-1.1,1.35-1.1a7.8,7.8,0,0,1,.8,0v-.26c0-.48-.18-.76-.72-.76a2.89,2.89,0,0,0-1,.18.53.53,0,0,1-.16-.21.66.66,0,0,1,0-.3A3.07,3.07,0,0,1,86.39,58.3Zm-.07,2c-.47,0-.72.19-.72.63s.23.64.62.64c.55,0,.81-.48.81-1v-.24A6,6,0,0,0,86.32,60.34Z"/><path class="cls-2" d="M92.6,56.79a1,1,0,0,1,.35.05V62a.85.85,0,0,1-.3,0,1.05,1.05,0,0,1-.32,0l0-.38a1.14,1.14,0,0,1-1,.5c-.81,0-1.33-.49-1.33-1.93s.52-1.92,1.33-1.92a1.13,1.13,0,0,1,1,.46V56.84A1,1,0,0,1,92.6,56.79Zm-1.13,2.09c-.56,0-.84.29-.84,1.34s.28,1.35.84,1.35a.8.8,0,0,0,.77-.9v-.91A.8.8,0,0,0,91.47,58.88Z"/><path class="cls-2" d="M96.25,61.5a.7.7,0,0,1,0,.29.76.76,0,0,1,0,.29H93.64a1.36,1.36,0,0,1,0-.3,1,1,0,0,1,0-.28L95.51,59H93.76a1,1,0,0,1,0-.3.82.82,0,0,1,0-.28h2.49a.67.67,0,0,1,0,.28.9.9,0,0,1,0,.3L94.39,61.5Z"/><path class="cls-2" d="M97.73,57.66a1,1,0,0,1-.36.05,1,1,0,0,1-.37-.05V57a1,1,0,0,1,.37,0,1,1,0,0,1,.36,0Zm0,4.37a1,1,0,0,1-.35,0A1,1,0,0,1,97,62V58.42a1,1,0,0,1,.36-.05,1,1,0,0,1,.35.05Z"/><path class="cls-2" d="M99.91,58.3c1,0,1.35.46,1.35,1.37V62a.57.57,0,0,1-.28,0,.73.73,0,0,1-.28,0l-.1-.45a1.16,1.16,0,0,1-1.11.57A1,1,0,0,1,98.4,61c0-.77.47-1.1,1.35-1.1a7.8,7.8,0,0,1,.8,0v-.26c0-.48-.18-.76-.72-.76a2.89,2.89,0,0,0-1,.18.55.55,0,0,1-.2-.51A3.07,3.07,0,0,1,99.91,58.3Zm-.07,2c-.47,0-.72.19-.72.63a.56.56,0,0,0,.62.64c.55,0,.81-.48.81-1v-.24A6,6,0,0,0,99.84,60.34Z"/><path class="cls-2" d="M102.82,56.79a1,1,0,0,1,.35.05v1.94l.49-.28a.46.46,0,0,1,.14.16.6.6,0,0,1,.08.22l-.71.41V62a1,1,0,0,1-.35,0,1,1,0,0,1-.36,0V59.7L102,60a.5.5,0,0,1-.13-.16.59.59,0,0,1-.09-.22l.69-.39V56.84A1,1,0,0,1,102.82,56.79Z"/><path class="cls-2" d="M105.69,58.3c1,0,1.35.46,1.35,1.37V62a.57.57,0,0,1-.28,0,.73.73,0,0,1-.28,0l-.1-.45a1.16,1.16,0,0,1-1.11.57A1,1,0,0,1,104.18,61c0-.77.47-1.1,1.35-1.1a7.8,7.8,0,0,1,.8,0v-.26c0-.48-.18-.76-.72-.76a2.89,2.89,0,0,0-1,.18.55.55,0,0,1-.2-.51A3.07,3.07,0,0,1,105.69,58.3Zm-.07,2c-.47,0-.72.19-.72.63s.23.64.62.64c.55,0,.81-.48.81-1v-.24A6,6,0,0,0,105.62,60.34Z"/><path class="cls-2" d="M110.77,62a1,1,0,0,1-.36,0,.93.93,0,0,1-.35,0V59.49c0-.39-.2-.62-.65-.62a1,1,0,0,0-.8.45V62a1.06,1.06,0,0,1-.35,0,.87.87,0,0,1-.35,0V58.42a.87.87,0,0,1,.35-.05,1.06,1.06,0,0,1,.35.05v.33a1.36,1.36,0,0,1,1.06-.45,1,1,0,0,1,1.1,1.07Z"/><path class="cls-2" d="M112.37,57.66a1,1,0,0,1-.36.05,1,1,0,0,1-.37-.05V57a1,1,0,0,1,.37,0,1,1,0,0,1,.36,0Zm0,4.37a1,1,0,0,1-.35,0,.87.87,0,0,1-.35,0V58.42a.87.87,0,0,1,.35-.05,1,1,0,0,1,.35.05Z"/><path class="cls-2" d="M113.83,60.44c.06.84.4,1.11,1,1.11a1.79,1.79,0,0,0,.84-.2.75.75,0,0,1,.22.5,2.05,2.05,0,0,1-1.17.3c-1.09,0-1.59-.67-1.59-1.95s.62-1.9,1.56-1.9a1.28,1.28,0,0,1,1.4,1.42,2.88,2.88,0,0,1-.08.72Zm.84-1.58c-.46,0-.78.3-.84,1.08h1.51a2,2,0,0,0,0-.31C115.36,59.21,115.19,58.86,114.67,58.86Z"/><path class="cls-2" d="M61,67.22a1.12,1.12,0,0,1,1-.46c.81,0,1.33.49,1.33,1.92s-.52,1.93-1.33,1.93a1.12,1.12,0,0,1-1-.46v.34a1,1,0,0,1-.36.05,1,1,0,0,1-.35-.05V65.3a1,1,0,0,1,.35,0,1,1,0,0,1,.36,0Zm.77.12a.8.8,0,0,0-.77.89v.9a.81.81,0,0,0,.77.9c.56,0,.84-.3.84-1.35S62.36,67.34,61.8,67.34Z"/><path class="cls-2" d="M65.39,66.76c1,0,1.35.46,1.35,1.37v2.36a.57.57,0,0,1-.28.05.73.73,0,0,1-.28-.05l-.1-.45a1.16,1.16,0,0,1-1.11.57,1,1,0,0,1-1.09-1.18c0-.77.47-1.11,1.35-1.11a7.34,7.34,0,0,1,.8.05v-.26c0-.48-.18-.76-.72-.76a2.89,2.89,0,0,0-1,.18.84.84,0,0,1-.16-.21.66.66,0,0,1,0-.3A3.07,3.07,0,0,1,65.39,66.76Zm-.07,2c-.47,0-.72.19-.72.63s.23.64.62.64c.55,0,.81-.48.81-1v-.24A6,6,0,0,0,65.32,68.8Z"/><path class="cls-2" d="M69.17,66.77a1.08,1.08,0,0,1,.61.17.81.81,0,0,1-.31.6.68.68,0,0,0-.43-.15.91.91,0,0,0-.73.53v2.57a1,1,0,0,1-.35.05,1,1,0,0,1-.36-.05V66.88a1,1,0,0,1,.36,0,1,1,0,0,1,.35,0v.49A1,1,0,0,1,69.17,66.77Z"/><path class="cls-2" d="M71,66.12a1.13,1.13,0,0,1-.37,0,1,1,0,0,1-.36,0v-.66a1,1,0,0,1,.36,0,1.13,1.13,0,0,1,.37,0Zm0,4.37a1,1,0,0,1-.36.05.93.93,0,0,1-.35-.05V66.88a.93.93,0,0,1,.35,0,1,1,0,0,1,.36,0Z"/><path class="cls-2" d="M72.44,68.9c.06.84.4,1.11,1,1.11a1.67,1.67,0,0,0,.83-.21.76.76,0,0,1,.23.51,2.05,2.05,0,0,1-1.17.3c-1.09,0-1.6-.67-1.6-2s.63-1.9,1.57-1.9a1.28,1.28,0,0,1,1.4,1.42,2.88,2.88,0,0,1-.08.72Zm.84-1.58c-.46,0-.78.3-.84,1.08H74a2,2,0,0,0,0-.32C74,67.67,73.8,67.32,73.28,67.32Z"/><path class="cls-2" d="M76.93,66.77a1.08,1.08,0,0,1,.61.17.81.81,0,0,1-.31.6.68.68,0,0,0-.43-.15.91.91,0,0,0-.73.53v2.57a1,1,0,0,1-.35.05.87.87,0,0,1-.35-.05V66.88a.87.87,0,0,1,.35,0,1,1,0,0,1,.35,0v.49A1,1,0,0,1,76.93,66.77Z"/><path class="cls-2" d="M79.41,66.76c1,0,1.57.53,1.57,1.92s-.6,1.93-1.57,1.93-1.56-.53-1.56-1.93S78.45,66.76,79.41,66.76Zm0,.54c-.51,0-.84.3-.84,1.38s.33,1.39.84,1.39.84-.3.84-1.39S79.93,67.3,79.41,67.3Z"/><path class="cls-2" d="M84.22,68.58a4.91,4.91,0,0,1-.19-1h0a3.9,3.9,0,0,1-.2,1l-.55,1.91a1.64,1.64,0,0,1-.41.05,1.68,1.68,0,0,1-.4-.05l-1.07-3.61a1.06,1.06,0,0,1,.35,0,.6.6,0,0,1,.31,0l.67,2.25a4.14,4.14,0,0,1,.14.69h0a4.42,4.42,0,0,1,.15-.69l.65-2.25a1.5,1.5,0,0,1,.38,0,1,1,0,0,1,.35,0L85,69.11a3.7,3.7,0,0,1,.14.71h0a4.71,4.71,0,0,1,.17-.7L86,66.88a.88.88,0,0,1,.31,0,.7.7,0,0,1,.31,0l-1.07,3.61a1.62,1.62,0,0,1-.4.05,1.84,1.84,0,0,1-.41-.05Z"/><path class="cls-2" d="M87.76,68.9c0,.84.39,1.11,1,1.11a1.67,1.67,0,0,0,.83-.21.76.76,0,0,1,.23.51,2.09,2.09,0,0,1-1.17.3c-1.09,0-1.6-.67-1.6-2s.63-1.9,1.57-1.9A1.27,1.27,0,0,1,90,68.18a3.26,3.26,0,0,1-.07.72Zm.84-1.58c-.46,0-.79.3-.84,1.08h1.51c0-.05,0-.17,0-.32C89.29,67.67,89.12,67.32,88.6,67.32Z"/></svg>