<svg id="Warstwa_1" data-name="Warstwa 1" xmlns="http://www.w3.org/2000/svg" viewBox="0 0 400 104.97"><defs><style>.cls-1{fill:#fff;}.cls-2,.cls-4{fill:none;}.cls-2{stroke:#1f1c19;stroke-width:0.66px;}.cls-3{fill:#05171d;}.cls-4{stroke:#05171d;stroke-miterlimit:10;stroke-width:0.5px;}.cls-5{fill:#ccd615;}</style></defs><title>Elugel_logo</title><path class="cls-1" d="M332.38.47v-4H83.25C71.68,17.3,68.89,35.87,68.57,38.6c0,.41,0,.51,0,.51S61.48,85.74,98.13,98.58c56.75,19.88,124.66-14.38,137.94-20.43,47.1-23,81.76-62.09,96.31-77.68"/><path class="cls-2" d="M182.55,66.35a9.72,9.72,0,0,1-2.2-6.47V55.71a10.37,10.37,0,0,1,2.51-7,7.62,7.62,0,0,1,5.95-2.82h.05a10.86,10.86,0,0,1,3.46.56,8.17,8.17,0,0,1,3.1,1.9L193,51.78a5,5,0,0,0-2-1.38,6,6,0,0,0-2.17-.41,4,4,0,0,0-3.17,1.52,6.28,6.28,0,0,0-1.4,4.2v4.08a6.3,6.3,0,0,0,1.22,4.13,3.76,3.76,0,0,0,3.06,1.38,3.88,3.88,0,0,0,2.88-1.17,4.46,4.46,0,0,0,1.22-3.26V59.76h-4L188.07,56h8.45v4.29a9,9,0,0,1-2.06,6.18,7.88,7.88,0,0,1-6.29,2.58A7,7,0,0,1,182.55,66.35Z"/><polygon class="cls-3" points="128.57 68.73 128.57 37.01 146.34 37.01 146.34 42.63 134.2 42.63 134.2 50.06 145.04 50.06 145.04 55.43 134.2 55.43 134.2 63.12 145.92 63.12 146.64 68.73 128.57 68.73"/><polygon class="cls-3" points="154.94 68.73 149.38 68.73 149.38 37.64 154.94 36.8 154.94 68.73"/><path class="cls-3" d="M160.76,66.54a7.52,7.52,0,0,1-2-5.33V46h5.55V59.18a4.43,4.43,0,0,0,1.11,3A3.42,3.42,0,0,0,168,63.41a3.46,3.46,0,0,0,2.66-1.22,4.32,4.32,0,0,0,1.11-3V46h5.59V68.73h-5.29l-.3-3.29a6.45,6.45,0,0,1-6,3.29,6.66,6.66,0,0,1-5-2.19"/><path class="cls-3" d="M182.55,66.35a9.72,9.72,0,0,1-2.2-6.47V55.71a10.37,10.37,0,0,1,2.51-7,7.62,7.62,0,0,1,5.95-2.82h.05a10.86,10.86,0,0,1,3.46.56,8.17,8.17,0,0,1,3.1,1.9L193,51.78a5,5,0,0,0-2-1.38,6,6,0,0,0-2.17-.41,4,4,0,0,0-3.17,1.52,6.28,6.28,0,0,0-1.4,4.2v4.08a6.3,6.3,0,0,0,1.22,4.13,3.76,3.76,0,0,0,3.06,1.38,3.88,3.88,0,0,0,2.88-1.17,4.46,4.46,0,0,0,1.22-3.26V59.76h-4L188.07,56h8.45v4.29a9,9,0,0,1-2.06,6.18,7.89,7.89,0,0,1-6.29,2.59,7,7,0,0,1-5.62-2.71"/><path class="cls-4" d="M182.55,66.35a9.72,9.72,0,0,1-2.2-6.47V55.71a10.37,10.37,0,0,1,2.51-7,7.62,7.62,0,0,1,5.95-2.82h.05a10.86,10.86,0,0,1,3.46.56,8.17,8.17,0,0,1,3.1,1.9L193,51.78a5,5,0,0,0-2-1.38,6,6,0,0,0-2.17-.41,4,4,0,0,0-3.17,1.52,6.28,6.28,0,0,0-1.4,4.2v4.08a6.3,6.3,0,0,0,1.22,4.13,3.76,3.76,0,0,0,3.06,1.38,3.88,3.88,0,0,0,2.88-1.17,4.46,4.46,0,0,0,1.22-3.26V59.76h-4L188.07,56h8.45v4.29a9,9,0,0,1-2.06,6.18,7.89,7.89,0,0,1-6.29,2.59,7,7,0,0,1-5.62-2.71"/><path class="cls-3" d="M202.12,66.2a10.51,10.51,0,0,1-2.82-7.69V56.74a11.86,11.86,0,0,1,2.55-7.82,8.67,8.67,0,0,1,7.08-3.21,9.29,9.29,0,0,1,6.16,2,7,7,0,0,1,2.55,5.62,5.78,5.78,0,0,1-1.75,4.35,7.43,7.43,0,0,1-5.36,1.81h-5.67a4.31,4.31,0,0,0,1.33,3.26,4.46,4.46,0,0,0,2.7,1.1c.23,0,.46,0,.69,0a8.39,8.39,0,0,0,3.84-1,12.64,12.64,0,0,0,3.27-2.32l-.15,4.73c0,.51,0,.92,0,1.23a12.17,12.17,0,0,1-3.08,1.56,13.45,13.45,0,0,1-4.53.8,9,9,0,0,1-6.77-2.74m2.74-10.9h5c1.78,0,2.67-.77,2.67-2.32s-1-2.5-3.09-2.5a4.71,4.71,0,0,0-3.23,1.14,4,4,0,0,0-1.33,3.09Z"/><polygon class="cls-3" points="226.66 68.73 221.11 68.73 221.11 37.64 226.66 36.8 226.66 68.73"/><path class="cls-5" d="M70.44,36.37c1.11,12,11.46,77.82,167.52,39.05,0,0-75.76,41.64-137.94,20.42C63.27,83.3,70.44,36.37,70.44,36.37"/></svg>