<svg id="Warstwa_2" data-name="Warstwa 2" xmlns="http://www.w3.org/2000/svg" viewBox="0 0 120 150"><defs><style>.cls-1{fill:none;stroke:#ccd513;stroke-linecap:round;stroke-linejoin:round;stroke-width:1.85px;}.cls-2{fill:#0056a4;}</style></defs><title>graphic_page_07</title><polyline class="cls-1" points="93.3 48.55 112.25 76.48 93.63 104.58"/><path class="cls-2" d="M15.67,47.32a1.23,1.23,0,0,1,.08.39,1.25,1.25,0,0,1-.08.45H12.56v2.38h2.59a1.3,1.3,0,0,1,.09.41,1,1,0,0,1-.09.42H12.56v2.46h3.21a1.17,1.17,0,0,1,0,.85H11.51V47.32Z"/><path class="cls-2" d="M18.09,54.6a1.36,1.36,0,0,1-.51.08,1.27,1.27,0,0,1-.52-.08V47.08a1.43,1.43,0,0,1,.52-.07,1.54,1.54,0,0,1,.51.07Z"/><path class="cls-2" d="M19.57,49.37a1.46,1.46,0,0,1,.51-.07,1.4,1.4,0,0,1,.51.07v3.68c0,.57.3.9.95.9a1.39,1.39,0,0,0,1.16-.65V49.37a1.54,1.54,0,0,1,.51-.07,1.33,1.33,0,0,1,.51.07V54.6a1.19,1.19,0,0,1-.51.08,1.36,1.36,0,0,1-.51-.08v-.47a2,2,0,0,1-1.55.65,1.44,1.44,0,0,1-1.58-1.54Z"/><path class="cls-2" d="M29.58,49.2a1.22,1.22,0,0,1,0,.8l-.85,0A1.93,1.93,0,0,1,29,51a1.74,1.74,0,0,1-2,1.84,3.09,3.09,0,0,1-.45,0,.84.84,0,0,0-.19.59c.11.94,3.2-.06,3.2,2,0,1-1,1.75-2.63,1.75s-2.18-.6-2.18-1.42a1.71,1.71,0,0,1,.91-1.41.81.81,0,0,1-.22-.59,1.84,1.84,0,0,1,.49-1.14A1.65,1.65,0,0,1,25,51c0-1.15.69-1.84,2-1.84a2.47,2.47,0,0,1,1.13.23Zm-3.36,5.48a1.25,1.25,0,0,0-.47.93c0,.51.38.9,1.22.9,1.05,0,1.62-.38,1.62-.92C28.59,54.75,27.14,55,26.22,54.68ZM27,49.91c-.61,0-1,.36-1,1.13a1,1,0,0,0,1,1.11c.61,0,1-.35,1-1.11S27.62,49.91,27,49.91Z"/><path class="cls-2" d="M31.4,52.3c.09,1.22.58,1.61,1.43,1.61a2.44,2.44,0,0,0,1.2-.3,1,1,0,0,1,.33.74,3,3,0,0,1-1.7.43c-1.57,0-2.31-1-2.31-2.82s.91-2.76,2.27-2.76a1.84,1.84,0,0,1,2,2,4,4,0,0,1-.12,1ZM32.62,50c-.66,0-1.13.44-1.22,1.58h2.19a3.68,3.68,0,0,0,0-.46C33.62,50.52,33.38,50,32.62,50Z"/><path class="cls-2" d="M36.89,54.6a1.3,1.3,0,0,1-.51.08,1.19,1.19,0,0,1-.51-.08V47.08a1.33,1.33,0,0,1,.51-.07,1.46,1.46,0,0,1,.51.07Z"/><path class="cls-2" d="M43.21,49.2c1.16,0,1.92.7,1.92,2.79s-.76,2.79-1.92,2.79a1.62,1.62,0,0,1-1.47-.67V57a1.81,1.81,0,0,1-.52.06,1.69,1.69,0,0,1-.51-.06V49.37a1.46,1.46,0,0,1,.51-.07,1.57,1.57,0,0,1,.52.07v.49A1.62,1.62,0,0,1,43.21,49.2Zm-.36.84a1.15,1.15,0,0,0-1.11,1.28v1.31a1.17,1.17,0,0,0,1.11,1.31c.82,0,1.23-.43,1.23-1.95S43.67,50,42.85,50Z"/><path class="cls-2" d="M48.44,49.2c1.41,0,2.27.76,2.27,2.79s-.87,2.79-2.27,2.79S46.17,54,46.17,52,47,49.2,48.44,49.2Zm0,.78c-.74,0-1.23.43-1.23,2s.49,2,1.23,2,1.22-.43,1.22-2S49.19,50,48.44,50Z"/><path class="cls-2" d="M57.46,49.2A1.42,1.42,0,0,1,59,50.74V54.6a1.3,1.3,0,0,1-.51.08A1.19,1.19,0,0,1,58,54.6V50.92a.79.79,0,0,0-.89-.9,1.28,1.28,0,0,0-1.09.66V54.6a1.36,1.36,0,0,1-.51.08A1.24,1.24,0,0,1,55,54.6V50.92a.79.79,0,0,0-.89-.9,1.35,1.35,0,0,0-1.09.65V54.6a1.27,1.27,0,0,1-.5.08A1.19,1.19,0,0,1,52,54.6V49.37a1.33,1.33,0,0,1,.51-.07,1.43,1.43,0,0,1,.5.07v.46a1.91,1.91,0,0,1,1.47-.63,1.37,1.37,0,0,1,1.33.74A2.06,2.06,0,0,1,57.46,49.2Z"/><path class="cls-2" d="M62.3,49.2c1.48,0,2,.66,2,2V54.6a.71.71,0,0,1-.39.08.94.94,0,0,1-.41-.08L63.29,54a1.64,1.64,0,0,1-1.6.83,1.5,1.5,0,0,1-1.59-1.71c0-1.11.69-1.6,2-1.6a11,11,0,0,1,1.16.06v-.38c0-.7-.26-1.09-1-1.09a4.31,4.31,0,0,0-1.37.25.85.85,0,0,1-.24-.31.86.86,0,0,1-.06-.42A4.44,4.44,0,0,1,62.3,49.2Zm-.1,3c-.69,0-1,.27-1,.91s.33.92.89.92c.8,0,1.18-.68,1.18-1.41v-.36C63,52.2,62.59,52.16,62.2,52.16Z"/><path class="cls-2" d="M70.07,49.2a1.22,1.22,0,0,1,0,.8l-.85,0A1.85,1.85,0,0,1,69.51,51c0,1.14-.69,1.84-2,1.84a3.19,3.19,0,0,1-.45,0,.89.89,0,0,0-.19.59c.11.94,3.2-.06,3.2,2,0,1-1,1.75-2.63,1.75s-2.18-.6-2.18-1.42a1.73,1.73,0,0,1,.91-1.41.81.81,0,0,1-.22-.59,1.84,1.84,0,0,1,.49-1.14A1.66,1.66,0,0,1,65.5,51c0-1.15.69-1.84,2-1.84a2.54,2.54,0,0,1,1.14.23Zm-3.35,5.48a1.21,1.21,0,0,0-.47.93c0,.51.37.9,1.21.9,1.06,0,1.63-.38,1.63-.92C69.09,54.75,67.64,55,66.72,54.68Zm.78-4.77c-.61,0-1,.36-1,1.13a1,1,0,1,0,2.06,0C68.53,50.27,68.12,49.91,67.5,49.91Z"/><path class="cls-2" d="M73,49.2c1.48,0,2,.66,2,2V54.6a.71.71,0,0,1-.39.08.94.94,0,0,1-.41-.08L73.94,54a1.64,1.64,0,0,1-1.6.83,1.5,1.5,0,0,1-1.59-1.71c0-1.11.69-1.6,2-1.6a11,11,0,0,1,1.16.06v-.38c0-.7-.26-1.09-1-1.09a4.31,4.31,0,0,0-1.37.25.85.85,0,0,1-.24-.31.86.86,0,0,1-.06-.42A4.44,4.44,0,0,1,73,49.2Zm-.1,3c-.69,0-1,.27-1,.91s.33.92.89.92c.8,0,1.18-.68,1.18-1.41v-.36C73.65,52.2,73.24,52.16,72.85,52.16Z"/><path class="cls-2" d="M13.62,61.47a1.54,1.54,0,0,1,.89.26,1.15,1.15,0,0,1-.45.86,1,1,0,0,0-.63-.22,1.34,1.34,0,0,0-1.06.78v3.72a1.46,1.46,0,0,1-.51.07,1.33,1.33,0,0,1-.51-.07V61.64a1.19,1.19,0,0,1,.51-.08,1.3,1.3,0,0,1,.51.08v.7A1.5,1.5,0,0,1,13.62,61.47Z"/><path class="cls-2" d="M16,64.57c.08,1.22.57,1.61,1.42,1.61a2.46,2.46,0,0,0,1.21-.3,1.06,1.06,0,0,1,.33.73,3,3,0,0,1-1.7.43c-1.58,0-2.31-1-2.31-2.82s.91-2.76,2.27-2.76a1.85,1.85,0,0,1,2,2.06,4.45,4.45,0,0,1-.11,1Zm1.22-2.3c-.67,0-1.14.44-1.22,1.57h2.19a3.52,3.52,0,0,0,0-.46C18.25,62.78,18,62.27,17.25,62.27Z"/><path class="cls-2" d="M24.16,59.27a1.21,1.21,0,0,1,.5.08v7.52a1.23,1.23,0,0,1-.43.07,1.54,1.54,0,0,1-.46-.07l-.07-.55a1.69,1.69,0,0,1-1.54.72c-1.16,0-1.92-.7-1.92-2.79s.76-2.79,1.92-2.79a1.67,1.67,0,0,1,1.48.67V59.35A1.33,1.33,0,0,1,24.16,59.27Zm-1.64,3c-.82,0-1.22.43-1.22,2s.4,2,1.22,2a1.18,1.18,0,0,0,1.12-1.31V63.58A1.17,1.17,0,0,0,22.52,62.3Z"/><path class="cls-2" d="M26.11,61.64a1.3,1.3,0,0,1,.51-.08,1.24,1.24,0,0,1,.51.08v3.68c0,.57.3.9.95.9a1.4,1.4,0,0,0,1.16-.66V61.64a1.36,1.36,0,0,1,.51-.08,1.19,1.19,0,0,1,.51.08v5.23a1.33,1.33,0,0,1-.51.07,1.54,1.54,0,0,1-.51-.07V66.4a2,2,0,0,1-1.55.64,1.44,1.44,0,0,1-1.58-1.54Z"/><path class="cls-2" d="M34.75,61.64a1.52,1.52,0,0,1,.52-.08,1.83,1.83,0,0,1,.5.07l-1.58,2.44L36,66.87a1.82,1.82,0,0,1-.57.08,1.61,1.61,0,0,1-.55-.08l-1.53-2.35h-.58v2.35a1.66,1.66,0,0,1-.5.07,1.72,1.72,0,0,1-.52-.07V59.33a2.08,2.08,0,0,1,.52-.06,2.11,2.11,0,0,1,.5.06v4.42h.59Z"/><path class="cls-2" d="M38.73,61.46c1.41,0,2.27.77,2.27,2.79S40.13,67,38.73,67s-2.27-.76-2.27-2.79S37.33,61.46,38.73,61.46Zm0,.79c-.74,0-1.22.43-1.22,2s.48,2,1.22,2,1.22-.43,1.22-2S39.48,62.25,38.73,62.25Z"/><path class="cls-2" d="M45.84,64.1a6.9,6.9,0,0,1-.28-1.47h0a6.28,6.28,0,0,1-.29,1.47l-.8,2.77a2.08,2.08,0,0,1-.59.07,2.17,2.17,0,0,1-.59-.07l-1.54-5.23a1.36,1.36,0,0,1,.51-.08.77.77,0,0,1,.44.08l1,3.26a6.42,6.42,0,0,1,.21,1h0a8.88,8.88,0,0,1,.23-1L45,61.64a1.92,1.92,0,0,1,.55-.08,1.21,1.21,0,0,1,.5.08L47,64.88a5.89,5.89,0,0,1,.21,1h0a9.4,9.4,0,0,1,.25-1l1-3.25a1.14,1.14,0,0,1,.45-.08.86.86,0,0,1,.44.08L47.8,66.87a2.2,2.2,0,0,1-.58.07,2.35,2.35,0,0,1-.6-.07Z"/><path class="cls-2" d="M52.13,61.46c1.48,0,1.95.67,1.95,2v3.42a.79.79,0,0,1-.39.07,1,1,0,0,1-.41-.07l-.16-.65a1.63,1.63,0,0,1-1.6.82,1.5,1.5,0,0,1-1.59-1.7c0-1.12.69-1.61,2-1.61a11,11,0,0,1,1.16.06v-.37c0-.7-.26-1.1-1.05-1.1a4.16,4.16,0,0,0-1.37.26,1,1,0,0,1-.24-.31.9.9,0,0,1-.06-.43A4.44,4.44,0,0,1,52.13,61.46Zm-.1,3c-.69,0-1,.26-1,.91s.33.92.89.92c.8,0,1.18-.69,1.18-1.41v-.36C52.83,64.47,52.42,64.43,52,64.43Z"/><path class="cls-2" d="M56.35,64.25c0,1.34.43,1.93,1.41,1.93a2.5,2.5,0,0,0,1-.18,1,1,0,0,1,.3.74,2.82,2.82,0,0,1-1.47.3c-1.49,0-2.25-1-2.25-2.79s.76-2.79,2.25-2.79a2.65,2.65,0,0,1,1.37.26,1,1,0,0,1-.3.73,2.55,2.55,0,0,0-.9-.15C56.74,62.3,56.35,62.92,56.35,64.25Zm.85-3.48a.88.88,0,0,1-.58-.32l1-1.44a1,1,0,0,1,.89.38Z"/><path class="cls-2" d="M14.85,78.37a1.16,1.16,0,0,1,.06.42,1.38,1.38,0,0,1-.06.42h-3.8a2,2,0,0,1-.06-.44,1.35,1.35,0,0,1,.06-.4l2.72-3.7H11.23a1.5,1.5,0,0,1-.06-.43,1.13,1.13,0,0,1,.06-.41h3.62a1.05,1.05,0,0,1,.06.4,1.42,1.42,0,0,1-.06.44l-2.71,3.7Z"/><path class="cls-2" d="M21.61,73.73a1.43,1.43,0,0,1,1.53,1.54v3.87a1.54,1.54,0,0,1-.51.07,1.43,1.43,0,0,1-.52-.07V75.46c0-.58-.26-.9-.88-.9a1.3,1.3,0,0,0-1.1.65v3.93a1.43,1.43,0,0,1-.5.07,1.33,1.33,0,0,1-.51-.07V75.46a.79.79,0,0,0-.89-.9,1.33,1.33,0,0,0-1.09.64v3.94a1.54,1.54,0,0,1-.51.07,1.4,1.4,0,0,1-.51-.07V73.9a1.4,1.4,0,0,1,.51-.07,1.54,1.54,0,0,1,.51.07v.46a1.9,1.9,0,0,1,1.47-.63,1.37,1.37,0,0,1,1.33.74A2.06,2.06,0,0,1,21.61,73.73Z"/><path class="cls-2" d="M25.66,72.8a1.6,1.6,0,0,1-.53.07,1.46,1.46,0,0,1-.53-.07v-1a1.3,1.3,0,0,1,.53-.08,1.42,1.42,0,0,1,.53.08Zm0,6.34a1.46,1.46,0,0,1-.51.07,1.33,1.33,0,0,1-.51-.07V73.9a1.33,1.33,0,0,1,.51-.07,1.46,1.46,0,0,1,.51.07Z"/><path class="cls-2" d="M29,73.73c1.49,0,2,.66,2,2v3.43a.86.86,0,0,1-.4.07,1,1,0,0,1-.41-.07L30,78.48a1.63,1.63,0,0,1-1.6.83,1.5,1.5,0,0,1-1.59-1.71c0-1.11.69-1.6,2-1.6a11,11,0,0,1,1.16.06v-.38c0-.7-.26-1.09-1.05-1.09a4.31,4.31,0,0,0-1.37.25.79.79,0,0,1-.23-.3.85.85,0,0,1-.07-.43A4.44,4.44,0,0,1,29,73.73Zm-.1,3c-.68,0-1,.27-1,.91s.34.92.89.92c.8,0,1.18-.68,1.18-1.41v-.36C29.71,76.73,29.3,76.69,28.91,76.69Z"/><path class="cls-2" d="M36.57,79.14a1.54,1.54,0,0,1-.51.07,1.5,1.5,0,0,1-.52-.07V75.46c0-.58-.29-.9-.95-.9a1.38,1.38,0,0,0-1.15.65v3.93a1.61,1.61,0,0,1-.51.07,1.33,1.33,0,0,1-.51-.07V73.9a1.33,1.33,0,0,1,.51-.07,1.61,1.61,0,0,1,.51.07v.47A2,2,0,0,1,35,73.73a1.45,1.45,0,0,1,1.59,1.54Z"/><path class="cls-2" d="M40.4,80c-.37,1.13-.73,1.77-1.83,1.77a1.47,1.47,0,0,1-.56-.1,1.18,1.18,0,0,1-.07-.38,1,1,0,0,1,.08-.41,2.91,2.91,0,0,0,.46,0c.46,0,.69-.12,1-1.08l.21-.62a1,1,0,0,1-.32-.07L37.42,73.9a1.79,1.79,0,0,1,.54-.07,1.67,1.67,0,0,1,.53.07L39.65,77a8.76,8.76,0,0,1,.36,1.2h0A11.77,11.77,0,0,1,40.38,77l1-3.12a1.37,1.37,0,0,1,.5-.07,1.44,1.44,0,0,1,.48.07Z"/><path class="cls-2" d="M48.87,76.37a7.33,7.33,0,0,1-.27-1.48h-.05a6.75,6.75,0,0,1-.28,1.48l-.81,2.77a2,2,0,0,1-.58.07,2.12,2.12,0,0,1-.59-.07L44.74,73.9a1.61,1.61,0,0,1,.51-.07.82.82,0,0,1,.44.07l1,3.26a5.84,5.84,0,0,1,.22,1h0a8.8,8.8,0,0,1,.22-1l.94-3.26a2.31,2.31,0,0,1,.56-.07,1.43,1.43,0,0,1,.5.07L50,77.14a5.81,5.81,0,0,1,.2,1h0a8.35,8.35,0,0,1,.26-1l1-3.25a1.22,1.22,0,0,1,.45-.07,1,1,0,0,1,.44.07l-1.55,5.24a2.1,2.1,0,0,1-.58.07,2.27,2.27,0,0,1-.59-.07Z"/><path class="cls-2" d="M57.52,73.73c1.41,0,2.27.76,2.27,2.79s-.87,2.79-2.27,2.79-2.27-.77-2.27-2.79S56.12,73.73,57.52,73.73Zm0,.78c-.75,0-1.23.43-1.23,2s.48,2,1.23,2,1.21-.43,1.21-2S58.26,74.51,57.52,74.51Z"/><path class="cls-2" d="M62.07,74.39a1.62,1.62,0,0,1,1.47-.66c1.16,0,1.92.7,1.92,2.79s-.76,2.79-1.92,2.79a1.62,1.62,0,0,1-1.47-.67v.5a1.6,1.6,0,0,1-.53.07,1.43,1.43,0,0,1-.5-.07V71.61a1.43,1.43,0,0,1,.5-.07,1.6,1.6,0,0,1,.53.07Zm1.11.18a1.15,1.15,0,0,0-1.11,1.28v1.31a1.16,1.16,0,0,0,1.11,1.31c.82,0,1.23-.43,1.23-2S64,74.57,63.18,74.57Z"/><path class="cls-2" d="M69,73.74a1.67,1.67,0,0,1,.89.25,1.2,1.2,0,0,1-.45.86,1.07,1.07,0,0,0-.64-.21,1.3,1.3,0,0,0-1,.77v3.73a1.54,1.54,0,0,1-.51.07,1.33,1.33,0,0,1-.51-.07V73.9a1.33,1.33,0,0,1,.51-.07,1.54,1.54,0,0,1,.51.07v.71A1.48,1.48,0,0,1,69,73.74Z"/><path class="cls-2" d="M72.62,73.73a1.84,1.84,0,0,1,2,2,4.35,4.35,0,0,1-.11,1H71.41c.08,1.22.57,1.61,1.42,1.61a2.44,2.44,0,0,0,1.2-.3,1,1,0,0,1,.33.74,2.28,2.28,0,0,1-.74.32,1.14,1.14,0,0,0-1,1c0,.35.24.38.54.38a.66.66,0,0,0,.32-.08.49.49,0,0,1,.17.43,1.48,1.48,0,0,1-.7.19c-.57,0-1-.22-1-.83a1.2,1.2,0,0,1,.52-1c-1.46-.07-2.16-1-2.16-2.82S71.26,73.73,72.62,73.73Zm0,.81c-.66,0-1.13.43-1.21,1.57H73.6a3.68,3.68,0,0,0,0-.46C73.63,75.05,73.38,74.54,72.62,74.54Z"/><path class="cls-2" d="M76.87,74.39a1.62,1.62,0,0,1,1.47-.66c1.16,0,1.92.7,1.92,2.79s-.76,2.79-1.92,2.79a1.62,1.62,0,0,1-1.47-.67v.5a1.6,1.6,0,0,1-.53.07,1.43,1.43,0,0,1-.5-.07V71.61a1.43,1.43,0,0,1,.5-.07,1.6,1.6,0,0,1,.53.07Zm1.11.18a1.15,1.15,0,0,0-1.11,1.28v1.31A1.16,1.16,0,0,0,78,78.47c.82,0,1.23-.43,1.23-2S78.8,74.57,78,74.57Z"/><path class="cls-2" d="M82.59,72.8a1.67,1.67,0,0,1-.53.07,1.46,1.46,0,0,1-.53-.07v-1a1.3,1.3,0,0,1,.53-.08,1.48,1.48,0,0,1,.53.08Zm0,6.34a1.54,1.54,0,0,1-.51.07,1.33,1.33,0,0,1-.51-.07V73.9a1.33,1.33,0,0,1,.51-.07,1.54,1.54,0,0,1,.51.07Z"/><path class="cls-2" d="M84.9,76.83c.08,1.22.57,1.61,1.42,1.61a2.46,2.46,0,0,0,1.21-.3,1.08,1.08,0,0,1,.32.74,3,3,0,0,1-1.69.43c-1.58,0-2.31-1-2.31-2.82s.91-2.76,2.27-2.76a1.84,1.84,0,0,1,2,2,4.35,4.35,0,0,1-.11,1Zm1.22-2.29c-.67,0-1.14.43-1.22,1.57h2.19a3.68,3.68,0,0,0,0-.46C87.12,75.05,86.87,74.54,86.12,74.54Z"/><path class="cls-2" d="M12.37,86.66A1.65,1.65,0,0,1,13.85,86c1.16,0,1.92.71,1.92,2.79s-.76,2.79-1.92,2.79a1.65,1.65,0,0,1-1.48-.66v.49a1.5,1.5,0,0,1-.52.07,1.37,1.37,0,0,1-.5-.07V83.88a1.21,1.21,0,0,1,.5-.08,1.33,1.33,0,0,1,.52.08Zm1.12.17a1.16,1.16,0,0,0-1.12,1.29v1.31a1.18,1.18,0,0,0,1.12,1.31c.82,0,1.22-.43,1.22-2S14.31,86.83,13.49,86.83Z"/><path class="cls-2" d="M18,83.8a1.36,1.36,0,0,1,.51.08v2.81l.71-.41a1,1,0,0,1,.21.23.92.92,0,0,1,.11.32l-1,.6v4a1.54,1.54,0,0,1-.51.07,1.43,1.43,0,0,1-.52-.07V88l-.68.39a.88.88,0,0,1-.19-.24.69.69,0,0,1-.13-.32l1-.57V83.88A1.27,1.27,0,0,1,18,83.8Z"/><path class="cls-2" d="M22.57,86c1.41,0,2.27.77,2.27,2.79s-.87,2.79-2.27,2.79-2.27-.76-2.27-2.79S21.17,86,22.57,86Zm0,.79c-.74,0-1.22.43-1.22,2s.48,2,1.22,2,1.22-.43,1.22-2S23.32,86.78,22.57,86.78Z"/><path class="cls-2" d="M30.25,91.4a1.46,1.46,0,0,1-.51.07,1.4,1.4,0,0,1-.51-.07V87.72c0-.57-.3-.9-.95-.9a1.43,1.43,0,0,0-1.16.65V91.4a1.54,1.54,0,0,1-.51.07,1.33,1.33,0,0,1-.51-.07V86.17a1.19,1.19,0,0,1,.51-.08,1.36,1.36,0,0,1,.51.08v.47A2,2,0,0,1,28.67,86a1.45,1.45,0,0,1,1.58,1.55Z"/><path class="cls-2" d="M34.08,92.26c-.37,1.12-.72,1.77-1.83,1.77a1.53,1.53,0,0,1-.56-.1,1.26,1.26,0,0,1-.07-.38,1,1,0,0,1,.08-.41,3.08,3.08,0,0,0,.46,0c.46,0,.7-.12,1-1.08l.22-.63a1,1,0,0,1-.33-.07l-1.94-5.23a1.48,1.48,0,0,1,.53-.08,1.42,1.42,0,0,1,.53.08l1.17,3.1a10.08,10.08,0,0,1,.35,1.2h0s.11-.48.33-1.19l1-3.11a1.27,1.27,0,0,1,.5-.08,1.37,1.37,0,0,1,.49.08Z"/><path class="cls-2" d="M40.81,86a2.87,2.87,0,0,1,1.44.28A1,1,0,0,1,42,87a3.85,3.85,0,0,0-1.07-.16c-.7,0-1,.26-1,.74s.57.61,1.19.79,1.45.52,1.45,1.58-.64,1.63-1.94,1.63a3.75,3.75,0,0,1-1.71-.36,1.06,1.06,0,0,1,.28-.76,4.26,4.26,0,0,0,1.38.26c.62,0,1-.24,1-.74s-.57-.7-1.18-.87-1.44-.49-1.44-1.5S39.51,86,40.81,86Zm-.35-.69a.86.86,0,0,1-.58-.32l1-1.44a1,1,0,0,1,.89.38Z"/><path class="cls-2" d="M44.73,91.4a1.46,1.46,0,0,1-.51.07,1.33,1.33,0,0,1-.51-.07V83.88a1.19,1.19,0,0,1,.51-.08,1.3,1.3,0,0,1,.51.08Z"/><path class="cls-2" d="M46.21,86.17a1.36,1.36,0,0,1,.51-.08,1.33,1.33,0,0,1,.52.08v3.68c0,.57.29.9.95.9a1.38,1.38,0,0,0,1.15-.66V86.17a1.43,1.43,0,0,1,.51-.08,1.19,1.19,0,0,1,.51.08V91.4a1.33,1.33,0,0,1-.51.07,1.61,1.61,0,0,1-.51-.07v-.47a2,2,0,0,1-1.54.64A1.45,1.45,0,0,1,46.21,90Z"/><path class="cls-2" d="M55.35,90.63a1.23,1.23,0,0,1,.06.42,1.3,1.3,0,0,1-.06.42H51.56A1.8,1.8,0,0,1,51.5,91a1.47,1.47,0,0,1,.06-.4l2.72-3.7H51.73a1.41,1.41,0,0,1-.06-.43,1.2,1.2,0,0,1,.06-.41h3.62a1.12,1.12,0,0,1,.06.4,1.37,1.37,0,0,1-.06.44l-2.71,3.7Z"/><path class="cls-2" d="M58.59,86c1.41,0,2.27.77,2.27,2.79s-.87,2.79-2.27,2.79-2.27-.76-2.27-2.79S57.19,86,58.59,86Zm0,.79c-.75,0-1.23.43-1.23,2s.48,2,1.23,2,1.22-.43,1.22-2S59.34,86.78,58.59,86.78Z"/><path class="cls-2" d="M65.69,88.63a7.38,7.38,0,0,1-.27-1.47h0a6.37,6.37,0,0,1-.29,1.47l-.81,2.77a2,2,0,0,1-.58.07,2.17,2.17,0,0,1-.59-.07l-1.55-5.23a1.46,1.46,0,0,1,.52-.08.77.77,0,0,1,.44.08l1,3.26a6.42,6.42,0,0,1,.21,1h0a7.08,7.08,0,0,1,.23-1l.94-3.26a1.92,1.92,0,0,1,.55-.08,1.21,1.21,0,0,1,.5.08l.91,3.24a5.64,5.64,0,0,1,.2,1h0a9.4,9.4,0,0,1,.25-1l1-3.25a1.14,1.14,0,0,1,.45-.08.86.86,0,0,1,.44.08L67.66,91.4a2.22,2.22,0,0,1-.59.07,2.32,2.32,0,0,1-.59-.07Z"/><path class="cls-2" d="M71,89.1c.08,1.22.57,1.61,1.42,1.61a2.44,2.44,0,0,0,1.2-.3,1,1,0,0,1,.33.73,3,3,0,0,1-1.69.43c-1.58,0-2.32-1-2.32-2.82S70.81,86,72.17,86a1.85,1.85,0,0,1,2,2.06,4.45,4.45,0,0,1-.11,1Zm1.21-2.3c-.66,0-1.13.44-1.21,1.57h2.19a3.52,3.52,0,0,0,0-.46C73.18,87.31,72.93,86.8,72.17,86.8Z"/><path class="cls-2" d="M75.41,86.17a1.24,1.24,0,0,1,.51-.08,1.39,1.39,0,0,1,.52.08v6.2c0,1.09-.53,1.66-1.49,1.66a2.19,2.19,0,0,1-.68-.09,1,1,0,0,1,0-.24,1.05,1.05,0,0,1,.1-.52,1.73,1.73,0,0,0,.38,0c.46,0,.69-.25.69-.81Zm1-1.12a1.71,1.71,0,0,1-.54.07,1.53,1.53,0,0,1-.53-.07v-1a1.53,1.53,0,0,1,.53-.07,1.71,1.71,0,0,1,.54.07Z"/><path class="cls-2" d="M11.37,98.43a1.33,1.33,0,0,1,.51-.07,1.46,1.46,0,0,1,.51.07v6.21c0,1.08-.52,1.65-1.48,1.65a2.19,2.19,0,0,1-.68-.09.92.92,0,0,1,0-.24,1.1,1.1,0,0,1,.1-.52,1.73,1.73,0,0,0,.38,0c.46,0,.69-.24.69-.8Zm1-1.11a1.6,1.6,0,0,1-.53.07,1.46,1.46,0,0,1-.53-.07v-1a1.3,1.3,0,0,1,.53-.08,1.42,1.42,0,0,1,.53.08Z"/><path class="cls-2" d="M15.77,98.26c1.48,0,1.95.66,1.95,2v3.43a.81.81,0,0,1-.4.07,1,1,0,0,1-.41-.07l-.15-.66a1.66,1.66,0,0,1-1.61.83,1.49,1.49,0,0,1-1.58-1.71c0-1.11.68-1.6,2-1.6a11.37,11.37,0,0,1,1.17.06v-.38c0-.7-.27-1.09-1.06-1.09a4.39,4.39,0,0,0-1.37.25.78.78,0,0,1-.23-.31.89.89,0,0,1-.06-.43A4.48,4.48,0,0,1,15.77,98.26Zm-.11,3c-.68,0-1,.27-1,.91s.34.92.89.92c.81,0,1.19-.68,1.19-1.41v-.36C16.46,101.26,16.05,101.22,15.66,101.22Z"/><path class="cls-2" d="M24.66,98.26a1.42,1.42,0,0,1,1.52,1.54v3.87a1.46,1.46,0,0,1-.51.07,1.33,1.33,0,0,1-.51-.07V100a.79.79,0,0,0-.89-.9,1.28,1.28,0,0,0-1.09.66v3.93a1.5,1.5,0,0,1-.5.07,1.33,1.33,0,0,1-.51-.07V100a.79.79,0,0,0-.89-.9,1.37,1.37,0,0,0-1.1.65v3.94a1.43,1.43,0,0,1-.5.07,1.33,1.33,0,0,1-.51-.07V98.43a1.33,1.33,0,0,1,.51-.07,1.43,1.43,0,0,1,.5.07v.46a1.91,1.91,0,0,1,1.47-.63A1.35,1.35,0,0,1,23,99,2.06,2.06,0,0,1,24.66,98.26Z"/><path class="cls-2" d="M30,104.52c-.36,1.13-.72,1.77-1.83,1.77a1.53,1.53,0,0,1-.56-.1,1.18,1.18,0,0,1-.07-.38,1,1,0,0,1,.08-.41,3.08,3.08,0,0,0,.46,0c.46,0,.7-.12,1-1.08l.22-.62a1,1,0,0,1-.33-.07L27,98.43a1.67,1.67,0,0,1,.53-.07,1.6,1.6,0,0,1,.53.07l1.17,3.11a11.26,11.26,0,0,1,.36,1.19h0s.1-.48.32-1.18l1-3.12a1.37,1.37,0,0,1,.5-.07,1.52,1.52,0,0,1,.48.07Z"/><path class="cls-2" d="M35,98.43a1.54,1.54,0,0,1,.51-.07,1.4,1.4,0,0,1,.51.07v3.68c0,.57.3.9.95.9a1.39,1.39,0,0,0,1.16-.65V98.43a1.54,1.54,0,0,1,.51-.07,1.33,1.33,0,0,1,.51.07v5.24a1.33,1.33,0,0,1-.51.07,1.54,1.54,0,0,1-.51-.07v-.48a2,2,0,0,1-1.54.65A1.45,1.45,0,0,1,35,102.29Z"/><path class="cls-2" d="M42.34,98.26a3,3,0,0,1,1.44.27,1.07,1.07,0,0,1-.26.73,3.76,3.76,0,0,0-1.08-.17c-.69,0-1,.26-1,.74s.64.63,1.29.84,1.36.53,1.36,1.53-.65,1.64-1.94,1.64a3.62,3.62,0,0,1-1.71-.37,1.07,1.07,0,0,1,.27-.76,4.34,4.34,0,0,0,1.38.26c.63,0,1-.24,1-.74s-.57-.68-1.17-.85-1.45-.51-1.45-1.52S41,98.26,42.34,98.26Z"/><path class="cls-2" d="M46.58,101.8c0,.93.3,1.21,1,1.21a2.78,2.78,0,0,0,.43,0,1.05,1.05,0,0,1,.08.41,1,1,0,0,1-.06.37,3,3,0,0,1-.73.09c-1.26,0-1.76-.69-1.76-2V99.13h-.79a1.12,1.12,0,0,1-.06-.38,1,1,0,0,1,.06-.39h.79v-.93a1.69,1.69,0,0,1,1-.21v1.14h1.33a1,1,0,0,1,.06.38,1.22,1.22,0,0,1-.06.39H46.58Z"/><path class="cls-2" d="M53.24,103.67a1.57,1.57,0,0,1-.52.07,1.46,1.46,0,0,1-.51-.07V100c0-.57-.29-.9-1-.9a1.39,1.39,0,0,0-1.15.66v3.93a1.61,1.61,0,0,1-.51.07,1.43,1.43,0,0,1-.52-.07V98.43a1.43,1.43,0,0,1,.52-.07,1.61,1.61,0,0,1,.51.07v.47a2,2,0,0,1,1.54-.64,1.45,1.45,0,0,1,1.59,1.54Z"/><path class="cls-2" d="M55.51,101.36c.09,1.22.58,1.61,1.43,1.61a2.44,2.44,0,0,0,1.2-.3,1,1,0,0,1,.33.74,3,3,0,0,1-1.7.43c-1.57,0-2.31-1-2.31-2.82s.91-2.76,2.27-2.76a1.84,1.84,0,0,1,2,2,4,4,0,0,1-.12,1Zm1.22-2.3c-.66,0-1.13.44-1.22,1.58H57.7a3.68,3.68,0,0,0,0-.46C57.73,99.58,57.49,99.06,56.73,99.06Z"/><path class="cls-2" d="M60,98.43a1.33,1.33,0,0,1,.51-.07,1.46,1.46,0,0,1,.51.07v6.21c0,1.08-.52,1.65-1.48,1.65a2.19,2.19,0,0,1-.68-.09.71.71,0,0,1,0-.24,1,1,0,0,1,.11-.52,1.73,1.73,0,0,0,.38,0c.46,0,.69-.24.69-.8Zm1-1.11a1.6,1.6,0,0,1-.53.07,1.46,1.46,0,0,1-.53-.07v-1a1.3,1.3,0,0,1,.53-.08,1.42,1.42,0,0,1,.53.08Z"/></svg>