<svg id="Warstwa_1" data-name="Warstwa 1" xmlns="http://www.w3.org/2000/svg" viewBox="0 0 825 500"><defs><style>.cls-1{fill:#ccd615;}</style></defs><title>stosowanie_antybiotykow</title><path class="cls-1" d="M160.66,151.15a27.16,27.16,0,0,1,8.64,1.24,5.18,5.18,0,0,1-1.23,3.52,24.47,24.47,0,0,0-6.79-1c-4.67,0-6.92,1.81-6.92,5,0,3.39,3.79,4.19,7.89,5.51s8.24,3.31,8.24,9.08-3.83,9.21-11.06,9.21a23,23,0,0,1-9.52-1.85,6.47,6.47,0,0,1,1.05-3.57,30.31,30.31,0,0,0,8.25,1.37c4.54,0,6.7-1.72,6.7-5,0-3.13-2.51-4.23-5.56-5.2-4.58-1.54-10.44-2.64-10.44-9.3C149.91,154.77,153.48,151.15,160.66,151.15Z"/><path class="cls-1" d="M180.72,175c0,4,1.28,5.2,4.41,5.2A12.52,12.52,0,0,0,187,180a5.06,5.06,0,0,1,.31,1.76,4.89,4.89,0,0,1-.22,1.59,12.83,12.83,0,0,1-3.18.39c-5.42,0-7.58-3-7.58-8.55V163.45h-3.4a4.58,4.58,0,0,1-.26-1.63,4.37,4.37,0,0,1,.26-1.67h3.4v-4a7.58,7.58,0,0,1,4.41-.88v4.9h5.73a4.26,4.26,0,0,1,.26,1.63,5,5,0,0,1-.26,1.67h-5.73Z"/><path class="cls-1" d="M199.36,159.7c6.09,0,9.79,3.31,9.79,12s-3.75,12-9.79,12-9.78-3.3-9.78-12S193.32,159.7,199.36,159.7Zm0,3.4c-3.22,0-5.29,1.85-5.29,8.64s2.07,8.64,5.29,8.64,5.25-1.85,5.25-8.64S202.58,163.1,199.36,163.1Z"/><path class="cls-1" d="M220.92,159.7c4.32,0,6.21,1.19,6.21,1.19A4.51,4.51,0,0,1,226,164a16.5,16.5,0,0,0-4.63-.7c-3,0-4.5,1.1-4.5,3.17s2.78,2.69,5.56,3.62,5.86,2.29,5.86,6.61-2.78,7.05-8.38,7.05a15.76,15.76,0,0,1-7.36-1.58,4.53,4.53,0,0,1,1.19-3.27,18.72,18.72,0,0,0,6,1.11c2.69,0,4.23-1,4.23-3.18,0-2.42-2.42-2.95-5-3.7-3-.88-6.26-2.16-6.26-6.52C212.63,162.48,215.32,159.7,220.92,159.7Z"/><path class="cls-1" d="M241.15,159.7c6.08,0,9.78,3.31,9.78,12s-3.74,12-9.78,12-9.79-3.3-9.79-12S235.11,159.7,241.15,159.7Zm0,3.4c-3.22,0-5.29,1.85-5.29,8.64s2.07,8.64,5.29,8.64,5.24-1.85,5.24-8.64S244.37,163.1,241.15,163.1Z"/><path class="cls-1" d="M271.12,171.08a30.63,30.63,0,0,1-1.19-6.35h-.18a27.83,27.83,0,0,1-1.23,6.35L265,183a8.6,8.6,0,0,1-2.52.31A9.24,9.24,0,0,1,260,183l-6.66-22.57a6.79,6.79,0,0,1,2.21-.3,3.57,3.57,0,0,1,1.89.3l4.19,14.07a27.41,27.41,0,0,1,.92,4.32h.14a33.81,33.81,0,0,1,1-4.32l4.05-14.07a9.71,9.71,0,0,1,2.38-.3,6,6,0,0,1,2.16.3l3.93,14a24.57,24.57,0,0,1,.88,4.41h.13a41.19,41.19,0,0,1,1.1-4.37l4.15-14a5.35,5.35,0,0,1,1.94-.3,4.21,4.21,0,0,1,1.89.3L279.58,183a9.09,9.09,0,0,1-2.51.31,9.76,9.76,0,0,1-2.56-.31Z"/><path class="cls-1" d="M297.65,159.7c6.4,0,8.42,2.87,8.42,8.56V183a3.43,3.43,0,0,1-1.72.31,4.48,4.48,0,0,1-1.76-.31l-.66-2.82c-1.15,2.34-3.57,3.57-6.92,3.57-4.14,0-6.83-2.42-6.83-7.36s2.95-6.92,8.46-6.92a45.24,45.24,0,0,1,5,.27v-1.64c0-3-1.15-4.71-4.55-4.71a18.37,18.37,0,0,0-5.9,1.1,3.5,3.5,0,0,1-1-1.32,3.87,3.87,0,0,1-.26-1.85A19.07,19.07,0,0,1,297.65,159.7Zm-.44,12.79c-2.95,0-4.49,1.14-4.49,3.92s1.45,4,3.83,4c3.48,0,5.12-2.95,5.12-6.08v-1.55C300.65,172.66,298.89,172.49,297.21,172.49Z"/><path class="cls-1" d="M329.3,183a6.28,6.28,0,0,1-2.2.31,6,6,0,0,1-2.21-.31V167.15c0-2.46-1.27-3.87-4.1-3.87a6,6,0,0,0-5,2.82V183a6.56,6.56,0,0,1-2.2.31,5.7,5.7,0,0,1-2.2-.31V160.45a5.87,5.87,0,0,1,2.2-.3,6.76,6.76,0,0,1,2.2.3v2a8.54,8.54,0,0,1,6.66-2.78c4.41,0,6.83,2.69,6.83,6.66Z"/><path class="cls-1" d="M339.26,155.69A6.85,6.85,0,0,1,337,156a6.23,6.23,0,0,1-2.29-.31v-4.14a6.23,6.23,0,0,1,2.29-.31,6.85,6.85,0,0,1,2.29.31ZM339.17,183a6.28,6.28,0,0,1-2.2.31,5.7,5.7,0,0,1-2.2-.31V160.45a5.87,5.87,0,0,1,2.2-.3,6.47,6.47,0,0,1,2.2.3Z"/><path class="cls-1" d="M348.3,173.11c.35,5.24,2.47,6.92,6.13,6.92a10.66,10.66,0,0,0,5.2-1.28,4.56,4.56,0,0,1,1.41,3.17s-2.51,1.85-7.32,1.85c-6.79,0-10-4.18-10-12.16,0-8.33,3.92-11.91,9.78-11.91,5.43,0,8.73,3,8.73,8.87a19.05,19.05,0,0,1-.48,4.54Zm5.24-9.92c-2.86,0-4.89,1.89-5.24,6.79h9.43a14.56,14.56,0,0,0,.13-2C357.86,165.39,356.81,163.19,353.54,163.19Z"/><path class="cls-1" d="M383.52,159.7c6.39,0,8.42,2.87,8.42,8.56V183a3.48,3.48,0,0,1-1.72.31,4.5,4.5,0,0,1-1.77-.31l-.66-2.82c-1.14,2.34-3.57,3.57-6.92,3.57-4.14,0-6.83-2.42-6.83-7.36s2.95-6.92,8.46-6.92a45.1,45.1,0,0,1,5,.27v-1.64c0-3-1.15-4.71-4.54-4.71a18.39,18.39,0,0,0-5.91,1.1,3.53,3.53,0,0,1-1-1.32,3.81,3.81,0,0,1-.27-1.85A19.09,19.09,0,0,1,383.52,159.7Zm-.45,12.79c-2.95,0-4.49,1.14-4.49,3.92s1.45,4,3.83,4c3.49,0,5.12-2.95,5.12-6.08v-1.55C386.51,172.66,384.75,172.49,383.07,172.49Z"/><path class="cls-1" d="M415.16,183a6.21,6.21,0,0,1-2.2.31,6,6,0,0,1-2.2-.31V167.15c0-2.46-1.28-3.87-4.1-3.87a6,6,0,0,0-5,2.82V183a6.67,6.67,0,0,1-2.21.31,5.7,5.7,0,0,1-2.2-.31V160.45a5.87,5.87,0,0,1,2.2-.3,6.87,6.87,0,0,1,2.21.3v2a8.51,8.51,0,0,1,6.65-2.78c4.41,0,6.83,2.69,6.83,6.66Z"/><path class="cls-1" d="M426.45,175c0,4,1.27,5.2,4.4,5.2a12.56,12.56,0,0,0,1.86-.17,5.21,5.21,0,0,1,.3,1.76,4.89,4.89,0,0,1-.22,1.59,12.68,12.68,0,0,1-3.17.39c-5.42,0-7.58-3-7.58-8.55V163.45h-3.4a4.58,4.58,0,0,1-.26-1.63,4.37,4.37,0,0,1,.26-1.67H422v-4a7.56,7.56,0,0,1,4.41-.88v4.9h5.73a4.26,4.26,0,0,1,.26,1.63,5,5,0,0,1-.26,1.67h-5.73Z"/><path class="cls-1" d="M446.81,186.73c-1.59,4.85-3.13,7.62-7.89,7.62a6.31,6.31,0,0,1-2.42-.44,5.07,5.07,0,0,1-.31-1.63,4.23,4.23,0,0,1,.35-1.76,13.06,13.06,0,0,0,2,.17c2,0,3-.52,4.32-4.67l.93-2.69a4.18,4.18,0,0,1-1.41-.31L434,160.45a7.44,7.44,0,0,1,2.29-.3,7.16,7.16,0,0,1,2.3.3l5,13.41a43.44,43.44,0,0,1,1.55,5.15h.17s.44-2.07,1.41-5.11l4.37-13.45a6,6,0,0,1,2.16-.3,6.36,6.36,0,0,1,2.07.3Z"/><path class="cls-1" d="M463,162.57c1.23-1.81,3.21-2.87,6.34-2.87,5,0,8.29,3.05,8.29,12s-3.26,12-8.29,12c-3.13,0-5.11-1.05-6.34-2.86V183a6.44,6.44,0,0,1-2.25.31,5.83,5.83,0,0,1-2.16-.31V150.58a5.83,5.83,0,0,1,2.16-.31,6.44,6.44,0,0,1,2.25.31Zm4.8.75c-3.08,0-4.8,2.56-4.8,5.55v5.65c0,3,1.72,5.64,4.8,5.64,3.53,0,5.29-1.85,5.29-8.42S471.32,163.32,467.79,163.32Z"/><path class="cls-1" d="M486.74,155.69a6.85,6.85,0,0,1-2.29.31,6.23,6.23,0,0,1-2.29-.31v-4.14a6.23,6.23,0,0,1,2.29-.31,6.85,6.85,0,0,1,2.29.31ZM486.66,183a6.31,6.31,0,0,1-2.21.31,5.7,5.7,0,0,1-2.2-.31V160.45a5.87,5.87,0,0,1,2.2-.3,6.5,6.5,0,0,1,2.21.3Z"/><path class="cls-1" d="M501,159.7c6.08,0,9.78,3.31,9.78,12s-3.75,12-9.78,12-9.79-3.3-9.79-12S495,159.7,501,159.7Zm0,3.4c-3.22,0-5.29,1.85-5.29,8.64s2.07,8.64,5.29,8.64,5.24-1.85,5.24-8.64S504.24,163.1,501,163.1Z"/><path class="cls-1" d="M521.21,175c0,4,1.28,5.2,4.41,5.2a12.52,12.52,0,0,0,1.85-.17,5.06,5.06,0,0,1,.31,1.76,4.89,4.89,0,0,1-.22,1.59,12.68,12.68,0,0,1-3.17.39c-5.43,0-7.59-3-7.59-8.55V163.45h-3.39a4.43,4.43,0,0,1-.27-1.63,4.23,4.23,0,0,1,.27-1.67h3.39v-4a7.58,7.58,0,0,1,4.41-.88v4.9h5.73a4.12,4.12,0,0,1,.27,1.63,4.81,4.81,0,0,1-.27,1.67h-5.73Z"/><path class="cls-1" d="M541.58,186.73c-1.59,4.85-3.13,7.62-7.9,7.62a6.37,6.37,0,0,1-2.42-.44,5.07,5.07,0,0,1-.31-1.63,4.23,4.23,0,0,1,.35-1.76,13.11,13.11,0,0,0,2,.17c2,0,3-.52,4.32-4.67l.92-2.69a4.23,4.23,0,0,1-1.41-.31l-8.37-22.57a7.36,7.36,0,0,1,2.29-.3,7.06,7.06,0,0,1,2.29.3l5,13.41A42,42,0,0,1,539.9,179h.18s.44-2.07,1.41-5.11l4.36-13.45a6.07,6.07,0,0,1,2.16-.3,6.36,6.36,0,0,1,2.07.3Z"/><path class="cls-1" d="M566.26,160.45a7.63,7.63,0,0,1,2.25-.3,8.87,8.87,0,0,1,2.16.26L563.88,171l7.8,12.07a7.75,7.75,0,0,1-2.47.36,6.84,6.84,0,0,1-2.38-.36l-6.61-10.13h-2.47V183a8,8,0,0,1-4.41,0V150.49a10.2,10.2,0,0,1,2.25-.22,10.88,10.88,0,0,1,2.16.22v19.09h2.51Z"/><path class="cls-1" d="M583.27,159.7c6.09,0,9.79,3.31,9.79,12s-3.75,12-9.79,12-9.78-3.3-9.78-12S577.23,159.7,583.27,159.7Zm0,3.4c-3.22,0-5.29,1.85-5.29,8.64s2.07,8.64,5.29,8.64,5.25-1.85,5.25-8.64S586.49,163.1,583.27,163.1Zm.27-14a4.42,4.42,0,0,1,3.83,1.64l-5.51,6a3.75,3.75,0,0,1-2.51-1.37Z"/><path class="cls-1" d="M613.25,171.08a30,30,0,0,1-1.19-6.35h-.18a28,28,0,0,1-1.24,6.35L607.16,183a8.48,8.48,0,0,1-2.51.31,9.26,9.26,0,0,1-2.56-.31l-6.65-22.57a6.76,6.76,0,0,1,2.2-.3,3.6,3.6,0,0,1,1.9.3l4.18,14.07a26.57,26.57,0,0,1,.93,4.32h.13a37.74,37.74,0,0,1,1-4.32l4.06-14.07a9.71,9.71,0,0,1,2.38-.3,6.07,6.07,0,0,1,2.16.3l3.92,14a24.57,24.57,0,0,1,.88,4.41h.14a38.81,38.81,0,0,1,1.1-4.37l4.14-14a5.41,5.41,0,0,1,1.94-.3,4.24,4.24,0,0,1,1.9.3L621.71,183a9.14,9.14,0,0,1-2.51.31,9.71,9.71,0,0,1-2.56-.31Z"/><path class="cls-1" d="M150.79,213.35A5.7,5.7,0,0,1,153,213a6.31,6.31,0,0,1,2.21.31v26.76c0,4.67-2.25,7.14-6.4,7.14a9.42,9.42,0,0,1-3-.4,4,4,0,0,1-.13-1,4.52,4.52,0,0,1,.44-2.25,7.76,7.76,0,0,0,1.63.17c2,0,3-1,3-3.48Zm4.5-4.81a7,7,0,0,1-2.3.31,6.3,6.3,0,0,1-2.29-.31V204.4a6.3,6.3,0,0,1,2.29-.31,7,7,0,0,1,2.3.31Z"/><path class="cls-1" d="M164.32,226c.35,5.24,2.47,6.92,6.13,6.92a10.66,10.66,0,0,0,5.2-1.28,4.56,4.56,0,0,1,1.41,3.18s-2.51,1.85-7.32,1.85c-6.79,0-10-4.19-10-12.17,0-8.33,3.92-11.9,9.79-11.9,5.42,0,8.72,3,8.72,8.86a19,19,0,0,1-.48,4.54Zm5.25-9.92c-2.87,0-4.9,1.9-5.25,6.79h9.43a13.93,13.93,0,0,0,.14-2C173.89,218.28,172.83,216.08,169.57,216.08Z"/><path class="cls-1" d="M189.8,212.6c4.32,0,6.21,1.19,6.21,1.19a4.5,4.5,0,0,1-1.14,3.13,16.29,16.29,0,0,0-4.63-.71c-3,0-4.5,1.1-4.5,3.18s2.78,2.69,5.56,3.61,5.86,2.29,5.86,6.61-2.78,7.06-8.38,7.06a15.73,15.73,0,0,1-7.36-1.59,4.51,4.51,0,0,1,1.19-3.26,18.86,18.86,0,0,0,5.95,1.1c2.69,0,4.24-1,4.24-3.17,0-2.43-2.43-3-5-3.71-3-.88-6.26-2.16-6.26-6.52C181.51,215.37,184.2,212.6,189.8,212.6Z"/><path class="cls-1" d="M207.16,227.89c0,4,1.28,5.21,4.41,5.21a11.85,11.85,0,0,0,1.85-.18,5.06,5.06,0,0,1,.31,1.76,4.82,4.82,0,0,1-.22,1.59,12.64,12.64,0,0,1-3.17.4c-5.42,0-7.58-3-7.58-8.56V216.34h-3.4a4.51,4.51,0,0,1-.26-1.63,4.37,4.37,0,0,1,.26-1.67h3.4v-4a7.38,7.38,0,0,1,4.4-.88V213h5.73a4.12,4.12,0,0,1,.27,1.63,4.81,4.81,0,0,1-.27,1.67h-5.73Z"/><path class="cls-1" d="M241.72,224a30.63,30.63,0,0,1-1.19-6.35h-.18a27.73,27.73,0,0,1-1.23,6.35l-3.48,11.95a8.6,8.6,0,0,1-2.52.31,9.24,9.24,0,0,1-2.55-.31l-6.66-22.57a6.67,6.67,0,0,1,2.21-.31,3.48,3.48,0,0,1,1.89.31l4.19,14.06a27.64,27.64,0,0,1,.92,4.32h.14a33.81,33.81,0,0,1,1-4.32l4.05-14.06a9.42,9.42,0,0,1,2.38-.31,5.83,5.83,0,0,1,2.16.31l3.93,14a24.74,24.74,0,0,1,.88,4.41h.13a43.19,43.19,0,0,1,1.1-4.36l4.15-14A5.2,5.2,0,0,1,255,213a4.09,4.09,0,0,1,1.89.31l-6.65,22.57a9.21,9.21,0,0,1-2.52.31,9.63,9.63,0,0,1-2.55-.31Z"/><path class="cls-1" d="M263.76,224.63c0,5.78,1.85,8.29,6.08,8.29a11.35,11.35,0,0,0,4.15-.75,4.66,4.66,0,0,1,1.27,3.17s-1.94,1.33-6.34,1.33c-6.44,0-9.7-4.19-9.7-12s3.26-12,9.7-12c4.23,0,5.9,1.1,5.9,1.1a4.47,4.47,0,0,1-1.28,3.17,10.7,10.7,0,0,0-3.87-.66C265.43,216.21,263.76,218.9,263.76,224.63Z"/><path class="cls-1" d="M283.59,208.59a7.06,7.06,0,0,1-2.29.3,6.42,6.42,0,0,1-2.29-.3v-4.15a6.23,6.23,0,0,1,2.29-.31,6.85,6.85,0,0,1,2.29.31Zm-.09,27.33a6.28,6.28,0,0,1-2.2.31,5.7,5.7,0,0,1-2.2-.31V213.35a5.7,5.7,0,0,1,2.2-.31,6.28,6.28,0,0,1,2.2.31Z"/><path class="cls-1" d="M297.12,212.6c6.4,0,8.42,2.86,8.42,8.55V236c-2.77.79-4.36,2.51-4.36,4.28,0,1.1.62,1.94,2.29,1.94a4.33,4.33,0,0,0,1.55-.31,2.76,2.76,0,0,1,.7,2,6.39,6.39,0,0,1-3,.8c-2.91,0-4.67-1.5-4.67-3.8,0-1.85,1.37-3.87,4-5.06l-.66-2.69c-1.15,2.33-3.57,3.57-6.92,3.57-4.14,0-6.83-2.47-6.83-7.36,0-4.72,3-6.93,8.46-6.93a47.83,47.83,0,0,1,5,.27v-1.72c0-3.17-1.11-4.63-4.54-4.63a18.39,18.39,0,0,0-5.91,1.1,3.39,3.39,0,0,1-1-1.32,3.87,3.87,0,0,1-.26-1.85A19.17,19.17,0,0,1,297.12,212.6Zm-.44,12.78c-2.95,0-4.49,1.19-4.49,3.93s1.45,4,3.83,4c3.49,0,5.12-3,5.12-6.13v-1.49C300.12,225.56,298.36,225.38,296.68,225.38Z"/><path class="cls-1" d="M326,232.61a4.93,4.93,0,0,1,.27,1.81,5.56,5.56,0,0,1-.27,1.81H309.6a8,8,0,0,1-.27-1.9,5.9,5.9,0,0,1,.27-1.72l11.72-16h-11a6,6,0,0,1-.27-1.85,4.79,4.79,0,0,1,.27-1.76H326a4.45,4.45,0,0,1,.27,1.72,5.81,5.81,0,0,1-.27,1.89l-11.68,16Zm-5.42-23.94a6.85,6.85,0,0,1-2.12.27,6.15,6.15,0,0,1-2.11-.27v-3.79a6.36,6.36,0,0,1,2.11-.26,7.09,7.09,0,0,1,2.12.26Z"/><path class="cls-1" d="M350.28,212.6c5,0,8.29,3,8.29,12s-3.26,12-8.29,12c-3.13,0-5.11-1.06-6.35-2.87v12.34a7.27,7.27,0,0,1-2.24.27,6.61,6.61,0,0,1-2.16-.27V213.35a5.83,5.83,0,0,1,2.16-.31,6.41,6.41,0,0,1,2.24.31v2.11C345.17,213.66,347.15,212.6,350.28,212.6Zm-1.54,3.61c-3.09,0-4.81,2.56-4.81,5.56v5.64c0,3,1.72,5.64,4.81,5.64,3.53,0,5.29-1.85,5.29-8.42S352.27,216.21,348.74,216.21Z"/><path class="cls-1" d="M371.92,212.6c6.09,0,9.79,3.3,9.79,12s-3.75,12-9.79,12-9.78-3.31-9.78-12S365.88,212.6,371.92,212.6Zm0,3.39c-3.21,0-5.29,1.85-5.29,8.64s2.08,8.64,5.29,8.64,5.25-1.85,5.25-8.64S375.14,216,371.92,216Z"/><path class="cls-1" d="M401.9,224a30,30,0,0,1-1.19-6.35h-.18A28.3,28.3,0,0,1,399.3,224l-3.49,11.95a8.48,8.48,0,0,1-2.51.31,9.26,9.26,0,0,1-2.56-.31l-6.65-22.57a6.56,6.56,0,0,1,2.2-.31,3.5,3.5,0,0,1,1.9.31l4.18,14.06a26.79,26.79,0,0,1,.93,4.32h.13a37.74,37.74,0,0,1,1-4.32l4.06-14.06a9.42,9.42,0,0,1,2.38-.31,5.89,5.89,0,0,1,2.16.31l3.92,14a23.85,23.85,0,0,1,.88,4.41h.14a38.25,38.25,0,0,1,1.1-4.36l4.14-14a5.26,5.26,0,0,1,1.94-.31,4.12,4.12,0,0,1,1.9.31l-6.66,22.57a9.14,9.14,0,0,1-2.51.31,9.71,9.71,0,0,1-2.56-.31Z"/><path class="cls-1" d="M427.68,212.6c4.32,0,6.22,1.19,6.22,1.19a4.5,4.5,0,0,1-1.15,3.13,16.29,16.29,0,0,0-4.63-.71c-3,0-4.5,1.1-4.5,3.18s2.78,2.69,5.56,3.61,5.86,2.29,5.86,6.61-2.78,7.06-8.37,7.06a15.75,15.75,0,0,1-7.37-1.59,4.47,4.47,0,0,1,1.2-3.26,18.78,18.78,0,0,0,5.95,1.1c2.68,0,4.23-1,4.23-3.17,0-2.43-2.43-3-5-3.71-3-.88-6.26-2.16-6.26-6.52C419.39,215.37,422.08,212.6,427.68,212.6Z"/><path class="cls-1" d="M454.22,232.61a5.1,5.1,0,0,1,.26,1.81,5.75,5.75,0,0,1-.26,1.81H437.86a8,8,0,0,1-.26-1.9,5.94,5.94,0,0,1,.26-1.72l11.73-16h-11a6.19,6.19,0,0,1-.26-1.85,5,5,0,0,1,.26-1.76h15.61a4.68,4.68,0,0,1,.26,1.72,6.12,6.12,0,0,1-.26,1.89l-11.69,16Z"/><path class="cls-1" d="M462.32,226c.36,5.24,2.47,6.92,6.13,6.92a10.66,10.66,0,0,0,5.2-1.28,4.52,4.52,0,0,1,1.41,3.18s-2.51,1.85-7.31,1.85c-6.79,0-10-4.19-10-12.17,0-8.33,3.93-11.9,9.79-11.9,5.42,0,8.73,3,8.73,8.86a18.58,18.58,0,0,1-.49,4.54Zm5.25-9.92c-2.86,0-4.89,1.9-5.25,6.79h9.44a16.23,16.23,0,0,0,.13-2C471.89,218.28,470.83,216.08,467.57,216.08Z"/><path class="cls-1" d="M484.05,224.63c0,5.78,1.86,8.29,6.09,8.29a11.33,11.33,0,0,0,4.14-.75,4.62,4.62,0,0,1,1.28,3.17s-1.94,1.33-6.35,1.33c-6.43,0-9.7-4.19-9.7-12s3.27-12,9.7-12c4.23,0,5.91,1.1,5.91,1.1a4.51,4.51,0,0,1-1.28,3.17,10.72,10.72,0,0,0-3.88-.66C485.73,216.21,484.05,218.9,484.05,224.63Z"/><path class="cls-1" d="M517.2,235.92a6.28,6.28,0,0,1-2.2.31,6,6,0,0,1-2.21-.31V220.05c0-2.47-1.28-3.88-4.1-3.88a6,6,0,0,0-5,2.82v16.93a6.56,6.56,0,0,1-2.2.31,5.79,5.79,0,0,1-2.21-.31V203.47a5.79,5.79,0,0,1,2.21-.31,6.56,6.56,0,0,1,2.2.31v11.9a8.57,8.57,0,0,1,6.66-2.77c4.41,0,6.83,2.69,6.83,6.65Z"/><path class="cls-1" d="M540.47,235.92a6.28,6.28,0,0,1-2.2.31,6,6,0,0,1-2.2-.31V220.05c0-2.47-1.28-3.88-4.1-3.88a6,6,0,0,0-5,2.82v16.93a6.67,6.67,0,0,1-2.21.31,5.7,5.7,0,0,1-2.2-.31V213.35a5.7,5.7,0,0,1,2.2-.31,6.67,6.67,0,0,1,2.21.31v2a8.53,8.53,0,0,1,6.65-2.77c4.41,0,6.83,2.69,6.83,6.65Z"/><path class="cls-1" d="M549.38,226c.35,5.24,2.46,6.92,6.12,6.92a10.73,10.73,0,0,0,5.21-1.28,4.61,4.61,0,0,1,1.41,3.18s-2.52,1.85-7.32,1.85c-6.79,0-10-4.19-10-12.17,0-8.33,3.92-11.9,9.78-11.9,5.42,0,8.73,3,8.73,8.86a19,19,0,0,1-.48,4.54Zm5.24-9.92c-2.86,0-4.89,1.9-5.24,6.79h9.43a16.23,16.23,0,0,0,.13-2C558.94,218.28,557.88,216.08,554.62,216.08Z"/><path class="cls-1" d="M567.05,240.63a7.73,7.73,0,0,0,1.63-4.4,3.42,3.42,0,0,1-1.45-.31v-4.15a8.89,8.89,0,0,1,4.58,0v2.78a9.37,9.37,0,0,1-3.17,7.19Z"/><path class="cls-1" d="M174.37,265.49c4.19,0,6.57,2.69,6.57,6.66v16.66a6.28,6.28,0,0,1-2.2.31,5.73,5.73,0,0,1-2.21-.31V272.94c0-2.47-1.14-3.88-3.83-3.88a5.58,5.58,0,0,0-4.72,2.82v16.93a6.16,6.16,0,0,1-2.16.31,5.7,5.7,0,0,1-2.2-.31V272.94c0-2.47-1.15-3.88-3.84-3.88a5.84,5.84,0,0,0-4.72,2.78v17a6.09,6.09,0,0,1-2.16.31,5.7,5.7,0,0,1-2.2-.31V266.24a5.7,5.7,0,0,1,2.2-.31,6.09,6.09,0,0,1,2.16.31v2a8.29,8.29,0,0,1,6.35-2.73,5.9,5.9,0,0,1,5.73,3.22A8.9,8.9,0,0,1,174.37,265.49Z"/><path class="cls-1" d="M190.9,261.48a6.85,6.85,0,0,1-2.29.31,6.33,6.33,0,0,1-2.3-.31v-4.15a6.52,6.52,0,0,1,2.3-.3,7.06,7.06,0,0,1,2.29.3Zm-.09,27.33a6.28,6.28,0,0,1-2.2.31,5.73,5.73,0,0,1-2.21-.31V266.24a5.73,5.73,0,0,1,2.21-.31,6.28,6.28,0,0,1,2.2.31Z"/><path class="cls-1" d="M220.08,265.49c4.19,0,6.57,2.69,6.57,6.66v16.66a6.31,6.31,0,0,1-2.21.31,5.7,5.7,0,0,1-2.2-.31V272.94c0-2.47-1.15-3.88-3.83-3.88a5.57,5.57,0,0,0-4.72,2.82v16.93a6.16,6.16,0,0,1-2.16.31,5.79,5.79,0,0,1-2.21-.31V272.94c0-2.47-1.14-3.88-3.83-3.88a5.84,5.84,0,0,0-4.72,2.78v17a6.16,6.16,0,0,1-2.16.31,5.7,5.7,0,0,1-2.2-.31V266.24a5.7,5.7,0,0,1,2.2-.31,6.16,6.16,0,0,1,2.16.31v2a8.27,8.27,0,0,1,6.35-2.73,5.9,5.9,0,0,1,5.73,3.22A8.9,8.9,0,0,1,220.08,265.49Z"/><path class="cls-1" d="M240.79,265.49c6.09,0,9.79,3.31,9.79,12s-3.75,12-9.79,12-9.78-3.31-9.78-12S234.76,265.49,240.79,265.49Zm0,3.39c-3.21,0-5.28,1.86-5.28,8.64s2.07,8.64,5.28,8.64,5.25-1.85,5.25-8.64S244,268.88,240.79,268.88Z"/><path class="cls-1" d="M272.84,265.49c6.08,0,9.78,3.31,9.78,12s-3.74,12-9.78,12-9.79-3.31-9.79-12S266.8,265.49,272.84,265.49Zm0,3.39c-3.22,0-5.29,1.86-5.29,8.64s2.07,8.64,5.29,8.64,5.24-1.85,5.24-8.64S276.06,268.88,272.84,268.88Z"/><path class="cls-1" d="M305.94,265.49a5.2,5.2,0,0,1,0,3.48l-3.66-.17a8,8,0,0,1,1.24,4.63c0,4.93-3,7.93-8.64,7.93a12.69,12.69,0,0,1-1.94-.13,3.83,3.83,0,0,0-.84,2.55c.48,4.06,13.8-.26,13.8,8.82,0,4.32-4.19,7.54-11.33,7.54-6.61,0-9.39-2.6-9.39-6.13,0-3.35,2.73-5.38,3.92-6.08a3.46,3.46,0,0,1-1-2.56,7.89,7.89,0,0,1,2.12-4.89c-2.65-1.24-4-3.7-4-7.05,0-4.94,3-7.94,8.64-7.94a10.62,10.62,0,0,1,4.89,1Zm-14.46,23.63a5.34,5.34,0,0,0-2,4c0,2.2,1.64,3.88,5.25,3.88,4.54,0,7-1.63,7-4C301.71,289.43,295.45,290.35,291.48,289.12Zm3.4-20.54c-2.65,0-4.46,1.54-4.46,4.85s1.81,4.8,4.46,4.8,4.41-1.5,4.41-4.8S297.52,268.58,294.88,268.58Z"/><path class="cls-1" d="M319.38,265.53a6.93,6.93,0,0,1,3.84,1.11,5,5,0,0,1-1.94,3.7,4.44,4.44,0,0,0-2.73-.93c-1.72,0-3.4,1.33-4.54,3.35v16.05a6.31,6.31,0,0,1-2.21.31,5.7,5.7,0,0,1-2.2-.31V266.24a5.7,5.7,0,0,1,2.2-.31,6.31,6.31,0,0,1,2.21.31v3C315.68,266.5,317.62,265.53,319.38,265.53Z"/><path class="cls-1" d="M334.06,265.49c6.39,0,8.42,2.87,8.42,8.55v14.77a3.43,3.43,0,0,1-1.72.31,4.48,4.48,0,0,1-1.76-.31l-.66-2.82c-1.15,2.34-3.57,3.57-6.92,3.57-4.15,0-6.84-2.43-6.84-7.36s3-6.92,8.47-6.92a47.89,47.89,0,0,1,5,.26v-1.63c0-3-1.14-4.72-4.54-4.72a18.32,18.32,0,0,0-5.91,1.11,3.63,3.63,0,0,1-1-1.33,3.72,3.72,0,0,1-.26-1.85A19.11,19.11,0,0,1,334.06,265.49Zm-.44,12.78c-2.95,0-4.5,1.15-4.5,3.93s1.46,4,3.84,4c3.48,0,5.11-3,5.11-6.08v-1.54C337.06,278.45,335.3,278.27,333.62,278.27Z"/><path class="cls-1" d="M365.71,288.81a6.28,6.28,0,0,1-2.2.31,6,6,0,0,1-2.21-.31V272.94c0-2.47-1.28-3.88-4.1-3.88a6,6,0,0,0-5,2.82v16.93a6.56,6.56,0,0,1-2.2.31,5.73,5.73,0,0,1-2.21-.31V266.24a5.73,5.73,0,0,1,2.21-.31,6.56,6.56,0,0,1,2.2.31v2a8.54,8.54,0,0,1,6.66-2.78c4.41,0,6.83,2.69,6.83,6.66Z"/><path class="cls-1" d="M375.67,261.48a6.85,6.85,0,0,1-2.29.31,6.33,6.33,0,0,1-2.3-.31v-4.15a6.52,6.52,0,0,1,2.3-.3,7.06,7.06,0,0,1,2.29.3Zm-.09,27.33a6.28,6.28,0,0,1-2.2.31,5.73,5.73,0,0,1-2.21-.31V266.24a5.73,5.73,0,0,1,2.21-.31,6.28,6.28,0,0,1,2.2.31Z"/><path class="cls-1" d="M384.71,277.52c0,5.78,1.85,8.29,6.08,8.29a11.33,11.33,0,0,0,4.14-.75,4.62,4.62,0,0,1,1.28,3.18s-1.94,1.32-6.35,1.32c-6.43,0-9.7-4.19-9.7-12s3.27-12,9.7-12c4.23,0,5.91,1.1,5.91,1.1a4.49,4.49,0,0,1-1.28,3.18,10.58,10.58,0,0,0-3.88-.67C386.38,269.1,384.71,271.79,384.71,277.52Z"/><path class="cls-1" d="M415,285.5a4.93,4.93,0,0,1,.27,1.81,5.56,5.56,0,0,1-.27,1.81H398.68a7.49,7.49,0,0,1-.27-1.9,5.63,5.63,0,0,1,.27-1.72l11.72-15.95h-11a6,6,0,0,1-.27-1.86,4.79,4.79,0,0,1,.27-1.76H415a4.49,4.49,0,0,1,.27,1.72,5.88,5.88,0,0,1-.27,1.9L403.35,285.5Z"/><path class="cls-1" d="M427.64,265.49c6.39,0,8.42,2.87,8.42,8.55v14.77a3.48,3.48,0,0,1-1.72.31,4.5,4.5,0,0,1-1.77-.31l-.66-2.82c-1.14,2.34-3.57,3.57-6.92,3.57-4.14,0-6.83-2.43-6.83-7.36s2.95-6.92,8.46-6.92a48.11,48.11,0,0,1,5,.26v-1.63c0-3-1.15-4.72-4.54-4.72a18.24,18.24,0,0,0-5.91,1.11,3.63,3.63,0,0,1-1-1.33,3.79,3.79,0,0,1-.27-1.85A19.19,19.19,0,0,1,427.64,265.49Zm-.44,12.78c-3,0-4.5,1.15-4.5,3.93s1.45,4,3.83,4c3.49,0,5.12-3,5.12-6.08v-1.54C430.63,278.45,428.87,278.27,427.2,278.27Z"/><path class="cls-1" d="M459.29,288.81a6.31,6.31,0,0,1-2.21.31,6,6,0,0,1-2.2-.31V272.94c0-2.47-1.28-3.88-4.1-3.88a6,6,0,0,0-5,2.82v16.93a6.67,6.67,0,0,1-2.21.31,5.7,5.7,0,0,1-2.2-.31V266.24a5.7,5.7,0,0,1,2.2-.31,6.67,6.67,0,0,1,2.21.31v2a8.51,8.51,0,0,1,6.65-2.78c4.41,0,6.84,2.69,6.84,6.66Z"/><path class="cls-1" d="M469.25,261.48a7,7,0,0,1-2.3.31,6.3,6.3,0,0,1-2.29-.31v-4.15A6.49,6.49,0,0,1,467,257a7.16,7.16,0,0,1,2.3.3Zm-.09,27.33a6.31,6.31,0,0,1-2.21.31,5.7,5.7,0,0,1-2.2-.31V266.24a5.7,5.7,0,0,1,2.2-.31,6.31,6.31,0,0,1,2.21.31Z"/><path class="cls-1" d="M482.78,265.49c6.39,0,8.42,2.87,8.42,8.55v14.77a3.48,3.48,0,0,1-1.72.31,4.57,4.57,0,0,1-1.77-.31l-.66-2.82c-1.14,2.34-3.57,3.57-6.92,3.57-4.14,0-6.83-2.43-6.83-7.36s2.95-6.92,8.46-6.92a48.11,48.11,0,0,1,5,.26v-1.63c0-3-1.15-4.72-4.54-4.72a18.24,18.24,0,0,0-5.91,1.11,3.63,3.63,0,0,1-1-1.33,3.79,3.79,0,0,1-.27-1.85A19.19,19.19,0,0,1,482.78,265.49Zm-.44,12.78c-3,0-4.5,1.15-4.5,3.93s1.45,4,3.83,4c3.49,0,5.12-3,5.12-6.08v-1.54C485.77,278.45,484,278.27,482.34,278.27Z"/><path class="cls-1" d="M521.21,276.86a31.27,31.27,0,0,1-1.19-6.34h-.17a28.52,28.52,0,0,1-1.24,6.34l-3.48,11.95a8.53,8.53,0,0,1-2.51.31,9.26,9.26,0,0,1-2.56-.31l-6.66-22.57a6.67,6.67,0,0,1,2.21-.31,3.43,3.43,0,0,1,1.89.31l4.19,14.06a29.48,29.48,0,0,1,.93,4.32h.13a37.74,37.74,0,0,1,1-4.32l4-14.06a9.46,9.46,0,0,1,2.39-.31,5.89,5.89,0,0,1,2.16.31l3.92,14a24.91,24.91,0,0,1,.88,4.41h.13a44.58,44.58,0,0,1,1.1-4.36l4.15-14a5.2,5.2,0,0,1,1.94-.31,4.09,4.09,0,0,1,1.89.31l-6.65,22.57a9.21,9.21,0,0,1-2.52.31,9.69,9.69,0,0,1-2.55-.31Z"/><path class="cls-1" d="M547,265.49c4.32,0,6.21,1.19,6.21,1.19a4.48,4.48,0,0,1-1.14,3.13,16.29,16.29,0,0,0-4.63-.71c-3,0-4.5,1.11-4.5,3.18s2.78,2.69,5.56,3.61,5.86,2.3,5.86,6.62-2.78,7.05-8.38,7.05a15.68,15.68,0,0,1-7.36-1.59,4.51,4.51,0,0,1,1.19-3.26,18.86,18.86,0,0,0,6,1.1c2.69,0,4.23-1,4.23-3.17,0-2.43-2.42-3-5-3.7-3-.89-6.26-2.16-6.26-6.53C538.71,268.27,541.4,265.49,547,265.49Z"/><path class="cls-1" d="M571.37,266.24a7.4,7.4,0,0,1,2.25-.31,8.56,8.56,0,0,1,2.16.27L569,276.73l7.8,12.08a7.92,7.92,0,0,1-2.46.35,7,7,0,0,1-2.38-.35l-6.62-10.14h-2.47v10.14a7.12,7.12,0,0,1-2.16.31,7,7,0,0,1-2.24-.31V256.28a10.16,10.16,0,0,1,2.24-.22,10.88,10.88,0,0,1,2.16.22v19.08h2.52Z"/><path class="cls-1" d="M587.64,265.49c6.39,0,8.42,2.87,8.42,8.55v14.77a3.48,3.48,0,0,1-1.72.31,4.5,4.5,0,0,1-1.77-.31l-.66-2.82c-1.14,2.34-3.57,3.57-6.92,3.57-4.14,0-6.83-2.43-6.83-7.36s3-6.92,8.46-6.92a48.11,48.11,0,0,1,5,.26v-1.63c0-3-1.15-4.72-4.54-4.72a18.24,18.24,0,0,0-5.91,1.11,3.63,3.63,0,0,1-1-1.33,3.79,3.79,0,0,1-.27-1.85A19.19,19.19,0,0,1,587.64,265.49Zm-.44,12.78c-3,0-4.5,1.15-4.5,3.93s1.45,4,3.83,4c3.49,0,5.12-3,5.12-6.08v-1.54C590.63,278.45,588.87,278.27,587.2,278.27Z"/><path class="cls-1" d="M616.46,285.5a4.93,4.93,0,0,1,.27,1.81,5.56,5.56,0,0,1-.27,1.81H600.11a8,8,0,0,1-.27-1.9,6,6,0,0,1,.27-1.72l11.72-15.95h-11a6,6,0,0,1-.27-1.86,4.79,4.79,0,0,1,.27-1.76h15.6a4.49,4.49,0,0,1,.27,1.72,5.88,5.88,0,0,1-.27,1.9L604.78,285.5Z"/><path class="cls-1" d="M629.07,265.49c6.39,0,8.42,2.87,8.42,8.55v14.77a3.48,3.48,0,0,1-1.72.31,4.48,4.48,0,0,1-1.76-.31l-.67-2.82c-1.14,2.34-3.57,3.57-6.92,3.57-4.14,0-6.83-2.43-6.83-7.36s2.95-6.92,8.46-6.92a48.11,48.11,0,0,1,5,.26v-1.63c0-3-1.15-4.72-4.54-4.72a18.24,18.24,0,0,0-5.91,1.11,3.63,3.63,0,0,1-1-1.33,3.79,3.79,0,0,1-.27-1.85A19.19,19.19,0,0,1,629.07,265.49Zm-.44,12.78c-3,0-4.5,1.15-4.5,3.93s1.46,4,3.84,4c3.48,0,5.11-3,5.11-6.08v-1.54C632.07,278.45,630.3,278.27,628.63,278.27Z"/><path class="cls-1" d="M660.72,288.81a6.31,6.31,0,0,1-2.21.31,6,6,0,0,1-2.2-.31V272.94c0-2.47-1.28-3.88-4.1-3.88a6,6,0,0,0-5,2.82v16.93a6.67,6.67,0,0,1-2.21.31,5.7,5.7,0,0,1-2.2-.31V266.24a5.7,5.7,0,0,1,2.2-.31,6.67,6.67,0,0,1,2.21.31v2a8.52,8.52,0,0,1,6.65-2.78c4.41,0,6.84,2.69,6.84,6.66Zm-10.36-26.32a3.72,3.72,0,0,1-2.52-1.36l4.19-6.22a4.43,4.43,0,0,1,3.84,1.63Z"/><path class="cls-1" d="M166.39,329.76a31.34,31.34,0,0,1-1.19-6.35H165a28.58,28.58,0,0,1-1.24,6.35l-3.48,11.94a8.53,8.53,0,0,1-2.51.31,9.26,9.26,0,0,1-2.56-.31l-6.66-22.57a6.67,6.67,0,0,1,2.21-.31,3.43,3.43,0,0,1,1.89.31l4.19,14.07a26.57,26.57,0,0,1,.93,4.32h.13a37.27,37.27,0,0,1,1-4.32L163,319.13a9.32,9.32,0,0,1,2.38-.31,5.89,5.89,0,0,1,2.16.31l3.92,14a24.57,24.57,0,0,1,.88,4.41h.13a41.9,41.9,0,0,1,1.11-4.37l4.14-14a5.2,5.2,0,0,1,1.94-.31,4,4,0,0,1,1.89.31l-6.65,22.57a9.19,9.19,0,0,1-2.51.31,9.71,9.71,0,0,1-2.56-.31Z"/><path class="cls-1" d="M202.67,318.38c6.08,0,9.78,3.31,9.78,12s-3.74,12-9.78,12-9.79-3.3-9.79-12S196.63,318.38,202.67,318.38Zm0,3.4c-3.22,0-5.29,1.85-5.29,8.64s2.07,8.64,5.29,8.64,5.24-1.85,5.24-8.64S205.89,321.78,202.67,321.78Z"/><path class="cls-1" d="M221.36,321.25c1.23-1.81,3.21-2.87,6.34-2.87,5,0,8.29,3.05,8.29,12s-3.26,12-8.29,12c-3.13,0-5.11-1.06-6.34-2.86v2.11a6.44,6.44,0,0,1-2.25.31,5.83,5.83,0,0,1-2.16-.31V309.26a5.83,5.83,0,0,1,2.16-.31,6.44,6.44,0,0,1,2.25.31Zm4.8.75c-3.08,0-4.8,2.56-4.8,5.55v5.65c0,3,1.72,5.64,4.8,5.64,3.53,0,5.29-1.85,5.29-8.42S229.69,322,226.16,322Z"/><path class="cls-1" d="M244.06,331.78c.35,5.25,2.46,6.93,6.12,6.93a10.66,10.66,0,0,0,5.2-1.28,4.53,4.53,0,0,1,1.42,3.17s-2.52,1.85-7.32,1.85c-6.79,0-10-4.19-10-12.16,0-8.34,3.92-11.91,9.78-11.91,5.42,0,8.73,3,8.73,8.86a18.58,18.58,0,0,1-.49,4.54Zm5.24-9.91c-2.86,0-4.89,1.89-5.24,6.78h9.43a16.06,16.06,0,0,0,.13-2C253.62,324.07,252.56,321.87,249.3,321.87Z"/><path class="cls-1" d="M265.79,330.42c0,5.77,1.85,8.29,6.08,8.29A11.33,11.33,0,0,0,276,338a4.62,4.62,0,0,1,1.28,3.17s-1.94,1.32-6.35,1.32c-6.43,0-9.69-4.19-9.69-12s3.26-12,9.69-12c4.24,0,5.91,1.11,5.91,1.11a4.47,4.47,0,0,1-1.28,3.17,10.72,10.72,0,0,0-3.88-.66C267.46,322,265.79,324.69,265.79,330.42Z"/><path class="cls-1" d="M298.93,341.7a6.28,6.28,0,0,1-2.2.31,6,6,0,0,1-2.21-.31V325.83c0-2.47-1.27-3.88-4.1-3.88a6,6,0,0,0-5,2.83V341.7a6.56,6.56,0,0,1-2.2.31,5.7,5.7,0,0,1-2.2-.31V319.13a5.7,5.7,0,0,1,2.2-.31,6.56,6.56,0,0,1,2.2.31v2a8.54,8.54,0,0,1,6.66-2.78c4.41,0,6.83,2.69,6.83,6.66Z"/><path class="cls-1" d="M314.8,345.41c-1.59,4.85-3.13,7.62-7.89,7.62a6.4,6.4,0,0,1-2.43-.44,5.22,5.22,0,0,1-.3-1.63,4.05,4.05,0,0,1,.35-1.76,13.06,13.06,0,0,0,2,.17c2,0,3-.53,4.32-4.67l.93-2.69a4.18,4.18,0,0,1-1.41-.31L302,319.13a7.22,7.22,0,0,1,2.29-.31,7,7,0,0,1,2.3.31l5,13.4a42.41,42.41,0,0,1,1.54,5.16h.18s.44-2.07,1.41-5.11l4.37-13.45a5.83,5.83,0,0,1,2.16-.31,6.24,6.24,0,0,1,2.07.31Z"/><path class="cls-1" d="M330.09,330.42c0,5.77,1.85,8.29,6.09,8.29a11.33,11.33,0,0,0,4.14-.75,4.66,4.66,0,0,1,1.28,3.17s-1.94,1.32-6.35,1.32c-6.44,0-9.7-4.19-9.7-12s3.26-12,9.7-12c4.23,0,5.91,1.11,5.91,1.11a4.51,4.51,0,0,1-1.28,3.17A10.72,10.72,0,0,0,336,322C331.77,322,330.09,324.69,330.09,330.42Z"/><path class="cls-1" d="M363.24,341.7a6.28,6.28,0,0,1-2.2.31,6,6,0,0,1-2.21-.31V325.83c0-2.47-1.28-3.88-4.1-3.88a6,6,0,0,0-5,2.83V341.7a6.56,6.56,0,0,1-2.2.31,5.73,5.73,0,0,1-2.21-.31V309.26a5.73,5.73,0,0,1,2.21-.31,6.56,6.56,0,0,1,2.2.31v11.9a8.54,8.54,0,0,1,6.66-2.78c4.41,0,6.83,2.69,6.83,6.66Z"/><path class="cls-1" d="M393.3,329.76a30.63,30.63,0,0,1-1.19-6.35h-.18a27.83,27.83,0,0,1-1.23,6.35l-3.48,11.94a8.6,8.6,0,0,1-2.52.31,9.24,9.24,0,0,1-2.55-.31l-6.66-22.57a6.59,6.59,0,0,1,2.21-.31,3.48,3.48,0,0,1,1.89.31l4.19,14.07a27.41,27.41,0,0,1,.92,4.32h.14a33.44,33.44,0,0,1,1-4.32l4.05-14.07a9.42,9.42,0,0,1,2.38-.31,5.83,5.83,0,0,1,2.16.31l3.93,14a24.57,24.57,0,0,1,.88,4.41h.13a41.19,41.19,0,0,1,1.1-4.37l4.15-14a5.2,5.2,0,0,1,1.94-.31,4.09,4.09,0,0,1,1.89.31l-6.66,22.57a9.09,9.09,0,0,1-2.51.31,9.76,9.76,0,0,1-2.56-.31Z"/><path class="cls-1" d="M422.3,345.41c-1.58,4.85-3.13,7.62-7.89,7.62a6.37,6.37,0,0,1-2.42-.44,5.07,5.07,0,0,1-.31-1.63,4.23,4.23,0,0,1,.35-1.76,13.11,13.11,0,0,0,2,.17c2,0,3-.53,4.31-4.67l.93-2.69a4.18,4.18,0,0,1-1.41-.31l-8.37-22.57a7.14,7.14,0,0,1,2.29-.31,6.85,6.85,0,0,1,2.29.31l5,13.4a41.57,41.57,0,0,1,1.55,5.16h.17s.45-2.07,1.41-5.11l4.37-13.45a5.83,5.83,0,0,1,2.16-.31,6.17,6.17,0,0,1,2.07.31Z"/><path class="cls-1" d="M440,333.68c0,4,1.27,5.2,4.4,5.2a12.56,12.56,0,0,0,1.86-.17,5.14,5.14,0,0,1,.3,1.76,4.89,4.89,0,0,1-.22,1.59,12.68,12.68,0,0,1-3.17.39c-5.42,0-7.58-2.95-7.58-8.55V322.13h-3.4a4.58,4.58,0,0,1-.26-1.63,4.46,4.46,0,0,1,.26-1.68h3.4v-4a7.56,7.56,0,0,1,4.41-.88v4.89h5.73a4.32,4.32,0,0,1,.26,1.63,5,5,0,0,1-.26,1.68H440Z"/><path class="cls-1" d="M460.34,345.41c-1.59,4.85-3.13,7.62-7.89,7.62a6.37,6.37,0,0,1-2.42-.44,5.07,5.07,0,0,1-.31-1.63,4.23,4.23,0,0,1,.35-1.76,13.06,13.06,0,0,0,2,.17c2,0,3-.53,4.32-4.67l.93-2.69a4.18,4.18,0,0,1-1.41-.31l-8.38-22.57a7.22,7.22,0,0,1,2.29-.31,7,7,0,0,1,2.3.31l5,13.4a43.85,43.85,0,0,1,1.55,5.16h.17s.44-2.07,1.41-5.11l4.37-13.45a5.83,5.83,0,0,1,2.16-.31,6.17,6.17,0,0,1,2.07.31Z"/><path class="cls-1" d="M475.63,330.42c0,5.77,1.86,8.29,6.09,8.29a11.33,11.33,0,0,0,4.14-.75,4.62,4.62,0,0,1,1.28,3.17s-1.94,1.32-6.35,1.32c-6.43,0-9.7-4.19-9.7-12s3.27-12,9.7-12c4.23,0,5.91,1.11,5.91,1.11a4.51,4.51,0,0,1-1.28,3.17,10.72,10.72,0,0,0-3.88-.66C477.31,322,475.63,324.69,475.63,330.42Z"/><path class="cls-1" d="M506,338.4a5,5,0,0,1,.26,1.8A5.67,5.67,0,0,1,506,342H489.61a7.48,7.48,0,0,1-.27-1.89,5.58,5.58,0,0,1,.27-1.72l11.72-16h-11a6.19,6.19,0,0,1-.26-1.85,5,5,0,0,1,.26-1.77H506a4.51,4.51,0,0,1,.26,1.72,5.89,5.89,0,0,1-.26,1.9l-11.68,16Z"/><path class="cls-1" d="M528.44,341.7a6.28,6.28,0,0,1-2.2.31,6,6,0,0,1-2.21-.31V325.83c0-2.47-1.28-3.88-4.1-3.88a6,6,0,0,0-5,2.83V341.7a6.56,6.56,0,0,1-2.2.31,5.73,5.73,0,0,1-2.21-.31V319.13a5.73,5.73,0,0,1,2.21-.31,6.56,6.56,0,0,1,2.2.31v2a8.54,8.54,0,0,1,6.66-2.78c4.4,0,6.83,2.69,6.83,6.66Z"/><path class="cls-1" d="M544.31,345.41c-1.59,4.85-3.13,7.62-7.89,7.62a6.4,6.4,0,0,1-2.43-.44,5.07,5.07,0,0,1-.31-1.63,4,4,0,0,1,.36-1.76,12.89,12.89,0,0,0,2,.17c2,0,3-.53,4.32-4.67l.92-2.69a4.23,4.23,0,0,1-1.41-.31l-8.37-22.57a7.22,7.22,0,0,1,2.29-.31,6.85,6.85,0,0,1,2.29.31l5,13.4a42.41,42.41,0,0,1,1.54,5.16h.18s.44-2.07,1.41-5.11l4.36-13.45a5.89,5.89,0,0,1,2.16-.31,6.17,6.17,0,0,1,2.07.31Z"/><path class="cls-1" d="M559.6,330.42c0,5.77,1.85,8.29,6.08,8.29a11.35,11.35,0,0,0,4.15-.75,4.66,4.66,0,0,1,1.28,3.17s-1.94,1.32-6.35,1.32c-6.44,0-9.7-4.19-9.7-12s3.26-12,9.7-12c4.23,0,5.91,1.11,5.91,1.11a4.51,4.51,0,0,1-1.28,3.17,10.79,10.79,0,0,0-3.88-.66C561.28,322,559.6,324.69,559.6,330.42Z"/><path class="cls-1" d="M592.75,341.7a6.31,6.31,0,0,1-2.21.31,6,6,0,0,1-2.2-.31V325.83c0-2.47-1.28-3.88-4.1-3.88a6,6,0,0,0-5,2.83V341.7a6.67,6.67,0,0,1-2.21.31,5.7,5.7,0,0,1-2.2-.31V309.26a5.7,5.7,0,0,1,2.2-.31,6.67,6.67,0,0,1,2.21.31v11.9a8.54,8.54,0,0,1,6.66-2.78c4.4,0,6.83,2.69,6.83,6.66Z"/></svg>