<svg xmlns="http://www.w3.org/2000/svg" xmlns:xlink="http://www.w3.org/1999/xlink" viewBox="0 0 600 170"><defs><style>.cls-1,.cls-21,.cls-24,.cls-25,.cls-26,.cls-27,.cls-28{fill:none;}.cls-2{fill:#0056a3;}.cls-3{clip-path:url(#clip-path);}.cls-4{fill:#868686;}.cls-5{clip-path:url(#clip-path-2);}.cls-6{clip-path:url(#clip-path-3);}.cls-7{clip-path:url(#clip-path-4);}.cls-8{clip-path:url(#clip-path-5);}.cls-9{clip-path:url(#clip-path-6);}.cls-10{clip-path:url(#clip-path-7);}.cls-11{clip-path:url(#clip-path-8);}.cls-12{clip-path:url(#clip-path-9);}.cls-13{clip-path:url(#clip-path-10);}.cls-14{clip-path:url(#clip-path-11);}.cls-15{clip-path:url(#clip-path-12);}.cls-16{clip-path:url(#clip-path-13);}.cls-17{clip-path:url(#clip-path-14);}.cls-18{clip-path:url(#clip-path-15);}.cls-19{fill:#ccd62d;}.cls-20{fill:#1d1d1b;}.cls-21{stroke:#1d1d1b;stroke-width:0.43px;}.cls-22{fill:#c0bfbf;}.cls-23{fill:#98a124;}.cls-24{stroke:#005ca8;stroke-width:1.7px;}.cls-25{stroke:#ccd615;}.cls-25,.cls-26{stroke-linecap:round;stroke-linejoin:round;stroke-width:7px;}.cls-26{stroke:#0056a3;}.cls-27{stroke:#c7d300;}.cls-27,.cls-28{stroke-width:2.55px;}.cls-28{stroke:#164193;}</style><clipPath id="clip-path"><rect class="cls-1" x="419.97" y="119.98" width="7.65" height="6.4"/></clipPath><clipPath id="clip-path-2"><rect class="cls-1" x="442.75" y="119.98" width="7.69" height="6.25"/></clipPath><clipPath id="clip-path-3"><rect class="cls-1" x="465.49" y="120.13" width="7.55" height="6.25"/></clipPath><clipPath id="clip-path-4"><rect class="cls-1" x="351.67" y="119.98" width="7.88" height="6.4"/></clipPath><clipPath id="clip-path-5"><rect class="cls-1" x="374.75" y="120.13" width="5.55" height="6.1"/></clipPath><clipPath id="clip-path-6"><rect class="cls-1" x="397.26" y="119.98" width="7.61" height="6.25"/></clipPath><clipPath id="clip-path-7"><rect class="cls-1" x="149.31" y="120.13" width="1.57" height="6.1"/></clipPath><clipPath id="clip-path-8"><rect class="cls-1" x="171.1" y="119.98" width="4.14" height="6.25"/></clipPath><clipPath id="clip-path-9"><rect class="cls-1" x="193.88" y="119.98" width="4.08" height="6.4"/></clipPath><clipPath id="clip-path-10"><rect class="cls-1" x="216.54" y="119.98" width="4.26" height="6.25"/></clipPath><clipPath id="clip-path-11"><rect class="cls-1" x="239.41" y="120.13" width="3.99" height="6.25"/></clipPath><clipPath id="clip-path-12"><rect class="cls-1" x="262.38" y="119.98" width="3.76" height="6.4"/></clipPath><clipPath id="clip-path-13"><rect class="cls-1" x="285.17" y="120.13" width="3.87" height="6.25"/></clipPath><clipPath id="clip-path-14"><rect class="cls-1" x="307.59" y="119.98" width="4.13" height="6.4"/></clipPath><clipPath id="clip-path-15"><rect class="cls-1" x="330.46" y="119.98" width="3.76" height="6.4"/></clipPath></defs><title>wykres_str_03</title><g id="Warstwa_1" data-name="Warstwa 1"><path class="cls-2" d="M118.07,100a6.33,6.33,0,0,1,.28-2,1.15,1.15,0,0,1,.81.29,5.58,5.58,0,0,0-.22,1.55c0,1.08.42,1.59,1.15,1.59s1-.87,1.27-1.81.76-1.89,2.08-1.89,2.12.88,2.12,2.54a5.23,5.23,0,0,1-.43,2.18,1.53,1.53,0,0,1-.82-.24,6.82,6.82,0,0,0,.32-1.89c0-1-.4-1.54-1.16-1.54s-1,.58-1.19,1.28c-.35,1-.61,2.39-2.14,2.39C118.9,102.47,118.07,101.65,118.07,100Z"/><path class="cls-2" d="M123.54,95.31c.92,0,1.2-.29,1.2-1a3,3,0,0,0,0-.43,1.15,1.15,0,0,1,.4-.07,1.13,1.13,0,0,1,.37,0,3,3,0,0,1,.09.73c0,1.25-.68,1.74-2,1.74h-2.7v.78a1,1,0,0,1-.37.06,1.08,1.08,0,0,1-.39-.06v-.78h-.92a1.72,1.72,0,0,1-.2-1h1.12V94a.92.92,0,0,1,.38-.07,1,1,0,0,1,.38.07v1.31Z"/><path class="cls-2" d="M120,90.82c0-1.4.76-2.25,2.77-2.25s2.76.86,2.76,2.25-.76,2.24-2.76,2.24S120,92.2,120,90.82Zm.78,0c0,.74.43,1.21,2,1.21s2-.47,2-1.21-.43-1.21-2-1.21S120.81,90.08,120.81,90.82Z"/><path class="cls-2" d="M120,84.86c0-1.15.7-1.9,2.77-1.9s2.76.75,2.76,1.9a1.64,1.64,0,0,1-.66,1.46h2.83a1.69,1.69,0,0,1,.06.51,1.57,1.57,0,0,1-.06.5h-7.52a1.21,1.21,0,0,1-.08-.5,1.3,1.3,0,0,1,.08-.51h.48A1.64,1.64,0,0,1,120,84.86Zm.83.35a1.15,1.15,0,0,0,1.28,1.11h1.29a1.17,1.17,0,0,0,1.3-1.11c0-.81-.43-1.21-1.93-1.21S120.86,84.4,120.86,85.21Z"/><path class="cls-2" d="M119.11,80.64a1.6,1.6,0,0,1,.07.53,1.43,1.43,0,0,1-.07.52h-1a1.43,1.43,0,0,1-.07-.52,1.6,1.6,0,0,1,.07-.53Zm6.27,0a1.3,1.3,0,0,1,.08.51,1.16,1.16,0,0,1-.08.5h-5.17a1.16,1.16,0,0,1-.08-.5,1.3,1.3,0,0,1,.08-.51Z"/><path class="cls-2" d="M123.11,78.35c1.2-.08,1.59-.56,1.59-1.4a2.38,2.38,0,0,0-.3-1.19,1,1,0,0,1,.73-.33,3,3,0,0,1,.43,1.68c0,1.56-1,2.29-2.8,2.29S120,78.5,120,77.15a1.83,1.83,0,0,1,2-2,4.41,4.41,0,0,1,1,.11Zm-2.28-1.2c0,.66.44,1.12,1.56,1.2V76.19a3.48,3.48,0,0,0-.45,0C121.34,76.16,120.83,76.4,120.83,77.15Z"/><path class="cls-2" d="M119.35,72.23a.9.9,0,0,1-.32.58l-1.42-1A1,1,0,0,1,118,71Zm6-2.37a1.27,1.27,0,0,1,.08.5,1.24,1.24,0,0,1-.08.51h-3.64c-.56,0-.89.29-.89.94A1.4,1.4,0,0,0,121.5,73h3.88a1.36,1.36,0,0,1,.08.51,1.16,1.16,0,0,1-.08.5h-5.17a1.16,1.16,0,0,1-.08-.5,1.36,1.36,0,0,1,.08-.51h.46a2,2,0,0,1-.64-1.52,1.43,1.43,0,0,1,1.53-1.57Z"/><path class="cls-2" d="M120,64.46a2.78,2.78,0,0,1,.28-1.42,1.06,1.06,0,0,1,.72.26,3.62,3.62,0,0,0-.17,1.06c0,.69.26,1,.73,1s.62-.64.83-1.28.53-1.35,1.52-1.35,1.62.64,1.62,1.93a3.58,3.58,0,0,1-.37,1.69,1,1,0,0,1-.75-.28,4.14,4.14,0,0,0,.26-1.36c0-.62-.24-1-.73-1s-.68.55-.85,1.15-.5,1.44-1.5,1.44S120,65.75,120,64.46Z"/><path class="cls-2" d="M123.54,60.27c.92,0,1.2-.3,1.2-1a2.74,2.74,0,0,0,0-.42,1.15,1.15,0,0,1,.4-.07,1.13,1.13,0,0,1,.37.05,2.9,2.9,0,0,1,.09.73c0,1.24-.68,1.74-2,1.74h-2.7v.78a1,1,0,0,1-.37.06,1.08,1.08,0,0,1-.39-.06v-.78h-.92a1.75,1.75,0,0,1-.2-1h1.12V59a1,1,0,0,1,.38-.06,1.12,1.12,0,0,1,.38.06v1.32Z"/><path class="cls-2" d="M120,55.77c0-1.39.76-2.24,2.77-2.24s2.76.86,2.76,2.24S124.8,58,122.8,58,120,57.16,120,55.77Zm.78,0c0,.74.43,1.22,2,1.22s2-.48,2-1.22-.43-1.2-2-1.2S120.81,55,120.81,55.77Z"/><path class="cls-2" d="M120,46.85a1.41,1.41,0,0,1,1.53-1.51h3.82a1.36,1.36,0,0,1,.08.51,1.16,1.16,0,0,1-.08.5h-3.64a.79.79,0,0,0-.89.88,1.29,1.29,0,0,0,.65,1.09h3.88a1.25,1.25,0,0,1,.08.49,1.19,1.19,0,0,1-.08.51h-3.64a.78.78,0,0,0-.89.88,1.35,1.35,0,0,0,.64,1.08h3.89a1.27,1.27,0,0,1,.08.5,1.16,1.16,0,0,1-.08.5h-5.17a1.16,1.16,0,0,1-.08-.5,1.27,1.27,0,0,1,.08-.5h.45a1.91,1.91,0,0,1-.63-1.46,1.36,1.36,0,0,1,.74-1.31A2.05,2.05,0,0,1,120,46.85Z"/><path class="cls-2" d="M120,42.06c0-1.47.66-1.94,2-1.94h3.38a.73.73,0,0,1,.08.4.92.92,0,0,1-.08.4l-.64.15a1.65,1.65,0,0,1,.82,1.59,1.48,1.48,0,0,1-1.69,1.57c-1.11,0-1.59-.68-1.59-1.94a10.77,10.77,0,0,1,.06-1.15H122c-.69,0-1.09.26-1.09,1a4,4,0,0,0,.26,1.35.85.85,0,0,1-.31.24.86.86,0,0,1-.42.06A4.35,4.35,0,0,1,120,42.06Zm2.94.1c0,.67.26,1,.9,1s.91-.34.91-.88c0-.8-.68-1.17-1.4-1.17H123C123,41.37,123,41.77,123,42.16Z"/><path class="cls-2" d="M123.54,37.38c.92,0,1.2-.29,1.2-1a3,3,0,0,0,0-.43,1.15,1.15,0,0,1,.4-.07,1.13,1.13,0,0,1,.37.05,3,3,0,0,1,.09.73c0,1.25-.68,1.74-2,1.74h-2.7v.78a1,1,0,0,1-.37.06,1.08,1.08,0,0,1-.39-.06v-.78h-.92a1.72,1.72,0,0,1-.2-1h1.12V36.07a1,1,0,0,1,.38-.06,1.12,1.12,0,0,1,.38.06v1.31Z"/><path class="cls-2" d="M120,32.89c0-1.4.76-2.25,2.77-2.25s2.76.86,2.76,2.25-.76,2.25-2.76,2.25S120,34.27,120,32.89Zm.78,0c0,.74.43,1.21,2,1.21s2-.47,2-1.21-.43-1.2-2-1.2S120.81,32.15,120.81,32.89Z"/><path class="cls-2" d="M120,26.93c0-1.15.7-1.9,2.77-1.9s2.76.75,2.76,1.9a1.64,1.64,0,0,1-.66,1.46h2.83a1.69,1.69,0,0,1,.06.51,1.57,1.57,0,0,1-.06.5h-7.52a1.21,1.21,0,0,1-.08-.5,1.3,1.3,0,0,1,.08-.51h.48A1.64,1.64,0,0,1,120,26.93Zm.83.35a1.15,1.15,0,0,0,1.28,1.11h1.29a1.17,1.17,0,0,0,1.3-1.11c0-.8-.43-1.21-1.93-1.21S120.86,26.48,120.86,27.28Z"/><path class="cls-2" d="M120,21.92c0-1.46.66-1.93,2-1.93h3.38a.73.73,0,0,1,.08.4.92.92,0,0,1-.08.4l-.64.15a1.64,1.64,0,0,1,.82,1.59,1.48,1.48,0,0,1-1.69,1.57c-1.11,0-1.59-.68-1.59-1.94a11.15,11.15,0,0,1,.06-1.16H122c-.69,0-1.09.27-1.09,1a4.14,4.14,0,0,0,.26,1.36.78.78,0,0,1-.31.23.86.86,0,0,1-.42.06A4.35,4.35,0,0,1,120,21.92ZM123,22c0,.68.26,1,.9,1s.91-.34.91-.88a1.24,1.24,0,0,0-1.4-1.18H123C123,21.23,123,21.64,123,22Z"/><path class="cls-2" d="M123.54,17.24c.92,0,1.2-.3,1.2-1a2.78,2.78,0,0,0,0-.43,1.15,1.15,0,0,1,.4-.07,1.13,1.13,0,0,1,.37,0,3,3,0,0,1,.09.73c0,1.24-.68,1.74-2,1.74h-2.7V19a1,1,0,0,1-.37.06,1.08,1.08,0,0,1-.39-.06v-.78h-.92a1.74,1.74,0,0,1-.2-1h1.12V15.92a1,1,0,0,1,.38-.06,1.12,1.12,0,0,1,.38.06v1.32Z"/><path class="cls-2" d="M119.11,13.71a1.57,1.57,0,0,1,.07.52,1.46,1.46,0,0,1-.07.53h-1a1.46,1.46,0,0,1-.07-.53,1.57,1.57,0,0,1,.07-.52Zm6.27,0a1.27,1.27,0,0,1,.08.5,1.19,1.19,0,0,1-.08.51h-5.17a1.19,1.19,0,0,1-.08-.51,1.27,1.27,0,0,1,.08-.5Z"/><path class="cls-2" d="M119.11,11.18a1.57,1.57,0,0,1,.07.52,1.46,1.46,0,0,1-.07.53h-1a1.46,1.46,0,0,1-.07-.53,1.57,1.57,0,0,1,.07-.52Zm6.27,0a1.27,1.27,0,0,1,.08.5,1.19,1.19,0,0,1-.08.51h-5.17a1.19,1.19,0,0,1-.08-.51,1.27,1.27,0,0,1,.08-.5Z"/><g class="cls-3"><path class="cls-4" d="M420.34,120.13h1.2v6.1h-.61v-5.51H420Z"/><path class="cls-4" d="M424.38,121.54h-.62a2,2,0,0,1,.65-1.16,1.71,1.71,0,0,1,1.13-.41,1.92,1.92,0,0,1,.89.22,1.59,1.59,0,0,1,.64.59,1.44,1.44,0,0,1,.23.77,1.39,1.39,0,0,1-.79,1.25,1.77,1.77,0,0,1,.73.52,1.71,1.71,0,0,1,.39,1.09,2,2,0,0,1-.27,1,2,2,0,0,1-.75.73,2.14,2.14,0,0,1-1.05.25,2,2,0,0,1-1.32-.45,2.24,2.24,0,0,1-.69-1.34h.6a1.77,1.77,0,0,0,.45.86,1.36,1.36,0,0,0,1,.34,1.43,1.43,0,0,0,1.07-.4,1.26,1.26,0,0,0,.4-.93,1.17,1.17,0,0,0-.2-.67,1.24,1.24,0,0,0-.54-.47,3,3,0,0,0-1-.19v-.56a1.91,1.91,0,0,0,.76-.15,1.11,1.11,0,0,0,.5-.38.86.86,0,0,0,.15-.49.89.89,0,0,0-.31-.69,1.14,1.14,0,0,0-.81-.29,1.07,1.07,0,0,0-.68.22A1.68,1.68,0,0,0,424.38,121.54Z"/></g><g class="cls-5"><path class="cls-4" d="M443.11,120.13h1.2v6.1h-.6v-5.51h-1Z"/><path class="cls-4" d="M449.58,120h.12v4.26h.74v.58h-.74v1.42h-.6v-1.42h-2.92Zm-.48,4.26v-2.56l-1.81,2.56Z"/></g><g class="cls-6"><path class="cls-4" d="M465.85,120.13h1.2v6.1h-.6v-5.51h-1Z"/><path class="cls-4" d="M472.88,120.13v.58h-2.16l-.31,1.66a2.53,2.53,0,0,1,.72-.11,1.83,1.83,0,0,1,1.37.55,2,2,0,0,1,.54,1.43,2.23,2.23,0,0,1-.28,1.11,1.83,1.83,0,0,1-.75.76,2.15,2.15,0,0,1-1.09.27,1.84,1.84,0,0,1-1.26-.45,1.88,1.88,0,0,1-.61-1.18h.63a1.25,1.25,0,0,0,.24.57,1.16,1.16,0,0,0,.45.36,1.29,1.29,0,0,0,.58.13,1.4,1.4,0,0,0,1-.45,1.61,1.61,0,0,0,.43-1.14,1.33,1.33,0,0,0-.39-1,1.41,1.41,0,0,0-1-.39,3.43,3.43,0,0,0-1.31.33l.56-3Z"/></g><g class="cls-7"><path class="cls-4" d="M352,120.13h1.2v6.1h-.6v-5.51h-1Z"/><path class="cls-4" d="M355.38,123.18a5.17,5.17,0,0,1,.26-1.87,2.13,2.13,0,0,1,.73-1,1.82,1.82,0,0,1,2.13,0,2.2,2.2,0,0,1,.76,1,4.91,4.91,0,0,1,.28,1.84,5,5,0,0,1-.27,1.83,2.36,2.36,0,0,1-.76,1,1.84,1.84,0,0,1-1.08.34,1.82,1.82,0,0,1-1.06-.33,2.25,2.25,0,0,1-.73-1A5.34,5.34,0,0,1,355.38,123.18Zm.58,0a5.1,5.1,0,0,0,.18,1.56,1.66,1.66,0,0,0,.54.81,1.27,1.27,0,0,0,.77.27,1.24,1.24,0,0,0,.76-.27,1.63,1.63,0,0,0,.53-.8,4.82,4.82,0,0,0,.23-1.57,4.88,4.88,0,0,0-.2-1.51,1.87,1.87,0,0,0-.56-.86,1.22,1.22,0,0,0-1.53,0,1.77,1.77,0,0,0-.54.8A5.22,5.22,0,0,0,356,123.19Z"/></g><g class="cls-8"><path class="cls-4" d="M375.11,120.13h1.2v6.1h-.61v-5.51h-.95Z"/><path class="cls-4" d="M379.09,120.13h1.2v6.1h-.61v-5.51h-1Z"/></g><g class="cls-9"><path class="cls-4" d="M397.63,120.13h1.2v6.1h-.61v-5.51h-1Z"/><path class="cls-4" d="M401.46,122h-.58a2.14,2.14,0,0,1,.6-1.49,2,2,0,0,1,1.43-.58,1.76,1.76,0,0,1,1.36.55,1.78,1.78,0,0,1,.53,1.28,2,2,0,0,1-.25,1,6.67,6.67,0,0,1-1,1.23l-1.52,1.64h2.82v.59h-4.15l2.33-2.52a7.64,7.64,0,0,0,.93-1.13,1.51,1.51,0,0,0,.21-.77,1.23,1.23,0,0,0-.38-.89,1.39,1.39,0,0,0-1.91,0A1.69,1.69,0,0,0,401.46,122Z"/></g><g class="cls-10"><path class="cls-4" d="M149.67,120.13h1.2v6.1h-.6v-5.51h-1Z"/></g><g class="cls-11"><path class="cls-4" d="M171.83,122h-.59a2.14,2.14,0,0,1,.6-1.49,2,2,0,0,1,1.43-.58,1.79,1.79,0,0,1,1.37.55,1.82,1.82,0,0,1,.52,1.28,2,2,0,0,1-.25,1,6.67,6.67,0,0,1-1,1.23l-1.52,1.64h2.82v.59H171.1l2.33-2.52a7.39,7.39,0,0,0,.92-1.13,1.51,1.51,0,0,0,.21-.77,1.19,1.19,0,0,0-.38-.89,1.3,1.3,0,0,0-.94-.37,1.31,1.31,0,0,0-1,.39A1.63,1.63,0,0,0,171.83,122Z"/></g><g class="cls-12"><path class="cls-4" d="M194.71,121.54h-.62a2,2,0,0,1,.65-1.16,1.72,1.72,0,0,1,1.14-.41,1.91,1.91,0,0,1,.88.22,1.59,1.59,0,0,1,.64.59,1.44,1.44,0,0,1,.23.77,1.4,1.4,0,0,1-.78,1.25,1.81,1.81,0,0,1,.72.52,1.71,1.71,0,0,1,.39,1.09,2,2,0,0,1-1,1.72,2.21,2.21,0,0,1-1.06.25,2,2,0,0,1-1.32-.45,2.24,2.24,0,0,1-.69-1.34h.6a1.77,1.77,0,0,0,.45.86,1.38,1.38,0,0,0,1,.34,1.42,1.42,0,0,0,1.06-.4,1.26,1.26,0,0,0,.4-.93,1.17,1.17,0,0,0-.2-.67,1.24,1.24,0,0,0-.54-.47,3,3,0,0,0-1-.19v-.56a1.87,1.87,0,0,0,.76-.15,1.06,1.06,0,0,0,.5-.38.87.87,0,0,0,.16-.49.9.9,0,0,0-.32-.69,1.11,1.11,0,0,0-.8-.29,1.08,1.08,0,0,0-.69.22A1.68,1.68,0,0,0,194.71,121.54Z"/></g><g class="cls-13"><path class="cls-4" d="M220,120h.12v4.26h.74v.58h-.74v1.42h-.61v-1.42h-2.92Zm-.49,4.26v-2.56l-1.8,2.56Z"/></g><g class="cls-14"><path class="cls-4" d="M243.25,120.13v.58h-2.17l-.31,1.66a2.53,2.53,0,0,1,.72-.11,1.82,1.82,0,0,1,1.37.55,2,2,0,0,1,.55,1.43,2.34,2.34,0,0,1-.28,1.11,1.92,1.92,0,0,1-.76.76,2.15,2.15,0,0,1-1.09.27,1.8,1.8,0,0,1-1.86-1.63H240a1.36,1.36,0,0,0,.24.57,1.16,1.16,0,0,0,.45.36,1.29,1.29,0,0,0,.58.13,1.39,1.39,0,0,0,1-.45,1.61,1.61,0,0,0,.43-1.14,1.33,1.33,0,0,0-.39-1,1.41,1.41,0,0,0-1-.39,3.43,3.43,0,0,0-1.31.33l.57-3Z"/></g><g class="cls-15"><path class="cls-4" d="M264.93,120l.5.33-1.64,2.5a1.77,1.77,0,0,1,.62-.11,1.65,1.65,0,0,1,1.23.52,1.78,1.78,0,0,1,.51,1.29,1.86,1.86,0,0,1-.25,1,1.78,1.78,0,0,1-.69.67,2,2,0,0,1-1,.25,1.84,1.84,0,0,1-.93-.24,1.71,1.71,0,0,1-.68-.68,2,2,0,0,1-.24-.94,2.34,2.34,0,0,1,.15-.79,4.54,4.54,0,0,1,.54-1Zm-.67,3.25a1.27,1.27,0,0,0-.91.38,1.23,1.23,0,0,0-.37.91,1.19,1.19,0,0,0,.38.9,1.28,1.28,0,1,0,.9-2.19Z"/></g><g class="cls-16"><path class="cls-4" d="M285.17,120.13H289l-3.27,6.25-.5-.26,2.81-5.41h-2.91Z"/></g><g class="cls-17"><path class="cls-4" d="M310.56,122.88a2.37,2.37,0,0,1,.89.7,1.56,1.56,0,0,1,.27.9,1.88,1.88,0,0,1-.46,1.24,2,2,0,0,1-1.62.66,2,2,0,0,1-1.53-.58,1.85,1.85,0,0,1-.53-1.27,1.64,1.64,0,0,1,.28-.92,2.25,2.25,0,0,1,.91-.73,1.74,1.74,0,0,1-.67-.57,1.34,1.34,0,0,1-.23-.74,1.43,1.43,0,0,1,.24-.78,1.74,1.74,0,0,1,.66-.6,2,2,0,0,1,.91-.22,1.92,1.92,0,0,1,.89.22,1.65,1.65,0,0,1,.63.6,1.45,1.45,0,0,1,.23.79,1.31,1.31,0,0,1-.21.74A1.85,1.85,0,0,1,310.56,122.88Zm-.88.31a1.42,1.42,0,0,0-1.05.41,1.26,1.26,0,0,0-.43,1,1.21,1.21,0,0,0,.18.63,1.14,1.14,0,0,0,.51.46,1.67,1.67,0,0,0,.76.17,1.45,1.45,0,0,0,1.06-.4,1.25,1.25,0,0,0,0-1.83A1.44,1.44,0,0,0,309.68,123.19Zm0-2.62a1.23,1.23,0,0,0-.83.29.93.93,0,0,0-.33.71,1,1,0,0,0,.35.74,1.2,1.2,0,0,0,.83.33,1.17,1.17,0,0,0,.58-.15,1.1,1.1,0,0,0,.42-.41,1,1,0,0,0,.15-.52,1,1,0,0,0-.3-.68A1.14,1.14,0,0,0,309.65,120.57Z"/></g><g class="cls-18"><path class="cls-4" d="M331.67,126.38l-.5-.32,1.65-2.5a2.08,2.08,0,0,1-.62.11,1.69,1.69,0,0,1-1.24-.52,1.84,1.84,0,0,1-.5-1.3,1.92,1.92,0,0,1,.24-.95,1.81,1.81,0,0,1,.7-.67,1.9,1.9,0,0,1,1.9,0,1.75,1.75,0,0,1,.67.68,2,2,0,0,1,.24.94,2.34,2.34,0,0,1-.15.79,4.54,4.54,0,0,1-.54,1Zm.67-3.25a1.28,1.28,0,0,0,.91-2.18,1.25,1.25,0,0,0-.91-.38,1.28,1.28,0,1,0,0,2.56Z"/></g><polygon class="cls-19" points="148.95 106.23 174.39 106.23 195.88 77.71 218.56 77.71 240.82 106.23 287.18 106.23 308.24 77.82 330.85 106.23 400.96 106.23 423.39 78.24 444.64 106.23 468.85 106.23 468.85 104.53 445.48 104.53 423.43 75.48 400.14 104.53 331.67 104.53 308.19 75.03 286.33 104.53 241.65 104.53 219.4 76.01 195.03 76.01 173.54 104.53 148.95 104.53 148.95 106.23"/><rect class="cls-20" x="143.17" y="0.1" width="0.42" height="111.52"/><line class="cls-21" x1="143.12" y1="111.91" x2="490.69" y2="111.91"/><path class="cls-22" d="M143.12,8.91h0V8.7h0Zm.48,0H468.85V8.7H143.6Z"/><rect class="cls-20" x="143.17" y="8.7" width="0.42" height="0.21"/><path class="cls-22" d="M143.12,22.69h0v-.21h0Zm.48,0H468.85v-.21H143.6Z"/><rect class="cls-20" x="143.17" y="22.48" width="0.42" height="0.21"/><path class="cls-22" d="M143.12,36.47h0v-.21h0Zm.48,0H468.85v-.21H143.6Z"/><rect class="cls-20" x="143.17" y="36.26" width="0.42" height="0.21"/><path class="cls-22" d="M143.12,50.25h0V50h0Zm.48,0H468.85V50H143.6Z"/><rect class="cls-20" x="143.17" y="50.04" width="0.42" height="0.21"/><path class="cls-22" d="M143.12,64h0v-.21h0Zm.48,0H468.85v-.21H143.6Z"/><rect class="cls-20" x="143.17" y="63.82" width="0.42" height="0.21"/><path class="cls-22" d="M195.88,77.71l-.09.11h22.86l-.08-.11Zm-52.76.11h0V77.6h0Zm.48-.22v.22h50.07l.16-.22Zm77,0,.17.22h85.32l.15-.22Zm89.6,0,.17.22H421.55l.17-.22Zm114.8,0,.16.22h43.65V77.6Z"/><path class="cls-23" d="M193.83,77.6l-.16.22h2.12l.09-.11h22.69l.08.11h2.16l-.17-.22Zm112.45,0-.15.22h4.28l-.17-.22Zm115.44,0-.17.22h3.65L425,77.6Z"/><rect class="cls-20" x="143.17" y="77.61" width="0.42" height="0.21"/><path class="cls-22" d="M143.12,91.6h0v-.21h0Zm.48-.21v.21h39.68l.16-.21Zm42,0-.16.21h44l-.16-.21Zm45.82,0,.17.21h64.35l.16-.21Zm66.79,0-.15.21h21.18l-.17-.21Zm23,0,.17.21h89.13l.17-.21Zm91.65,0-.18.21h20.85l-.16-.21Zm22.64,0,.16.21h33.19v-.21Z"/><path class="cls-23" d="M183.44,91.39l-.16.21h2.13l.16-.21Zm45.8,0,.16.21h2.16l-.17-.21Zm66.83,0-.16.21H298l.15-.21Zm23,0,.17.21h2.17l-.17-.21Zm91.64,0-.17.21h2.17l.18-.21Zm22.69,0,.16.21h2.13l-.16-.21Z"/><rect class="cls-20" x="143.17" y="91.39" width="0.42" height="0.21"/><path class="cls-22" d="M143.12,105.38h0v-.21h0Zm.48,0H149v-.21H143.6Zm31.59-.21-.16.21h65.13l-.17-.21Zm112.78,0-.16.21h42.37l-.17-.21Zm113.84,0-.17.21H444l-.16-.21Zm67,.21h0v0Z"/><path class="cls-23" d="M149,105.17v.21H175l.16-.21Zm91,0,.17.21h47.65l.16-.21Zm90,0,.17.21h71.46l.17-.21Zm113.82,0,.16.21h24.86v-.21Zm25,0Z"/><rect class="cls-20" x="143.17" y="105.17" width="0.42" height="0.21"/><path class="cls-20" d="M136.27,17.33a1.3,1.3,0,0,1,.37,0,1.34,1.34,0,0,1,.38,0v4.2a1.13,1.13,0,0,1-.37,0,1,1,0,0,1-.38,0Z"/><path class="cls-20" d="M138.67,17.33a1.3,1.3,0,0,1,.37,0,1.34,1.34,0,0,1,.38,0v4.2a1.13,1.13,0,0,1-.37,0,1,1,0,0,1-.38,0Z"/><path class="cls-20" d="M136.21,74.34c0-1.47.66-2.08,1.84-2.08s1.86.6,1.86,2.08-.68,2.08-1.86,2.08S136.21,75.82,136.21,74.34Zm.79,0c0,1.23.37,1.58,1.05,1.58s1.06-.35,1.06-1.58-.36-1.58-1.06-1.58S137,73.1,137,74.34Z"/><path class="cls-20" d="M137.46,45a1.47,1.47,0,0,1,.76,0v4.2a1.42,1.42,0,0,1-.38,0,1.25,1.25,0,0,1-.38,0Z"/><path class="cls-20" d="M139,99.81a1.52,1.52,0,0,1,.38,0,1.42,1.42,0,0,1,.38,0V104a1.47,1.47,0,0,1-.76,0v-1.89h-2.23V104a1.13,1.13,0,0,1-.37,0,1,1,0,0,1-.38,0v-4.2a1.3,1.3,0,0,1,.37,0,1.42,1.42,0,0,1,.38,0v1.79H139Z"/><polyline class="cls-24" points="148.63 50.84 173.07 22.84 219.4 22.84 241.22 51.4 264.56 22.84 286.89 22.84 332.29 78.24 354.88 50.54 377.17 78.24 401.56 78.24 423.89 50.54 445.71 50.54 468.19 78.24"/></g><g id="Warstwa_3" data-name="Warstwa 3"><polyline class="cls-25" points="149.01 105.84 173.02 105.84 195.34 76.18 219.07 76.18 241.67 104.99 285.45 104.99 307.77 75.61 331.21 105.27 400.71 105.27 423.02 75.89 445.34 104.99 469.07 104.99"/></g><g id="Warstwa_2" data-name="Warstwa 2"><polyline class="cls-26" points="148.45 50.47 173.02 22.5 219.07 22.5 241.38 51.6 264.55 22.22 287.15 22.22 331.78 78.44 354.38 49.91 377.26 78.15 401.27 78.15 424.15 50.19 445.62 50.19 467.94 77.59"/></g><g id="Warstwa_4" data-name="Warstwa 4"><path class="cls-2" d="M261.74,149.82a4.23,4.23,0,0,1,1.37.2.8.8,0,0,1-.2.56,3.7,3.7,0,0,0-1.08-.16c-.74,0-1.1.29-1.1.8s.61.67,1.26.88,1.31.52,1.31,1.44-.61,1.46-1.76,1.46a3.71,3.71,0,0,1-1.51-.29,1,1,0,0,1,.17-.57,4.68,4.68,0,0,0,1.31.22c.72,0,1.06-.27,1.06-.8s-.4-.67-.88-.83c-.73-.24-1.66-.42-1.66-1.47C260,150.4,260.59,149.82,261.74,149.82Z"/><path class="cls-2" d="M265.07,153.61c0,.64.2.83.7.83a1.72,1.72,0,0,0,.29,0,.8.8,0,0,1,.05.28.87.87,0,0,1,0,.25,1.88,1.88,0,0,1-.51.06c-.86,0-1.2-.47-1.2-1.35v-1.88h-.54a.67.67,0,0,1,0-.25.72.72,0,0,1,0-.27h.54v-.64a1.21,1.21,0,0,1,.7-.14v.78H266a.7.7,0,0,1,0,.26.76.76,0,0,1,0,.26h-.91Z"/><path class="cls-2" d="M268.18,151.18c1,0,1.55.53,1.55,1.91s-.6,1.91-1.55,1.91-1.56-.52-1.56-1.91S267.22,151.18,268.18,151.18Zm0,.54c-.52,0-.84.29-.84,1.37s.32,1.37.84,1.37.83-.29.83-1.37S268.69,151.72,268.18,151.72Z"/><path class="cls-2" d="M272.3,151.18c.8,0,1.32.48,1.32,1.91S273.1,155,272.3,155a1.12,1.12,0,0,1-1-.45v2a1.26,1.26,0,0,1-.36,0,1.1,1.1,0,0,1-.34,0V151.3a.9.9,0,0,1,.34-.05,1,1,0,0,1,.36.05v.34A1.12,1.12,0,0,1,272.3,151.18Zm-.25.57a.8.8,0,0,0-.76.89v.89a.8.8,0,0,0,.76.9c.56,0,.84-.29.84-1.34S272.61,151.75,272.05,151.75Z"/><path class="cls-2" d="M275.22,150.54a1.13,1.13,0,0,1-.37.05,1,1,0,0,1-.36-.05v-.66a1.17,1.17,0,0,1,.36,0,1.38,1.38,0,0,1,.37,0Zm0,4.35a1.22,1.22,0,0,1-.35,0,1.14,1.14,0,0,1-.35,0V151.3a.93.93,0,0,1,.35-.05,1,1,0,0,1,.35.05Z"/><path class="cls-2" d="M276.8,153.31c.06.83.39,1.1,1,1.1a1.73,1.73,0,0,0,.83-.2.67.67,0,0,1,.22.5,2.09,2.09,0,0,1-1.16.29c-1.08,0-1.58-.66-1.58-1.93s.62-1.89,1.55-1.89a1.27,1.27,0,0,1,1.39,1.41,2.88,2.88,0,0,1-.08.72Zm.83-1.58c-.45,0-.77.3-.83,1.08h1.5c0-.05,0-.17,0-.31C278.32,152.08,278.15,151.73,277.63,151.73Z"/><path class="cls-2" d="M282.68,154.89a1.22,1.22,0,0,1-.35,0,1.14,1.14,0,0,1-.35,0v-2.53c0-.39-.2-.61-.65-.61a1,1,0,0,0-.79.45v2.69a1.3,1.3,0,0,1-.35,0,1.06,1.06,0,0,1-.35,0V151.3a.87.87,0,0,1,.35-.05,1.06,1.06,0,0,1,.35.05v.32a1.33,1.33,0,0,1,1-.44,1,1,0,0,1,1.09,1.06ZM281,150.7a.58.58,0,0,1-.4-.21l.67-1a.71.71,0,0,1,.61.26Z"/><path class="cls-2" d="M286.41,151.18a2,2,0,0,1,1,.19.73.73,0,0,1-.18.5,2.49,2.49,0,0,0-.74-.12c-.48,0-.71.18-.71.51s.44.43.88.57.93.37.93,1-.44,1.12-1.33,1.12a2.49,2.49,0,0,1-1.17-.25.71.71,0,0,1,.19-.52,2.86,2.86,0,0,0,.94.18c.43,0,.68-.16.68-.51s-.39-.46-.8-.58-1-.35-1-1S285.52,151.18,286.41,151.18Z"/><path class="cls-2" d="M289.32,153.61c0,.64.2.83.7.83a1.72,1.72,0,0,0,.29,0,.8.8,0,0,1,.05.28.67.67,0,0,1,0,.25,1.75,1.75,0,0,1-.5.06c-.86,0-1.21-.47-1.21-1.35v-1.88h-.53a.55.55,0,0,1-.05-.25.6.6,0,0,1,.05-.27h.53v-.64a1.26,1.26,0,0,1,.71-.14v.78h.91a.7.7,0,0,1,0,.26.76.76,0,0,1,0,.26h-.91Z"/><path class="cls-2" d="M292.42,151.18c1,0,1.56.53,1.56,1.91s-.6,1.91-1.56,1.91-1.55-.52-1.55-1.91S291.46,151.18,292.42,151.18Zm0,.54c-.51,0-.84.29-.84,1.37s.33,1.37.84,1.37.84-.29.84-1.37S292.93,151.72,292.42,151.72Z"/><path class="cls-2" d="M298.6,151.18a1,1,0,0,1,1,1.06v2.65a1.22,1.22,0,0,1-.35,0,1.14,1.14,0,0,1-.35,0v-2.53a.54.54,0,0,0-.61-.61.88.88,0,0,0-.75.45v2.69a1.18,1.18,0,0,1-.34,0,1.06,1.06,0,0,1-.35,0v-2.53a.54.54,0,0,0-.61-.61.93.93,0,0,0-.75.44v2.7a1.18,1.18,0,0,1-.34,0,1.06,1.06,0,0,1-.35,0V151.3a.87.87,0,0,1,.35-.05,1,1,0,0,1,.34.05v.31a1.31,1.31,0,0,1,1-.43.94.94,0,0,1,.91.51A1.43,1.43,0,0,1,298.6,151.18Z"/><path class="cls-2" d="M301.92,151.18c1,0,1.33.46,1.33,1.36v2.35a.61.61,0,0,1-.27,0,.82.82,0,0,1-.28,0l-.11-.45a1.11,1.11,0,0,1-1.09.56,1,1,0,0,1-1.09-1.17c0-.76.47-1.1,1.34-1.1a7.34,7.34,0,0,1,.8.05v-.26c0-.48-.18-.75-.72-.75a3,3,0,0,0-.94.17.53.53,0,0,1-.16-.21.61.61,0,0,1,0-.29A3,3,0,0,1,301.92,151.18Zm-.08,2c-.46,0-.71.18-.71.62s.23.63.61.63c.55,0,.81-.46.81-1v-.25C302.39,153.24,302.11,153.21,301.84,153.21Z"/><path class="cls-2" d="M305.18,153.61c0,.64.21.83.7.83a1.92,1.92,0,0,0,.3,0,.8.8,0,0,1,.05.28.67.67,0,0,1,0,.25,1.75,1.75,0,0,1-.5.06c-.86,0-1.21-.47-1.21-1.35v-1.88h-.54a.67.67,0,0,1,0-.25.72.72,0,0,1,0-.27h.54v-.64a1.23,1.23,0,0,1,.7-.14v.78h.91a.57.57,0,0,1,.05.26.63.63,0,0,1-.05.26h-.91Z"/><path class="cls-2" d="M308.29,151.18c1,0,1.56.53,1.56,1.91s-.6,1.91-1.56,1.91-1.55-.52-1.55-1.91S307.33,151.18,308.29,151.18Zm0,.54c-.51,0-.84.29-.84,1.37s.33,1.37.84,1.37.84-.29.84-1.37S308.8,151.72,308.29,151.72Z"/><path class="cls-2" d="M312.42,151.18c.79,0,1.31.48,1.31,1.91s-.52,1.91-1.31,1.91a1.1,1.1,0,0,1-1-.45v2a1.26,1.26,0,0,1-.36,0,1.1,1.1,0,0,1-.34,0V151.3a.9.9,0,0,1,.34-.05,1,1,0,0,1,.36.05v.34A1.11,1.11,0,0,1,312.42,151.18Zm-.25.57a.8.8,0,0,0-.76.89v.89a.8.8,0,0,0,.76.9c.56,0,.84-.29.84-1.34S312.73,151.75,312.17,151.75Z"/><path class="cls-2" d="M315.88,151.18c1,0,1.34.46,1.34,1.36v2.35a.69.69,0,0,1-.28,0,.9.9,0,0,1-.28,0l-.1-.45a1.12,1.12,0,0,1-1.1.56,1,1,0,0,1-1.09-1.17c0-.76.47-1.1,1.35-1.1a7.52,7.52,0,0,1,.8.05v-.26c0-.48-.18-.75-.72-.75a3,3,0,0,0-.94.17.44.44,0,0,1-.16-.21.55.55,0,0,1-.05-.29A3.07,3.07,0,0,1,315.88,151.18Zm-.07,2c-.47,0-.71.18-.71.62s.23.63.61.63c.55,0,.81-.46.81-1v-.25C316.36,153.24,316.08,153.21,315.81,153.21Z"/><path class="cls-2" d="M319.15,153.61c0,.64.2.83.7.83a1.72,1.72,0,0,0,.29,0,.8.8,0,0,1,.05.28.87.87,0,0,1,0,.25,1.88,1.88,0,0,1-.51.06c-.86,0-1.2-.47-1.2-1.35v-1.88h-.54a.67.67,0,0,1,0-.25.72.72,0,0,1,0-.27h.54v-.64a1.21,1.21,0,0,1,.7-.14v.78h.91a.7.7,0,0,1,0,.26.76.76,0,0,1,0,.26h-.91Z"/><path class="cls-2" d="M321.59,150.54a1.09,1.09,0,0,1-.36.05,1,1,0,0,1-.37-.05v-.66a1.21,1.21,0,0,1,.37,0,1.34,1.34,0,0,1,.36,0Zm0,4.35a1.22,1.22,0,0,1-.35,0,1.06,1.06,0,0,1-.35,0V151.3a.87.87,0,0,1,.35-.05,1,1,0,0,1,.35.05Z"/><path class="cls-2" d="M323.34,150.54a1.09,1.09,0,0,1-.36.05,1,1,0,0,1-.37-.05v-.66a1.21,1.21,0,0,1,.37,0,1.34,1.34,0,0,1,.36,0Zm0,4.35a1.22,1.22,0,0,1-.35,0,1.06,1.06,0,0,1-.35,0V151.3a.87.87,0,0,1,.35-.05,1,1,0,0,1,.35.05Z"/><path class="cls-2" d="M261.86,161.74c.8,0,1.32.49,1.32,1.91s-.52,1.92-1.32,1.92a1.12,1.12,0,0,1-1-.46v2a1.22,1.22,0,0,1-.35,0,1.14,1.14,0,0,1-.35,0v-5.21a.93.93,0,0,1,.35-.05,1,1,0,0,1,.35.05v.34A1.12,1.12,0,0,1,261.86,161.74Zm-.24.58a.79.79,0,0,0-.77.88v.9a.8.8,0,0,0,.77.89c.56,0,.84-.29.84-1.34S262.18,162.32,261.62,162.32Z"/><path class="cls-2" d="M265.45,161.74c1,0,1.55.53,1.55,1.91s-.59,1.92-1.55,1.92-1.56-.53-1.56-1.92S264.49,161.74,265.45,161.74Zm0,.54c-.52,0-.84.29-.84,1.37s.32,1.38.84,1.38.83-.3.83-1.38S266,162.28,265.45,162.28Z"/><path class="cls-2" d="M270.16,165.45a1,1,0,0,1-.35.05.87.87,0,0,1-.35-.05v-5.16a.87.87,0,0,1,.35,0,1,1,0,0,1,.35,0Z"/><path class="cls-2" d="M271.76,163.87c.06.83.39,1.1,1,1.1a1.73,1.73,0,0,0,.83-.2.67.67,0,0,1,.22.5,2,2,0,0,1-1.16.3c-1.08,0-1.58-.67-1.58-1.94s.62-1.89,1.55-1.89a1.27,1.27,0,0,1,1.39,1.41,2.88,2.88,0,0,1-.08.72Zm.83-1.58c-.45,0-.77.31-.83,1.08h1.5c0-.05,0-.16,0-.31C273.28,162.65,273.11,162.29,272.59,162.29Z"/><path class="cls-2" d="M275.36,163.65c0,.92.29,1.32,1,1.32a1.77,1.77,0,0,0,.66-.12.72.72,0,0,1,.2.51,1.85,1.85,0,0,1-1,.21c-1,0-1.54-.67-1.54-1.92s.51-1.91,1.54-1.91a1.75,1.75,0,0,1,.93.18.69.69,0,0,1-.2.5,1.73,1.73,0,0,0-.61-.1C275.62,162.32,275.36,162.74,275.36,163.65Z"/><path class="cls-2" d="M280.32,164.92a.85.85,0,0,1,0,.29,1,1,0,0,1,0,.29h-2.6a1.37,1.37,0,0,1,0-.31,1,1,0,0,1,0-.27l1.87-2.53h-1.75a1,1,0,0,1,0-.3.82.82,0,0,1,0-.28h2.48a.67.67,0,0,1,0,.27.93.93,0,0,1,0,.31l-1.86,2.53Z"/><path class="cls-2" d="M281.76,163.87c.05.83.39,1.1,1,1.1a1.66,1.66,0,0,0,.82-.2.71.71,0,0,1,.23.5,2,2,0,0,1-1.16.3c-1.08,0-1.59-.67-1.59-1.94s.63-1.89,1.56-1.89a1.27,1.27,0,0,1,1.39,1.41,2.88,2.88,0,0,1-.08.72Zm.83-1.58c-.46,0-.78.31-.83,1.08h1.49a1.56,1.56,0,0,0,0-.31C283.28,162.65,283.11,162.29,282.59,162.29Z"/><path class="cls-2" d="M287.64,165.45a1,1,0,0,1-.35.05.93.93,0,0,1-.35-.05v-2.52c0-.4-.21-.62-.66-.62a1,1,0,0,0-.79.45v2.69a1,1,0,0,1-.35.05.93.93,0,0,1-.35-.05v-3.59a.93.93,0,0,1,.35-.05,1,1,0,0,1,.35.05v.32a1.4,1.4,0,0,1,1.06-.44,1,1,0,0,1,1.09,1.06Z"/><path class="cls-2" d="M289.36,161.1a1,1,0,0,1-.36.05,1,1,0,0,1-.36-.05v-.65a1,1,0,0,1,.36,0,1,1,0,0,1,.36,0Zm0,4.35a1,1,0,0,1-.35.05.87.87,0,0,1-.35-.05v-3.59a.87.87,0,0,1,.35-.05,1,1,0,0,1,.35.05Z"/><path class="cls-2" d="M290.36,161.86a1,1,0,0,1,.35-.05.93.93,0,0,1,.35.05v2.52c0,.39.2.62.65.62a.94.94,0,0,0,.79-.45v-2.69a1.06,1.06,0,0,1,.35-.05.87.87,0,0,1,.35.05v3.59a.87.87,0,0,1-.35.05,1.06,1.06,0,0,1-.35-.05v-.33a1.36,1.36,0,0,1-1.06.45,1,1,0,0,1-1.08-1.06Z"/><line class="cls-27" x1="258.63" y1="142.9" x2="289.01" y2="142.9"/><path class="cls-2" d="M80.94,149.82a4.23,4.23,0,0,1,1.37.2.85.85,0,0,1-.19.56,3.79,3.79,0,0,0-1.08-.16c-.74,0-1.1.29-1.1.8s.6.67,1.25.88,1.31.52,1.31,1.44S81.89,155,80.75,155a3.73,3.73,0,0,1-1.52-.29,1.15,1.15,0,0,1,.17-.57,4.77,4.77,0,0,0,1.31.22c.72,0,1.07-.27,1.07-.8s-.4-.67-.89-.83c-.73-.24-1.66-.42-1.66-1.47C79.23,150.4,79.8,149.82,80.94,149.82Z"/><path class="cls-2" d="M84.27,153.61c0,.64.21.83.7.83a1.92,1.92,0,0,0,.3,0,.8.8,0,0,1,0,.28.67.67,0,0,1,0,.25,1.8,1.8,0,0,1-.5.06c-.86,0-1.21-.47-1.21-1.35v-1.88H83a.67.67,0,0,1,0-.25.72.72,0,0,1,0-.27h.54v-.64a1.21,1.21,0,0,1,.7-.14v.78h.91a.57.57,0,0,1,0,.26.63.63,0,0,1,0,.26h-.91Z"/><path class="cls-2" d="M87.38,151.18c1,0,1.56.53,1.56,1.91s-.6,1.91-1.56,1.91-1.55-.52-1.55-1.91S86.42,151.18,87.38,151.18Zm0,.54c-.51,0-.84.29-.84,1.37s.33,1.37.84,1.37.83-.29.83-1.37S87.89,151.72,87.38,151.72Z"/><path class="cls-2" d="M91.5,151.18c.8,0,1.32.48,1.32,1.91S92.3,155,91.5,155a1.1,1.1,0,0,1-1-.45v2a1.26,1.26,0,0,1-.36,0,1.1,1.1,0,0,1-.34,0V151.3a.9.9,0,0,1,.34-.05,1,1,0,0,1,.36.05v.34A1.1,1.1,0,0,1,91.5,151.18Zm-.24.57a.8.8,0,0,0-.76.89v.89a.8.8,0,0,0,.76.9c.56,0,.84-.29.84-1.34S91.82,151.75,91.26,151.75Z"/><path class="cls-2" d="M94.42,150.54a1,1,0,0,1-.36.05,1.05,1.05,0,0,1-.37-.05v-.66a1.3,1.3,0,0,1,.37,0,1.26,1.26,0,0,1,.36,0Zm0,4.35a1.22,1.22,0,0,1-.35,0,1.06,1.06,0,0,1-.35,0V151.3a.87.87,0,0,1,.35-.05,1,1,0,0,1,.35.05Z"/><path class="cls-2" d="M96,153.31c.06.83.4,1.1,1,1.1a1.66,1.66,0,0,0,.82-.2.71.71,0,0,1,.23.5,2.09,2.09,0,0,1-1.16.29c-1.08,0-1.59-.66-1.59-1.93s.63-1.89,1.56-1.89a1.27,1.27,0,0,1,1.39,1.41,2.88,2.88,0,0,1-.08.72Zm.84-1.58c-.46,0-.78.3-.84,1.08h1.5a1.66,1.66,0,0,0,0-.31C97.53,152.08,97.36,151.73,96.84,151.73Z"/><path class="cls-2" d="M101.89,154.89a1.22,1.22,0,0,1-.35,0,1.14,1.14,0,0,1-.35,0v-2.53c0-.39-.21-.61-.66-.61a1,1,0,0,0-.79.45v2.69a1.22,1.22,0,0,1-.35,0,1.14,1.14,0,0,1-.35,0V151.3a.93.93,0,0,1,.35-.05,1,1,0,0,1,.35.05v.32a1.35,1.35,0,0,1,1.06-.44,1,1,0,0,1,1.09,1.06Zm-1.65-4.19a.54.54,0,0,1-.4-.21l.67-1a.68.68,0,0,1,.6.26Z"/><path class="cls-2" d="M105.62,151.18a2,2,0,0,1,1,.19.73.73,0,0,1-.18.5,2.46,2.46,0,0,0-.73-.12c-.48,0-.72.18-.72.51s.44.43.88.57.94.37.94,1-.45,1.12-1.34,1.12a2.54,2.54,0,0,1-1.17-.25.75.75,0,0,1,.19-.52,3,3,0,0,0,1,.18c.43,0,.67-.16.67-.51s-.38-.46-.8-.58-1-.35-1-1S104.73,151.18,105.62,151.18Z"/><path class="cls-2" d="M108.52,153.61c0,.64.2.83.7.83a1.92,1.92,0,0,0,.3,0,1,1,0,0,1,0,.28.87.87,0,0,1,0,.25,1.85,1.85,0,0,1-.5.06c-.87,0-1.21-.47-1.21-1.35v-1.88h-.54a.67.67,0,0,1,0-.25.72.72,0,0,1,0-.27h.54v-.64a1.21,1.21,0,0,1,.7-.14v.78h.91a.7.7,0,0,1,0,.26.76.76,0,0,1,0,.26h-.91Z"/><path class="cls-2" d="M111.63,151.18c1,0,1.55.53,1.55,1.91s-.59,1.91-1.55,1.91-1.56-.52-1.56-1.91S110.67,151.18,111.63,151.18Zm0,.54c-.51,0-.84.29-.84,1.37s.33,1.37.84,1.37.83-.29.83-1.37S112.14,151.72,111.63,151.72Z"/><path class="cls-2" d="M117.8,151.18a1,1,0,0,1,1,1.06v2.65a1.22,1.22,0,0,1-.35,0,1.06,1.06,0,0,1-.35,0v-2.53a.54.54,0,0,0-.61-.61.87.87,0,0,0-.75.45v2.69a1.22,1.22,0,0,1-.35,0,1,1,0,0,1-.34,0v-2.53a.54.54,0,0,0-.61-.61.93.93,0,0,0-.75.44v2.7a1.22,1.22,0,0,1-.35,0,1.14,1.14,0,0,1-.35,0V151.3a.93.93,0,0,1,.35-.05,1,1,0,0,1,.35.05v.31a1.29,1.29,0,0,1,1-.43,1,1,0,0,1,.92.51A1.4,1.4,0,0,1,117.8,151.18Z"/><path class="cls-2" d="M121.12,151.18c1,0,1.34.46,1.34,1.36v2.35a.66.66,0,0,1-.27,0,.93.93,0,0,1-.29,0l-.1-.45a1.12,1.12,0,0,1-1.1.56,1,1,0,0,1-1.09-1.17c0-.76.47-1.1,1.35-1.1a7.34,7.34,0,0,1,.8.05v-.26c0-.48-.18-.75-.72-.75a3,3,0,0,0-.94.17.44.44,0,0,1-.16-.21.5.5,0,0,1,0-.29A3,3,0,0,1,121.12,151.18Zm-.07,2c-.47,0-.71.18-.71.62s.23.63.61.63c.55,0,.81-.46.81-1v-.25C121.6,153.24,121.32,153.21,121.05,153.21Z"/><path class="cls-2" d="M124.39,153.61c0,.64.2.83.7.83a1.72,1.72,0,0,0,.29,0,.8.8,0,0,1,.05.28.87.87,0,0,1,0,.25,1.88,1.88,0,0,1-.51.06c-.86,0-1.2-.47-1.2-1.35v-1.88h-.54a.67.67,0,0,1,0-.25.72.72,0,0,1,0-.27h.54v-.64a1.21,1.21,0,0,1,.7-.14v.78h.91a.7.7,0,0,1,0,.26.76.76,0,0,1,0,.26h-.91Z"/><path class="cls-2" d="M127.5,151.18c1,0,1.55.53,1.55,1.91s-.59,1.91-1.55,1.91-1.56-.52-1.56-1.91S126.54,151.18,127.5,151.18Zm0,.54c-.51,0-.84.29-.84,1.37s.33,1.37.84,1.37.83-.29.83-1.37S128,151.72,127.5,151.72Z"/><path class="cls-2" d="M131.62,151.18c.8,0,1.32.48,1.32,1.91s-.52,1.91-1.32,1.91a1.12,1.12,0,0,1-1-.45v2a1.22,1.22,0,0,1-.35,0,1.14,1.14,0,0,1-.35,0V151.3a.93.93,0,0,1,.35-.05,1,1,0,0,1,.35.05v.34A1.12,1.12,0,0,1,131.62,151.18Zm-.24.57a.8.8,0,0,0-.77.89v.89a.81.81,0,0,0,.77.9c.56,0,.84-.29.84-1.34S131.94,151.75,131.38,151.75Z"/><path class="cls-2" d="M135.09,151.18c1,0,1.33.46,1.33,1.36v2.35a.61.61,0,0,1-.27,0,.9.9,0,0,1-.28,0l-.1-.45a1.13,1.13,0,0,1-1.1.56,1,1,0,0,1-1.09-1.17c0-.76.47-1.1,1.34-1.1a7.34,7.34,0,0,1,.8.05v-.26c0-.48-.18-.75-.72-.75a3,3,0,0,0-.94.17.53.53,0,0,1-.16-.21.61.61,0,0,1,0-.29A3.07,3.07,0,0,1,135.09,151.18Zm-.07,2c-.47,0-.72.18-.72.62s.23.63.61.63c.55,0,.81-.46.81-1v-.25C135.56,153.24,135.28,153.21,135,153.21Z"/><path class="cls-2" d="M138.36,153.61c0,.64.2.83.7.83a1.89,1.89,0,0,0,.29,0,.8.8,0,0,1,.05.28.67.67,0,0,1,0,.25,1.75,1.75,0,0,1-.5.06c-.86,0-1.21-.47-1.21-1.35v-1.88h-.54a.67.67,0,0,1,0-.25.72.72,0,0,1,0-.27h.54v-.64a1.26,1.26,0,0,1,.71-.14v.78h.91a.7.7,0,0,1,0,.26.76.76,0,0,1,0,.26h-.91Z"/><path class="cls-2" d="M140.8,150.54a1.13,1.13,0,0,1-.37.05,1,1,0,0,1-.36-.05v-.66a1.17,1.17,0,0,1,.36,0,1.38,1.38,0,0,1,.37,0Zm0,4.35a1.22,1.22,0,0,1-.35,0,1.14,1.14,0,0,1-.35,0V151.3a.93.93,0,0,1,.35-.05,1,1,0,0,1,.35.05Z"/><path class="cls-2" d="M142.55,150.54a1.13,1.13,0,0,1-.37.05,1,1,0,0,1-.36-.05v-.66a1.17,1.17,0,0,1,.36,0,1.38,1.38,0,0,1,.37,0Zm0,4.35a1.22,1.22,0,0,1-.35,0,1.14,1.14,0,0,1-.35,0V151.3a.93.93,0,0,1,.35-.05,1,1,0,0,1,.35.05Z"/><path class="cls-2" d="M81.07,161.74c.8,0,1.31.49,1.31,1.91s-.51,1.92-1.31,1.92a1.12,1.12,0,0,1-1-.46v2a1.26,1.26,0,0,1-.36,0,1.1,1.1,0,0,1-.34,0v-5.21a.9.9,0,0,1,.34-.05,1,1,0,0,1,.36.05v.34A1.12,1.12,0,0,1,81.07,161.74Zm-.25.58a.79.79,0,0,0-.76.88v.9a.8.8,0,0,0,.76.89c.56,0,.84-.29.84-1.34S81.38,162.32,80.82,162.32Z"/><path class="cls-2" d="M84.81,161.75a1.16,1.16,0,0,1,.61.17.77.77,0,0,1-.31.59.68.68,0,0,0-.43-.15.9.9,0,0,0-.72.54v2.55a1,1,0,0,1-.35.05.87.87,0,0,1-.35-.05v-3.59a.87.87,0,0,1,.35-.05,1,1,0,0,1,.35.05v.48A1,1,0,0,1,84.81,161.75Z"/><path class="cls-2" d="M88.41,164.92a.85.85,0,0,1,0,.29,1,1,0,0,1,0,.29h-2.6a1.37,1.37,0,0,1,0-.31,1,1,0,0,1,0-.27l1.87-2.53H85.93a1,1,0,0,1,0-.3.82.82,0,0,1,0-.28h2.48a.67.67,0,0,1,0,.27.93.93,0,0,1,0,.31l-1.85,2.53Z"/><path class="cls-2" d="M89.84,163.87c.06.83.4,1.1,1,1.1a1.66,1.66,0,0,0,.82-.2.71.71,0,0,1,.23.5,2,2,0,0,1-1.16.3c-1.08,0-1.59-.67-1.59-1.94s.63-1.89,1.56-1.89a1.27,1.27,0,0,1,1.39,1.41,2.88,2.88,0,0,1-.08.72Zm.84-1.58c-.46,0-.78.31-.84,1.08h1.5a1.85,1.85,0,0,0,0-.31C91.36,162.65,91.2,162.29,90.68,162.29Z"/><path class="cls-2" d="M95.41,160.24a.9.9,0,0,1,.34,0v5.16a.83.83,0,0,1-.29.05,1.05,1.05,0,0,1-.32-.05l0-.38a1.17,1.17,0,0,1-1.06.5c-.79,0-1.31-.49-1.31-1.92s.52-1.91,1.31-1.91a1.13,1.13,0,0,1,1,.46v-1.91A1,1,0,0,1,95.41,160.24Zm-1.12,2.08c-.56,0-.84.29-.84,1.33s.28,1.34.84,1.34a.8.8,0,0,0,.76-.89v-.91A.79.79,0,0,0,94.29,162.32Z"/><path class="cls-2" d="M99.07,165.45a1,1,0,0,1-.35.05.93.93,0,0,1-.35-.05v-5.16a.93.93,0,0,1,.35,0,1,1,0,0,1,.35,0Z"/><path class="cls-2" d="M100.67,163.87c.06.83.4,1.1,1,1.1a1.71,1.71,0,0,0,.82-.2.71.71,0,0,1,.23.5,2.05,2.05,0,0,1-1.17.3c-1.07,0-1.58-.67-1.58-1.94s.63-1.89,1.56-1.89a1.26,1.26,0,0,1,1.38,1.41,3.26,3.26,0,0,1-.07.72Zm.84-1.58c-.46,0-.78.31-.84,1.08h1.5a1.85,1.85,0,0,0,0-.31C102.19,162.65,102,162.29,101.51,162.29Z"/><path class="cls-2" d="M104.27,163.65c0,.92.3,1.32,1,1.32a1.84,1.84,0,0,0,.66-.12.76.76,0,0,1,.2.51,1.92,1.92,0,0,1-1,.21c-1,0-1.54-.67-1.54-1.92s.52-1.91,1.54-1.91a1.82,1.82,0,0,1,.94.18.73.73,0,0,1-.2.5,1.82,1.82,0,0,0-.62-.1C104.54,162.32,104.27,162.74,104.27,163.65Z"/><path class="cls-2" d="M109.23,164.92a.7.7,0,0,1,0,.29.83.83,0,0,1,0,.29h-2.59a1.37,1.37,0,0,1,0-.31,1,1,0,0,1,0-.27l1.86-2.53h-1.74a.85.85,0,0,1-.05-.3.68.68,0,0,1,.05-.28h2.47a.65.65,0,0,1,0,.27.91.91,0,0,1,0,.31l-1.85,2.53Z"/><path class="cls-2" d="M110.67,163.87c.06.83.39,1.1,1,1.1a1.73,1.73,0,0,0,.83-.2.67.67,0,0,1,.22.5,2,2,0,0,1-1.16.3c-1.08,0-1.58-.67-1.58-1.94s.62-1.89,1.55-1.89a1.27,1.27,0,0,1,1.39,1.41,2.88,2.88,0,0,1-.08.72Zm.83-1.58c-.45,0-.77.31-.83,1.08h1.5a1.85,1.85,0,0,0,0-.31C112.19,162.65,112,162.29,111.5,162.29Z"/><path class="cls-2" d="M116.55,165.45a1,1,0,0,1-.35.05.93.93,0,0,1-.35-.05v-2.52c0-.4-.2-.62-.65-.62a1,1,0,0,0-.79.45v2.69a1.06,1.06,0,0,1-.35.05.87.87,0,0,1-.35-.05v-3.59a.87.87,0,0,1,.35-.05,1.06,1.06,0,0,1,.35.05v.32a1.37,1.37,0,0,1,1.06-.44,1,1,0,0,1,1.08,1.06Z"/><path class="cls-2" d="M118.28,161.1a1.13,1.13,0,0,1-.37.05,1,1,0,0,1-.36-.05v-.65a1,1,0,0,1,.36,0,1.13,1.13,0,0,1,.37,0Zm0,4.35a1.25,1.25,0,0,1-.7,0v-3.59a1.25,1.25,0,0,1,.7,0Z"/><path class="cls-2" d="M119.86,163.87c.06.83.39,1.1,1,1.1a1.73,1.73,0,0,0,.83-.2.67.67,0,0,1,.22.5,2,2,0,0,1-1.16.3c-1.08,0-1.58-.67-1.58-1.94s.62-1.89,1.55-1.89a1.27,1.27,0,0,1,1.39,1.41,2.88,2.88,0,0,1-.08.72Zm.83-1.58c-.45,0-.77.31-.83,1.08h1.5a1.85,1.85,0,0,0,0-.31C121.38,162.65,121.21,162.29,120.69,162.29Z"/><path class="cls-2" d="M126.66,161.74a1,1,0,0,1,1,1.06v2.65a1,1,0,0,1-.35.05.93.93,0,0,1-.35-.05v-2.52a.54.54,0,0,0-.61-.62.88.88,0,0,0-.75.45v2.69a1,1,0,0,1-.34.05.87.87,0,0,1-.35-.05v-2.52a.54.54,0,0,0-.61-.62.93.93,0,0,0-.75.44v2.7a1,1,0,0,1-.34.05.87.87,0,0,1-.35-.05v-3.59a.87.87,0,0,1,.35-.05,1,1,0,0,1,.34.05v.32a1.32,1.32,0,0,1,1-.44.94.94,0,0,1,.91.51A1.43,1.43,0,0,1,126.66,161.74Z"/><line class="cls-28" x1="78.85" y1="142.9" x2="109.23" y2="142.9"/><path class="cls-2" d="M442.67,153.23a1.77,1.77,0,1,1-3.54,0v-3.29a1,1,0,0,1,.36-.05,1,1,0,0,1,.35.05v3.4a1,1,0,0,0,1.07,1.06,1,1,0,0,0,1-1.06v-3.4a1,1,0,0,1,.35-.05,1.09,1.09,0,0,1,.36.05Z"/><path class="cls-2" d="M444.85,151.18a2,2,0,0,1,1,.19.73.73,0,0,1-.18.5,2.49,2.49,0,0,0-.74-.12c-.47,0-.71.18-.71.51s.44.43.88.57.93.37.93,1-.44,1.12-1.33,1.12a2.54,2.54,0,0,1-1.17-.25.75.75,0,0,1,.19-.52,3,3,0,0,0,1,.18c.43,0,.67-.16.67-.51s-.38-.46-.8-.58-1-.35-1-1S444,151.18,444.85,151.18Z"/><path class="cls-2" d="M447.76,153.61c0,.64.2.83.7.83a1.72,1.72,0,0,0,.29,0,.8.8,0,0,1,.05.28.87.87,0,0,1,0,.25,1.88,1.88,0,0,1-.51.06c-.86,0-1.2-.47-1.2-1.35v-1.88h-.54a.67.67,0,0,1,0-.25.72.72,0,0,1,0-.27h.54v-.64a1.21,1.21,0,0,1,.7-.14v.78h.91a.7.7,0,0,1,0,.26.76.76,0,0,1,0,.26h-.91Z"/><path class="cls-2" d="M450.75,151.18c1,0,1.34.46,1.34,1.36v2.35c-.44.13-.7.4-.7.68s.1.31.37.31a.65.65,0,0,0,.24,0,.42.42,0,0,1,.11.32,1.05,1.05,0,0,1-.47.12c-.46,0-.74-.24-.74-.6a1,1,0,0,1,.63-.81l-.1-.42a1.12,1.12,0,0,1-1.1.56,1,1,0,0,1-1.09-1.17c0-.74.47-1.1,1.35-1.1a7.71,7.71,0,0,1,.8.05v-.28c0-.5-.18-.73-.72-.73a2.93,2.93,0,0,0-.94.17.39.39,0,0,1-.16-.21.55.55,0,0,1-.05-.29A3.07,3.07,0,0,1,450.75,151.18Zm-.07,2c-.47,0-.72.19-.72.62a.55.55,0,0,0,.61.63.86.86,0,0,0,.82-1v-.24C451.23,153.24,451,153.21,450.68,153.21Z"/><path class="cls-2" d="M454.79,151.18c.8,0,1.31.48,1.31,1.91s-.51,1.91-1.31,1.91a1.12,1.12,0,0,1-1-.45v2a1.26,1.26,0,0,1-.36,0,1.1,1.1,0,0,1-.34,0V151.3a.9.9,0,0,1,.34-.05,1,1,0,0,1,.36.05v.34A1.12,1.12,0,0,1,454.79,151.18Zm-.25.57a.8.8,0,0,0-.76.89v.89a.8.8,0,0,0,.76.9c.56,0,.84-.29.84-1.34S455.1,151.75,454.54,151.75Z"/><path class="cls-2" d="M457.71,150.54a1.13,1.13,0,0,1-.37.05,1,1,0,0,1-.36-.05v-.66a1.17,1.17,0,0,1,.36,0,1.38,1.38,0,0,1,.37,0Zm0,4.35a1.22,1.22,0,0,1-.35,0,1.14,1.14,0,0,1-.35,0V151.3a.93.93,0,0,1,.35-.05,1,1,0,0,1,.35.05Z"/><path class="cls-2" d="M459.29,153.31c0,.83.39,1.1,1,1.1a1.73,1.73,0,0,0,.83-.2.71.71,0,0,1,.22.5,2.09,2.09,0,0,1-1.16.29c-1.08,0-1.58-.66-1.58-1.93s.62-1.89,1.55-1.89a1.27,1.27,0,0,1,1.39,1.41,2.88,2.88,0,0,1-.08.72Zm.83-1.58c-.45,0-.78.3-.83,1.08h1.5c0-.05,0-.17,0-.31C460.81,152.08,460.64,151.73,460.12,151.73Z"/><path class="cls-2" d="M465.17,154.89a1.22,1.22,0,0,1-.35,0,1.14,1.14,0,0,1-.35,0v-2.53c0-.39-.2-.61-.65-.61a1,1,0,0,0-.79.45v2.69a1.3,1.3,0,0,1-.35,0,1.06,1.06,0,0,1-.35,0V151.3a.87.87,0,0,1,.35-.05,1.06,1.06,0,0,1,.35.05v.32a1.33,1.33,0,0,1,1.05-.44,1,1,0,0,1,1.09,1.06Z"/><path class="cls-2" d="M466.9,150.54a1.13,1.13,0,0,1-.37.05,1,1,0,0,1-.36-.05v-.66a1.17,1.17,0,0,1,.36,0,1.38,1.38,0,0,1,.37,0Zm0,4.35a1.22,1.22,0,0,1-.35,0,1.14,1.14,0,0,1-.35,0V151.3a.93.93,0,0,1,.35-.05,1,1,0,0,1,.35.05Z"/><path class="cls-2" d="M468.48,153.31c.06.83.39,1.1,1,1.1a1.73,1.73,0,0,0,.83-.2.67.67,0,0,1,.22.5,2.09,2.09,0,0,1-1.16.29c-1.08,0-1.58-.66-1.58-1.93s.62-1.89,1.55-1.89a1.27,1.27,0,0,1,1.39,1.41,2.88,2.88,0,0,1-.08.72Zm.83-1.58c-.45,0-.77.3-.83,1.08H470c0-.05,0-.17,0-.31C470,152.08,469.83,151.73,469.31,151.73Z"/><path class="cls-2" d="M475.62,149.68a.9.9,0,0,1,.34,0v5.16a1,1,0,0,1-.29,0,1.29,1.29,0,0,1-.32,0l0-.38a1.18,1.18,0,0,1-1.05.49c-.8,0-1.32-.48-1.32-1.91s.52-1.91,1.32-1.91a1.11,1.11,0,0,1,1,.46v-1.91A1,1,0,0,1,475.62,149.68Zm-1.12,2.07c-.56,0-.84.3-.84,1.34s.28,1.34.84,1.34a.8.8,0,0,0,.76-.9v-.9A.8.8,0,0,0,474.5,151.75Z"/><path class="cls-2" d="M478.38,151.18c1,0,1.55.53,1.55,1.91s-.59,1.91-1.55,1.91-1.56-.52-1.56-1.91S477.42,151.18,478.38,151.18Zm0,.54c-.51,0-.84.29-.84,1.37s.33,1.37.84,1.37.83-.29.83-1.37S478.89,151.72,478.38,151.72Z"/><path class="cls-2" d="M481.51,154.89a1.22,1.22,0,0,1-.35,0,1.14,1.14,0,0,1-.35,0v-5.16a.93.93,0,0,1,.35,0,1,1,0,0,1,.35,0Z"/><path class="cls-2" d="M483.12,153.31c.05.83.39,1.1,1,1.1a1.73,1.73,0,0,0,.83-.2.75.75,0,0,1,.22.5A2.09,2.09,0,0,1,484,155c-1.08,0-1.58-.66-1.58-1.93s.62-1.89,1.55-1.89a1.27,1.27,0,0,1,1.39,1.41,2.88,2.88,0,0,1-.08.72Zm.83-1.58c-.45,0-.78.3-.83,1.08h1.5c0-.05,0-.17,0-.31C484.64,152.08,484.47,151.73,484,151.73Z"/><path class="cls-2" d="M489.14,151.18a.75.75,0,0,1,0,.55l-.58,0a1.21,1.21,0,0,1,.2.73c0,.79-.47,1.26-1.37,1.26l-.31,0a.58.58,0,0,0-.13.41c.07.64,2.19-.05,2.19,1.4,0,.68-.67,1.2-1.8,1.2s-1.49-.42-1.49-1a1.21,1.21,0,0,1,.62-1,.53.53,0,0,1-.16-.4,1.27,1.27,0,0,1,.34-.78,1.14,1.14,0,0,1-.64-1.12,1.2,1.2,0,0,1,1.38-1.26,1.72,1.72,0,0,1,.77.16Zm-2.29,3.75a.83.83,0,0,0-.32.64c0,.35.25.62.83.62s1.11-.26,1.11-.63C488.47,155,487.48,155.13,486.85,154.93Zm.54-3.26a.68.68,0,0,0-.71.77.66.66,0,0,0,.71.76c.42,0,.7-.23.7-.76S487.81,151.67,487.39,151.67Z"/><path class="cls-2" d="M490.59,154.89a1.22,1.22,0,0,1-.35,0,1.14,1.14,0,0,1-.35,0v-5.16a.93.93,0,0,1,.35,0,1,1,0,0,1,.35,0Z"/><path class="cls-2" d="M492.36,150.54a1,1,0,0,1-.36.05,1.05,1.05,0,0,1-.37-.05v-.66a1.3,1.3,0,0,1,.37,0,1.26,1.26,0,0,1,.36,0Zm0,4.35a1.22,1.22,0,0,1-.35,0,1.06,1.06,0,0,1-.35,0V151.3a.87.87,0,0,1,.35-.05,1,1,0,0,1,.35.05Z"/><path class="cls-2" d="M495.88,153a4.25,4.25,0,0,1-.19-1h0a4.32,4.32,0,0,1-.2,1l-.55,1.9a1.54,1.54,0,0,1-.4,0,1.64,1.64,0,0,1-.4,0l-1.06-3.59a1,1,0,0,1,.35-.05c.24,0,.3.05.3.05l.67,2.23a4.14,4.14,0,0,1,.14.69h0c0-.15.07-.38.16-.69l.64-2.23a1.5,1.5,0,0,1,.38-.05.9.9,0,0,1,.34.05l.63,2.22a4.42,4.42,0,0,1,.14.7h0a5.94,5.94,0,0,1,.17-.69l.66-2.23a.81.81,0,0,1,.31-.05.62.62,0,0,1,.3.05l-1.06,3.59a1.64,1.64,0,0,1-.4,0,1.75,1.75,0,0,1-.4,0Z"/><path class="cls-2" d="M500.32,151.18c1,0,1.55.53,1.55,1.91s-.6,1.91-1.55,1.91-1.56-.52-1.56-1.91S499.36,151.18,500.32,151.18Zm0,.54c-.52,0-.85.29-.85,1.37s.33,1.37.85,1.37.83-.29.83-1.37S500.83,151.72,500.32,151.72Z"/><path class="cls-2" d="M503.89,151.18a2,2,0,0,1,1,.19.73.73,0,0,1-.18.5,2.46,2.46,0,0,0-.73-.12c-.48,0-.72.18-.72.51s.39.42.82.55,1,.35,1,1.07-.45,1.12-1.34,1.12a2.54,2.54,0,0,1-1.17-.25.75.75,0,0,1,.19-.52,3,3,0,0,0,.95.18c.43,0,.67-.16.67-.51s-.39-.47-.81-.59-1-.34-1-1S503,151.18,503.89,151.18Zm-.24-.48a.54.54,0,0,1-.4-.21l.66-1a.69.69,0,0,1,.61.26Z"/><path class="cls-2" d="M506.41,153.09c0,.92.3,1.32,1,1.32a1.84,1.84,0,0,0,.66-.12.76.76,0,0,1,.2.5,1.92,1.92,0,0,1-1,.21c-1,0-1.54-.66-1.54-1.91s.52-1.91,1.54-1.91a1.91,1.91,0,0,1,.94.17.75.75,0,0,1-.2.51,1.68,1.68,0,0,0-.62-.11C506.68,151.75,506.41,152.18,506.41,153.09Z"/><path class="cls-2" d="M509.71,150.54a1.13,1.13,0,0,1-.37.05,1,1,0,0,1-.36-.05v-.66a1.17,1.17,0,0,1,.36,0,1.38,1.38,0,0,1,.37,0Zm0,4.35a1.55,1.55,0,0,1-.7,0V151.3a1.25,1.25,0,0,1,.7,0Z"/><path class="cls-2" d="M514.36,151.3a1.14,1.14,0,0,1,.35-.05,1.5,1.5,0,0,1,.35,0L514,153l1.24,1.92a1.44,1.44,0,0,1-.39.05,1.23,1.23,0,0,1-.38-.05l-1.05-1.62H513v1.62a1.4,1.4,0,0,1-.35,0,1.3,1.3,0,0,1-.35,0v-5.17a1.4,1.4,0,0,1,.35,0,1.61,1.61,0,0,1,.35,0v3h.4Z"/><path class="cls-2" d="M516.53,154.89a1.22,1.22,0,0,1-.35,0,1.14,1.14,0,0,1-.35,0v-5.16a.93.93,0,0,1,.35,0,1,1,0,0,1,.35,0Z"/><path class="cls-2" d="M518.3,150.54a1,1,0,0,1-.36.05,1,1,0,0,1-.36-.05v-.66a1.17,1.17,0,0,1,.36,0,1.26,1.26,0,0,1,.36,0Zm0,4.35a1.22,1.22,0,0,1-.35,0,1.14,1.14,0,0,1-.35,0V151.3a.93.93,0,0,1,.35-.05,1,1,0,0,1,.35.05Z"/><path class="cls-2" d="M522.17,154.89a1.22,1.22,0,0,1-.35,0,1.14,1.14,0,0,1-.35,0v-2.53c0-.39-.2-.61-.65-.61a1,1,0,0,0-.79.45v2.69a1.3,1.3,0,0,1-.35,0,1.06,1.06,0,0,1-.35,0V151.3a.87.87,0,0,1,.35-.05,1.06,1.06,0,0,1,.35.05v.32a1.34,1.34,0,0,1,1.06-.44,1,1,0,0,1,1.08,1.06Z"/><path class="cls-2" d="M523.9,150.54a1.13,1.13,0,0,1-.37.05,1,1,0,0,1-.36-.05v-.66a1.17,1.17,0,0,1,.36,0,1.38,1.38,0,0,1,.37,0Zm0,4.35a1.22,1.22,0,0,1-.35,0,1.14,1.14,0,0,1-.35,0V151.3a.93.93,0,0,1,.35-.05,1,1,0,0,1,.35.05Z"/><path class="cls-2" d="M525.48,153.09c0,.92.29,1.32,1,1.32a1.75,1.75,0,0,0,.65-.12.76.76,0,0,1,.21.5,1.92,1.92,0,0,1-1,.21c-1,0-1.54-.66-1.54-1.91s.52-1.91,1.54-1.91a1.91,1.91,0,0,1,.94.17.72.72,0,0,1-.21.51,1.59,1.59,0,0,0-.61-.11C525.75,151.75,525.48,152.18,525.48,153.09Z"/><path class="cls-2" d="M530.44,154.36a.7.7,0,0,1,0,.29.73.73,0,0,1,0,.28h-2.59a.9.9,0,0,1-.05-.3.68.68,0,0,1,.05-.27l1.86-2.54H528a.93.93,0,0,1,0-.29.82.82,0,0,1,0-.28h2.48a.65.65,0,0,1,0,.27.81.81,0,0,1,0,.3l-1.85,2.54Z"/><path class="cls-2" d="M534.16,154.89a1.22,1.22,0,0,1-.35,0,1.14,1.14,0,0,1-.35,0v-2.53c0-.39-.2-.61-.65-.61a1,1,0,0,0-.79.45v2.69a1.3,1.3,0,0,1-.35,0,1.06,1.06,0,0,1-.35,0V151.3a.87.87,0,0,1,.35-.05,1.06,1.06,0,0,1,.35.05v.32a1.34,1.34,0,0,1,1.06-.44,1,1,0,0,1,1.08,1.06Z"/><path class="cls-2" d="M536.79,155.47c-.26.77-.5,1.22-1.26,1.22a.87.87,0,0,1-.38-.08.67.67,0,0,1,0-.25.8.8,0,0,1,0-.28l.32,0c.31,0,.48-.08.69-.74l.14-.43a.6.6,0,0,1-.22,0l-1.33-3.59a1.09,1.09,0,0,1,.36-.05,1.13,1.13,0,0,1,.37.05l.79,2.13a6.09,6.09,0,0,1,.25.82h0s.07-.33.22-.81l.69-2.14a1,1,0,0,1,.35-.05,1,1,0,0,1,.33.05Z"/><path class="cls-2" d="M539.3,153.09c0,.92.29,1.32,1,1.32a1.77,1.77,0,0,0,.66-.12.76.76,0,0,1,.21.5,1.92,1.92,0,0,1-1,.21c-1,0-1.54-.66-1.54-1.91s.51-1.91,1.54-1.91a1.84,1.84,0,0,1,.93.17.71.71,0,0,1-.2.51,1.59,1.59,0,0,0-.61-.11C539.56,151.75,539.3,152.18,539.3,153.09Z"/><path class="cls-2" d="M544.71,154.89a1.22,1.22,0,0,1-.35,0,1.14,1.14,0,0,1-.35,0v-2.53c0-.39-.2-.61-.65-.61a1,1,0,0,0-.79.45v2.69a1.3,1.3,0,0,1-.35,0,1.06,1.06,0,0,1-.35,0v-5.16a.87.87,0,0,1,.35,0,1.06,1.06,0,0,1,.35,0v1.89a1.33,1.33,0,0,1,1-.44,1,1,0,0,1,1.09,1.06Z"/><path class="cls-2" d="M440.45,159.58c1,0,1.56.53,1.56,1.91s-.6,1.91-1.56,1.91-1.55-.52-1.55-1.91S439.49,159.58,440.45,159.58Zm0,.54c-.51,0-.84.29-.84,1.37s.33,1.37.84,1.37.84-.29.84-1.37S441,160.12,440.45,160.12Z"/><path class="cls-2" d="M444.42,159.59a1.08,1.08,0,0,1,.61.17.77.77,0,0,1-.31.59.68.68,0,0,0-.43-.15.89.89,0,0,0-.72.54v2.55a1.22,1.22,0,0,1-.35,0,1.06,1.06,0,0,1-.35,0V159.7a.87.87,0,0,1,.35,0,1,1,0,0,1,.35,0v.48A1,1,0,0,1,444.42,159.59Z"/><path class="cls-2" d="M446.86,159.58c1,0,1.33.46,1.33,1.36v2.35a.61.61,0,0,1-.27,0,.9.9,0,0,1-.28,0l-.1-.45a1.13,1.13,0,0,1-1.1.56,1,1,0,0,1-1.09-1.17c0-.76.47-1.09,1.35-1.09a7.74,7.74,0,0,1,.79,0v-.26c0-.48-.18-.75-.72-.75a3,3,0,0,0-.94.17.53.53,0,0,1-.16-.21.61.61,0,0,1,0-.29A3.07,3.07,0,0,1,446.86,159.58Zm-.07,2c-.47,0-.72.18-.72.62s.23.63.61.63c.55,0,.81-.46.81-1v-.25C447.33,161.64,447.05,161.61,446.79,161.61Z"/><path class="cls-2" d="M451.58,162.76a.85.85,0,0,1,0,.29.9.9,0,0,1,0,.28H449a1.21,1.21,0,0,1,0-.3,1,1,0,0,1,0-.27l1.87-2.53H449.1a1,1,0,0,1,0-.3.82.82,0,0,1,0-.28h2.48a.67.67,0,0,1,0,.27.93.93,0,0,1,0,.31l-1.85,2.53Z"/><path class="cls-2" d="M455.42,159.58c1,0,1.56.53,1.56,1.91s-.6,1.91-1.56,1.91-1.55-.52-1.55-1.91S454.46,159.58,455.42,159.58Zm0,.54c-.51,0-.84.29-.84,1.37s.33,1.37.84,1.37.84-.29.84-1.37S455.94,160.12,455.42,160.12Z"/><path class="cls-2" d="M460.37,158.08a.9.9,0,0,1,.34,0v5.16a1,1,0,0,1-.29,0,1.29,1.29,0,0,1-.32,0l-.05-.38a1.13,1.13,0,0,1-1.05.49c-.8,0-1.32-.48-1.32-1.91s.52-1.91,1.32-1.91a1.13,1.13,0,0,1,1,.46v-1.91A1,1,0,0,1,460.37,158.08Zm-1.12,2.07c-.56,0-.84.3-.84,1.34s.28,1.34.84,1.34a.8.8,0,0,0,.76-.9V161A.8.8,0,0,0,459.25,160.15Z"/><path class="cls-2" d="M462.29,161.49c0,.92.3,1.32,1,1.32a1.84,1.84,0,0,0,.66-.12.76.76,0,0,1,.2.5,1.92,1.92,0,0,1-1,.21c-1,0-1.54-.66-1.54-1.91s.52-1.91,1.54-1.91a1.82,1.82,0,0,1,.94.18.75.75,0,0,1-.2.5,1.68,1.68,0,0,0-.62-.11C462.56,160.15,462.29,160.58,462.29,161.49Z"/><path class="cls-2" d="M467.26,162.76a.85.85,0,0,1,0,.29.9.9,0,0,1,0,.28h-2.6a1.21,1.21,0,0,1,0-.3,1,1,0,0,1,0-.27l1.86-2.53h-1.74a.85.85,0,0,1,0-.3.68.68,0,0,1,0-.28h2.48a.91.91,0,0,1,0,.27,1.3,1.3,0,0,1,0,.31l-1.86,2.53Z"/><path class="cls-2" d="M468.1,159.7a1,1,0,0,1,.35,0,.93.93,0,0,1,.35,0v2.52c0,.39.2.62.65.62a.94.94,0,0,0,.79-.45V159.7a1.06,1.06,0,0,1,.35,0,.87.87,0,0,1,.35,0v3.59a1.06,1.06,0,0,1-.35,0,1.3,1.3,0,0,1-.35,0V163a1.34,1.34,0,0,1-1.05.44,1,1,0,0,1-1.09-1.05Z"/><path class="cls-2" d="M474.46,161.39a4.25,4.25,0,0,1-.19-1h0a4.74,4.74,0,0,1-.19,1l-.56,1.9a1.54,1.54,0,0,1-.4,0,1.64,1.64,0,0,1-.4,0l-1.06-3.59a1,1,0,0,1,.35,0c.24,0,.3,0,.3,0l.67,2.23a4.14,4.14,0,0,1,.14.69h0c0-.15.07-.38.16-.69l.64-2.23a1.5,1.5,0,0,1,.38,0,.9.9,0,0,1,.34,0l.63,2.22a4.42,4.42,0,0,1,.14.7h0a5.94,5.94,0,0,1,.17-.69l.66-2.23a.81.81,0,0,1,.31,0,.62.62,0,0,1,.3,0l-1.06,3.59a1.64,1.64,0,0,1-.4,0,1.75,1.75,0,0,1-.4,0Z"/><path class="cls-2" d="M478.77,159.58c1,0,1.34.46,1.34,1.36v2.35a.69.69,0,0,1-.28,0,.9.9,0,0,1-.28,0l-.1-.45a1.12,1.12,0,0,1-1.1.56,1,1,0,0,1-1.09-1.17c0-.76.47-1.09,1.35-1.09.31,0,.61,0,.8,0v-.26c0-.48-.19-.75-.72-.75a3,3,0,0,0-.94.17.44.44,0,0,1-.16-.21.55.55,0,0,1,0-.29A3.07,3.07,0,0,1,478.77,159.58Zm-.07,2c-.47,0-.71.18-.71.62s.23.63.6.63a.85.85,0,0,0,.82-1v-.25C479.25,161.64,479,161.61,478.7,161.61Z"/><path class="cls-2" d="M481.82,163.29a1.22,1.22,0,0,1-.35,0,1.14,1.14,0,0,1-.35,0v-5.16a.93.93,0,0,1,.35,0,1,1,0,0,1,.35,0Z"/><path class="cls-2" d="M485.71,163.29a1.22,1.22,0,0,1-.35,0,1.14,1.14,0,0,1-.35,0v-2.53c0-.39-.21-.61-.65-.61a1,1,0,0,0-.8.45v2.69a1.22,1.22,0,0,1-.35,0,1.14,1.14,0,0,1-.35,0V159.7a.93.93,0,0,1,.35,0,1,1,0,0,1,.35,0V160a1.37,1.37,0,0,1,1.06-.44,1,1,0,0,1,1.09,1.06Z"/><path class="cls-2" d="M488.33,163.87c-.25.77-.5,1.22-1.25,1.22a1.06,1.06,0,0,1-.39-.07.83.83,0,0,1-.05-.26.54.54,0,0,1,.06-.28,2.66,2.66,0,0,0,.31,0c.32,0,.48-.08.69-.74l.15-.43a.66.66,0,0,1-.23,0l-1.33-3.59a1.2,1.2,0,0,1,.37,0,1,1,0,0,1,.36,0l.8,2.13a6.09,6.09,0,0,1,.25.82h0a8.27,8.27,0,0,1,.23-.81l.69-2.14a.9.9,0,0,1,.34,0,.93.93,0,0,1,.33,0Z"/><path class="cls-2" d="M490.84,161.49c0,.92.3,1.32,1,1.32a1.77,1.77,0,0,0,.66-.12.71.71,0,0,1,.2.5,1.92,1.92,0,0,1-1,.21c-1,0-1.54-.66-1.54-1.91s.52-1.91,1.54-1.91a1.78,1.78,0,0,1,.94.18.7.7,0,0,1-.2.5,1.68,1.68,0,0,0-.62-.11C491.11,160.15,490.84,160.58,490.84,161.49Z"/><path class="cls-2" d="M496.26,163.29a1.22,1.22,0,0,1-.35,0,1.14,1.14,0,0,1-.35,0v-2.53c0-.39-.21-.61-.66-.61a1,1,0,0,0-.79.45v2.69a1.22,1.22,0,0,1-.35,0,1.14,1.14,0,0,1-.35,0v-5.16a.93.93,0,0,1,.35,0,1,1,0,0,1,.35,0V160a1.37,1.37,0,0,1,1.06-.44,1,1,0,0,1,1.09,1.06Z"/><path class="cls-2" d="M498.8,159.7a1,1,0,0,1,.35,0,.93.93,0,0,1,.35,0v2.52a.57.57,0,0,0,.65.62,1,1,0,0,0,.8-.45V159.7a1,1,0,0,1,.35,0,.93.93,0,0,1,.35,0v3.59a1.14,1.14,0,0,1-.35,0,1.22,1.22,0,0,1-.35,0V163a1.38,1.38,0,0,1-1.06.44,1,1,0,0,1-1.09-1.05Z"/><path class="cls-2" d="M506,159.58c.8,0,1.32.48,1.32,1.91s-.52,1.91-1.32,1.91a1.12,1.12,0,0,1-1-.45v2a1.22,1.22,0,0,1-.35,0,1.14,1.14,0,0,1-.35,0V159.7a.93.93,0,0,1,.35,0,1,1,0,0,1,.35,0V160A1.12,1.12,0,0,1,506,159.58Zm-.24.57a.8.8,0,0,0-.77.89v.89a.8.8,0,0,0,.77.9c.56,0,.84-.29.84-1.34S506.27,160.15,505.71,160.15Z"/><path class="cls-2" d="M509.42,159.58c1,0,1.33.46,1.33,1.36v2.35a.61.61,0,0,1-.27,0,.82.82,0,0,1-.28,0l-.11-.45a1.11,1.11,0,0,1-1.09.56,1,1,0,0,1-1.09-1.17c0-.76.47-1.09,1.34-1.09a7.8,7.8,0,0,1,.8,0v-.26c0-.48-.18-.75-.72-.75a3,3,0,0,0-.94.17.53.53,0,0,1-.16-.21.61.61,0,0,1,0-.29A3,3,0,0,1,509.42,159.58Zm-.08,2c-.46,0-.71.18-.71.62s.23.63.61.63c.55,0,.81-.46.81-1v-.25C509.89,161.64,509.61,161.61,509.34,161.61Z"/><path class="cls-2" d="M512.31,161.49c0,.92.29,1.32,1,1.32a1.77,1.77,0,0,0,.66-.12.71.71,0,0,1,.2.5,1.85,1.85,0,0,1-1,.21c-1,0-1.54-.66-1.54-1.91s.51-1.91,1.54-1.91a1.75,1.75,0,0,1,.93.18.7.7,0,0,1-.2.5,1.61,1.61,0,0,0-.62-.11C512.57,160.15,512.31,160.58,512.31,161.49Z"/><path class="cls-2" d="M514.89,159.7a.87.87,0,0,1,.35,0,1,1,0,0,1,.35,0V164c0,.74-.36,1.14-1,1.14a1.41,1.41,0,0,1-.47-.07.65.65,0,0,1,0-.16.77.77,0,0,1,.07-.36,1.2,1.2,0,0,0,.26,0c.32,0,.48-.17.48-.55Zm.71-.76a1.26,1.26,0,0,1-.36,0,1.17,1.17,0,0,1-.36,0v-.66a1,1,0,0,1,.36-.05,1,1,0,0,1,.36.05Z"/><path class="cls-2" d="M517.18,161.71c.06.83.4,1.1,1,1.1a1.66,1.66,0,0,0,.82-.2.71.71,0,0,1,.23.5,2.09,2.09,0,0,1-1.16.29c-1.08,0-1.59-.66-1.59-1.93s.63-1.89,1.56-1.89a1.27,1.27,0,0,1,1.39,1.41,2.88,2.88,0,0,1-.08.72Zm.84-1.58c-.46,0-.78.31-.84,1.08h1.5a1.66,1.66,0,0,0,0-.31C518.71,160.48,518.54,160.13,518,160.13Z"/><path class="cls-2" d="M523.07,163.29a1.22,1.22,0,0,1-.35,0,1.14,1.14,0,0,1-.35,0v-2.53c0-.39-.21-.61-.66-.61a1,1,0,0,0-.79.45v2.69a1.22,1.22,0,0,1-.35,0,1.14,1.14,0,0,1-.35,0V159.7a.93.93,0,0,1,.35,0,1,1,0,0,1,.35,0V160a1.35,1.35,0,0,1,1.06-.44,1,1,0,0,1,1.09,1.06Z"/><path class="cls-2" d="M525,162c0,.64.21.83.7.83a1.92,1.92,0,0,0,.3,0,.8.8,0,0,1,0,.28.67.67,0,0,1,0,.25,1.75,1.75,0,0,1-.5.06c-.86,0-1.21-.46-1.21-1.35v-1.87h-.54a.76.76,0,0,1,0-.26.72.72,0,0,1,0-.27h.54V159a1.23,1.23,0,0,1,.7-.14v.78h.91a.57.57,0,0,1,.05.26.71.71,0,0,1-.05.27H525Z"/><path class="cls-2" d="M528,159.58c1,0,1.34.46,1.34,1.36v2.35a.66.66,0,0,1-.27,0,.82.82,0,0,1-.28,0l-.11-.45a1.12,1.12,0,0,1-1.1.56c-.66,0-1.08-.38-1.08-1.17s.47-1.09,1.34-1.09a7.8,7.8,0,0,1,.8,0v-.26c0-.48-.18-.75-.72-.75a3,3,0,0,0-.94.17.44.44,0,0,1-.16-.21.61.61,0,0,1,0-.29A3,3,0,0,1,528,159.58Zm-.07,2c-.47,0-.71.18-.71.62s.23.63.61.63c.55,0,.81-.46.81-1v-.25C528.47,161.64,528.19,161.61,527.92,161.61Z"/><path class="cls-4" d="M443.11,138.8a1.27,1.27,0,0,1,.39-.05,1.3,1.3,0,0,1,.4.05v5.44a1,1,0,0,1-.39.06.92.92,0,0,1-.4-.06v-2.45H440.8v2.45a1.08,1.08,0,0,1-.39.06,1,1,0,0,1-.4-.06V138.8a1.19,1.19,0,0,1,.39-.05,1.3,1.3,0,0,1,.4.05v2.32h2.31Z"/></g></svg>