<svg id="Warstwa_1" data-name="Warstwa 1" xmlns="http://www.w3.org/2000/svg" viewBox="0 0 639.07 70"><defs><style>.cls-1{fill:#0056a4;}.cls-2{fill:none;stroke:#ccd513;stroke-miterlimit:10;stroke-width:1.85px;}</style></defs><title>zastosowanie_02</title><path class="cls-1" d="M52.82,15.52a2.1,2.1,0,0,1,.13.77,2.83,2.83,0,0,1-.13.83l-6.77,9.74h7a2.76,2.76,0,0,1,.11.78,3.49,3.49,0,0,1-.11.84H44a2.41,2.41,0,0,1-.14-.83,2.1,2.1,0,0,1,.14-.79l6.69-9.74h-6.2a4.09,4.09,0,0,1-.11-.85,3,3,0,0,1,.11-.75Z"/><path class="cls-1" d="M58.53,18.83C61.14,18.83,62,20,62,22.32v6a1.5,1.5,0,0,1-.71.12,1.92,1.92,0,0,1-.72-.12l-.27-1.16a2.89,2.89,0,0,1-2.82,1.46c-1.7,0-2.79-1-2.79-3s1.2-2.83,3.45-2.83a17.59,17.59,0,0,1,2,.11v-.67c0-1.22-.46-1.93-1.85-1.93a7.48,7.48,0,0,0-2.41.45,1.29,1.29,0,0,1-.42-.54,1.5,1.5,0,0,1-.1-.75A7.78,7.78,0,0,1,58.53,18.83Zm-.18,5.22c-1.21,0-1.84.47-1.84,1.61s.59,1.62,1.57,1.62c1.42,0,2.08-1.21,2.08-2.49v-.63C59.75,24.12,59,24.05,58.35,24.05Z"/><path class="cls-1" d="M67.49,18.83a5.11,5.11,0,0,1,2.54.49,1.82,1.82,0,0,1-.47,1.28,6.6,6.6,0,0,0-1.89-.29c-1.22,0-1.84.45-1.84,1.29S67,22.7,68.1,23.08s2.4.94,2.4,2.7-1.14,2.88-3.42,2.88a6.38,6.38,0,0,1-3-.65,1.86,1.86,0,0,1,.48-1.33,7.7,7.7,0,0,0,2.44.45c1.09,0,1.72-.41,1.72-1.29s-1-1.21-2-1.52c-1.22-.36-2.56-.88-2.56-2.66S65.2,18.83,67.49,18.83Z"/><path class="cls-1" d="M75,25.08c0,1.64.52,2.12,1.8,2.12a5.16,5.16,0,0,0,.76-.07,2.2,2.2,0,0,1,.12.72,2,2,0,0,1-.09.65,5.15,5.15,0,0,1-1.29.16c-2.22,0-3.1-1.2-3.1-3.49V20.36H71.77a2.33,2.33,0,0,1,0-1.35h1.39V17.37A3.08,3.08,0,0,1,75,17v2H77.3a1.74,1.74,0,0,1,.11.67,2,2,0,0,1-.11.68H75Z"/><path class="cls-1" d="M83,18.83c2.49,0,4,1.35,4,4.92s-1.53,4.91-4,4.91-4-1.35-4-4.91S80.48,18.83,83,18.83Zm0,1.39c-1.31,0-2.16.75-2.16,3.53s.85,3.53,2.16,3.53,2.14-.76,2.14-3.53S84.27,20.22,83,20.22Z"/><path class="cls-1" d="M92.13,18.83a5.07,5.07,0,0,1,2.54.49,1.82,1.82,0,0,1-.47,1.28,6.6,6.6,0,0,0-1.89-.29c-1.22,0-1.84.45-1.84,1.29s1.14,1.1,2.27,1.48,2.4.94,2.4,2.7S94,28.66,91.72,28.66a6.43,6.43,0,0,1-3-.65,1.82,1.82,0,0,1,.49-1.33,7.68,7.68,0,0,0,2.43.45c1.1,0,1.73-.41,1.73-1.29s-1-1.21-2.06-1.52-2.55-.88-2.55-2.66S89.85,18.83,92.13,18.83Z"/><path class="cls-1" d="M100.77,18.83c2.49,0,4,1.35,4,4.92s-1.53,4.91-4,4.91-4-1.35-4-4.91S98.3,18.83,100.77,18.83Zm0,1.39c-1.31,0-2.16.75-2.16,3.53s.85,3.53,2.16,3.53,2.14-.76,2.14-3.53S102.09,20.22,100.77,20.22Z"/><path class="cls-1" d="M113.26,23.48a12.23,12.23,0,0,1-.48-2.6h-.07a11.94,11.94,0,0,1-.51,2.6l-1.42,4.88a3.51,3.51,0,0,1-1,.12,3.76,3.76,0,0,1-1-.12L106,19.14a2.6,2.6,0,0,1,.9-.13,1.44,1.44,0,0,1,.78.13l1.71,5.74a11.21,11.21,0,0,1,.37,1.77h.06a14.71,14.71,0,0,1,.39-1.77l1.66-5.74a3.72,3.72,0,0,1,1-.13,2.37,2.37,0,0,1,.89.13l1.6,5.71a10.65,10.65,0,0,1,.36,1.8h0a16.86,16.86,0,0,1,.45-1.79l1.69-5.72a2.12,2.12,0,0,1,.8-.13,1.65,1.65,0,0,1,.77.13l-2.72,9.22a3.71,3.71,0,0,1-1,.12,4,4,0,0,1-1-.12Z"/><path class="cls-1" d="M124.37,18.83c2.61,0,3.44,1.17,3.44,3.49v6a1.48,1.48,0,0,1-.7.12,1.92,1.92,0,0,1-.72-.12l-.27-1.16a2.89,2.89,0,0,1-2.83,1.46c-1.69,0-2.79-1-2.79-3s1.2-2.83,3.45-2.83a17.92,17.92,0,0,1,2.06.11v-.67c0-1.22-.47-1.93-1.86-1.93a7.48,7.48,0,0,0-2.41.45,1.32,1.32,0,0,1-.41-.54,1.44,1.44,0,0,1-.11-.75A7.78,7.78,0,0,1,124.37,18.83Zm-.18,5.22c-1.21,0-1.84.47-1.84,1.61s.6,1.62,1.57,1.62c1.42,0,2.09-1.21,2.09-2.49v-.63C125.59,24.12,124.87,24.05,124.19,24.05Z"/><path class="cls-1" d="M137.67,28.36a2.65,2.65,0,0,1-.9.12,2.58,2.58,0,0,1-.9-.12V21.87c0-1-.52-1.58-1.67-1.58a2.48,2.48,0,0,0-2,1.15v6.92a2.8,2.8,0,0,1-.9.12,2.45,2.45,0,0,1-.9-.12V19.14a2.28,2.28,0,0,1,.9-.13,2.6,2.6,0,0,1,.9.13V20a3.5,3.5,0,0,1,2.72-1.14,2.55,2.55,0,0,1,2.79,2.72Z"/><path class="cls-1" d="M142.12,17.19a2.8,2.8,0,0,1-.94.13,2.53,2.53,0,0,1-.94-.13V15.5a2.53,2.53,0,0,1,.94-.13,2.8,2.8,0,0,1,.94.13Zm0,11.17a2.73,2.73,0,0,1-.9.12,2.45,2.45,0,0,1-.9-.12V19.14a2.28,2.28,0,0,1,.9-.13,2.54,2.54,0,0,1,.9.13Z"/><path class="cls-1" d="M146.18,24.31c.15,2.14,1,2.82,2.51,2.82a4.34,4.34,0,0,0,2.12-.52,1.84,1.84,0,0,1,.58,1.3,5.36,5.36,0,0,1-3,.75c-2.77,0-4.07-1.71-4.07-5s1.6-4.86,4-4.86a3.25,3.25,0,0,1,3.56,3.62,7.73,7.73,0,0,1-.2,1.86Zm2.15-4.06c-1.17,0-2,.78-2.15,2.78H150a6.29,6.29,0,0,0,.05-.81C150.09,21.15,149.66,20.25,148.33,20.25Z"/><path class="cls-1" d="M157.81,22.36c0-4.43,1.6-6.3,4.47-6.3s4.5,1.82,4.5,6.3-1.64,6.3-4.5,6.3S157.81,26.84,157.81,22.36Zm1.91,0c0,3.73.9,4.77,2.56,4.77s2.55-1,2.55-4.77-.86-4.77-2.55-4.77S159.72,18.62,159.72,22.36Z"/><path class="cls-1" d="M169,30.28a3.15,3.15,0,0,0,.67-1.8,1.47,1.47,0,0,1-.59-.12v-1.7a2.9,2.9,0,0,1,.93-.12,3,3,0,0,1,.94.12V27.8a3.81,3.81,0,0,1-1.3,2.93Z"/><path class="cls-1" d="M173.42,16.71a8.66,8.66,0,0,1,3.33-.65c2.18,0,3.92.92,3.92,3.29s-1.29,3-3.44,4.34c-1.06.67-2.53,1.3-2.53,2.78a1.73,1.73,0,0,0,0,.39h5.62a1.52,1.52,0,0,1,.18.81,1.79,1.79,0,0,1-.18.81h-7.29a7.15,7.15,0,0,1-.11-1.2c0-2.81,1.82-3.82,3.47-4.9s2.4-1.62,2.4-3c0-1.1-.72-1.86-2.36-1.86a8.4,8.4,0,0,0-2.54.45A1.35,1.35,0,0,1,173.42,16.71Z"/><path class="cls-1" d="M187.73,20.06c0,2.46-1.28,3.69-2.79,3.69s-2.72-1.17-2.74-3.51,1.26-3.66,2.85-3.66S187.73,17.84,187.73,20.06Zm-4.29.1c0,1.5.54,2.63,1.53,2.63s1.52-1.11,1.52-2.64-.42-2.61-1.53-2.61S183.44,18.71,183.44,20.16Zm1.37,8.54,6.9-12.14h1l-6.9,12.14Zm10.55-3.78c0,2.46-1.27,3.69-2.79,3.69s-2.72-1.17-2.73-3.53,1.26-3.66,2.84-3.66S195.36,22.68,195.36,24.92Zm-4.28.11c0,1.49.54,2.62,1.53,2.62s1.51-1.11,1.51-2.66-.41-2.61-1.53-2.61C191.62,22.38,191.08,23.55,191.08,25Z"/><path class="cls-1" d="M206.25,15.34a6.71,6.71,0,0,1,3.08.61,1.8,1.8,0,0,1-.54,1.37,6.88,6.88,0,0,0-2.32-.42c-2.09,0-3.55,1.1-3.55,5.12s1.46,5,3.55,5a7.77,7.77,0,0,0,2.5-.41,2,2,0,0,1,.56,1.4,7.64,7.64,0,0,1-3.28.61c-3.44,0-5.24-2.27-5.24-6.66S202.79,15.34,206.25,15.34Z"/><path class="cls-1" d="M218.71,28.36a2.73,2.73,0,0,1-.9.12,2.52,2.52,0,0,1-.9-.12V21.87c0-1-.53-1.58-1.68-1.58a2.46,2.46,0,0,0-2,1.15v6.92a2.88,2.88,0,0,1-.9.12,2.45,2.45,0,0,1-.9-.12V15.1a2.45,2.45,0,0,1,.9-.12,2.88,2.88,0,0,1,.9.12V20a3.48,3.48,0,0,1,2.72-1.14,2.55,2.55,0,0,1,2.79,2.72Z"/><path class="cls-1" d="M223.13,28.36a2.65,2.65,0,0,1-.9.12,2.45,2.45,0,0,1-.9-.12V15.1a2.45,2.45,0,0,1,.9-.12,2.65,2.65,0,0,1,.9.12Z"/><path class="cls-1" d="M229.4,18.83c2.48,0,4,1.35,4,4.92s-1.53,4.91-4,4.91-4-1.35-4-4.91S226.93,18.83,229.4,18.83Zm0,1.39c-1.32,0-2.16.75-2.16,3.53s.84,3.53,2.16,3.53,2.14-.76,2.14-3.53S230.71,20.22,229.4,20.22Z"/><path class="cls-1" d="M239.6,18.85a2.86,2.86,0,0,1,1.57.45,2,2,0,0,1-.79,1.51,1.83,1.83,0,0,0-1.12-.38,2.33,2.33,0,0,0-1.85,1.37v6.56a2.73,2.73,0,0,1-.9.12,2.45,2.45,0,0,1-.9-.12V19.14a2.28,2.28,0,0,1,.9-.13,2.54,2.54,0,0,1,.9.13v1.24A2.62,2.62,0,0,1,239.6,18.85Z"/><path class="cls-1" d="M250,28.36a2.73,2.73,0,0,1-.9.12,2.58,2.58,0,0,1-.9-.12V21.87c0-1-.52-1.58-1.68-1.58a2.46,2.46,0,0,0-2,1.15v6.92a2.8,2.8,0,0,1-.9.12,2.45,2.45,0,0,1-.9-.12V15.1a2.45,2.45,0,0,1,.9-.12,2.8,2.8,0,0,1,.9.12V20a3.48,3.48,0,0,1,2.72-1.14A2.55,2.55,0,0,1,250,21.55Z"/><path class="cls-1" d="M254,24.31c.15,2.14,1,2.82,2.5,2.82a4.41,4.41,0,0,0,2.13-.52,1.83,1.83,0,0,1,.57,1.3,5.3,5.3,0,0,1-3,.75c-2.78,0-4.07-1.71-4.07-5s1.6-4.86,4-4.86a3.25,3.25,0,0,1,3.57,3.62,7.73,7.73,0,0,1-.2,1.86Zm2.14-4.06c-1.17,0-2,.78-2.14,2.78h3.86c0-.15.05-.44.05-.81C257.93,21.15,257.5,20.25,256.16,20.25Z"/><path class="cls-1" d="M267.11,19.14A3,3,0,0,1,268,19a3.5,3.5,0,0,1,.88.11l-2.77,4.3,3.18,4.94a3.26,3.26,0,0,1-1,.14,2.92,2.92,0,0,1-1-.14l-2.7-4.14h-1v4.14a3.05,3.05,0,0,1-.88.12,3,3,0,0,1-.92-.12V15.07a4.17,4.17,0,0,1,.92-.09,4.35,4.35,0,0,1,.88.09v7.79h1Z"/><path class="cls-1" d="M273.82,18.83a5.07,5.07,0,0,1,2.54.49,1.82,1.82,0,0,1-.47,1.28,6.6,6.6,0,0,0-1.89-.29c-1.22,0-1.83.45-1.83,1.29s1.13,1.1,2.26,1.48,2.4.94,2.4,2.7-1.14,2.88-3.42,2.88a6.43,6.43,0,0,1-3-.65,1.82,1.82,0,0,1,.49-1.33,7.68,7.68,0,0,0,2.43.45c1.1,0,1.73-.41,1.73-1.29s-1-1.21-2.06-1.52c-1.22-.36-2.55-.88-2.55-2.66S271.54,18.83,273.82,18.83Z"/><path class="cls-1" d="M283.16,29.87c-.65,2-1.27,3.11-3.22,3.11a2.63,2.63,0,0,1-1-.18,1.92,1.92,0,0,1-.13-.66,1.62,1.62,0,0,1,.15-.72,5.19,5.19,0,0,0,.81.07c.81,0,1.22-.22,1.76-1.91l.38-1.1a1.71,1.71,0,0,1-.57-.12l-3.43-9.22a2.94,2.94,0,0,1,.94-.13,2.8,2.8,0,0,1,.94.13l2.05,5.47a16.92,16.92,0,0,1,.63,2.11h.07s.18-.85.58-2.09l1.78-5.49a2.34,2.34,0,0,1,.88-.13,2.53,2.53,0,0,1,.85.13Z"/><path class="cls-1" d="M294.85,15a2.52,2.52,0,0,1,.88.12V28.36a2.3,2.3,0,0,1-.76.12,2.84,2.84,0,0,1-.81-.12l-.12-1a3,3,0,0,1-2.7,1.28c-2.06,0-3.39-1.24-3.39-4.91s1.33-4.92,3.39-4.92A2.91,2.91,0,0,1,293.93,20V15.1A2.72,2.72,0,0,1,294.85,15ZM292,20.31c-1.45,0-2.17.75-2.17,3.44s.72,3.44,2.17,3.44a2.06,2.06,0,0,0,2-2.31V22.56A2.05,2.05,0,0,0,292,20.31Z"/><path class="cls-1" d="M302.64,29.87c-.65,2-1.28,3.11-3.22,3.11a2.57,2.57,0,0,1-1-.18,1.92,1.92,0,0,1-.13-.66,1.88,1.88,0,0,1,.14-.72,5.41,5.41,0,0,0,.82.07c.81,0,1.22-.22,1.76-1.91l.38-1.1a1.82,1.82,0,0,1-.58-.12l-3.42-9.22a2.87,2.87,0,0,1,.94-.13,2.7,2.7,0,0,1,.93.13l2.06,5.47a16.92,16.92,0,0,1,.63,2.11H302s.18-.85.57-2.09l1.79-5.49a2.34,2.34,0,0,1,.88-.13,2.43,2.43,0,0,1,.84.13Z"/><path class="cls-1" d="M315.13,28.36a2.65,2.65,0,0,1-.9.12,2.58,2.58,0,0,1-.9-.12V21.87c0-1-.52-1.58-1.67-1.58a2.46,2.46,0,0,0-2,1.15v6.92a2.8,2.8,0,0,1-.9.12,2.45,2.45,0,0,1-.9-.12V19.14a2.28,2.28,0,0,1,.9-.13,2.6,2.6,0,0,1,.9.13V20a3.5,3.5,0,0,1,2.72-1.14,2.55,2.55,0,0,1,2.79,2.72Z"/><path class="cls-1" d="M322,29.87c-.65,2-1.28,3.11-3.22,3.11a2.57,2.57,0,0,1-1-.18,1.92,1.92,0,0,1-.13-.66,1.88,1.88,0,0,1,.14-.72,5.36,5.36,0,0,0,.81.07c.82,0,1.23-.22,1.77-1.91l.38-1.1a1.82,1.82,0,0,1-.58-.12l-3.42-9.22a2.87,2.87,0,0,1,.94-.13,2.7,2.7,0,0,1,.93.13l2.06,5.47a15.69,15.69,0,0,1,.62,2.11h.08s.18-.85.57-2.09l1.79-5.49a2.28,2.28,0,0,1,.88-.13,2.43,2.43,0,0,1,.84.13Z"/><path class="cls-1" d="M337.38,27a2,2,0,0,1,.11.73,2.28,2.28,0,0,1-.11.74H330.7a3.31,3.31,0,0,1-.11-.77,2.5,2.5,0,0,1,.11-.7l4.79-6.52H331a2.49,2.49,0,0,1-.11-.76A1.94,1.94,0,0,1,331,19h6.37a1.9,1.9,0,0,1,.11.7,2.53,2.53,0,0,1-.11.78L332.61,27Z"/><path class="cls-1" d="M349.3,18.83A2.51,2.51,0,0,1,352,21.55v6.81a2.73,2.73,0,0,1-.9.12,2.45,2.45,0,0,1-.9-.12V21.87a1.39,1.39,0,0,0-1.57-1.58,2.29,2.29,0,0,0-1.93,1.15v6.92a2.59,2.59,0,0,1-.88.12,2.45,2.45,0,0,1-.9-.12V21.87a1.39,1.39,0,0,0-1.56-1.58,2.39,2.39,0,0,0-1.93,1.13v6.94a2.66,2.66,0,0,1-.88.12,2.45,2.45,0,0,1-.9-.12V19.14a2.28,2.28,0,0,1,.9-.13,2.48,2.48,0,0,1,.88.13V20A3.38,3.38,0,0,1,344,18.83a2.4,2.4,0,0,1,2.34,1.32A3.62,3.62,0,0,1,349.3,18.83Z"/><path class="cls-1" d="M361.86,28.36a2.73,2.73,0,0,1-.9.12,2.58,2.58,0,0,1-.9-.12V21.87c0-1-.52-1.58-1.68-1.58a2.46,2.46,0,0,0-2,1.15v6.92a2.8,2.8,0,0,1-.9.12,2.45,2.45,0,0,1-.9-.12V19.14a2.28,2.28,0,0,1,.9-.13,2.6,2.6,0,0,1,.9.13V20a3.48,3.48,0,0,1,2.72-1.14,2.55,2.55,0,0,1,2.79,2.72Z"/><path class="cls-1" d="M366.3,17.19a2.7,2.7,0,0,1-.93.13,2.53,2.53,0,0,1-.94-.13V15.5a2.53,2.53,0,0,1,.94-.13,2.7,2.7,0,0,1,.93.13Zm0,11.17a2.73,2.73,0,0,1-.9.12,2.45,2.45,0,0,1-.9-.12V19.14a2.28,2.28,0,0,1,.9-.13,2.54,2.54,0,0,1,.9.13Z"/><path class="cls-1" d="M370.37,24.31c.14,2.14,1,2.82,2.5,2.82a4.41,4.41,0,0,0,2.13-.52,1.83,1.83,0,0,1,.57,1.3,5.3,5.3,0,0,1-3,.75c-2.78,0-4.07-1.71-4.07-5s1.6-4.86,4-4.86a3.25,3.25,0,0,1,3.57,3.62,7.73,7.73,0,0,1-.2,1.86Zm2.14-4.06c-1.17,0-2,.78-2.14,2.78h3.85a5.84,5.84,0,0,0,.06-.81C374.28,21.15,373.85,20.25,372.51,20.25Z"/><path class="cls-1" d="M378.22,19.14a2.28,2.28,0,0,1,.9-.13,2.54,2.54,0,0,1,.9.13V30.07C380,32,379.1,33,377.41,33a3.94,3.94,0,0,1-1.21-.16,1.7,1.7,0,0,1-.05-.41,1.87,1.87,0,0,1,.18-.92,3.12,3.12,0,0,0,.66.07c.81,0,1.23-.43,1.23-1.42Zm1.83-2a2.7,2.7,0,0,1-.93.13,2.53,2.53,0,0,1-.94-.13V15.48a2.72,2.72,0,0,1,.94-.12,2.9,2.9,0,0,1,.93.12Z"/><path class="cls-1" d="M385.65,18.83a5.07,5.07,0,0,1,2.54.49,1.82,1.82,0,0,1-.47,1.28,6.6,6.6,0,0,0-1.89-.29c-1.22,0-1.83.45-1.83,1.29s1.13,1.1,2.27,1.48,2.39.94,2.39,2.7-1.13,2.88-3.42,2.88a6.43,6.43,0,0,1-3-.65,1.82,1.82,0,0,1,.49-1.33,7.68,7.68,0,0,0,2.43.45c1.1,0,1.73-.41,1.73-1.29s-1-1.21-2.05-1.52c-1.23-.36-2.56-.88-2.56-2.66S383.37,18.83,385.65,18.83Z"/><path class="cls-1" d="M396.87,27a2,2,0,0,1,.11.73,2.28,2.28,0,0,1-.11.74h-6.68a3.31,3.31,0,0,1-.11-.77,2.5,2.5,0,0,1,.11-.7L395,20.49H390.5a2.49,2.49,0,0,1-.11-.76,1.94,1.94,0,0,1,.11-.72h6.37a1.9,1.9,0,0,1,.11.7,2.53,2.53,0,0,1-.11.78L392.1,27Z"/><path class="cls-1" d="M402.39,18.83c2.62,0,3.44,1.17,3.44,3.49v6a1.43,1.43,0,0,1-.7.12,1.92,1.92,0,0,1-.72-.12l-.27-1.16a2.89,2.89,0,0,1-2.83,1.46c-1.69,0-2.79-1-2.79-3s1.21-2.83,3.46-2.83a17.72,17.72,0,0,1,2,.11v-.67c0-1.22-.47-1.93-1.85-1.93a7.48,7.48,0,0,0-2.41.45,1.29,1.29,0,0,1-.42-.54,1.57,1.57,0,0,1-.11-.75A7.78,7.78,0,0,1,402.39,18.83Zm-.18,5.22c-1.2,0-1.83.47-1.83,1.61s.59,1.62,1.56,1.62c1.43,0,2.09-1.21,2.09-2.49v-.63C403.62,24.12,402.9,24.05,402.21,24.05Z"/><path class="cls-1" d="M416.43,18.85a2.86,2.86,0,0,1,1.57.45,2,2,0,0,1-.79,1.51,1.83,1.83,0,0,0-1.12-.38,2.33,2.33,0,0,0-1.85,1.37v6.56a2.73,2.73,0,0,1-.9.12,2.45,2.45,0,0,1-.9-.12V19.14a2.28,2.28,0,0,1,.9-.13,2.54,2.54,0,0,1,.9.13v1.24A2.62,2.62,0,0,1,416.43,18.85Z"/><path class="cls-1" d="M423.81,29.87c-.64,2-1.27,3.11-3.22,3.11a2.63,2.63,0,0,1-1-.18,1.92,1.92,0,0,1-.13-.66,1.62,1.62,0,0,1,.15-.72,5.19,5.19,0,0,0,.81.07c.81,0,1.22-.22,1.76-1.91l.38-1.1a1.71,1.71,0,0,1-.57-.12l-3.43-9.22a2.94,2.94,0,0,1,.94-.13,2.8,2.8,0,0,1,.94.13l2.05,5.47a16.92,16.92,0,0,1,.63,2.11h.07s.18-.85.58-2.09l1.78-5.49a2.34,2.34,0,0,1,.88-.13,2.46,2.46,0,0,1,.85.13Z"/><path class="cls-1" d="M435.15,27a2,2,0,0,1,.11.73,2.28,2.28,0,0,1-.11.74h-6.68a3.35,3.35,0,0,1-.1-.77,2.54,2.54,0,0,1,.1-.7l4.79-6.52h-4.48a2.49,2.49,0,0,1-.11-.76,1.94,1.94,0,0,1,.11-.72h6.37a1.71,1.71,0,0,1,.11.7,2.26,2.26,0,0,1-.11.78L430.38,27Z"/><path class="cls-1" d="M441.69,29.87c-.65,2-1.28,3.11-3.22,3.11a2.65,2.65,0,0,1-1-.18,2.06,2.06,0,0,1-.12-.66,1.69,1.69,0,0,1,.14-.72,5.36,5.36,0,0,0,.81.07c.81,0,1.23-.22,1.77-1.91l.38-1.1a1.77,1.77,0,0,1-.58-.12l-3.42-9.22a2.84,2.84,0,0,1,.93-.13,2.73,2.73,0,0,1,.94.13l2.05,5.47a16.92,16.92,0,0,1,.63,2.11h.08s.18-.85.57-2.09l1.78-5.49a2.37,2.37,0,0,1,.89-.13,2.43,2.43,0,0,1,.84.13Z"/><path class="cls-1" d="M452.15,19.14a2.93,2.93,0,0,1,.91-.13,3.53,3.53,0,0,1,.89.11l-2.78,4.3,3.19,4.94a3.34,3.34,0,0,1-1,.14,2.92,2.92,0,0,1-1-.14l-2.7-4.14h-1v4.14a3.05,3.05,0,0,1-.88.12,3,3,0,0,1-.92-.12V15.07a4.17,4.17,0,0,1,.92-.09,4.48,4.48,0,0,1,.88.09v7.79h1Z"/><path class="cls-1" d="M459.17,18.83c2.48,0,4,1.35,4,4.92s-1.53,4.91-4,4.91-4-1.35-4-4.91S456.7,18.83,459.17,18.83Zm0,1.39c-1.32,0-2.16.75-2.16,3.53s.84,3.53,2.16,3.53,2.14-.76,2.14-3.53S460.48,20.22,459.17,20.22Z"/><path class="cls-1" d="M51,45.08a12.43,12.43,0,0,1-.49-2.6h-.07a11.94,11.94,0,0,1-.51,2.6L48.48,50a3.48,3.48,0,0,1-1,.12A3.84,3.84,0,0,1,46.41,50l-2.72-9.22a2.67,2.67,0,0,1,.9-.13c.62,0,.78.13.78.13l1.71,5.74a12.58,12.58,0,0,1,.38,1.77h0a13.35,13.35,0,0,1,.4-1.77l1.65-5.74a3.72,3.72,0,0,1,1-.13,2.37,2.37,0,0,1,.89.13L53,46.45a10.46,10.46,0,0,1,.36,1.8h0c.08-.38.2-1,.45-1.79l1.7-5.72a2,2,0,0,1,.79-.13,1.6,1.6,0,0,1,.77.13L54.42,50a3.66,3.66,0,0,1-1,.12,4,4,0,0,1-1-.12Z"/><path class="cls-1" d="M63.19,51.47c-.65,2-1.28,3.11-3.22,3.11a2.65,2.65,0,0,1-1-.18,2.06,2.06,0,0,1-.12-.66A1.69,1.69,0,0,1,59,53a5.36,5.36,0,0,0,.81.07c.81,0,1.23-.22,1.77-1.91l.38-1.1a1.77,1.77,0,0,1-.58-.12L58,40.74a2.84,2.84,0,0,1,.93-.13,2.73,2.73,0,0,1,.94.13l2,5.47a16.92,16.92,0,0,1,.63,2.11h.08s.18-.85.57-2.09l1.78-5.49a2.37,2.37,0,0,1,.89-.13,2.43,2.43,0,0,1,.84.13Z"/><path class="cls-1" d="M71.22,40.43a5,5,0,0,1,2.53.49,1.88,1.88,0,0,1-.46,1.28,6.69,6.69,0,0,0-1.89-.29c-1.23,0-1.84.45-1.84,1.29s1.13,1.1,2.27,1.48,2.39.94,2.39,2.7-1.13,2.88-3.42,2.88a6.43,6.43,0,0,1-3-.65,1.86,1.86,0,0,1,.49-1.33,7.68,7.68,0,0,0,2.43.45c1.1,0,1.73-.41,1.73-1.29s-1-1.21-2-1.52c-1.23-.36-2.56-.88-2.56-2.66S68.93,40.43,71.22,40.43Z"/><path class="cls-1" d="M78.69,46.68c0,1.64.52,2.12,1.8,2.12a4.94,4.94,0,0,0,.75-.07,2,2,0,0,1,.13.72,2,2,0,0,1-.09.65,5.24,5.24,0,0,1-1.3.16c-2.21,0-3.09-1.2-3.09-3.49V42H75.5a1.8,1.8,0,0,1-.11-.67,1.71,1.71,0,0,1,.11-.68h1.39V39a3.06,3.06,0,0,1,1.8-.36v2H81a1.83,1.83,0,0,1,.1.67A2.14,2.14,0,0,1,81,42H78.69Z"/><path class="cls-1" d="M86.37,40.43c2.61,0,3.44,1.17,3.44,3.49v6C88.68,50.3,88,51,88,51.72c0,.45.25.79.94.79a1.84,1.84,0,0,0,.63-.12,1.14,1.14,0,0,1,.28.81,2.65,2.65,0,0,1-1.22.32c-1.19,0-1.91-.61-1.91-1.55a2.46,2.46,0,0,1,1.64-2.07l-.27-1.1a2.89,2.89,0,0,1-2.83,1.46c-1.69,0-2.79-1-2.79-3s1.21-2.82,3.46-2.82a17.72,17.72,0,0,1,2.05.11v-.71c0-1.29-.45-1.89-1.85-1.89a7.58,7.58,0,0,0-2.42.45,1.32,1.32,0,0,1-.41-.54,1.57,1.57,0,0,1-.11-.75A7.78,7.78,0,0,1,86.37,40.43Zm-.18,5.22c-1.2,0-1.83.49-1.83,1.6s.59,1.63,1.56,1.63A2.23,2.23,0,0,0,88,46.37v-.61C87.6,45.72,86.88,45.65,86.19,45.65Z"/><path class="cls-1" d="M96.76,40.43c2,0,3.38,1.24,3.38,4.92s-1.33,4.91-3.38,4.91a2.86,2.86,0,0,1-2.59-1.17v5a3,3,0,0,1-.92.11,2.76,2.76,0,0,1-.89-.11V40.74a2.37,2.37,0,0,1,.89-.13,2.6,2.6,0,0,1,.92.13v.86A2.86,2.86,0,0,1,96.76,40.43Zm-.63,1.48a2,2,0,0,0-2,2.27v2.3a2.06,2.06,0,0,0,2,2.31c1.44,0,2.16-.76,2.16-3.44S97.57,41.91,96.13,41.91Z"/><path class="cls-1" d="M104.26,38.79a2.7,2.7,0,0,1-.93.13,2.53,2.53,0,0,1-.94-.13V37.1a2.53,2.53,0,0,1,.94-.13,2.7,2.7,0,0,1,.93.13Zm0,11.17a2.73,2.73,0,0,1-.9.12,2.45,2.45,0,0,1-.9-.12V40.74a2.28,2.28,0,0,1,.9-.13,2.54,2.54,0,0,1,.9.13Z"/><path class="cls-1" d="M108.33,45.91c.14,2.14,1,2.82,2.5,2.82a4.41,4.41,0,0,0,2.13-.52,1.83,1.83,0,0,1,.57,1.3,5.3,5.3,0,0,1-3,.75c-2.78,0-4.07-1.71-4.07-5s1.6-4.86,4-4.86A3.25,3.25,0,0,1,114,44.05a7.73,7.73,0,0,1-.2,1.86Zm2.14-4.06c-1.17,0-2,.78-2.14,2.78h3.85a5.84,5.84,0,0,0,.06-.81C112.24,42.75,111.8,41.85,110.47,41.85Z"/><path class="cls-1" d="M123.45,50a2.65,2.65,0,0,1-.9.12,2.58,2.58,0,0,1-.9-.12V43.47c0-1-.52-1.58-1.67-1.58a2.46,2.46,0,0,0-2,1.15V50a2.8,2.8,0,0,1-.9.12,2.45,2.45,0,0,1-.9-.12V40.74a2.28,2.28,0,0,1,.9-.13,2.6,2.6,0,0,1,.9.13v.83a3.5,3.5,0,0,1,2.72-1.14,2.55,2.55,0,0,1,2.79,2.72Z"/><path class="cls-1" d="M127.9,38.79a2.8,2.8,0,0,1-.94.13,2.53,2.53,0,0,1-.94-.13V37.1A2.53,2.53,0,0,1,127,37a2.8,2.8,0,0,1,.94.13Zm0,11.17a2.73,2.73,0,0,1-.9.12,2.45,2.45,0,0,1-.9-.12V40.74a2.28,2.28,0,0,1,.9-.13,2.54,2.54,0,0,1,.9.13Z"/><path class="cls-1" d="M133.8,40.43c2.61,0,3.44,1.17,3.44,3.49v6a1.48,1.48,0,0,1-.7.12,1.92,1.92,0,0,1-.72-.12l-.27-1.16a2.89,2.89,0,0,1-2.83,1.46c-1.69,0-2.79-1-2.79-3s1.21-2.82,3.46-2.82a17.72,17.72,0,0,1,2.05.11v-.67c0-1.22-.47-1.93-1.86-1.93a7.48,7.48,0,0,0-2.41.45,1.32,1.32,0,0,1-.41-.54,1.57,1.57,0,0,1-.11-.75A7.78,7.78,0,0,1,133.8,40.43Zm-.18,5.22c-1.21,0-1.84.47-1.84,1.6s.6,1.63,1.57,1.63c1.42,0,2.09-1.21,2.09-2.49v-.63C135,45.72,134.3,45.65,133.62,45.65Z"/><path class="cls-1" d="M148.24,40.43c2,0,3.38,1.24,3.38,4.92s-1.33,4.91-3.38,4.91a2.89,2.89,0,0,1-2.6-1.17v5a2.91,2.91,0,0,1-.91.11,2.76,2.76,0,0,1-.89-.11V40.74a2.37,2.37,0,0,1,.89-.13,2.5,2.5,0,0,1,.91.13v.86A2.89,2.89,0,0,1,148.24,40.43Zm-.63,1.48a2,2,0,0,0-2,2.27v2.3a2.07,2.07,0,0,0,2,2.31c1.44,0,2.16-.76,2.16-3.44S149.05,41.91,147.61,41.91Z"/><path class="cls-1" d="M157.45,40.43c2.49,0,4,1.35,4,4.92s-1.53,4.91-4,4.91-4-1.35-4-4.91S155,40.43,157.45,40.43Zm0,1.39c-1.31,0-2.16.75-2.16,3.53s.85,3.53,2.16,3.53,2.15-.76,2.15-3.53S158.77,41.82,157.45,41.82Z"/><path class="cls-1" d="M169.93,45.08a13.14,13.14,0,0,1-.49-2.6h-.07a11.76,11.76,0,0,1-.5,2.6L167.44,50a3.48,3.48,0,0,1-1,.12,3.84,3.84,0,0,1-1-.12l-2.72-9.22a2.67,2.67,0,0,1,.9-.13c.62,0,.78.13.78.13L166,46.48a12.58,12.58,0,0,1,.38,1.77h.05a13.35,13.35,0,0,1,.4-1.77l1.65-5.74a3.85,3.85,0,0,1,1-.13,2.34,2.34,0,0,1,.88.13l1.6,5.71a10.46,10.46,0,0,1,.36,1.8h0a17.58,17.58,0,0,1,.46-1.79l1.69-5.72a2.09,2.09,0,0,1,.79-.13,1.6,1.6,0,0,1,.77.13L173.39,50a3.78,3.78,0,0,1-1,.12,4,4,0,0,1-1.05-.12Z"/><path class="cls-1" d="M179.74,38.79a2.8,2.8,0,0,1-.94.13,2.53,2.53,0,0,1-.94-.13V37.1a2.53,2.53,0,0,1,.94-.13,2.8,2.8,0,0,1,.94.13Zm0,11.17a2.73,2.73,0,0,1-.9.12,2.45,2.45,0,0,1-.9-.12V40.74a2.28,2.28,0,0,1,.9-.13,2.54,2.54,0,0,1,.9.13Z"/><path class="cls-1" d="M187.64,40.74a3,3,0,0,1,.92-.13,3.5,3.5,0,0,1,.88.11L186.67,45,189.85,50a3.23,3.23,0,0,1-1,.14,3,3,0,0,1-1-.14l-2.7-4.15h-1V50a3.05,3.05,0,0,1-.88.12,3.1,3.1,0,0,1-.92-.12V36.67a4.17,4.17,0,0,1,.92-.09,4.35,4.35,0,0,1,.88.09v7.79h1Z"/><path class="cls-1" d="M193.15,36.58a2.73,2.73,0,0,1,.9.12v5l1.26-.72a1.6,1.6,0,0,1,.36.41,1.38,1.38,0,0,1,.19.56L194.05,43v7a2.73,2.73,0,0,1-.9.12,2.38,2.38,0,0,1-.9-.12V44L191,44.7a1.35,1.35,0,0,1-.34-.42,1.33,1.33,0,0,1-.22-.55l1.77-1v-6A2.38,2.38,0,0,1,193.15,36.58Z"/><path class="cls-1" d="M200.83,40.43c2.61,0,3.44,1.17,3.44,3.49v6a1.48,1.48,0,0,1-.7.12,1.92,1.92,0,0,1-.72-.12l-.27-1.16a2.89,2.89,0,0,1-2.83,1.46c-1.69,0-2.79-1-2.79-3s1.21-2.82,3.46-2.82a17.72,17.72,0,0,1,2.05.11v-.67c0-1.22-.47-1.93-1.85-1.93a7.58,7.58,0,0,0-2.42.45,1.32,1.32,0,0,1-.41-.54,1.57,1.57,0,0,1-.11-.75A7.78,7.78,0,0,1,200.83,40.43Zm-.18,5.22c-1.2,0-1.83.47-1.83,1.6s.59,1.63,1.56,1.63c1.42,0,2.09-1.21,2.09-2.49v-.63C202.06,45.72,201.34,45.65,200.65,45.65Z"/><path class="cls-1" d="M214.14,50a2.73,2.73,0,0,1-.9.12,2.52,2.52,0,0,1-.9-.12V43.47c0-1-.53-1.58-1.68-1.58a2.45,2.45,0,0,0-2,1.15V50a2.88,2.88,0,0,1-.9.12,2.45,2.45,0,0,1-.9-.12V40.74a2.28,2.28,0,0,1,.9-.13,2.67,2.67,0,0,1,.9.13v.83a3.47,3.47,0,0,1,2.72-1.14,2.55,2.55,0,0,1,2.79,2.72ZM209.9,39.21a1.56,1.56,0,0,1-1-.56l1.71-2.54a1.78,1.78,0,0,1,1.56.67Z"/><path class="cls-1" d="M225.15,40.43c2,0,3.39,1.24,3.39,4.92s-1.34,4.91-3.39,4.91a2.86,2.86,0,0,1-2.59-1.17v5a3,3,0,0,1-.92.11,2.73,2.73,0,0,1-.88-.11V40.74a2.34,2.34,0,0,1,.88-.13,2.6,2.6,0,0,1,.92.13v.86A2.86,2.86,0,0,1,225.15,40.43Zm-.63,1.48a2,2,0,0,0-2,2.27v2.3a2.06,2.06,0,0,0,2,2.31c1.44,0,2.16-.76,2.16-3.44S226,41.91,224.52,41.91Z"/><path class="cls-1" d="M234.37,40.43c2.48,0,4,1.35,4,4.92s-1.53,4.91-4,4.91-4-1.35-4-4.91S231.9,40.43,234.37,40.43Zm0,1.39c-1.32,0-2.17.75-2.17,3.53s.85,3.53,2.17,3.53,2.14-.76,2.14-3.53S235.68,41.82,234.37,41.82Z"/><path class="cls-1" d="M250.78,48.61a2,2,0,0,1,.11.73,2.28,2.28,0,0,1-.11.74H244.1a3.31,3.31,0,0,1-.11-.77,2.5,2.5,0,0,1,.11-.7l4.79-6.52h-4.48a2.49,2.49,0,0,1-.11-.76,1.94,1.94,0,0,1,.11-.72h6.37a1.9,1.9,0,0,1,.11.7,2.53,2.53,0,0,1-.11.78L246,48.61Z"/><path class="cls-1" d="M256.31,40.43c2.61,0,3.44,1.17,3.44,3.49v6a1.5,1.5,0,0,1-.71.12,1.92,1.92,0,0,1-.72-.12l-.27-1.16a2.87,2.87,0,0,1-2.82,1.46c-1.7,0-2.79-1-2.79-3s1.2-2.82,3.45-2.82a17.92,17.92,0,0,1,2.06.11v-.67c0-1.22-.47-1.93-1.86-1.93a7.48,7.48,0,0,0-2.41.45,1.29,1.29,0,0,1-.42-.54,1.5,1.5,0,0,1-.1-.75A7.78,7.78,0,0,1,256.31,40.43Zm-.18,5.22c-1.21,0-1.84.47-1.84,1.6s.6,1.63,1.57,1.63c1.42,0,2.09-1.21,2.09-2.49v-.63C257.53,45.72,256.81,45.65,256.13,45.65Z"/><path class="cls-1" d="M264.1,41.6a2.88,2.88,0,0,1,2.59-1.17c2.06,0,3.39,1.24,3.39,4.92s-1.33,4.91-3.39,4.91a2.88,2.88,0,0,1-2.59-1.17V50a2.79,2.79,0,0,1-.92.12,2.52,2.52,0,0,1-.88-.12V36.7a2.52,2.52,0,0,1,.88-.12,2.79,2.79,0,0,1,.92.12Zm2,.31a2,2,0,0,0-2,2.27v2.3a2.06,2.06,0,0,0,2,2.31c1.44,0,2.16-.76,2.16-3.44S267.5,41.91,266.06,41.91Z"/><path class="cls-1" d="M274.18,38.79a2.7,2.7,0,0,1-.93.13,2.53,2.53,0,0,1-.94-.13V37.1a2.53,2.53,0,0,1,.94-.13,2.7,2.7,0,0,1,.93.13Zm0,11.17a2.73,2.73,0,0,1-.9.12,2.38,2.38,0,0,1-.9-.12V40.74a2.22,2.22,0,0,1,.9-.13,2.54,2.54,0,0,1,.9.13Z"/><path class="cls-1" d="M278.25,45.91c.14,2.14,1,2.82,2.5,2.82a4.41,4.41,0,0,0,2.13-.52,1.87,1.87,0,0,1,.57,1.3,5.32,5.32,0,0,1-3,.75c-2.77,0-4.07-1.71-4.07-5s1.61-4.86,4-4.86A3.25,3.25,0,0,1,284,44.05a7.73,7.73,0,0,1-.2,1.86Zm2.14-4.06c-1.17,0-2,.78-2.14,2.78h3.85a5.84,5.84,0,0,0,.06-.81C282.16,42.75,281.72,41.85,280.39,41.85Z"/><path class="cls-1" d="M293.75,40.43a2.16,2.16,0,0,1,0,1.42l-1.5-.07a3.26,3.26,0,0,1,.51,1.89c0,2-1.21,3.24-3.53,3.24a4.77,4.77,0,0,1-.79,0,1.61,1.61,0,0,0-.35,1c.2,1.66,5.64-.11,5.64,3.6,0,1.77-1.71,3.08-4.63,3.08-2.7,0-3.83-1.06-3.83-2.5a3,3,0,0,1,1.6-2.48,1.45,1.45,0,0,1-.4-1.05,3.23,3.23,0,0,1,.87-2,2.93,2.93,0,0,1-1.64-2.88c0-2,1.22-3.24,3.53-3.24a4.47,4.47,0,0,1,2,.41Zm-5.91,9.65a2.18,2.18,0,0,0-.83,1.64c0,.9.67,1.58,2.15,1.58,1.85,0,2.86-.66,2.86-1.62C292,50.21,289.46,50.59,287.84,50.08Zm1.39-8.39a1.73,1.73,0,0,0-1.82,2,1.71,1.71,0,0,0,1.82,2c1.08,0,1.8-.61,1.8-2S290.31,41.69,289.23,41.69Z"/><path class="cls-1" d="M298.82,40.43c2.61,0,3.44,1.17,3.44,3.49v6a1.48,1.48,0,0,1-.7.12,1.92,1.92,0,0,1-.72-.12l-.27-1.16a2.89,2.89,0,0,1-2.83,1.46c-1.69,0-2.79-1-2.79-3s1.21-2.82,3.46-2.82a17.72,17.72,0,0,1,2,.11v-.67c0-1.22-.47-1.93-1.85-1.93a7.58,7.58,0,0,0-2.42.45,1.42,1.42,0,0,1-.41-.54,1.57,1.57,0,0,1-.11-.75A7.78,7.78,0,0,1,298.82,40.43Zm-.18,5.22c-1.2,0-1.83.47-1.83,1.6s.59,1.63,1.56,1.63c1.43,0,2.09-1.21,2.09-2.49v-.63C300.05,45.72,299.33,45.65,298.64,45.65Z"/><path class="cls-1" d="M306.26,45.35c0,2.36.75,3.38,2.48,3.38a4.69,4.69,0,0,0,1.69-.3,1.88,1.88,0,0,1,.53,1.29,4.94,4.94,0,0,1-2.6.54c-2.63,0-4-1.71-4-4.91s1.33-4.92,4-4.92a4.77,4.77,0,0,1,2.42.45,1.83,1.83,0,0,1-.53,1.3,4.37,4.37,0,0,0-1.58-.27C306.94,41.91,306.26,43,306.26,45.35Z"/><path class="cls-1" d="M320.17,50a2.65,2.65,0,0,1-.9.12,2.58,2.58,0,0,1-.9-.12V43.47c0-1-.52-1.58-1.67-1.58a2.46,2.46,0,0,0-2,1.15V50a2.8,2.8,0,0,1-.9.12,2.45,2.45,0,0,1-.9-.12V36.7a2.45,2.45,0,0,1,.9-.12,2.8,2.8,0,0,1,.9.12v4.87a3.5,3.5,0,0,1,2.72-1.14,2.55,2.55,0,0,1,2.79,2.72Z"/><path class="cls-1" d="M328.23,45.35c0,2.36.76,3.38,2.49,3.38a4.69,4.69,0,0,0,1.69-.3,1.83,1.83,0,0,1,.52,1.29,4.88,4.88,0,0,1-2.59.54c-2.63,0-4-1.71-4-4.91s1.33-4.92,4-4.92a4.7,4.7,0,0,1,2.41.45,1.86,1.86,0,0,1-.52,1.3,4.37,4.37,0,0,0-1.58-.27C328.92,41.91,328.23,43,328.23,45.35Z"/><path class="cls-1" d="M342.15,50a2.73,2.73,0,0,1-.9.12,2.58,2.58,0,0,1-.9-.12V43.47c0-1-.52-1.58-1.68-1.58a2.46,2.46,0,0,0-2,1.15V50a2.8,2.8,0,0,1-.9.12,2.45,2.45,0,0,1-.9-.12V36.7a2.45,2.45,0,0,1,.9-.12,2.8,2.8,0,0,1,.9.12v4.87a3.48,3.48,0,0,1,2.72-1.14,2.55,2.55,0,0,1,2.79,2.72Z"/><path class="cls-1" d="M346.59,38.79a2.7,2.7,0,0,1-.93.13,2.53,2.53,0,0,1-.94-.13V37.1a2.53,2.53,0,0,1,.94-.13,2.7,2.7,0,0,1,.93.13Zm0,11.17a2.73,2.73,0,0,1-.9.12,2.45,2.45,0,0,1-.9-.12V40.74a2.28,2.28,0,0,1,.9-.13,2.54,2.54,0,0,1,.9.13Z"/><path class="cls-1" d="M353.22,40.45a2.86,2.86,0,0,1,1.57.45,2,2,0,0,1-.8,1.51,1.82,1.82,0,0,0-1.11-.38A2.34,2.34,0,0,0,351,43.4V50a2.65,2.65,0,0,1-.9.12,2.45,2.45,0,0,1-.9-.12V40.74a2.28,2.28,0,0,1,.9-.13,2.47,2.47,0,0,1,.9.13V42A2.62,2.62,0,0,1,353.22,40.45Z"/><path class="cls-1" d="M356.24,40.74a2.54,2.54,0,0,1,.9-.13,2.4,2.4,0,0,1,.9.13v6.48c0,1,.52,1.58,1.68,1.58a2.44,2.44,0,0,0,2-1.15V40.74a2.67,2.67,0,0,1,.9-.13,2.28,2.28,0,0,1,.9.13V50a2.45,2.45,0,0,1-.9.12,2.88,2.88,0,0,1-.9-.12v-.83A3.51,3.51,0,0,1,359,50.26a2.55,2.55,0,0,1-2.79-2.72Z"/><path class="cls-1" d="M370.17,40.45a2.84,2.84,0,0,1,1.57.45,2,2,0,0,1-.79,1.51,1.83,1.83,0,0,0-1.12-.38A2.33,2.33,0,0,0,368,43.4V50a2.73,2.73,0,0,1-.9.12,2.45,2.45,0,0,1-.9-.12V40.74a2.28,2.28,0,0,1,.9-.13,2.54,2.54,0,0,1,.9.13V42A2.6,2.6,0,0,1,370.17,40.45Z"/><path class="cls-1" d="M380.87,40.43a2.16,2.16,0,0,1,0,1.42l-1.5-.07a3.26,3.26,0,0,1,.51,1.89c0,2-1.21,3.24-3.53,3.24a4.77,4.77,0,0,1-.79,0,1.61,1.61,0,0,0-.35,1c.2,1.66,5.64-.11,5.64,3.6,0,1.77-1.71,3.08-4.63,3.08-2.7,0-3.83-1.06-3.83-2.5A3,3,0,0,1,374,49.6a1.45,1.45,0,0,1-.4-1.05,3.23,3.23,0,0,1,.87-2,2.93,2.93,0,0,1-1.64-2.88c0-2,1.22-3.24,3.53-3.24a4.5,4.5,0,0,1,2,.41ZM375,50.08a2.18,2.18,0,0,0-.83,1.64c0,.9.67,1.58,2.15,1.58,1.85,0,2.86-.66,2.86-1.62C379.14,50.21,376.58,50.59,375,50.08Zm1.39-8.39a1.73,1.73,0,0,0-1.82,2,1.71,1.71,0,0,0,1.82,2c1.08,0,1.8-.61,1.8-2S377.43,41.69,376.35,41.69Z"/><path class="cls-1" d="M384.61,38.79a2.73,2.73,0,0,1-.94.13,2.43,2.43,0,0,1-.93-.13V37.1a2.43,2.43,0,0,1,.93-.13,2.73,2.73,0,0,1,.94.13Zm0,11.17a2.65,2.65,0,0,1-.9.12,2.45,2.45,0,0,1-.9-.12V40.74a2.28,2.28,0,0,1,.9-.13,2.47,2.47,0,0,1,.9.13Z"/><path class="cls-1" d="M388.68,45.35c0,2.36.75,3.38,2.48,3.38a4.69,4.69,0,0,0,1.69-.3,1.88,1.88,0,0,1,.53,1.29,4.94,4.94,0,0,1-2.6.54c-2.63,0-4-1.71-4-4.91s1.33-4.92,4-4.92a4.77,4.77,0,0,1,2.42.45,1.83,1.83,0,0,1-.53,1.3,4.37,4.37,0,0,0-1.58-.27C389.36,41.91,388.68,43,388.68,45.35Z"/><path class="cls-1" d="M401.44,48.61a2,2,0,0,1,.11.73,2.28,2.28,0,0,1-.11.74h-6.68a3.31,3.31,0,0,1-.11-.77,2.5,2.5,0,0,1,.11-.7l4.79-6.52h-4.48a2.49,2.49,0,0,1-.11-.76,1.94,1.94,0,0,1,.11-.72h6.37a1.9,1.9,0,0,1,.11.7,2.53,2.53,0,0,1-.11.78l-4.77,6.52Z"/><path class="cls-1" d="M411,50a2.73,2.73,0,0,1-.9.12,2.58,2.58,0,0,1-.9-.12V43.47c0-1-.52-1.58-1.68-1.58a2.46,2.46,0,0,0-2,1.15V50a2.8,2.8,0,0,1-.9.12,2.45,2.45,0,0,1-.9-.12V40.74a2.28,2.28,0,0,1,.9-.13,2.6,2.6,0,0,1,.9.13v.83a3.48,3.48,0,0,1,2.72-1.14A2.55,2.55,0,0,1,411,43.15Z"/><path class="cls-1" d="M417.77,51.47c-.65,2-1.28,3.11-3.23,3.11a2.63,2.63,0,0,1-1-.18,2.06,2.06,0,0,1-.12-.66,1.69,1.69,0,0,1,.14-.72,5.36,5.36,0,0,0,.81.07c.81,0,1.23-.22,1.77-1.91l.37-1.1A1.77,1.77,0,0,1,416,50l-3.42-9.22a2.84,2.84,0,0,1,.93-.13,2.8,2.8,0,0,1,.94.13l2.05,5.47a16.92,16.92,0,0,1,.63,2.11h.07s.18-.85.58-2.09l1.78-5.49a2.34,2.34,0,0,1,.88-.13,2.46,2.46,0,0,1,.85.13Z"/><path class="cls-1" d="M424.19,45.35c0,2.36.76,3.38,2.49,3.38a4.69,4.69,0,0,0,1.69-.3,1.92,1.92,0,0,1,.52,1.29,4.88,4.88,0,0,1-2.59.54c-2.63,0-4-1.71-4-4.91s1.33-4.92,4-4.92a4.7,4.7,0,0,1,2.41.45,1.86,1.86,0,0,1-.52,1.3,4.39,4.39,0,0,0-1.59-.27C424.88,41.91,424.19,43,424.19,45.35Z"/><path class="cls-1" d="M438.11,50a2.73,2.73,0,0,1-.9.12,2.52,2.52,0,0,1-.9-.12V43.47c0-1-.53-1.58-1.68-1.58a2.45,2.45,0,0,0-2,1.15V50a2.88,2.88,0,0,1-.9.12,2.45,2.45,0,0,1-.9-.12V36.7a2.45,2.45,0,0,1,.9-.12,2.88,2.88,0,0,1,.9.12v4.87a3.47,3.47,0,0,1,2.72-1.14,2.55,2.55,0,0,1,2.79,2.72Z"/><path class="cls-1" d="M442.11,36a10.17,10.17,0,0,0,0,9.47.74.74,0,0,1-.32.31,1.2,1.2,0,0,1-.45.11,10,10,0,0,1,0-10.31.92.92,0,0,1,.44.12A.82.82,0,0,1,442.11,36Z"/><path class="cls-1" d="M443.22,37.22a5,5,0,0,1,1.94-.38c1.27,0,2.29.54,2.29,1.93s-.76,1.77-2,2.52c-.62.39-1.48.76-1.48,1.62a1.06,1.06,0,0,0,0,.23h3.28a1,1,0,0,1,.1.48,1.16,1.16,0,0,1-.1.47H443a4,4,0,0,1-.07-.71c0-1.63,1.06-2.22,2-2.85s1.39-1,1.39-1.73-.42-1.08-1.37-1.08a4.87,4.87,0,0,0-1.48.26A.79.79,0,0,1,443.22,37.22Z"/><path class="cls-1" d="M448.35,36a.91.91,0,0,1,.34-.3.92.92,0,0,1,.44-.12,10,10,0,0,1,0,10.31,1.2,1.2,0,0,1-.45-.11.81.81,0,0,1-.33-.31,10.09,10.09,0,0,0,0-9.47Z"/><polyline class="cls-2" points="13.41 6.57 32.41 34.7 13.41 62.93"/></svg>