<svg id="Warstwa_1" data-name="Warstwa 1" xmlns="http://www.w3.org/2000/svg" viewBox="0 0 750 250"><defs><style>.cls-1{fill:#0056a3;}.cls-2{fill:none;stroke:#ccd513;stroke-miterlimit:10;stroke-width:1.85px;}</style></defs><title>40_ml</title><path class="cls-1" d="M287.4,70.11h-7.75v14a12.46,12.46,0,0,1-4.13.6,12.74,12.74,0,0,1-4.22-.6v-14H244a8.3,8.3,0,0,1-.6-3.44,8.53,8.53,0,0,1,.6-3.53L271,26.64a12.7,12.7,0,0,1,4.47-.61,11.39,11.39,0,0,1,4.22.61v36.5h7.75a8.53,8.53,0,0,1,.6,3.53A8.3,8.3,0,0,1,287.4,70.11Zm-34.7-7h18.6V37.91Z"/><path class="cls-1" d="M295.83,55.39c0-21.26,7.67-30.22,21.61-30.22s21.78,8.7,21.78,30.22-7.92,30.22-21.78,30.22S295.83,76.83,295.83,55.39Zm33.92,0c0-17.73-4-23.07-12.31-23.07-8.09,0-12.31,5.34-12.31,23.07,0,17.48,4.22,23,12.31,23C325.71,78.38,329.75,72.87,329.75,55.39Z"/><path class="cls-1" d="M350.33,84.14V39.81a13.45,13.45,0,0,1,4.3-.52,14.19,14.19,0,0,1,4.31.52V44.2a16.24,16.24,0,0,1,12.74-5.77c5.08,0,9,2,11.19,6.72a17.16,17.16,0,0,1,14.2-6.72c8.18,0,12.66,5.17,12.66,13V84.14a14.84,14.84,0,0,1-4.31.52,13.45,13.45,0,0,1-4.3-.52V53.07c0-5.08-2.32-7.67-7.4-7.67-3.71,0-7.23,2.07-9.39,6V84.14a14.81,14.81,0,0,1-4.3.52,13.49,13.49,0,0,1-4.31-.52V53.07c0-5.08-2.32-7.67-7.4-7.67a11.21,11.21,0,0,0-9.38,5.94v32.8a14.84,14.84,0,0,1-4.31.52A13.45,13.45,0,0,1,350.33,84.14Z"/><path class="cls-1" d="M422,84.14V20.61a12.79,12.79,0,0,1,4.3-.52,14.19,14.19,0,0,1,4.31.52V84.14a14.19,14.19,0,0,1-4.31.52A12.79,12.79,0,0,1,422,84.14Z"/><polyline class="cls-2" points="474.34 4.38 509.09 55.83 474.34 107.47"/></svg>