<svg id="Warstwa_1" data-name="Warstwa 1" xmlns="http://www.w3.org/2000/svg" viewBox="0 0 410 70"><defs><style>.cls-1{fill:#005ca5;}.cls-2{fill:none;stroke:#cbd413;stroke-miterlimit:10;stroke-width:1.85px;}</style></defs><title>antyseptyka_mozliwa</title><path class="cls-1" d="M51.55,21.38a3.78,3.78,0,0,1-1.09.12,3,3,0,0,1-1-.12l-.86-2.5H44.39l-.87,2.5a3.22,3.22,0,0,1-1,.12,3,3,0,0,1-.94-.12l3.73-10.91a5.29,5.29,0,0,1,1.25-.12,4.93,4.93,0,0,1,1.24.12Zm-6.68-4h3.27l-1.21-3.46a11.91,11.91,0,0,1-.4-1.56h-.05a10.51,10.51,0,0,1-.39,1.56Z"/><path class="cls-1" d="M52.54,21.39v-8a3,3,0,0,1,1-.12,3.23,3.23,0,0,1,1,.12v.63a3,3,0,0,1,2.24-.89,2.16,2.16,0,0,1,2.37,2.32v5.9a3.29,3.29,0,0,1-1,.11,3.25,3.25,0,0,1-1-.11V15.88c0-.75-.37-1.16-1.22-1.16a1.77,1.77,0,0,0-1.44.77v5.9a3.5,3.5,0,0,1-1,.11A3.21,3.21,0,0,1,52.54,21.39Z"/><path class="cls-1" d="M65.58,20.85a2.1,2.1,0,0,1-.09.65,5.38,5.38,0,0,1-1.29.15c-2,0-2.79-1-2.79-3V14.73H60.27a2.12,2.12,0,0,1-.1-.7,2,2,0,0,1,.1-.72h1.14V11.87a3.65,3.65,0,0,1,2-.35v1.79h1.86a2,2,0,0,1,.11.71,2.19,2.19,0,0,1-.11.71H63.36v3.84c0,1.21.44,1.57,1.4,1.57a3.09,3.09,0,0,0,.66-.08A1.86,1.86,0,0,1,65.58,20.85Z"/><path class="cls-1" d="M73.77,13.41,70.89,22.6c-.56,1.78-1.21,2.77-3,2.77a3.21,3.21,0,0,1-1.11-.17,1.81,1.81,0,0,1-.13-.7,2.15,2.15,0,0,1,.14-.76,3,3,0,0,0,.71.07c.79,0,1.18-.19,1.61-1.55l.27-.78a2,2,0,0,1-.61-.09l-2.85-8a4.61,4.61,0,0,1,1-.1,3.69,3.69,0,0,1,1,.1l1.55,4.25a11.12,11.12,0,0,1,.51,2h.06a15.38,15.38,0,0,1,.47-2l1.35-4.25a3.47,3.47,0,0,1,.94-.1A4,4,0,0,1,73.77,13.41Z"/><path class="cls-1" d="M74.41,21.07a1.91,1.91,0,0,1,.48-1.37,6,6,0,0,0,2.1.37c1,0,1.41-.29,1.41-.91s-.85-.88-1.75-1.16-2.12-.78-2.12-2.31,1-2.52,3-2.52a5.27,5.27,0,0,1,2.37.45A1.77,1.77,0,0,1,79.46,15a5.48,5.48,0,0,0-1.71-.25c-.94,0-1.39.33-1.39.91s1,.79,1.92,1.12a2.37,2.37,0,0,1,2,2.37c0,1.59-1,2.55-3.14,2.55A6.23,6.23,0,0,1,74.41,21.07Z"/><path class="cls-1" d="M87.77,18H83.31c.14,1.56.81,2,1.94,2A3.53,3.53,0,0,0,87,19.61,2.06,2.06,0,0,1,87.59,21a4.61,4.61,0,0,1-2.67.69c-2.44,0-3.61-1.37-3.61-4.22s1.37-4.26,3.53-4.26a2.81,2.81,0,0,1,3.1,3.16A7.47,7.47,0,0,1,87.77,18Zm-4.46-1.27h2.81c0-.19,0-.4,0-.62,0-.82-.33-1.49-1.27-1.49S83.42,15.2,83.31,16.73Z"/><path class="cls-1" d="M96.35,17.41c0,3.16-1.16,4.24-2.91,4.24a2.49,2.49,0,0,1-2.12-.89v4.18a3.72,3.72,0,0,1-1,.11,3.25,3.25,0,0,1-1-.11V13.41a3.56,3.56,0,0,1,1-.1,4.07,4.07,0,0,1,1,.1v.65a2.51,2.51,0,0,1,2.14-.89C95.18,13.17,96.35,14.2,96.35,17.41Zm-2,0c0-2.12-.51-2.69-1.57-2.69-.89,0-1.4.74-1.42,1.67v2c0,.92.48,1.75,1.42,1.75S94.31,19.58,94.31,17.41Z"/><path class="cls-1" d="M102.56,20.85a2.1,2.1,0,0,1-.09.65,5.23,5.23,0,0,1-1.28.15c-2,0-2.79-1-2.79-3V14.73H97.25a2.34,2.34,0,0,1-.09-.7,2.25,2.25,0,0,1,.09-.72H98.4V11.87a3.65,3.65,0,0,1,1.95-.35v1.79h1.86a2,2,0,0,1,.11.71,2.19,2.19,0,0,1-.11.71h-1.86v3.84c0,1.21.43,1.57,1.39,1.57a3.24,3.24,0,0,0,.67-.08A2,2,0,0,1,102.56,20.85Z"/><path class="cls-1" d="M110.76,13.41l-2.88,9.19c-.56,1.78-1.21,2.77-3,2.77a3.33,3.33,0,0,1-1.12-.17,1.94,1.94,0,0,1-.12-.7,2.15,2.15,0,0,1,.14-.76,2.88,2.88,0,0,0,.71.07c.79,0,1.18-.19,1.61-1.55l.26-.78a1.93,1.93,0,0,1-.6-.09l-2.85-8a4.61,4.61,0,0,1,1-.1,3.78,3.78,0,0,1,1,.1l1.55,4.25a12.31,12.31,0,0,1,.51,2H107a14.23,14.23,0,0,1,.46-2l1.35-4.25a3.61,3.61,0,0,1,1-.1A4.15,4.15,0,0,1,110.76,13.41Z"/><path class="cls-1" d="M118.69,21.39a4.59,4.59,0,0,1-1.1.12,4.14,4.14,0,0,1-1.06-.12l-2-3.45h-.75v3.45a3.51,3.51,0,0,1-1,.11,3.72,3.72,0,0,1-1-.11V10a5.17,5.17,0,0,1,1-.08,5.41,5.41,0,0,1,1,.08v6.55h.76l1.81-3.1a3.74,3.74,0,0,1,1-.1,4.49,4.49,0,0,1,1,.1l-2.12,3.69Z"/><path class="cls-1" d="M125.7,16.12v5.27a2.25,2.25,0,0,1-.8.11,2.65,2.65,0,0,1-.81-.11l-.25-.9a2.3,2.3,0,0,1-2.3,1.16c-1.51,0-2.41-.86-2.41-2.61s1-2.48,3-2.48c.6,0,1.16.06,1.58.09V16.2c0-.91-.4-1.42-1.45-1.42a6.28,6.28,0,0,0-2,.37,1.46,1.46,0,0,1-.43-.61,1.6,1.6,0,0,1-.12-.77,7,7,0,0,1,2.84-.6C124.88,13.17,125.7,14.13,125.7,16.12Zm-2,2.27v-.51a11.55,11.55,0,0,0-1.29-.08c-.88,0-1.36.35-1.36,1.24s.44,1.25,1.15,1.25C123.27,20.29,123.75,19.41,123.75,18.39Z"/><path class="cls-1" d="M130.57,21.39v-8a3,3,0,0,1,1-.12,3.39,3.39,0,0,1,1,.12v.65a2.91,2.91,0,0,1,2.15-.91,2,2,0,0,1,2,1.08,3.19,3.19,0,0,1,2.48-1.08,2.13,2.13,0,0,1,2.29,2.34v5.88a3.55,3.55,0,0,1-1,.11,3.41,3.41,0,0,1-1-.11V15.88a1,1,0,0,0-1.14-1.16,1.63,1.63,0,0,0-1.37.77v5.9a3.55,3.55,0,0,1-1,.11,3.41,3.41,0,0,1-1-.11V15.88c0-.73-.32-1.16-1.13-1.16a1.64,1.64,0,0,0-1.36.75v5.92a3.68,3.68,0,0,1-1,.11A3.29,3.29,0,0,1,130.57,21.39Z"/><path class="cls-1" d="M142.88,17.41c0-3.08,1.38-4.24,3.59-4.24s3.6,1.16,3.6,4.24-1.38,4.24-3.6,4.24S142.88,20.48,142.88,17.41Zm5.16,0c0-2.17-.59-2.74-1.57-2.74s-1.58.57-1.58,2.74.59,2.76,1.58,2.76S148,19.58,148,17.41Z"/><path class="cls-1" d="M157.27,20.72a2.13,2.13,0,0,1-.13.78H151.2a2.6,2.6,0,0,1-.11-.81,2.37,2.37,0,0,1,.11-.76l3.87-5.06h-3.66a2.58,2.58,0,0,1-.11-.79,2.52,2.52,0,0,1,.11-.77h5.75a2.68,2.68,0,0,1,.09.74,3.55,3.55,0,0,1-.09.82l-3.87,5.06h3.85A2,2,0,0,1,157.27,20.72Zm-3-8.53a3.55,3.55,0,0,1-.92-.09V10.43a3.22,3.22,0,0,1,.92-.1,3.4,3.4,0,0,1,.9.1V12.1A3.76,3.76,0,0,1,154.31,12.19Z"/><path class="cls-1" d="M158.75,21.39V10a3.25,3.25,0,0,1,1-.11,3.59,3.59,0,0,1,1,.11v11.4a3.59,3.59,0,0,1-1,.11A3.25,3.25,0,0,1,158.75,21.39Z"/><path class="cls-1" d="M162.55,11.73V10.05a3.68,3.68,0,0,1,1-.1,4.07,4.07,0,0,1,1,.1v1.68a4.07,4.07,0,0,1-1,.1A3.77,3.77,0,0,1,162.55,11.73Zm0,9.66v-8a3.38,3.38,0,0,1,1-.1,4,4,0,0,1,1,.1v8a3.64,3.64,0,0,1-1,.11A3.09,3.09,0,0,1,162.58,21.39Z"/><path class="cls-1" d="M167.85,21.39l-2.2-8a3.84,3.84,0,0,1,1-.1,2.21,2.21,0,0,1,.85.1l1.22,4.25a15.64,15.64,0,0,1,.36,2h0a12.11,12.11,0,0,1,.38-2l1.16-4.23a5.31,5.31,0,0,1,1-.1,3.94,3.94,0,0,1,1,.1l1.14,4.23a15.22,15.22,0,0,1,.34,2h.05a10.89,10.89,0,0,1,.39-2l1.2-4.23a3.07,3.07,0,0,1,.86-.1,2.48,2.48,0,0,1,.83.1l-2.17,8a5.07,5.07,0,0,1-1.14.11,5.22,5.22,0,0,1-1.15-.11l-1-3.64a13.73,13.73,0,0,1-.39-2.57h-.06a12,12,0,0,1-.4,2.57l-1,3.64a5,5,0,0,1-1.12.11A5.35,5.35,0,0,1,167.85,21.39Z"/><path class="cls-1" d="M184.67,25a2.85,2.85,0,0,1-1.52.39,1.37,1.37,0,0,1-1.57-1.44,3.64,3.64,0,0,1,1.51-2.51l-.31-.93a2.36,2.36,0,0,1-2.31,1.16c-1.5,0-2.4-.86-2.4-2.61s1-2.48,3-2.48c.61,0,1.2.06,1.58.09V16.2c0-.91-.4-1.42-1.45-1.42a6.26,6.26,0,0,0-2,.37,1.35,1.35,0,0,1-.44-.61,1.6,1.6,0,0,1-.12-.77,7,7,0,0,1,2.85-.6c2.27,0,3.09,1,3.09,3v5.27a3.44,3.44,0,0,0-1.34,2.14c0,.34.18.51.45.51a1.23,1.23,0,0,0,.51-.14A2,2,0,0,1,184.67,25Zm-2-6.59v-.51a10.9,10.9,0,0,0-1.28-.08c-.89,0-1.36.35-1.36,1.24s.43,1.25,1.14,1.25C182.2,20.29,182.68,19.41,182.68,18.39Z"/><path class="cls-1" d="M195.58,16.12v5.27a2.25,2.25,0,0,1-.8.11,2.65,2.65,0,0,1-.81-.11l-.24-.9a2.32,2.32,0,0,1-2.31,1.16c-1.5,0-2.4-.86-2.4-2.61s1-2.48,3-2.48c.61,0,1.16.06,1.58.09V16.2c0-.91-.4-1.42-1.45-1.42a6.28,6.28,0,0,0-2,.37,1.46,1.46,0,0,1-.43-.61,1.6,1.6,0,0,1-.12-.77,7,7,0,0,1,2.85-.6C194.76,13.17,195.58,14.13,195.58,16.12Zm-2,2.27v-.51a11.52,11.52,0,0,0-1.28-.08c-.89,0-1.37.35-1.37,1.24s.44,1.25,1.15,1.25C193.15,20.29,193.63,19.41,193.63,18.39Z"/><path class="cls-1" d="M197.38,21.39V10a3.25,3.25,0,0,1,1-.11,3.46,3.46,0,0,1,1,.11v11.4a3.46,3.46,0,0,1-1,.11A3.25,3.25,0,0,1,197.38,21.39Z"/><path class="cls-1" d="M205.88,20.85a2.1,2.1,0,0,1-.09.65,5.23,5.23,0,0,1-1.28.15c-2,0-2.79-1-2.79-3V14.73h-1.15a2.34,2.34,0,0,1-.09-.7,2.25,2.25,0,0,1,.09-.72h1.15V11.87a3.65,3.65,0,0,1,1.95-.35v1.79h1.86a2,2,0,0,1,.11.71,2.19,2.19,0,0,1-.11.71h-1.86v3.84c0,1.21.43,1.57,1.39,1.57a3.24,3.24,0,0,0,.67-.08A2,2,0,0,1,205.88,20.85Z"/><path class="cls-1" d="M213.1,18h-4.46c.14,1.56.81,2,1.94,2a3.57,3.57,0,0,0,1.72-.42,2.06,2.06,0,0,1,.62,1.35,4.61,4.61,0,0,1-2.67.69c-2.45,0-3.61-1.37-3.61-4.22s1.37-4.26,3.53-4.26a2.81,2.81,0,0,1,3.1,3.16A7.47,7.47,0,0,1,213.1,18Zm-4.46-1.27h2.8a6,6,0,0,0,0-.62c0-.82-.32-1.49-1.26-1.49S208.75,15.2,208.64,16.73Z"/><path class="cls-1" d="M214.68,21.39v-8a3.73,3.73,0,0,1,1-.1,2.45,2.45,0,0,1,.86.1l0,1a2.22,2.22,0,0,1,1.89-1.22,2.48,2.48,0,0,1,1.36.41,2.17,2.17,0,0,1-.83,1.58,1.49,1.49,0,0,0-.9-.31,1.86,1.86,0,0,0-1.46,1v5.53a3.55,3.55,0,0,1-1,.11A3.41,3.41,0,0,1,214.68,21.39Z"/><path class="cls-1" d="M220.74,21.39v-8a3,3,0,0,1,1-.12,3.23,3.23,0,0,1,1,.12v.63a3,3,0,0,1,2.24-.89,2.16,2.16,0,0,1,2.37,2.32v5.9a3.29,3.29,0,0,1-1,.11,3.25,3.25,0,0,1-1-.11V15.88c0-.75-.37-1.16-1.22-1.16a1.77,1.77,0,0,0-1.44.77v5.9a3.5,3.5,0,0,1-1,.11A3.21,3.21,0,0,1,220.74,21.39Z"/><path class="cls-1" d="M235.16,16.12v5.27a2.35,2.35,0,0,1-.81.11,2.61,2.61,0,0,1-.8-.11l-.25-.9A2.31,2.31,0,0,1,231,21.65c-1.5,0-2.4-.86-2.4-2.61s1-2.48,3-2.48c.6,0,1.16.06,1.58.09V16.2c0-.91-.41-1.42-1.46-1.42a6.26,6.26,0,0,0-2,.37,1.35,1.35,0,0,1-.44-.61,1.6,1.6,0,0,1-.12-.77,7,7,0,0,1,2.85-.6C234.34,13.17,235.16,14.13,235.16,16.12Zm-1.95,2.27v-.51a11.88,11.88,0,0,0-1.29-.08c-.88,0-1.36.35-1.36,1.24s.43,1.25,1.14,1.25C232.72,20.29,233.21,19.41,233.21,18.39Z"/><path class="cls-1" d="M241.61,20.85a2.1,2.1,0,0,1-.09.65,5.23,5.23,0,0,1-1.28.15c-2,0-2.79-1-2.79-3V14.73H236.3a2.34,2.34,0,0,1-.09-.7,2.25,2.25,0,0,1,.09-.72h1.15V11.87a3.65,3.65,0,0,1,2-.35v1.79h1.86a2,2,0,0,1,.11.71,2.19,2.19,0,0,1-.11.71H239.4v3.84c0,1.21.43,1.57,1.39,1.57a3.24,3.24,0,0,0,.67-.08A2,2,0,0,1,241.61,20.85Z"/><path class="cls-1" d="M249.81,13.41l-2.88,9.19c-.56,1.78-1.21,2.77-3,2.77a3.33,3.33,0,0,1-1.12-.17,1.94,1.94,0,0,1-.12-.7,2.15,2.15,0,0,1,.14-.76,2.88,2.88,0,0,0,.71.07c.79,0,1.18-.19,1.61-1.55l.26-.78a1.93,1.93,0,0,1-.6-.09l-2.85-8a4.61,4.61,0,0,1,1-.1,3.78,3.78,0,0,1,1,.1l1.55,4.25a12.31,12.31,0,0,1,.51,2h.06a14.23,14.23,0,0,1,.46-2l1.35-4.25a3.61,3.61,0,0,1,.95-.1A4,4,0,0,1,249.81,13.41Z"/><path class="cls-1" d="M252.38,21.39l-2.2-8a3.94,3.94,0,0,1,1-.1,2.21,2.21,0,0,1,.85.1l1.22,4.25a14,14,0,0,1,.36,2h.05a11.92,11.92,0,0,1,.37-2l1.16-4.23a5.31,5.31,0,0,1,1-.1,3.94,3.94,0,0,1,1,.1l1.15,4.23a17.16,17.16,0,0,1,.34,2h0a11.84,11.84,0,0,1,.39-2l1.21-4.23a3,3,0,0,1,.85-.1,2.41,2.41,0,0,1,.83.1l-2.16,8a5.22,5.22,0,0,1-1.15.11,5.07,5.07,0,0,1-1.14-.11l-1-3.64a13.57,13.57,0,0,1-.38-2.57h-.07a12,12,0,0,1-.4,2.57l-1,3.64a5,5,0,0,1-1.11.11A5.44,5.44,0,0,1,252.38,21.39Z"/><path class="cls-1" d="M269.2,25a2.85,2.85,0,0,1-1.52.39,1.36,1.36,0,0,1-1.56-1.44,3.62,3.62,0,0,1,1.5-2.51l-.31-.93A2.34,2.34,0,0,1,265,21.65c-1.5,0-2.4-.86-2.4-2.61s1-2.48,3-2.48c.6,0,1.19.06,1.58.09V16.2c0-.91-.41-1.42-1.46-1.42a6.26,6.26,0,0,0-2,.37,1.35,1.35,0,0,1-.44-.61,1.6,1.6,0,0,1-.12-.77,7,7,0,0,1,2.85-.6c2.28,0,3.1,1,3.1,3v5.27a3.42,3.42,0,0,0-1.35,2.14c0,.34.19.51.45.51a1.23,1.23,0,0,0,.51-.14A2,2,0,0,1,269.2,25Zm-2-6.59v-.51a11.24,11.24,0,0,0-1.29-.08c-.88,0-1.36.35-1.36,1.24s.43,1.25,1.14,1.25C266.74,20.29,267.22,19.41,267.22,18.39Z"/><path class="cls-1" d="M280.12,16.12v5.27a2.35,2.35,0,0,1-.81.11,2.61,2.61,0,0,1-.8-.11l-.25-.9A2.31,2.31,0,0,1,276,21.65c-1.5,0-2.4-.86-2.4-2.61s1-2.48,3-2.48c.6,0,1.16.06,1.58.09V16.2c0-.91-.41-1.42-1.46-1.42a6.26,6.26,0,0,0-2,.37,1.35,1.35,0,0,1-.44-.61,1.6,1.6,0,0,1-.12-.77,7,7,0,0,1,2.85-.6C279.3,13.17,280.12,14.13,280.12,16.12Zm-1.95,2.27v-.51a11.71,11.71,0,0,0-1.29-.08c-.88,0-1.36.35-1.36,1.24s.43,1.25,1.14,1.25C277.69,20.29,278.17,19.41,278.17,18.39Z"/><path class="cls-1" d="M281.87,21.39v-8a3,3,0,0,1,1-.12,3.23,3.23,0,0,1,1,.12v.63a3,3,0,0,1,2.24-.89,2.16,2.16,0,0,1,2.37,2.32v5.9a3.29,3.29,0,0,1-1,.11,3.25,3.25,0,0,1-1-.11V15.88c0-.75-.37-1.16-1.22-1.16a1.77,1.77,0,0,0-1.44.77v5.9a3.5,3.5,0,0,1-1,.11A3.21,3.21,0,0,1,281.87,21.39Z"/><path class="cls-1" d="M294.91,20.85a2.1,2.1,0,0,1-.09.65,5.38,5.38,0,0,1-1.29.15c-2,0-2.79-1-2.79-3V14.73H289.6a2.12,2.12,0,0,1-.1-.7,2,2,0,0,1,.1-.72h1.14V11.87a3.65,3.65,0,0,1,1.95-.35v1.79h1.86a2,2,0,0,1,.11.71,2.19,2.19,0,0,1-.11.71h-1.86v3.84c0,1.21.44,1.57,1.4,1.57a3.09,3.09,0,0,0,.66-.08A1.86,1.86,0,0,1,294.91,20.85Z"/><path class="cls-1" d="M303.1,13.41l-2.88,9.19c-.56,1.78-1.21,2.77-3,2.77a3.21,3.21,0,0,1-1.11-.17,1.81,1.81,0,0,1-.13-.7,2.15,2.15,0,0,1,.14-.76,3,3,0,0,0,.71.07c.79,0,1.18-.19,1.61-1.55l.27-.78a2,2,0,0,1-.61-.09l-2.85-8a4.61,4.61,0,0,1,1-.1,3.69,3.69,0,0,1,1,.1l1.55,4.25a11.12,11.12,0,0,1,.51,2h.06a15.38,15.38,0,0,1,.47-2l1.35-4.25a3.47,3.47,0,0,1,.94-.1A4,4,0,0,1,303.1,13.41Z"/><path class="cls-1" d="M311.16,17.41c0,3.18-1.17,4.24-2.92,4.24a2.48,2.48,0,0,1-2.12-.89v.63a3.63,3.63,0,0,1-1,.11,3.34,3.34,0,0,1-1-.11V10a3.34,3.34,0,0,1,1-.11,3.63,3.63,0,0,1,1,.11v4.07a2.48,2.48,0,0,1,2.12-.89C310,13.17,311.16,14.24,311.16,17.41Zm-2.05,0c0-2.12-.49-2.69-1.56-2.69-.89,0-1.41.74-1.43,1.7v2a1.51,1.51,0,0,0,1.43,1.7C308.62,20.1,309.11,19.53,309.11,17.41Z"/><path class="cls-1" d="M312.66,11.73V10.05a3.64,3.64,0,0,1,1-.1,4.11,4.11,0,0,1,1,.1v1.68a4.11,4.11,0,0,1-1,.1A3.73,3.73,0,0,1,312.66,11.73Zm0,9.66v-8a3.34,3.34,0,0,1,1-.1,4,4,0,0,1,1,.1v8a3.68,3.68,0,0,1-1,.11A3.05,3.05,0,0,1,312.69,21.39Z"/><path class="cls-1" d="M316.14,17.41c0-3.08,1.38-4.24,3.6-4.24s3.59,1.16,3.59,4.24-1.38,4.24-3.59,4.24S316.14,20.48,316.14,17.41Zm5.16,0c0-2.17-.59-2.74-1.56-2.74s-1.58.57-1.58,2.74.58,2.76,1.58,2.76S321.3,19.58,321.3,17.41Z"/><path class="cls-1" d="M329.51,20.85a2.1,2.1,0,0,1-.09.65,5.38,5.38,0,0,1-1.29.15c-2,0-2.79-1-2.79-3V14.73H324.2a2.12,2.12,0,0,1-.1-.7,2,2,0,0,1,.1-.72h1.14V11.87a3.65,3.65,0,0,1,2-.35v1.79h1.86a2,2,0,0,1,.11.71,2.19,2.19,0,0,1-.11.71h-1.86v3.84c0,1.21.44,1.57,1.4,1.57a3.09,3.09,0,0,0,.66-.08A1.86,1.86,0,0,1,329.51,20.85Z"/><path class="cls-1" d="M337.7,13.41l-2.88,9.19c-.56,1.78-1.21,2.77-3,2.77a3.21,3.21,0,0,1-1.11-.17,1.81,1.81,0,0,1-.13-.7,2.15,2.15,0,0,1,.14-.76,3,3,0,0,0,.71.07c.79,0,1.18-.19,1.61-1.55l.27-.78a2,2,0,0,1-.61-.09l-2.85-8a4.61,4.61,0,0,1,1-.1,3.69,3.69,0,0,1,1,.1l1.55,4.25a11.12,11.12,0,0,1,.51,2H334a15.38,15.38,0,0,1,.47-2l1.35-4.25a3.47,3.47,0,0,1,.94-.1A4,4,0,0,1,337.7,13.41Z"/><path class="cls-1" d="M345.63,21.39a4.49,4.49,0,0,1-1.1.12,4,4,0,0,1-1-.12l-2-3.45h-.74v3.45a4.38,4.38,0,0,1-1.95,0V10a5.17,5.17,0,0,1,1-.08,5.41,5.41,0,0,1,1,.08v6.55h.76l1.81-3.1a3.74,3.74,0,0,1,1-.1,4.49,4.49,0,0,1,1,.1l-2.12,3.69Z"/><path class="cls-1" d="M346.25,17.41c0-3.08,1.38-4.24,3.59-4.24s3.6,1.16,3.6,4.24-1.38,4.24-3.6,4.24S346.25,20.48,346.25,17.41Zm5.16,0c0-2.17-.59-2.74-1.57-2.74s-1.58.57-1.58,2.74.59,2.76,1.58,2.76S351.41,19.58,351.41,17.41Z"/><path class="cls-1" d="M359.62,20.85a1.91,1.91,0,0,1-.1.65,5.23,5.23,0,0,1-1.28.15c-2,0-2.79-1-2.79-3V14.73h-1.14a2.12,2.12,0,0,1-.1-.7,2,2,0,0,1,.1-.72h1.14V11.87a3.65,3.65,0,0,1,1.95-.35v1.79h1.86a2,2,0,0,1,.11.71,2.19,2.19,0,0,1-.11.71H357.4v3.84c0,1.21.44,1.57,1.4,1.57a3.09,3.09,0,0,0,.66-.08A1.86,1.86,0,0,1,359.62,20.85Z"/><path class="cls-1" d="M366.83,18h-4.46c.14,1.56.81,2,1.94,2a3.53,3.53,0,0,0,1.72-.42,2.06,2.06,0,0,1,.62,1.35,4.61,4.61,0,0,1-2.67.69c-2.44,0-3.6-1.37-3.6-4.22s1.36-4.26,3.53-4.26a2.82,2.82,0,0,1,3.1,3.16A7.08,7.08,0,0,1,366.83,18Zm-4.46-1.27h2.81c0-.19,0-.4,0-.62,0-.82-.33-1.49-1.27-1.49S362.48,15.2,362.37,16.73Z"/><path class="cls-1" d="M368.41,21.39v-8a3.73,3.73,0,0,1,1-.1,2.49,2.49,0,0,1,.87.1l0,1a2.23,2.23,0,0,1,1.89-1.22,2.52,2.52,0,0,1,1.37.41,2.18,2.18,0,0,1-.84,1.58,1.49,1.49,0,0,0-.9-.31,1.83,1.83,0,0,0-1.45,1v5.53a3.68,3.68,0,0,1-1,.11A3.41,3.41,0,0,1,368.41,21.39Z"/><path class="cls-1" d="M380.56,16.12v5.27a2.35,2.35,0,0,1-.81.11,2.61,2.61,0,0,1-.8-.11l-.25-.9a2.31,2.31,0,0,1-2.31,1.16c-1.5,0-2.4-.86-2.4-2.61s1-2.48,3-2.48c.6,0,1.16.06,1.58.09V16.2c0-.91-.41-1.42-1.46-1.42a6.26,6.26,0,0,0-2,.37,1.35,1.35,0,0,1-.44-.61,1.6,1.6,0,0,1-.12-.77,7,7,0,0,1,2.85-.6C379.74,13.17,380.56,14.13,380.56,16.12Zm-1.95,2.27v-.51a11.88,11.88,0,0,0-1.29-.08c-.88,0-1.36.35-1.36,1.24s.43,1.25,1.14,1.25C378.13,20.29,378.61,19.41,378.61,18.39Z"/><path class="cls-1" d="M389.31,17.41c0,3.16-1.16,4.24-2.91,4.24a2.51,2.51,0,0,1-2.13-.89v4.18a3.63,3.63,0,0,1-1,.11,3.34,3.34,0,0,1-1-.11V13.41a3.65,3.65,0,0,1,1-.1,4,4,0,0,1,1,.1v.65a2.51,2.51,0,0,1,2.14-.89C388.13,13.17,389.31,14.2,389.31,17.41Zm-2.05,0c0-2.12-.51-2.69-1.56-2.69-.9,0-1.41.74-1.43,1.67v2c0,.92.48,1.75,1.43,1.75S387.26,19.58,387.26,17.41Z"/><path class="cls-1" d="M390.81,11.73V10.05a3.68,3.68,0,0,1,1-.1,4.07,4.07,0,0,1,1,.1v1.68a4.07,4.07,0,0,1-1,.1A3.77,3.77,0,0,1,390.81,11.73Zm0,9.66v-8a3.38,3.38,0,0,1,1-.1,3.88,3.88,0,0,1,1,.1v8a3.55,3.55,0,0,1-1,.11A3.09,3.09,0,0,1,390.84,21.39Z"/><path class="cls-1" d="M394.6,11.73V10.05a3.68,3.68,0,0,1,1-.1,4,4,0,0,1,1,.1v1.68a4,4,0,0,1-1,.1A3.86,3.86,0,0,1,394.6,11.73Zm0,9.66v-8a3.34,3.34,0,0,1,1-.1,4,4,0,0,1,1,.1v8a3.68,3.68,0,0,1-1,.11A3.05,3.05,0,0,1,394.64,21.39Z"/><path class="cls-1" d="M43.89,40,41.7,32a3.51,3.51,0,0,1,1-.11,2,2,0,0,1,.85.11l1.22,4.24a15.74,15.74,0,0,1,.36,2h0a11.92,11.92,0,0,1,.38-2L46.67,32a4.85,4.85,0,0,1,1-.11,3.6,3.6,0,0,1,1,.11l1.14,4.23a15,15,0,0,1,.34,2h.05a10.89,10.89,0,0,1,.39-2L51.79,32a2.81,2.81,0,0,1,.86-.11,2.28,2.28,0,0,1,.83.11l-2.17,8a5.76,5.76,0,0,1-1.14.1A5.93,5.93,0,0,1,49,40l-1-3.64a13.73,13.73,0,0,1-.39-2.57h-.06a12.09,12.09,0,0,1-.4,2.57l-1,3.64a5.69,5.69,0,0,1-1.12.1A6.25,6.25,0,0,1,43.89,40Z"/><path class="cls-1" d="M60.73,36.58H56.27c.14,1.57.81,2,1.94,2a3.57,3.57,0,0,0,1.71-.41,1.93,1.93,0,0,1,.62,1.34,4.51,4.51,0,0,1-2.66.7c-2.45,0-3.61-1.38-3.61-4.23s1.36-4.26,3.53-4.26a2.81,2.81,0,0,1,3.1,3.16A7.36,7.36,0,0,1,60.73,36.58Zm-4.46-1.27h2.8a5.79,5.79,0,0,0,0-.61c0-.83-.32-1.49-1.27-1.49S56.38,33.78,56.27,35.31Z"/><path class="cls-1" d="M66.93,40l-2.2-8a3.51,3.51,0,0,1,1-.11,2,2,0,0,1,.85.11l1.22,4.24a15.74,15.74,0,0,1,.36,2h0a11.92,11.92,0,0,1,.38-2L69.7,32a4.85,4.85,0,0,1,1-.11,3.6,3.6,0,0,1,1,.11l1.14,4.23a15,15,0,0,1,.34,2h0a10.89,10.89,0,0,1,.39-2L74.82,32a2.81,2.81,0,0,1,.86-.11,2.28,2.28,0,0,1,.83.11l-2.17,8a5.76,5.76,0,0,1-1.14.1,5.93,5.93,0,0,1-1.15-.1l-1-3.64a13.73,13.73,0,0,1-.39-2.57h-.06a12.09,12.09,0,0,1-.4,2.57l-1,3.64a5.69,5.69,0,0,1-1.12.1A6.08,6.08,0,0,1,66.93,40Z"/><path class="cls-1" d="M77.19,39.65a2,2,0,0,1,.48-1.36,6.35,6.35,0,0,0,2.11.37c1,0,1.41-.29,1.41-.91s-.85-.89-1.75-1.17-2.12-.77-2.12-2.3,1-2.53,3-2.53a5.42,5.42,0,0,1,2.37.45,1.8,1.8,0,0,1-.47,1.33,5.71,5.71,0,0,0-1.7-.24c-1,0-1.39.32-1.39.91s1,.79,1.92,1.11,2,.84,2,2.37-1,2.56-3.14,2.56A6.23,6.23,0,0,1,77.19,39.65Z"/><path class="cls-1" d="M91.43,36c0,3.16-1.16,4.24-2.91,4.24a2.49,2.49,0,0,1-2.13-.9v4.18a3.63,3.63,0,0,1-1,.11,3.34,3.34,0,0,1-1-.11V32a3.34,3.34,0,0,1,1-.11,3.63,3.63,0,0,1,1,.11v.65a2.49,2.49,0,0,1,2.14-.9C90.25,31.75,91.43,32.79,91.43,36Zm-2.05,0c0-2.13-.51-2.7-1.56-2.7-.9,0-1.41.74-1.43,1.67v2c0,.91.48,1.75,1.43,1.75S89.38,38.16,89.38,36Z"/><path class="cls-1" d="M92.62,36c0-3.09,1.38-4.25,3.59-4.25s3.6,1.16,3.6,4.25-1.38,4.24-3.6,4.24S92.62,39.06,92.62,36Zm5.16,0c0-2.17-.59-2.75-1.57-2.75s-1.58.58-1.58,2.75.59,2.75,1.58,2.75S97.78,38.16,97.78,36Z"/><path class="cls-1" d="M101.28,40V32a2.75,2.75,0,0,1,1-.13,3.15,3.15,0,0,1,1,.13v.65a2.9,2.9,0,0,1,2.15-.92,2.07,2.07,0,0,1,2,1.09,3.13,3.13,0,0,1,2.47-1.09,2.14,2.14,0,0,1,2.3,2.34V40a4,4,0,0,1-1,.1,3.73,3.73,0,0,1-1-.1V34.46A1,1,0,0,0,109,33.3a1.63,1.63,0,0,0-1.37.78V40a3.88,3.88,0,0,1-1,.1,3.73,3.73,0,0,1-1-.1V34.46c0-.73-.32-1.16-1.13-1.16a1.66,1.66,0,0,0-1.36.76V40a4,4,0,0,1-1,.1A3.6,3.6,0,0,1,101.28,40Z"/><path class="cls-1" d="M120,34.71V40a2.56,2.56,0,0,1-.81.1,2.85,2.85,0,0,1-.8-.1l-.25-.9a2.32,2.32,0,0,1-2.31,1.16c-1.5,0-2.4-.87-2.4-2.62s1-2.48,3-2.48c.6,0,1.16.07,1.58.1v-.45c0-.92-.41-1.43-1.46-1.43a6.26,6.26,0,0,0-2,.37,1.38,1.38,0,0,1-.43-.6,1.55,1.55,0,0,1-.13-.77,6.93,6.93,0,0,1,2.85-.61C119.17,31.75,120,32.71,120,34.71ZM118,37v-.51c-.34,0-.82-.08-1.29-.08-.88,0-1.36.36-1.36,1.24s.43,1.26,1.14,1.26C117.56,38.88,118,38,118,37Z"/><path class="cls-1" d="M128.68,41.2c0,1.63-1.54,2.76-4.15,2.76-2.39,0-3.46-.84-3.46-2.14a2.56,2.56,0,0,1,1.37-2.09,1.27,1.27,0,0,1-.35-.93,2.57,2.57,0,0,1,.83-1.74,2.49,2.49,0,0,1-1.48-2.49c0-1.73,1.1-2.82,3.19-2.82a4,4,0,0,1,1.83.39l2.2-.39a2.24,2.24,0,0,1,0,1.49l-1.16-.09a2.81,2.81,0,0,1,.33,1.42c0,1.75-1.09,2.82-3.2,2.82a5.35,5.35,0,0,1-.58,0,1.13,1.13,0,0,0-.22.79C124,39.43,128.68,38,128.68,41.2Zm-1.88.25c0-1.09-2-.84-3.37-1.2a1.64,1.64,0,0,0-.53,1.18c0,.7.5,1.19,1.67,1.19C126,42.62,126.8,42.14,126.8,41.45Zm-3.47-6.88c0,1.09.51,1.55,1.3,1.55s1.31-.46,1.31-1.55S125.42,33,124.63,33,123.33,33.49,123.33,34.57Z"/><path class="cls-1" d="M136,34.71V40a2.45,2.45,0,0,1-.8.1,2.89,2.89,0,0,1-.81-.1l-.25-.9a2.32,2.32,0,0,1-2.3,1.16c-1.51,0-2.4-.87-2.4-2.62s1-2.48,3-2.48c.6,0,1.16.07,1.58.1v-.45c0-.92-.4-1.43-1.46-1.43a6.26,6.26,0,0,0-2,.37,1.47,1.47,0,0,1-.43-.6,1.69,1.69,0,0,1-.13-.77,6.93,6.93,0,0,1,2.85-.61C135.18,31.75,136,32.71,136,34.71ZM134.05,37v-.51c-.34,0-.82-.08-1.29-.08-.88,0-1.36.36-1.36,1.24s.44,1.26,1.15,1.26C133.57,38.88,134.05,38,134.05,37Z"/><path class="cls-1" d="M137.75,40V32a2.79,2.79,0,0,1,1-.13,3,3,0,0,1,1,.13v.63a3,3,0,0,1,2.25-.9,2.17,2.17,0,0,1,2.37,2.33V40a3.73,3.73,0,0,1-1,.1,3.51,3.51,0,0,1-1-.1V34.46c0-.74-.37-1.16-1.23-1.16a1.8,1.8,0,0,0-1.44.78V40a3.79,3.79,0,0,1-1,.1A3.55,3.55,0,0,1,137.75,40Z"/><path class="cls-1" d="M146.09,30.31V28.64a3.25,3.25,0,0,1,1-.11,3.63,3.63,0,0,1,1,.11v1.67a3.63,3.63,0,0,1-1,.11A3.41,3.41,0,0,1,146.09,30.31Zm0,9.67V32a3.05,3.05,0,0,1,1-.11,3.68,3.68,0,0,1,1,.11v8a4,4,0,0,1-1,.1A3.34,3.34,0,0,1,146.12,40Z"/><path class="cls-1" d="M156.4,32v8a3.55,3.55,0,0,1-1,.1,3.79,3.79,0,0,1-1-.1v-.62a3.09,3.09,0,0,1-2.23.88,2.17,2.17,0,0,1-2.39-2.32V32a3.5,3.5,0,0,1,1-.11,3.25,3.25,0,0,1,1,.11v5.53c0,.74.37,1.16,1.22,1.16a1.79,1.79,0,0,0,1.44-.76V32a3.46,3.46,0,0,1,1-.11A3.25,3.25,0,0,1,156.4,32Z"/><path class="cls-1" d="M168.31,36c0,3.16-1.16,4.24-2.91,4.24a2.47,2.47,0,0,1-2.12-.9v4.18a3.72,3.72,0,0,1-1,.11,3.25,3.25,0,0,1-1-.11V32a3.25,3.25,0,0,1,1-.11,3.72,3.72,0,0,1,1,.11v.65a2.48,2.48,0,0,1,2.13-.9C167.13,31.75,168.31,32.79,168.31,36Zm-2,0c0-2.13-.51-2.7-1.57-2.7-.9,0-1.41.74-1.42,1.67v2c0,.91.48,1.75,1.42,1.75S166.27,38.16,166.27,36Z"/><path class="cls-1" d="M169.81,40V32a3.41,3.41,0,0,1,1-.11,2.34,2.34,0,0,1,.87.11l0,1a2.24,2.24,0,0,1,1.89-1.23,2.41,2.41,0,0,1,1.36.42,2.21,2.21,0,0,1-.83,1.58,1.49,1.49,0,0,0-.9-.31,1.86,1.86,0,0,0-1.46,1V40a3.88,3.88,0,0,1-1,.1A3.73,3.73,0,0,1,169.81,40Z"/><path class="cls-1" d="M175.56,36c0-3.09,1.38-4.25,3.59-4.25s3.6,1.16,3.6,4.25-1.38,4.24-3.6,4.24S175.56,39.06,175.56,36Zm5.16,0c0-2.17-.59-2.75-1.57-2.75s-1.58.58-1.58,2.75.59,2.75,1.58,2.75S180.72,38.16,180.72,36Z"/><path class="cls-1" d="M183.91,36c0-2.8,1.16-4.26,3.5-4.26a4.2,4.2,0,0,1,2.2.45,2,2,0,0,1-.56,1.35,3.34,3.34,0,0,0-1.26-.23c-1.34,0-1.87.83-1.87,2.68s.59,2.61,1.94,2.61a3.66,3.66,0,0,0,1.34-.24,2.13,2.13,0,0,1,.58,1.36,4.51,4.51,0,0,1-2.37.51C185.08,40.24,183.91,38.85,183.91,36Z"/><path class="cls-1" d="M197.13,36.58h-4.46c.14,1.57.81,2,1.94,2a3.59,3.59,0,0,0,1.72-.41,2,2,0,0,1,.62,1.34,4.56,4.56,0,0,1-2.67.7c-2.44,0-3.61-1.38-3.61-4.23s1.37-4.26,3.54-4.26a2.81,2.81,0,0,1,3.09,3.16A7.36,7.36,0,0,1,197.13,36.58Zm-4.46-1.27h2.81c0-.18,0-.4,0-.61,0-.83-.33-1.49-1.27-1.49S192.78,33.78,192.67,35.31Z"/><path class="cls-1" d="M198.28,39.65a1.9,1.9,0,0,1,.48-1.36,6.31,6.31,0,0,0,2.11.37c.94,0,1.41-.29,1.41-.91s-.86-.89-1.75-1.17-2.13-.77-2.13-2.3,1-2.53,3-2.53a5.42,5.42,0,0,1,2.37.45,1.75,1.75,0,0,1-.46,1.33,5.77,5.77,0,0,0-1.7-.24c-.95,0-1.4.32-1.4.91s1,.79,1.92,1.11,2,.84,2,2.37-1,2.56-3.15,2.56A6.22,6.22,0,0,1,198.28,39.65Z"/><path class="cls-1" d="M212,32v8a3.51,3.51,0,0,1-1,.1,3.83,3.83,0,0,1-1-.1v-.62a3.09,3.09,0,0,1-2.23.88,2.17,2.17,0,0,1-2.38-2.32V32a3.46,3.46,0,0,1,1-.11,3.25,3.25,0,0,1,1,.11v5.53c0,.74.37,1.16,1.22,1.16a1.78,1.78,0,0,0,1.44-.76V32a3.5,3.5,0,0,1,1-.11A3.21,3.21,0,0,1,212,32Z"/><path class="cls-1" d="M223.88,41.2c0,1.63-1.53,2.76-4.15,2.76-2.39,0-3.45-.84-3.45-2.14a2.55,2.55,0,0,1,1.36-2.09,1.26,1.26,0,0,1-.34-.93,2.61,2.61,0,0,1,.82-1.74,2.48,2.48,0,0,1-1.47-2.49c0-1.73,1.1-2.82,3.19-2.82a4,4,0,0,1,1.83.39l2.2-.39a2.24,2.24,0,0,1,0,1.49l-1.17-.09a2.81,2.81,0,0,1,.33,1.42c0,1.75-1.08,2.82-3.19,2.82a5.68,5.68,0,0,1-.59,0,1.19,1.19,0,0,0-.22.79C219.23,39.43,223.88,38,223.88,41.2Zm-1.87.25c0-1.09-2-.84-3.38-1.2a1.64,1.64,0,0,0-.53,1.18c0,.7.5,1.19,1.68,1.19C221.25,42.62,222,42.14,222,41.45Zm-3.47-6.88c0,1.09.51,1.55,1.3,1.55s1.3-.46,1.3-1.55-.51-1.55-1.3-1.55S218.54,33.49,218.54,34.57Z"/><path class="cls-1" d="M224.81,36c0-3.09,1.38-4.25,3.59-4.25S232,32.91,232,36s-1.38,4.24-3.6,4.24S224.81,39.06,224.81,36ZM230,36c0-2.17-.59-2.75-1.57-2.75s-1.58.58-1.58,2.75.59,2.75,1.58,2.75S230,38.16,230,36Z"/><path class="cls-1" d="M231.78,43.74a2,2,0,0,1-.05-.43,1.87,1.87,0,0,1,.22-1,2.67,2.67,0,0,0,.56.06c.65,0,1-.32,1-1.14V32a3.41,3.41,0,0,1,1-.11,3.64,3.64,0,0,1,1,.11v9.45a2.19,2.19,0,0,1-2.4,2.51A3.24,3.24,0,0,1,231.78,43.74Zm1.7-13.43V28.64a3.33,3.33,0,0,1,1-.11,3.67,3.67,0,0,1,1,.11v1.67a3.14,3.14,0,0,1-1,.13A2.85,2.85,0,0,1,233.48,30.31Z"/><path class="cls-1" d="M243.41,36.58H239c.14,1.57.81,2,1.94,2a3.64,3.64,0,0,0,1.72-.41,2,2,0,0,1,.62,1.34,4.56,4.56,0,0,1-2.67.7c-2.44,0-3.61-1.38-3.61-4.23s1.37-4.26,3.53-4.26a2.81,2.81,0,0,1,3.1,3.16A7.36,7.36,0,0,1,243.41,36.58ZM239,35.31h2.8a5.68,5.68,0,0,0,0-.61c0-.83-.33-1.49-1.27-1.49S239.06,33.78,239,35.31Z"/><path class="cls-1" d="M245,40V32a2.79,2.79,0,0,1,1-.13,3,3,0,0,1,1,.13v.63a3,3,0,0,1,2.25-.9,2.17,2.17,0,0,1,2.37,2.33V40a3.73,3.73,0,0,1-1,.1,3.51,3.51,0,0,1-1-.1V34.46c0-.74-.37-1.16-1.23-1.16a1.8,1.8,0,0,0-1.44.78V40a3.79,3.79,0,0,1-1,.1A3.55,3.55,0,0,1,245,40Z"/><path class="cls-1" d="M253.32,30.31V28.64a3.37,3.37,0,0,1,1-.11,3.63,3.63,0,0,1,1,.11v1.67a3.63,3.63,0,0,1-1,.11A3.53,3.53,0,0,1,253.32,30.31Zm0,9.67V32a3.05,3.05,0,0,1,1-.11,3.68,3.68,0,0,1,1,.11v8a4,4,0,0,1-1,.1A3.34,3.34,0,0,1,253.36,40Z"/><path class="cls-1" d="M263.21,34.71V40a2.56,2.56,0,0,1-.81.1,2.89,2.89,0,0,1-.81-.1l-.24-.9A2.34,2.34,0,0,1,259,40.24c-1.5,0-2.4-.87-2.4-2.62s1-2.48,3-2.48c.61,0,1.17.07,1.58.1v-.45c0-.92-.4-1.43-1.45-1.43a6.26,6.26,0,0,0-2,.37,1.35,1.35,0,0,1-.44-.6,1.61,1.61,0,0,1-.12-.77,6.93,6.93,0,0,1,2.85-.61C262.38,31.75,263.21,32.71,263.21,34.71Zm-2,2.26v-.51c-.34,0-.82-.08-1.28-.08-.88,0-1.36.36-1.36,1.24s.43,1.26,1.14,1.26C260.77,38.88,261.25,38,261.25,37Z"/><path class="cls-1" d="M269.57,40l-2.2-8a3.6,3.6,0,0,1,1-.11,2,2,0,0,1,.85.11l1.23,4.24a15.42,15.42,0,0,1,.35,2h.05a11.74,11.74,0,0,1,.37-2L272.34,32a4.85,4.85,0,0,1,1-.11,3.6,3.6,0,0,1,1,.11l1.15,4.23a15,15,0,0,1,.34,2h0a11.84,11.84,0,0,1,.39-2L277.47,32a2.78,2.78,0,0,1,.85-.11,2.31,2.31,0,0,1,.84.11L277,40a5.93,5.93,0,0,1-1.15.1,5.76,5.76,0,0,1-1.14-.1l-1-3.64a12.94,12.94,0,0,1-.39-2.57h-.06a12.22,12.22,0,0,1-.41,2.57l-1,3.64a5.66,5.66,0,0,1-1.11.1A6.25,6.25,0,0,1,269.57,40Z"/><path class="cls-1" d="M283.08,36c0-2.8,1.16-4.26,3.5-4.26a4.2,4.2,0,0,1,2.2.45,2,2,0,0,1-.56,1.35,3.34,3.34,0,0,0-1.26-.23c-1.34,0-1.87.83-1.87,2.68s.59,2.61,1.94,2.61a3.66,3.66,0,0,0,1.34-.24,2.13,2.13,0,0,1,.58,1.36,4.51,4.51,0,0,1-2.37.51C284.25,40.24,283.08,38.85,283.08,36Z"/><path class="cls-1" d="M296.74,34.06V40a3.73,3.73,0,0,1-1,.1,3.42,3.42,0,0,1-1-.1V34.46c0-.74-.38-1.16-1.23-1.16a1.8,1.8,0,0,0-1.44.78V40a3.79,3.79,0,0,1-1,.1,3.55,3.55,0,0,1-1-.1V28.58a3.25,3.25,0,0,1,1-.11,3.46,3.46,0,0,1,1,.11v4a3.1,3.1,0,0,1,2.25-.87A2.15,2.15,0,0,1,296.74,34.06Z"/><path class="cls-1" d="M298.5,30.31V28.64a3.37,3.37,0,0,1,1-.11,3.72,3.72,0,0,1,1,.11v1.67a3.72,3.72,0,0,1-1,.11A3.53,3.53,0,0,1,298.5,30.31Zm0,9.67V32a3.17,3.17,0,0,1,1-.11,3.68,3.68,0,0,1,1,.11v8a4,4,0,0,1-1,.1A3.47,3.47,0,0,1,298.53,40Z"/><path class="cls-1" d="M302.3,40V32a3.29,3.29,0,0,1,1-.11,2.28,2.28,0,0,1,.87.11l.05,1a2.22,2.22,0,0,1,1.89-1.23,2.44,2.44,0,0,1,1.36.42,2.19,2.19,0,0,1-.84,1.58,1.47,1.47,0,0,0-.9-.31,1.85,1.85,0,0,0-1.45,1V40a4,4,0,0,1-1,.1A3.6,3.6,0,0,1,302.3,40Z"/><path class="cls-1" d="M314.87,32v8a3.51,3.51,0,0,1-1,.1,3.83,3.83,0,0,1-1-.1v-.62a3.09,3.09,0,0,1-2.23.88,2.17,2.17,0,0,1-2.38-2.32V32a3.46,3.46,0,0,1,1-.11,3.25,3.25,0,0,1,1,.11v5.53c0,.74.37,1.16,1.22,1.16a1.78,1.78,0,0,0,1.44-.76V32a3.5,3.5,0,0,1,1-.11A3.21,3.21,0,0,1,314.87,32Z"/><path class="cls-1" d="M316.67,40V32a3.41,3.41,0,0,1,1-.11,2.25,2.25,0,0,1,.86.11l.05,1a2.22,2.22,0,0,1,1.89-1.23,2.44,2.44,0,0,1,1.36.42,2.21,2.21,0,0,1-.83,1.58,1.49,1.49,0,0,0-.9-.31,1.86,1.86,0,0,0-1.46,1V40a3.88,3.88,0,0,1-1,.1A3.73,3.73,0,0,1,316.67,40Z"/><path class="cls-1" d="M329.66,41.2c0,1.63-1.53,2.76-4.15,2.76-2.38,0-3.45-.84-3.45-2.14a2.55,2.55,0,0,1,1.36-2.09,1.3,1.3,0,0,1-.34-.93,2.61,2.61,0,0,1,.82-1.74,2.48,2.48,0,0,1-1.47-2.49c0-1.73,1.1-2.82,3.19-2.82a4,4,0,0,1,1.83.39l2.2-.39a2.24,2.24,0,0,1,0,1.49l-1.16-.09a2.92,2.92,0,0,1,.32,1.42c0,1.75-1.08,2.82-3.19,2.82a5.68,5.68,0,0,1-.59,0,1.18,1.18,0,0,0-.21.79C325,39.43,329.66,38,329.66,41.2Zm-1.87.25c0-1.09-2-.84-3.38-1.2a1.63,1.63,0,0,0-.52,1.18c0,.7.49,1.19,1.67,1.19C327,42.62,327.79,42.14,327.79,41.45Zm-3.47-6.88c0,1.09.51,1.55,1.3,1.55s1.3-.46,1.3-1.55-.51-1.55-1.3-1.55S324.32,33.49,324.32,34.57Z"/><path class="cls-1" d="M330.9,30.31V28.64a3.37,3.37,0,0,1,1-.11,3.63,3.63,0,0,1,1,.11v1.67a3.63,3.63,0,0,1-1,.11A3.53,3.53,0,0,1,330.9,30.31Zm0,9.67V32a3.17,3.17,0,0,1,1-.11,3.68,3.68,0,0,1,1,.11v8a4,4,0,0,1-1,.1A3.47,3.47,0,0,1,330.93,40Z"/><path class="cls-1" d="M334.7,30.31V28.64a3.33,3.33,0,0,1,1-.11,3.76,3.76,0,0,1,1,.11v1.67a3.76,3.76,0,0,1-1,.11A3.41,3.41,0,0,1,334.7,30.31Zm0,9.67V32a3.05,3.05,0,0,1,1-.11,3.68,3.68,0,0,1,1,.11v8a4,4,0,0,1-1,.1A3.34,3.34,0,0,1,334.73,40Z"/><path class="cls-1" d="M42.39,48.9V47.23a3.37,3.37,0,0,1,1-.11,3.72,3.72,0,0,1,1,.11V48.9a3.72,3.72,0,0,1-1,.11A3.53,3.53,0,0,1,42.39,48.9Zm0,9.66v-8a3.17,3.17,0,0,1,1-.11,3.68,3.68,0,0,1,1,.11v8a3.68,3.68,0,0,1-1,.11A3.17,3.17,0,0,1,42.42,58.56Z"/><path class="cls-1" d="M46.19,58.56v-8a3,3,0,0,1,1-.12,3.39,3.39,0,0,1,1,.12v.65a2.91,2.91,0,0,1,2.15-.91,2,2,0,0,1,2,1.08,3.19,3.19,0,0,1,2.48-1.08,2.14,2.14,0,0,1,2.3,2.34v5.88a3.68,3.68,0,0,1-1,.11,3.41,3.41,0,0,1-1-.11V53.05A1,1,0,0,0,54,51.89a1.63,1.63,0,0,0-1.37.77v5.9a3.55,3.55,0,0,1-1,.11,3.41,3.41,0,0,1-1-.11V53.05c0-.73-.32-1.16-1.13-1.16a1.66,1.66,0,0,0-1.36.76v5.91a3.68,3.68,0,0,1-1,.11A3.29,3.29,0,0,1,46.19,58.56Z"/><path class="cls-1" d="M65.81,54.58c0,3.16-1.16,4.25-2.91,4.25a2.5,2.5,0,0,1-2.12-.9v4.18a3.72,3.72,0,0,1-1,.11,3.25,3.25,0,0,1-1-.11V50.59a3.25,3.25,0,0,1,1-.11,3.72,3.72,0,0,1,1,.11v.65a2.48,2.48,0,0,1,2.13-.9C64.63,50.34,65.81,51.38,65.81,54.58Zm-2,0c0-2.12-.51-2.69-1.57-2.69-.9,0-1.41.74-1.42,1.67v2c0,.91.48,1.75,1.42,1.75S63.77,56.75,63.77,54.58Z"/><path class="cls-1" d="M67.36,58.56V47.16a3.25,3.25,0,0,1,1-.11,3.46,3.46,0,0,1,1,.11v11.4a3.46,3.46,0,0,1-1,.11A3.25,3.25,0,0,1,67.36,58.56Z"/><path class="cls-1" d="M77.24,53.3v5.26a2.25,2.25,0,0,1-.8.11,2.65,2.65,0,0,1-.81-.11l-.25-.9a2.3,2.3,0,0,1-2.3,1.17c-1.51,0-2.41-.87-2.41-2.62s1-2.48,3-2.48c.6,0,1.16.06,1.58.09v-.45c0-.91-.4-1.42-1.46-1.42a6.26,6.26,0,0,0-2,.37,1.47,1.47,0,0,1-.43-.6,1.73,1.73,0,0,1-.13-.78,7,7,0,0,1,2.85-.6C76.42,50.34,77.24,51.3,77.24,53.3Zm-1.95,2.26v-.51C75,55,74.47,55,74,55c-.88,0-1.36.36-1.36,1.24s.44,1.25,1.15,1.25C74.81,57.46,75.29,56.58,75.29,55.56Z"/><path class="cls-1" d="M79,58.56v-8a3,3,0,0,1,1-.12,3.19,3.19,0,0,1,1,.12v.64a3,3,0,0,1,2.25-.9,2.16,2.16,0,0,1,2.37,2.32v5.9a3.41,3.41,0,0,1-1,.11,3.21,3.21,0,0,1-1-.11V53.05c0-.74-.37-1.16-1.23-1.16a1.81,1.81,0,0,0-1.44.77v5.9a3.46,3.46,0,0,1-1,.11A3.25,3.25,0,0,1,79,58.56Z"/><path class="cls-1" d="M92,58a2.1,2.1,0,0,1-.09.65,5.28,5.28,0,0,1-1.29.16c-2,0-2.78-1-2.78-3V51.9H86.72a2.31,2.31,0,0,1-.09-.69,2.36,2.36,0,0,1,.09-.73h1.15V49a3.56,3.56,0,0,1,1.95-.34v1.78h1.86a2.16,2.16,0,0,1,.1.71,2.39,2.39,0,0,1-.1.71H89.82v3.84c0,1.21.43,1.57,1.39,1.57a3.24,3.24,0,0,0,.67-.08A2,2,0,0,1,92,58Z"/><path class="cls-1" d="M92.81,54.58c0-3.08,1.37-4.24,3.59-4.24S100,51.5,100,54.58s-1.38,4.25-3.59,4.25S92.81,57.65,92.81,54.58Zm5.15,0c0-2.17-.59-2.74-1.56-2.74s-1.58.57-1.58,2.74.59,2.76,1.58,2.76S98,56.75,98,54.58Z"/><path class="cls-1" d="M101.51,58.56V47.16a3.25,3.25,0,0,1,1-.11,3.46,3.46,0,0,1,1,.11v11.4a3.46,3.46,0,0,1-1,.11A3.25,3.25,0,0,1,101.51,58.56Z"/><path class="cls-1" d="M105,54.58c0-3.08,1.37-4.24,3.59-4.24s3.59,1.16,3.59,4.24-1.38,4.25-3.59,4.25S105,57.65,105,54.58Zm5.15,0c0-2.17-.59-2.74-1.56-2.74s-1.58.57-1.58,2.74.59,2.76,1.58,2.76S110.15,56.75,110.15,54.58Z"/><path class="cls-1" d="M120.59,59.79c0,1.62-1.53,2.75-4.15,2.75-2.39,0-3.45-.83-3.45-2.13a2.57,2.57,0,0,1,1.36-2.1,1.22,1.22,0,0,1-.34-.92,2.56,2.56,0,0,1,.82-1.74,2.5,2.5,0,0,1-1.47-2.49c0-1.74,1.1-2.82,3.19-2.82a4,4,0,0,1,1.83.39l2.2-.39a2.24,2.24,0,0,1,0,1.49l-1.17-.1a2.88,2.88,0,0,1,.33,1.43c0,1.75-1.08,2.82-3.19,2.82-.2,0-.4,0-.59,0a1.17,1.17,0,0,0-.22.79C115.94,58,120.59,56.58,120.59,59.79Zm-1.87.24c0-1.08-2-.83-3.38-1.19a1.62,1.62,0,0,0-.53,1.18c0,.69.5,1.19,1.68,1.19C118,61.21,118.72,60.73,118.72,60Zm-3.47-6.87c0,1.08.51,1.55,1.3,1.55s1.3-.47,1.3-1.55-.51-1.55-1.3-1.55S115.25,52.07,115.25,53.16Z"/><path class="cls-1" d="M121.83,48.9V47.23a3.37,3.37,0,0,1,1-.11,3.72,3.72,0,0,1,1,.11V48.9a3.72,3.72,0,0,1-1,.11A3.53,3.53,0,0,1,121.83,48.9Zm0,9.66v-8a3.17,3.17,0,0,1,1-.11,3.55,3.55,0,0,1,1,.11v8a3.55,3.55,0,0,1-1,.11A3.17,3.17,0,0,1,121.86,58.56Z"/><path class="cls-1" d="M125.32,54.6c0-2.81,1.16-4.26,3.5-4.26a4.14,4.14,0,0,1,2.19.45,1.92,1.92,0,0,1-.55,1.34,3.34,3.34,0,0,0-1.26-.23c-1.34,0-1.87.84-1.87,2.68s.59,2.62,1.93,2.62a3.62,3.62,0,0,0,1.35-.25,2.18,2.18,0,0,1,.58,1.36,4.45,4.45,0,0,1-2.37.52C126.49,58.83,125.32,57.43,125.32,54.6Z"/><path class="cls-1" d="M138.14,57.9a2.19,2.19,0,0,1-.12.77h-6a2.58,2.58,0,0,1-.11-.8,2.29,2.29,0,0,1,.11-.76L135.94,52h-3.65a2.58,2.58,0,0,1-.11-.79,2.52,2.52,0,0,1,.11-.77H138a2.68,2.68,0,0,1,.09.74A3.49,3.49,0,0,1,138,52l-3.87,5.07H138A2.18,2.18,0,0,1,138.14,57.9Z"/><path class="cls-1" d="M139.58,58.56v-8a3,3,0,0,1,1-.12,3.19,3.19,0,0,1,1,.12v.64a3,3,0,0,1,2.25-.9,2.16,2.16,0,0,1,2.37,2.32v5.9a3.41,3.41,0,0,1-1,.11,3.21,3.21,0,0,1-1-.11V53.05c0-.74-.38-1.16-1.23-1.16a1.81,1.81,0,0,0-1.44.77v5.9a3.46,3.46,0,0,1-1,.11A3.25,3.25,0,0,1,139.58,58.56Z"/><path class="cls-1" d="M154.05,55.17h-4.46c.13,1.57.8,2,1.93,2a3.53,3.53,0,0,0,1.72-.42,2,2,0,0,1,.62,1.35,4.55,4.55,0,0,1-2.66.7c-2.45,0-3.61-1.38-3.61-4.23s1.36-4.26,3.53-4.26a2.81,2.81,0,0,1,3.1,3.16A7.47,7.47,0,0,1,154.05,55.17Zm-4.46-1.27h2.8c0-.19,0-.4,0-.62,0-.82-.33-1.49-1.27-1.49S149.69,52.37,149.59,53.9Z"/><path class="cls-1" d="M153.94,62.33a2.15,2.15,0,0,1-.05-.44,1.81,1.81,0,0,1,.22-1,2.67,2.67,0,0,0,.56.06c.65,0,1-.33,1-1.15V50.59a3.29,3.29,0,0,1,1-.11,3.68,3.68,0,0,1,1,.11V60a2.18,2.18,0,0,1-2.4,2.51A3.31,3.31,0,0,1,153.94,62.33Zm1.7-13.43V47.23a3.29,3.29,0,0,1,1-.11,3.8,3.8,0,0,1,1,.11V48.9a3.5,3.5,0,0,1-1,.12A3,3,0,0,1,155.64,48.9Z"/><path class="cls-1" d="M158.86,50.62a9.28,9.28,0,0,1,1.21-4.43.91.91,0,0,1,.46.11.93.93,0,0,1,.35.32,8.81,8.81,0,0,0,0,8,.72.72,0,0,1-.34.32,1,1,0,0,1-.47.12A9.3,9.3,0,0,1,158.86,50.62Z"/><path class="cls-1" d="M165.3,52.53a1.38,1.38,0,0,1,0,1h-3.82a3.08,3.08,0,0,1-.07-.65c0-1.37.91-1.91,1.74-2.45s1.13-.83,1.13-1.41-.35-.81-1.07-.81a4,4,0,0,0-1.27.24.91.91,0,0,1-.33-.81,4.38,4.38,0,0,1,1.8-.37c1.18,0,2.05.53,2.05,1.72s-.6,1.53-1.66,2.17c-.52.31-1.2.57-1.22,1.2a1.21,1.21,0,0,0,0,.19Z"/><path class="cls-1" d="M166.41,54.94a.71.71,0,0,1-.36-.32,8.73,8.73,0,0,0,0-8,.92.92,0,0,1,.36-.32.91.91,0,0,1,.46-.11,8.73,8.73,0,0,1,0,8.87A1,1,0,0,1,166.41,54.94Z"/><polyline class="cls-2" points="11.59 6.57 30.58 34.7 11.59 62.93"/></svg>