<svg id="Warstwa_1" data-name="Warstwa 1" xmlns="http://www.w3.org/2000/svg" xmlns:xlink="http://www.w3.org/1999/xlink" viewBox="0 0 300 50"><defs><style>.cls-1,.cls-4{fill:none;}.cls-2{clip-path:url(#clip-path);}.cls-3{fill:url(#Gradient_bez_nazwy_2);}.cls-4{stroke:#fff;stroke-miterlimit:10;}.cls-5{fill:#0056a3;}</style><clipPath id="clip-path"><polygon class="cls-1" points="20.11 40.58 242.67 40.58 242.67 10.54 20.11 10.54 20.11 19.73 24.11 25.91 20.11 31.96 20.11 40.58"/></clipPath><linearGradient id="Gradient_bez_nazwy_2" x1="-987.06" y1="323.73" x2="-986.46" y2="323.73" gradientTransform="matrix(372.44, 0, 0, -372.44, 367635.76, 120592.08)" gradientUnits="userSpaceOnUse"><stop offset="0" stop-color="#ccd513"/><stop offset="0.01" stop-color="#ccd513"/><stop offset="0.01" stop-color="#ccd513"/><stop offset="0.39" stop-color="#ccd515"/><stop offset="0.52" stop-color="#ced71c"/><stop offset="0.62" stop-color="#d0d927"/><stop offset="0.69" stop-color="#d4dc38"/><stop offset="0.76" stop-color="#d9e04e"/><stop offset="0.82" stop-color="#dfe46a"/><stop offset="0.87" stop-color="#e6ea8a"/><stop offset="0.92" stop-color="#eef1b0"/><stop offset="0.97" stop-color="#f7f8d9"/><stop offset="1" stop-color="#fff"/></linearGradient></defs><title>antyseptyka_w_chirurgii</title><g class="cls-2"><rect class="cls-3" x="20.11" y="10.45" width="222.56" height="30.04"/></g><polyline class="cls-4" points="21.27 10.55 21.27 19.43 21.27 19.35 25.49 25.8 21.27 32.28 21.27 40.67"/><path class="cls-5" d="M44,23.89a1,1,0,0,1-.32,0,.77.77,0,0,1-.29,0l-.38-1H41.3l-.38,1a.81.81,0,0,1-.29,0,.74.74,0,0,1-.28,0l1.46-4.1a1.36,1.36,0,0,1,.36,0,1.25,1.25,0,0,1,.36,0ZM41.45,22.4h1.41l-.56-1.53a4.7,4.7,0,0,1-.14-.49h0a4.13,4.13,0,0,1-.13.49Z"/><path class="cls-5" d="M44.28,23.9v-3a1.11,1.11,0,0,1,.29,0,1.16,1.16,0,0,1,.3,0v.31a1.16,1.16,0,0,1,.9-.4.81.81,0,0,1,.89.87V23.9a1.11,1.11,0,0,1-.29,0,1,1,0,0,1-.29,0V21.8c0-.34-.17-.52-.54-.52a.8.8,0,0,0-.67.4V23.9a1.16,1.16,0,0,1-.3,0A1.11,1.11,0,0,1,44.28,23.9Z"/><path class="cls-5" d="M48.92,23.74a.62.62,0,0,1,0,.2,1.69,1.69,0,0,1-.45,0c-.72,0-1-.38-1-1.11V21.31H47a.76.76,0,0,1,0-.22.61.61,0,0,1,0-.22h.45v-.56A1,1,0,0,1,48,20.2v.67h.76a.65.65,0,0,1,0,.21.8.8,0,0,1,0,.23H48v1.54c0,.51.15.68.56.68a1.36,1.36,0,0,0,.27,0A.53.53,0,0,1,48.92,23.74Z"/><path class="cls-5" d="M51.78,20.9l-1.15,3.52c-.2.61-.42,1-1,1a1,1,0,0,1-.38-.06.44.44,0,0,1,0-.22.43.43,0,0,1,.06-.22,1.32,1.32,0,0,0,.26,0c.28,0,.43-.1.6-.6l.13-.39a.34.34,0,0,1-.18,0l-1.12-3a1.3,1.3,0,0,1,.31,0,1.16,1.16,0,0,1,.3,0l.67,1.78a5.16,5.16,0,0,1,.21.69h0s.06-.29.19-.69l.59-1.78a1.11,1.11,0,0,1,.29,0A1.07,1.07,0,0,1,51.78,20.9Z"/><path class="cls-5" d="M51.93,23.78a.54.54,0,0,1,.15-.41,2.4,2.4,0,0,0,.8.14c.38,0,.6-.13.6-.43s-.33-.39-.68-.5-.82-.29-.82-.86.35-.91,1.09-.91a1.92,1.92,0,0,1,.84.16.56.56,0,0,1-.15.41,2,2,0,0,0-.62-.1c-.41,0-.61.15-.61.42s.36.36.72.48.8.3.8.88-.36.93-1.12.93A2.32,2.32,0,0,1,51.93,23.78Z"/><path class="cls-5" d="M56.71,22.58H55c0,.69.32.92.81.92a1.32,1.32,0,0,0,.68-.18.57.57,0,0,1,.19.42,1.69,1.69,0,0,1-1,.25c-.87,0-1.3-.53-1.3-1.6s.51-1.58,1.28-1.58A1,1,0,0,1,56.78,22,2.49,2.49,0,0,1,56.71,22.58ZM55,22.18h1.26a1.91,1.91,0,0,0,0-.28c0-.35-.16-.64-.58-.64S55,21.52,55,22.18Z"/><path class="cls-5" d="M59.78,22.4c0,1.19-.43,1.59-1.1,1.59a.92.92,0,0,1-.85-.4v1.67a1.42,1.42,0,0,1-.58,0V20.9a1.42,1.42,0,0,1,.58,0v.31a.92.92,0,0,1,.85-.4C59.34,20.81,59.78,21.21,59.78,22.4Zm-.61,0c0-.86-.22-1.12-.7-1.12a.68.68,0,0,0-.64.74v.75a.68.68,0,0,0,.64.75C59,23.52,59.17,23.27,59.17,22.4Z"/><path class="cls-5" d="M61.93,23.74a.91.91,0,0,1,0,.2,1.75,1.75,0,0,1-.45,0c-.72,0-1-.38-1-1.11V21.31H60a.76.76,0,0,1,0-.22.61.61,0,0,1,0-.22h.45v-.56a1,1,0,0,1,.58-.11v.67h.76a.65.65,0,0,1,0,.21.8.8,0,0,1,0,.23h-.76v1.54c0,.51.15.68.56.68a1.36,1.36,0,0,0,.27,0A.64.64,0,0,1,61.93,23.74Z"/><path class="cls-5" d="M64.8,20.9l-1.15,3.52c-.2.61-.42,1-1,1a1,1,0,0,1-.38-.06.44.44,0,0,1,0-.22.43.43,0,0,1,.06-.22,1.23,1.23,0,0,0,.26,0c.28,0,.43-.1.6-.6l.13-.39a.41.41,0,0,1-.19,0L62,20.9a1.3,1.3,0,0,1,.31,0,1.16,1.16,0,0,1,.3,0l.67,1.78a5.16,5.16,0,0,1,.21.69h0s.06-.29.19-.69l.59-1.78a1.11,1.11,0,0,1,.29,0A1.07,1.07,0,0,1,64.8,20.9Z"/><path class="cls-5" d="M67.59,23.89a1.23,1.23,0,0,1-.33,0,1.11,1.11,0,0,1-.32,0l-.87-1.33h-.36V23.9a1.11,1.11,0,0,1-.29,0,1.21,1.21,0,0,1-.29,0V19.6a1.21,1.21,0,0,1,.29,0,1.32,1.32,0,0,1,.29,0v2.51h.38l.77-1.21a1.16,1.16,0,0,1,.3,0,1.21,1.21,0,0,1,.29,0l-.88,1.39Z"/><path class="cls-5" d="M70.05,22V23.9a.75.75,0,0,1-.24,0,.83.83,0,0,1-.24,0l-.08-.39a.93.93,0,0,1-.92.48.84.84,0,0,1-.9-1c0-.63.38-.91,1.12-.91.28,0,.53,0,.68,0v-.23c0-.42-.18-.62-.62-.62a2.49,2.49,0,0,0-.78.14.62.62,0,0,1-.13-.17.61.61,0,0,1,0-.25,2.69,2.69,0,0,1,1-.21C69.78,20.81,70.05,21.2,70.05,22Zm-.58.8v-.21c-.14,0-.37,0-.6,0-.4,0-.61.15-.61.54a.46.46,0,0,0,.51.53A.73.73,0,0,0,69.47,22.75Z"/><path class="cls-5" d="M72.33,23.9l-.88-3a1.11,1.11,0,0,1,.29,0,.65.65,0,0,1,.25,0l.55,1.81a3.26,3.26,0,0,1,.12.63h0a4.69,4.69,0,0,1,.13-.63l.54-1.81a1.65,1.65,0,0,1,.31,0,1.11,1.11,0,0,1,.29,0l.52,1.8a3.46,3.46,0,0,1,.12.64h0a6.15,6.15,0,0,1,.14-.64l.54-1.8a.9.9,0,0,1,.26,0,.82.82,0,0,1,.26,0l-.88,3a1.55,1.55,0,0,1-.33,0,1.69,1.69,0,0,1-.33,0l-.46-1.57a4.16,4.16,0,0,1-.17-.87h0a3.65,3.65,0,0,1-.18.87L73,23.9a1.61,1.61,0,0,1-.33,0A1.55,1.55,0,0,1,72.33,23.9Z"/><path class="cls-5" d="M77.1,22.4c0-1,.44-1.59,1.29-1.59a1.62,1.62,0,0,1,.78.15.6.6,0,0,1-.18.42,1.26,1.26,0,0,0-.5-.09c-.55,0-.79.35-.79,1.11s.25,1.1.82,1.1a1.24,1.24,0,0,0,.53-.11.6.6,0,0,1,.18.42,1.65,1.65,0,0,1-.84.18C77.54,24,77.1,23.45,77.1,22.4Z"/><path class="cls-5" d="M82,21.68V23.9a1.11,1.11,0,0,1-.29,0,1,1,0,0,1-.29,0V21.8a.47.47,0,0,0-.54-.52.83.83,0,0,0-.68.4V23.9a1,1,0,0,1-.29,0,1.11,1.11,0,0,1-.29,0V19.61a.85.85,0,0,1,.29,0,.78.78,0,0,1,.29,0V21.2a1.17,1.17,0,0,1,.91-.39A.81.81,0,0,1,82,21.68Z"/><path class="cls-5" d="M82.58,20.24v-.53a1.2,1.2,0,0,1,.31,0,1.3,1.3,0,0,1,.31,0v.53a1.3,1.3,0,0,1-.31,0A1.2,1.2,0,0,1,82.58,20.24Zm0,3.66v-3a1,1,0,0,1,.29,0,1.11,1.11,0,0,1,.29,0v3a1.11,1.11,0,0,1-.29,0A1,1,0,0,1,82.6,23.9Z"/><path class="cls-5" d="M83.81,23.9v-3a1,1,0,0,1,.29,0,.79.79,0,0,1,.27,0v.42a.85.85,0,0,1,.75-.5,1,1,0,0,1,.5.14.72.72,0,0,1-.26.49.52.52,0,0,0-.36-.12.78.78,0,0,0-.62.47v2.1a1.11,1.11,0,0,1-.29,0A1,1,0,0,1,83.81,23.9Z"/><path class="cls-5" d="M88.26,20.9v3a1,1,0,0,1-.29,0,1.11,1.11,0,0,1-.29,0v-.3a1.18,1.18,0,0,1-.91.39.81.81,0,0,1-.89-.87V20.9a1.11,1.11,0,0,1,.29,0,1,1,0,0,1,.29,0V23a.48.48,0,0,0,.54.52.83.83,0,0,0,.68-.41V20.9a1.42,1.42,0,0,1,.58,0Z"/><path class="cls-5" d="M88.87,23.9v-3a1.11,1.11,0,0,1,.29,0,.9.9,0,0,1,.28,0v.42a.85.85,0,0,1,.75-.5.93.93,0,0,1,.5.14.67.67,0,0,1-.25.49.52.52,0,0,0-.36-.12.79.79,0,0,0-.63.47v2.1a1,1,0,0,1-.29,0A1.11,1.11,0,0,1,88.87,23.9Z"/><path class="cls-5" d="M93.47,21.27H93a1,1,0,0,1,.16.59c0,.65-.4,1-1.15,1h-.27a.57.57,0,0,0-.12.35c.06.54,1.85,0,1.85,1.16,0,.57-.54,1-1.5,1s-1.25-.34-1.25-.82a1,1,0,0,1,.51-.8.5.5,0,0,1-.13-.35,1,1,0,0,1,.29-.64.94.94,0,0,1-.53-.93c0-.64.4-1,1.15-1a1.33,1.33,0,0,1,.65.15l.82-.14A.77.77,0,0,1,93.47,21.27Zm-1.93,2.66a.7.7,0,0,0-.28.53c0,.31.22.51.71.51s.93-.2.93-.52C92.9,24,92.07,24.08,91.54,23.93Zm1-2.08c0-.44-.23-.64-.58-.64a.56.56,0,0,0-.59.64c0,.44.24.65.59.65S92.58,22.29,92.58,21.85Z"/><path class="cls-5" d="M93.83,20.24v-.53a1.2,1.2,0,0,1,.31,0,1.3,1.3,0,0,1,.31,0v.53a1.3,1.3,0,0,1-.31,0A1.2,1.2,0,0,1,93.83,20.24Zm0,3.66v-3a1,1,0,0,1,.29,0,1.11,1.11,0,0,1,.29,0v3a1.11,1.11,0,0,1-.29,0A1,1,0,0,1,93.85,23.9Z"/><path class="cls-5" d="M95.05,20.24v-.53a1.2,1.2,0,0,1,.31,0,1.34,1.34,0,0,1,.32,0v.53a1.34,1.34,0,0,1-.32,0A1.2,1.2,0,0,1,95.05,20.24Zm0,3.66v-3a1,1,0,0,1,.29,0,1.11,1.11,0,0,1,.29,0v3a1.11,1.11,0,0,1-.29,0A1,1,0,0,1,95.07,23.9Z"/><path class="cls-5" d="M97.36,20.24v-.53a1.2,1.2,0,0,1,.31,0,1.3,1.3,0,0,1,.31,0v.53a1.3,1.3,0,0,1-.31,0A1.2,1.2,0,0,1,97.36,20.24Zm0,3.66v-3a.94.94,0,0,1,.29,0,1.11,1.11,0,0,1,.29,0v3a1.11,1.11,0,0,1-.29,0A1,1,0,0,1,97.38,23.9Z"/><path class="cls-5" d="M98.59,23.9v-3a1,1,0,0,1,.29,0,1.11,1.11,0,0,1,.29,0v.3a1.1,1.1,0,0,1,.86-.39.75.75,0,0,1,.75.46,1.18,1.18,0,0,1,1-.46.8.8,0,0,1,.86.88V23.9a1.21,1.21,0,0,1-.29,0,1,1,0,0,1-.29,0V21.8c0-.34-.16-.52-.5-.52a.74.74,0,0,0-.64.41V23.9a1.11,1.11,0,0,1-.29,0,1,1,0,0,1-.29,0V21.8c0-.34-.16-.52-.5-.52a.75.75,0,0,0-.63.4V23.9a1.21,1.21,0,0,1-.29,0A1,1,0,0,1,98.59,23.9Z"/><path class="cls-5" d="M105.73,22.4c0,1.19-.43,1.59-1.1,1.59a.92.92,0,0,1-.85-.4v1.67a1.42,1.42,0,0,1-.58,0V20.9a1.42,1.42,0,0,1,.58,0v.31a.92.92,0,0,1,.85-.4C105.29,20.81,105.73,21.21,105.73,22.4Zm-.61,0c0-.86-.22-1.12-.7-1.12a.68.68,0,0,0-.64.74v.75a.68.68,0,0,0,.64.75C104.9,23.52,105.12,23.27,105.12,22.4Z"/><path class="cls-5" d="M106.25,23.9V19.61a.78.78,0,0,1,.29,0,.85.85,0,0,1,.29,0V23.9a1.11,1.11,0,0,1-.29,0A1,1,0,0,1,106.25,23.9Z"/><path class="cls-5" d="M109.66,22V23.9a.75.75,0,0,1-.24,0,.83.83,0,0,1-.24,0l-.08-.39a.93.93,0,0,1-.92.48.84.84,0,0,1-.9-1c0-.63.38-.91,1.12-.91.28,0,.53,0,.68,0v-.23c0-.42-.18-.62-.62-.62a2.49,2.49,0,0,0-.78.14.62.62,0,0,1-.13-.17.61.61,0,0,1,0-.25,2.69,2.69,0,0,1,1-.21C109.39,20.81,109.66,21.2,109.66,22Zm-.58.8v-.21c-.14,0-.37,0-.6,0-.4,0-.61.15-.61.54a.46.46,0,0,0,.51.53A.73.73,0,0,0,109.08,22.75Z"/><path class="cls-5" d="M110.26,23.9v-3a1,1,0,0,1,.29,0,1.11,1.11,0,0,1,.29,0v.31a1.17,1.17,0,0,1,.9-.4.81.81,0,0,1,.89.87V23.9a1.11,1.11,0,0,1-.29,0,1,1,0,0,1-.29,0V21.8c0-.34-.17-.52-.54-.52a.8.8,0,0,0-.67.4V23.9a1.11,1.11,0,0,1-.29,0A1,1,0,0,1,110.26,23.9Z"/><path class="cls-5" d="M114.89,23.74a.62.62,0,0,1,0,.2,1.69,1.69,0,0,1-.45,0c-.72,0-1-.38-1-1.11V21.31H113a.59.59,0,0,1,0-.22.48.48,0,0,1,0-.22h.44v-.56a1,1,0,0,1,.58-.11v.67h.76a.65.65,0,0,1,0,.21.8.8,0,0,1,0,.23H114v1.54c0,.51.16.68.56.68a1.36,1.36,0,0,0,.27,0A.53.53,0,0,1,114.89,23.74Z"/><path class="cls-5" d="M115.08,22.4c0-1.15.5-1.59,1.3-1.59s1.29.44,1.29,1.59S117.18,24,116.38,24,115.08,23.56,115.08,22.4Zm2,0c0-.89-.27-1.14-.7-1.14s-.7.25-.7,1.14.27,1.14.7,1.14S117.08,23.29,117.08,22.4Z"/><path class="cls-5" d="M118.19,23.9V19.61a.78.78,0,0,1,.29,0,.85.85,0,0,1,.29,0V23.9a1.11,1.11,0,0,1-.29,0A1,1,0,0,1,118.19,23.9Z"/><path class="cls-5" d="M119.28,22.4c0-1.15.5-1.59,1.3-1.59s1.3.44,1.3,1.59-.5,1.59-1.3,1.59S119.28,23.56,119.28,22.4Zm2,0c0-.89-.27-1.14-.7-1.14s-.7.25-.7,1.14.27,1.14.7,1.14S121.28,23.29,121.28,22.4Z"/><path class="cls-5" d="M124.87,21.27h-.47a1.1,1.1,0,0,1,.15.59c0,.65-.39,1-1.15,1h-.26a.51.51,0,0,0-.12.35c.06.54,1.85,0,1.85,1.16,0,.57-.54,1-1.51,1s-1.25-.34-1.25-.82a1,1,0,0,1,.51-.8.5.5,0,0,1-.12-.35,1,1,0,0,1,.29-.64,1,1,0,0,1-.54-.93,1,1,0,0,1,1.15-1,1.34,1.34,0,0,1,.66.15l.81-.14A.63.63,0,0,1,124.87,21.27Zm-1.93,2.66a.73.73,0,0,0-.27.53c0,.31.22.51.7.51s.94-.2.94-.52C124.31,24,123.48,24.08,122.94,23.93Zm1-2.08c0-.44-.23-.64-.59-.64s-.58.2-.58.64.23.65.58.65S124,22.29,124,21.85Z"/><path class="cls-5" d="M125.24,20.24v-.53a1.2,1.2,0,0,1,.31,0,1.3,1.3,0,0,1,.31,0v.53a1.3,1.3,0,0,1-.31,0A1.2,1.2,0,0,1,125.24,20.24Zm0,3.66v-3a.94.94,0,0,1,.29,0,1.11,1.11,0,0,1,.29,0v3a1.11,1.11,0,0,1-.29,0A1,1,0,0,1,125.26,23.9Z"/><path class="cls-5" d="M126.34,22.4c0-1,.44-1.59,1.29-1.59a1.62,1.62,0,0,1,.78.15.6.6,0,0,1-.18.42,1.26,1.26,0,0,0-.5-.09c-.56,0-.79.35-.79,1.11s.25,1.1.82,1.1a1.24,1.24,0,0,0,.53-.11.65.65,0,0,1,.18.42,1.65,1.65,0,0,1-.84.18C126.78,24,126.34,23.45,126.34,22.4Z"/><path class="cls-5" d="M130.9,23.7a.56.56,0,0,1,0,.23h-2.17a.82.82,0,0,1,0-.25.67.67,0,0,1,0-.22l1.55-2.12h-1.45a.64.64,0,0,1,0-.24.56.56,0,0,1,0-.23h2.07a1.06,1.06,0,0,1,0,.22,1.42,1.42,0,0,1,0,.25l-1.56,2.12h1.56A.58.58,0,0,1,130.9,23.7Z"/><path class="cls-5" d="M131.35,23.9v-3a1.11,1.11,0,0,1,.29,0,1.16,1.16,0,0,1,.3,0v.31a1.17,1.17,0,0,1,.9-.4.81.81,0,0,1,.89.87V23.9a1.11,1.11,0,0,1-.29,0,1,1,0,0,1-.29,0V21.8c0-.34-.17-.52-.54-.52a.8.8,0,0,0-.67.4V23.9a1.16,1.16,0,0,1-.3,0A1.11,1.11,0,0,1,131.35,23.9Z"/><path class="cls-5" d="M136.55,22.58H134.8c0,.69.31.92.81.92a1.32,1.32,0,0,0,.68-.18.61.61,0,0,1,.19.42,1.71,1.71,0,0,1-1,.25c-.87,0-1.3-.53-1.3-1.6s.51-1.58,1.28-1.58A1,1,0,0,1,136.61,22,2.88,2.88,0,0,1,136.55,22.58Zm-1.76-.4h1.26a1.1,1.1,0,0,0,0-.28c0-.35-.15-.64-.58-.64S134.84,21.52,134.79,22.18Z"/><path class="cls-5" d="M136.4,25.32a.38.38,0,0,1,0-.13.62.62,0,0,1,.06-.3.85.85,0,0,0,.22,0c.29,0,.44-.15.44-.5V20.9a1,1,0,0,1,.29,0,1.11,1.11,0,0,1,.29,0v3.55c0,.62-.3.94-.86.94A1.07,1.07,0,0,1,136.4,25.32Zm.68-5.08v-.53a.92.92,0,0,1,.31,0,.88.88,0,0,1,.3,0v.53a1.16,1.16,0,0,1-.3,0A1.2,1.2,0,0,1,137.08,20.24Z"/><path class="cls-5" d="M141.44,23.7a.56.56,0,0,1,0,.23h-2.17a.82.82,0,0,1,0-.25.67.67,0,0,1,0-.22l1.55-2.12h-1.45a.64.64,0,0,1,0-.24.56.56,0,0,1,0-.23h2.07a1.06,1.06,0,0,1,0,.22,1.42,1.42,0,0,1,0,.25l-1.55,2.12h1.55A.58.58,0,0,1,141.44,23.7Z"/><path class="cls-5" d="M144.09,22V23.9a.75.75,0,0,1-.24,0,.83.83,0,0,1-.24,0l-.08-.39a.94.94,0,0,1-.92.48.84.84,0,0,1-.9-1c0-.63.38-.91,1.12-.91.27,0,.52,0,.68,0v-.23a.54.54,0,0,0-.62-.62,2.49,2.49,0,0,0-.78.14.46.46,0,0,1-.13-.17.61.61,0,0,1,0-.25,2.69,2.69,0,0,1,1-.21C143.82,20.81,144.09,21.2,144.09,22Zm-.58.8v-.21c-.14,0-.38,0-.6,0-.4,0-.61.15-.61.54s.19.53.51.53A.73.73,0,0,0,143.51,22.75Z"/><path class="cls-5" d="M147.22,22.4c0,1.19-.44,1.59-1.11,1.59a.93.93,0,0,1-.85-.4v1.67a1,1,0,0,1-.29,0,1.11,1.11,0,0,1-.29,0V20.9a1.11,1.11,0,0,1,.29,0,1,1,0,0,1,.29,0v.31a.93.93,0,0,1,.85-.4C146.78,20.81,147.22,21.21,147.22,22.4Zm-.61,0c0-.86-.22-1.12-.7-1.12a.68.68,0,0,0-.65.74v.75a.69.69,0,0,0,.65.75C146.39,23.52,146.61,23.27,146.61,22.4Z"/><path class="cls-5" d="M149.94,22.58h-1.75c0,.69.31.92.8.92a1.28,1.28,0,0,0,.68-.18.62.62,0,0,1,.2.42,1.74,1.74,0,0,1-1,.25c-.87,0-1.3-.53-1.3-1.6s.51-1.58,1.28-1.58A1,1,0,0,1,150,22,2.88,2.88,0,0,1,149.94,22.58Zm-1.76-.4h1.26a1.91,1.91,0,0,0,0-.28c0-.35-.16-.64-.58-.64S148.23,21.52,148.18,22.18Z"/><path class="cls-5" d="M151.07,23.9l-.88-3a1.11,1.11,0,0,1,.29,0,.75.75,0,0,1,.26,0l.54,1.81a3.26,3.26,0,0,1,.12.63h0a4.69,4.69,0,0,1,.13-.63l.54-1.81a1.65,1.65,0,0,1,.31,0,1.11,1.11,0,0,1,.29,0l.52,1.8a3.46,3.46,0,0,1,.12.64h0a6.15,6.15,0,0,1,.14-.64l.54-1.8a.9.9,0,0,1,.26,0,.82.82,0,0,1,.26,0l-.88,3a1.55,1.55,0,0,1-.33,0,1.69,1.69,0,0,1-.33,0l-.46-1.57a3.41,3.41,0,0,1-.16-.87h0a3.65,3.65,0,0,1-.18.87l-.46,1.57a1.55,1.55,0,0,1-.33,0A1.61,1.61,0,0,1,151.07,23.9Z"/><path class="cls-5" d="M154.89,23.9v-3a1,1,0,0,1,.29,0,1.11,1.11,0,0,1,.29,0v.31a1.17,1.17,0,0,1,.9-.4.81.81,0,0,1,.89.87V23.9a1.11,1.11,0,0,1-.29,0,1,1,0,0,1-.29,0V21.8c0-.34-.17-.52-.54-.52a.8.8,0,0,0-.67.4V23.9a1.11,1.11,0,0,1-.29,0A1,1,0,0,1,154.89,23.9Z"/><path class="cls-5" d="M157.85,20.24v-.53a1.2,1.2,0,0,1,.31,0,1.34,1.34,0,0,1,.32,0v.53a1.34,1.34,0,0,1-.32,0A1.2,1.2,0,0,1,157.85,20.24Zm0,3.66v-3a1,1,0,0,1,.29,0,1.11,1.11,0,0,1,.29,0v3a1.11,1.11,0,0,1-.29,0A1,1,0,0,1,157.87,23.9Z"/><path class="cls-5" d="M161.27,22V23.9a.75.75,0,0,1-.24,0,.72.72,0,0,1-.23,0l-.08-.39a1,1,0,0,1-.92.48.85.85,0,0,1-.91-1c0-.63.38-.91,1.13-.91.27,0,.52,0,.67,0v-.23c0-.42-.18-.62-.61-.62a2.41,2.41,0,0,0-.78.14.46.46,0,0,1-.13-.17.61.61,0,0,1,0-.25,2.69,2.69,0,0,1,1-.21C161,20.81,161.27,21.2,161.27,22Zm-.58.8v-.21c-.13,0-.37,0-.59,0-.41,0-.61.15-.61.54s.19.53.5.53A.73.73,0,0,0,160.69,22.75Z"/><path class="cls-5" d="M163,23.9v-3a1.42,1.42,0,0,1,.58,0v.31a1.17,1.17,0,0,1,.9-.4.81.81,0,0,1,.9.87V23.9a1.21,1.21,0,0,1-.29,0,1,1,0,0,1-.29,0V21.8a.47.47,0,0,0-.54-.52.83.83,0,0,0-.68.4V23.9a1.42,1.42,0,0,1-.58,0Z"/><path class="cls-5" d="M165.92,20.24v-.53a1.2,1.2,0,0,1,.31,0,1.3,1.3,0,0,1,.31,0v.53a1.3,1.3,0,0,1-.31,0A1.2,1.2,0,0,1,165.92,20.24Zm0,3.66v-3a.94.94,0,0,1,.29,0,1.11,1.11,0,0,1,.29,0v3a1.11,1.11,0,0,1-.29,0A1,1,0,0,1,165.94,23.9Z"/><path class="cls-5" d="M167,23.78a.51.51,0,0,1,.16-.41,2.35,2.35,0,0,0,.79.14c.38,0,.61-.13.61-.43s-.34-.39-.69-.5-.82-.29-.82-.86.36-.91,1.09-.91A1.92,1.92,0,0,1,169,21a.53.53,0,0,1-.15.41,2,2,0,0,0-.62-.1c-.41,0-.61.15-.61.42s.36.36.72.48.81.3.81.88-.36.93-1.13.93A2.32,2.32,0,0,1,167,23.78Z"/><path class="cls-5" d="M172,23.89a1.3,1.3,0,0,1-.64,0l-.87-1.33h-.36V23.9a1.11,1.11,0,0,1-.29,0,1.25,1.25,0,0,1-.3,0V19.6a1.36,1.36,0,0,1,.3,0,1.32,1.32,0,0,1,.29,0v2.51h.37l.78-1.21a1.16,1.16,0,0,1,.3,0,1.32,1.32,0,0,1,.29,0L171,22.29Z"/><path class="cls-5" d="M174.46,25.25a1,1,0,0,1-.52.14c-.36,0-.57-.18-.57-.51a1.47,1.47,0,0,1,.61-1l-.09-.37A.91.91,0,0,1,173,24a.84.84,0,0,1-.9-1c0-.63.38-.91,1.12-.91.27,0,.52,0,.67,0v-.23c0-.42-.18-.62-.61-.62a2.49,2.49,0,0,0-.78.14.46.46,0,0,1-.13-.17.61.61,0,0,1,0-.25,2.69,2.69,0,0,1,1-.21c.85,0,1.12.39,1.12,1.14V23.9a1.36,1.36,0,0,0-.56.86c0,.14.08.21.18.21a.65.65,0,0,0,.24-.06A.5.5,0,0,1,174.46,25.25Zm-.59-2.5v-.21c-.12,0-.36,0-.59,0-.41,0-.61.15-.61.54s.19.53.51.53A.73.73,0,0,0,173.87,22.75Z"/><path class="cls-5" d="M176.14,23.9v-3a1,1,0,0,1,.29,0,.86.86,0,0,1,.27,0v.42a.85.85,0,0,1,.75-.5.9.9,0,0,1,.5.14.67.67,0,0,1-.25.49.52.52,0,0,0-.36-.12.78.78,0,0,0-.62.47v2.1a1.11,1.11,0,0,1-.29,0A1,1,0,0,1,176.14,23.9Z"/><path class="cls-5" d="M180.44,22.58h-1.75c.05.69.32.92.81.92a1.28,1.28,0,0,0,.68-.18.57.57,0,0,1,.19.42,1.69,1.69,0,0,1-1,.25c-.87,0-1.3-.53-1.3-1.6s.51-1.58,1.28-1.58A1,1,0,0,1,180.51,22,2.49,2.49,0,0,1,180.44,22.58Zm-1.75-.4H180a1.91,1.91,0,0,0,0-.28c0-.35-.16-.64-.58-.64S178.74,21.52,178.69,22.18Z"/><path class="cls-5" d="M182.63,23.74a.62.62,0,0,1,0,.2,1.61,1.61,0,0,1-.44,0c-.72,0-1-.38-1-1.11V21.31h-.44a.76.76,0,0,1,0-.22.61.61,0,0,1,0-.22h.44v-.56a1,1,0,0,1,.59-.11v.67h.76a.65.65,0,0,1,0,.21.8.8,0,0,1,0,.23h-.76v1.54c0,.51.15.68.56.68a1.5,1.5,0,0,0,.27,0A.64.64,0,0,1,182.63,23.74Z"/><path class="cls-5" d="M185.17,22.58h-1.75c.05.69.31.92.81.92a1.32,1.32,0,0,0,.68-.18.57.57,0,0,1,.19.42,1.71,1.71,0,0,1-1,.25c-.87,0-1.3-.53-1.3-1.6s.51-1.58,1.29-1.58A1,1,0,0,1,185.23,22,2.88,2.88,0,0,1,185.17,22.58Zm-1.75-.4h1.26a2.18,2.18,0,0,0,0-.28c0-.35-.15-.64-.58-.64S183.46,21.52,183.42,22.18Z"/><path class="cls-5" d="M185.7,23.9v-3a1.11,1.11,0,0,1,.29,0,1,1,0,0,1,.29,0v.31a1.19,1.19,0,0,1,.91-.4.81.81,0,0,1,.89.87V23.9a1.11,1.11,0,0,1-.29,0,1,1,0,0,1-.29,0V21.8c0-.34-.17-.52-.54-.52a.83.83,0,0,0-.68.4V23.9a1,1,0,0,1-.29,0A1.11,1.11,0,0,1,185.7,23.9Z"/><path class="cls-5" d="M188.55,22.4c0-1,.44-1.59,1.29-1.59a1.62,1.62,0,0,1,.78.15.6.6,0,0,1-.18.42,1.26,1.26,0,0,0-.5-.09c-.55,0-.79.35-.79,1.11s.25,1.1.82,1.1a1.24,1.24,0,0,0,.53-.11.6.6,0,0,1,.18.42,1.65,1.65,0,0,1-.84.18C189,24,188.55,23.45,188.55,22.4Z"/><path class="cls-5" d="M190.38,25.32a.38.38,0,0,1,0-.13.62.62,0,0,1,.06-.3.85.85,0,0,0,.22,0c.29,0,.44-.15.44-.5V20.9a1,1,0,0,1,.29,0,1.11,1.11,0,0,1,.29,0v3.55c0,.62-.3.94-.86.94A1.07,1.07,0,0,1,190.38,25.32Zm.68-5.08v-.53a.92.92,0,0,1,.31,0,.88.88,0,0,1,.3,0v.53a1.16,1.16,0,0,1-.3,0A1.2,1.2,0,0,1,191.06,20.24Z"/><path class="cls-5" d="M194.51,22.58h-1.75c0,.69.32.92.81.92a1.32,1.32,0,0,0,.68-.18.62.62,0,0,1,.2.42l-.12.09c-.44.38-.64.79-.57,1a.17.17,0,0,0,.18.14.65.65,0,0,0,.23-.06.5.5,0,0,1,.14.34,1,1,0,0,1-.52.14.5.5,0,0,1-.55-.36c-.09-.33.14-.72.52-1.06a1.28,1.28,0,0,1-.29,0c-.88,0-1.31-.53-1.31-1.6s.52-1.58,1.29-1.58A1,1,0,0,1,194.58,22,2.49,2.49,0,0,1,194.51,22.58Zm-1.75-.4H194a1.91,1.91,0,0,0,0-.28.56.56,0,0,0-.59-.64C193.07,21.26,192.8,21.52,192.76,22.18Z"/><path class="cls-5" d="M43.21,29.38c0,1.2-.44,1.6-1.1,1.6a.94.94,0,0,1-.85-.4v1.66a.85.85,0,0,1-.29,0,.78.78,0,0,1-.29,0V27.89a.78.78,0,0,1,.29,0,.85.85,0,0,1,.29,0v.3a.93.93,0,0,1,.85-.39C42.77,27.8,43.21,28.19,43.21,29.38Zm-.61,0c0-.85-.22-1.11-.7-1.11a.67.67,0,0,0-.64.73v.75a.68.68,0,0,0,.64.75C42.38,30.5,42.6,30.25,42.6,29.38Z"/><path class="cls-5" d="M44.59,28.62v2.26a.85.85,0,0,1-.29,0,.78.78,0,0,1-.29,0V29l-.4.23s-.06,0-.12-.14a.44.44,0,0,1-.07-.17l.59-.35V26.59a1,1,0,0,1,.29,0,1.11,1.11,0,0,1,.29,0V28.2L45,28a1,1,0,0,1,.11.14.51.51,0,0,1,.07.18Z"/><path class="cls-5" d="M48.06,27.89,46.91,31.4c-.19.62-.41,1-1,1a1.35,1.35,0,0,1-.38,0,.59.59,0,0,1,0-.22.51.51,0,0,1,.05-.23,1.35,1.35,0,0,0,.27,0c.27,0,.42-.09.59-.6l.13-.38a.53.53,0,0,1-.18,0l-1.11-3a1.14,1.14,0,0,1,.6,0l.68,1.78a5.59,5.59,0,0,1,.2.68h0a5.66,5.66,0,0,1,.18-.68l.6-1.78a.75.75,0,0,1,.28,0A.82.82,0,0,1,48.06,27.89Z"/><path class="cls-5" d="M50,30.72a.8.8,0,0,1,0,.2,1.69,1.69,0,0,1-.45.06c-.72,0-1-.38-1-1.12V28.29h-.45a.65.65,0,0,1,0-.21.65.65,0,0,1,0-.23h.45V27.3a.91.91,0,0,1,.58-.11v.66h.76a.68.68,0,0,1,0,.22.76.76,0,0,1,0,.22h-.76v1.55c0,.5.15.67.56.67l.27,0A.62.62,0,0,1,50,30.72Z"/><path class="cls-5" d="M52.82,30.88a1.23,1.23,0,0,1-.33,0,1.19,1.19,0,0,1-.32,0l-.86-1.34h-.37v1.34a.82.82,0,0,1-.28,0,1,1,0,0,1-.3,0V26.59a1.36,1.36,0,0,1,.3,0,1.17,1.17,0,0,1,.28,0V29.1h.38l.77-1.21a1,1,0,0,1,.3,0,1,1,0,0,1,.3,0l-.88,1.39Z"/><path class="cls-5" d="M53.08,27.22V26.7a.92.92,0,0,1,.31,0,1,1,0,0,1,.32,0v.52a1,1,0,0,1-.32,0A.92.92,0,0,1,53.08,27.22Zm0,3.66v-3a.78.78,0,0,1,.29,0,.85.85,0,0,1,.29,0v3a.85.85,0,0,1-.29,0A.78.78,0,0,1,53.1,30.88Z"/><path class="cls-5" d="M55.39,30.88v-3a.85.85,0,0,1,.29,0,.88.88,0,0,1,.3,0v.3a1.16,1.16,0,0,1,.9-.39.81.81,0,0,1,.89.87v2.21a.85.85,0,0,1-.29,0,.78.78,0,0,1-.29,0v-2.1c0-.33-.17-.51-.54-.51a.8.8,0,0,0-.67.4v2.21a.88.88,0,0,1-.3,0A.85.85,0,0,1,55.39,30.88Z"/><path class="cls-5" d="M60.56,28.94v1.94a.58.58,0,0,1-.24,0,.64.64,0,0,1-.24,0L60,30.49a.92.92,0,0,1-.92.49.85.85,0,0,1-.9-1c0-.63.38-.92,1.12-.92a5.5,5.5,0,0,1,.68,0V28.9a.54.54,0,0,0-.62-.62,2.49,2.49,0,0,0-.78.14.33.33,0,0,1-.12-.17.45.45,0,0,1,0-.25,2.71,2.71,0,0,1,1-.2C60.29,27.8,60.56,28.18,60.56,28.94Zm-.58.8v-.22c-.13,0-.37,0-.59,0-.41,0-.61.15-.61.53s.19.53.5.53A.72.72,0,0,0,60,29.74Z"/><path class="cls-5" d="M63.21,30.69a.62.62,0,0,1,0,.23H61a.9.9,0,0,1,0-.25,1.06,1.06,0,0,1,0-.22l1.56-2.12H61.09a.92.92,0,0,1,0-.24.83.83,0,0,1,0-.24h2.07a.68.68,0,0,1,0,.23.93.93,0,0,1,0,.25l-1.55,2.12h1.56A.58.58,0,0,1,63.21,30.69Z"/><path class="cls-5" d="M65.88,29.56H64.13c0,.69.31.92.81.92a1.38,1.38,0,0,0,.68-.17.67.67,0,0,1,.2.41l-.13.1c-.43.38-.64.78-.57,1a.2.2,0,0,0,.18.14.67.67,0,0,0,.24-.07.52.52,0,0,1,.14.34.94.94,0,0,1-.52.14.5.5,0,0,1-.55-.35c-.1-.34.14-.73.52-1.07a1.32,1.32,0,0,1-.3,0c-.87,0-1.3-.54-1.3-1.6S64,27.8,64.82,27.8A1,1,0,0,1,65.94,29,2.77,2.77,0,0,1,65.88,29.56Zm-1.76-.39h1.27a2.35,2.35,0,0,0,0-.28c0-.36-.15-.65-.58-.65S64.17,28.5,64.12,29.17Z"/><path class="cls-5" d="M69,29.39c0,1.19-.44,1.59-1.11,1.59a1,1,0,0,1-.85-.39v.29a1.07,1.07,0,0,1-.58,0V26.59a1.42,1.42,0,0,1,.58,0v1.6a1,1,0,0,1,.85-.39C68.51,27.8,69,28.2,69,29.39Zm-.61,0c0-.86-.22-1.12-.7-1.12A.68.68,0,0,0,67,29v.75a.68.68,0,0,0,.65.75C68.12,30.5,68.34,30.24,68.34,29.39Z"/><path class="cls-5" d="M69.44,30.88v-3a.78.78,0,0,1,.29,0,.85.85,0,0,1,.29,0v.3a1.16,1.16,0,0,1,.9-.39.81.81,0,0,1,.9.87v2.21a.93.93,0,0,1-.29,0,.78.78,0,0,1-.29,0v-2.1c0-.33-.18-.51-.54-.51a.82.82,0,0,0-.68.4v2.21a.85.85,0,0,1-.29,0A.78.78,0,0,1,69.44,30.88Z"/><path class="cls-5" d="M74.63,29.56H72.88c.05.69.32.92.81.92a1.38,1.38,0,0,0,.68-.17.57.57,0,0,1,.19.41,1.64,1.64,0,0,1-1,.26c-.87,0-1.3-.54-1.3-1.6s.51-1.58,1.28-1.58A1,1,0,0,1,74.7,29,2.39,2.39,0,0,1,74.63,29.56Zm-1.75-.39h1.26a2.16,2.16,0,0,0,0-.28c0-.36-.16-.65-.58-.65S72.93,28.5,72.88,29.17Z"/><path class="cls-5" d="M74.49,32.31a.34.34,0,0,1,0-.14.53.53,0,0,1,.07-.29,1.25,1.25,0,0,0,.22,0c.28,0,.43-.15.43-.5V27.89a.78.78,0,0,1,.29,0,.85.85,0,0,1,.29,0v3.54c0,.62-.3.94-.86.94A1.13,1.13,0,0,1,74.49,32.31Zm.67-5.09v-.53a1.2,1.2,0,0,1,.31,0,1.3,1.3,0,0,1,.31,0v.53a1,1,0,0,1-.31,0A.92.92,0,0,1,75.16,27.22Z"/><path class="cls-5" d="M77.47,27.22V26.7a.92.92,0,0,1,.31,0,1,1,0,0,1,.31,0v.52a1,1,0,0,1-.31,0A.92.92,0,0,1,77.47,27.22Zm0,3.66v-3a.78.78,0,0,1,.29,0,.85.85,0,0,1,.29,0v3a.85.85,0,0,1-.29,0A.78.78,0,0,1,77.49,30.88Z"/><path class="cls-5" d="M79.65,29.38c0-1.15.5-1.58,1.31-1.58s1.29.43,1.29,1.58S81.76,31,81,31,79.65,30.54,79.65,29.38Zm2,0c0-.89-.26-1.14-.69-1.14s-.7.25-.7,1.14.27,1.15.7,1.15S81.65,30.27,81.65,29.38Z"/><path class="cls-5" d="M85.25,28.25h-.48a1.05,1.05,0,0,1,.16.6c0,.64-.4,1-1.15,1l-.26,0a.54.54,0,0,0-.13.35c.06.54,1.85,0,1.85,1.16,0,.57-.54,1-1.5,1s-1.25-.34-1.25-.81a1,1,0,0,1,.51-.81.46.46,0,0,1-.13-.34,1,1,0,0,1,.29-.65.94.94,0,0,1-.53-.92c0-.64.4-1,1.15-1a1.49,1.49,0,0,1,.66.14l.81-.14A.69.69,0,0,1,85.25,28.25Zm-1.93,2.66a.71.71,0,0,0-.27.53c0,.31.22.52.7.52s.94-.21.94-.52C84.69,30.93,83.85,31.06,83.32,30.91Zm1.05-2.08a.59.59,0,1,0-1.18,0c0,.45.24.65.59.65S84.37,29.28,84.37,28.83Z"/><path class="cls-5" d="M85.62,30.88v-3a.78.78,0,0,1,.29,0,.61.61,0,0,1,.27,0v.42A.84.84,0,0,1,87.44,28a.7.7,0,0,1-.26.48.58.58,0,0,0-.36-.12.78.78,0,0,0-.62.47v2.1a.85.85,0,0,1-.29,0A.78.78,0,0,1,85.62,30.88Z"/><path class="cls-5" d="M89.9,28.94v1.94a.58.58,0,0,1-.24,0,.64.64,0,0,1-.24,0l-.08-.39a.92.92,0,0,1-.92.49.85.85,0,0,1-.9-1c0-.63.38-.92,1.12-.92a5.5,5.5,0,0,1,.68,0V28.9a.54.54,0,0,0-.62-.62,2.49,2.49,0,0,0-.78.14.33.33,0,0,1-.12-.17.5.5,0,0,1,0-.25,2.8,2.8,0,0,1,1-.2C89.63,27.8,89.9,28.18,89.9,28.94Zm-.58.8v-.22c-.14,0-.37,0-.6,0-.4,0-.61.15-.61.53a.46.46,0,0,0,.51.53A.72.72,0,0,0,89.32,29.74Z"/><path class="cls-5" d="M90.5,30.88v-3a.78.78,0,0,1,.29,0,.85.85,0,0,1,.29,0v.3a1.16,1.16,0,0,1,.9-.39.81.81,0,0,1,.89.87v2.21a1.07,1.07,0,0,1-.58,0v-2.1c0-.33-.17-.51-.54-.51a.8.8,0,0,0-.67.4v2.21a.85.85,0,0,1-.29,0A.78.78,0,0,1,90.5,30.88Z"/><path class="cls-5" d="M93.47,27.22V26.7a.82.82,0,0,1,.3,0,1,1,0,0,1,.32,0v.52a1,1,0,0,1-.32,0A.82.82,0,0,1,93.47,27.22Zm0,3.66v-3a1.07,1.07,0,0,1,.58,0v3a.78.78,0,0,1-.29,0A.85.85,0,0,1,93.48,30.88Z"/><path class="cls-5" d="M94.56,29.39c0-1.05.45-1.59,1.29-1.59a1.58,1.58,0,0,1,.78.15.57.57,0,0,1-.17.42,1.16,1.16,0,0,0-.5-.1c-.56,0-.79.36-.79,1.12s.25,1.09.81,1.09a1.42,1.42,0,0,0,.54-.1.57.57,0,0,1,.17.41,1.54,1.54,0,0,1-.84.19C95,31,94.56,30.44,94.56,29.39Z"/><path class="cls-5" d="M99.13,30.69a.62.62,0,0,1,0,.23H96.92a.62.62,0,0,1,0-.25.62.62,0,0,1,0-.22l1.55-2.12H97a.92.92,0,0,1,0-.24.83.83,0,0,1,0-.24h2.07a.68.68,0,0,1,0,.23.93.93,0,0,1,0,.25l-1.55,2.12h1.56A.58.58,0,0,1,99.13,30.69Z"/><path class="cls-5" d="M101.77,28.94v1.94a.56.56,0,0,1-.23,0,.58.58,0,0,1-.24,0l-.08-.39a.94.94,0,0,1-.92.49.84.84,0,0,1-.9-1c0-.63.37-.92,1.12-.92a5.45,5.45,0,0,1,.67,0V28.9c0-.41-.18-.62-.61-.62a2.41,2.41,0,0,0-.78.14.32.32,0,0,1-.13-.17.58.58,0,0,1,0-.25,2.8,2.8,0,0,1,1-.2C101.51,27.8,101.77,28.18,101.77,28.94Zm-.58.8v-.22c-.13,0-.37,0-.59,0-.41,0-.61.15-.61.53s.19.53.5.53A.72.72,0,0,0,101.19,29.74Z"/><path class="cls-5" d="M103.28,30.77a.51.51,0,0,1,.15-.42,2.39,2.39,0,0,0,.79.14c.39,0,.61-.13.61-.43s-.34-.39-.69-.49-.82-.3-.82-.86.36-.91,1.1-.91a1.9,1.9,0,0,1,.83.15.53.53,0,0,1-.14.41,2,2,0,0,0-.63-.1c-.41,0-.6.15-.6.43s.36.36.72.47.8.3.8.89-.36.93-1.13.93A2.43,2.43,0,0,1,103.28,30.77Z"/><path class="cls-5" d="M107.49,30.72a.8.8,0,0,1,0,.2A1.69,1.69,0,0,1,107,31c-.72,0-1-.38-1-1.12V28.29h-.45a.65.65,0,0,1,0-.21.65.65,0,0,1,0-.23H106V27.3a.91.91,0,0,1,.58-.11v.66h.76a.68.68,0,0,1,0,.22.76.76,0,0,1,0,.22h-.76v1.55c0,.5.15.67.56.67l.27,0A.62.62,0,0,1,107.49,30.72Z"/><path class="cls-5" d="M110,28.94v1.94a.58.58,0,0,1-.24,0,.56.56,0,0,1-.23,0l-.08-.39a.94.94,0,0,1-.92.49.84.84,0,0,1-.9-1c0-.63.37-.92,1.12-.92a5.45,5.45,0,0,1,.67,0V28.9c0-.41-.18-.62-.61-.62a2.41,2.41,0,0,0-.78.14.32.32,0,0,1-.13-.17.58.58,0,0,1,0-.25,2.8,2.8,0,0,1,1-.2C109.74,27.8,110,28.18,110,28.94Zm-.58.8v-.22c-.13,0-.37,0-.59,0-.41,0-.61.15-.61.53s.19.53.5.53A.72.72,0,0,0,109.42,29.74Z"/><path class="cls-5" d="M110.6,30.88v-3a.78.78,0,0,1,.29,0,.85.85,0,0,1,.29,0v.3a1.16,1.16,0,0,1,.9-.39.81.81,0,0,1,.9.87v2.21a.93.93,0,0,1-.29,0,.78.78,0,0,1-.29,0v-2.1c0-.33-.18-.51-.54-.51a.82.82,0,0,0-.68.4v2.21a.85.85,0,0,1-.29,0A.78.78,0,0,1,110.6,30.88Z"/><path class="cls-5" d="M116.71,30.69a.62.62,0,0,1,0,.23h-2.18a.9.9,0,0,1,0-.25.65.65,0,0,1,0-.22L116,28.33h-1.45a.92.92,0,0,1,0-.24.83.83,0,0,1,0-.24h2.07a.68.68,0,0,1,0,.23.93.93,0,0,1,0,.25l-1.55,2.12h1.56A.58.58,0,0,1,116.71,30.69Z"/><path class="cls-5" d="M119.35,28.94v1.94a.58.58,0,0,1-.24,0,.64.64,0,0,1-.24,0l-.08-.39a.92.92,0,0,1-.92.49.85.85,0,0,1-.9-1c0-.63.38-.92,1.12-.92a5.5,5.5,0,0,1,.68,0V28.9a.54.54,0,0,0-.62-.62,2.49,2.49,0,0,0-.78.14.33.33,0,0,1-.12-.17.5.5,0,0,1,0-.25,2.8,2.8,0,0,1,1-.2C119.08,27.8,119.35,28.18,119.35,28.94Zm-.58.8v-.22c-.13,0-.37,0-.59,0-.41,0-.62.15-.62.53a.46.46,0,0,0,.51.53A.72.72,0,0,0,118.77,29.74Z"/><path class="cls-5" d="M122.48,29.38c0,1.2-.43,1.6-1.1,1.6a.94.94,0,0,1-.85-.4v1.66a1.07,1.07,0,0,1-.58,0V27.89a1.07,1.07,0,0,1,.58,0v.3a.93.93,0,0,1,.85-.39C122,27.8,122.48,28.19,122.48,29.38Zm-.61,0c0-.85-.22-1.11-.7-1.11a.67.67,0,0,0-.64.73v.75a.68.68,0,0,0,.64.75C121.65,30.5,121.87,30.25,121.87,29.38Z"/><path class="cls-5" d="M125.17,28.94v1.94a.58.58,0,0,1-.24,0,.64.64,0,0,1-.24,0l-.08-.39a.92.92,0,0,1-.92.49.85.85,0,0,1-.9-1c0-.63.38-.92,1.12-.92a5.5,5.5,0,0,1,.68,0V28.9a.54.54,0,0,0-.62-.62,2.49,2.49,0,0,0-.78.14.33.33,0,0,1-.12-.17.5.5,0,0,1,0-.25,2.8,2.8,0,0,1,1-.2C124.9,27.8,125.17,28.18,125.17,28.94Zm-.58.8v-.22c-.13,0-.37,0-.59,0-.41,0-.61.15-.61.53s.19.53.5.53A.72.72,0,0,0,124.59,29.74Z"/><path class="cls-5" d="M125.79,30.88V26.59a1,1,0,0,1,.29,0,1.11,1.11,0,0,1,.29,0v4.29a.85.85,0,0,1-.29,0A.78.78,0,0,1,125.79,30.88Z"/><path class="cls-5" d="M127,30.88v-3a.78.78,0,0,1,.29,0,.85.85,0,0,1,.29,0v.3a1.16,1.16,0,0,1,.9-.39.81.81,0,0,1,.89.87v2.21a.85.85,0,0,1-.29,0,.78.78,0,0,1-.29,0v-2.1c0-.33-.17-.51-.54-.51a.8.8,0,0,0-.67.4v2.21a.85.85,0,0,1-.29,0A.78.78,0,0,1,127,30.88Z"/><path class="cls-5" d="M132.53,27.89l-1.15,3.51c-.2.62-.42,1-1,1a1.48,1.48,0,0,1-.39,0,.59.59,0,0,1,0-.22.45.45,0,0,1,.06-.23,1.23,1.23,0,0,0,.26,0c.28,0,.43-.09.6-.6l.12-.38a.58.58,0,0,1-.18,0l-1.11-3a1,1,0,0,1,.31,0,.88.88,0,0,1,.3,0l.67,1.78a4.83,4.83,0,0,1,.21.68h0s.06-.28.19-.68l.59-1.78a.85.85,0,0,1,.29,0A.82.82,0,0,1,132.53,27.89Z"/><path class="cls-5" d="M136.35,26.59v4.29a.73.73,0,0,1-.25,0,.87.87,0,0,1-.27,0l0-.33a1,1,0,0,1-.87.43c-.67,0-1.1-.4-1.1-1.59s.43-1.59,1.1-1.59a.92.92,0,0,1,.84.39v-1.6a1.16,1.16,0,0,1,.3,0A1.11,1.11,0,0,1,136.35,26.59Zm-.59,3.18V29a.66.66,0,0,0-.64-.72c-.47,0-.69.26-.69,1.12s.22,1.11.69,1.11A.67.67,0,0,0,135.76,29.77Z"/><path class="cls-5" d="M139,30.69a.62.62,0,0,1,0,.23H136.8a.9.9,0,0,1,0-.25.65.65,0,0,1,0-.22l1.55-2.12H136.9a.92.92,0,0,1,0-.24.83.83,0,0,1,0-.24H139a.68.68,0,0,1,0,.23.93.93,0,0,1,0,.25l-1.55,2.12H139A.58.58,0,0,1,139,30.69Z"/><path class="cls-5" d="M139.46,27.22V26.7a.92.92,0,0,1,.31,0,1,1,0,0,1,.31,0v.52a1,1,0,0,1-.31,0A.92.92,0,0,1,139.46,27.22Zm0,3.66v-3a.78.78,0,0,1,.29,0,.85.85,0,0,1,.29,0v3a.85.85,0,0,1-.29,0A.78.78,0,0,1,139.48,30.88Z"/><path class="cls-5" d="M142.89,32.23a1,1,0,0,1-.53.14c-.36,0-.57-.18-.57-.51a1.41,1.41,0,0,1,.62-1l-.09-.38a.94.94,0,0,1-.92.48.85.85,0,0,1-.9-1c0-.63.38-.92,1.13-.92a5.45,5.45,0,0,1,.67,0V28.9a.54.54,0,0,0-.62-.62,2.49,2.49,0,0,0-.78.14.33.33,0,0,1-.12-.17.45.45,0,0,1,0-.25,2.71,2.71,0,0,1,1-.2c.85,0,1.12.38,1.12,1.14v1.94a1.36,1.36,0,0,0-.56.86c0,.15.08.22.19.22a.56.56,0,0,0,.23-.07A.53.53,0,0,1,142.89,32.23Zm-.59-2.49v-.22c-.13,0-.37,0-.59,0-.41,0-.61.15-.61.53s.19.53.5.53A.72.72,0,0,0,142.3,29.74Z"/><path class="cls-5" d="M143.3,30.77a.58.58,0,0,1,.15-.42,2.4,2.4,0,0,0,.8.14c.38,0,.61-.13.61-.43s-.34-.39-.69-.49-.82-.3-.82-.86.35-.91,1.09-.91a2,2,0,0,1,.84.15.5.5,0,0,1-.15.41,2,2,0,0,0-.62-.1c-.41,0-.61.15-.61.43s.36.36.72.47.81.3.81.89-.37.93-1.13.93A2.48,2.48,0,0,1,143.3,30.77Z"/><path class="cls-5" d="M148.08,29.56h-1.75c0,.69.32.92.81.92a1.38,1.38,0,0,0,.68-.17.57.57,0,0,1,.19.41,1.64,1.64,0,0,1-1,.26c-.87,0-1.3-.54-1.3-1.6s.51-1.58,1.28-1.58A1,1,0,0,1,148.15,29,2.39,2.39,0,0,1,148.08,29.56Zm-1.75-.39h1.26a2.16,2.16,0,0,0,0-.28c0-.36-.16-.65-.58-.65S146.38,28.5,146.33,29.17Z"/><path class="cls-5" d="M149.5,28.62v2.26a.85.85,0,0,1-.29,0,.78.78,0,0,1-.29,0V29l-.4.23s-.06,0-.12-.14a.44.44,0,0,1-.07-.17l.59-.35V26.59a1,1,0,0,1,.29,0,1.11,1.11,0,0,1,.29,0V28.2l.42-.25a.46.46,0,0,1,.12.14.39.39,0,0,1,.06.18Z"/><path class="cls-5" d="M150.18,27.9a3.35,3.35,0,0,1,.47-1.67.35.35,0,0,1,.14,0,.27.27,0,0,1,.11.09,3.15,3.15,0,0,0,0,3.07.27.27,0,0,1-.11.09.35.35,0,0,1-.14,0A3.34,3.34,0,0,1,150.18,27.9Z"/><path class="cls-5" d="M152.44,28.68a.31.31,0,0,1,0,.15.33.33,0,0,1,0,.15h-1.38a1.45,1.45,0,0,1,0-.23c0-.53.34-.71.65-.92s.46-.3.46-.56-.12-.35-.44-.35a1.41,1.41,0,0,0-.49.09.24.24,0,0,1-.1-.24,1.56,1.56,0,0,1,.64-.13c.42,0,.75.17.75.62s-.24.56-.64.8c-.21.13-.49.25-.5.53,0,0,0,.06,0,.09Z"/><path class="cls-5" d="M152.77,29.52a.2.2,0,0,1-.1-.09,3.22,3.22,0,0,0,0-3.07.29.29,0,0,1,.1-.09.35.35,0,0,1,.14,0,3.18,3.18,0,0,1,0,3.33A.35.35,0,0,1,152.77,29.52Z"/></svg>