<svg id="Warstwa_1" data-name="Warstwa 1" xmlns="http://www.w3.org/2000/svg" xmlns:xlink="http://www.w3.org/1999/xlink" viewBox="0 0 450 50"><defs><style>.cls-1,.cls-4{fill:none;}.cls-2{clip-path:url(#clip-path);}.cls-3{fill:url(#Gradient_bez_nazwy_2);}.cls-4{stroke:#fff;stroke-miterlimit:10;}.cls-5{fill:#0056a3;}</style><clipPath id="clip-path"><polygon class="cls-1" points="91.16 43.01 358.84 43.01 358.84 6.88 91.16 6.88 91.16 17.94 95.97 25.36 91.16 32.64 91.16 43.01"/></clipPath><linearGradient id="Gradient_bez_nazwy_2" x1="-986.87" y1="323.73" x2="-986.15" y2="323.73" gradientTransform="matrix(372.44, 0, 0, -372.44, 367635.76, 120592.08)" gradientUnits="userSpaceOnUse"><stop offset="0" stop-color="#ccd513"/><stop offset="0.01" stop-color="#ccd513"/><stop offset="0.01" stop-color="#ccd513"/><stop offset="0.39" stop-color="#ccd515"/><stop offset="0.52" stop-color="#ced71c"/><stop offset="0.62" stop-color="#d0d927"/><stop offset="0.69" stop-color="#d4dc38"/><stop offset="0.76" stop-color="#d9e04e"/><stop offset="0.82" stop-color="#dfe46a"/><stop offset="0.87" stop-color="#e6ea8a"/><stop offset="0.92" stop-color="#eef1b0"/><stop offset="0.97" stop-color="#f7f8d9"/><stop offset="1" stop-color="#fff"/></linearGradient></defs><title>antyseptyka_w_chirurgii</title><g class="cls-2"><rect class="cls-3" x="91.16" y="6.77" width="267.67" height="36.13"/></g><polyline class="cls-4" points="92.56 6.89 92.56 17.57 92.56 17.47 97.63 25.23 92.56 33.02 92.56 43.12"/><path class="cls-5" d="M135.86,22.94a1.34,1.34,0,0,1-.39,0,1.07,1.07,0,0,1-.35,0l-.44-1.23h-2.07l-.46,1.23a1.07,1.07,0,0,1-.35,0,1,1,0,0,1-.33,0L133.23,18a1.78,1.78,0,0,1,.43-.05,1.64,1.64,0,0,1,.43.05Zm-3.07-1.79h1.7l-.68-1.85a5.1,5.1,0,0,1-.16-.6h0c0,.12-.08.36-.16.6Z"/><path class="cls-5" d="M136.2,23V19.34a1.14,1.14,0,0,1,.35,0,1.22,1.22,0,0,1,.35,0v.37a1.39,1.39,0,0,1,1.09-.48,1,1,0,0,1,1.07,1.05V23a1.55,1.55,0,0,1-.7,0V20.42c0-.41-.21-.62-.65-.62a1,1,0,0,0-.81.48V23a1.22,1.22,0,0,1-.35,0A1.14,1.14,0,0,1,136.2,23Z"/><path class="cls-5" d="M141.77,22.75a.87.87,0,0,1,0,.25,2.37,2.37,0,0,1-.54.06c-.87,0-1.19-.46-1.19-1.34v-1.9h-.53a.86.86,0,0,1,0-.52H140v-.67a1.17,1.17,0,0,1,.71-.14v.81h.91a.7.7,0,0,1,0,.26.76.76,0,0,1,0,.26h-.91v1.87c0,.61.18.81.67.81a2,2,0,0,0,.33,0A.73.73,0,0,1,141.77,22.75Z"/><path class="cls-5" d="M145.22,19.34l-1.38,4.23c-.24.74-.51,1.17-1.24,1.17a1.6,1.6,0,0,1-.46-.06.71.71,0,0,1,0-.27.54.54,0,0,1,.07-.27,1.8,1.8,0,0,0,.32,0c.34,0,.51-.11.71-.72l.16-.46a.54.54,0,0,1-.22,0l-1.34-3.6a1.38,1.38,0,0,1,.37,0,1.26,1.26,0,0,1,.36,0l.81,2.14a6,6,0,0,1,.25.83h0s.07-.34.22-.83l.72-2.14a1.1,1.1,0,0,1,.34,0A1.18,1.18,0,0,1,145.22,19.34Z"/><path class="cls-5" d="M145.4,22.81a.6.6,0,0,1,.18-.5,2.85,2.85,0,0,0,1,.17c.46,0,.73-.16.73-.52s-.41-.47-.83-.59-1-.36-1-1,.43-1.1,1.32-1.1a2.29,2.29,0,0,1,1,.19.63.63,0,0,1-.18.49,2.39,2.39,0,0,0-.75-.12c-.49,0-.73.18-.73.51s.43.43.87.58,1,.36,1,1.06-.43,1.12-1.35,1.12A2.82,2.82,0,0,1,145.4,22.81Z"/><path class="cls-5" d="M151.15,21.36h-2.1c0,.83.37,1.1,1,1.1a1.6,1.6,0,0,0,.82-.21.76.76,0,0,1,.23.5,2,2,0,0,1-1.18.31c-1,0-1.57-.64-1.57-1.93s.62-1.9,1.55-1.9a1.24,1.24,0,0,1,1.36,1.39A3.16,3.16,0,0,1,151.15,21.36ZM149,20.88h1.52a2.92,2.92,0,0,0,0-.33c0-.43-.19-.78-.7-.78S149.09,20.08,149,20.88Z"/><path class="cls-5" d="M154.84,21.14c0,1.44-.52,1.92-1.33,1.92a1.11,1.11,0,0,1-1-.48v2a1.55,1.55,0,0,1-.7,0V19.34a1.55,1.55,0,0,1,.7,0v.37a1.11,1.11,0,0,1,1-.48C154.31,19.23,154.84,19.71,154.84,21.14Zm-.73,0c0-1-.27-1.34-.84-1.34a.81.81,0,0,0-.78.88v.9a.83.83,0,0,0,.78.91C153.84,22.49,154.11,22.18,154.11,21.14Z"/><path class="cls-5" d="M157.43,22.75a.87.87,0,0,1,0,.25,2.37,2.37,0,0,1-.54.06c-.87,0-1.19-.46-1.19-1.34v-1.9h-.53a.86.86,0,0,1,0-.52h.53v-.67a1.15,1.15,0,0,1,.7-.14v.81h.92a.7.7,0,0,1,0,.26.76.76,0,0,1,0,.26h-.92v1.87c0,.61.19.81.68.81a2.2,2.2,0,0,0,.33,0A.73.73,0,0,1,157.43,22.75Z"/><path class="cls-5" d="M160.88,19.34l-1.38,4.23c-.24.74-.51,1.17-1.24,1.17a1.56,1.56,0,0,1-.46-.06.71.71,0,0,1-.05-.27.61.61,0,0,1,.06-.27,2.06,2.06,0,0,0,.33,0c.33,0,.51-.11.71-.72L159,23a.54.54,0,0,1-.22,0l-1.34-3.6a1.34,1.34,0,0,1,.36,0,1.3,1.3,0,0,1,.37,0l.81,2.14a6,6,0,0,1,.25.83h0s.07-.34.22-.83l.72-2.14a1.1,1.1,0,0,1,.34,0A1.18,1.18,0,0,1,160.88,19.34Z"/><path class="cls-5" d="M164.23,22.94a1.44,1.44,0,0,1-.39,0,1.35,1.35,0,0,1-.39,0l-1-1.61H162V23a1.22,1.22,0,0,1-.35,0,1.3,1.3,0,0,1-.35,0V17.77a2.06,2.06,0,0,1,.7,0v3h.45l.93-1.46a1.38,1.38,0,0,1,.37,0,1.4,1.4,0,0,1,.35,0L163,21Z"/><path class="cls-5" d="M167.19,20.6V23a.85.85,0,0,1-.29,0,.82.82,0,0,1-.28,0l-.1-.47a1.13,1.13,0,0,1-1.11.58,1,1,0,0,1-1.08-1.16c0-.75.45-1.09,1.35-1.09a7.86,7.86,0,0,1,.81,0v-.29c0-.5-.22-.74-.74-.74a2.93,2.93,0,0,0-.94.17.52.52,0,0,1-.16-.21.65.65,0,0,1,0-.3,3.19,3.19,0,0,1,1.24-.25C166.87,19.23,167.19,19.69,167.19,20.6Zm-.7,1v-.26c-.16,0-.45,0-.72,0-.49,0-.73.18-.73.64s.23.64.61.64A.87.87,0,0,0,166.49,21.57Z"/><path class="cls-5" d="M169.93,23l-1.06-3.61a1.22,1.22,0,0,1,.35,0,.79.79,0,0,1,.31,0l.65,2.17a3.81,3.81,0,0,1,.15.77h0a6.25,6.25,0,0,1,.16-.77l.65-2.17a1.81,1.81,0,0,1,.37,0,1.22,1.22,0,0,1,.35,0l.63,2.16a4.76,4.76,0,0,1,.15.78h0a5.38,5.38,0,0,1,.17-.77l.65-2.17a1,1,0,0,1,.31,0,.92.92,0,0,1,.31,0L173.06,23a2.15,2.15,0,0,1-.4,0,2.23,2.23,0,0,1-.39,0l-.56-1.89a3.84,3.84,0,0,1-.19-1h0a4.05,4.05,0,0,1-.21,1L170.72,23a2,2,0,0,1-.39,0A2.25,2.25,0,0,1,169.93,23Z"/><path class="cls-5" d="M175.66,21.15c0-1.26.54-1.92,1.56-1.92a2,2,0,0,1,.94.18.74.74,0,0,1-.21.51,1.4,1.4,0,0,0-.6-.12c-.68,0-1,.43-1,1.35s.3,1.31,1,1.31a1.69,1.69,0,0,0,.65-.12.74.74,0,0,1,.21.5,1.93,1.93,0,0,1-1,.22C176.2,23.06,175.66,22.41,175.66,21.15Z"/><path class="cls-5" d="M181.55,20.28V23a1.55,1.55,0,0,1-.7,0V20.42c0-.41-.21-.62-.65-.62a1,1,0,0,0-.81.48V23a1.22,1.22,0,0,1-.35,0,1.14,1.14,0,0,1-.35,0V17.78a1.14,1.14,0,0,1,.35,0,1.22,1.22,0,0,1,.35,0v1.91a1.44,1.44,0,0,1,1.08-.46A1,1,0,0,1,181.55,20.28Z"/><path class="cls-5" d="M182.26,18.54v-.63a1.05,1.05,0,0,1,.37-.05,1.16,1.16,0,0,1,.38.05v.63a1.42,1.42,0,0,1-.38,0A1.3,1.3,0,0,1,182.26,18.54Zm0,4.41V19.34a1.14,1.14,0,0,1,.35,0,1.22,1.22,0,0,1,.35,0V23a1.22,1.22,0,0,1-.35,0A1.14,1.14,0,0,1,182.28,23Z"/><path class="cls-5" d="M183.74,23V19.34a1.14,1.14,0,0,1,.35,0,1,1,0,0,1,.33,0v.51a1,1,0,0,1,.91-.61,1.1,1.1,0,0,1,.6.17.82.82,0,0,1-.31.58.67.67,0,0,0-.43-.14.94.94,0,0,0-.75.57V23a1.22,1.22,0,0,1-.35,0A1.14,1.14,0,0,1,183.74,23Z"/><path class="cls-5" d="M189.09,19.34V23a1.14,1.14,0,0,1-.35,0,1.22,1.22,0,0,1-.35,0v-.37a1.38,1.38,0,0,1-1.09.48,1,1,0,0,1-1.07-1V19.34a1.22,1.22,0,0,1,.35,0,1.14,1.14,0,0,1,.35,0v2.54c0,.4.21.62.65.62a1,1,0,0,0,.81-.49V19.34a1.55,1.55,0,0,1,.7,0Z"/><path class="cls-5" d="M189.83,23V19.34a1.14,1.14,0,0,1,.35,0,1,1,0,0,1,.33,0v.51a1,1,0,0,1,.91-.61,1.1,1.1,0,0,1,.6.17.82.82,0,0,1-.31.58.67.67,0,0,0-.43-.14.94.94,0,0,0-.75.57V23a1.22,1.22,0,0,1-.35,0A1.14,1.14,0,0,1,189.83,23Z"/><path class="cls-5" d="M195.36,19.78h-.58a1.23,1.23,0,0,1,.19.71c0,.78-.47,1.26-1.38,1.26l-.32,0a.65.65,0,0,0-.15.42c.07.65,2.23-.05,2.23,1.4,0,.68-.65,1.2-1.81,1.2s-1.51-.41-1.51-1a1.19,1.19,0,0,1,.62-1,.56.56,0,0,1-.16-.42,1.18,1.18,0,0,1,.35-.77,1.14,1.14,0,0,1-.64-1.12c0-.77.49-1.25,1.39-1.25a1.77,1.77,0,0,1,.79.17l1-.16A.9.9,0,0,1,195.36,19.78ZM193,23a.88.88,0,0,0-.33.64c0,.37.27.62.85.62s1.13-.25,1.13-.63C194.68,23,193.68,23.17,193,23Zm1.26-2.5c0-.53-.28-.77-.7-.77s-.71.24-.71.77.28.78.71.78S194.29,21,194.29,20.48Z"/><path class="cls-5" d="M195.79,18.54v-.63a1.05,1.05,0,0,1,.37-.05,1.16,1.16,0,0,1,.38.05v.63a1.42,1.42,0,0,1-.38,0A1.3,1.3,0,0,1,195.79,18.54Zm0,4.41V19.34a1.14,1.14,0,0,1,.35,0,1.22,1.22,0,0,1,.35,0V23a1.22,1.22,0,0,1-.35,0A1.14,1.14,0,0,1,195.81,23Z"/><path class="cls-5" d="M197.26,18.54v-.63a1.05,1.05,0,0,1,.37-.05,1.16,1.16,0,0,1,.38.05v.63a1.42,1.42,0,0,1-.38,0A1.3,1.3,0,0,1,197.26,18.54Zm0,4.41V19.34a1.14,1.14,0,0,1,.35,0,1.22,1.22,0,0,1,.35,0V23a1.22,1.22,0,0,1-.35,0A1.14,1.14,0,0,1,197.28,23Z"/><path class="cls-5" d="M200,18.54v-.63a1.05,1.05,0,0,1,.37-.05,1.16,1.16,0,0,1,.38.05v.63a1.42,1.42,0,0,1-.38,0A1.3,1.3,0,0,1,200,18.54Zm0,4.41V19.34a1.14,1.14,0,0,1,.35,0,1.22,1.22,0,0,1,.35,0V23a1.22,1.22,0,0,1-.35,0A1.14,1.14,0,0,1,200.05,23Z"/><path class="cls-5" d="M201.51,23V19.34a1.14,1.14,0,0,1,.35,0,1.22,1.22,0,0,1,.35,0v.36a1.32,1.32,0,0,1,1-.47.92.92,0,0,1,.91.55,1.38,1.38,0,0,1,1.15-.55,1,1,0,0,1,1,1.06V23a1.22,1.22,0,0,1-.35,0,1.14,1.14,0,0,1-.35,0V20.42c0-.41-.19-.62-.6-.62a.87.87,0,0,0-.77.49V23a1.55,1.55,0,0,1-.7,0V20.42c0-.41-.18-.62-.6-.62a.91.91,0,0,0-.76.48V23a1.3,1.3,0,0,1-.35,0A1.14,1.14,0,0,1,201.51,23Z"/><path class="cls-5" d="M210.11,21.14c0,1.44-.53,1.92-1.34,1.92a1.13,1.13,0,0,1-1-.48v2a1.55,1.55,0,0,1-.7,0V19.34a1.55,1.55,0,0,1,.7,0v.37a1.13,1.13,0,0,1,1-.48C209.57,19.23,210.11,19.71,210.11,21.14Zm-.74,0c0-1-.27-1.34-.84-1.34a.81.81,0,0,0-.78.88v.9a.83.83,0,0,0,.78.91C209.1,22.49,209.37,22.18,209.37,21.14Z"/><path class="cls-5" d="M210.73,23V17.78a1.06,1.06,0,0,1,.35,0,1.22,1.22,0,0,1,.35,0V23a1.22,1.22,0,0,1-.35,0A1.06,1.06,0,0,1,210.73,23Z"/><path class="cls-5" d="M214.83,20.6V23a.85.85,0,0,1-.29,0,.82.82,0,0,1-.28,0l-.1-.47a1.13,1.13,0,0,1-1.11.58A1,1,0,0,1,212,21.9c0-.75.45-1.09,1.35-1.09a7.86,7.86,0,0,1,.81,0v-.29c0-.5-.22-.74-.74-.74a2.93,2.93,0,0,0-.94.17.45.45,0,0,1-.15-.21.58.58,0,0,1-.05-.3,3.25,3.25,0,0,1,1.24-.25C214.51,19.23,214.83,19.69,214.83,20.6Zm-.7,1v-.26c-.16,0-.45,0-.71,0-.49,0-.74.18-.74.64s.23.64.61.64A.87.87,0,0,0,214.13,21.57Z"/><path class="cls-5" d="M215.54,23V19.34a1.55,1.55,0,0,1,.7,0v.37a1.39,1.39,0,0,1,1.09-.48,1,1,0,0,1,1.08,1.05V23a1.3,1.3,0,0,1-.35,0,1.14,1.14,0,0,1-.35,0V20.42c0-.41-.21-.62-.65-.62a1,1,0,0,0-.82.48V23a1.55,1.55,0,0,1-.7,0Z"/><path class="cls-5" d="M221.12,22.75a.67.67,0,0,1,0,.25,2.3,2.3,0,0,1-.54.06c-.87,0-1.18-.46-1.18-1.34v-1.9h-.53a.7.7,0,0,1,0-.52h.53v-.67a1.14,1.14,0,0,1,.7-.14v.81H221a.9.9,0,0,1,0,.26,1,1,0,0,1,0,.26h-.92v1.87c0,.61.19.81.68.81a2,2,0,0,0,.32,0A.63.63,0,0,1,221.12,22.75Z"/><path class="cls-5" d="M221.34,21.14c0-1.39.6-1.91,1.57-1.91s1.56.52,1.56,1.91-.59,1.92-1.56,1.92S221.34,22.54,221.34,21.14Zm2.41,0c0-1.07-.32-1.37-.84-1.37s-.84.3-.84,1.37.32,1.38.84,1.38S223.75,22.21,223.75,21.14Z"/><path class="cls-5" d="M225.08,23V17.78a1.55,1.55,0,0,1,.7,0V23a1.55,1.55,0,0,1-.7,0Z"/><path class="cls-5" d="M226.39,21.14c0-1.39.61-1.91,1.57-1.91s1.56.52,1.56,1.91-.59,1.92-1.56,1.92S226.39,22.54,226.39,21.14Zm2.41,0c0-1.07-.32-1.37-.84-1.37s-.84.3-.84,1.37.32,1.38.84,1.38S228.8,22.21,228.8,21.14Z"/><path class="cls-5" d="M233.13,19.78h-.58a1.23,1.23,0,0,1,.19.71c0,.78-.47,1.26-1.38,1.26l-.32,0a.65.65,0,0,0-.15.42c.07.65,2.23-.05,2.23,1.4,0,.68-.65,1.2-1.81,1.2s-1.51-.41-1.51-1a1.19,1.19,0,0,1,.62-1,.56.56,0,0,1-.16-.42,1.23,1.23,0,0,1,.35-.77,1.14,1.14,0,0,1-.64-1.12c0-.77.49-1.25,1.39-1.25a1.77,1.77,0,0,1,.79.17l1-.16A.9.9,0,0,1,233.13,19.78ZM230.8,23a.88.88,0,0,0-.33.64c0,.37.27.62.85.62.73,0,1.13-.25,1.13-.63C232.45,23,231.45,23.17,230.8,23Zm1.26-2.5c0-.53-.28-.77-.7-.77a.67.67,0,0,0-.71.77c0,.54.29.78.71.78S232.06,21,232.06,20.48Z"/><path class="cls-5" d="M233.56,18.54v-.63a1.05,1.05,0,0,1,.37-.05,1.16,1.16,0,0,1,.38.05v.63a1.42,1.42,0,0,1-.38,0A1.3,1.3,0,0,1,233.56,18.54Zm0,4.41V19.34a1.14,1.14,0,0,1,.35,0,1.22,1.22,0,0,1,.35,0V23a1.22,1.22,0,0,1-.35,0A1.14,1.14,0,0,1,233.58,23Z"/><path class="cls-5" d="M234.88,21.15c0-1.26.54-1.92,1.56-1.92a2,2,0,0,1,.94.18.74.74,0,0,1-.21.51,1.4,1.4,0,0,0-.6-.12c-.68,0-1,.43-1,1.35s.3,1.31,1,1.31a1.69,1.69,0,0,0,.65-.12.74.74,0,0,1,.21.5,1.93,1.93,0,0,1-1,.22C235.42,23.06,234.88,22.41,234.88,21.15Z"/><path class="cls-5" d="M240.38,22.71a.68.68,0,0,1,0,.28h-2.62a.87.87,0,0,1,0-.3,1,1,0,0,1,0-.27l1.87-2.55h-1.75a1,1,0,0,1,0-.29.82.82,0,0,1,0-.28h2.49a.62.62,0,0,1,.05.27.9.9,0,0,1-.05.3l-1.87,2.55h1.88A.7.7,0,0,1,240.38,22.71Z"/><path class="cls-5" d="M240.92,23V19.34a1.14,1.14,0,0,1,.35,0,1.22,1.22,0,0,1,.35,0v.37a1.39,1.39,0,0,1,1.08-.48,1,1,0,0,1,1.08,1.05V23a1.22,1.22,0,0,1-.35,0,1.14,1.14,0,0,1-.35,0V20.42c0-.41-.21-.62-.65-.62a1,1,0,0,0-.81.48V23a1.22,1.22,0,0,1-.35,0A1.14,1.14,0,0,1,240.92,23Z"/><path class="cls-5" d="M247.17,21.36h-2.11c.06.83.38,1.1,1,1.1a1.59,1.59,0,0,0,.81-.21.77.77,0,0,1,.24.5,2,2,0,0,1-1.18.31c-1,0-1.57-.64-1.57-1.93s.62-1.9,1.55-1.9a1.24,1.24,0,0,1,1.36,1.39A3.16,3.16,0,0,1,247.17,21.36Zm-2.12-.48h1.52a1.55,1.55,0,0,0,0-.33c0-.43-.19-.78-.7-.78S245.11,20.08,245.05,20.88Z"/><path class="cls-5" d="M247,24.66a.45.45,0,0,1,0-.16.67.67,0,0,1,.08-.35,1.61,1.61,0,0,0,.26,0c.34,0,.53-.17.53-.6V19.34a1.06,1.06,0,0,1,.35,0,1.3,1.3,0,0,1,.35,0v4.27c0,.75-.37,1.13-1,1.13A1.27,1.27,0,0,1,247,24.66Zm.81-6.12V17.9a1.42,1.42,0,0,1,.38,0,1.26,1.26,0,0,1,.36,0v.64a1.26,1.26,0,0,1-.36,0A1.42,1.42,0,0,1,247.8,18.54Z"/><path class="cls-5" d="M253.06,22.71A.68.68,0,0,1,253,23h-2.62a.87.87,0,0,1,0-.3,1,1,0,0,1,0-.27l1.87-2.55h-1.75a1,1,0,0,1,0-.29.82.82,0,0,1,0-.28H253a.85.85,0,0,1,0,.27,1.28,1.28,0,0,1,0,.3l-1.87,2.55H253A.7.7,0,0,1,253.06,22.71Z"/><path class="cls-5" d="M256.23,20.6V23a.75.75,0,0,1-.28,0,.85.85,0,0,1-.29,0l-.1-.47a1.1,1.1,0,0,1-1.1.58,1,1,0,0,1-1.09-1.16c0-.75.46-1.09,1.35-1.09a7.86,7.86,0,0,1,.81,0v-.29c0-.5-.21-.74-.74-.74a2.93,2.93,0,0,0-.94.17.7.7,0,0,1-.15-.21.73.73,0,0,1,0-.3,3.25,3.25,0,0,1,1.24-.25C255.91,19.23,256.23,19.69,256.23,20.6Zm-.7,1v-.26c-.16,0-.44,0-.71,0-.49,0-.74.18-.74.64s.24.64.61.64A.87.87,0,0,0,255.53,21.57Z"/><path class="cls-5" d="M260,21.14c0,1.44-.52,1.92-1.33,1.92a1.11,1.11,0,0,1-1-.48v2a1.55,1.55,0,0,1-.7,0V19.34a1.55,1.55,0,0,1,.7,0v.37a1.11,1.11,0,0,1,1-.48C259.47,19.23,260,19.71,260,21.14Zm-.73,0c0-1-.27-1.34-.84-1.34a.81.81,0,0,0-.78.88v.9a.83.83,0,0,0,.78.91C259,22.49,259.27,22.18,259.27,21.14Z"/><path class="cls-5" d="M263.27,21.36h-2.11c.06.83.38,1.1,1,1.1a1.59,1.59,0,0,0,.81-.21.77.77,0,0,1,.24.5,2,2,0,0,1-1.18.31c-1.05,0-1.57-.64-1.57-1.93s.62-1.9,1.55-1.9a1.24,1.24,0,0,1,1.36,1.39A3.16,3.16,0,0,1,263.27,21.36Zm-2.12-.48h1.52a1.55,1.55,0,0,0,0-.33c0-.43-.19-.78-.7-.78S261.21,20.08,261.15,20.88Z"/><path class="cls-5" d="M264.63,23l-1.06-3.61a1.3,1.3,0,0,1,.35,0,.79.79,0,0,1,.31,0l.66,2.17a4.4,4.4,0,0,1,.14.77h0a6.79,6.79,0,0,1,.17-.77l.64-2.17a1.81,1.81,0,0,1,.37,0,1.22,1.22,0,0,1,.35,0l.63,2.16a3.87,3.87,0,0,1,.15.78h0a5.38,5.38,0,0,1,.17-.77l.65-2.17a1,1,0,0,1,.31,0,.92.92,0,0,1,.31,0L267.76,23a2.13,2.13,0,0,1-.39,0,2.35,2.35,0,0,1-.4,0l-.56-1.89a4.29,4.29,0,0,1-.19-1h0a5.17,5.17,0,0,1-.21,1L265.43,23a2,2,0,0,1-.8,0Z"/><path class="cls-5" d="M269.22,23V19.34a1.14,1.14,0,0,1,.35,0,1.22,1.22,0,0,1,.35,0v.37a1.37,1.37,0,0,1,1.08-.48,1,1,0,0,1,1.08,1.05V23a1.22,1.22,0,0,1-.35,0,1.14,1.14,0,0,1-.35,0V20.42c0-.41-.21-.62-.65-.62a1,1,0,0,0-.81.48V23a1.22,1.22,0,0,1-.35,0A1.14,1.14,0,0,1,269.22,23Z"/><path class="cls-5" d="M272.79,18.54v-.63a1.05,1.05,0,0,1,.37-.05,1.23,1.23,0,0,1,.38.05v.63a1.52,1.52,0,0,1-.38,0A1.3,1.3,0,0,1,272.79,18.54Zm0,4.41V19.34a1.06,1.06,0,0,1,.35,0,1.22,1.22,0,0,1,.35,0V23a1.22,1.22,0,0,1-.35,0A1.14,1.14,0,0,1,272.81,23Z"/><path class="cls-5" d="M276.91,20.6V23a.85.85,0,0,1-.29,0,.93.93,0,0,1-.29,0l-.1-.47a1.1,1.1,0,0,1-1.1.58A1,1,0,0,1,274,21.9c0-.75.46-1.09,1.35-1.09.33,0,.63,0,.82,0v-.29c0-.5-.22-.74-.75-.74a3,3,0,0,0-.94.17.7.7,0,0,1-.15-.21.73.73,0,0,1-.05-.3,3.25,3.25,0,0,1,1.24-.25C276.58,19.23,276.91,19.69,276.91,20.6Zm-.7,1v-.26c-.17,0-.45,0-.72,0-.49,0-.73.18-.73.64s.23.64.6.64A.88.88,0,0,0,276.21,21.57Z"/><path class="cls-5" d="M278.92,23V19.34a1.14,1.14,0,0,1,.35,0,1.22,1.22,0,0,1,.35,0v.37a1.39,1.39,0,0,1,1.09-.48,1,1,0,0,1,1.08,1.05V23a1.34,1.34,0,0,1-.36,0,1.22,1.22,0,0,1-.35,0V20.42c0-.41-.21-.62-.65-.62a1,1,0,0,0-.81.48V23a1.22,1.22,0,0,1-.35,0A1.14,1.14,0,0,1,278.92,23Z"/><path class="cls-5" d="M282.49,18.54v-.63a1.05,1.05,0,0,1,.37-.05,1.16,1.16,0,0,1,.38.05v.63a1.42,1.42,0,0,1-.38,0A1.3,1.3,0,0,1,282.49,18.54Zm0,4.41V19.34a1.14,1.14,0,0,1,.35,0,1.22,1.22,0,0,1,.35,0V23a1.22,1.22,0,0,1-.35,0A1.14,1.14,0,0,1,282.51,23Z"/><path class="cls-5" d="M283.76,22.81a.6.6,0,0,1,.18-.5,2.85,2.85,0,0,0,1,.17c.46,0,.73-.16.73-.52s-.41-.47-.83-.59-1-.36-1-1,.43-1.1,1.32-1.1a2.29,2.29,0,0,1,1,.19.63.63,0,0,1-.18.49,2.39,2.39,0,0,0-.75-.12c-.49,0-.73.18-.73.51s.43.43.87.58,1,.36,1,1.06-.43,1.12-1.36,1.12A2.81,2.81,0,0,1,283.76,22.81Z"/><path class="cls-5" d="M289.8,22.94a1.55,1.55,0,0,1-.78,0l-1-1.61h-.44V23a1.22,1.22,0,0,1-.35,0,1.3,1.3,0,0,1-.35,0V17.77a2.06,2.06,0,0,1,.7,0v3H288l.93-1.46a1.38,1.38,0,0,1,.37,0,1.4,1.4,0,0,1,.35,0L288.58,21Z"/><path class="cls-5" d="M292.77,24.57a1.14,1.14,0,0,1-.63.17c-.44,0-.69-.22-.69-.62a1.74,1.74,0,0,1,.74-1.18l-.11-.45a1.11,1.11,0,0,1-1.1.57,1,1,0,0,1-1.08-1.16c0-.75.45-1.09,1.35-1.09a7.86,7.86,0,0,1,.81,0v-.29c0-.5-.22-.74-.74-.74a2.93,2.93,0,0,0-.94.17.52.52,0,0,1-.16-.21.65.65,0,0,1,0-.3,3.25,3.25,0,0,1,1.24-.25c1,0,1.34.46,1.34,1.37V23a1.63,1.63,0,0,0-.67,1c0,.18.1.26.22.26a.82.82,0,0,0,.28-.07A.58.58,0,0,1,292.77,24.57Zm-.71-3v-.26c-.15,0-.44,0-.71,0-.5,0-.74.18-.74.64s.23.64.61.64A.87.87,0,0,0,292.06,21.57Z"/><path class="cls-5" d="M294.77,23V19.34a1.26,1.26,0,0,1,.36,0,.88.88,0,0,1,.32,0v.51a1,1,0,0,1,.9-.61,1.11,1.11,0,0,1,.61.17.82.82,0,0,1-.31.58.68.68,0,0,0-.44-.14,1,1,0,0,0-.75.57V23a1.1,1.1,0,0,1-.34,0A1.26,1.26,0,0,1,294.77,23Z"/><path class="cls-5" d="M300,21.36h-2.11c.06.83.38,1.1,1,1.1a1.6,1.6,0,0,0,.82-.21.76.76,0,0,1,.23.5,2,2,0,0,1-1.18.31c-1.05,0-1.57-.64-1.57-1.93s.62-1.9,1.55-1.9A1.24,1.24,0,0,1,300,20.62,3.16,3.16,0,0,1,300,21.36Zm-2.11-.48h1.52a2.92,2.92,0,0,0,0-.33c0-.43-.19-.78-.7-.78S297.9,20.08,297.85,20.88Z"/><path class="cls-5" d="M302.6,22.75a.67.67,0,0,1,0,.25,2.3,2.3,0,0,1-.54.06c-.87,0-1.18-.46-1.18-1.34v-1.9h-.54a.86.86,0,0,1,0-.52h.54v-.67a1.14,1.14,0,0,1,.7-.14v.81h.92a.9.9,0,0,1,0,.26,1,1,0,0,1,0,.26h-.92v1.87c0,.61.19.81.68.81a2,2,0,0,0,.32,0A.63.63,0,0,1,302.6,22.75Z"/><path class="cls-5" d="M305.65,21.36h-2.11c.06.83.38,1.1,1,1.1a1.6,1.6,0,0,0,.82-.21.71.71,0,0,1,.23.5,2,2,0,0,1-1.17.31c-1.05,0-1.57-.64-1.57-1.93s.61-1.9,1.55-1.9a1.23,1.23,0,0,1,1.35,1.39A3.59,3.59,0,0,1,305.65,21.36Zm-2.12-.48h1.52a1.62,1.62,0,0,0,0-.33c0-.43-.19-.78-.7-.78S303.59,20.08,303.53,20.88Z"/><path class="cls-5" d="M306.28,23V19.34a1.14,1.14,0,0,1,.35,0,1.22,1.22,0,0,1,.35,0v.37a1.39,1.39,0,0,1,1.09-.48,1,1,0,0,1,1.08,1.05V23a1.3,1.3,0,0,1-.35,0,1.14,1.14,0,0,1-.35,0V20.42c0-.41-.21-.62-.65-.62a1,1,0,0,0-.82.48V23a1.22,1.22,0,0,1-.35,0A1.14,1.14,0,0,1,306.28,23Z"/><path class="cls-5" d="M309.71,21.15c0-1.26.53-1.92,1.55-1.92a2,2,0,0,1,.94.18.74.74,0,0,1-.21.51,1.4,1.4,0,0,0-.6-.12c-.68,0-1,.43-1,1.35s.31,1.31,1,1.31a1.69,1.69,0,0,0,.65-.12.74.74,0,0,1,.21.5,1.93,1.93,0,0,1-1,.22C310.24,23.06,309.71,22.41,309.71,21.15Z"/><path class="cls-5" d="M311.91,24.66a.45.45,0,0,1,0-.16.67.67,0,0,1,.08-.35,1.83,1.83,0,0,0,.27,0c.34,0,.52-.17.52-.6V19.34a1.14,1.14,0,0,1,.35,0,1.22,1.22,0,0,1,.35,0v4.27c0,.75-.36,1.13-1,1.13A1.33,1.33,0,0,1,311.91,24.66Zm.81-6.12V17.9a1.42,1.42,0,0,1,.38,0,1.38,1.38,0,0,1,.37,0v.64a1.38,1.38,0,0,1-.37,0A1.42,1.42,0,0,1,312.72,18.54Z"/><path class="cls-5" d="M316.88,21.36h-2.11c.05.83.38,1.1,1,1.1a1.65,1.65,0,0,0,.82-.21.76.76,0,0,1,.23.5l-.14.12c-.53.46-.77.95-.69,1.21a.22.22,0,0,0,.22.16.89.89,0,0,0,.28-.07.57.57,0,0,1,.17.4,1.09,1.09,0,0,1-.63.17.6.6,0,0,1-.66-.43c-.11-.4.17-.87.63-1.28a1.94,1.94,0,0,1-.36,0c-1.05,0-1.57-.64-1.57-1.93s.62-1.9,1.55-1.9A1.24,1.24,0,0,1,317,20.62,3.16,3.16,0,0,1,316.88,21.36Zm-2.11-.48h1.52a2.92,2.92,0,0,0,0-.33c0-.43-.19-.78-.7-.78S314.82,20.08,314.77,20.88Z"/><path class="cls-5" d="M134.91,29.54c0,1.44-.52,1.92-1.33,1.92a1.12,1.12,0,0,1-1-.48v2a1.55,1.55,0,0,1-.7,0V27.74a1.55,1.55,0,0,1,.7,0v.37a1.12,1.12,0,0,1,1-.48C134.38,27.63,134.91,28.11,134.91,29.54Zm-.73,0c0-1-.27-1.34-.84-1.34a.81.81,0,0,0-.78.88V30a.82.82,0,0,0,.78.91C133.91,30.89,134.18,30.58,134.18,29.54Z"/><path class="cls-5" d="M136.57,28.62v2.73a1.22,1.22,0,0,1-.35,0,1.14,1.14,0,0,1-.35,0V29l-.48.28a.44.44,0,0,1-.14-.17.43.43,0,0,1-.09-.21l.71-.41V26.18a1.14,1.14,0,0,1,.35,0,1.22,1.22,0,0,1,.35,0v1.93l.51-.29a.57.57,0,0,1,.14.17.53.53,0,0,1,.08.21Z"/><path class="cls-5" d="M140.75,27.74,139.36,32c-.23.74-.5,1.17-1.23,1.17a1.56,1.56,0,0,1-.46-.06.71.71,0,0,1,0-.27.61.61,0,0,1,.06-.27,1.94,1.94,0,0,0,.33,0c.33,0,.51-.11.71-.72l.15-.46a.54.54,0,0,1-.21-.05l-1.34-3.6a1.34,1.34,0,0,1,.36,0,1.3,1.3,0,0,1,.37,0l.81,2.14a5.06,5.06,0,0,1,.24.83h0s.07-.34.22-.83l.71-2.14a1.22,1.22,0,0,1,.35,0A1.18,1.18,0,0,1,140.75,27.74Z"/><path class="cls-5" d="M143.13,31.15a.87.87,0,0,1,0,.25,2.37,2.37,0,0,1-.54.06c-.87,0-1.19-.45-1.19-1.34V28.23h-.53a.76.76,0,0,1,0-.26.66.66,0,0,1,0-.27h.53V27a1.23,1.23,0,0,1,.7-.14v.81H143a.7.7,0,0,1,0,.26.87.87,0,0,1,0,.27h-.92v1.86c0,.61.19.81.68.81a2,2,0,0,0,.32,0A.63.63,0,0,1,143.13,31.15Z"/><path class="cls-5" d="M146.47,31.34a1.55,1.55,0,0,1-.78,0l-1-1.61h-.44v1.62a1.22,1.22,0,0,1-.35,0,1.3,1.3,0,0,1-.35,0V26.17a2.06,2.06,0,0,1,.7,0v3h.45l.93-1.46a1.38,1.38,0,0,1,.37,0,1.4,1.4,0,0,1,.35,0l-1.06,1.68Z"/><path class="cls-5" d="M146.78,26.94v-.63a1.05,1.05,0,0,1,.37,0,1.16,1.16,0,0,1,.38,0v.63a1.42,1.42,0,0,1-.38,0A1.3,1.3,0,0,1,146.78,26.94Zm0,4.41V27.74a1.14,1.14,0,0,1,.35,0,1.26,1.26,0,0,1,.36,0v3.61a1.26,1.26,0,0,1-.36,0A1.22,1.22,0,0,1,146.8,31.35Z"/><path class="cls-5" d="M149.56,31.35V27.74a1.55,1.55,0,0,1,.7,0v.37a1.39,1.39,0,0,1,1.09-.48,1,1,0,0,1,1.08,1.05v2.67a1.3,1.3,0,0,1-.35,0,1.14,1.14,0,0,1-.35,0V28.82c0-.41-.21-.62-.65-.62a1,1,0,0,0-.82.48v2.67a1.55,1.55,0,0,1-.7,0Z"/><path class="cls-5" d="M155.78,29v2.35a.85.85,0,0,1-.29,0,.82.82,0,0,1-.28,0l-.1-.47a1.13,1.13,0,0,1-1.11.58,1,1,0,0,1-1.08-1.16c0-.75.45-1.09,1.35-1.09a7.86,7.86,0,0,1,.81,0V29c0-.5-.22-.74-.74-.74a2.93,2.93,0,0,0-.94.17.52.52,0,0,1-.16-.21.65.65,0,0,1,0-.3,3.17,3.17,0,0,1,1.23-.25C155.46,27.63,155.78,28.09,155.78,29Zm-.7,1v-.26c-.16,0-.45,0-.72,0-.49,0-.73.18-.73.64s.23.64.61.64A.87.87,0,0,0,155.08,30Z"/><path class="cls-5" d="M159,31.11a.68.68,0,0,1-.05.28H156.3a.85.85,0,0,1-.05-.3.93.93,0,0,1,.05-.27l1.87-2.55h-1.75a.76.76,0,0,1,0-.29.68.68,0,0,1,0-.28h2.49a.85.85,0,0,1,0,.27,1.28,1.28,0,0,1,0,.3L157,30.82h1.88A.7.7,0,0,1,159,31.11Z"/><path class="cls-5" d="M162.18,29.76h-2.11c0,.83.38,1.11,1,1.11a1.6,1.6,0,0,0,.82-.21.72.72,0,0,1,.24.49l-.15.12c-.52.46-.77.95-.68,1.21a.22.22,0,0,0,.21.16.82.82,0,0,0,.28-.07.58.58,0,0,1,.18.4,1.11,1.11,0,0,1-.63.17.6.6,0,0,1-.66-.43c-.12-.4.16-.87.62-1.28a1.75,1.75,0,0,1-.35,0c-1,0-1.57-.64-1.57-1.92s.62-1.91,1.55-1.91A1.24,1.24,0,0,1,162.26,29,3.16,3.16,0,0,1,162.18,29.76Zm-2.12-.48h1.52a1.62,1.62,0,0,0,0-.33c0-.43-.19-.78-.7-.78S160.11,28.48,160.06,29.28Z"/><path class="cls-5" d="M165.87,29.55c0,1.43-.53,1.91-1.34,1.91a1.15,1.15,0,0,1-1-.47v.36a1.55,1.55,0,0,1-.7,0V26.18a1.55,1.55,0,0,1,.7,0v1.93a1.13,1.13,0,0,1,1-.48C165.34,27.63,165.87,28.11,165.87,29.55Zm-.74,0c0-1-.26-1.35-.84-1.35a.82.82,0,0,0-.78.89V30a.81.81,0,0,0,.78.9C164.87,30.89,165.13,30.57,165.13,29.55Z"/><path class="cls-5" d="M166.45,31.35V27.74a1.55,1.55,0,0,1,.7,0v.37a1.39,1.39,0,0,1,1.09-.48,1,1,0,0,1,1.08,1.05v2.67a1.3,1.3,0,0,1-.35,0,1.14,1.14,0,0,1-.35,0V28.82c0-.41-.21-.62-.65-.62a1,1,0,0,0-.82.48v2.67a1.55,1.55,0,0,1-.7,0Z"/><path class="cls-5" d="M172.71,29.76H170.6c.05.83.37,1.11,1,1.11a1.6,1.6,0,0,0,.82-.21.71.71,0,0,1,.23.49,2,2,0,0,1-1.18.31c-1.05,0-1.56-.64-1.56-1.92s.61-1.91,1.54-1.91A1.24,1.24,0,0,1,172.78,29,3.59,3.59,0,0,1,172.71,29.76Zm-2.12-.48h1.52a2.92,2.92,0,0,0,0-.33c0-.43-.19-.78-.7-.78S170.65,28.48,170.59,29.28Z"/><path class="cls-5" d="M172.52,33.06a.45.45,0,0,1,0-.16.67.67,0,0,1,.08-.35,1.83,1.83,0,0,0,.27,0c.34,0,.52-.17.52-.6V27.74a1.14,1.14,0,0,1,.35,0,1.22,1.22,0,0,1,.35,0V32c0,.75-.36,1.13-1,1.13A1.36,1.36,0,0,1,172.52,33.06Zm.81-6.12V26.3a1.42,1.42,0,0,1,.38,0,1.38,1.38,0,0,1,.37,0v.64a1.38,1.38,0,0,1-.37,0A1.42,1.42,0,0,1,173.33,26.94Z"/><path class="cls-5" d="M176.11,26.94v-.63a1.05,1.05,0,0,1,.37,0,1.16,1.16,0,0,1,.38,0v.63a1.42,1.42,0,0,1-.38,0A1.3,1.3,0,0,1,176.11,26.94Zm0,4.41V27.74a1.55,1.55,0,0,1,.7,0v3.61a1.14,1.14,0,0,1-.35,0A1.22,1.22,0,0,1,176.13,31.35Z"/><path class="cls-5" d="M178.74,29.54c0-1.38.6-1.91,1.57-1.91s1.56.53,1.56,1.91-.6,1.92-1.56,1.92S178.74,30.94,178.74,29.54Zm2.41,0c0-1.07-.32-1.37-.84-1.37s-.84.3-.84,1.37.32,1.38.84,1.38S181.15,30.61,181.15,29.54Z"/><path class="cls-5" d="M185.47,28.18h-.57a1.34,1.34,0,0,1,.19.71c0,.78-.48,1.26-1.39,1.26l-.31,0a.57.57,0,0,0-.15.42c.07.65,2.23-.05,2.23,1.4,0,.68-.66,1.2-1.82,1.2s-1.5-.4-1.5-1a1.18,1.18,0,0,1,.61-1,.55.55,0,0,1-.15-.42A1.18,1.18,0,0,1,183,30a1.13,1.13,0,0,1-.65-1.12c0-.77.49-1.25,1.39-1.25a1.71,1.71,0,0,1,.79.17l1-.16A.77.77,0,0,1,185.47,28.18Zm-2.32,3.2a.88.88,0,0,0-.33.64c0,.37.27.62.85.62s1.12-.25,1.12-.63C184.79,31.4,183.79,31.57,183.15,31.38Zm1.26-2.5c0-.53-.28-.77-.71-.77a.67.67,0,0,0-.71.77c0,.54.29.78.71.78S184.41,29.42,184.41,28.88Z"/><path class="cls-5" d="M185.91,31.35V27.74a1.14,1.14,0,0,1,.35,0,.92.92,0,0,1,.33,0v.51a1,1,0,0,1,.9-.61,1,1,0,0,1,.6.17.81.81,0,0,1-.3.58.7.7,0,0,0-.44-.14,1,1,0,0,0-.75.57v2.53a1.22,1.22,0,0,1-.35,0A1.14,1.14,0,0,1,185.91,31.35Z"/><path class="cls-5" d="M191.07,29v2.35a.85.85,0,0,1-.29,0,.93.93,0,0,1-.29,0l-.1-.47a1.1,1.1,0,0,1-1.1.58,1,1,0,0,1-1.09-1.16c0-.75.46-1.09,1.35-1.09.33,0,.63,0,.82,0V29c0-.5-.22-.74-.75-.74a3,3,0,0,0-.94.17.7.7,0,0,1-.15-.21.73.73,0,0,1-.05-.3,3.25,3.25,0,0,1,1.24-.25C190.74,27.63,191.07,28.09,191.07,29Zm-.7,1v-.26c-.17,0-.45,0-.72,0-.49,0-.73.18-.73.64s.23.64.6.64A.88.88,0,0,0,190.37,30Z"/><path class="cls-5" d="M191.78,31.35V27.74a1.14,1.14,0,0,1,.35,0,1.22,1.22,0,0,1,.35,0v.37a1.39,1.39,0,0,1,1.08-.48,1,1,0,0,1,1.08,1.05v2.67a1.22,1.22,0,0,1-.35,0,1.14,1.14,0,0,1-.35,0V28.82c0-.41-.21-.62-.65-.62a1,1,0,0,0-.81.48v2.67a1.22,1.22,0,0,1-.35,0A1.14,1.14,0,0,1,191.78,31.35Z"/><path class="cls-5" d="M195.35,26.94v-.63a1.05,1.05,0,0,1,.37,0,1.16,1.16,0,0,1,.38,0v.63a1.42,1.42,0,0,1-.38,0A1.3,1.3,0,0,1,195.35,26.94Zm0,4.41V27.74a1.06,1.06,0,0,1,.35,0,1.22,1.22,0,0,1,.35,0v3.61a1.22,1.22,0,0,1-.35,0A1.14,1.14,0,0,1,195.37,31.35Z"/><path class="cls-5" d="M196.67,29.55c0-1.26.53-1.92,1.56-1.92a2,2,0,0,1,.94.18.71.71,0,0,1-.22.51,1.4,1.4,0,0,0-.6-.12c-.67,0-.95.43-.95,1.35s.3,1.32,1,1.32a1.5,1.5,0,0,0,.64-.13.66.66,0,0,1,.21.5,1.87,1.87,0,0,1-1,.22C197.2,31.46,196.67,30.81,196.67,29.55Z"/><path class="cls-5" d="M202.17,31.11a.68.68,0,0,1,0,.28H199.5a.87.87,0,0,1,0-.3,1,1,0,0,1,0-.27l1.87-2.55h-1.75a.93.93,0,0,1,0-.29.82.82,0,0,1,0-.28h2.49a.85.85,0,0,1,0,.27,1.28,1.28,0,0,1,0,.3l-1.87,2.55h1.88A.7.7,0,0,1,202.17,31.11Z"/><path class="cls-5" d="M205.35,29v2.35a.85.85,0,0,1-.29,0,.93.93,0,0,1-.29,0l-.1-.47a1.1,1.1,0,0,1-1.1.58,1,1,0,0,1-1.09-1.16c0-.75.46-1.09,1.35-1.09.33,0,.63,0,.82,0V29c0-.5-.22-.74-.75-.74a2.91,2.91,0,0,0-.93.17.52.52,0,0,1-.16-.21.73.73,0,0,1-.05-.3,3.25,3.25,0,0,1,1.24-.25C205,27.63,205.35,28.09,205.35,29Zm-.7,1v-.26c-.17,0-.45,0-.72,0-.49,0-.73.18-.73.64s.23.64.6.64A.88.88,0,0,0,204.65,30Z"/><path class="cls-5" d="M207.15,31.21a.64.64,0,0,1,.18-.5,2.85,2.85,0,0,0,1,.17c.46,0,.73-.16.73-.52s-.41-.47-.83-.59-1-.36-1-1,.42-1.1,1.31-1.1a2.26,2.26,0,0,1,1,.19.66.66,0,0,1-.17.49,2.52,2.52,0,0,0-.76-.12c-.49,0-.73.18-.73.51s.43.44.87.58,1,.36,1,1.06-.44,1.12-1.36,1.12A2.86,2.86,0,0,1,207.15,31.21Z"/><path class="cls-5" d="M212.23,31.15a.67.67,0,0,1,0,.25,2.3,2.3,0,0,1-.54.06c-.87,0-1.18-.45-1.18-1.34V28.23h-.53a.63.63,0,0,1-.05-.26.55.55,0,0,1,.05-.27h.53V27a1.21,1.21,0,0,1,.7-.14v.81h.92a.9.9,0,0,1,0,.26,1.13,1.13,0,0,1,0,.27h-.92v1.86c0,.61.19.81.68.81a2,2,0,0,0,.32,0A.63.63,0,0,1,212.23,31.15Z"/><path class="cls-5" d="M215.24,29v2.35a.75.75,0,0,1-.28,0,.85.85,0,0,1-.29,0l-.1-.47a1.12,1.12,0,0,1-1.11.58,1,1,0,0,1-1.08-1.16c0-.75.45-1.09,1.35-1.09a7.86,7.86,0,0,1,.81,0V29c0-.5-.21-.74-.74-.74a2.93,2.93,0,0,0-.94.17.45.45,0,0,1-.15-.21.58.58,0,0,1-.05-.3,3.25,3.25,0,0,1,1.24-.25C214.92,27.63,215.24,28.09,215.24,29Zm-.7,1v-.26c-.16,0-.44,0-.71,0-.49,0-.74.18-.74.64s.23.64.61.64A.87.87,0,0,0,214.54,30Z"/><path class="cls-5" d="M216,31.35V27.74a1.14,1.14,0,0,1,.35,0,1.22,1.22,0,0,1,.35,0v.37a1.36,1.36,0,0,1,1.08-.48,1,1,0,0,1,1.08,1.05v2.67a1.3,1.3,0,0,1-.35,0,1.14,1.14,0,0,1-.35,0V28.82c0-.41-.21-.62-.65-.62a1,1,0,0,0-.81.48v2.67a1.22,1.22,0,0,1-.35,0A1.14,1.14,0,0,1,216,31.35Z"/><path class="cls-5" d="M223.31,31.11a.68.68,0,0,1-.05.28h-2.62a.87.87,0,0,1,0-.3,1,1,0,0,1,0-.27l1.87-2.55h-1.75a.93.93,0,0,1,0-.29.82.82,0,0,1,0-.28h2.49a.85.85,0,0,1,0,.27,1.28,1.28,0,0,1,0,.3l-1.87,2.55h1.88A.7.7,0,0,1,223.31,31.11Z"/><path class="cls-5" d="M226.49,29v2.35a.85.85,0,0,1-.29,0,.93.93,0,0,1-.29,0l-.1-.47a1.1,1.1,0,0,1-1.1.58,1,1,0,0,1-1.09-1.16c0-.75.46-1.09,1.35-1.09.33,0,.63,0,.82,0V29c0-.5-.22-.74-.75-.74a3,3,0,0,0-.94.17.7.7,0,0,1-.15-.21.73.73,0,0,1,0-.3,3.25,3.25,0,0,1,1.24-.25C226.16,27.63,226.49,28.09,226.49,29Zm-.7,1v-.26c-.17,0-.45,0-.72,0-.49,0-.73.18-.73.64s.23.64.6.64A.88.88,0,0,0,225.79,30Z"/><path class="cls-5" d="M230.25,29.54c0,1.44-.52,1.92-1.33,1.92a1.11,1.11,0,0,1-1-.48v2a1.55,1.55,0,0,1-.7,0V27.74a1.55,1.55,0,0,1,.7,0v.37a1.11,1.11,0,0,1,1-.48C229.72,27.63,230.25,28.11,230.25,29.54Zm-.73,0c0-1-.27-1.34-.84-1.34a.81.81,0,0,0-.78.88V30a.82.82,0,0,0,.78.91C229.25,30.89,229.52,30.58,229.52,29.54Z"/><path class="cls-5" d="M233.49,29v2.35a.85.85,0,0,1-.29,0,.93.93,0,0,1-.29,0l-.1-.47a1.1,1.1,0,0,1-1.1.58,1,1,0,0,1-1.09-1.16c0-.75.46-1.09,1.35-1.09.33,0,.63,0,.82,0V29c0-.5-.22-.74-.75-.74a3,3,0,0,0-.94.17.7.7,0,0,1-.15-.21.73.73,0,0,1,0-.3,3.25,3.25,0,0,1,1.24-.25C233.16,27.63,233.49,28.09,233.49,29Zm-.7,1v-.26c-.17,0-.45,0-.72,0-.49,0-.73.18-.73.64s.23.64.6.64A.88.88,0,0,0,232.79,30Z"/><path class="cls-5" d="M234.23,31.35V26.18a1.06,1.06,0,0,1,.35,0,1.22,1.22,0,0,1,.35,0v5.17a1.22,1.22,0,0,1-.35,0A1.06,1.06,0,0,1,234.23,31.35Z"/><path class="cls-5" d="M235.69,31.35V27.74a1.14,1.14,0,0,1,.35,0,1.22,1.22,0,0,1,.35,0v.37a1.39,1.39,0,0,1,1.08-.48,1,1,0,0,1,1.08,1.05v2.67a1.55,1.55,0,0,1-.7,0V28.82c0-.41-.21-.62-.65-.62a1,1,0,0,0-.81.48v2.67a1.22,1.22,0,0,1-.35,0A1.14,1.14,0,0,1,235.69,31.35Z"/><path class="cls-5" d="M242.34,27.74,241,32c-.23.74-.5,1.17-1.23,1.17a1.56,1.56,0,0,1-.46-.06.71.71,0,0,1,0-.27.61.61,0,0,1,.06-.27,1.94,1.94,0,0,0,.33,0c.33,0,.51-.11.71-.72l.15-.46a.54.54,0,0,1-.21-.05l-1.34-3.6a1.34,1.34,0,0,1,.36,0,1.3,1.3,0,0,1,.37,0l.81,2.14a5.06,5.06,0,0,1,.24.83h0s.07-.34.22-.83l.71-2.14a1.22,1.22,0,0,1,.35,0A1.18,1.18,0,0,1,242.34,27.74Z"/><path class="cls-5" d="M246.93,26.18v5.17a1.22,1.22,0,0,1-.62,0l-.05-.41a1.14,1.14,0,0,1-1,.52c-.81,0-1.33-.48-1.33-1.91s.52-1.92,1.33-1.92a1.1,1.1,0,0,1,1,.48V26.18a1.26,1.26,0,0,1,.36,0A1.22,1.22,0,0,1,246.93,26.18ZM246.22,30v-.93a.8.8,0,0,0-.77-.87c-.57,0-.84.32-.84,1.35s.27,1.34.84,1.34A.81.81,0,0,0,246.22,30Z"/><path class="cls-5" d="M250.14,31.11a.68.68,0,0,1,0,.28h-2.62a.87.87,0,0,1,0-.3,1,1,0,0,1,0-.27l1.87-2.55h-1.75a.93.93,0,0,1,0-.29.82.82,0,0,1,0-.28h2.49a.85.85,0,0,1,0,.27,1.28,1.28,0,0,1,0,.3l-1.87,2.55h1.88A.7.7,0,0,1,250.14,31.11Z"/><path class="cls-5" d="M250.67,26.94v-.63a1.05,1.05,0,0,1,.37,0,1.23,1.23,0,0,1,.38,0v.63a1.52,1.52,0,0,1-.38,0A1.3,1.3,0,0,1,250.67,26.94Zm0,4.41V27.74a1.06,1.06,0,0,1,.35,0,1.22,1.22,0,0,1,.35,0v3.61a1.22,1.22,0,0,1-.35,0A1.14,1.14,0,0,1,250.69,31.35Z"/><path class="cls-5" d="M254.79,33a1.09,1.09,0,0,1-.63.17c-.43,0-.68-.22-.68-.61a1.73,1.73,0,0,1,.74-1.19l-.11-.45a1.12,1.12,0,0,1-1.1.57,1,1,0,0,1-1.09-1.16c0-.75.46-1.09,1.35-1.09.33,0,.63,0,.82,0V29c0-.5-.22-.74-.75-.74a3,3,0,0,0-.94.17.7.7,0,0,1-.15-.21.73.73,0,0,1-.05-.3,3.25,3.25,0,0,1,1.24-.25c1,0,1.35.46,1.35,1.37v2.35a1.61,1.61,0,0,0-.68,1c0,.18.1.26.23.26a.89.89,0,0,0,.28-.07A.57.57,0,0,1,254.79,33Zm-.7-3v-.26c-.16,0-.45,0-.72,0-.49,0-.73.18-.73.64s.23.64.6.64A.88.88,0,0,0,254.09,30Z"/><path class="cls-5" d="M255.29,31.21a.61.61,0,0,1,.18-.5,2.85,2.85,0,0,0,1,.17c.46,0,.73-.16.73-.52s-.41-.47-.83-.59-1-.36-1-1,.43-1.1,1.32-1.1a2.26,2.26,0,0,1,1,.19.63.63,0,0,1-.18.49,2.39,2.39,0,0,0-.75-.12c-.49,0-.73.18-.73.51s.43.44.87.58,1,.36,1,1.06-.44,1.12-1.36,1.12A2.82,2.82,0,0,1,255.29,31.21Z"/><path class="cls-5" d="M261,29.76h-2.1c.05.83.37,1.11,1,1.11a1.6,1.6,0,0,0,.82-.21.71.71,0,0,1,.23.49,2,2,0,0,1-1.18.31c-1,0-1.57-.64-1.57-1.92s.62-1.91,1.55-1.91A1.24,1.24,0,0,1,261.12,29,3.16,3.16,0,0,1,261,29.76Zm-2.11-.48h1.52a2.92,2.92,0,0,0,0-.33c0-.43-.19-.78-.7-.78S259,28.48,258.93,29.28Z"/><path class="cls-5" d="M262.74,28.62v2.73a1.22,1.22,0,0,1-.35,0,1.14,1.14,0,0,1-.35,0V29l-.48.28a.57.57,0,0,1-.14-.17.37.37,0,0,1-.08-.21l.7-.41V26.18a1.14,1.14,0,0,1,.35,0,1.22,1.22,0,0,1,.35,0v1.93l.52-.29a.65.65,0,0,1,.13.17.39.39,0,0,1,.08.21Z"/><path class="cls-5" d="M263.56,27.76a4,4,0,0,1,.57-2,.28.28,0,0,1,.16,0,.29.29,0,0,1,.13.11,3.86,3.86,0,0,0,0,3.69.27.27,0,0,1-.13.12.43.43,0,0,1-.16,0A4,4,0,0,1,263.56,27.76Z"/><path class="cls-5" d="M266.28,28.7a.4.4,0,0,1,0,.18.48.48,0,0,1,0,.18h-1.66a1.4,1.4,0,0,1,0-.28c0-.63.41-.85.78-1.1s.56-.37.56-.68-.15-.42-.53-.42a2,2,0,0,0-.6.11.3.3,0,0,1-.11-.29,1.82,1.82,0,0,1,.77-.16c.51,0,.9.22.9.75s-.29.68-.77,1c-.25.15-.59.29-.59.64v.1Z"/><path class="cls-5" d="M266.67,29.72a.28.28,0,0,1-.12-.12,3.86,3.86,0,0,0,0-3.69.3.3,0,0,1,.12-.11.34.34,0,0,1,.18,0,4,4,0,0,1,.56,2,4.07,4.07,0,0,1-.56,2A.54.54,0,0,1,266.67,29.72Z"/></svg>