<svg id="Warstwa_1" data-name="Warstwa 1" xmlns="http://www.w3.org/2000/svg" viewBox="0 0 497.79 70"><defs><style>.cls-1{fill:#005ca5;}.cls-2{fill:none;stroke:#cbd413;stroke-miterlimit:10;stroke-width:1.85px;}</style></defs><title>antyseptyka_mozliwa</title><path class="cls-1" d="M60.56,30a3.59,3.59,0,0,1-1.08.13,3,3,0,0,1-1-.13l-.85-2.49H53.41L52.54,30a3.23,3.23,0,0,1-1,.13A3,3,0,0,1,50.6,30l3.74-10.9A5.14,5.14,0,0,1,55.59,19a4.85,4.85,0,0,1,1.24.13Zm-6.67-4h3.26L56,22.54A14.37,14.37,0,0,1,55.54,21h0a12,12,0,0,1-.39,1.56Z"/><path class="cls-1" d="M61.55,30v-8a2.79,2.79,0,0,1,1-.13,3,3,0,0,1,1,.13v.63a3,3,0,0,1,2.25-.9,2.17,2.17,0,0,1,2.37,2.33V30a3.41,3.41,0,0,1-1,.11,3.21,3.21,0,0,1-1-.11V24.52c0-.74-.37-1.16-1.23-1.16a1.8,1.8,0,0,0-1.44.78V30a3.46,3.46,0,0,1-1,.11A3.25,3.25,0,0,1,61.55,30Z"/><path class="cls-1" d="M74.59,29.49a2.13,2.13,0,0,1-.09.66,5.23,5.23,0,0,1-1.28.15c-2,0-2.79-1-2.79-3V23.38H69.28a2.42,2.42,0,0,1-.09-.7,2.36,2.36,0,0,1,.09-.73h1.15V20.51a3.65,3.65,0,0,1,1.95-.34V22h1.86a2,2,0,0,1,.11.71,2.3,2.3,0,0,1-.11.72H72.38v3.84c0,1.21.43,1.56,1.39,1.56a3.24,3.24,0,0,0,.67-.08A2,2,0,0,1,74.59,29.49Z"/><path class="cls-1" d="M82.79,22.06l-2.88,9.18C79.35,33,78.7,34,76.89,34a3.33,3.33,0,0,1-1.12-.17,1.94,1.94,0,0,1-.12-.7,2.15,2.15,0,0,1,.14-.76,2.94,2.94,0,0,0,.71.06c.79,0,1.18-.18,1.61-1.55l.26-.77a1.93,1.93,0,0,1-.6-.09l-2.85-8A4.21,4.21,0,0,1,76,22a3.45,3.45,0,0,1,1,.11L78.5,26.3a12.26,12.26,0,0,1,.51,2h.06a14.52,14.52,0,0,1,.46-2l1.35-4.24a3.3,3.3,0,0,1,1-.11A3.69,3.69,0,0,1,82.79,22.06Z"/><path class="cls-1" d="M83.42,29.71a2,2,0,0,1,.48-1.36,6.35,6.35,0,0,0,2.11.37c.94,0,1.41-.29,1.41-.91s-.85-.89-1.75-1.16-2.12-.78-2.12-2.31,1-2.53,3-2.53a5.45,5.45,0,0,1,2.37.45,1.8,1.8,0,0,1-.47,1.33,5.71,5.71,0,0,0-1.7-.24c-1,0-1.4.32-1.4.91s1,.79,1.92,1.12,2,.83,2,2.36-1,2.56-3.15,2.56A6.22,6.22,0,0,1,83.42,29.71Z"/><path class="cls-1" d="M96.79,26.65H92.33c.14,1.56.8,2,1.93,2A3.59,3.59,0,0,0,96,28.26a1.93,1.93,0,0,1,.62,1.34,4.55,4.55,0,0,1-2.66.7c-2.45,0-3.61-1.38-3.61-4.23s1.36-4.26,3.53-4.26A2.81,2.81,0,0,1,97,25,7.51,7.51,0,0,1,96.79,26.65Zm-4.46-1.27h2.8a6.13,6.13,0,0,0,0-.62c0-.83-.32-1.49-1.27-1.49S92.44,23.84,92.33,25.38Z"/><path class="cls-1" d="M105.37,26.06c0,3.16-1.16,4.24-2.91,4.24a2.49,2.49,0,0,1-2.12-.9v4.18a3.76,3.76,0,0,1-1,.11,3.34,3.34,0,0,1-1-.11V22.06a3.34,3.34,0,0,1,1-.11,3.76,3.76,0,0,1,1,.11v.65a2.47,2.47,0,0,1,2.13-.9C104.19,21.81,105.37,22.85,105.37,26.06Zm-2.05,0c0-2.13-.51-2.7-1.56-2.7s-1.41.74-1.42,1.67v2c0,.91.48,1.75,1.42,1.75S103.32,28.22,103.32,26.06Z"/><path class="cls-1" d="M111.58,29.49a2.13,2.13,0,0,1-.09.66,5.32,5.32,0,0,1-1.29.15c-2,0-2.79-1-2.79-3V23.38h-1.14a2.2,2.2,0,0,1-.1-.7,2.15,2.15,0,0,1,.1-.73h1.14V20.51a3.67,3.67,0,0,1,2-.34V22h1.85a2,2,0,0,1,.11.71,2.3,2.3,0,0,1-.11.72h-1.85v3.84c0,1.21.43,1.56,1.39,1.56a3.09,3.09,0,0,0,.66-.08A1.86,1.86,0,0,1,111.58,29.49Z"/><path class="cls-1" d="M119.77,22.06l-2.88,9.18c-.56,1.79-1.21,2.78-3,2.78a3.26,3.26,0,0,1-1.11-.17,1.81,1.81,0,0,1-.13-.7,2.15,2.15,0,0,1,.14-.76,3,3,0,0,0,.71.06c.79,0,1.18-.18,1.61-1.55l.27-.77a2,2,0,0,1-.61-.09l-2.85-8a4.21,4.21,0,0,1,1-.11,3.37,3.37,0,0,1,1,.11l1.55,4.24a11.09,11.09,0,0,1,.51,2h.06a15.72,15.72,0,0,1,.47-2l1.35-4.24a3.18,3.18,0,0,1,.94-.11A3.69,3.69,0,0,1,119.77,22.06Z"/><path class="cls-1" d="M127.7,30a4.49,4.49,0,0,1-1.1.12,4,4,0,0,1-1-.12l-2-3.46h-.74V30a4.38,4.38,0,0,1-2,0V18.61a5.17,5.17,0,0,1,1-.08,5.41,5.41,0,0,1,1,.08v6.55h.76l1.81-3.1a3.42,3.42,0,0,1,1-.11,4.1,4.1,0,0,1,1,.11l-2.12,3.69Z"/><path class="cls-1" d="M134.72,24.77V30a2.35,2.35,0,0,1-.81.11,2.61,2.61,0,0,1-.8-.11l-.25-.9a2.32,2.32,0,0,1-2.31,1.16c-1.5,0-2.4-.87-2.4-2.62s1-2.48,3-2.48c.6,0,1.16.07,1.58.1v-.45c0-.92-.41-1.43-1.46-1.43a6.26,6.26,0,0,0-2,.37,1.35,1.35,0,0,1-.44-.6,1.61,1.61,0,0,1-.12-.77,6.93,6.93,0,0,1,2.85-.61C133.9,21.81,134.72,22.77,134.72,24.77ZM132.77,27v-.51c-.34,0-.82-.08-1.29-.08-.88,0-1.36.36-1.36,1.24s.43,1.26,1.14,1.26C132.29,28.94,132.77,28.05,132.77,27Z"/><path class="cls-1" d="M137.89,33.8a2.46,2.46,0,0,1,0-.43,1.94,1.94,0,0,1,.21-1,2.67,2.67,0,0,0,.56.06c.65,0,1-.32,1-1.14V22.06a3.41,3.41,0,0,1,1-.11,3.55,3.55,0,0,1,1,.11v9.45a2.19,2.19,0,0,1-2.4,2.51A3.24,3.24,0,0,1,137.89,33.8Zm1.71-13.43V18.7a3.29,3.29,0,0,1,1-.11,3.67,3.67,0,0,1,1,.11v1.67a3.14,3.14,0,0,1-1,.13A2.82,2.82,0,0,1,139.6,20.37Z"/><path class="cls-1" d="M149.52,26.65h-4.46c.14,1.56.81,2,1.94,2a3.59,3.59,0,0,0,1.72-.41,2,2,0,0,1,.62,1.34,4.56,4.56,0,0,1-2.67.7c-2.44,0-3.6-1.38-3.6-4.23s1.36-4.26,3.53-4.26A2.82,2.82,0,0,1,149.7,25,7.12,7.12,0,0,1,149.52,26.65Zm-4.46-1.27h2.81c0-.19,0-.41,0-.62,0-.83-.33-1.49-1.27-1.49S145.17,23.84,145.06,25.38Z"/><path class="cls-1" d="M150.67,29.71a2,2,0,0,1,.48-1.36,6.35,6.35,0,0,0,2.11.37c.94,0,1.41-.29,1.41-.91s-.85-.89-1.75-1.16-2.12-.78-2.12-2.31,1-2.53,3-2.53a5.36,5.36,0,0,1,2.36.45,1.75,1.75,0,0,1-.46,1.33,5.77,5.77,0,0,0-1.7-.24c-1,0-1.4.32-1.4.91s1,.79,1.92,1.12,2,.83,2,2.36-1,2.56-3.15,2.56A6.22,6.22,0,0,1,150.67,29.71Z"/><path class="cls-1" d="M162.61,29.49a2.13,2.13,0,0,1-.09.66,5.32,5.32,0,0,1-1.29.15c-2,0-2.78-1-2.78-3V23.38H157.3a2.42,2.42,0,0,1-.09-.7,2.36,2.36,0,0,1,.09-.73h1.15V20.51a3.65,3.65,0,0,1,2-.34V22h1.86a2.23,2.23,0,0,1,.1.71,2.5,2.5,0,0,1-.1.72H160.4v3.84c0,1.21.43,1.56,1.39,1.56a3.24,3.24,0,0,0,.67-.08A2,2,0,0,1,162.61,29.49Z"/><path class="cls-1" d="M166.81,30v-8a2.75,2.75,0,0,1,1-.13,3.15,3.15,0,0,1,1,.13v.65a2.9,2.9,0,0,1,2.15-.92,2.07,2.07,0,0,1,2,1.09,3.13,3.13,0,0,1,2.47-1.09,2.14,2.14,0,0,1,2.3,2.34V30a3.68,3.68,0,0,1-1,.11,3.41,3.41,0,0,1-1-.11V24.52a1,1,0,0,0-1.14-1.16,1.6,1.6,0,0,0-1.36.78V30a3.68,3.68,0,0,1-1,.11,3.41,3.41,0,0,1-1-.11V24.52c0-.73-.32-1.16-1.13-1.16a1.68,1.68,0,0,0-1.36.76V30a3.68,3.68,0,0,1-1,.11A3.29,3.29,0,0,1,166.81,30Z"/><path class="cls-1" d="M179.12,26.06c0-3.09,1.38-4.25,3.59-4.25s3.6,1.16,3.6,4.25-1.38,4.24-3.6,4.24S179.12,29.12,179.12,26.06Zm5.16,0c0-2.17-.59-2.75-1.57-2.75s-1.57.58-1.57,2.75.58,2.75,1.57,2.75S184.28,28.22,184.28,26.06Z"/><path class="cls-1" d="M193.51,29.37a2.29,2.29,0,0,1-.12.78h-5.95a2.65,2.65,0,0,1-.11-.81,2.29,2.29,0,0,1,.11-.76l3.87-5.06h-3.65a2.58,2.58,0,0,1-.11-.79,2.55,2.55,0,0,1,.11-.78h5.74a2.72,2.72,0,0,1,.1.75,3.54,3.54,0,0,1-.1.82l-3.87,5.06h3.86A2.18,2.18,0,0,1,193.51,29.37Zm-3-8.53a3.09,3.09,0,0,1-.91-.1V19.07a3.42,3.42,0,0,1,.91-.09,3.66,3.66,0,0,1,.9.09v1.67A3.31,3.31,0,0,1,190.55,20.84Z"/><path class="cls-1" d="M195,30V18.64a3.21,3.21,0,0,1,1-.11,3.5,3.5,0,0,1,1,.11V30a3.5,3.5,0,0,1-1,.11A3.21,3.21,0,0,1,195,30Z"/><path class="cls-1" d="M198.79,20.37V18.7a3.37,3.37,0,0,1,1-.11,3.72,3.72,0,0,1,1,.11v1.67a3.72,3.72,0,0,1-1,.11A3.53,3.53,0,0,1,198.79,20.37Zm0,9.67v-8a3.17,3.17,0,0,1,1-.11,3.55,3.55,0,0,1,1,.11v8a3.55,3.55,0,0,1-1,.11A3.17,3.17,0,0,1,198.82,30Z"/><path class="cls-1" d="M204.09,30l-2.2-8a3.6,3.6,0,0,1,1-.11,2,2,0,0,1,.85.11l1.22,4.24a14.09,14.09,0,0,1,.36,2h.05a11.74,11.74,0,0,1,.37-2l1.16-4.23a4.85,4.85,0,0,1,1-.11,3.6,3.6,0,0,1,1,.11L210,26.29a16.81,16.81,0,0,1,.34,2h0a11.84,11.84,0,0,1,.39-2L212,22.06a2.78,2.78,0,0,1,.85-.11,2.21,2.21,0,0,1,.83.11l-2.16,8a6.07,6.07,0,0,1-2.3,0l-1-3.64a13.57,13.57,0,0,1-.38-2.57h-.07a12.09,12.09,0,0,1-.4,2.57l-1,3.64a5.65,5.65,0,0,1-1.11.11A6.15,6.15,0,0,1,204.09,30Z"/><path class="cls-1" d="M220.91,33.63a2.91,2.91,0,0,1-1.52.39,1.36,1.36,0,0,1-1.56-1.44,3.62,3.62,0,0,1,1.5-2.51l-.31-.93a2.34,2.34,0,0,1-2.31,1.16c-1.5,0-2.4-.87-2.4-2.62s1-2.48,3-2.48c.6,0,1.19.07,1.58.1v-.45c0-.92-.41-1.43-1.46-1.43a6.26,6.26,0,0,0-2,.37,1.35,1.35,0,0,1-.44-.6,1.61,1.61,0,0,1-.12-.77,6.93,6.93,0,0,1,2.85-.61c2.28,0,3.1,1,3.1,3V30a3.44,3.44,0,0,0-1.35,2.13c0,.34.19.52.45.52a1.23,1.23,0,0,0,.51-.14A2,2,0,0,1,220.91,33.63Zm-2-6.6v-.51c-.33,0-.81-.08-1.29-.08-.88,0-1.36.36-1.36,1.24s.43,1.26,1.14,1.26C218.45,28.94,218.93,28.05,218.93,27Z"/><path class="cls-1" d="M231.83,24.77V30a2.35,2.35,0,0,1-.81.11,2.61,2.61,0,0,1-.8-.11l-.25-.9a2.32,2.32,0,0,1-2.31,1.16c-1.5,0-2.4-.87-2.4-2.62s1-2.48,3-2.48c.6,0,1.16.07,1.58.1v-.45c0-.92-.41-1.43-1.46-1.43a6.26,6.26,0,0,0-2,.37,1.29,1.29,0,0,1-.43-.6,1.55,1.55,0,0,1-.13-.77,6.93,6.93,0,0,1,2.85-.61C231,21.81,231.83,22.77,231.83,24.77Zm-2,2.26v-.51c-.34,0-.82-.08-1.29-.08-.88,0-1.36.36-1.36,1.24s.43,1.26,1.14,1.26C229.4,28.94,229.88,28.05,229.88,27Z"/><path class="cls-1" d="M233.63,30V18.64a3.13,3.13,0,0,1,1-.11,3.5,3.5,0,0,1,1,.11V30a3.5,3.5,0,0,1-1,.11A3.13,3.13,0,0,1,233.63,30Z"/><path class="cls-1" d="M242.13,29.49a1.93,1.93,0,0,1-.1.66,5.23,5.23,0,0,1-1.28.15c-2,0-2.79-1-2.79-3V23.38h-1.14a2.2,2.2,0,0,1-.1-.7,2.15,2.15,0,0,1,.1-.73H238V20.51a3.65,3.65,0,0,1,1.95-.34V22h1.86a2,2,0,0,1,.11.71,2.3,2.3,0,0,1-.11.72h-1.86v3.84c0,1.21.44,1.56,1.4,1.56a3.09,3.09,0,0,0,.66-.08A1.86,1.86,0,0,1,242.13,29.49Z"/><path class="cls-1" d="M249.34,26.65h-4.46c.14,1.56.81,2,1.94,2a3.59,3.59,0,0,0,1.72-.41,2,2,0,0,1,.62,1.34,4.56,4.56,0,0,1-2.67.7c-2.44,0-3.6-1.38-3.6-4.23s1.36-4.26,3.53-4.26A2.81,2.81,0,0,1,249.51,25,7.51,7.51,0,0,1,249.34,26.65Zm-4.46-1.27h2.81c0-.19,0-.41,0-.62,0-.83-.33-1.49-1.27-1.49S245,23.84,244.88,25.38Z"/><path class="cls-1" d="M250.92,30v-8a3.41,3.41,0,0,1,1-.11,2.28,2.28,0,0,1,.87.11l0,1a2.24,2.24,0,0,1,1.89-1.23,2.44,2.44,0,0,1,1.37.42,2.22,2.22,0,0,1-.84,1.58,1.49,1.49,0,0,0-.9-.31,1.83,1.83,0,0,0-1.45,1V30a3.68,3.68,0,0,1-1,.11A3.41,3.41,0,0,1,250.92,30Z"/><path class="cls-1" d="M257,30v-8a2.79,2.79,0,0,1,1-.13,3,3,0,0,1,1,.13v.63a3,3,0,0,1,2.25-.9,2.17,2.17,0,0,1,2.37,2.33V30a3.41,3.41,0,0,1-1,.11,3.25,3.25,0,0,1-1-.11V24.52c0-.74-.37-1.16-1.22-1.16a1.8,1.8,0,0,0-1.44.78V30a3.46,3.46,0,0,1-1,.11A3.25,3.25,0,0,1,257,30Z"/><path class="cls-1" d="M271.4,24.77V30a2.28,2.28,0,0,1-.81.11,2.61,2.61,0,0,1-.8-.11l-.25-.9a2.32,2.32,0,0,1-2.31,1.16c-1.5,0-2.4-.87-2.4-2.62s1-2.48,3-2.48c.6,0,1.16.07,1.58.1v-.45c0-.92-.4-1.43-1.46-1.43a6.26,6.26,0,0,0-2,.37,1.38,1.38,0,0,1-.43-.6,1.69,1.69,0,0,1-.13-.77,6.93,6.93,0,0,1,2.85-.61C270.58,21.81,271.4,22.77,271.4,24.77ZM269.45,27v-.51c-.34,0-.82-.08-1.29-.08-.88,0-1.36.36-1.36,1.24s.43,1.26,1.15,1.26C269,28.94,269.45,28.05,269.45,27Z"/><path class="cls-1" d="M277.86,29.49a1.93,1.93,0,0,1-.1.66,5.23,5.23,0,0,1-1.28.15c-2,0-2.79-1-2.79-3V23.38h-1.14a2.2,2.2,0,0,1-.1-.7,2.15,2.15,0,0,1,.1-.73h1.14V20.51a3.65,3.65,0,0,1,1.95-.34V22h1.86a2,2,0,0,1,.11.71,2.3,2.3,0,0,1-.11.72h-1.86v3.84c0,1.21.44,1.56,1.4,1.56a3.09,3.09,0,0,0,.66-.08A1.86,1.86,0,0,1,277.86,29.49Z"/><path class="cls-1" d="M286.05,22.06l-2.88,9.18C282.61,33,282,34,280.15,34a3.33,3.33,0,0,1-1.12-.17,1.94,1.94,0,0,1-.12-.7,2.15,2.15,0,0,1,.14-.76,3,3,0,0,0,.71.06c.79,0,1.18-.18,1.61-1.55l.27-.77A2,2,0,0,1,281,30l-2.85-8a4.21,4.21,0,0,1,1-.11,3.37,3.37,0,0,1,1,.11l1.55,4.24a11.09,11.09,0,0,1,.51,2h.06a15.72,15.72,0,0,1,.47-2l1.35-4.24a3.18,3.18,0,0,1,.94-.11A3.69,3.69,0,0,1,286.05,22.06Z"/><path class="cls-1" d="M288.62,30l-2.2-8a3.6,3.6,0,0,1,1-.11,2,2,0,0,1,.85.11l1.23,4.24a15.42,15.42,0,0,1,.35,2h.05a11.74,11.74,0,0,1,.37-2l1.16-4.23a4.85,4.85,0,0,1,1-.11,3.51,3.51,0,0,1,1,.11l1.15,4.23a15,15,0,0,1,.34,2h0a11.84,11.84,0,0,1,.39-2l1.21-4.23a2.78,2.78,0,0,1,.85-.11,2.31,2.31,0,0,1,.84.11L296,30a5.91,5.91,0,0,1-1.15.11,5.8,5.8,0,0,1-1.14-.11l-1-3.64a12.94,12.94,0,0,1-.39-2.57h-.06a12.78,12.78,0,0,1-.4,2.57l-1,3.64a5.57,5.57,0,0,1-1.11.11A6.23,6.23,0,0,1,288.62,30Z"/><path class="cls-1" d="M305.44,33.63a2.89,2.89,0,0,1-1.52.39,1.37,1.37,0,0,1-1.56-1.44,3.62,3.62,0,0,1,1.5-2.51l-.31-.93a2.33,2.33,0,0,1-2.3,1.16c-1.51,0-2.41-.87-2.41-2.62s1-2.48,3-2.48c.6,0,1.19.07,1.58.1v-.45c0-.92-.4-1.43-1.46-1.43a6.26,6.26,0,0,0-2,.37,1.47,1.47,0,0,1-.43-.6,1.69,1.69,0,0,1-.13-.77,6.93,6.93,0,0,1,2.85-.61c2.28,0,3.1,1,3.1,3V30a3.44,3.44,0,0,0-1.35,2.13c0,.34.19.52.45.52a1.16,1.16,0,0,0,.51-.14A1.83,1.83,0,0,1,305.44,33.63Zm-2-6.6v-.51c-.33,0-.81-.08-1.29-.08-.88,0-1.36.36-1.36,1.24s.44,1.26,1.15,1.26C303,28.94,303.46,28.05,303.46,27Z"/><path class="cls-1" d="M316.36,24.77V30a2.25,2.25,0,0,1-.8.11,2.65,2.65,0,0,1-.81-.11l-.25-.9a2.32,2.32,0,0,1-2.3,1.16c-1.51,0-2.4-.87-2.4-2.62s1-2.48,3-2.48c.6,0,1.16.07,1.58.1v-.45c0-.92-.4-1.43-1.46-1.43a6.26,6.26,0,0,0-2,.37,1.47,1.47,0,0,1-.43-.6,1.69,1.69,0,0,1-.13-.77,6.93,6.93,0,0,1,2.85-.61C315.54,21.81,316.36,22.77,316.36,24.77ZM314.41,27v-.51c-.34,0-.82-.08-1.29-.08-.88,0-1.36.36-1.36,1.24s.44,1.26,1.15,1.26C313.93,28.94,314.41,28.05,314.41,27Z"/><path class="cls-1" d="M318.11,30v-8a2.79,2.79,0,0,1,1-.13,3,3,0,0,1,1,.13v.63a3,3,0,0,1,2.25-.9,2.17,2.17,0,0,1,2.37,2.33V30a3.41,3.41,0,0,1-1,.11,3.21,3.21,0,0,1-1-.11V24.52c0-.74-.37-1.16-1.23-1.16a1.8,1.8,0,0,0-1.44.78V30a3.46,3.46,0,0,1-1,.11A3.25,3.25,0,0,1,318.11,30Z"/><path class="cls-1" d="M331.15,29.49a2.13,2.13,0,0,1-.09.66,5.32,5.32,0,0,1-1.29.15c-2,0-2.78-1-2.78-3V23.38h-1.15a2.42,2.42,0,0,1-.09-.7,2.36,2.36,0,0,1,.09-.73H327V20.51a3.65,3.65,0,0,1,1.95-.34V22h1.86a2.23,2.23,0,0,1,.1.71,2.5,2.5,0,0,1-.1.72h-1.86v3.84c0,1.21.43,1.56,1.39,1.56a3.24,3.24,0,0,0,.67-.08A2,2,0,0,1,331.15,29.49Z"/><path class="cls-1" d="M339.34,22.06l-2.88,9.18c-.55,1.79-1.2,2.78-3,2.78a3.3,3.3,0,0,1-1.11-.17,1.81,1.81,0,0,1-.13-.7,2.15,2.15,0,0,1,.14-.76,3.07,3.07,0,0,0,.72.06c.79,0,1.17-.18,1.61-1.55l.26-.77a1.89,1.89,0,0,1-.6-.09l-2.85-8a4.07,4.07,0,0,1,1-.11,3.49,3.49,0,0,1,1,.11l1.54,4.24a11.76,11.76,0,0,1,.52,2h.06a14.52,14.52,0,0,1,.46-2l1.35-4.24a3.18,3.18,0,0,1,.94-.11A3.69,3.69,0,0,1,339.34,22.06Z"/><path class="cls-1" d="M347.4,26.06c0,3.17-1.16,4.24-2.91,4.24a2.51,2.51,0,0,1-2.13-.9V30a3.63,3.63,0,0,1-1,.11,3.34,3.34,0,0,1-1-.11V18.64a3.34,3.34,0,0,1,1-.11,3.63,3.63,0,0,1,1,.11v4.07a2.51,2.51,0,0,1,2.13-.9C346.24,21.81,347.4,22.88,347.4,26.06Zm-2,0c0-2.13-.49-2.7-1.56-2.7-.88,0-1.41.74-1.43,1.7v2a1.51,1.51,0,0,0,1.43,1.7C344.86,28.75,345.35,28.18,345.35,26.06Z"/><path class="cls-1" d="M348.9,20.37V18.7a3.37,3.37,0,0,1,1-.11,3.72,3.72,0,0,1,1,.11v1.67a3.72,3.72,0,0,1-1,.11A3.53,3.53,0,0,1,348.9,20.37Zm0,9.67v-8a3.17,3.17,0,0,1,1-.11,3.55,3.55,0,0,1,1,.11v8a3.55,3.55,0,0,1-1,.11A3.17,3.17,0,0,1,348.93,30Z"/><path class="cls-1" d="M352.39,26.06c0-3.09,1.37-4.25,3.59-4.25s3.59,1.16,3.59,4.25S358.19,30.3,356,30.3,352.39,29.12,352.39,26.06Zm5.15,0c0-2.17-.59-2.75-1.56-2.75s-1.58.58-1.58,2.75.59,2.75,1.58,2.75S357.54,28.22,357.54,26.06Z"/><path class="cls-1" d="M365.75,29.49a2.13,2.13,0,0,1-.09.66,5.32,5.32,0,0,1-1.29.15c-2,0-2.78-1-2.78-3V23.38h-1.15a2.42,2.42,0,0,1-.09-.7,2.36,2.36,0,0,1,.09-.73h1.15V20.51a3.65,3.65,0,0,1,2-.34V22h1.86a2,2,0,0,1,.11.71,2.3,2.3,0,0,1-.11.72h-1.86v3.84c0,1.21.43,1.56,1.39,1.56a3.24,3.24,0,0,0,.67-.08A2,2,0,0,1,365.75,29.49Z"/><path class="cls-1" d="M374,22.06l-2.89,9.18c-.55,1.79-1.2,2.78-3,2.78a3.3,3.3,0,0,1-1.11-.17,1.81,1.81,0,0,1-.13-.7,2.15,2.15,0,0,1,.14-.76,3.07,3.07,0,0,0,.72.06c.79,0,1.17-.18,1.61-1.55l.26-.77a1.89,1.89,0,0,1-.6-.09l-2.85-8a4.11,4.11,0,0,1,1-.11,3.45,3.45,0,0,1,1,.11l1.55,4.24a12.26,12.26,0,0,1,.51,2h.06a14.52,14.52,0,0,1,.46-2L372,22.06A3.26,3.26,0,0,1,373,22,3.83,3.83,0,0,1,374,22.06Z"/><path class="cls-1" d="M381.88,30a4.59,4.59,0,0,1-1.1.12,4.14,4.14,0,0,1-1.06-.12l-2-3.46H377V30a3.51,3.51,0,0,1-1,.11,3.72,3.72,0,0,1-1-.11V18.61a5.17,5.17,0,0,1,1-.08,5.41,5.41,0,0,1,1,.08v6.55h.76l1.81-3.1a3.42,3.42,0,0,1,1-.11,4.1,4.1,0,0,1,1,.11l-2.12,3.69Z"/><path class="cls-1" d="M382.49,26.06c0-3.09,1.38-4.25,3.6-4.25s3.59,1.16,3.59,4.25-1.38,4.24-3.59,4.24S382.49,29.12,382.49,26.06Zm5.16,0c0-2.17-.59-2.75-1.56-2.75s-1.58.58-1.58,2.75.59,2.75,1.58,2.75S387.65,28.22,387.65,26.06Z"/><path class="cls-1" d="M395.86,29.49a2.13,2.13,0,0,1-.09.66,5.32,5.32,0,0,1-1.29.15c-2,0-2.79-1-2.79-3V23.38h-1.14a2.42,2.42,0,0,1-.09-.7,2.36,2.36,0,0,1,.09-.73h1.14V20.51a3.69,3.69,0,0,1,2-.34V22h1.86a2.23,2.23,0,0,1,.1.71,2.5,2.5,0,0,1-.1.72h-1.86v3.84c0,1.21.43,1.56,1.39,1.56a3.24,3.24,0,0,0,.67-.08A2,2,0,0,1,395.86,29.49Z"/><path class="cls-1" d="M403.08,26.65h-4.46c.14,1.56.8,2,1.93,2a3.59,3.59,0,0,0,1.72-.41,1.93,1.93,0,0,1,.62,1.34,4.55,4.55,0,0,1-2.66.7c-2.45,0-3.61-1.38-3.61-4.23s1.36-4.26,3.53-4.26a2.81,2.81,0,0,1,3.1,3.16A7.51,7.51,0,0,1,403.08,26.65Zm-4.46-1.27h2.8a6.13,6.13,0,0,0,0-.62c0-.83-.32-1.49-1.27-1.49S398.73,23.84,398.62,25.38Z"/><path class="cls-1" d="M404.66,30v-8a3.29,3.29,0,0,1,1-.11,2.28,2.28,0,0,1,.87.11l.05,1a2.22,2.22,0,0,1,1.89-1.23,2.44,2.44,0,0,1,1.36.42,2.19,2.19,0,0,1-.84,1.58,1.47,1.47,0,0,0-.9-.31,1.85,1.85,0,0,0-1.45,1V30a3.68,3.68,0,0,1-1,.11A3.29,3.29,0,0,1,404.66,30Z"/><path class="cls-1" d="M416.8,24.77V30a2.28,2.28,0,0,1-.81.11,2.61,2.61,0,0,1-.8-.11l-.25-.9a2.32,2.32,0,0,1-2.31,1.16c-1.5,0-2.4-.87-2.4-2.62s1-2.48,3-2.48c.6,0,1.16.07,1.58.1v-.45c0-.92-.4-1.43-1.46-1.43a6.26,6.26,0,0,0-2,.37,1.38,1.38,0,0,1-.43-.6,1.69,1.69,0,0,1-.13-.77,6.93,6.93,0,0,1,2.85-.61C416,21.81,416.8,22.77,416.8,24.77ZM414.85,27v-.51c-.34,0-.82-.08-1.29-.08-.88,0-1.36.36-1.36,1.24s.43,1.26,1.15,1.26C414.37,28.94,414.85,28.05,414.85,27Z"/><path class="cls-1" d="M425.55,26.06c0,3.16-1.16,4.24-2.91,4.24a2.5,2.5,0,0,1-2.12-.9v4.18a3.72,3.72,0,0,1-1,.11,3.25,3.25,0,0,1-1-.11V22.06a3.25,3.25,0,0,1,1-.11,3.72,3.72,0,0,1,1,.11v.65a2.48,2.48,0,0,1,2.13-.9C424.37,21.81,425.55,22.85,425.55,26.06Zm-2,0c0-2.13-.51-2.7-1.57-2.7-.9,0-1.41.74-1.42,1.67v2c0,.91.48,1.75,1.42,1.75S423.51,28.22,423.51,26.06Z"/><path class="cls-1" d="M427.05,20.37V18.7a3.37,3.37,0,0,1,1-.11,3.72,3.72,0,0,1,1,.11v1.67a3.72,3.72,0,0,1-1,.11A3.53,3.53,0,0,1,427.05,20.37Zm0,9.67v-8a3.17,3.17,0,0,1,1-.11,3.68,3.68,0,0,1,1,.11v8a3.68,3.68,0,0,1-1,.11A3.17,3.17,0,0,1,427.08,30Z"/><path class="cls-1" d="M430.85,20.37V18.7a3.33,3.33,0,0,1,1-.11,3.76,3.76,0,0,1,1,.11v1.67a3.76,3.76,0,0,1-1,.11A3.41,3.41,0,0,1,430.85,20.37Zm0,9.67v-8a3.05,3.05,0,0,1,1-.11,3.68,3.68,0,0,1,1,.11v8a3.68,3.68,0,0,1-1,.11A3.05,3.05,0,0,1,430.88,30Z"/><path class="cls-1" d="M52.91,48.62l-2.2-8a3.6,3.6,0,0,1,1-.11,2,2,0,0,1,.85.11l1.23,4.24a15.13,15.13,0,0,1,.35,2h0a11.74,11.74,0,0,1,.37-2l1.16-4.23a4.85,4.85,0,0,1,1-.11,3.6,3.6,0,0,1,1,.11l1.15,4.23a15,15,0,0,1,.34,2h0a11.65,11.65,0,0,1,.39-2l1.21-4.23a2.78,2.78,0,0,1,.85-.11,2.31,2.31,0,0,1,.84.11l-2.17,8a5.22,5.22,0,0,1-1.15.11A5.07,5.07,0,0,1,58,48.62l-1-3.64a12.84,12.84,0,0,1-.39-2.57H56.6A12.12,12.12,0,0,1,56.19,45l-1,3.64a5,5,0,0,1-1.11.11A5.5,5.5,0,0,1,52.91,48.62Z"/><path class="cls-1" d="M69.75,45.23H65.29c.13,1.57.8,2,1.93,2a3.53,3.53,0,0,0,1.72-.42,2,2,0,0,1,.62,1.35,4.55,4.55,0,0,1-2.66.7c-2.45,0-3.61-1.38-3.61-4.23s1.36-4.26,3.53-4.26a2.81,2.81,0,0,1,3.1,3.16A7.36,7.36,0,0,1,69.75,45.23ZM65.29,44h2.8c0-.18,0-.4,0-.62,0-.82-.33-1.49-1.27-1.49S65.39,42.43,65.29,44Z"/><path class="cls-1" d="M75.94,48.62l-2.2-8a3.6,3.6,0,0,1,1-.11,2,2,0,0,1,.85.11l1.23,4.24a15.13,15.13,0,0,1,.35,2h.05a11.74,11.74,0,0,1,.37-2l1.16-4.23a4.85,4.85,0,0,1,1-.11,3.6,3.6,0,0,1,1,.11l1.15,4.23a15,15,0,0,1,.34,2h0a11.65,11.65,0,0,1,.39-2l1.21-4.23a2.78,2.78,0,0,1,.85-.11,2.31,2.31,0,0,1,.84.11l-2.17,8a5.22,5.22,0,0,1-1.15.11,5.13,5.13,0,0,1-1.14-.11l-1-3.64a12.84,12.84,0,0,1-.39-2.57h-.06A12.12,12.12,0,0,1,79.22,45l-1,3.64a4.92,4.92,0,0,1-1.11.11A5.5,5.5,0,0,1,75.94,48.62Z"/><path class="cls-1" d="M86.21,48.3a2,2,0,0,1,.48-1.37,6.13,6.13,0,0,0,2.11.38c.94,0,1.41-.3,1.41-.92s-.86-.88-1.75-1.16-2.13-.77-2.13-2.31,1-2.52,3-2.52a5.42,5.42,0,0,1,2.37.45,1.77,1.77,0,0,1-.46,1.33,5.71,5.71,0,0,0-1.7-.25c-1,0-1.4.33-1.4.92s1,.79,1.92,1.11,2,.84,2,2.37-1,2.56-3.15,2.56A6.22,6.22,0,0,1,86.21,48.3Z"/><path class="cls-1" d="M100.44,44.64c0,3.16-1.16,4.25-2.91,4.25a2.5,2.5,0,0,1-2.12-.9v4.18a3.72,3.72,0,0,1-1,.11,3.25,3.25,0,0,1-1-.11V40.65a3.25,3.25,0,0,1,1-.11,3.72,3.72,0,0,1,1,.11v.65a2.49,2.49,0,0,1,2.14-.9C99.27,40.4,100.44,41.44,100.44,44.64Zm-2,0c0-2.12-.51-2.69-1.57-2.69a1.5,1.5,0,0,0-1.42,1.67v2c0,.91.48,1.75,1.42,1.75S98.4,46.81,98.4,44.64Z"/><path class="cls-1" d="M101.64,44.64c0-3.08,1.37-4.24,3.59-4.24s3.59,1.16,3.59,4.24-1.38,4.25-3.59,4.25S101.64,47.71,101.64,44.64Zm5.15,0c0-2.17-.59-2.74-1.56-2.74s-1.58.57-1.58,2.74.59,2.76,1.58,2.76S106.79,46.81,106.79,44.64Z"/><path class="cls-1" d="M110.29,48.62v-8a3,3,0,0,1,1-.12,3.39,3.39,0,0,1,1,.12v.65a2.91,2.91,0,0,1,2.15-.91,2,2,0,0,1,2,1.08,3.19,3.19,0,0,1,2.48-1.08,2.13,2.13,0,0,1,2.29,2.34v5.88a3.59,3.59,0,0,1-1,.11,3.29,3.29,0,0,1-1-.11V43.11A1,1,0,0,0,118.05,42a1.63,1.63,0,0,0-1.36.77v5.9a3.68,3.68,0,0,1-1,.11,3.29,3.29,0,0,1-1-.11V43.11A1,1,0,0,0,113.61,42a1.65,1.65,0,0,0-1.36.76v5.91a3.68,3.68,0,0,1-1,.11A3.41,3.41,0,0,1,110.29,48.62Z"/><path class="cls-1" d="M129,43.36v5.26a2.25,2.25,0,0,1-.8.11,2.65,2.65,0,0,1-.81-.11l-.24-.9a2.33,2.33,0,0,1-2.31,1.17c-1.5,0-2.4-.87-2.4-2.62s1-2.48,3-2.48c.61,0,1.16.06,1.58.09v-.45c0-.91-.4-1.42-1.45-1.42a6.28,6.28,0,0,0-2,.37,1.47,1.47,0,0,1-.43-.6,1.64,1.64,0,0,1-.12-.78,7,7,0,0,1,2.85-.6C128.18,40.4,129,41.36,129,43.36Zm-2,2.26v-.51c-.34,0-.82-.08-1.28-.08-.89,0-1.37.36-1.37,1.24s.44,1.25,1.15,1.25C126.57,47.52,127.05,46.64,127.05,45.62Z"/><path class="cls-1" d="M137.69,49.85c0,1.62-1.53,2.75-4.15,2.75-2.38,0-3.45-.83-3.45-2.13a2.53,2.53,0,0,1,1.36-2.09,1.26,1.26,0,0,1-.34-.93,2.56,2.56,0,0,1,.82-1.74,2.5,2.5,0,0,1-1.47-2.49c0-1.74,1.1-2.82,3.19-2.82a4,4,0,0,1,1.83.39l2.2-.39a2.24,2.24,0,0,1,0,1.49l-1.16-.1a3,3,0,0,1,.32,1.43c0,1.75-1.08,2.82-3.19,2.82-.2,0-.4,0-.59,0a1.17,1.17,0,0,0-.22.79C133.05,48.08,137.69,46.64,137.69,49.85Zm-1.87.24c0-1.08-2-.83-3.38-1.19a1.61,1.61,0,0,0-.52,1.18c0,.7.49,1.19,1.67,1.19C135.06,51.27,135.82,50.79,135.82,50.09Zm-3.47-6.87c0,1.08.51,1.55,1.3,1.55s1.3-.47,1.3-1.55-.51-1.55-1.3-1.55S132.35,42.13,132.35,43.22Z"/><path class="cls-1" d="M145,43.36v5.26a2.35,2.35,0,0,1-.81.11,2.61,2.61,0,0,1-.8-.11l-.25-.9a2.31,2.31,0,0,1-2.31,1.17c-1.5,0-2.4-.87-2.4-2.62s1-2.48,3-2.48c.6,0,1.16.06,1.58.09v-.45c0-.91-.41-1.42-1.46-1.42a6.26,6.26,0,0,0-2,.37,1.35,1.35,0,0,1-.44-.6,1.64,1.64,0,0,1-.12-.78,7,7,0,0,1,2.85-.6C144.2,40.4,145,41.36,145,43.36Zm-2,2.26v-.51c-.34,0-.82-.08-1.29-.08-.88,0-1.36.36-1.36,1.24s.43,1.25,1.14,1.25C142.59,47.52,143.07,46.64,143.07,45.62Z"/><path class="cls-1" d="M146.77,48.62v-8a3,3,0,0,1,1-.12,3.23,3.23,0,0,1,1,.12v.64a3,3,0,0,1,2.25-.9,2.16,2.16,0,0,1,2.37,2.32v5.9a3.41,3.41,0,0,1-1,.11,3.25,3.25,0,0,1-1-.11V43.11c0-.74-.37-1.16-1.22-1.16a1.81,1.81,0,0,0-1.44.77v5.9a3.5,3.5,0,0,1-1,.11A3.21,3.21,0,0,1,146.77,48.62Z"/><path class="cls-1" d="M155.1,39V37.29a3.37,3.37,0,0,1,1-.11,3.72,3.72,0,0,1,1,.11V39a3.72,3.72,0,0,1-1,.11A3.53,3.53,0,0,1,155.1,39Zm0,9.66v-8a3.17,3.17,0,0,1,1-.11,3.55,3.55,0,0,1,1,.11v8a3.55,3.55,0,0,1-1,.11A3.17,3.17,0,0,1,155.13,48.62Z"/><path class="cls-1" d="M165.42,40.65v8a3.25,3.25,0,0,1-1,.11,3.59,3.59,0,0,1-1-.11V48a3,3,0,0,1-2.23.89,2.17,2.17,0,0,1-2.38-2.33V40.65a3.5,3.5,0,0,1,1-.11,3.21,3.21,0,0,1,1,.11v5.53c0,.74.37,1.16,1.22,1.16a1.8,1.8,0,0,0,1.44-.76V40.65a3.59,3.59,0,0,1,1-.11A3.25,3.25,0,0,1,165.42,40.65Z"/><path class="cls-1" d="M177.33,44.64c0,3.16-1.17,4.25-2.92,4.25a2.51,2.51,0,0,1-2.12-.9v4.18a3.63,3.63,0,0,1-1,.11,3.34,3.34,0,0,1-1-.11V40.65a3.34,3.34,0,0,1,1-.11,3.63,3.63,0,0,1,1,.11v.65a2.49,2.49,0,0,1,2.14-.9C176.15,40.4,177.33,41.44,177.33,44.64Zm-2.05,0c0-2.12-.51-2.69-1.56-2.69-.9,0-1.41.74-1.43,1.67v2c0,.91.48,1.75,1.43,1.75S175.28,46.81,175.28,44.64Z"/><path class="cls-1" d="M178.83,48.62v-8a3.29,3.29,0,0,1,1-.11,2.28,2.28,0,0,1,.87.11l.05,1a2.21,2.21,0,0,1,1.89-1.22,2.44,2.44,0,0,1,1.36.42,2.19,2.19,0,0,1-.84,1.58,1.44,1.44,0,0,0-.89-.31,1.83,1.83,0,0,0-1.46,1v5.53a3.68,3.68,0,0,1-1,.11A3.29,3.29,0,0,1,178.83,48.62Z"/><path class="cls-1" d="M184.57,44.64c0-3.08,1.38-4.24,3.6-4.24s3.59,1.16,3.59,4.24-1.38,4.25-3.59,4.25S184.57,47.71,184.57,44.64Zm5.16,0c0-2.17-.59-2.74-1.56-2.74s-1.58.57-1.58,2.74.59,2.76,1.58,2.76S189.73,46.81,189.73,44.64Z"/><path class="cls-1" d="M192.92,44.66c0-2.81,1.16-4.26,3.5-4.26a4.16,4.16,0,0,1,2.2.45,2,2,0,0,1-.56,1.35,3.2,3.2,0,0,0-1.25-.24c-1.35,0-1.87.84-1.87,2.68s.58,2.62,1.93,2.62a3.62,3.62,0,0,0,1.35-.25,2.18,2.18,0,0,1,.57,1.37,4.51,4.51,0,0,1-2.37.51C194.1,48.89,192.92,47.49,192.92,44.66Z"/><path class="cls-1" d="M206.15,45.23h-4.46c.14,1.57.8,2,1.93,2a3.53,3.53,0,0,0,1.72-.42,2,2,0,0,1,.62,1.35,4.55,4.55,0,0,1-2.66.7c-2.45,0-3.61-1.38-3.61-4.23s1.36-4.26,3.53-4.26a2.81,2.81,0,0,1,3.1,3.16A7.36,7.36,0,0,1,206.15,45.23ZM201.69,44h2.8a5.85,5.85,0,0,0,0-.62c0-.82-.32-1.49-1.27-1.49S201.8,42.43,201.69,44Z"/><path class="cls-1" d="M207.3,48.3a1.94,1.94,0,0,1,.48-1.37,6,6,0,0,0,2.1.38c1,0,1.41-.3,1.41-.92s-.85-.88-1.75-1.16-2.12-.77-2.12-2.31,1-2.52,3-2.52a5.42,5.42,0,0,1,2.37.45,1.82,1.82,0,0,1-.47,1.33,5.66,5.66,0,0,0-1.7-.25c-.94,0-1.39.33-1.39.92s1,.79,1.92,1.11,2,.84,2,2.37-1,2.56-3.14,2.56A6.15,6.15,0,0,1,207.3,48.3Z"/><path class="cls-1" d="M221.05,40.65v8a3.25,3.25,0,0,1-1,.11,3.46,3.46,0,0,1-1-.11V48a3.08,3.08,0,0,1-2.23.89,2.17,2.17,0,0,1-2.39-2.33V40.65a3.5,3.5,0,0,1,1-.11,3.21,3.21,0,0,1,1,.11v5.53c0,.74.37,1.16,1.23,1.16a1.83,1.83,0,0,0,1.44-.76V40.65a3.46,3.46,0,0,1,1-.11A3.25,3.25,0,0,1,221.05,40.65Z"/><path class="cls-1" d="M232.9,49.85c0,1.62-1.54,2.75-4.15,2.75-2.39,0-3.46-.83-3.46-2.13a2.54,2.54,0,0,1,1.37-2.09,1.27,1.27,0,0,1-.35-.93,2.56,2.56,0,0,1,.82-1.74,2.52,2.52,0,0,1-1.47-2.49c0-1.74,1.1-2.82,3.19-2.82a4,4,0,0,1,1.83.39l2.2-.39a2.24,2.24,0,0,1,0,1.49l-1.16-.1a2.88,2.88,0,0,1,.33,1.43c0,1.75-1.09,2.82-3.2,2.82-.2,0-.4,0-.58,0a1.12,1.12,0,0,0-.22.79C228.25,48.08,232.9,46.64,232.9,49.85Zm-1.88.24c0-1.08-2-.83-3.37-1.19a1.62,1.62,0,0,0-.53,1.18c0,.7.5,1.19,1.67,1.19C230.26,51.27,231,50.79,231,50.09Zm-3.47-6.87c0,1.08.51,1.55,1.3,1.55s1.31-.47,1.31-1.55-.52-1.55-1.31-1.55S227.55,42.13,227.55,43.22Z"/><path class="cls-1" d="M233.83,44.64c0-3.08,1.37-4.24,3.59-4.24S241,41.56,241,44.64s-1.38,4.25-3.59,4.25S233.83,47.71,233.83,44.64Zm5.15,0c0-2.17-.59-2.74-1.56-2.74s-1.58.57-1.58,2.74.59,2.76,1.58,2.76S239,46.81,239,44.64Z"/><path class="cls-1" d="M240.8,52.39a2,2,0,0,1-.05-.44,1.81,1.81,0,0,1,.22-1,2.51,2.51,0,0,0,.55.06c.65,0,1-.33,1-1.15V40.65a3.29,3.29,0,0,1,1-.11,3.68,3.68,0,0,1,1,.11v9.44a2.18,2.18,0,0,1-2.4,2.51A3.31,3.31,0,0,1,240.8,52.39ZM242.5,39V37.29a3.29,3.29,0,0,1,1-.11,3.8,3.8,0,0,1,1,.11V39a3.5,3.5,0,0,1-1,.12A3,3,0,0,1,242.5,39Z"/><path class="cls-1" d="M252.43,45.23H248c.14,1.57.8,2,1.93,2a3.53,3.53,0,0,0,1.72-.42,2,2,0,0,1,.62,1.35,4.55,4.55,0,0,1-2.66.7c-2.45,0-3.61-1.38-3.61-4.23s1.36-4.26,3.53-4.26a2.81,2.81,0,0,1,3.1,3.16A7.36,7.36,0,0,1,252.43,45.23ZM248,44h2.8a5.85,5.85,0,0,0,0-.62c0-.82-.32-1.49-1.27-1.49S248.08,42.43,248,44Z"/><path class="cls-1" d="M254,48.62v-8a3,3,0,0,1,1-.12,3.23,3.23,0,0,1,1,.12v.64a3,3,0,0,1,2.24-.9,2.16,2.16,0,0,1,2.37,2.32v5.9a3.29,3.29,0,0,1-1,.11,3.25,3.25,0,0,1-1-.11V43.11c0-.74-.37-1.16-1.22-1.16a1.8,1.8,0,0,0-1.44.77v5.9a3.5,3.5,0,0,1-1,.11A3.21,3.21,0,0,1,254,48.62Z"/><path class="cls-1" d="M262.34,39V37.29a3.37,3.37,0,0,1,1-.11,3.72,3.72,0,0,1,1,.11V39a3.72,3.72,0,0,1-1,.11A3.53,3.53,0,0,1,262.34,39Zm0,9.66v-8a3.17,3.17,0,0,1,1-.11,3.55,3.55,0,0,1,1,.11v8a3.55,3.55,0,0,1-1,.11A3.17,3.17,0,0,1,262.37,48.62Z"/><path class="cls-1" d="M272.22,43.36v5.26a2.25,2.25,0,0,1-.8.11,2.65,2.65,0,0,1-.81-.11l-.25-.9a2.31,2.31,0,0,1-2.31,1.17c-1.5,0-2.4-.87-2.4-2.62s1-2.48,3-2.48c.6,0,1.16.06,1.58.09v-.45c0-.91-.4-1.42-1.46-1.42a6.26,6.26,0,0,0-2,.37,1.47,1.47,0,0,1-.43-.6,1.72,1.72,0,0,1-.13-.78,7,7,0,0,1,2.85-.6C271.4,40.4,272.22,41.36,272.22,43.36Zm-2,2.26v-.51c-.34,0-.82-.08-1.29-.08-.88,0-1.36.36-1.36,1.24s.43,1.25,1.15,1.25C269.79,47.52,270.27,46.64,270.27,45.62Z"/><path class="cls-1" d="M278.59,48.62l-2.2-8a3.51,3.51,0,0,1,1-.11,2,2,0,0,1,.85.11l1.22,4.24a15.42,15.42,0,0,1,.36,2h.05a10.81,10.81,0,0,1,.37-2l1.16-4.23a4.85,4.85,0,0,1,1-.11,3.6,3.6,0,0,1,1,.11l1.14,4.23a15,15,0,0,1,.34,2h.05a11.65,11.65,0,0,1,.39-2l1.21-4.23a2.78,2.78,0,0,1,.85-.11,2.21,2.21,0,0,1,.83.11l-2.16,8a6.07,6.07,0,0,1-2.3,0l-1-3.64a14.49,14.49,0,0,1-.39-2.57h-.06a12,12,0,0,1-.4,2.57l-1,3.64a5,5,0,0,1-1.12.11A5.41,5.41,0,0,1,278.59,48.62Z"/><path class="cls-1" d="M292.09,44.66c0-2.81,1.16-4.26,3.5-4.26a4.16,4.16,0,0,1,2.2.45,2,2,0,0,1-.56,1.35A3.2,3.2,0,0,0,296,42c-1.35,0-1.87.84-1.87,2.68s.58,2.62,1.93,2.62a3.62,3.62,0,0,0,1.35-.25,2.18,2.18,0,0,1,.57,1.37,4.51,4.51,0,0,1-2.37.51C293.27,48.89,292.09,47.49,292.09,44.66Z"/><path class="cls-1" d="M305.75,42.71v5.91a3.29,3.29,0,0,1-1,.11,3.25,3.25,0,0,1-1-.11V43.11c0-.74-.37-1.16-1.22-1.16a1.8,1.8,0,0,0-1.44.77v5.9a3.5,3.5,0,0,1-1,.11,3.21,3.21,0,0,1-1-.11V37.22a3.51,3.51,0,0,1,1-.1,3.83,3.83,0,0,1,1,.1v4.05a3,3,0,0,1,2.24-.87A2.15,2.15,0,0,1,305.75,42.71Z"/><path class="cls-1" d="M307.52,39V37.29a3.37,3.37,0,0,1,1-.11,3.72,3.72,0,0,1,1,.11V39a3.72,3.72,0,0,1-1,.11A3.45,3.45,0,0,1,307.52,39Zm0,9.66v-8a3.09,3.09,0,0,1,1-.11,3.64,3.64,0,0,1,1,.11v8a3.64,3.64,0,0,1-1,.11A3.09,3.09,0,0,1,307.55,48.62Z"/><path class="cls-1" d="M311.31,48.62v-8a3.41,3.41,0,0,1,1-.11,2.34,2.34,0,0,1,.87.11l0,1a2.23,2.23,0,0,1,1.89-1.22,2.41,2.41,0,0,1,1.36.42,2.21,2.21,0,0,1-.83,1.58,1.49,1.49,0,0,0-.9-.31,1.85,1.85,0,0,0-1.46,1v5.53a3.55,3.55,0,0,1-1,.11A3.41,3.41,0,0,1,311.31,48.62Z"/><path class="cls-1" d="M323.89,40.65v8a3.25,3.25,0,0,1-1,.11,3.46,3.46,0,0,1-1-.11V48a3.08,3.08,0,0,1-2.23.89,2.17,2.17,0,0,1-2.39-2.33V40.65a3.5,3.5,0,0,1,1-.11,3.21,3.21,0,0,1,1,.11v5.53c0,.74.37,1.16,1.23,1.16a1.83,1.83,0,0,0,1.44-.76V40.65a3.46,3.46,0,0,1,1-.11A3.25,3.25,0,0,1,323.89,40.65Z"/><path class="cls-1" d="M325.69,48.62v-8a3.29,3.29,0,0,1,1-.11,2.28,2.28,0,0,1,.87.11l.05,1a2.2,2.2,0,0,1,1.88-1.22,2.44,2.44,0,0,1,1.37.42A2.19,2.19,0,0,1,330,42.4a1.49,1.49,0,0,0-.9-.31,1.82,1.82,0,0,0-1.45,1v5.53a3.68,3.68,0,0,1-1,.11A3.29,3.29,0,0,1,325.69,48.62Z"/><path class="cls-1" d="M338.68,49.85c0,1.62-1.53,2.75-4.15,2.75-2.39,0-3.45-.83-3.45-2.13a2.53,2.53,0,0,1,1.36-2.09,1.26,1.26,0,0,1-.34-.93,2.56,2.56,0,0,1,.82-1.74,2.5,2.5,0,0,1-1.47-2.49c0-1.74,1.1-2.82,3.19-2.82a4,4,0,0,1,1.82.39l2.2-.39a2.12,2.12,0,0,1,0,1.49l-1.16-.1a2.88,2.88,0,0,1,.33,1.43c0,1.75-1.09,2.82-3.19,2.82-.2,0-.41,0-.59,0a1.12,1.12,0,0,0-.22.79C334,48.08,338.68,46.64,338.68,49.85Zm-1.87.24c0-1.08-2-.83-3.38-1.19a1.62,1.62,0,0,0-.53,1.18c0,.7.5,1.19,1.68,1.19C336.05,51.27,336.81,50.79,336.81,50.09Zm-3.47-6.87c0,1.08.51,1.55,1.3,1.55s1.3-.47,1.3-1.55-.51-1.55-1.3-1.55S333.34,42.13,333.34,43.22Z"/><path class="cls-1" d="M339.92,39V37.29a3.37,3.37,0,0,1,1-.11,3.72,3.72,0,0,1,1,.11V39a3.72,3.72,0,0,1-1,.11A3.45,3.45,0,0,1,339.92,39Zm0,9.66v-8a3.09,3.09,0,0,1,1-.11,3.55,3.55,0,0,1,1,.11v8a3.55,3.55,0,0,1-1,.11A3.09,3.09,0,0,1,340,48.62Z"/><path class="cls-1" d="M343.71,39V37.29a3.37,3.37,0,0,1,1-.11,3.72,3.72,0,0,1,1,.11V39a3.72,3.72,0,0,1-1,.11A3.53,3.53,0,0,1,343.71,39Zm0,9.66v-8a3.17,3.17,0,0,1,1-.11,3.68,3.68,0,0,1,1,.11v8a3.68,3.68,0,0,1-1,.11A3.17,3.17,0,0,1,343.74,48.62Z"/><path class="cls-1" d="M350.62,39V37.29a3.37,3.37,0,0,1,1-.11,3.72,3.72,0,0,1,1,.11V39a3.72,3.72,0,0,1-1,.11A3.53,3.53,0,0,1,350.62,39Zm0,9.66v-8a3.17,3.17,0,0,1,1-.11,3.55,3.55,0,0,1,1,.11v8a3.55,3.55,0,0,1-1,.11A3.17,3.17,0,0,1,350.65,48.62Z"/><path class="cls-1" d="M354.42,48.62v-8a2.89,2.89,0,0,1,1-.12,3.39,3.39,0,0,1,1,.12v.65a2.91,2.91,0,0,1,2.15-.91,2,2,0,0,1,2,1.08A3.19,3.19,0,0,1,363,40.4a2.13,2.13,0,0,1,2.29,2.34v5.88a3.55,3.55,0,0,1-1,.11,3.41,3.41,0,0,1-1-.11V43.11A1,1,0,0,0,362.17,42a1.63,1.63,0,0,0-1.36.77v5.9a3.55,3.55,0,0,1-1,.11,3.41,3.41,0,0,1-1-.11V43.11c0-.73-.32-1.16-1.13-1.16a1.65,1.65,0,0,0-1.36.76v5.91a3.68,3.68,0,0,1-1,.11A3.29,3.29,0,0,1,354.42,48.62Z"/><path class="cls-1" d="M374,44.64c0,3.16-1.16,4.25-2.91,4.25A2.49,2.49,0,0,1,369,48v4.18a3.76,3.76,0,0,1-1,.11,3.34,3.34,0,0,1-1-.11V40.65a3.34,3.34,0,0,1,1-.11,3.76,3.76,0,0,1,1,.11v.65a2.47,2.47,0,0,1,2.13-.9C372.86,40.4,374,41.44,374,44.64Zm-2.05,0c0-2.12-.51-2.69-1.56-2.69s-1.41.74-1.42,1.67v2c0,.91.48,1.75,1.42,1.75S372,46.81,372,44.64Z"/><path class="cls-1" d="M375.59,48.62V37.22a3.51,3.51,0,0,1,1-.1,3.83,3.83,0,0,1,1,.1v11.4a3.5,3.5,0,0,1-1,.11A3.21,3.21,0,0,1,375.59,48.62Z"/><path class="cls-1" d="M385.47,43.36v5.26a2.28,2.28,0,0,1-.81.11,2.61,2.61,0,0,1-.8-.11l-.25-.9a2.31,2.31,0,0,1-2.31,1.17c-1.5,0-2.4-.87-2.4-2.62s1-2.48,3-2.48c.6,0,1.16.06,1.58.09v-.45c0-.91-.41-1.42-1.46-1.42a6.26,6.26,0,0,0-2,.37,1.38,1.38,0,0,1-.43-.6,1.57,1.57,0,0,1-.13-.78,7,7,0,0,1,2.85-.6C384.65,40.4,385.47,41.36,385.47,43.36Zm-2,2.26v-.51c-.34,0-.82-.08-1.29-.08-.88,0-1.36.36-1.36,1.24s.43,1.25,1.14,1.25C383,47.52,383.52,46.64,383.52,45.62Z"/><path class="cls-1" d="M387.22,48.62v-8a3,3,0,0,1,1-.12,3.23,3.23,0,0,1,1,.12v.64a3,3,0,0,1,2.25-.9,2.16,2.16,0,0,1,2.37,2.32v5.9a3.41,3.41,0,0,1-1,.11,3.25,3.25,0,0,1-1-.11V43.11c0-.74-.37-1.16-1.22-1.16a1.81,1.81,0,0,0-1.44.77v5.9a3.5,3.5,0,0,1-1,.11A3.21,3.21,0,0,1,387.22,48.62Z"/><path class="cls-1" d="M400.26,48.08a2.1,2.1,0,0,1-.09.65,5.28,5.28,0,0,1-1.29.16c-2,0-2.79-1-2.79-3V42H395a2.09,2.09,0,0,1-.1-.69,2.15,2.15,0,0,1,.1-.73h1.14V39.1a3.69,3.69,0,0,1,2-.34v1.78h1.85a2,2,0,0,1,.11.71,2.19,2.19,0,0,1-.11.71h-1.85V45.8c0,1.21.43,1.57,1.39,1.57a3.24,3.24,0,0,0,.67-.08A2,2,0,0,1,400.26,48.08Z"/><path class="cls-1" d="M401,44.64c0-3.08,1.38-4.24,3.6-4.24s3.59,1.16,3.59,4.24-1.38,4.25-3.59,4.25S401,47.71,401,44.64Zm5.16,0c0-2.17-.59-2.74-1.56-2.74s-1.58.57-1.58,2.74.59,2.76,1.58,2.76S406.19,46.81,406.19,44.64Z"/><path class="cls-1" d="M409.74,48.62V37.22a3.51,3.51,0,0,1,1-.1,3.83,3.83,0,0,1,1,.1v11.4a3.5,3.5,0,0,1-1,.11A3.21,3.21,0,0,1,409.74,48.62Z"/><path class="cls-1" d="M413.22,44.64c0-3.08,1.38-4.24,3.6-4.24s3.59,1.16,3.59,4.24-1.38,4.25-3.59,4.25S413.22,47.71,413.22,44.64Zm5.16,0c0-2.17-.59-2.74-1.56-2.74s-1.58.57-1.58,2.74.59,2.76,1.58,2.76S418.38,46.81,418.38,44.64Z"/><path class="cls-1" d="M428.82,49.85c0,1.62-1.53,2.75-4.15,2.75-2.39,0-3.46-.83-3.46-2.13a2.54,2.54,0,0,1,1.37-2.09,1.26,1.26,0,0,1-.34-.93,2.56,2.56,0,0,1,.82-1.74,2.5,2.5,0,0,1-1.47-2.49c0-1.74,1.1-2.82,3.19-2.82a4,4,0,0,1,1.82.39l2.2-.39a2.24,2.24,0,0,1,0,1.49l-1.16-.1a2.88,2.88,0,0,1,.33,1.43C428,45,426.88,46,424.78,46c-.2,0-.4,0-.59,0a1.12,1.12,0,0,0-.22.79C424.17,48.08,428.82,46.64,428.82,49.85Zm-1.87.24c0-1.08-2-.83-3.38-1.19a1.62,1.62,0,0,0-.53,1.18c0,.7.5,1.19,1.67,1.19C426.19,51.27,427,50.79,427,50.09Zm-3.47-6.87c0,1.08.51,1.55,1.3,1.55s1.3-.47,1.3-1.55-.51-1.55-1.3-1.55S423.48,42.13,423.48,43.22Z"/><path class="cls-1" d="M430.06,39V37.29a3.37,3.37,0,0,1,1-.11,3.72,3.72,0,0,1,1,.11V39a3.72,3.72,0,0,1-1,.11A3.45,3.45,0,0,1,430.06,39Zm0,9.66v-8a3.09,3.09,0,0,1,1-.11,3.64,3.64,0,0,1,1,.11v8a3.64,3.64,0,0,1-1,.11A3.09,3.09,0,0,1,430.09,48.62Z"/><path class="cls-1" d="M433.54,44.66c0-2.81,1.17-4.26,3.5-4.26a4.16,4.16,0,0,1,2.2.45,2,2,0,0,1-.55,1.35,3.28,3.28,0,0,0-1.26-.24c-1.35,0-1.87.84-1.87,2.68s.59,2.62,1.93,2.62a3.62,3.62,0,0,0,1.35-.25,2.12,2.12,0,0,1,.57,1.37,4.47,4.47,0,0,1-2.37.51C434.72,48.89,433.54,47.49,433.54,44.66Z"/><path class="cls-1" d="M446.37,48a2,2,0,0,1-.13.77H440.3a2.58,2.58,0,0,1-.11-.8,2.29,2.29,0,0,1,.11-.76l3.87-5.07h-3.66a2.58,2.58,0,0,1-.11-.79,2.52,2.52,0,0,1,.11-.77h5.75a2.68,2.68,0,0,1,.09.74,3.49,3.49,0,0,1-.09.82l-3.87,5.07h3.85A2,2,0,0,1,446.37,48Z"/><path class="cls-1" d="M447.81,48.62v-8a3,3,0,0,1,1-.12,3.23,3.23,0,0,1,1,.12v.64a3,3,0,0,1,2.25-.9,2.16,2.16,0,0,1,2.37,2.32v5.9a3.41,3.41,0,0,1-1,.11,3.25,3.25,0,0,1-1-.11V43.11c0-.74-.37-1.16-1.22-1.16a1.81,1.81,0,0,0-1.44.77v5.9a3.5,3.5,0,0,1-1,.11A3.21,3.21,0,0,1,447.81,48.62Z"/><path class="cls-1" d="M462.27,45.23h-4.46c.14,1.57.81,2,1.94,2a3.53,3.53,0,0,0,1.72-.42,2.06,2.06,0,0,1,.62,1.35,4.56,4.56,0,0,1-2.67.7c-2.44,0-3.6-1.38-3.6-4.23s1.36-4.26,3.53-4.26a2.81,2.81,0,0,1,3.09,3.16A7.36,7.36,0,0,1,462.27,45.23ZM457.81,44h2.81c0-.18,0-.4,0-.62,0-.82-.33-1.49-1.27-1.49S457.92,42.43,457.81,44Z"/><path class="cls-1" d="M462.17,52.39a2,2,0,0,1-.05-.44,1.81,1.81,0,0,1,.22-1,2.51,2.51,0,0,0,.55.06c.65,0,1-.33,1-1.15V40.65a3.41,3.41,0,0,1,1-.11,3.68,3.68,0,0,1,1,.11v9.44a2.18,2.18,0,0,1-2.4,2.51A3.31,3.31,0,0,1,462.17,52.39ZM463.87,39V37.29a3.29,3.29,0,0,1,1-.11,3.8,3.8,0,0,1,1,.11V39a3.5,3.5,0,0,1-1,.12A3,3,0,0,1,463.87,39Z"/><path class="cls-1" d="M467.09,40.68a9.28,9.28,0,0,1,1.21-4.43.88.88,0,0,1,.46.12.87.87,0,0,1,.35.31,8.81,8.81,0,0,0,0,8,.67.67,0,0,1-.34.32,1,1,0,0,1-.47.12A9.3,9.3,0,0,1,467.09,40.68Z"/><path class="cls-1" d="M473.53,42.59a1.38,1.38,0,0,1,0,1H469.7a3.57,3.57,0,0,1-.06-.65c0-1.37.91-1.91,1.74-2.45s1.12-.83,1.12-1.41-.34-.81-1.06-.81a3.91,3.91,0,0,0-1.27.24.92.92,0,0,1-.33-.82,4.48,4.48,0,0,1,1.8-.36c1.18,0,2.05.53,2.05,1.72s-.6,1.53-1.66,2.17c-.52.31-1.21.57-1.22,1.2a1.21,1.21,0,0,0,0,.19Z"/><path class="cls-1" d="M474.63,45a.67.67,0,0,1-.35-.32,8.73,8.73,0,0,0,0-8,.87.87,0,0,1,.35-.31.9.9,0,0,1,.47-.12,8.73,8.73,0,0,1,0,8.87A1,1,0,0,1,474.63,45Z"/><polyline class="cls-2" points="18.61 6.57 37.6 34.7 18.61 62.93"/></svg>