<svg id="Warstwa_1" data-name="Warstwa 1" xmlns="http://www.w3.org/2000/svg" xmlns:xlink="http://www.w3.org/1999/xlink" viewBox="0 0 450 50"><defs><style>.cls-1,.cls-4{fill:none;}.cls-2{clip-path:url(#clip-path);}.cls-3{fill:url(#Gradient_bez_nazwy_2);}.cls-4{stroke:#fff;stroke-miterlimit:10;}.cls-5{fill:#0056a3;}</style><clipPath id="clip-path"><polygon class="cls-1" points="33.63 48.66 301.31 48.66 301.31 12.54 33.63 12.54 33.63 23.59 38.45 31.02 33.63 38.3 33.63 48.66"/></clipPath><linearGradient id="Gradient_bez_nazwy_2" x1="-987.02" y1="323.71" x2="-986.3" y2="323.71" gradientTransform="matrix(372.44, 0, 0, -372.44, 367635.76, 120592.08)" gradientUnits="userSpaceOnUse"><stop offset="0" stop-color="#ccd513"/><stop offset="0.01" stop-color="#ccd513"/><stop offset="0.01" stop-color="#ccd513"/><stop offset="0.39" stop-color="#ccd515"/><stop offset="0.52" stop-color="#ced71c"/><stop offset="0.62" stop-color="#d0d927"/><stop offset="0.69" stop-color="#d4dc38"/><stop offset="0.76" stop-color="#d9e04e"/><stop offset="0.82" stop-color="#dfe46a"/><stop offset="0.87" stop-color="#e6ea8a"/><stop offset="0.92" stop-color="#eef1b0"/><stop offset="0.97" stop-color="#f7f8d9"/><stop offset="1" stop-color="#fff"/></linearGradient></defs><title>antyseptyka_w_chirurgii</title><g class="cls-2"><rect class="cls-3" x="33.63" y="12.43" width="267.67" height="36.13"/></g><polyline class="cls-4" points="35.03 12.54 35.03 23.23 35.03 23.13 40.1 30.89 35.03 38.68 35.03 48.77"/><path class="cls-5" d="M62.37,28.59a1.06,1.06,0,0,1-.39.05.85.85,0,0,1-.35-.05l-.45-1.23H59.12l-.46,1.23a.85.85,0,0,1-.35.05.74.74,0,0,1-.33-.05l1.76-4.94a1.78,1.78,0,0,1,.43,0,1.64,1.64,0,0,1,.43,0ZM59.3,26.8H61L60.32,25a5.06,5.06,0,0,1-.16-.59h0A4.59,4.59,0,0,1,60,25Z"/><path class="cls-5" d="M62.71,28.6V25a1.14,1.14,0,0,1,.35,0,1.22,1.22,0,0,1,.35,0v.37a1.41,1.41,0,0,1,1.08-.48,1,1,0,0,1,1.08,1.05V28.6a1.22,1.22,0,0,1-.35,0,1.14,1.14,0,0,1-.35,0V26.07c0-.4-.21-.62-.65-.62a1,1,0,0,0-.81.48V28.6a1.22,1.22,0,0,1-.35,0A1.14,1.14,0,0,1,62.71,28.6Z"/><path class="cls-5" d="M68.28,28.41a.83.83,0,0,1,0,.24,1.91,1.91,0,0,1-.54.06c-.87,0-1.19-.45-1.19-1.34V25.48H66a.76.76,0,0,1,0-.26A.72.72,0,0,1,66,25h.53v-.67a1.23,1.23,0,0,1,.7-.13V25h.92a.7.7,0,0,1,0,.26.87.87,0,0,1,0,.27h-.92v1.86c0,.61.19.81.68.81a2,2,0,0,0,.32,0A.65.65,0,0,1,68.28,28.41Z"/><path class="cls-5" d="M71.73,25l-1.38,4.23c-.24.75-.51,1.17-1.24,1.17a1.56,1.56,0,0,1-.46-.06.69.69,0,0,1,0-.54,1.16,1.16,0,0,0,.33,0c.33,0,.51-.12.71-.72l.16-.47a.54.54,0,0,1-.22-.05L68.3,25a1.34,1.34,0,0,1,.36,0A1.3,1.3,0,0,1,69,25l.81,2.15a5.64,5.64,0,0,1,.25.82h0s.07-.34.22-.82L71.05,25a1.1,1.1,0,0,1,.34,0A1.18,1.18,0,0,1,71.73,25Z"/><path class="cls-5" d="M71.91,28.46a.62.62,0,0,1,.18-.5,2.81,2.81,0,0,0,1,.17c.46,0,.73-.16.73-.52s-.41-.47-.83-.59-1-.36-1-1,.43-1.1,1.32-1.1a2.29,2.29,0,0,1,1,.19.61.61,0,0,1-.18.49,2.73,2.73,0,0,0-.75-.12c-.49,0-.73.18-.73.51s.43.44.87.58,1,.36,1,1.06S74,28.71,73.1,28.71A2.81,2.81,0,0,1,71.91,28.46Z"/><path class="cls-5" d="M77.66,27H75.55c.06.83.38,1.11,1,1.11a1.65,1.65,0,0,0,.82-.21.74.74,0,0,1,.23.5,2.07,2.07,0,0,1-1.18.3c-1.05,0-1.57-.64-1.57-1.92s.62-1.91,1.55-1.91a1.24,1.24,0,0,1,1.36,1.4A3,3,0,0,1,77.66,27Zm-2.11-.47h1.52a3.28,3.28,0,0,0,0-.34c0-.43-.19-.78-.7-.78S75.6,25.74,75.55,26.54Z"/><path class="cls-5" d="M81.35,26.79c0,1.44-.53,1.92-1.33,1.92a1.11,1.11,0,0,1-1-.48v2a1.55,1.55,0,0,1-.7,0V25a1.55,1.55,0,0,1,.7,0v.37a1.11,1.11,0,0,1,1-.48C80.82,24.88,81.35,25.36,81.35,26.79Zm-.73,0c0-1-.27-1.34-.85-1.34a.8.8,0,0,0-.77.88v.91a.82.82,0,0,0,.77.91C80.35,28.15,80.62,27.84,80.62,26.79Z"/><path class="cls-5" d="M83.94,28.41a.64.64,0,0,1,0,.24,1.79,1.79,0,0,1-.53.06c-.87,0-1.19-.45-1.19-1.34V25.48h-.53a.76.76,0,0,1,0-.26.72.72,0,0,1,0-.27h.53v-.67a1.23,1.23,0,0,1,.7-.13V25h.92a.9.9,0,0,1,0,.26,1.13,1.13,0,0,1,0,.27h-.92v1.86c0,.61.19.81.68.81a2,2,0,0,0,.32,0A.65.65,0,0,1,83.94,28.41Z"/><path class="cls-5" d="M87.39,25,86,29.22c-.23.75-.5,1.17-1.23,1.17a1.56,1.56,0,0,1-.46-.06.69.69,0,0,1,0-.54,1.13,1.13,0,0,0,.32,0c.34,0,.52-.12.72-.72l.15-.47a.54.54,0,0,1-.21-.05L84,25a1.34,1.34,0,0,1,.36,0,1.3,1.3,0,0,1,.37,0l.81,2.15a4.83,4.83,0,0,1,.24.82h0s.07-.34.22-.82L86.71,25a1.1,1.1,0,0,1,.34,0A1.18,1.18,0,0,1,87.39,25Z"/><path class="cls-5" d="M90.74,28.59a1.47,1.47,0,0,1-.4.05,1.32,1.32,0,0,1-.38-.05l-1-1.61h-.45V28.6a1.1,1.1,0,0,1-.34,0,1.44,1.44,0,0,1-.36,0V23.43a1.44,1.44,0,0,1,.36,0,1.36,1.36,0,0,1,.34,0v3h.46L89.86,25a1.34,1.34,0,0,1,.36,0,1.44,1.44,0,0,1,.36,0l-1.06,1.68Z"/><path class="cls-5" d="M93.7,26.25V28.6a.85.85,0,0,1-.29,0,.93.93,0,0,1-.29,0L93,28.13a1.13,1.13,0,0,1-1.11.58,1,1,0,0,1-1.09-1.15c0-.76.46-1.1,1.36-1.1.32,0,.62,0,.81,0v-.29a.65.65,0,0,0-.74-.74,2.93,2.93,0,0,0-.94.17.52.52,0,0,1-.16-.21.73.73,0,0,1,0-.3,3.25,3.25,0,0,1,1.24-.25C93.38,24.88,93.7,25.34,93.7,26.25Zm-.7,1V27c-.16,0-.45,0-.72,0-.49,0-.73.18-.73.64s.23.64.61.64A.87.87,0,0,0,93,27.22Z"/><path class="cls-5" d="M96.43,28.6,95.38,25a1.22,1.22,0,0,1,.35,0A.79.79,0,0,1,96,25l.65,2.18a3.62,3.62,0,0,1,.15.76h0a4.51,4.51,0,0,1,.16-.76L97.67,25A1.69,1.69,0,0,1,98,25a1.22,1.22,0,0,1,.35,0L99,27.15a4.76,4.76,0,0,1,.15.78h0a5.69,5.69,0,0,1,.17-.77L100,25a1,1,0,0,1,.31,0,.92.92,0,0,1,.31,0L99.57,28.6a2.15,2.15,0,0,1-.4,0,2.23,2.23,0,0,1-.39,0l-.56-1.88a4.51,4.51,0,0,1-.2-1.06h0a4.18,4.18,0,0,1-.21,1.06l-.56,1.88a2.13,2.13,0,0,1-.39,0A2.48,2.48,0,0,1,96.43,28.6Z"/><path class="cls-5" d="M102.17,26.8c0-1.26.54-1.92,1.56-1.92a2,2,0,0,1,.94.18.74.74,0,0,1-.21.51,1.59,1.59,0,0,0-.61-.11c-.67,0-.95.42-.95,1.34s.3,1.32,1,1.32a1.58,1.58,0,0,0,.65-.13.74.74,0,0,1,.21.5,1.93,1.93,0,0,1-1,.22C102.71,28.71,102.17,28.06,102.17,26.8Z"/><path class="cls-5" d="M108.06,25.93V28.6a1.22,1.22,0,0,1-.35,0,1.14,1.14,0,0,1-.35,0V26.07c0-.4-.21-.62-.65-.62a1,1,0,0,0-.81.48V28.6a1.22,1.22,0,0,1-.35,0,1.14,1.14,0,0,1-.35,0V23.43a1.14,1.14,0,0,1,.35,0,1.22,1.22,0,0,1,.35,0v1.91a1.42,1.42,0,0,1,1.08-.46A1,1,0,0,1,108.06,25.93Z"/><path class="cls-5" d="M108.77,24.19v-.63a1.3,1.3,0,0,1,.37,0,1.52,1.52,0,0,1,.38,0v.63a1.52,1.52,0,0,1-.38,0A1.3,1.3,0,0,1,108.77,24.19Zm0,4.41V25a1.06,1.06,0,0,1,.35,0,1.22,1.22,0,0,1,.35,0V28.6a1.22,1.22,0,0,1-.35,0A1.14,1.14,0,0,1,108.79,28.6Z"/><path class="cls-5" d="M110.24,28.6V25a1.22,1.22,0,0,1,.35,0,.92.92,0,0,1,.33,0v.51a1,1,0,0,1,.9-.61,1.11,1.11,0,0,1,.61.17.9.9,0,0,1-.31.59.7.7,0,0,0-.44-.14.94.94,0,0,0-.75.56V28.6a1.55,1.55,0,0,1-.7,0Z"/><path class="cls-5" d="M115.6,25V28.6a1.14,1.14,0,0,1-.35,0,1.22,1.22,0,0,1-.35,0v-.36a1.42,1.42,0,0,1-1.09.47,1,1,0,0,1-1.07-1.05V25a1.55,1.55,0,0,1,.7,0v2.54c0,.4.21.62.65.62a1,1,0,0,0,.81-.49V25a1.55,1.55,0,0,1,.7,0Z"/><path class="cls-5" d="M116.33,28.6V25a1.22,1.22,0,0,1,.35,0,.92.92,0,0,1,.33,0v.51a1,1,0,0,1,.9-.61,1.11,1.11,0,0,1,.61.17.9.9,0,0,1-.31.59.7.7,0,0,0-.44-.14.94.94,0,0,0-.75.56V28.6a1.55,1.55,0,0,1-.7,0Z"/><path class="cls-5" d="M121.87,25.44l-.58,0a1.29,1.29,0,0,1,.19.72c0,.77-.48,1.25-1.39,1.25l-.31,0a.63.63,0,0,0-.15.43c.07.65,2.23-.05,2.23,1.39,0,.69-.65,1.2-1.81,1.2s-1.51-.4-1.51-1a1.2,1.2,0,0,1,.61-1A.59.59,0,0,1,119,28a1.18,1.18,0,0,1,.35-.78,1.13,1.13,0,0,1-.64-1.11,1.21,1.21,0,0,1,1.38-1.26,1.78,1.78,0,0,1,.8.18l1-.17A.94.94,0,0,1,121.87,25.44Zm-2.33,3.2a.84.84,0,0,0-.33.63c0,.37.27.63.85.63.73,0,1.13-.26,1.13-.63C121.19,28.66,120.18,28.82,119.54,28.64Zm1.26-2.51c0-.53-.28-.77-.71-.77s-.7.24-.7.77.28.78.7.78S120.8,26.67,120.8,26.13Z"/><path class="cls-5" d="M122.3,24.19v-.63a1.3,1.3,0,0,1,.37,0,1.52,1.52,0,0,1,.38,0v.63a1.52,1.52,0,0,1-.38,0A1.3,1.3,0,0,1,122.3,24.19Zm0,4.41V25a1.06,1.06,0,0,1,.35,0,1.22,1.22,0,0,1,.35,0V28.6a1.22,1.22,0,0,1-.35,0A1.14,1.14,0,0,1,122.32,28.6Z"/><path class="cls-5" d="M123.77,24.19v-.63a1.3,1.3,0,0,1,.37,0,1.42,1.42,0,0,1,.38,0v.63a1.42,1.42,0,0,1-.38,0A1.3,1.3,0,0,1,123.77,24.19Zm0,4.41V25a1.06,1.06,0,0,1,.35,0,1.22,1.22,0,0,1,.35,0V28.6a1.22,1.22,0,0,1-.35,0A1.14,1.14,0,0,1,123.79,28.6Z"/><path class="cls-5" d="M126.54,24.19v-.63a1.3,1.3,0,0,1,.37,0,1.42,1.42,0,0,1,.38,0v.63a1.42,1.42,0,0,1-.38,0A1.3,1.3,0,0,1,126.54,24.19Zm0,4.41V25a1.14,1.14,0,0,1,.35,0,1.22,1.22,0,0,1,.35,0V28.6a1.22,1.22,0,0,1-.35,0A1.14,1.14,0,0,1,126.56,28.6Z"/><path class="cls-5" d="M128,28.6V25a1.14,1.14,0,0,1,.35,0,1.22,1.22,0,0,1,.35,0v.36a1.31,1.31,0,0,1,1-.47.9.9,0,0,1,.91.55,1.4,1.4,0,0,1,1.16-.55,1,1,0,0,1,1,1.06V28.6a1.3,1.3,0,0,1-.35,0,1.14,1.14,0,0,1-.35,0V26.07c0-.41-.19-.62-.6-.62a.88.88,0,0,0-.77.49V28.6a1.55,1.55,0,0,1-.7,0V26.07c0-.41-.19-.62-.6-.62a.91.91,0,0,0-.76.48V28.6a1.3,1.3,0,0,1-.35,0A1.14,1.14,0,0,1,128,28.6Z"/><path class="cls-5" d="M136.61,26.79c0,1.44-.52,1.92-1.33,1.92a1.12,1.12,0,0,1-1-.48v2a1.55,1.55,0,0,1-.7,0V25a1.55,1.55,0,0,1,.7,0v.37a1.12,1.12,0,0,1,1-.48C136.08,24.88,136.61,25.36,136.61,26.79Zm-.73,0c0-1-.27-1.34-.84-1.34a.81.81,0,0,0-.78.88v.91a.83.83,0,0,0,.78.91C135.61,28.15,135.88,27.84,135.88,26.79Z"/><path class="cls-5" d="M137.24,28.6V23.43a1.06,1.06,0,0,1,.35,0,1.22,1.22,0,0,1,.35,0V28.6a1.22,1.22,0,0,1-.35,0A1.06,1.06,0,0,1,137.24,28.6Z"/><path class="cls-5" d="M141.34,26.25V28.6a.85.85,0,0,1-.29,0,.82.82,0,0,1-.28,0l-.1-.47a1.13,1.13,0,0,1-1.11.58,1,1,0,0,1-1.09-1.15c0-.76.46-1.1,1.36-1.1a7.86,7.86,0,0,1,.81,0v-.29a.65.65,0,0,0-.74-.74,2.93,2.93,0,0,0-.94.17.52.52,0,0,1-.16-.21.65.65,0,0,1,0-.3,3.23,3.23,0,0,1,1.23-.25C141,24.88,141.34,25.34,141.34,26.25Zm-.7,1V27c-.16,0-.45,0-.72,0-.49,0-.73.18-.73.64s.23.64.61.64A.87.87,0,0,0,140.64,27.22Z"/><path class="cls-5" d="M142.05,28.6V25a1.14,1.14,0,0,1,.35,0,1.22,1.22,0,0,1,.35,0v.37a1.43,1.43,0,0,1,1.09-.48,1,1,0,0,1,1.08,1.05V28.6a1.3,1.3,0,0,1-.35,0,1.14,1.14,0,0,1-.35,0V26.07c0-.4-.21-.62-.66-.62a1,1,0,0,0-.81.48V28.6a1.22,1.22,0,0,1-.35,0A1.14,1.14,0,0,1,142.05,28.6Z"/><path class="cls-5" d="M147.63,28.41a.64.64,0,0,1,0,.24,1.87,1.87,0,0,1-.54.06c-.87,0-1.18-.45-1.18-1.34V25.48h-.54a.76.76,0,0,1,0-.26.72.72,0,0,1,0-.27h.54v-.67a1.19,1.19,0,0,1,.7-.13V25h.91a.7.7,0,0,1,0,.26.87.87,0,0,1,0,.27h-.91v1.86c0,.61.19.81.68.81a2,2,0,0,0,.32,0A.65.65,0,0,1,147.63,28.41Z"/><path class="cls-5" d="M147.85,26.79c0-1.38.6-1.91,1.57-1.91s1.56.53,1.56,1.91-.6,1.92-1.56,1.92S147.85,28.19,147.85,26.79Zm2.41,0c0-1.07-.32-1.37-.84-1.37s-.84.3-.84,1.37.32,1.38.84,1.38S150.26,27.87,150.26,26.79Z"/><path class="cls-5" d="M151.59,28.6V23.43a1.14,1.14,0,0,1,.35,0,1.22,1.22,0,0,1,.35,0V28.6a1.22,1.22,0,0,1-.35,0A1.14,1.14,0,0,1,151.59,28.6Z"/><path class="cls-5" d="M152.9,26.79c0-1.38.6-1.91,1.57-1.91s1.56.53,1.56,1.91-.59,1.92-1.56,1.92S152.9,28.19,152.9,26.79Zm2.41,0c0-1.07-.32-1.37-.84-1.37s-.84.3-.84,1.37.32,1.38.84,1.38S155.31,27.87,155.31,26.79Z"/><path class="cls-5" d="M159.64,25.44l-.58,0a1.29,1.29,0,0,1,.19.72c0,.77-.47,1.25-1.38,1.25l-.32,0a.68.68,0,0,0-.15.43c.07.65,2.23-.05,2.23,1.39,0,.69-.65,1.2-1.81,1.2s-1.51-.4-1.51-1a1.19,1.19,0,0,1,.62-1,.55.55,0,0,1-.16-.41,1.18,1.18,0,0,1,.35-.78,1.13,1.13,0,0,1-.64-1.11,1.22,1.22,0,0,1,1.39-1.26,1.77,1.77,0,0,1,.79.18l1-.17A.94.94,0,0,1,159.64,25.44Zm-2.33,3.2a.84.84,0,0,0-.33.63c0,.37.27.63.85.63s1.13-.26,1.13-.63C159,28.66,158,28.82,157.31,28.64Zm1.26-2.51c0-.53-.28-.77-.7-.77s-.71.24-.71.77.28.78.71.78S158.57,26.67,158.57,26.13Z"/><path class="cls-5" d="M160.07,24.19v-.63a1.3,1.3,0,0,1,.37,0,1.42,1.42,0,0,1,.38,0v.63a1.42,1.42,0,0,1-.38,0A1.3,1.3,0,0,1,160.07,24.19Zm0,4.41V25a1.14,1.14,0,0,1,.35,0,1.22,1.22,0,0,1,.35,0V28.6a1.22,1.22,0,0,1-.35,0A1.14,1.14,0,0,1,160.09,28.6Z"/><path class="cls-5" d="M161.39,26.8c0-1.26.53-1.92,1.56-1.92a2,2,0,0,1,.94.18.74.74,0,0,1-.21.51,1.53,1.53,0,0,0-.61-.11c-.67,0-.95.42-.95,1.34s.3,1.32,1,1.32a1.58,1.58,0,0,0,.65-.13.74.74,0,0,1,.21.5,1.93,1.93,0,0,1-1,.22C161.92,28.71,161.39,28.06,161.39,26.8Z"/><path class="cls-5" d="M166.89,28.36a.68.68,0,0,1,0,.28h-2.62a.84.84,0,0,1,0-.3.89.89,0,0,1,0-.26l1.87-2.56h-1.75a.93.93,0,0,1,0-.29.82.82,0,0,1,0-.28h2.49a.93.93,0,0,1,0,.27,1.17,1.17,0,0,1,0,.3L165,28.08h1.88A.62.62,0,0,1,166.89,28.36Z"/><path class="cls-5" d="M167.43,28.6V25a1.14,1.14,0,0,1,.35,0,1.22,1.22,0,0,1,.35,0v.37a1.39,1.39,0,0,1,1.08-.48,1,1,0,0,1,1.08,1.05V28.6a1.3,1.3,0,0,1-.35,0,1.14,1.14,0,0,1-.35,0V26.07c0-.4-.21-.62-.65-.62a1,1,0,0,0-.81.48V28.6a1.22,1.22,0,0,1-.35,0A1.14,1.14,0,0,1,167.43,28.6Z"/><path class="cls-5" d="M173.68,27h-2.11c.06.83.38,1.11,1,1.11a1.6,1.6,0,0,0,.82-.21.7.7,0,0,1,.23.5,2,2,0,0,1-1.17.3c-1,0-1.57-.64-1.57-1.92s.62-1.91,1.55-1.91a1.25,1.25,0,0,1,1.36,1.4A3,3,0,0,1,173.68,27Zm-2.12-.47h1.52a1.78,1.78,0,0,0,0-.34c0-.43-.19-.78-.7-.78S171.62,25.74,171.56,26.54Z"/><path class="cls-5" d="M173.49,30.32a.65.65,0,0,1,0-.16.77.77,0,0,1,.07-.36,1.24,1.24,0,0,0,.27,0c.34,0,.53-.18.53-.61V25a1.06,1.06,0,0,1,.35,0,1.3,1.3,0,0,1,.35,0v4.27c0,.75-.37,1.13-1,1.13A1.54,1.54,0,0,1,173.49,30.32Zm.82-6.13v-.64a1.73,1.73,0,0,1,.74,0v.64a1.73,1.73,0,0,1-.74,0Z"/><path class="cls-5" d="M179.56,28.36a.82.82,0,0,1,0,.28H176.9a.81.81,0,0,1-.05-.3.86.86,0,0,1,.05-.26l1.87-2.56H177a.76.76,0,0,1-.05-.29A.68.68,0,0,1,177,25h2.49a1,1,0,0,1,0,.27,1.21,1.21,0,0,1,0,.3l-1.87,2.56h1.88A.75.75,0,0,1,179.56,28.36Z"/><path class="cls-5" d="M182.74,26.25V28.6a.82.82,0,0,1-.28,0,.85.85,0,0,1-.29,0l-.1-.47a1.13,1.13,0,0,1-1.11.58,1,1,0,0,1-1.08-1.15c0-.76.45-1.1,1.35-1.1a7.86,7.86,0,0,1,.81,0v-.29a.65.65,0,0,0-.74-.74,2.93,2.93,0,0,0-.94.17.45.45,0,0,1-.15-.21.58.58,0,0,1-.05-.3,3.25,3.25,0,0,1,1.24-.25C182.42,24.88,182.74,25.34,182.74,26.25Zm-.7,1V27c-.16,0-.45,0-.71,0-.49,0-.74.18-.74.64s.23.64.61.64A.87.87,0,0,0,182,27.22Z"/><path class="cls-5" d="M186.51,26.79c0,1.44-.53,1.92-1.33,1.92a1.11,1.11,0,0,1-1-.48v2a1.22,1.22,0,0,1-.35,0,1.14,1.14,0,0,1-.35,0V25a1.14,1.14,0,0,1,.35,0,1.22,1.22,0,0,1,.35,0v.37a1.11,1.11,0,0,1,1-.48C186,24.88,186.51,25.36,186.51,26.79Zm-.74,0c0-1-.26-1.34-.84-1.34a.8.8,0,0,0-.77.88v.91a.82.82,0,0,0,.77.91C185.51,28.15,185.77,27.84,185.77,26.79Z"/><path class="cls-5" d="M189.78,27h-2.11c.05.83.38,1.11,1,1.11a1.6,1.6,0,0,0,.82-.21.7.7,0,0,1,.23.5,2,2,0,0,1-1.17.3c-1.05,0-1.57-.64-1.57-1.92s.61-1.91,1.55-1.91a1.25,1.25,0,0,1,1.36,1.4A3,3,0,0,1,189.78,27Zm-2.12-.47h1.52a1.78,1.78,0,0,0,0-.34c0-.43-.19-.78-.7-.78S187.72,25.74,187.66,26.54Z"/><path class="cls-5" d="M191.14,28.6,190.08,25a1.22,1.22,0,0,1,.35,0,.79.79,0,0,1,.31,0l.65,2.18a3.62,3.62,0,0,1,.15.76h0a5.83,5.83,0,0,1,.16-.76l.65-2.18a1.81,1.81,0,0,1,.37,0,1.22,1.22,0,0,1,.35,0l.63,2.16a4.76,4.76,0,0,1,.15.78h0a5.69,5.69,0,0,1,.17-.77l.65-2.17a1,1,0,0,1,.31,0,.92.92,0,0,1,.31,0l-1.06,3.61a2.15,2.15,0,0,1-.4,0,2.23,2.23,0,0,1-.39,0l-.56-1.88a4.51,4.51,0,0,1-.2-1.06h0a4.18,4.18,0,0,1-.21,1.06l-.56,1.88a2,2,0,0,1-.39,0A2.25,2.25,0,0,1,191.14,28.6Z"/><path class="cls-5" d="M195.73,28.6V25a1.14,1.14,0,0,1,.35,0,1.22,1.22,0,0,1,.35,0v.37a1.39,1.39,0,0,1,1.08-.48,1,1,0,0,1,1.08,1.05V28.6a1.22,1.22,0,0,1-.35,0,1.14,1.14,0,0,1-.35,0V26.07c0-.4-.21-.62-.65-.62a1,1,0,0,0-.81.48V28.6a1.22,1.22,0,0,1-.35,0A1.14,1.14,0,0,1,195.73,28.6Z"/><path class="cls-5" d="M199.3,24.19v-.63a1.3,1.3,0,0,1,.37,0,1.52,1.52,0,0,1,.38,0v.63a1.52,1.52,0,0,1-.38,0A1.3,1.3,0,0,1,199.3,24.19Zm0,4.41V25a1.06,1.06,0,0,1,.35,0,1.22,1.22,0,0,1,.35,0V28.6a1.22,1.22,0,0,1-.35,0A1.14,1.14,0,0,1,199.32,28.6Z"/><path class="cls-5" d="M203.41,26.25V28.6a.75.75,0,0,1-.28,0,.85.85,0,0,1-.29,0l-.1-.47a1.11,1.11,0,0,1-1.1.58,1,1,0,0,1-1.09-1.15c0-.76.45-1.1,1.35-1.1a7.86,7.86,0,0,1,.81,0v-.29c0-.49-.21-.74-.74-.74a2.93,2.93,0,0,0-.94.17.55.55,0,0,1-.15-.21.58.58,0,0,1,0-.3,3.25,3.25,0,0,1,1.24-.25C203.09,24.88,203.41,25.34,203.41,26.25Zm-.7,1V27c-.16,0-.44,0-.71,0-.49,0-.74.18-.74.64s.23.64.61.64A.87.87,0,0,0,202.71,27.22Z"/><path class="cls-5" d="M205.43,28.6V25a1.14,1.14,0,0,1,.35,0,1.22,1.22,0,0,1,.35,0v.37a1.41,1.41,0,0,1,1.09-.48,1,1,0,0,1,1.07,1.05V28.6a1.55,1.55,0,0,1-.7,0V26.07c0-.4-.21-.62-.65-.62a1,1,0,0,0-.81.48V28.6a1.22,1.22,0,0,1-.35,0A1.14,1.14,0,0,1,205.43,28.6Z"/><path class="cls-5" d="M209,24.19v-.63a1.3,1.3,0,0,1,.37,0,1.42,1.42,0,0,1,.38,0v.63a1.42,1.42,0,0,1-.38,0A1.3,1.3,0,0,1,209,24.19Zm0,4.41V25a1.14,1.14,0,0,1,.35,0,1.22,1.22,0,0,1,.35,0V28.6a1.22,1.22,0,0,1-.35,0A1.14,1.14,0,0,1,209,28.6Z"/><path class="cls-5" d="M210.27,28.46a.62.62,0,0,1,.18-.5,2.81,2.81,0,0,0,1,.17c.46,0,.73-.16.73-.52s-.41-.47-.83-.59-1-.36-1-1,.43-1.1,1.32-1.1a2.29,2.29,0,0,1,1,.19.65.65,0,0,1-.18.49,2.73,2.73,0,0,0-.75-.12c-.5,0-.73.18-.73.51s.43.44.87.58,1,.36,1,1.06-.43,1.12-1.36,1.12A2.81,2.81,0,0,1,210.27,28.46Z"/><path class="cls-5" d="M216.31,28.59a1.44,1.44,0,0,1-.39.05,1.35,1.35,0,0,1-.39-.05l-1-1.61h-.44V28.6a1.22,1.22,0,0,1-.35,0,1.3,1.3,0,0,1-.35,0V23.43a1.55,1.55,0,0,1,.7,0v3h.45l.93-1.46a1.38,1.38,0,0,1,.37,0,1.4,1.4,0,0,1,.35,0l-1.06,1.68Z"/><path class="cls-5" d="M219.28,30.23a1.24,1.24,0,0,1-.64.16c-.43,0-.68-.21-.68-.61a1.73,1.73,0,0,1,.74-1.19l-.11-.44a1.12,1.12,0,0,1-1.1.56,1,1,0,0,1-1.09-1.15c0-.76.46-1.1,1.36-1.1a8,8,0,0,1,.81,0v-.29a.65.65,0,0,0-.74-.74,2.93,2.93,0,0,0-.94.17.52.52,0,0,1-.16-.21.73.73,0,0,1,0-.3,3.25,3.25,0,0,1,1.24-.25c1,0,1.35.46,1.35,1.37V28.6a1.63,1.63,0,0,0-.67,1c0,.17.09.26.22.26a.83.83,0,0,0,.28-.08A.6.6,0,0,1,219.28,30.23Zm-.71-3V27c-.16,0-.44,0-.72,0-.49,0-.73.18-.73.64s.23.64.61.64A.87.87,0,0,0,218.57,27.22Z"/><path class="cls-5" d="M221.28,28.6V25a1.14,1.14,0,0,1,.35,0,.92.92,0,0,1,.33,0v.51a1,1,0,0,1,.9-.61,1,1,0,0,1,.6.17.85.85,0,0,1-.3.59.7.7,0,0,0-.44-.14.94.94,0,0,0-.75.56V28.6a1.22,1.22,0,0,1-.35,0A1.14,1.14,0,0,1,221.28,28.6Z"/><path class="cls-5" d="M226.47,27h-2.11c.06.83.38,1.11,1,1.11a1.65,1.65,0,0,0,.82-.21.74.74,0,0,1,.23.5,2.07,2.07,0,0,1-1.18.3c-1.05,0-1.57-.64-1.57-1.92s.62-1.91,1.55-1.91a1.25,1.25,0,0,1,1.36,1.4A3,3,0,0,1,226.47,27Zm-2.11-.47h1.52a3.28,3.28,0,0,0,0-.34c0-.43-.19-.78-.7-.78S224.41,25.74,224.36,26.54Z"/><path class="cls-5" d="M229.1,28.41a.83.83,0,0,1,0,.24,1.91,1.91,0,0,1-.54.06c-.87,0-1.18-.45-1.18-1.34V25.48h-.54a.76.76,0,0,1,0-.26.72.72,0,0,1,0-.27h.54v-.67a1.19,1.19,0,0,1,.7-.13V25H229a.7.7,0,0,1,0,.26.87.87,0,0,1,0,.27h-.91v1.86c0,.61.18.81.67.81a2,2,0,0,0,.33,0A.76.76,0,0,1,229.1,28.41Z"/><path class="cls-5" d="M232.16,27h-2.11c0,.83.38,1.11,1,1.11a1.6,1.6,0,0,0,.82-.21.74.74,0,0,1,.23.5,2.07,2.07,0,0,1-1.18.3c-1,0-1.56-.64-1.56-1.92s.61-1.91,1.54-1.91a1.24,1.24,0,0,1,1.36,1.4A3.42,3.42,0,0,1,232.16,27ZM230,26.54h1.52a3.28,3.28,0,0,0,0-.34c0-.43-.19-.78-.7-.78S230.1,25.74,230,26.54Z"/><path class="cls-5" d="M232.79,28.6V25a1.14,1.14,0,0,1,.35,0,1.22,1.22,0,0,1,.35,0v.37a1.43,1.43,0,0,1,1.09-.48,1,1,0,0,1,1.07,1.05V28.6a1.22,1.22,0,0,1-.35,0,1.1,1.1,0,0,1-.34,0V26.07c0-.4-.22-.62-.66-.62a1,1,0,0,0-.81.48V28.6a1.22,1.22,0,0,1-.35,0A1.14,1.14,0,0,1,232.79,28.6Z"/><path class="cls-5" d="M236.21,26.8c0-1.26.54-1.92,1.56-1.92a2,2,0,0,1,.94.18.74.74,0,0,1-.21.51,1.53,1.53,0,0,0-.61-.11c-.67,0-.95.42-.95,1.34s.3,1.32,1,1.32a1.58,1.58,0,0,0,.65-.13.74.74,0,0,1,.21.5,1.93,1.93,0,0,1-1,.22C236.75,28.71,236.21,28.06,236.21,26.8Z"/><path class="cls-5" d="M238.42,30.32a.45.45,0,0,1,0-.16.69.69,0,0,1,.08-.36,1.2,1.2,0,0,0,.26,0c.35,0,.53-.18.53-.61V25a1.06,1.06,0,0,1,.35,0,1.3,1.3,0,0,1,.35,0v4.27c0,.75-.36,1.13-1,1.13A1.43,1.43,0,0,1,238.42,30.32Zm.81-6.13v-.64a1.42,1.42,0,0,1,.38,0,1.26,1.26,0,0,1,.36,0v.64a1.26,1.26,0,0,1-.36,0A1.42,1.42,0,0,1,239.23,24.19Z"/><path class="cls-5" d="M243.39,27h-2.11c0,.83.38,1.11,1,1.11a1.59,1.59,0,0,0,.81-.21.74.74,0,0,1,.24.5l-.14.11c-.53.46-.78.95-.69,1.21a.23.23,0,0,0,.22.17.9.9,0,0,0,.28-.08.64.64,0,0,1,.17.41,1.17,1.17,0,0,1-.63.16.6.6,0,0,1-.66-.42c-.12-.41.16-.88.63-1.28a2,2,0,0,1-.36,0c-1,0-1.57-.64-1.57-1.92s.62-1.91,1.55-1.91a1.25,1.25,0,0,1,1.36,1.4A3,3,0,0,1,243.39,27Zm-2.11-.47h1.52a3.28,3.28,0,0,0,0-.34c0-.43-.19-.78-.7-.78S241.32,25.74,241.28,26.54Z"/><path class="cls-5" d="M61.42,35.19c0,1.44-.52,1.92-1.33,1.92a1.11,1.11,0,0,1-1-.48v2a1.55,1.55,0,0,1-.7,0V33.39a1.55,1.55,0,0,1,.7,0v.37a1.11,1.11,0,0,1,1-.48C60.89,33.28,61.42,33.76,61.42,35.19Zm-.73,0c0-1-.27-1.34-.84-1.34a.81.81,0,0,0-.78.88v.91a.83.83,0,0,0,.78.91C60.42,36.55,60.69,36.24,60.69,35.19Z"/><path class="cls-5" d="M63.08,34.28V37a1.22,1.22,0,0,1-.35,0,1.06,1.06,0,0,1-.35,0V34.68L61.9,35s-.07,0-.14-.16a.49.49,0,0,1-.09-.22l.71-.41V31.83a1.06,1.06,0,0,1,.35,0,1.22,1.22,0,0,1,.35,0v1.94l.51-.3a.57.57,0,0,1,.14.17.55.55,0,0,1,.08.22Z"/><path class="cls-5" d="M67.26,33.39l-1.39,4.23c-.23.75-.5,1.17-1.23,1.17a1.56,1.56,0,0,1-.46-.06.69.69,0,0,1,0-.54,1.13,1.13,0,0,0,.32,0c.34,0,.52-.11.72-.72l.15-.47a.78.78,0,0,1-.22,0l-1.33-3.61a1.26,1.26,0,0,1,.36,0,1.17,1.17,0,0,1,.36,0l.82,2.15a6.33,6.33,0,0,1,.24.82h0a6.39,6.39,0,0,1,.22-.82l.71-2.15a1.22,1.22,0,0,1,.35,0A1.27,1.27,0,0,1,67.26,33.39Z"/><path class="cls-5" d="M69.64,36.81a.64.64,0,0,1,0,.24,1.87,1.87,0,0,1-.54.06c-.86,0-1.18-.45-1.18-1.34V33.88h-.53a.76.76,0,0,1,0-.26.72.72,0,0,1,0-.27h.53v-.67a1.21,1.21,0,0,1,.7-.13v.8h.92a.9.9,0,0,1,0,.26,1.13,1.13,0,0,1,0,.27h-.92v1.86c0,.61.19.81.68.81l.32,0A.58.58,0,0,1,69.64,36.81Z"/><path class="cls-5" d="M73,37a1.77,1.77,0,0,1-.39,0,1.66,1.66,0,0,1-.39,0l-1-1.62h-.44V37a1.22,1.22,0,0,1-.35,0A1.3,1.3,0,0,1,70,37V31.83a1.55,1.55,0,0,1,.7,0v3h.45l.93-1.46a1.38,1.38,0,0,1,.37,0,1.4,1.4,0,0,1,.35,0l-1.06,1.68Z"/><path class="cls-5" d="M73.29,32.59V32a1.3,1.3,0,0,1,.37,0A1.42,1.42,0,0,1,74,32v.63a1.42,1.42,0,0,1-.38,0A1.3,1.3,0,0,1,73.29,32.59Zm0,4.41V33.39a1.14,1.14,0,0,1,.35,0,1.22,1.22,0,0,1,.35,0V37a1.22,1.22,0,0,1-.35,0A1.14,1.14,0,0,1,73.31,37Z"/><path class="cls-5" d="M76.07,37V33.39a1.14,1.14,0,0,1,.35,0,1.22,1.22,0,0,1,.35,0v.37a1.43,1.43,0,0,1,1.09-.48,1,1,0,0,1,1.08,1V37a1.3,1.3,0,0,1-.35,0,1.26,1.26,0,0,1-.36,0V34.47c0-.4-.2-.62-.65-.62a1,1,0,0,0-.81.48V37a1.22,1.22,0,0,1-.35,0A1.14,1.14,0,0,1,76.07,37Z"/><path class="cls-5" d="M82.29,34.66V37A.85.85,0,0,1,82,37a.93.93,0,0,1-.29,0l-.09-.47a1.13,1.13,0,0,1-1.11.58A1,1,0,0,1,79.42,36c0-.76.46-1.1,1.36-1.1.32,0,.62,0,.81,0v-.29a.65.65,0,0,0-.74-.74,2.93,2.93,0,0,0-.94.17.52.52,0,0,1-.16-.21.71.71,0,0,1,0-.29,3.15,3.15,0,0,1,1.24-.26C82,33.28,82.29,33.75,82.29,34.66Zm-.7,1v-.26c-.16,0-.45,0-.72,0-.49,0-.73.18-.73.65a.55.55,0,0,0,.61.63A.87.87,0,0,0,81.59,35.62Z"/><path class="cls-5" d="M85.47,36.76a.68.68,0,0,1,0,.28H82.8a1.14,1.14,0,0,1,0-.3.89.89,0,0,1,0-.26l1.87-2.56H82.92a.93.93,0,0,1,0-.29.82.82,0,0,1,0-.28h2.5a1,1,0,0,1,0,.27,1.21,1.21,0,0,1,0,.3l-1.87,2.56h1.87A.62.62,0,0,1,85.47,36.76Z"/><path class="cls-5" d="M88.69,35.41H86.58c0,.84.38,1.11,1,1.11a1.6,1.6,0,0,0,.82-.21.74.74,0,0,1,.24.5l-.15.11c-.52.46-.77.95-.68,1.21a.22.22,0,0,0,.21.17.65.65,0,0,0,.28-.08.6.6,0,0,1,.18.41,1.23,1.23,0,0,1-.63.16.59.59,0,0,1-.66-.42c-.12-.41.16-.88.62-1.28a1.89,1.89,0,0,1-.35,0c-1.05,0-1.57-.64-1.57-1.92s.61-1.91,1.54-1.91a1.24,1.24,0,0,1,1.36,1.4A3.42,3.42,0,0,1,88.69,35.41Zm-2.12-.47h1.52a1.78,1.78,0,0,0,0-.34c0-.43-.19-.78-.7-.78S86.62,34.14,86.57,34.94Z"/><path class="cls-5" d="M92.38,35.2c0,1.43-.53,1.91-1.34,1.91a1.13,1.13,0,0,1-1-.47V37a1.55,1.55,0,0,1-.7,0V31.83a1.55,1.55,0,0,1,.7,0v1.93a1.14,1.14,0,0,1,1-.48C91.85,33.28,92.38,33.77,92.38,35.2Zm-.74,0c0-1-.27-1.35-.84-1.35a.82.82,0,0,0-.78.89v.9a.82.82,0,0,0,.78.91C91.37,36.55,91.64,36.22,91.64,35.2Z"/><path class="cls-5" d="M93,37V33.39a1.14,1.14,0,0,1,.35,0,1.22,1.22,0,0,1,.35,0v.37a1.43,1.43,0,0,1,1.09-.48,1,1,0,0,1,1.08,1V37a1.3,1.3,0,0,1-.35,0,1.14,1.14,0,0,1-.35,0V34.47c0-.4-.21-.62-.66-.62a1,1,0,0,0-.81.48V37a1.22,1.22,0,0,1-.35,0A1.14,1.14,0,0,1,93,37Z"/><path class="cls-5" d="M99.21,35.41h-2.1c0,.84.37,1.11,1,1.11a1.6,1.6,0,0,0,.82-.21.74.74,0,0,1,.23.5,2.07,2.07,0,0,1-1.18.3c-1,0-1.57-.64-1.57-1.92s.62-1.91,1.55-1.91a1.24,1.24,0,0,1,1.36,1.4A3,3,0,0,1,99.21,35.41Zm-2.11-.47h1.52a3.28,3.28,0,0,0,0-.34c0-.43-.19-.78-.7-.78S97.15,34.14,97.1,34.94Z"/><path class="cls-5" d="M99,38.72a.45.45,0,0,1,0-.16.69.69,0,0,1,.08-.36,1.24,1.24,0,0,0,.27,0c.34,0,.52-.18.52-.61V33.39a1.06,1.06,0,0,1,.35,0,1.22,1.22,0,0,1,.35,0v4.27c0,.75-.36,1.13-1,1.13A1.5,1.5,0,0,1,99,38.72Zm.81-6.13V32a1.42,1.42,0,0,1,.38,0,1.26,1.26,0,0,1,.36,0v.64a1.26,1.26,0,0,1-.36,0A1.42,1.42,0,0,1,99.84,32.59Z"/><path class="cls-5" d="M102.62,32.59V32a1.3,1.3,0,0,1,.37,0,1.42,1.42,0,0,1,.38,0v.63a1.42,1.42,0,0,1-.38,0A1.3,1.3,0,0,1,102.62,32.59Zm0,4.41V33.39a1.14,1.14,0,0,1,.35,0,1.22,1.22,0,0,1,.35,0V37a1.22,1.22,0,0,1-.35,0A1.14,1.14,0,0,1,102.64,37Z"/><path class="cls-5" d="M105.25,35.19c0-1.38.6-1.91,1.56-1.91s1.57.53,1.57,1.91-.6,1.92-1.57,1.92S105.25,36.59,105.25,35.19Zm2.41,0c0-1.07-.33-1.37-.85-1.37s-.84.3-.84,1.37.33,1.38.84,1.38S107.66,36.27,107.66,35.19Z"/><path class="cls-5" d="M112,33.84l-.57,0a1.38,1.38,0,0,1,.19.72c0,.77-.48,1.25-1.39,1.25l-.32,0a.62.62,0,0,0-.14.43c.07.65,2.22-.05,2.22,1.39,0,.69-.65,1.2-1.81,1.2s-1.51-.4-1.51-1a1.21,1.21,0,0,1,.62-1,.54.54,0,0,1-.15-.41,1.21,1.21,0,0,1,.35-.78,1.13,1.13,0,0,1-.65-1.11,1.22,1.22,0,0,1,1.39-1.26,1.74,1.74,0,0,1,.79.18l1-.17A.8.8,0,0,1,112,33.84ZM109.66,37a.84.84,0,0,0-.33.63c0,.38.26.63.84.63.73,0,1.13-.25,1.13-.63C111.3,37.06,110.3,37.22,109.66,37Zm1.26-2.51c0-.53-.28-.77-.71-.77a.67.67,0,0,0-.71.77c0,.54.29.78.71.78S110.92,35.07,110.92,34.53Z"/><path class="cls-5" d="M112.42,37V33.39a1.14,1.14,0,0,1,.35,0,.92.92,0,0,1,.33,0v.51a1,1,0,0,1,.9-.61,1.07,1.07,0,0,1,.6.17.82.82,0,0,1-.31.59.65.65,0,0,0-.43-.14.94.94,0,0,0-.75.56V37a1.22,1.22,0,0,1-.35,0A1.14,1.14,0,0,1,112.42,37Z"/><path class="cls-5" d="M117.57,34.66V37a.75.75,0,0,1-.28,0,.85.85,0,0,1-.29,0l-.1-.47a1.11,1.11,0,0,1-1.1.58A1,1,0,0,1,114.71,36c0-.76.45-1.1,1.35-1.1a7.86,7.86,0,0,1,.81,0v-.29c0-.49-.21-.74-.74-.74a2.93,2.93,0,0,0-.94.17.55.55,0,0,1-.15-.21.56.56,0,0,1-.05-.29,3.15,3.15,0,0,1,1.24-.26C117.25,33.28,117.57,33.75,117.57,34.66Zm-.7,1v-.26c-.16,0-.44,0-.71,0-.49,0-.74.18-.74.65a.55.55,0,0,0,.61.63A.87.87,0,0,0,116.87,35.62Z"/><path class="cls-5" d="M118.29,37V33.39a1.14,1.14,0,0,1,.35,0,1.22,1.22,0,0,1,.35,0v.37a1.41,1.41,0,0,1,1.08-.48,1,1,0,0,1,1.08,1V37a1.22,1.22,0,0,1-.35,0,1.14,1.14,0,0,1-.35,0V34.47c0-.4-.21-.62-.65-.62a1,1,0,0,0-.81.48V37a1.22,1.22,0,0,1-.35,0A1.14,1.14,0,0,1,118.29,37Z"/><path class="cls-5" d="M121.86,32.59V32a1.3,1.3,0,0,1,.37,0,1.52,1.52,0,0,1,.38,0v.63a1.52,1.52,0,0,1-.38,0A1.3,1.3,0,0,1,121.86,32.59Zm0,4.41V33.39a1.06,1.06,0,0,1,.35,0,1.22,1.22,0,0,1,.35,0V37a1.22,1.22,0,0,1-.35,0A1.14,1.14,0,0,1,121.88,37Z"/><path class="cls-5" d="M123.18,35.2c0-1.26.53-1.92,1.55-1.92a1.91,1.91,0,0,1,.94.18.66.66,0,0,1-.21.51,1.51,1.51,0,0,0-.6-.11c-.67,0-1,.42-1,1.34s.3,1.32,1,1.32a1.56,1.56,0,0,0,.64-.13.66.66,0,0,1,.21.5,1.93,1.93,0,0,1-1,.22C123.71,37.11,123.18,36.46,123.18,35.2Z"/><path class="cls-5" d="M128.68,36.76a.68.68,0,0,1-.05.28H126a.84.84,0,0,1,0-.3.89.89,0,0,1,0-.26l1.87-2.56h-1.75a.76.76,0,0,1,0-.29.68.68,0,0,1,0-.28h2.49a1,1,0,0,1,0,.27,1.21,1.21,0,0,1,0,.3l-1.87,2.56h1.88A.62.62,0,0,1,128.68,36.76Z"/><path class="cls-5" d="M131.85,34.66V37a.75.75,0,0,1-.28,0,.93.93,0,0,1-.29,0l-.1-.47a1.11,1.11,0,0,1-1.11.58A1,1,0,0,1,129,36c0-.76.46-1.1,1.35-1.1a7.86,7.86,0,0,1,.81,0v-.29c0-.49-.21-.74-.74-.74a2.93,2.93,0,0,0-.94.17.7.7,0,0,1-.15-.21.71.71,0,0,1,0-.29,3.15,3.15,0,0,1,1.24-.26C131.53,33.28,131.85,33.75,131.85,34.66Zm-.7,1v-.26c-.16,0-.44,0-.71,0-.49,0-.74.18-.74.65a.55.55,0,0,0,.61.63A.87.87,0,0,0,131.15,35.62Z"/><path class="cls-5" d="M133.66,36.86a.62.62,0,0,1,.18-.5,2.85,2.85,0,0,0,1,.17c.46,0,.73-.16.73-.52s-.41-.47-.83-.59-1-.36-1-1,.43-1.1,1.32-1.1a2.26,2.26,0,0,1,1,.19.61.61,0,0,1-.18.49,2.73,2.73,0,0,0-.75-.12c-.49,0-.73.19-.73.51s.43.44.87.58,1,.36,1,1.06-.44,1.12-1.36,1.12A2.82,2.82,0,0,1,133.66,36.86Z"/><path class="cls-5" d="M138.73,36.81a.83.83,0,0,1,0,.24,1.87,1.87,0,0,1-.54.06c-.87,0-1.18-.45-1.18-1.34V33.88h-.54a.76.76,0,0,1,0-.26.72.72,0,0,1,0-.27H137v-.67a1.19,1.19,0,0,1,.7-.13v.8h.91a.7.7,0,0,1,0,.26.87.87,0,0,1,0,.27h-.91v1.86c0,.61.19.81.68.81l.32,0A.68.68,0,0,1,138.73,36.81Z"/><path class="cls-5" d="M141.75,34.66V37a.82.82,0,0,1-.28,0,.85.85,0,0,1-.29,0l-.1-.47a1.13,1.13,0,0,1-1.11.58A1,1,0,0,1,138.89,36c0-.76.45-1.1,1.35-1.1a7.86,7.86,0,0,1,.81,0v-.29a.65.65,0,0,0-.74-.74,2.93,2.93,0,0,0-.94.17.45.45,0,0,1-.15-.21.56.56,0,0,1-.05-.29,3.15,3.15,0,0,1,1.24-.26C141.43,33.28,141.75,33.75,141.75,34.66Zm-.7,1v-.26c-.16,0-.45,0-.71,0-.49,0-.74.18-.74.65a.55.55,0,0,0,.61.63A.87.87,0,0,0,141.05,35.62Z"/><path class="cls-5" d="M142.47,37V33.39a1.1,1.1,0,0,1,.34,0,1.14,1.14,0,0,1,.35,0v.37a1.43,1.43,0,0,1,1.09-.48,1,1,0,0,1,1.08,1V37a1.3,1.3,0,0,1-.35,0,1.14,1.14,0,0,1-.35,0V34.47c0-.4-.21-.62-.65-.62a1,1,0,0,0-.82.48V37a1.14,1.14,0,0,1-.35,0A1.1,1.1,0,0,1,142.47,37Z"/><path class="cls-5" d="M149.82,36.76a.68.68,0,0,1,0,.28h-2.62a.84.84,0,0,1,0-.3.89.89,0,0,1,0-.26L149,33.92h-1.75a.76.76,0,0,1-.05-.29.68.68,0,0,1,.05-.28h2.49a1,1,0,0,1,0,.27,1.21,1.21,0,0,1,0,.3l-1.87,2.56h1.88A.62.62,0,0,1,149.82,36.76Z"/><path class="cls-5" d="M153,34.66V37a.75.75,0,0,1-.28,0,.85.85,0,0,1-.29,0l-.1-.47a1.11,1.11,0,0,1-1.1.58A1,1,0,0,1,150.13,36c0-.76.45-1.1,1.35-1.1a7.86,7.86,0,0,1,.81,0v-.29c0-.49-.21-.74-.74-.74a2.93,2.93,0,0,0-.94.17.55.55,0,0,1-.15-.21.56.56,0,0,1-.05-.29,3.15,3.15,0,0,1,1.24-.26C152.67,33.28,153,33.75,153,34.66Zm-.7,1v-.26c-.16,0-.44,0-.71,0-.49,0-.74.18-.74.65a.55.55,0,0,0,.61.63A.87.87,0,0,0,152.29,35.62Z"/><path class="cls-5" d="M156.76,35.19c0,1.44-.53,1.92-1.33,1.92a1.11,1.11,0,0,1-1-.48v2a1.22,1.22,0,0,1-.35,0,1.14,1.14,0,0,1-.35,0V33.39a1.14,1.14,0,0,1,.35,0,1.22,1.22,0,0,1,.35,0v.37a1.11,1.11,0,0,1,1-.48C156.23,33.28,156.76,33.76,156.76,35.19Zm-.74,0c0-1-.26-1.34-.84-1.34a.8.8,0,0,0-.77.88v.91a.82.82,0,0,0,.77.91C155.76,36.55,156,36.24,156,35.19Z"/><path class="cls-5" d="M160,34.66V37a.75.75,0,0,1-.28,0,.85.85,0,0,1-.29,0l-.1-.47a1.11,1.11,0,0,1-1.1.58A1,1,0,0,1,157.13,36c0-.76.45-1.1,1.35-1.1a7.86,7.86,0,0,1,.81,0v-.29c0-.49-.21-.74-.74-.74a2.93,2.93,0,0,0-.94.17.55.55,0,0,1-.15-.21.56.56,0,0,1-.05-.29,3.15,3.15,0,0,1,1.24-.26C159.67,33.28,160,33.75,160,34.66Zm-.7,1v-.26c-.16,0-.44,0-.71,0-.49,0-.74.18-.74.65a.55.55,0,0,0,.61.63A.87.87,0,0,0,159.29,35.62Z"/><path class="cls-5" d="M160.73,37V31.83a1.14,1.14,0,0,1,.35,0,1.22,1.22,0,0,1,.35,0V37a1.22,1.22,0,0,1-.35,0A1.14,1.14,0,0,1,160.73,37Z"/><path class="cls-5" d="M162.2,37V33.39a1.14,1.14,0,0,1,.35,0,1.22,1.22,0,0,1,.35,0v.37a1.41,1.41,0,0,1,1.08-.48,1,1,0,0,1,1.08,1V37a1.22,1.22,0,0,1-.35,0,1.14,1.14,0,0,1-.35,0V34.47c0-.4-.21-.62-.65-.62a1,1,0,0,0-.81.48V37a1.22,1.22,0,0,1-.35,0A1.14,1.14,0,0,1,162.2,37Z"/><path class="cls-5" d="M168.85,33.39l-1.39,4.23c-.24.75-.5,1.17-1.23,1.17a1.56,1.56,0,0,1-.46-.06.69.69,0,0,1,0-.54,1.13,1.13,0,0,0,.32,0c.34,0,.52-.11.72-.72L167,37a.78.78,0,0,1-.22,0l-1.33-3.61a1.26,1.26,0,0,1,.36,0,1.17,1.17,0,0,1,.36,0l.82,2.15a6.33,6.33,0,0,1,.24.82h0a8,8,0,0,1,.23-.82l.71-2.15a1.22,1.22,0,0,1,.35,0A1.27,1.27,0,0,1,168.85,33.39Z"/><path class="cls-5" d="M173.43,31.83V37a1,1,0,0,1-.3,0,1.07,1.07,0,0,1-.31,0l0-.4a1.15,1.15,0,0,1-1.05.51c-.81,0-1.33-.48-1.33-1.91s.51-1.92,1.33-1.92a1.12,1.12,0,0,1,1,.48V31.83a1.26,1.26,0,0,1,.36,0A1.1,1.1,0,0,1,173.43,31.83Zm-.7,3.83v-.93a.81.81,0,0,0-.77-.88c-.57,0-.84.32-.84,1.35s.27,1.35.84,1.35A.81.81,0,0,0,172.73,35.66Z"/><path class="cls-5" d="M176.65,36.76a.68.68,0,0,1-.05.28H174a.84.84,0,0,1,0-.3.89.89,0,0,1,0-.26l1.87-2.56H174.1a.76.76,0,0,1,0-.29.68.68,0,0,1,0-.28h2.49a1,1,0,0,1,0,.27,1.21,1.21,0,0,1,0,.3l-1.87,2.56h1.88A.62.62,0,0,1,176.65,36.76Z"/><path class="cls-5" d="M177.18,32.59V32a1.3,1.3,0,0,1,.37,0,1.52,1.52,0,0,1,.38,0v.63a1.52,1.52,0,0,1-.38,0A1.3,1.3,0,0,1,177.18,32.59Zm0,4.41V33.39a1.06,1.06,0,0,1,.35,0,1.22,1.22,0,0,1,.35,0V37a1.22,1.22,0,0,1-.35,0A1.14,1.14,0,0,1,177.2,37Z"/><path class="cls-5" d="M181.3,38.63a1.17,1.17,0,0,1-.63.16c-.43,0-.69-.21-.69-.61a1.71,1.71,0,0,1,.75-1.18l-.12-.45a1.11,1.11,0,0,1-1.1.56A1,1,0,0,1,178.43,36c0-.76.46-1.1,1.35-1.1a7.86,7.86,0,0,1,.81,0v-.29c0-.49-.21-.74-.74-.74a2.93,2.93,0,0,0-.94.17.45.45,0,0,1-.15-.21.71.71,0,0,1,0-.29,3.15,3.15,0,0,1,1.24-.26c1,0,1.34.47,1.34,1.38V37a1.65,1.65,0,0,0-.67,1,.23.23,0,0,0,.23.26.69.69,0,0,0,.28-.08A.64.64,0,0,1,181.3,38.63Zm-.71-3v-.26c-.15,0-.44,0-.71,0-.49,0-.74.18-.74.65a.55.55,0,0,0,.61.63A.87.87,0,0,0,180.59,35.62Z"/><path class="cls-5" d="M181.8,36.86a.62.62,0,0,1,.18-.5,2.85,2.85,0,0,0,1,.17c.46,0,.73-.16.73-.52s-.41-.47-.83-.59-1-.36-1-1,.43-1.1,1.32-1.1a2.29,2.29,0,0,1,1,.19A.61.61,0,0,1,184,34a2.73,2.73,0,0,0-.75-.12c-.49,0-.73.19-.73.51s.43.44.87.58,1,.36,1,1.06-.43,1.12-1.36,1.12A2.81,2.81,0,0,1,181.8,36.86Z"/><path class="cls-5" d="M187.55,35.41h-2.11c.06.84.38,1.11,1,1.11a1.65,1.65,0,0,0,.82-.21.74.74,0,0,1,.23.5,2.07,2.07,0,0,1-1.18.3c-1,0-1.57-.64-1.57-1.92s.62-1.91,1.55-1.91a1.24,1.24,0,0,1,1.36,1.4A3,3,0,0,1,187.55,35.41Zm-2.11-.47H187a3.28,3.28,0,0,0,0-.34c0-.43-.19-.78-.7-.78S185.49,34.14,185.44,34.94Z"/><path class="cls-5" d="M189.25,34.28V37a1.22,1.22,0,0,1-.35,0,1.14,1.14,0,0,1-.35,0V34.68l-.48.28s-.07,0-.14-.16a.49.49,0,0,1-.09-.22l.71-.41V31.83a1.14,1.14,0,0,1,.35,0,1.22,1.22,0,0,1,.35,0v1.94l.51-.3a.57.57,0,0,1,.14.17.55.55,0,0,1,.08.22Z"/><path class="cls-5" d="M190.07,33.41a4,4,0,0,1,.57-2,.28.28,0,0,1,.16,0,.36.36,0,0,1,.13.12,3.57,3.57,0,0,0-.47,1.84,3.62,3.62,0,0,0,.47,1.84.27.27,0,0,1-.13.12.43.43,0,0,1-.16,0A4,4,0,0,1,190.07,33.41Z"/><path class="cls-5" d="M192.79,34.35a.43.43,0,0,1,0,.36h-1.66a1.4,1.4,0,0,1,0-.28c0-.63.41-.85.78-1.09s.56-.38.56-.68-.15-.43-.53-.43a1.62,1.62,0,0,0-.6.12.36.36,0,0,1-.12-.3,2,2,0,0,1,.78-.15c.51,0,.9.21.9.74s-.29.68-.77,1c-.25.15-.59.29-.6.64,0,0,0,.07,0,.1Z"/><path class="cls-5" d="M193.18,35.37a.28.28,0,0,1-.12-.12,3.62,3.62,0,0,0,.47-1.84,3.57,3.57,0,0,0-.47-1.84.28.28,0,0,1,.12-.12.32.32,0,0,1,.17,0,4,4,0,0,1,.57,2,4,4,0,0,1-.57,2A.51.51,0,0,1,193.18,35.37Z"/></svg>