<svg id="Warstwa_1" data-name="Warstwa 1" xmlns="http://www.w3.org/2000/svg" xmlns:xlink="http://www.w3.org/1999/xlink" viewBox="0 0 450 50"><defs><style>.cls-1,.cls-4{fill:none;}.cls-2{clip-path:url(#clip-path);}.cls-3{fill:url(#Gradient_bez_nazwy_2);}.cls-4{stroke:#fff;stroke-miterlimit:10;}.cls-5{fill:#0056a3;}</style><clipPath id="clip-path"><polygon class="cls-1" points="33.63 43.01 301.31 43.01 301.31 6.88 33.63 6.88 33.63 17.94 38.45 25.36 33.63 32.64 33.63 43.01"/></clipPath><linearGradient id="Gradient_bez_nazwy_2" x1="-987.02" y1="323.73" x2="-986.3" y2="323.73" gradientTransform="matrix(372.44, 0, 0, -372.44, 367635.76, 120592.08)" gradientUnits="userSpaceOnUse"><stop offset="0" stop-color="#ccd513"/><stop offset="0.01" stop-color="#ccd513"/><stop offset="0.01" stop-color="#ccd513"/><stop offset="0.39" stop-color="#ccd515"/><stop offset="0.52" stop-color="#ced71c"/><stop offset="0.62" stop-color="#d0d927"/><stop offset="0.69" stop-color="#d4dc38"/><stop offset="0.76" stop-color="#d9e04e"/><stop offset="0.82" stop-color="#dfe46a"/><stop offset="0.87" stop-color="#e6ea8a"/><stop offset="0.92" stop-color="#eef1b0"/><stop offset="0.97" stop-color="#f7f8d9"/><stop offset="1" stop-color="#fff"/></linearGradient></defs><title>antyseptyka_w_chirurgii</title><g class="cls-2"><rect class="cls-3" x="33.63" y="6.77" width="267.67" height="36.13"/></g><polyline class="cls-4" points="35.03 6.89 35.03 17.57 35.03 17.47 40.1 25.23 35.03 33.02 35.03 43.12"/><path class="cls-5" d="M62.37,22.94A1.34,1.34,0,0,1,62,23a1.07,1.07,0,0,1-.35,0l-.45-1.23H59.12l-.46,1.23a1.07,1.07,0,0,1-.35,0,.93.93,0,0,1-.33,0L59.74,18a1.78,1.78,0,0,1,.43-.05,1.64,1.64,0,0,1,.43.05ZM59.3,21.15H61l-.67-1.85a5.1,5.1,0,0,1-.16-.6h0a4.28,4.28,0,0,1-.15.6Z"/><path class="cls-5" d="M62.71,23V19.34a1.14,1.14,0,0,1,.35,0,1.22,1.22,0,0,1,.35,0v.37a1.37,1.37,0,0,1,1.08-.48,1,1,0,0,1,1.08,1.05V23a1.22,1.22,0,0,1-.35,0,1.14,1.14,0,0,1-.35,0V20.42c0-.41-.21-.62-.65-.62a1,1,0,0,0-.81.48V23a1.22,1.22,0,0,1-.35,0A1.14,1.14,0,0,1,62.71,23Z"/><path class="cls-5" d="M68.28,22.75a.87.87,0,0,1,0,.25,2.37,2.37,0,0,1-.54.06c-.87,0-1.19-.46-1.19-1.34v-1.9H66a.86.86,0,0,1,0-.52h.53v-.67a1.15,1.15,0,0,1,.7-.14v.81h.92a.7.7,0,0,1,0,.26.76.76,0,0,1,0,.26h-.92v1.87c0,.61.19.81.68.81a2,2,0,0,0,.32,0A.63.63,0,0,1,68.28,22.75Z"/><path class="cls-5" d="M71.73,19.34l-1.38,4.23c-.24.74-.51,1.17-1.24,1.17a1.56,1.56,0,0,1-.46-.06.71.71,0,0,1-.05-.27.61.61,0,0,1,.06-.27,1.94,1.94,0,0,0,.33,0c.33,0,.51-.11.71-.72l.16-.46a.54.54,0,0,1-.22,0l-1.34-3.6a1.34,1.34,0,0,1,.36,0,1.3,1.3,0,0,1,.37,0l.81,2.14a6,6,0,0,1,.25.83h0s.07-.34.22-.83l.72-2.14a1.1,1.1,0,0,1,.34,0A1.18,1.18,0,0,1,71.73,19.34Z"/><path class="cls-5" d="M71.91,22.81a.6.6,0,0,1,.18-.5,2.81,2.81,0,0,0,1,.17c.46,0,.73-.16.73-.52s-.41-.47-.83-.59-1-.36-1-1,.43-1.1,1.32-1.1a2.29,2.29,0,0,1,1,.19.63.63,0,0,1-.18.49,2.39,2.39,0,0,0-.75-.12c-.49,0-.73.18-.73.51s.43.43.87.58,1,.36,1,1.06S74,23.06,73.1,23.06A2.81,2.81,0,0,1,71.91,22.81Z"/><path class="cls-5" d="M77.66,21.36H75.55c.06.83.38,1.1,1,1.1a1.65,1.65,0,0,0,.82-.21.76.76,0,0,1,.23.5,2,2,0,0,1-1.18.31c-1.05,0-1.57-.64-1.57-1.93s.62-1.9,1.55-1.9a1.24,1.24,0,0,1,1.36,1.39A3.16,3.16,0,0,1,77.66,21.36Zm-2.11-.48h1.52a2.92,2.92,0,0,0,0-.33c0-.43-.19-.78-.7-.78S75.6,20.08,75.55,20.88Z"/><path class="cls-5" d="M81.35,21.14c0,1.44-.53,1.92-1.33,1.92a1.11,1.11,0,0,1-1-.48v2a1.55,1.55,0,0,1-.7,0V19.34a1.55,1.55,0,0,1,.7,0v.37a1.11,1.11,0,0,1,1-.48C80.82,19.23,81.35,19.71,81.35,21.14Zm-.73,0c0-1-.27-1.34-.85-1.34a.8.8,0,0,0-.77.88v.9a.82.82,0,0,0,.77.91C80.35,22.49,80.62,22.18,80.62,21.14Z"/><path class="cls-5" d="M83.94,22.75a.67.67,0,0,1,0,.25,2.21,2.21,0,0,1-.53.06c-.87,0-1.19-.46-1.19-1.34v-1.9h-.53a.86.86,0,0,1,0-.52h.53v-.67a1.15,1.15,0,0,1,.7-.14v.81h.92a.9.9,0,0,1,0,.26,1,1,0,0,1,0,.26h-.92v1.87c0,.61.19.81.68.81a2,2,0,0,0,.32,0A.63.63,0,0,1,83.94,22.75Z"/><path class="cls-5" d="M87.39,19.34,86,23.57c-.23.74-.5,1.17-1.23,1.17a1.56,1.56,0,0,1-.46-.06.71.71,0,0,1,0-.27.61.61,0,0,1,.06-.27,1.91,1.91,0,0,0,.32,0c.34,0,.52-.11.72-.72l.15-.46a.54.54,0,0,1-.21,0L84,19.34a1.34,1.34,0,0,1,.36,0,1.3,1.3,0,0,1,.37,0l.81,2.14a5.06,5.06,0,0,1,.24.83h0s.07-.34.22-.83l.72-2.14a1.1,1.1,0,0,1,.34,0A1.18,1.18,0,0,1,87.39,19.34Z"/><path class="cls-5" d="M90.74,22.94a1.47,1.47,0,0,1-.4,0,1.32,1.32,0,0,1-.38,0l-1-1.61h-.45V23a1.1,1.1,0,0,1-.34,0,1.44,1.44,0,0,1-.36,0V17.77a1.89,1.89,0,0,1,.36,0,1.79,1.79,0,0,1,.34,0v3h.46l.93-1.46a1.34,1.34,0,0,1,.36,0,1.44,1.44,0,0,1,.36,0L89.52,21Z"/><path class="cls-5" d="M93.7,20.6V23a.85.85,0,0,1-.29,0,.93.93,0,0,1-.29,0L93,22.48a1.13,1.13,0,0,1-1.11.58,1,1,0,0,1-1.09-1.16c0-.75.46-1.09,1.36-1.09.32,0,.62,0,.81,0v-.29c0-.5-.22-.74-.74-.74a2.93,2.93,0,0,0-.94.17.52.52,0,0,1-.16-.21.73.73,0,0,1,0-.3,3.25,3.25,0,0,1,1.24-.25C93.38,19.23,93.7,19.69,93.7,20.6Zm-.7,1v-.26c-.16,0-.45,0-.72,0-.49,0-.73.18-.73.64s.23.64.61.64A.87.87,0,0,0,93,21.57Z"/><path class="cls-5" d="M96.43,23l-1.05-3.61a1.22,1.22,0,0,1,.35,0,.79.79,0,0,1,.31,0l.65,2.17a3.81,3.81,0,0,1,.15.77h0a4.79,4.79,0,0,1,.16-.77l.65-2.17a1.69,1.69,0,0,1,.37,0,1.22,1.22,0,0,1,.35,0L99,21.5a4.76,4.76,0,0,1,.15.78h0a5.38,5.38,0,0,1,.17-.77l.65-2.17a1,1,0,0,1,.31,0,.92.92,0,0,1,.31,0L99.57,23a2.15,2.15,0,0,1-.4,0,2.23,2.23,0,0,1-.39,0l-.56-1.89a4.46,4.46,0,0,1-.2-1h0a4.05,4.05,0,0,1-.21,1L97.23,23a2.13,2.13,0,0,1-.39,0A2.48,2.48,0,0,1,96.43,23Z"/><path class="cls-5" d="M102.17,21.15c0-1.26.54-1.92,1.56-1.92a2,2,0,0,1,.94.18.74.74,0,0,1-.21.51,1.48,1.48,0,0,0-.61-.12c-.67,0-.95.43-.95,1.35s.3,1.31,1,1.31a1.69,1.69,0,0,0,.65-.12.74.74,0,0,1,.21.5,1.93,1.93,0,0,1-1,.22C102.71,23.06,102.17,22.41,102.17,21.15Z"/><path class="cls-5" d="M108.06,20.28V23a1.22,1.22,0,0,1-.35,0,1.14,1.14,0,0,1-.35,0V20.42c0-.41-.21-.62-.65-.62a1,1,0,0,0-.81.48V23a1.22,1.22,0,0,1-.35,0,1.14,1.14,0,0,1-.35,0V17.78a1.14,1.14,0,0,1,.35,0,1.22,1.22,0,0,1,.35,0v1.91a1.42,1.42,0,0,1,1.08-.46A1,1,0,0,1,108.06,20.28Z"/><path class="cls-5" d="M108.77,18.54v-.63a1.05,1.05,0,0,1,.37-.05,1.23,1.23,0,0,1,.38.05v.63a1.52,1.52,0,0,1-.38,0A1.3,1.3,0,0,1,108.77,18.54Zm0,4.41V19.34a1.06,1.06,0,0,1,.35,0,1.22,1.22,0,0,1,.35,0V23a1.22,1.22,0,0,1-.35,0A1.14,1.14,0,0,1,108.79,23Z"/><path class="cls-5" d="M110.24,23V19.34a1.22,1.22,0,0,1,.35,0,.92.92,0,0,1,.33,0v.51a1,1,0,0,1,.9-.61,1.11,1.11,0,0,1,.61.17.86.86,0,0,1-.31.58.7.7,0,0,0-.44-.14,1,1,0,0,0-.75.57V23a1.55,1.55,0,0,1-.7,0Z"/><path class="cls-5" d="M115.6,19.34V23a1.14,1.14,0,0,1-.35,0,1.22,1.22,0,0,1-.35,0v-.37a1.39,1.39,0,0,1-1.09.48,1,1,0,0,1-1.07-1V19.34a1.55,1.55,0,0,1,.7,0v2.54c0,.4.21.62.65.62a1,1,0,0,0,.81-.49V19.34a1.55,1.55,0,0,1,.7,0Z"/><path class="cls-5" d="M116.33,23V19.34a1.22,1.22,0,0,1,.35,0,.92.92,0,0,1,.33,0v.51a1,1,0,0,1,.9-.61,1.11,1.11,0,0,1,.61.17.86.86,0,0,1-.31.58.7.7,0,0,0-.44-.14,1,1,0,0,0-.75.57V23a1.55,1.55,0,0,1-.7,0Z"/><path class="cls-5" d="M121.87,19.78h-.58a1.23,1.23,0,0,1,.19.71c0,.78-.48,1.26-1.39,1.26l-.31,0a.6.6,0,0,0-.15.42c.07.65,2.23-.05,2.23,1.4,0,.68-.65,1.2-1.81,1.2s-1.51-.41-1.51-1a1.2,1.2,0,0,1,.61-1,.59.59,0,0,1-.15-.42,1.18,1.18,0,0,1,.35-.77,1.14,1.14,0,0,1-.64-1.12,1.21,1.21,0,0,1,1.38-1.25,1.78,1.78,0,0,1,.8.17l1-.16A.9.9,0,0,1,121.87,19.78ZM119.54,23a.88.88,0,0,0-.33.64c0,.37.27.62.85.62.73,0,1.13-.25,1.13-.63C121.19,23,120.18,23.17,119.54,23Zm1.26-2.5c0-.53-.28-.77-.71-.77s-.7.24-.7.77.28.78.7.78S120.8,21,120.8,20.48Z"/><path class="cls-5" d="M122.3,18.54v-.63a1.05,1.05,0,0,1,.37-.05,1.23,1.23,0,0,1,.38.05v.63a1.52,1.52,0,0,1-.38,0A1.3,1.3,0,0,1,122.3,18.54Zm0,4.41V19.34a1.06,1.06,0,0,1,.35,0,1.22,1.22,0,0,1,.35,0V23a1.22,1.22,0,0,1-.35,0A1.14,1.14,0,0,1,122.32,23Z"/><path class="cls-5" d="M123.77,18.54v-.63a1.05,1.05,0,0,1,.37-.05,1.16,1.16,0,0,1,.38.05v.63a1.42,1.42,0,0,1-.38,0A1.3,1.3,0,0,1,123.77,18.54Zm0,4.41V19.34a1.06,1.06,0,0,1,.35,0,1.22,1.22,0,0,1,.35,0V23a1.22,1.22,0,0,1-.35,0A1.14,1.14,0,0,1,123.79,23Z"/><path class="cls-5" d="M126.54,18.54v-.63a1.05,1.05,0,0,1,.37-.05,1.16,1.16,0,0,1,.38.05v.63a1.42,1.42,0,0,1-.38,0A1.3,1.3,0,0,1,126.54,18.54Zm0,4.41V19.34a1.14,1.14,0,0,1,.35,0,1.22,1.22,0,0,1,.35,0V23a1.22,1.22,0,0,1-.35,0A1.14,1.14,0,0,1,126.56,23Z"/><path class="cls-5" d="M128,23V19.34a1.14,1.14,0,0,1,.35,0,1.22,1.22,0,0,1,.35,0v.36a1.31,1.31,0,0,1,1-.47.9.9,0,0,1,.91.55,1.4,1.4,0,0,1,1.16-.55,1,1,0,0,1,1,1.06V23a1.3,1.3,0,0,1-.35,0,1.14,1.14,0,0,1-.35,0V20.42c0-.41-.19-.62-.6-.62a.86.86,0,0,0-.77.49V23a1.55,1.55,0,0,1-.7,0V20.42c0-.41-.19-.62-.6-.62a.91.91,0,0,0-.76.48V23a1.3,1.3,0,0,1-.35,0A1.14,1.14,0,0,1,128,23Z"/><path class="cls-5" d="M136.61,21.14c0,1.44-.52,1.92-1.33,1.92a1.12,1.12,0,0,1-1-.48v2a1.55,1.55,0,0,1-.7,0V19.34a1.55,1.55,0,0,1,.7,0v.37a1.12,1.12,0,0,1,1-.48C136.08,19.23,136.61,19.71,136.61,21.14Zm-.73,0c0-1-.27-1.34-.84-1.34a.81.81,0,0,0-.78.88v.9a.83.83,0,0,0,.78.91C135.61,22.49,135.88,22.18,135.88,21.14Z"/><path class="cls-5" d="M137.24,23V17.78a1.06,1.06,0,0,1,.35,0,1.22,1.22,0,0,1,.35,0V23a1.22,1.22,0,0,1-.35,0A1.06,1.06,0,0,1,137.24,23Z"/><path class="cls-5" d="M141.34,20.6V23a.85.85,0,0,1-.29,0,.82.82,0,0,1-.28,0l-.1-.47a1.13,1.13,0,0,1-1.11.58,1,1,0,0,1-1.09-1.16c0-.75.46-1.09,1.36-1.09a7.86,7.86,0,0,1,.81,0v-.29c0-.5-.22-.74-.74-.74A2.93,2.93,0,0,0,139,20a.52.52,0,0,1-.16-.21.65.65,0,0,1,0-.3,3.23,3.23,0,0,1,1.23-.25C141,19.23,141.34,19.69,141.34,20.6Zm-.7,1v-.26c-.16,0-.45,0-.72,0-.49,0-.73.18-.73.64s.23.64.61.64A.87.87,0,0,0,140.64,21.57Z"/><path class="cls-5" d="M142.05,23V19.34a1.14,1.14,0,0,1,.35,0,1.22,1.22,0,0,1,.35,0v.37a1.39,1.39,0,0,1,1.09-.48,1,1,0,0,1,1.08,1.05V23a1.3,1.3,0,0,1-.35,0,1.14,1.14,0,0,1-.35,0V20.42c0-.41-.21-.62-.66-.62a1,1,0,0,0-.81.48V23a1.22,1.22,0,0,1-.35,0A1.14,1.14,0,0,1,142.05,23Z"/><path class="cls-5" d="M147.63,22.75a.67.67,0,0,1,0,.25,2.3,2.3,0,0,1-.54.06c-.87,0-1.18-.46-1.18-1.34v-1.9h-.54a.86.86,0,0,1,0-.52h.54v-.67a1.12,1.12,0,0,1,.7-.14v.81h.91a.7.7,0,0,1,0,.26.76.76,0,0,1,0,.26h-.91v1.87c0,.61.19.81.68.81a2,2,0,0,0,.32,0A.63.63,0,0,1,147.63,22.75Z"/><path class="cls-5" d="M147.85,21.14c0-1.39.6-1.91,1.57-1.91s1.56.52,1.56,1.91-.6,1.92-1.56,1.92S147.85,22.54,147.85,21.14Zm2.41,0c0-1.07-.32-1.37-.84-1.37s-.84.3-.84,1.37.32,1.38.84,1.38S150.26,22.21,150.26,21.14Z"/><path class="cls-5" d="M151.59,23V17.78a1.14,1.14,0,0,1,.35,0,1.22,1.22,0,0,1,.35,0V23a1.22,1.22,0,0,1-.35,0A1.14,1.14,0,0,1,151.59,23Z"/><path class="cls-5" d="M152.9,21.14c0-1.39.6-1.91,1.57-1.91s1.56.52,1.56,1.91-.59,1.92-1.56,1.92S152.9,22.54,152.9,21.14Zm2.41,0c0-1.07-.32-1.37-.84-1.37s-.84.3-.84,1.37.32,1.38.84,1.38S155.31,22.21,155.31,21.14Z"/><path class="cls-5" d="M159.64,19.78h-.58a1.23,1.23,0,0,1,.19.71c0,.78-.47,1.26-1.38,1.26l-.32,0a.65.65,0,0,0-.15.42c.07.65,2.23-.05,2.23,1.4,0,.68-.65,1.2-1.81,1.2s-1.51-.41-1.51-1a1.19,1.19,0,0,1,.62-1,.56.56,0,0,1-.16-.42,1.18,1.18,0,0,1,.35-.77,1.14,1.14,0,0,1-.64-1.12c0-.77.49-1.25,1.39-1.25a1.77,1.77,0,0,1,.79.17l1-.16A.9.9,0,0,1,159.64,19.78ZM157.31,23a.88.88,0,0,0-.33.64c0,.37.27.62.85.62S159,24,159,23.61C159,23,158,23.17,157.31,23Zm1.26-2.5c0-.53-.28-.77-.7-.77s-.71.24-.71.77.28.78.71.78S158.57,21,158.57,20.48Z"/><path class="cls-5" d="M160.07,18.54v-.63a1.05,1.05,0,0,1,.37-.05,1.16,1.16,0,0,1,.38.05v.63a1.42,1.42,0,0,1-.38,0A1.3,1.3,0,0,1,160.07,18.54Zm0,4.41V19.34a1.14,1.14,0,0,1,.35,0,1.22,1.22,0,0,1,.35,0V23a1.22,1.22,0,0,1-.35,0A1.14,1.14,0,0,1,160.09,23Z"/><path class="cls-5" d="M161.39,21.15c0-1.26.53-1.92,1.56-1.92a2,2,0,0,1,.94.18.74.74,0,0,1-.21.51,1.42,1.42,0,0,0-.61-.12c-.67,0-.95.43-.95,1.35s.3,1.31,1,1.31a1.69,1.69,0,0,0,.65-.12.74.74,0,0,1,.21.5,1.93,1.93,0,0,1-1,.22C161.92,23.06,161.39,22.41,161.39,21.15Z"/><path class="cls-5" d="M166.89,22.71a.68.68,0,0,1,0,.28h-2.62a.87.87,0,0,1,0-.3,1,1,0,0,1,0-.27l1.87-2.55h-1.75a1,1,0,0,1,0-.29.82.82,0,0,1,0-.28h2.49a.81.81,0,0,1,0,.27,1.25,1.25,0,0,1,0,.3L165,22.42h1.88A.7.7,0,0,1,166.89,22.71Z"/><path class="cls-5" d="M167.43,23V19.34a1.14,1.14,0,0,1,.35,0,1.22,1.22,0,0,1,.35,0v.37a1.36,1.36,0,0,1,1.08-.48,1,1,0,0,1,1.08,1.05V23a1.3,1.3,0,0,1-.35,0,1.14,1.14,0,0,1-.35,0V20.42c0-.41-.21-.62-.65-.62a1,1,0,0,0-.81.48V23a1.22,1.22,0,0,1-.35,0A1.14,1.14,0,0,1,167.43,23Z"/><path class="cls-5" d="M173.68,21.36h-2.11c.06.83.38,1.1,1,1.1a1.6,1.6,0,0,0,.82-.21.71.71,0,0,1,.23.5,2,2,0,0,1-1.17.31c-1,0-1.57-.64-1.57-1.93s.62-1.9,1.55-1.9a1.24,1.24,0,0,1,1.36,1.39A3.16,3.16,0,0,1,173.68,21.36Zm-2.12-.48h1.52a1.62,1.62,0,0,0,0-.33c0-.43-.19-.78-.7-.78S171.62,20.08,171.56,20.88Z"/><path class="cls-5" d="M173.49,24.66a.65.65,0,0,1,0-.16.74.74,0,0,1,.07-.35,1.83,1.83,0,0,0,.27,0c.34,0,.53-.17.53-.6V19.34a1.06,1.06,0,0,1,.35,0,1.3,1.3,0,0,1,.35,0v4.27c0,.75-.37,1.13-1,1.13A1.36,1.36,0,0,1,173.49,24.66Zm.82-6.12V17.9a1.73,1.73,0,0,1,.74,0v.64a1.73,1.73,0,0,1-.74,0Z"/><path class="cls-5" d="M179.56,22.71a.82.82,0,0,1,0,.28H176.9a.85.85,0,0,1-.05-.3.93.93,0,0,1,.05-.27l1.87-2.55H177a.83.83,0,0,1-.05-.29.68.68,0,0,1,.05-.28h2.49a.85.85,0,0,1,0,.27,1.28,1.28,0,0,1,0,.3l-1.87,2.55h1.88A.85.85,0,0,1,179.56,22.71Z"/><path class="cls-5" d="M182.74,20.6V23a.82.82,0,0,1-.28,0,.85.85,0,0,1-.29,0l-.1-.47a1.13,1.13,0,0,1-1.11.58,1,1,0,0,1-1.08-1.16c0-.75.45-1.09,1.35-1.09a7.86,7.86,0,0,1,.81,0v-.29c0-.5-.22-.74-.74-.74a2.93,2.93,0,0,0-.94.17.45.45,0,0,1-.15-.21.58.58,0,0,1-.05-.3,3.25,3.25,0,0,1,1.24-.25C182.42,19.23,182.74,19.69,182.74,20.6Zm-.7,1v-.26c-.16,0-.45,0-.71,0-.49,0-.74.18-.74.64s.23.64.61.64A.87.87,0,0,0,182,21.57Z"/><path class="cls-5" d="M186.51,21.14c0,1.44-.53,1.92-1.33,1.92a1.11,1.11,0,0,1-1-.48v2a1.22,1.22,0,0,1-.35,0,1.14,1.14,0,0,1-.35,0V19.34a1.14,1.14,0,0,1,.35,0,1.22,1.22,0,0,1,.35,0v.37a1.11,1.11,0,0,1,1-.48C186,19.23,186.51,19.71,186.51,21.14Zm-.74,0c0-1-.26-1.34-.84-1.34a.8.8,0,0,0-.77.88v.9a.82.82,0,0,0,.77.91C185.51,22.49,185.77,22.18,185.77,21.14Z"/><path class="cls-5" d="M189.78,21.36h-2.11c.05.83.38,1.1,1,1.1a1.6,1.6,0,0,0,.82-.21.71.71,0,0,1,.23.5,2,2,0,0,1-1.17.31c-1.05,0-1.57-.64-1.57-1.93s.61-1.9,1.55-1.9a1.24,1.24,0,0,1,1.36,1.39A3.16,3.16,0,0,1,189.78,21.36Zm-2.12-.48h1.52a1.62,1.62,0,0,0,0-.33c0-.43-.19-.78-.7-.78S187.72,20.08,187.66,20.88Z"/><path class="cls-5" d="M191.14,23l-1.06-3.61a1.22,1.22,0,0,1,.35,0,.79.79,0,0,1,.31,0l.65,2.17a3.81,3.81,0,0,1,.15.77h0a6.25,6.25,0,0,1,.16-.77l.65-2.17a1.81,1.81,0,0,1,.37,0,1.22,1.22,0,0,1,.35,0l.63,2.16a4.76,4.76,0,0,1,.15.78h0a5.38,5.38,0,0,1,.17-.77l.65-2.17a1,1,0,0,1,.31,0,.92.92,0,0,1,.31,0L194.27,23a2.15,2.15,0,0,1-.4,0,2.23,2.23,0,0,1-.39,0l-.56-1.89a4.46,4.46,0,0,1-.2-1h0a4.05,4.05,0,0,1-.21,1L191.93,23a2,2,0,0,1-.39,0A2.25,2.25,0,0,1,191.14,23Z"/><path class="cls-5" d="M195.73,23V19.34a1.14,1.14,0,0,1,.35,0,1.22,1.22,0,0,1,.35,0v.37a1.36,1.36,0,0,1,1.08-.48,1,1,0,0,1,1.08,1.05V23a1.22,1.22,0,0,1-.35,0,1.14,1.14,0,0,1-.35,0V20.42c0-.41-.21-.62-.65-.62a1,1,0,0,0-.81.48V23a1.22,1.22,0,0,1-.35,0A1.14,1.14,0,0,1,195.73,23Z"/><path class="cls-5" d="M199.3,18.54v-.63a1.05,1.05,0,0,1,.37-.05,1.23,1.23,0,0,1,.38.05v.63a1.52,1.52,0,0,1-.38,0A1.3,1.3,0,0,1,199.3,18.54Zm0,4.41V19.34a1.06,1.06,0,0,1,.35,0,1.22,1.22,0,0,1,.35,0V23a1.22,1.22,0,0,1-.35,0A1.14,1.14,0,0,1,199.32,23Z"/><path class="cls-5" d="M203.41,20.6V23a.75.75,0,0,1-.28,0,.85.85,0,0,1-.29,0l-.1-.47a1.11,1.11,0,0,1-1.1.58,1,1,0,0,1-1.09-1.16c0-.75.45-1.09,1.35-1.09a7.86,7.86,0,0,1,.81,0v-.29c0-.5-.21-.74-.74-.74A2.93,2.93,0,0,0,201,20a.55.55,0,0,1-.15-.21.58.58,0,0,1,0-.3,3.25,3.25,0,0,1,1.24-.25C203.09,19.23,203.41,19.69,203.41,20.6Zm-.7,1v-.26c-.16,0-.44,0-.71,0-.49,0-.74.18-.74.64s.23.64.61.64A.87.87,0,0,0,202.71,21.57Z"/><path class="cls-5" d="M205.43,23V19.34a1.14,1.14,0,0,1,.35,0,1.22,1.22,0,0,1,.35,0v.37a1.38,1.38,0,0,1,1.09-.48,1,1,0,0,1,1.07,1.05V23a1.55,1.55,0,0,1-.7,0V20.42c0-.41-.21-.62-.65-.62a1,1,0,0,0-.81.48V23a1.22,1.22,0,0,1-.35,0A1.14,1.14,0,0,1,205.43,23Z"/><path class="cls-5" d="M209,18.54v-.63a1.05,1.05,0,0,1,.37-.05,1.16,1.16,0,0,1,.38.05v.63a1.42,1.42,0,0,1-.38,0A1.3,1.3,0,0,1,209,18.54ZM209,23V19.34a1.14,1.14,0,0,1,.35,0,1.22,1.22,0,0,1,.35,0V23a1.22,1.22,0,0,1-.35,0A1.14,1.14,0,0,1,209,23Z"/><path class="cls-5" d="M210.27,22.81a.6.6,0,0,1,.18-.5,2.81,2.81,0,0,0,1,.17c.46,0,.73-.16.73-.52s-.41-.47-.83-.59-1-.36-1-1,.43-1.1,1.32-1.1a2.29,2.29,0,0,1,1,.19.66.66,0,0,1-.18.49,2.39,2.39,0,0,0-.75-.12c-.5,0-.73.18-.73.51s.43.43.87.58,1,.36,1,1.06-.43,1.12-1.36,1.12A2.81,2.81,0,0,1,210.27,22.81Z"/><path class="cls-5" d="M216.31,22.94a1.44,1.44,0,0,1-.39,0,1.35,1.35,0,0,1-.39,0l-1-1.61h-.44V23a1.22,1.22,0,0,1-.35,0,1.3,1.3,0,0,1-.35,0V17.77a2.06,2.06,0,0,1,.7,0v3h.45l.93-1.46a1.38,1.38,0,0,1,.37,0,1.4,1.4,0,0,1,.35,0L215.09,21Z"/><path class="cls-5" d="M219.28,24.57a1.15,1.15,0,0,1-.64.17c-.43,0-.68-.22-.68-.62a1.74,1.74,0,0,1,.74-1.18l-.11-.45a1.12,1.12,0,0,1-1.1.57,1,1,0,0,1-1.09-1.16c0-.75.46-1.09,1.36-1.09a8,8,0,0,1,.81,0v-.29c0-.5-.22-.74-.74-.74a2.93,2.93,0,0,0-.94.17.52.52,0,0,1-.16-.21.73.73,0,0,1,0-.3,3.25,3.25,0,0,1,1.24-.25c1,0,1.35.46,1.35,1.37V23a1.63,1.63,0,0,0-.67,1c0,.18.09.26.22.26a.82.82,0,0,0,.28-.07A.58.58,0,0,1,219.28,24.57Zm-.71-3v-.26c-.16,0-.44,0-.72,0-.49,0-.73.18-.73.64s.23.64.61.64A.87.87,0,0,0,218.57,21.57Z"/><path class="cls-5" d="M221.28,23V19.34a1.14,1.14,0,0,1,.35,0,.92.92,0,0,1,.33,0v.51a1,1,0,0,1,.9-.61,1,1,0,0,1,.6.17.81.81,0,0,1-.3.58.7.7,0,0,0-.44-.14,1,1,0,0,0-.75.57V23a1.22,1.22,0,0,1-.35,0A1.14,1.14,0,0,1,221.28,23Z"/><path class="cls-5" d="M226.47,21.36h-2.11c.06.83.38,1.1,1,1.1a1.65,1.65,0,0,0,.82-.21.76.76,0,0,1,.23.5,2,2,0,0,1-1.18.31c-1.05,0-1.57-.64-1.57-1.93s.62-1.9,1.55-1.9a1.24,1.24,0,0,1,1.36,1.39A3.16,3.16,0,0,1,226.47,21.36Zm-2.11-.48h1.52a2.92,2.92,0,0,0,0-.33c0-.43-.19-.78-.7-.78S224.41,20.08,224.36,20.88Z"/><path class="cls-5" d="M229.1,22.75a.87.87,0,0,1,0,.25,2.37,2.37,0,0,1-.54.06c-.87,0-1.18-.46-1.18-1.34v-1.9h-.54a.86.86,0,0,1,0-.52h.54v-.67a1.12,1.12,0,0,1,.7-.14v.81H229a.7.7,0,0,1,0,.26.76.76,0,0,1,0,.26h-.91v1.87c0,.61.18.81.67.81a2,2,0,0,0,.33,0A.73.73,0,0,1,229.1,22.75Z"/><path class="cls-5" d="M232.16,21.36h-2.11c0,.83.38,1.1,1,1.1a1.6,1.6,0,0,0,.82-.21.76.76,0,0,1,.23.5,2,2,0,0,1-1.18.31c-1,0-1.56-.64-1.56-1.93s.61-1.9,1.54-1.9a1.24,1.24,0,0,1,1.36,1.39A3.59,3.59,0,0,1,232.16,21.36ZM230,20.88h1.52a2.92,2.92,0,0,0,0-.33c0-.43-.19-.78-.7-.78S230.1,20.08,230,20.88Z"/><path class="cls-5" d="M232.79,23V19.34a1.14,1.14,0,0,1,.35,0,1.22,1.22,0,0,1,.35,0v.37a1.39,1.39,0,0,1,1.09-.48,1,1,0,0,1,1.07,1.05V23a1.22,1.22,0,0,1-.35,0,1.1,1.1,0,0,1-.34,0V20.42c0-.41-.22-.62-.66-.62a1,1,0,0,0-.81.48V23a1.22,1.22,0,0,1-.35,0A1.14,1.14,0,0,1,232.79,23Z"/><path class="cls-5" d="M236.21,21.15c0-1.26.54-1.92,1.56-1.92a2,2,0,0,1,.94.18.74.74,0,0,1-.21.51,1.42,1.42,0,0,0-.61-.12c-.67,0-.95.43-.95,1.35s.3,1.31,1,1.31a1.69,1.69,0,0,0,.65-.12.74.74,0,0,1,.21.5,1.93,1.93,0,0,1-1,.22C236.75,23.06,236.21,22.41,236.21,21.15Z"/><path class="cls-5" d="M238.42,24.66a.45.45,0,0,1,0-.16.67.67,0,0,1,.08-.35,1.77,1.77,0,0,0,.26,0c.35,0,.53-.17.53-.6V19.34a1.06,1.06,0,0,1,.35,0,1.3,1.3,0,0,1,.35,0v4.27c0,.75-.36,1.13-1,1.13A1.27,1.27,0,0,1,238.42,24.66Zm.81-6.12V17.9a1.42,1.42,0,0,1,.38,0,1.26,1.26,0,0,1,.36,0v.64a1.26,1.26,0,0,1-.36,0A1.42,1.42,0,0,1,239.23,18.54Z"/><path class="cls-5" d="M243.39,21.36h-2.11c0,.83.38,1.1,1,1.1a1.59,1.59,0,0,0,.81-.21.77.77,0,0,1,.24.5l-.14.12c-.53.46-.78.95-.69,1.21a.22.22,0,0,0,.22.16.89.89,0,0,0,.28-.07.61.61,0,0,1,.17.4,1.09,1.09,0,0,1-.63.17.6.6,0,0,1-.66-.43c-.12-.4.16-.87.63-1.28a1.94,1.94,0,0,1-.36,0c-1,0-1.57-.64-1.57-1.93s.62-1.9,1.55-1.9a1.24,1.24,0,0,1,1.36,1.39A3.16,3.16,0,0,1,243.39,21.36Zm-2.11-.48h1.52a2.92,2.92,0,0,0,0-.33c0-.43-.19-.78-.7-.78S241.32,20.08,241.28,20.88Z"/><path class="cls-5" d="M61.42,29.54c0,1.44-.52,1.92-1.33,1.92a1.11,1.11,0,0,1-1-.48v2a1.55,1.55,0,0,1-.7,0V27.74a1.55,1.55,0,0,1,.7,0v.37a1.11,1.11,0,0,1,1-.48C60.89,27.63,61.42,28.11,61.42,29.54Zm-.73,0c0-1-.27-1.34-.84-1.34a.81.81,0,0,0-.78.88V30a.82.82,0,0,0,.78.91C60.42,30.89,60.69,30.58,60.69,29.54Z"/><path class="cls-5" d="M63.08,28.62v2.73a1.22,1.22,0,0,1-.35,0,1.06,1.06,0,0,1-.35,0V29l-.48.28a.44.44,0,0,1-.14-.17.43.43,0,0,1-.09-.21l.71-.41V26.18a1.06,1.06,0,0,1,.35,0,1.22,1.22,0,0,1,.35,0v1.93l.51-.29a.57.57,0,0,1,.14.17.53.53,0,0,1,.08.21Z"/><path class="cls-5" d="M67.26,27.74,65.87,32c-.23.74-.5,1.17-1.23,1.17a1.56,1.56,0,0,1-.46-.06.71.71,0,0,1-.05-.27.61.61,0,0,1,.06-.27,1.91,1.91,0,0,0,.32,0c.34,0,.52-.11.72-.72l.15-.46a.54.54,0,0,1-.22-.05l-1.33-3.6a1.26,1.26,0,0,1,.36,0,1.17,1.17,0,0,1,.36,0l.82,2.14a6.69,6.69,0,0,1,.24.83h0a6.74,6.74,0,0,1,.22-.83l.71-2.14a1.22,1.22,0,0,1,.35,0A1.27,1.27,0,0,1,67.26,27.74Z"/><path class="cls-5" d="M69.64,31.15a.67.67,0,0,1,0,.25,2.3,2.3,0,0,1-.54.06c-.86,0-1.18-.45-1.18-1.34V28.23h-.53a.76.76,0,0,1,0-.26.66.66,0,0,1,0-.27h.53V27a1.21,1.21,0,0,1,.7-.14v.81h.92a.9.9,0,0,1,0,.26,1.13,1.13,0,0,1,0,.27h-.92v1.86c0,.61.19.81.68.81a2,2,0,0,0,.32,0A.63.63,0,0,1,69.64,31.15Z"/><path class="cls-5" d="M73,31.34a1.44,1.44,0,0,1-.39.05,1.35,1.35,0,0,1-.39-.05l-1-1.61h-.44v1.62a1.22,1.22,0,0,1-.35,0,1.3,1.3,0,0,1-.35,0V26.17a2.06,2.06,0,0,1,.7,0v3h.45l.93-1.46a1.38,1.38,0,0,1,.37,0,1.4,1.4,0,0,1,.35,0l-1.06,1.68Z"/><path class="cls-5" d="M73.29,26.94v-.63a1.05,1.05,0,0,1,.37,0,1.16,1.16,0,0,1,.38,0v.63a1.42,1.42,0,0,1-.38,0A1.3,1.3,0,0,1,73.29,26.94Zm0,4.41V27.74a1.14,1.14,0,0,1,.35,0,1.22,1.22,0,0,1,.35,0v3.61a1.22,1.22,0,0,1-.35,0A1.14,1.14,0,0,1,73.31,31.35Z"/><path class="cls-5" d="M76.07,31.35V27.74a1.14,1.14,0,0,1,.35,0,1.22,1.22,0,0,1,.35,0v.37a1.39,1.39,0,0,1,1.09-.48,1,1,0,0,1,1.08,1.05v2.67a1.3,1.3,0,0,1-.35,0,1.26,1.26,0,0,1-.36,0V28.82c0-.41-.2-.62-.65-.62a1,1,0,0,0-.81.48v2.67a1.22,1.22,0,0,1-.35,0A1.14,1.14,0,0,1,76.07,31.35Z"/><path class="cls-5" d="M82.29,29v2.35a.85.85,0,0,1-.29,0,.93.93,0,0,1-.29,0l-.09-.47a1.13,1.13,0,0,1-1.11.58,1,1,0,0,1-1.09-1.16c0-.75.46-1.09,1.36-1.09.32,0,.62,0,.81,0V29c0-.5-.22-.74-.74-.74a2.93,2.93,0,0,0-.94.17.52.52,0,0,1-.16-.21.73.73,0,0,1,0-.3,3.25,3.25,0,0,1,1.24-.25C82,27.63,82.29,28.09,82.29,29Zm-.7,1v-.26c-.16,0-.45,0-.72,0-.49,0-.73.18-.73.64s.23.64.61.64A.87.87,0,0,0,81.59,30Z"/><path class="cls-5" d="M85.47,31.11a.68.68,0,0,1,0,.28H82.8a1.21,1.21,0,0,1,0-.3,1,1,0,0,1,0-.27l1.87-2.55H82.92a.93.93,0,0,1,0-.29.82.82,0,0,1,0-.28h2.5a.85.85,0,0,1,0,.27,1.28,1.28,0,0,1,0,.3l-1.87,2.55h1.87A.7.7,0,0,1,85.47,31.11Z"/><path class="cls-5" d="M88.69,29.76H86.58c0,.83.38,1.11,1,1.11a1.6,1.6,0,0,0,.82-.21.72.72,0,0,1,.24.49l-.15.12c-.52.46-.77.95-.68,1.21a.21.21,0,0,0,.21.16.82.82,0,0,0,.28-.07.58.58,0,0,1,.18.4,1.14,1.14,0,0,1-.63.17.59.59,0,0,1-.66-.43c-.12-.4.16-.87.62-1.28a1.83,1.83,0,0,1-.35,0c-1.05,0-1.57-.64-1.57-1.92s.61-1.91,1.54-1.91A1.24,1.24,0,0,1,88.76,29,3.59,3.59,0,0,1,88.69,29.76Zm-2.12-.48h1.52a1.62,1.62,0,0,0,0-.33c0-.43-.19-.78-.7-.78S86.62,28.48,86.57,29.28Z"/><path class="cls-5" d="M92.38,29.55c0,1.43-.53,1.91-1.34,1.91A1.13,1.13,0,0,1,90,31v.36a1.55,1.55,0,0,1-.7,0V26.18a1.55,1.55,0,0,1,.7,0v1.93a1.12,1.12,0,0,1,1-.48C91.85,27.63,92.38,28.11,92.38,29.55Zm-.74,0c0-1-.27-1.35-.84-1.35a.82.82,0,0,0-.78.89V30a.81.81,0,0,0,.78.9C91.37,30.89,91.64,30.57,91.64,29.55Z"/><path class="cls-5" d="M93,31.35V27.74a1.14,1.14,0,0,1,.35,0,1.22,1.22,0,0,1,.35,0v.37a1.39,1.39,0,0,1,1.09-.48,1,1,0,0,1,1.08,1.05v2.67a1.3,1.3,0,0,1-.35,0,1.14,1.14,0,0,1-.35,0V28.82c0-.41-.21-.62-.66-.62a1,1,0,0,0-.81.48v2.67a1.22,1.22,0,0,1-.35,0A1.14,1.14,0,0,1,93,31.35Z"/><path class="cls-5" d="M99.21,29.76h-2.1c0,.83.37,1.11,1,1.11a1.6,1.6,0,0,0,.82-.21.71.71,0,0,1,.23.49,2,2,0,0,1-1.18.31c-1,0-1.57-.64-1.57-1.92s.62-1.91,1.55-1.91A1.24,1.24,0,0,1,99.29,29,3.16,3.16,0,0,1,99.21,29.76Zm-2.11-.48h1.52a2.92,2.92,0,0,0,0-.33c0-.43-.19-.78-.7-.78S97.15,28.48,97.1,29.28Z"/><path class="cls-5" d="M99,33.06a.45.45,0,0,1,0-.16.67.67,0,0,1,.08-.35,1.83,1.83,0,0,0,.27,0c.34,0,.52-.17.52-.6V27.74a1.06,1.06,0,0,1,.35,0,1.22,1.22,0,0,1,.35,0V32c0,.75-.36,1.13-1,1.13A1.33,1.33,0,0,1,99,33.06Zm.81-6.12V26.3a1.42,1.42,0,0,1,.38,0,1.26,1.26,0,0,1,.36,0v.64a1.26,1.26,0,0,1-.36,0A1.42,1.42,0,0,1,99.84,26.94Z"/><path class="cls-5" d="M102.62,26.94v-.63a1.05,1.05,0,0,1,.37,0,1.16,1.16,0,0,1,.38,0v.63a1.42,1.42,0,0,1-.38,0A1.3,1.3,0,0,1,102.62,26.94Zm0,4.41V27.74a1.14,1.14,0,0,1,.35,0,1.22,1.22,0,0,1,.35,0v3.61a1.22,1.22,0,0,1-.35,0A1.14,1.14,0,0,1,102.64,31.35Z"/><path class="cls-5" d="M105.25,29.54c0-1.38.6-1.91,1.56-1.91s1.57.53,1.57,1.91-.6,1.92-1.57,1.92S105.25,30.94,105.25,29.54Zm2.41,0c0-1.07-.33-1.37-.85-1.37s-.84.3-.84,1.37.33,1.38.84,1.38S107.66,30.61,107.66,29.54Z"/><path class="cls-5" d="M112,28.18h-.57a1.34,1.34,0,0,1,.19.71c0,.78-.48,1.26-1.39,1.26l-.32,0a.61.61,0,0,0-.14.42c.07.65,2.22-.05,2.22,1.4,0,.68-.65,1.2-1.81,1.2s-1.51-.4-1.51-1a1.19,1.19,0,0,1,.62-1,.55.55,0,0,1-.15-.42,1.18,1.18,0,0,1,.35-.77,1.13,1.13,0,0,1-.65-1.12c0-.77.49-1.25,1.39-1.25a1.74,1.74,0,0,1,.79.17l1-.16A.77.77,0,0,1,112,28.18Zm-2.32,3.2a.88.88,0,0,0-.33.64c0,.37.26.62.84.62.73,0,1.13-.25,1.13-.63C111.3,31.4,110.3,31.57,109.66,31.38Zm1.26-2.5c0-.53-.28-.77-.71-.77a.67.67,0,0,0-.71.77c0,.54.29.78.71.78S110.92,29.42,110.92,28.88Z"/><path class="cls-5" d="M112.42,31.35V27.74a1.14,1.14,0,0,1,.35,0,.92.92,0,0,1,.33,0v.51a1,1,0,0,1,.9-.61,1.07,1.07,0,0,1,.6.17.79.79,0,0,1-.31.58.65.65,0,0,0-.43-.14,1,1,0,0,0-.75.57v2.53a1.22,1.22,0,0,1-.35,0A1.14,1.14,0,0,1,112.42,31.35Z"/><path class="cls-5" d="M117.57,29v2.35a.75.75,0,0,1-.28,0,.85.85,0,0,1-.29,0l-.1-.47a1.11,1.11,0,0,1-1.1.58,1,1,0,0,1-1.09-1.16c0-.75.45-1.09,1.35-1.09a7.86,7.86,0,0,1,.81,0V29c0-.5-.21-.74-.74-.74a2.93,2.93,0,0,0-.94.17.55.55,0,0,1-.15-.21.58.58,0,0,1-.05-.3,3.25,3.25,0,0,1,1.24-.25C117.25,27.63,117.57,28.09,117.57,29Zm-.7,1v-.26c-.16,0-.44,0-.71,0-.49,0-.74.18-.74.64s.23.64.61.64A.87.87,0,0,0,116.87,30Z"/><path class="cls-5" d="M118.29,31.35V27.74a1.14,1.14,0,0,1,.35,0,1.22,1.22,0,0,1,.35,0v.37a1.37,1.37,0,0,1,1.08-.48,1,1,0,0,1,1.08,1.05v2.67a1.22,1.22,0,0,1-.35,0,1.14,1.14,0,0,1-.35,0V28.82c0-.41-.21-.62-.65-.62a1,1,0,0,0-.81.48v2.67a1.22,1.22,0,0,1-.35,0A1.14,1.14,0,0,1,118.29,31.35Z"/><path class="cls-5" d="M121.86,26.94v-.63a1.05,1.05,0,0,1,.37,0,1.23,1.23,0,0,1,.38,0v.63a1.52,1.52,0,0,1-.38,0A1.3,1.3,0,0,1,121.86,26.94Zm0,4.41V27.74a1.06,1.06,0,0,1,.35,0,1.22,1.22,0,0,1,.35,0v3.61a1.22,1.22,0,0,1-.35,0A1.14,1.14,0,0,1,121.88,31.35Z"/><path class="cls-5" d="M123.18,29.55c0-1.26.53-1.92,1.55-1.92a1.91,1.91,0,0,1,.94.18.66.66,0,0,1-.21.51,1.4,1.4,0,0,0-.6-.12c-.67,0-1,.43-1,1.35s.3,1.32,1,1.32a1.56,1.56,0,0,0,.64-.13.66.66,0,0,1,.21.5,1.93,1.93,0,0,1-1,.22C123.71,31.46,123.18,30.81,123.18,29.55Z"/><path class="cls-5" d="M128.68,31.11a.68.68,0,0,1-.05.28H126a.87.87,0,0,1,0-.3,1,1,0,0,1,0-.27l1.87-2.55h-1.75a.76.76,0,0,1,0-.29.68.68,0,0,1,0-.28h2.49a.85.85,0,0,1,0,.27,1.28,1.28,0,0,1,0,.3l-1.87,2.55h1.88A.7.7,0,0,1,128.68,31.11Z"/><path class="cls-5" d="M131.85,29v2.35a.75.75,0,0,1-.28,0,.93.93,0,0,1-.29,0l-.1-.47a1.11,1.11,0,0,1-1.11.58A1,1,0,0,1,129,30.3c0-.75.46-1.09,1.35-1.09a7.86,7.86,0,0,1,.81,0V29c0-.5-.21-.74-.74-.74a2.93,2.93,0,0,0-.94.17.7.7,0,0,1-.15-.21.73.73,0,0,1,0-.3,3.25,3.25,0,0,1,1.24-.25C131.53,27.63,131.85,28.09,131.85,29Zm-.7,1v-.26c-.16,0-.44,0-.71,0-.49,0-.74.18-.74.64s.24.64.61.64A.87.87,0,0,0,131.15,30Z"/><path class="cls-5" d="M133.66,31.21a.61.61,0,0,1,.18-.5,2.85,2.85,0,0,0,1,.17c.46,0,.73-.16.73-.52s-.41-.47-.83-.59-1-.36-1-1,.43-1.1,1.32-1.1a2.26,2.26,0,0,1,1,.19.63.63,0,0,1-.18.49,2.39,2.39,0,0,0-.75-.12c-.49,0-.73.18-.73.51s.43.44.87.58,1,.36,1,1.06-.44,1.12-1.36,1.12A2.82,2.82,0,0,1,133.66,31.21Z"/><path class="cls-5" d="M138.73,31.15a.87.87,0,0,1,0,.25,2.3,2.3,0,0,1-.54.06c-.87,0-1.18-.45-1.18-1.34V28.23h-.54a.76.76,0,0,1,0-.26.66.66,0,0,1,0-.27H137V27a1.19,1.19,0,0,1,.7-.14v.81h.91a.7.7,0,0,1,0,.26.87.87,0,0,1,0,.27h-.91v1.86c0,.61.19.81.68.81a2,2,0,0,0,.32,0A.73.73,0,0,1,138.73,31.15Z"/><path class="cls-5" d="M141.75,29v2.35a.82.82,0,0,1-.28,0,.85.85,0,0,1-.29,0l-.1-.47a1.13,1.13,0,0,1-1.11.58,1,1,0,0,1-1.08-1.16c0-.75.45-1.09,1.35-1.09a7.86,7.86,0,0,1,.81,0V29c0-.5-.22-.74-.74-.74a2.93,2.93,0,0,0-.94.17.45.45,0,0,1-.15-.21.58.58,0,0,1-.05-.3,3.25,3.25,0,0,1,1.24-.25C141.43,27.63,141.75,28.09,141.75,29Zm-.7,1v-.26c-.16,0-.45,0-.71,0-.49,0-.74.18-.74.64s.23.64.61.64A.87.87,0,0,0,141.05,30Z"/><path class="cls-5" d="M142.47,31.35V27.74a1.1,1.1,0,0,1,.34,0,1.14,1.14,0,0,1,.35,0v.37a1.39,1.39,0,0,1,1.09-.48,1,1,0,0,1,1.08,1.05v2.67a1.3,1.3,0,0,1-.35,0,1.14,1.14,0,0,1-.35,0V28.82c0-.41-.21-.62-.65-.62a1,1,0,0,0-.82.48v2.67a1.14,1.14,0,0,1-.35,0A1.1,1.1,0,0,1,142.47,31.35Z"/><path class="cls-5" d="M149.82,31.11a.68.68,0,0,1,0,.28h-2.62a.87.87,0,0,1,0-.3,1,1,0,0,1,0-.27L149,28.27h-1.75a.76.76,0,0,1-.05-.29.68.68,0,0,1,.05-.28h2.49a.85.85,0,0,1,0,.27,1.28,1.28,0,0,1,0,.3l-1.87,2.55h1.88A.7.7,0,0,1,149.82,31.11Z"/><path class="cls-5" d="M153,29v2.35a.75.75,0,0,1-.28,0,.85.85,0,0,1-.29,0l-.1-.47a1.11,1.11,0,0,1-1.1.58,1,1,0,0,1-1.09-1.16c0-.75.45-1.09,1.35-1.09a7.86,7.86,0,0,1,.81,0V29c0-.5-.21-.74-.74-.74a2.93,2.93,0,0,0-.94.17.55.55,0,0,1-.15-.21.58.58,0,0,1-.05-.3,3.25,3.25,0,0,1,1.24-.25C152.67,27.63,153,28.09,153,29Zm-.7,1v-.26c-.16,0-.44,0-.71,0-.49,0-.74.18-.74.64s.23.64.61.64A.87.87,0,0,0,152.29,30Z"/><path class="cls-5" d="M156.76,29.54c0,1.44-.53,1.92-1.33,1.92a1.11,1.11,0,0,1-1-.48v2a1.22,1.22,0,0,1-.35,0,1.14,1.14,0,0,1-.35,0V27.74a1.14,1.14,0,0,1,.35,0,1.22,1.22,0,0,1,.35,0v.37a1.11,1.11,0,0,1,1-.48C156.23,27.63,156.76,28.11,156.76,29.54Zm-.74,0c0-1-.26-1.34-.84-1.34a.8.8,0,0,0-.77.88V30a.82.82,0,0,0,.77.91C155.76,30.89,156,30.58,156,29.54Z"/><path class="cls-5" d="M160,29v2.35a.75.75,0,0,1-.28,0,.85.85,0,0,1-.29,0l-.1-.47a1.11,1.11,0,0,1-1.1.58,1,1,0,0,1-1.09-1.16c0-.75.45-1.09,1.35-1.09a7.86,7.86,0,0,1,.81,0V29c0-.5-.21-.74-.74-.74a2.93,2.93,0,0,0-.94.17.55.55,0,0,1-.15-.21.58.58,0,0,1-.05-.3,3.25,3.25,0,0,1,1.24-.25C159.67,27.63,160,28.09,160,29Zm-.7,1v-.26c-.16,0-.44,0-.71,0-.49,0-.74.18-.74.64s.23.64.61.64A.87.87,0,0,0,159.29,30Z"/><path class="cls-5" d="M160.73,31.35V26.18a1.14,1.14,0,0,1,.35,0,1.22,1.22,0,0,1,.35,0v5.17a1.22,1.22,0,0,1-.35,0A1.14,1.14,0,0,1,160.73,31.35Z"/><path class="cls-5" d="M162.2,31.35V27.74a1.14,1.14,0,0,1,.35,0,1.22,1.22,0,0,1,.35,0v.37a1.37,1.37,0,0,1,1.08-.48,1,1,0,0,1,1.08,1.05v2.67a1.22,1.22,0,0,1-.35,0,1.14,1.14,0,0,1-.35,0V28.82c0-.41-.21-.62-.65-.62a1,1,0,0,0-.81.48v2.67a1.22,1.22,0,0,1-.35,0A1.14,1.14,0,0,1,162.2,31.35Z"/><path class="cls-5" d="M168.85,27.74,167.46,32c-.24.74-.5,1.17-1.23,1.17a1.56,1.56,0,0,1-.46-.06.71.71,0,0,1-.05-.27.61.61,0,0,1,.06-.27,1.91,1.91,0,0,0,.32,0c.34,0,.52-.11.72-.72l.15-.46a.54.54,0,0,1-.22-.05l-1.33-3.6a1.26,1.26,0,0,1,.36,0,1.17,1.17,0,0,1,.36,0l.82,2.14a6.69,6.69,0,0,1,.24.83h0a8.47,8.47,0,0,1,.23-.83l.71-2.14a1.22,1.22,0,0,1,.35,0A1.27,1.27,0,0,1,168.85,27.74Z"/><path class="cls-5" d="M173.43,26.18v5.17a1,1,0,0,1-.3,0,1.07,1.07,0,0,1-.31,0l0-.41a1.15,1.15,0,0,1-1.05.52c-.81,0-1.33-.48-1.33-1.91s.51-1.92,1.33-1.92a1.1,1.1,0,0,1,1,.48V26.18a1.26,1.26,0,0,1,.36,0A1.1,1.1,0,0,1,173.43,26.18Zm-.7,3.82v-.93a.8.8,0,0,0-.77-.87c-.57,0-.84.32-.84,1.35s.27,1.34.84,1.34A.81.81,0,0,0,172.73,30Z"/><path class="cls-5" d="M176.65,31.11a.68.68,0,0,1-.05.28H174a.87.87,0,0,1,0-.3,1,1,0,0,1,0-.27l1.87-2.55H174.1a.76.76,0,0,1,0-.29.68.68,0,0,1,0-.28h2.49a.85.85,0,0,1,0,.27,1.28,1.28,0,0,1,0,.3l-1.87,2.55h1.88A.7.7,0,0,1,176.65,31.11Z"/><path class="cls-5" d="M177.18,26.94v-.63a1.05,1.05,0,0,1,.37,0,1.23,1.23,0,0,1,.38,0v.63a1.52,1.52,0,0,1-.38,0A1.3,1.3,0,0,1,177.18,26.94Zm0,4.41V27.74a1.06,1.06,0,0,1,.35,0,1.22,1.22,0,0,1,.35,0v3.61a1.22,1.22,0,0,1-.35,0A1.14,1.14,0,0,1,177.2,31.35Z"/><path class="cls-5" d="M181.3,33a1.09,1.09,0,0,1-.63.17c-.43,0-.69-.22-.69-.61a1.75,1.75,0,0,1,.75-1.19l-.12-.45a1.11,1.11,0,0,1-1.1.57,1,1,0,0,1-1.08-1.16c0-.75.46-1.09,1.35-1.09a7.86,7.86,0,0,1,.81,0V29c0-.5-.21-.74-.74-.74a2.93,2.93,0,0,0-.94.17.45.45,0,0,1-.15-.21.73.73,0,0,1,0-.3,3.25,3.25,0,0,1,1.24-.25c1,0,1.34.46,1.34,1.37v2.35a1.63,1.63,0,0,0-.67,1c0,.18.1.26.23.26a.89.89,0,0,0,.28-.07A.61.61,0,0,1,181.3,33Zm-.71-3v-.26c-.15,0-.44,0-.71,0-.49,0-.74.18-.74.64s.24.64.61.64A.87.87,0,0,0,180.59,30Z"/><path class="cls-5" d="M181.8,31.21a.61.61,0,0,1,.18-.5,2.85,2.85,0,0,0,1,.17c.46,0,.73-.16.73-.52s-.41-.47-.83-.59-1-.36-1-1,.43-1.1,1.32-1.1a2.29,2.29,0,0,1,1,.19.63.63,0,0,1-.18.49,2.39,2.39,0,0,0-.75-.12c-.49,0-.73.18-.73.51s.43.44.87.58,1,.36,1,1.06-.43,1.12-1.36,1.12A2.81,2.81,0,0,1,181.8,31.21Z"/><path class="cls-5" d="M187.55,29.76h-2.11c.06.83.38,1.11,1,1.11a1.65,1.65,0,0,0,.82-.21.71.71,0,0,1,.23.49,2,2,0,0,1-1.18.31c-1,0-1.57-.64-1.57-1.92s.62-1.91,1.55-1.91A1.24,1.24,0,0,1,187.63,29,3.16,3.16,0,0,1,187.55,29.76Zm-2.11-.48H187a2.92,2.92,0,0,0,0-.33c0-.43-.19-.78-.7-.78S185.49,28.48,185.44,29.28Z"/><path class="cls-5" d="M189.25,28.62v2.73a1.22,1.22,0,0,1-.35,0,1.14,1.14,0,0,1-.35,0V29l-.48.28a.44.44,0,0,1-.14-.17.43.43,0,0,1-.09-.21l.71-.41V26.18a1.14,1.14,0,0,1,.35,0,1.22,1.22,0,0,1,.35,0v1.93l.51-.29a.57.57,0,0,1,.14.17.53.53,0,0,1,.08.21Z"/><path class="cls-5" d="M190.07,27.76a4,4,0,0,1,.57-2,.28.28,0,0,1,.16,0,.39.39,0,0,1,.13.11,3.86,3.86,0,0,0,0,3.69.27.27,0,0,1-.13.12.43.43,0,0,1-.16,0A4,4,0,0,1,190.07,27.76Z"/><path class="cls-5" d="M192.79,28.7a.4.4,0,0,1,0,.18.48.48,0,0,1,0,.18h-1.66a1.4,1.4,0,0,1,0-.28c0-.63.41-.85.78-1.1s.56-.37.56-.68-.15-.42-.53-.42a1.93,1.93,0,0,0-.6.11.33.33,0,0,1-.12-.29,1.9,1.9,0,0,1,.78-.16c.51,0,.9.22.9.75s-.29.68-.77,1c-.25.15-.59.29-.6.64,0,0,0,.07,0,.1Z"/><path class="cls-5" d="M193.18,29.72a.28.28,0,0,1-.12-.12,3.86,3.86,0,0,0,0-3.69.3.3,0,0,1,.12-.11.32.32,0,0,1,.17,0,4,4,0,0,1,.57,2,4,4,0,0,1-.57,2A.51.51,0,0,1,193.18,29.72Z"/></svg>