<svg id="Warstwa_1" data-name="Warstwa 1" xmlns="http://www.w3.org/2000/svg" viewBox="0 0 650 150"><defs><style>.cls-1{fill:#0056a3;}.cls-2{fill:none;stroke:#ccd513;stroke-width:4px;}</style></defs><title>aplikacja_zelu_02</title><path class="cls-1" d="M189.21,27.93a5.32,5.32,0,0,1-1.61.19,4.37,4.37,0,0,1-1.45-.19l-1.26-3.7h-6.3l-1.29,3.7a4.72,4.72,0,0,1-1.47.19,4.44,4.44,0,0,1-1.4-.19L180,11.74a7.81,7.81,0,0,1,1.86-.18,7.23,7.23,0,0,1,1.84.18Zm-9.91-6h4.85l-1.79-5.13a19.09,19.09,0,0,1-.6-2.32h-.07a16.35,16.35,0,0,1-.57,2.32Z"/><path class="cls-1" d="M201.31,22c0,4.7-1.73,6.31-4.32,6.31A3.73,3.73,0,0,1,193.83,27v6.21a5.49,5.49,0,0,1-1.47.16,4.94,4.94,0,0,1-1.42-.16V16.11a4.94,4.94,0,0,1,1.42-.16,5.49,5.49,0,0,1,1.47.16v1A3.69,3.69,0,0,1,197,15.74C199.56,15.74,201.31,17.28,201.31,22Zm-3,0c0-3.15-.76-4-2.32-4-1.33,0-2.09,1.11-2.12,2.49v2.92c0,1.35.72,2.6,2.12,2.6S198.27,25.26,198.27,22Z"/><path class="cls-1" d="M203.84,28V11a4.9,4.9,0,0,1,1.45-.16,5.2,5.2,0,0,1,1.44.16V28a4.91,4.91,0,0,1-1.44.17A4.63,4.63,0,0,1,203.84,28Z"/><path class="cls-1" d="M209.7,13.61V11.12a5.09,5.09,0,0,1,1.5-.16,5.59,5.59,0,0,1,1.47.16v2.49a5.59,5.59,0,0,1-1.47.16A5.26,5.26,0,0,1,209.7,13.61ZM209.75,28V16.11A4.65,4.65,0,0,1,211.2,16a5.47,5.47,0,0,1,1.44.16V28a5.16,5.16,0,0,1-1.44.17A4.4,4.4,0,0,1,209.75,28Z"/><path class="cls-1" d="M225.75,28a6.28,6.28,0,0,1-1.63.19,5.69,5.69,0,0,1-1.57-.19l-3-5.12h-1.11V28a5.09,5.09,0,0,1-1.42.17,5.28,5.28,0,0,1-1.47-.17V11a8.27,8.27,0,0,1,1.47-.11,8.56,8.56,0,0,1,1.42.11v9.73h1.13l2.69-4.6a5.24,5.24,0,0,1,1.43-.16,6.28,6.28,0,0,1,1.47.16l-3.15,5.47Z"/><path class="cls-1" d="M236.4,20.14V28a3.35,3.35,0,0,1-1.2.17A3.78,3.78,0,0,1,234,28l-.36-1.33c-.56,1.15-1.73,1.73-3.43,1.73-2.23,0-3.56-1.29-3.56-3.89s1.54-3.68,4.5-3.68c.9,0,1.73.09,2.35.14v-.67c0-1.36-.6-2.11-2.16-2.11a9.34,9.34,0,0,0-3,.55,2.13,2.13,0,0,1-.64-.9,2.47,2.47,0,0,1-.18-1.15,10.31,10.31,0,0,1,4.23-.9C235.18,15.74,236.4,17.17,236.4,20.14Zm-2.9,3.35v-.76c-.51,0-1.22-.11-1.91-.11-1.31,0-2,.53-2,1.84s.64,1.86,1.7,1.86C232.79,26.32,233.5,25,233.5,23.49Z"/><path class="cls-1" d="M238.76,22.07c0-4.16,1.73-6.33,5.2-6.33a6.21,6.21,0,0,1,3.27.67,2.89,2.89,0,0,1-.83,2,5,5,0,0,0-1.86-.34c-2,0-2.79,1.24-2.79,4s.88,3.89,2.88,3.89a5.37,5.37,0,0,0,2-.37,3.23,3.23,0,0,1,.85,2,6.69,6.69,0,0,1-3.52.76C240.51,28.35,238.76,26.28,238.76,22.07Z"/><path class="cls-1" d="M247,33.54a3.17,3.17,0,0,1-.07-.64,2.77,2.77,0,0,1,.32-1.45,3.91,3.91,0,0,0,.83.09c1,0,1.47-.48,1.47-1.7V16.11A5.06,5.06,0,0,1,251,16a5.51,5.51,0,0,1,1.45.16v14c0,2.41-1.17,3.72-3.57,3.72A4.84,4.84,0,0,1,247,33.54Zm2.53-19.93V11.12A5,5,0,0,1,251,11a5.58,5.58,0,0,1,1.49.16v2.49a5,5,0,0,1-1.49.18A4.46,4.46,0,0,1,249.55,13.61Z"/><path class="cls-1" d="M264.45,20.14V28a3.28,3.28,0,0,1-1.2.17,3.75,3.75,0,0,1-1.19-.17l-.37-1.33c-.55,1.15-1.73,1.73-3.43,1.73-2.23,0-3.56-1.29-3.56-3.89s1.54-3.68,4.51-3.68c.89,0,1.72.09,2.34.14v-.67c0-1.36-.6-2.11-2.16-2.11a9.24,9.24,0,0,0-2.94.55,2.1,2.1,0,0,1-.65-.9,2.47,2.47,0,0,1-.18-1.15,10.31,10.31,0,0,1,4.23-.9C263.23,15.74,264.45,17.17,264.45,20.14Zm-2.9,3.35v-.76c-.51,0-1.22-.11-1.91-.11-1.31,0-2,.53-2,1.84s.64,1.86,1.7,1.86C260.84,26.32,261.55,25,261.55,23.49Z"/><path class="cls-1" d="M280.64,27a3.15,3.15,0,0,1-.19,1.15h-8.83a4.15,4.15,0,0,1-.16-1.2,3.72,3.72,0,0,1,.16-1.13l5.75-7.52h-5.43a3.89,3.89,0,0,1-.16-1.17,3.83,3.83,0,0,1,.16-1.15h8.54a4,4,0,0,1,.13,1.1,5.13,5.13,0,0,1-.13,1.22l-5.75,7.52h5.72A3.1,3.1,0,0,1,280.64,27Zm-4.4-12.67a4.85,4.85,0,0,1-1.35-.14V11.67a5.2,5.2,0,0,1,1.35-.13,5.65,5.65,0,0,1,1.34.13v2.49A5.26,5.26,0,0,1,276.24,14.3Z"/><path class="cls-1" d="M292,22.92H285.4c.2,2.32,1.19,3,2.87,3a5.25,5.25,0,0,0,2.55-.62,3,3,0,0,1,.92,2,6.73,6.73,0,0,1-3.95,1c-3.64,0-5.36-2.05-5.36-6.28s2-6.33,5.24-6.33c2.92,0,4.6,1.59,4.6,4.7A11.14,11.14,0,0,1,292,22.92ZM285.4,21h4.16c0-.27,0-.59,0-.92,0-1.22-.48-2.2-1.88-2.2C286.48,17.91,285.56,18.76,285.4,21Z"/><path class="cls-1" d="M294.66,28V11a4.9,4.9,0,0,1,1.45-.16,5.32,5.32,0,0,1,1.45.16V28a5,5,0,0,1-1.45.17A4.63,4.63,0,0,1,294.66,28Z"/><path class="cls-1" d="M310.21,16.11V28a4.63,4.63,0,0,1-1.45.17,5,5,0,0,1-1.45-.17V27A4.55,4.55,0,0,1,304,28.35a3.21,3.21,0,0,1-3.54-3.45V16.11A5.2,5.2,0,0,1,301.9,16a4.9,4.9,0,0,1,1.45.16v8.21c0,1.1.55,1.73,1.82,1.73a2.7,2.7,0,0,0,2.14-1.13V16.11a5.24,5.24,0,0,1,1.45-.16A4.9,4.9,0,0,1,310.21,16.11Z"/><path class="cls-1" d="M328.46,26.92a3.36,3.36,0,0,1-.18,1.2h-10V11.56h9.75a3.89,3.89,0,0,1,.18,1.1,4.16,4.16,0,0,1-.18,1.24h-6.76v4.7h5.61a3.86,3.86,0,0,1,.18,1.12,3.8,3.8,0,0,1-.18,1.18h-5.61v4.87h7A3.7,3.7,0,0,1,328.46,26.92Z"/><path class="cls-1" d="M330.81,28V11a4.9,4.9,0,0,1,1.45-.16,5.32,5.32,0,0,1,1.45.16V28a5,5,0,0,1-1.45.17A4.63,4.63,0,0,1,330.81,28Z"/><path class="cls-1" d="M346.35,16.11V28a4.63,4.63,0,0,1-1.45.17,5,5,0,0,1-1.45-.17V27a4.55,4.55,0,0,1-3.31,1.32,3.22,3.22,0,0,1-3.54-3.45V16.11a5.32,5.32,0,0,1,1.45-.16,4.9,4.9,0,0,1,1.45.16v8.21c0,1.1.55,1.73,1.82,1.73a2.67,2.67,0,0,0,2.13-1.13V16.11A5.32,5.32,0,0,1,344.9,16,4.9,4.9,0,0,1,346.35,16.11Z"/><path class="cls-1" d="M359.55,29.77c0,2.42-2.28,4.09-6.16,4.09-3.54,0-5.13-1.24-5.13-3.17a3.8,3.8,0,0,1,2-3.1,1.91,1.91,0,0,1-.5-1.38A3.81,3.81,0,0,1,351,23.63a3.72,3.72,0,0,1-2.19-3.7c0-2.58,1.64-4.19,4.74-4.19a5.94,5.94,0,0,1,2.71.58l3.27-.58a3.35,3.35,0,0,1,0,2.21l-1.73-.14a4.23,4.23,0,0,1,.49,2.12c0,2.6-1.61,4.18-4.74,4.18-.3,0-.6,0-.87,0a1.74,1.74,0,0,0-.33,1.17C352.65,27.15,359.55,25,359.55,29.77Zm-2.78.37c0-1.61-2.95-1.24-5-1.77a2.39,2.39,0,0,0-.79,1.75c0,1,.74,1.77,2.49,1.77C355.64,31.89,356.77,31.17,356.77,30.14Zm-5.15-10.21c0,1.61.76,2.3,1.93,2.3s1.93-.69,1.93-2.3-.76-2.3-1.93-2.3S351.62,18.32,351.62,19.93Z"/><path class="cls-1" d="M370.59,22.92H364c.2,2.32,1.19,3,2.87,3a5.25,5.25,0,0,0,2.55-.62,3,3,0,0,1,.92,2,6.73,6.73,0,0,1-3.95,1c-3.64,0-5.36-2.05-5.36-6.28s2-6.33,5.24-6.33c2.92,0,4.6,1.59,4.6,4.7A11.14,11.14,0,0,1,370.59,22.92ZM364,21h4.16c0-.27,0-.59,0-.92,0-1.22-.48-2.2-1.88-2.2C365.05,17.91,364.13,18.76,364,21Z"/><path class="cls-1" d="M373.23,28V11a4.9,4.9,0,0,1,1.45-.16,5.32,5.32,0,0,1,1.45.16V28a5,5,0,0,1-1.45.17A4.63,4.63,0,0,1,373.23,28Z"/><path class="cls-1" d="M393.88,11V28a4.64,4.64,0,0,1-1.29.17,4.7,4.7,0,0,1-1.31-.17l-.16-1.12a3.72,3.72,0,0,1-3.26,1.52c-2.63,0-4.35-1.59-4.35-6.28s1.65-6.33,4.35-6.33A3.59,3.59,0,0,1,391,17.12V11a5.51,5.51,0,0,1,1.45-.16A5.32,5.32,0,0,1,393.88,11ZM391,23.61V20.46A2.22,2.22,0,0,0,388.87,18c-1.59,0-2.35.85-2.35,4s.76,4,2.35,4A2.21,2.21,0,0,0,391,23.61Z"/><path class="cls-1" d="M396.32,22c0-4.57,2-6.3,5.33-6.3S407,17.47,407,22s-2.05,6.31-5.34,6.31S396.32,26.6,396.32,22ZM404,22c0-3.21-.88-4.07-2.33-4.07s-2.34.86-2.34,4.07.87,4.1,2.34,4.1S404,25.26,404,22Z"/><path class="cls-1" d="M424.65,22c0,4.7-1.73,6.31-4.33,6.31A3.72,3.72,0,0,1,417.17,27v6.21a5.59,5.59,0,0,1-1.47.16,4.94,4.94,0,0,1-1.42-.16V16.11A4.94,4.94,0,0,1,415.7,16a5.59,5.59,0,0,1,1.47.16v1a3.69,3.69,0,0,1,3.18-1.34C422.9,15.74,424.65,17.28,424.65,22Zm-3,0c0-3.15-.76-4-2.32-4-1.34,0-2.09,1.11-2.12,2.49v2.92c0,1.35.72,2.6,2.12,2.6S421.61,25.26,421.61,22Z"/><path class="cls-1" d="M427.11,28V16.11a5,5,0,0,1,1.44-.16,3.43,3.43,0,0,1,1.29.16l.07,1.45a3.31,3.31,0,0,1,2.81-1.82,3.71,3.71,0,0,1,2,.62,3.27,3.27,0,0,1-1.24,2.35,2.2,2.2,0,0,0-1.34-.46,2.76,2.76,0,0,0-2.16,1.5V28a5.2,5.2,0,0,1-1.45.17A4.75,4.75,0,0,1,427.11,28Z"/><path class="cls-1" d="M444.83,27a3.3,3.3,0,0,1-.18,1.15h-8.83a4.15,4.15,0,0,1-.16-1.2,3.72,3.72,0,0,1,.16-1.13l5.75-7.52h-5.43A3.89,3.89,0,0,1,436,17.1a3.83,3.83,0,0,1,.16-1.15h8.53a3.63,3.63,0,0,1,.14,1.1,4.65,4.65,0,0,1-.14,1.22l-5.75,7.52h5.73A3.25,3.25,0,0,1,444.83,27Z"/><path class="cls-1" d="M456.22,22.92h-6.63c.21,2.32,1.2,3,2.88,3a5.25,5.25,0,0,0,2.55-.62,3,3,0,0,1,.92,2,6.73,6.73,0,0,1-3.95,1c-3.64,0-5.36-2.05-5.36-6.28s2-6.33,5.24-6.33c2.92,0,4.6,1.59,4.6,4.7A11.14,11.14,0,0,1,456.22,22.92ZM449.59,21h4.17c0-.27,0-.59,0-.92,0-1.22-.48-2.2-1.88-2.2S449.75,18.76,449.59,21Z"/><path class="cls-1" d="M458.15,27.47a2.87,2.87,0,0,1,.71-2A9.32,9.32,0,0,0,462,26c1.4,0,2.09-.44,2.09-1.36s-1.26-1.31-2.6-1.72c-1.52-.46-3.15-1.15-3.15-3.43s1.43-3.75,4.49-3.75a8,8,0,0,1,3.51.67,2.61,2.61,0,0,1-.69,2,8.06,8.06,0,0,0-2.53-.37c-1.4,0-2.07.48-2.07,1.36s1.43,1.17,2.86,1.65,3,1.24,3,3.52-1.48,3.8-4.67,3.8A9.13,9.13,0,0,1,458.15,27.47Z"/><path class="cls-1" d="M476.11,27.15a3,3,0,0,1-.14,1,8.05,8.05,0,0,1-1.91.23c-3,0-4.14-1.43-4.14-4.51V18.07h-1.7a3.36,3.36,0,0,1-.14-1,3.34,3.34,0,0,1,.14-1.08h1.7V13.81a5.39,5.39,0,0,1,2.9-.5V16h2.76a3,3,0,0,1,.16,1.06,3.4,3.4,0,0,1-.16,1.06h-2.76v5.7c0,1.79.64,2.32,2.07,2.32a5.16,5.16,0,0,0,1-.11A2.83,2.83,0,0,1,476.11,27.15Z"/><path class="cls-1" d="M477.94,28V16.11a5.15,5.15,0,0,1,1.45-.16,3.43,3.43,0,0,1,1.29.16l.07,1.45a3.31,3.31,0,0,1,2.81-1.82,3.71,3.71,0,0,1,2,.62,3.27,3.27,0,0,1-1.24,2.35,2.2,2.2,0,0,0-1.34-.46,2.76,2.76,0,0,0-2.16,1.5V28a5.2,5.2,0,0,1-1.45.17A4.86,4.86,0,0,1,477.94,28Z"/><path class="cls-1" d="M495.67,27a3.3,3.3,0,0,1-.18,1.15h-8.83a3.83,3.83,0,0,1-.16-1.2,3.43,3.43,0,0,1,.16-1.13l5.75-7.52H487a3.89,3.89,0,0,1-.16-1.17A3.83,3.83,0,0,1,487,16h8.53a4,4,0,0,1,.14,1.1,5.11,5.11,0,0,1-.14,1.22l-5.75,7.52h5.73A3.25,3.25,0,0,1,495.67,27Z"/><path class="cls-1" d="M507.06,22.92h-6.63c.21,2.32,1.2,3,2.88,3a5.25,5.25,0,0,0,2.55-.62,3,3,0,0,1,.92,2,6.74,6.74,0,0,1-4,1c-3.63,0-5.35-2.05-5.35-6.28s2-6.33,5.24-6.33c2.92,0,4.6,1.59,4.6,4.7A11.14,11.14,0,0,1,507.06,22.92ZM500.43,21h4.17c0-.27,0-.59,0-.92,0-1.22-.48-2.2-1.88-2.2C501.51,17.91,500.59,18.76,500.43,21Z"/><path class="cls-1" d="M509.63,28V16.13a4.39,4.39,0,0,1,1.45-.18,4.77,4.77,0,0,1,1.45.18v.95a4.42,4.42,0,0,1,3.33-1.34,3.21,3.21,0,0,1,3.52,3.45V28a4.78,4.78,0,0,1-1.45.17,4.63,4.63,0,0,1-1.45-.17V19.77c0-1.11-.55-1.73-1.81-1.73a2.68,2.68,0,0,0-2.14,1.15V28a5,5,0,0,1-1.45.17A4.63,4.63,0,0,1,509.63,28Z"/><path class="cls-1" d="M522.23,13.61V11.12a5.09,5.09,0,0,1,1.5-.16,5.59,5.59,0,0,1,1.47.16v2.49a5.59,5.59,0,0,1-1.47.16A5.26,5.26,0,0,1,522.23,13.61Zm0,14.34V16.11a4.65,4.65,0,0,1,1.45-.16,5.37,5.37,0,0,1,1.44.16V28a5.08,5.08,0,0,1-1.44.17A4.4,4.4,0,0,1,522.28,28Z"/><path class="cls-1" d="M175.62,55.55V43.73a4.18,4.18,0,0,1,1.45-.19,4.69,4.69,0,0,1,1.45.19v1a4.37,4.37,0,0,1,3.2-1.35A3,3,0,0,1,184.66,45a4.69,4.69,0,0,1,3.68-1.61,3.17,3.17,0,0,1,3.4,3.47v8.74a5.51,5.51,0,0,1-1.45.16,5,5,0,0,1-1.44-.16V47.36a1.51,1.51,0,0,0-1.71-1.72,2.41,2.41,0,0,0-2,1.15v8.76a5.51,5.51,0,0,1-1.45.16,5.15,5.15,0,0,1-1.45-.16V47.36a1.5,1.5,0,0,0-1.68-1.72,2.46,2.46,0,0,0-2,1.12v8.79a5.51,5.51,0,0,1-1.45.16A5.15,5.15,0,0,1,175.62,55.55Z"/><path class="cls-1" d="M194.59,41.2V38.71a5.09,5.09,0,0,1,1.5-.16,5.59,5.59,0,0,1,1.47.16V41.2a5.59,5.59,0,0,1-1.47.16A5.35,5.35,0,0,1,194.59,41.2Zm0,14.35V43.7a4.73,4.73,0,0,1,1.45-.16,5.51,5.51,0,0,1,1.45.16V55.55a5.51,5.51,0,0,1-1.45.16A4.73,4.73,0,0,1,194.64,55.55Z"/><path class="cls-1" d="M209.56,50.51h-6.62c.16,2.32,1.2,3,2.87,3a5.27,5.27,0,0,0,2.56-.62,3,3,0,0,1,.94,2l-.32.26c-1.59,1.4-2.39,3-2.16,3.84a.59.59,0,0,0,.62.48,1.72,1.72,0,0,0,.76-.21,3,3,0,0,1,.62,1.61,4.26,4.26,0,0,1-2.26.58,2,2,0,0,1-2.25-1.52c-.32-1.36.48-2.78,2-4a8.9,8.9,0,0,1-.94,0c-3.63,0-5.36-2-5.36-6.28s2-6.32,5.25-6.32c2.92,0,4.6,1.58,4.6,4.69A10.73,10.73,0,0,1,209.56,50.51Zm-6.62-1.88h4.16c0-.28.05-.6.05-.92,0-1.22-.49-2.21-1.89-2.21C204,45.5,203.1,46.35,202.94,48.63Z"/><path class="cls-1" d="M222.07,38.62V55.55a4.91,4.91,0,0,1-1.29.16,5,5,0,0,1-1.31-.16l-.16-1.13a3.72,3.72,0,0,1-3.26,1.52c-2.63,0-4.35-1.59-4.35-6.28s1.66-6.32,4.35-6.32a3.57,3.57,0,0,1,3.12,1.38v-6.1a5.51,5.51,0,0,1,1.45-.16A5.24,5.24,0,0,1,222.07,38.62Zm-2.9,12.58V48.05a2.21,2.21,0,0,0-2.11-2.41c-1.59,0-2.35.85-2.35,4s.76,4,2.35,4A2.21,2.21,0,0,0,219.17,51.2Z"/><path class="cls-1" d="M233.48,54.56a3.15,3.15,0,0,1-.19,1.15h-8.83a4.15,4.15,0,0,1-.16-1.2,3.61,3.61,0,0,1,.16-1.12l5.75-7.52h-5.43a3.93,3.93,0,0,1-.16-1.18,3.83,3.83,0,0,1,.16-1.15h8.54a4.08,4.08,0,0,1,.13,1.11,5.25,5.25,0,0,1-.13,1.22l-5.75,7.52h5.72A3,3,0,0,1,233.48,54.56Z"/><path class="cls-1" d="M246.4,43.7l-4.28,13.64c-.83,2.64-1.79,4.12-4.48,4.12A4.78,4.78,0,0,1,236,61.2a2.79,2.79,0,0,1-.18-1A3.3,3.3,0,0,1,236,59a4.82,4.82,0,0,0,1.06.09c1.18,0,1.75-.27,2.39-2.3l.4-1.14a2.83,2.83,0,0,1-.9-.14L234.72,43.7a6.26,6.26,0,0,1,1.54-.16,5.14,5.14,0,0,1,1.47.16L240,50a17.62,17.62,0,0,1,.76,2.92h.09a20.94,20.94,0,0,1,.69-2.92l2-6.31a4.87,4.87,0,0,1,1.4-.16A5.62,5.62,0,0,1,246.4,43.7Z"/><path class="cls-1" d="M256.72,54.56a3.3,3.3,0,0,1-.18,1.15h-8.83a3.83,3.83,0,0,1-.16-1.2,3.34,3.34,0,0,1,.16-1.12l5.75-7.52H248a3.93,3.93,0,0,1-.16-1.18,3.83,3.83,0,0,1,.16-1.15h8.53a4.05,4.05,0,0,1,.14,1.11,5.24,5.24,0,0,1-.14,1.22l-5.75,7.52h5.73A3.16,3.16,0,0,1,256.72,54.56Z"/><path class="cls-1" d="M268.11,50.51h-6.63c.16,2.32,1.2,3,2.88,3a5.25,5.25,0,0,0,2.55-.62,3,3,0,0,1,.94,2l-.32.26c-1.59,1.4-2.39,3-2.16,3.84a.59.59,0,0,0,.62.48,1.72,1.72,0,0,0,.76-.21,2.91,2.91,0,0,1,.62,1.61,4.25,4.25,0,0,1-2.25.58,2,2,0,0,1-2.26-1.52c-.32-1.36.49-2.78,2-4a9.25,9.25,0,0,1-.95,0c-3.63,0-5.35-2-5.35-6.28s2-6.32,5.24-6.32c2.92,0,4.6,1.58,4.6,4.69A11.14,11.14,0,0,1,268.11,50.51Zm-6.63-1.88h4.16a8.81,8.81,0,0,0,.05-.92c0-1.22-.48-2.21-1.88-2.21S261.64,46.35,261.48,48.63Z"/><path class="cls-1" d="M281.05,49.64c0,4.71-1.72,6.3-4.32,6.3a3.64,3.64,0,0,1-3.15-1.34v.95a5.59,5.59,0,0,1-1.47.16,5,5,0,0,1-1.43-.16V38.62a5,5,0,0,1,1.43-.16,5.59,5.59,0,0,1,1.47.16v6.05a3.67,3.67,0,0,1,3.15-1.33C279.33,43.34,281.05,44.92,281.05,49.64Zm-3,0c0-3.15-.74-4-2.33-4-1.31,0-2.09,1.1-2.11,2.53v2.94c0,1.4.78,2.53,2.11,2.53C277.28,53.64,278,52.79,278,49.64Z"/><path class="cls-1" d="M283.05,49.64c0-4.58,2.05-6.3,5.33-6.3s5.34,1.72,5.34,6.3-2.05,6.3-5.34,6.3S283.05,54.19,283.05,49.64Zm7.66,0c0-3.22-.88-4.07-2.33-4.07s-2.34.85-2.34,4.07.87,4.09,2.34,4.09S290.71,52.86,290.71,49.64Z"/><path class="cls-1" d="M298.18,55.55,294.92,43.7a5.3,5.3,0,0,1,1.42-.16,3.12,3.12,0,0,1,1.27.16L299.42,50a22.33,22.33,0,0,1,.53,2.92H300a18,18,0,0,1,.55-3l1.73-6.28a7.23,7.23,0,0,1,1.54-.16,5.39,5.39,0,0,1,1.42.16L307,50a22.35,22.35,0,0,1,.51,3h.07a17,17,0,0,1,.57-3l1.8-6.28a4.19,4.19,0,0,1,1.26-.16,3.4,3.4,0,0,1,1.24.16L309.2,55.55a8.35,8.35,0,0,1-1.71.16,8.25,8.25,0,0,1-1.7-.16l-1.47-5.41a19.37,19.37,0,0,1-.57-3.81h-.1a17.86,17.86,0,0,1-.59,3.81l-1.48,5.41a7.9,7.9,0,0,1-1.65.16A8.75,8.75,0,0,1,298.18,55.55Z"/><path class="cls-1" d="M324.85,43.7l-4.27,13.64c-.83,2.64-1.8,4.12-4.49,4.12a4.67,4.67,0,0,1-1.65-.26,2.66,2.66,0,0,1-.19-1,3.16,3.16,0,0,1,.21-1.13,4.71,4.71,0,0,0,1.06.09c1.17,0,1.75-.27,2.39-2.3l.39-1.14a2.93,2.93,0,0,1-.9-.14L313.17,43.7a6.36,6.36,0,0,1,1.54-.16,5.14,5.14,0,0,1,1.47.16l2.3,6.31a16.48,16.48,0,0,1,.76,2.92h.09A22,22,0,0,1,320,50l2-6.31a4.87,4.87,0,0,1,1.4-.16A5.58,5.58,0,0,1,324.85,43.7Z"/><path class="cls-1" d="M326,49.66c0-4.16,1.72-6.32,5.19-6.32a6.29,6.29,0,0,1,3.27.66,2.85,2.85,0,0,1-.83,2,5,5,0,0,0-1.86-.34c-2,0-2.78,1.24-2.78,4s.87,3.88,2.87,3.88a5.5,5.5,0,0,0,2-.36,3.2,3.2,0,0,1,.85,2,6.69,6.69,0,0,1-3.52.76C327.7,55.94,326,53.87,326,49.66Z"/><path class="cls-1" d="M346.47,46.76v8.79a5.06,5.06,0,0,1-1.45.16,4.9,4.9,0,0,1-1.45-.16V47.36c0-1.1-.55-1.72-1.82-1.72a2.67,2.67,0,0,0-2.14,1.15v8.76a5.2,5.2,0,0,1-1.44.16,4.9,4.9,0,0,1-1.45-.16V38.62a4.9,4.9,0,0,1,1.45-.16,5.2,5.2,0,0,1,1.44.16v6A4.61,4.61,0,0,1,343,43.34,3.19,3.19,0,0,1,346.47,46.76Z"/><path class="cls-1" d="M364.56,49.64c0,4.69-1.72,6.3-4.32,6.3a3.69,3.69,0,0,1-3.15-1.34v6.21a5.59,5.59,0,0,1-1.47.16,5.07,5.07,0,0,1-1.43-.16V43.7a5.07,5.07,0,0,1,1.43-.16,5.59,5.59,0,0,1,1.47.16v1a3.7,3.7,0,0,1,3.17-1.33C362.82,43.34,364.56,44.88,364.56,49.64Zm-3,0c0-3.15-.76-4-2.32-4-1.34,0-2.1,1.1-2.12,2.48V51c0,1.36.71,2.6,2.12,2.6S361.53,52.86,361.53,49.64Z"/><path class="cls-1" d="M367,55.55V43.7a5.15,5.15,0,0,1,1.45-.16,3.5,3.5,0,0,1,1.29.16l.07,1.45a3.29,3.29,0,0,1,2.8-1.81,3.64,3.64,0,0,1,2,.62,3.26,3.26,0,0,1-1.24,2.34,2.2,2.2,0,0,0-1.34-.46,2.76,2.76,0,0,0-2.16,1.5v8.21a5.51,5.51,0,0,1-1.45.16A5.15,5.15,0,0,1,367,55.55Z"/><path class="cls-1" d="M384.75,54.56a3.3,3.3,0,0,1-.18,1.15h-8.83a3.83,3.83,0,0,1-.16-1.2,3.34,3.34,0,0,1,.16-1.12l5.75-7.52h-5.43a3.93,3.93,0,0,1-.16-1.18,3.83,3.83,0,0,1,.16-1.15h8.53a4.05,4.05,0,0,1,.14,1.11,5.24,5.24,0,0,1-.14,1.22l-5.75,7.52h5.73A3.16,3.16,0,0,1,384.75,54.56Z"/><path class="cls-1" d="M397.67,43.7,393.4,57.34c-.83,2.64-1.8,4.12-4.49,4.12a4.67,4.67,0,0,1-1.65-.26,2.66,2.66,0,0,1-.19-1,3.16,3.16,0,0,1,.21-1.13,4.71,4.71,0,0,0,1.06.09c1.17,0,1.75-.27,2.39-2.3l.39-1.14a2.93,2.93,0,0,1-.9-.14L386,43.7a6.36,6.36,0,0,1,1.54-.16,5.27,5.27,0,0,1,1.48.16l2.3,6.31a16.92,16.92,0,0,1,.75,2.92h.1a20.94,20.94,0,0,1,.69-2.92l2-6.31a4.87,4.87,0,0,1,1.4-.16A5.58,5.58,0,0,1,397.67,43.7Z"/><path class="cls-1" d="M414.3,49.64c0,4.69-1.73,6.3-4.32,6.3a3.67,3.67,0,0,1-3.15-1.34v6.21a5.63,5.63,0,0,1-1.48.16,4.94,4.94,0,0,1-1.42-.16V43.7a4.94,4.94,0,0,1,1.42-.16,5.63,5.63,0,0,1,1.48.16v1A3.68,3.68,0,0,1,410,43.34C412.55,43.34,414.3,44.88,414.3,49.64Zm-3,0c0-3.15-.76-4-2.32-4-1.33,0-2.09,1.1-2.11,2.48V51c0,1.36.71,2.6,2.11,2.6S411.26,52.86,411.26,49.64Z"/><path class="cls-1" d="M416.3,49.64c0-4.58,2.05-6.3,5.33-6.3s5.34,1.72,5.34,6.3-2.05,6.3-5.34,6.3S416.3,54.19,416.3,49.64Zm7.66,0c0-3.22-.88-4.07-2.33-4.07s-2.34.85-2.34,4.07.87,4.09,2.34,4.09S424,52.86,424,49.64Z"/><path class="cls-1" d="M429.38,55.55V43.73a4.18,4.18,0,0,1,1.45-.19,4.69,4.69,0,0,1,1.45.19v1a4.35,4.35,0,0,1,3.2-1.35A3,3,0,0,1,438.42,45a4.69,4.69,0,0,1,3.68-1.61,3.17,3.17,0,0,1,3.4,3.47v8.74a5.51,5.51,0,0,1-1.45.16,5.15,5.15,0,0,1-1.45-.16V47.36a1.5,1.5,0,0,0-1.7-1.72,2.4,2.4,0,0,0-2,1.15v8.76a5.51,5.51,0,0,1-1.45.16,5.06,5.06,0,0,1-1.45-.16V47.36a1.5,1.5,0,0,0-1.68-1.72,2.46,2.46,0,0,0-2,1.12v8.79a5.51,5.51,0,0,1-1.45.16A5.06,5.06,0,0,1,429.38,55.55Z"/><path class="cls-1" d="M447.89,49.64c0-4.58,2.05-6.3,5.34-6.3s5.33,1.72,5.33,6.3-2,6.3-5.33,6.3S447.89,54.19,447.89,49.64Zm7.66,0c0-3.22-.87-4.07-2.32-4.07s-2.35.85-2.35,4.07.88,4.09,2.35,4.09S455.55,52.86,455.55,49.64Z"/><path class="cls-1" d="M460.52,49.66c0-4.16,1.72-6.32,5.19-6.32A6.29,6.29,0,0,1,469,44a2.85,2.85,0,0,1-.83,2,5,5,0,0,0-1.86-.34c-2,0-2.78,1.24-2.78,4s.87,3.88,2.87,3.88a5.5,5.5,0,0,0,2-.36,3.2,3.2,0,0,1,.85,2,6.69,6.69,0,0,1-3.52.76C462.26,55.94,460.52,53.87,460.52,49.66Z"/><path class="cls-1" d="M481.83,43.7l-4.27,13.64c-.83,2.64-1.8,4.12-4.49,4.12a4.67,4.67,0,0,1-1.65-.26,2.66,2.66,0,0,1-.19-1,3.16,3.16,0,0,1,.21-1.13,4.71,4.71,0,0,0,1.06.09c1.17,0,1.74-.27,2.39-2.3l.39-1.14a2.93,2.93,0,0,1-.9-.14L470.15,43.7a6.36,6.36,0,0,1,1.54-.16,5.14,5.14,0,0,1,1.47.16l2.3,6.31a16.48,16.48,0,0,1,.76,2.92h.09A22.85,22.85,0,0,1,477,50l2-6.31a5,5,0,0,1,1.41-.16A5.58,5.58,0,0,1,481.83,43.7Z"/><path class="cls-1" d="M175,82.66a2.89,2.89,0,0,1,.71-2,9.34,9.34,0,0,0,3.13.56c1.4,0,2.09-.44,2.09-1.36s-1.26-1.31-2.6-1.73c-1.51-.46-3.15-1.15-3.15-3.42s1.43-3.75,4.49-3.75a8,8,0,0,1,3.52.67,2.67,2.67,0,0,1-.69,2,8.53,8.53,0,0,0-2.53-.36c-1.41,0-2.07.48-2.07,1.35s1.42,1.18,2.85,1.66,3,1.24,3,3.52-1.47,3.79-4.67,3.79A9.28,9.28,0,0,1,175,82.66Z"/><path class="cls-1" d="M194.46,82.15a3.15,3.15,0,0,1-.19,1.15h-8.83a4.13,4.13,0,0,1-.16-1.19,3.63,3.63,0,0,1,.16-1.13l5.75-7.52h-5.43a3.89,3.89,0,0,1-.16-1.17,3.83,3.83,0,0,1,.16-1.15h8.53a3.59,3.59,0,0,1,.14,1.1,4.7,4.7,0,0,1-.14,1.22L188.55,81h5.72A3,3,0,0,1,194.46,82.15Z"/><path class="cls-1" d="M196.27,77.25c0-4.16,1.73-6.32,5.2-6.32a6.19,6.19,0,0,1,3.26.67,2.92,2.92,0,0,1-.82,2,4.87,4.87,0,0,0-1.87-.35c-2,0-2.78,1.24-2.78,4s.87,3.89,2.88,3.89a5.37,5.37,0,0,0,2-.37,3.23,3.23,0,0,1,.85,2,6.69,6.69,0,0,1-3.52.76C198,83.53,196.27,81.46,196.27,77.25Z"/><path class="cls-1" d="M215.54,82.15a3.3,3.3,0,0,1-.18,1.15h-8.83a3.81,3.81,0,0,1-.16-1.19,3.36,3.36,0,0,1,.16-1.13l5.75-7.52h-5.43a3.89,3.89,0,0,1-.16-1.17,3.83,3.83,0,0,1,.16-1.15h8.53a3.92,3.92,0,0,1,.14,1.1,5.17,5.17,0,0,1-.14,1.22L209.63,81h5.73A3.16,3.16,0,0,1,215.54,82.15Z"/><path class="cls-1" d="M217.36,77.23c0-4.58,2-6.3,5.33-6.3s5.34,1.72,5.34,6.3-2.05,6.3-5.34,6.3S217.36,81.78,217.36,77.23Zm7.65,0c0-3.22-.87-4.07-2.32-4.07s-2.34.85-2.34,4.07.87,4.09,2.34,4.09S225,80.45,225,77.23Z"/><path class="cls-1" d="M237.34,82.33a3,3,0,0,1-.14,1,7.45,7.45,0,0,1-1.91.23c-3,0-4.14-1.42-4.14-4.51V73.25h-1.7a3.33,3.33,0,0,1-.14-1,3.27,3.27,0,0,1,.14-1.08h1.7V69a5.39,5.39,0,0,1,2.9-.51v2.65h2.76a3,3,0,0,1,.16,1,3.4,3.4,0,0,1-.16,1.06h-2.76V79c0,1.79.65,2.32,2.07,2.32a4.63,4.63,0,0,0,1-.12A2.83,2.83,0,0,1,237.34,82.33Z"/><path class="cls-1" d="M248.28,78.1h-6.62c.21,2.33,1.2,3,2.88,3a5.25,5.25,0,0,0,2.55-.62,3,3,0,0,1,.92,2,6.82,6.82,0,0,1-4,1c-3.63,0-5.35-2-5.35-6.28s2-6.32,5.24-6.32c2.92,0,4.6,1.59,4.6,4.69A10.63,10.63,0,0,1,248.28,78.1Zm-6.62-1.88h4.16a8.81,8.81,0,0,0,.05-.92c0-1.22-.48-2.21-1.89-2.21C242.74,73.09,241.82,73.94,241.66,76.22Z"/><path class="cls-1" d="M250.4,77.25c0-4.16,1.72-6.32,5.2-6.32a6.19,6.19,0,0,1,3.26.67,2.88,2.88,0,0,1-.83,2,4.85,4.85,0,0,0-1.86-.35c-2,0-2.78,1.24-2.78,4s.87,3.89,2.87,3.89a5.31,5.31,0,0,0,2-.37,3.17,3.17,0,0,1,.85,2,6.63,6.63,0,0,1-3.51.76C252.15,83.53,250.4,81.46,250.4,77.25Z"/><path class="cls-1" d="M269.67,82.15a3.15,3.15,0,0,1-.19,1.15h-8.83a4.13,4.13,0,0,1-.16-1.19,3.63,3.63,0,0,1,.16-1.13l5.75-7.52H261a3.89,3.89,0,0,1-.16-1.17,3.83,3.83,0,0,1,.16-1.15h8.53a3.92,3.92,0,0,1,.14,1.1,5.17,5.17,0,0,1-.14,1.22L263.76,81h5.72A3,3,0,0,1,269.67,82.15Z"/><path class="cls-1" d="M281.05,78.1h-6.62c.2,2.33,1.19,3,2.87,3a5.25,5.25,0,0,0,2.55-.62,2.92,2.92,0,0,1,.92,2,6.77,6.77,0,0,1-3.95,1c-3.63,0-5.36-2-5.36-6.28s2-6.32,5.24-6.32c2.92,0,4.6,1.59,4.6,4.69A11,11,0,0,1,281.05,78.1Zm-6.62-1.88h4.16c0-.28.05-.6.05-.92,0-1.22-.49-2.21-1.89-2.21C275.51,73.09,274.59,73.94,274.43,76.22Z"/><path class="cls-1" d="M293.81,83.14a6.61,6.61,0,0,1-1.63.18,5.86,5.86,0,0,1-1.56-.18l-3-5.13h-1.1v5.13a5.43,5.43,0,0,1-1.43.16,5.59,5.59,0,0,1-1.47-.16v-17a7.6,7.6,0,0,1,1.47-.12,8.06,8.06,0,0,1,1.43.12V75.9h1.12l2.69-4.6a5.24,5.24,0,0,1,1.43-.16,6.28,6.28,0,0,1,1.47.16l-3.15,5.47Z"/><path class="cls-1" d="M300.27,68.79V66.31a5.09,5.09,0,0,1,1.5-.16,5.59,5.59,0,0,1,1.47.16v2.48a5.59,5.59,0,0,1-1.47.16A5.26,5.26,0,0,1,300.27,68.79Zm.05,14.35V71.3a4.65,4.65,0,0,1,1.45-.16,5.37,5.37,0,0,1,1.44.16V83.14a5.37,5.37,0,0,1-1.44.16A4.65,4.65,0,0,1,300.32,83.14Z"/><path class="cls-1" d="M306.13,83.14V71.32a4.39,4.39,0,0,1,1.45-.18,4.69,4.69,0,0,1,1.45.18v.94a4.47,4.47,0,0,1,3.34-1.33,3.2,3.2,0,0,1,3.51,3.45v8.76a5,5,0,0,1-1.44.16,4.9,4.9,0,0,1-1.45-.16V75c0-1.1-.55-1.72-1.82-1.72A2.67,2.67,0,0,0,309,74.38v8.76a5.24,5.24,0,0,1-1.45.16A4.9,4.9,0,0,1,306.13,83.14Z"/><path class="cls-1" d="M325.73,82.33a3,3,0,0,1-.14,1,7.57,7.57,0,0,1-1.91.23c-3,0-4.14-1.42-4.14-4.51V73.25h-1.7a3.33,3.33,0,0,1-.14-1,3.27,3.27,0,0,1,.14-1.08h1.7V69a5.39,5.39,0,0,1,2.9-.51v2.65h2.76a3,3,0,0,1,.16,1,3.4,3.4,0,0,1-.16,1.06h-2.76V79c0,1.79.64,2.32,2.07,2.32a4.76,4.76,0,0,0,1-.12A2.83,2.83,0,0,1,325.73,82.33Z"/><path class="cls-1" d="M336.67,78.1h-6.62c.21,2.33,1.19,3,2.87,3a5.32,5.32,0,0,0,2.56-.62,3,3,0,0,1,.92,2,6.82,6.82,0,0,1-4,1c-3.63,0-5.36-2-5.36-6.28s2-6.32,5.25-6.32c2.92,0,4.59,1.59,4.59,4.69A11,11,0,0,1,336.67,78.1Zm-6.62-1.88h4.16c0-.28.05-.6.05-.92,0-1.22-.49-2.21-1.89-2.21C331.13,73.09,330.21,73.94,330.05,76.22Z"/><path class="cls-1" d="M339.25,83.14V71.3a5.06,5.06,0,0,1,1.45-.16,3.4,3.4,0,0,1,1.28.16l.07,1.45a3.31,3.31,0,0,1,2.81-1.82,3.61,3.61,0,0,1,2,.62,3.3,3.3,0,0,1-1.24,2.35,2.17,2.17,0,0,0-1.33-.46,2.75,2.75,0,0,0-2.17,1.49v8.21a5.47,5.47,0,0,1-1.44.16A5.06,5.06,0,0,1,339.25,83.14Z"/><path class="cls-1" d="M358.19,66.22V83.14a5.32,5.32,0,0,1-2.59,0L355.43,82a3.68,3.68,0,0,1-3.26,1.52c-2.62,0-4.35-1.59-4.35-6.28s1.66-6.32,4.35-6.32a3.6,3.6,0,0,1,3.13,1.38V66.22a5.08,5.08,0,0,1,1.44-.17A5,5,0,0,1,358.19,66.22ZM355.3,78.79V75.64a2.22,2.22,0,0,0-2.12-2.41c-1.59,0-2.34.85-2.34,4s.75,4,2.34,4A2.22,2.22,0,0,0,355.3,78.79Z"/><path class="cls-1" d="M370.2,78.1h-6.63c.21,2.33,1.2,3,2.88,3A5.25,5.25,0,0,0,369,80.5a3,3,0,0,1,.92,2,6.79,6.79,0,0,1-4,1c-3.63,0-5.35-2-5.35-6.28s2-6.32,5.24-6.32c2.92,0,4.6,1.59,4.6,4.69A11,11,0,0,1,370.2,78.1Zm-6.63-1.88h4.17c0-.28,0-.6,0-.92,0-1.22-.48-2.21-1.88-2.21C364.65,73.09,363.73,73.94,363.57,76.22Z"/><path class="cls-1" d="M372.77,83.14V71.32a4.39,4.39,0,0,1,1.45-.18,4.77,4.77,0,0,1,1.45.18v.94A4.47,4.47,0,0,1,379,70.93a3.21,3.21,0,0,1,3.52,3.45v8.76a5.06,5.06,0,0,1-1.45.16,4.9,4.9,0,0,1-1.45-.16V75c0-1.1-.55-1.72-1.81-1.72a2.65,2.65,0,0,0-2.14,1.15v8.76a5.32,5.32,0,0,1-1.45.16A4.9,4.9,0,0,1,372.77,83.14Z"/><path class="cls-1" d="M392.36,82.33a3,3,0,0,1-.14,1,7.42,7.42,0,0,1-1.9.23c-3,0-4.14-1.42-4.14-4.51V73.25h-1.71a3.56,3.56,0,0,1-.13-1,3.5,3.5,0,0,1,.13-1.08h1.71V69a5.35,5.35,0,0,1,2.89-.51v2.65h2.76a3,3,0,0,1,.16,1,3.4,3.4,0,0,1-.16,1.06h-2.76V79c0,1.79.65,2.32,2.07,2.32a4.63,4.63,0,0,0,1-.12A2.83,2.83,0,0,1,392.36,82.33Z"/><path class="cls-1" d="M403.24,75.32v7.82a3.47,3.47,0,0,1-1.2.16,4,4,0,0,1-1.19-.16l-.37-1.33c-.55,1.15-1.73,1.72-3.43,1.72-2.23,0-3.56-1.29-3.56-3.89S395,76,398,76c.89,0,1.72.09,2.34.13v-.66c0-1.36-.6-2.12-2.16-2.12a9.24,9.24,0,0,0-2.94.55,2.11,2.11,0,0,1-.65-.89,2.47,2.47,0,0,1-.18-1.15,10.31,10.31,0,0,1,4.23-.9C402,70.93,403.24,72.35,403.24,75.32Zm-2.9,3.36v-.76c-.51,0-1.22-.12-1.91-.12-1.31,0-2,.53-2,1.84s.64,1.87,1.7,1.87C399.63,81.51,400.34,80.2,400.34,78.68Z"/><path class="cls-1" d="M406.13,83.14V66.22a4.63,4.63,0,0,1,1.45-.17,5,5,0,0,1,1.45.17V83.14a5.24,5.24,0,0,1-1.45.16A4.9,4.9,0,0,1,406.13,83.14Z"/><path class="cls-1" d="M412,83.14V71.32a4.39,4.39,0,0,1,1.45-.18,4.77,4.77,0,0,1,1.45.18v.94a4.43,4.43,0,0,1,3.33-1.33,3.21,3.21,0,0,1,3.52,3.45v8.76a5.06,5.06,0,0,1-1.45.16,4.9,4.9,0,0,1-1.45-.16V75c0-1.1-.55-1.72-1.82-1.72a2.64,2.64,0,0,0-2.13,1.15v8.76a5.32,5.32,0,0,1-1.45.16A4.9,4.9,0,0,1,412,83.14Z"/><path class="cls-1" d="M435,71.3l-4.28,13.63c-.83,2.65-1.79,4.12-4.48,4.12a5.08,5.08,0,0,1-1.66-.25,2.88,2.88,0,0,1-.18-1,3.3,3.3,0,0,1,.2-1.13,4.77,4.77,0,0,0,1.06.1c1.17,0,1.75-.28,2.39-2.3l.4-1.15a2.83,2.83,0,0,1-.9-.14L423.36,71.3a6.26,6.26,0,0,1,1.54-.16,5.14,5.14,0,0,1,1.47.16l2.3,6.3a17.62,17.62,0,0,1,.76,2.92h.09a20.94,20.94,0,0,1,.69-2.92l2-6.3a4.87,4.87,0,0,1,1.4-.16A5.62,5.62,0,0,1,435,71.3Z"/><path class="cls-1" d="M436.14,77.25c0-4.16,1.73-6.32,5.2-6.32a6.19,6.19,0,0,1,3.26.67,2.92,2.92,0,0,1-.82,2,4.87,4.87,0,0,0-1.87-.35c-2,0-2.78,1.24-2.78,4s.87,3.89,2.87,3.89a5.39,5.39,0,0,0,2-.37,3.23,3.23,0,0,1,.85,2,6.69,6.69,0,0,1-3.52.76C437.89,83.53,436.14,81.46,436.14,77.25Z"/><path class="cls-1" d="M456.65,74.36v8.78a5.06,5.06,0,0,1-1.45.16,4.9,4.9,0,0,1-1.45-.16V75c0-1.1-.55-1.72-1.81-1.72a2.65,2.65,0,0,0-2.14,1.15v8.76a5.32,5.32,0,0,1-1.45.16,4.9,4.9,0,0,1-1.45-.16V66.22a4.63,4.63,0,0,1,1.45-.17,5,5,0,0,1,1.45.17v6a4.58,4.58,0,0,1,3.33-1.29A3.19,3.19,0,0,1,456.65,74.36Z"/><path class="cls-1" d="M185.88,110.16a2,2,0,0,1-.14.73h-9.36V94.34h9.13a1.6,1.6,0,0,1,.14.69,1.83,1.83,0,0,1-.14.73h-7.43v6h6.28a1.71,1.71,0,0,1,.14.67,1.94,1.94,0,0,1-.14.73h-6.28v6.26h7.66A1.67,1.67,0,0,1,185.88,110.16Z"/><path class="cls-1" d="M188.89,110.78v-17a2.15,2.15,0,0,1,.83-.11,2.48,2.48,0,0,1,.83.11v17a2.48,2.48,0,0,1-.83.11A2.15,2.15,0,0,1,188.89,110.78Z"/><path class="cls-1" d="M203.81,100l-2,.05a4.23,4.23,0,0,1,.78,2.58c0,2.5-1.52,4-4.35,4a6.44,6.44,0,0,1-1.21-.12,2.76,2.76,0,0,0-.63,1.71c.17,2.34,7.43-.07,7.43,4.57,0,2.14-2,3.84-5.75,3.84-3.31,0-4.71-1.42-4.71-3.26a4.06,4.06,0,0,1,2-3.31,1.76,1.76,0,0,1-.53-1.34,4.35,4.35,0,0,1,1.08-2.53,3.62,3.62,0,0,1-2-3.58c0-2.51,1.56-4.05,4.34-4.05a5.45,5.45,0,0,1,2.49.55l3.12-.53A2,2,0,0,1,203.81,100Zm-7.49,10.6a3.2,3.2,0,0,0-1.34,2.46c0,1.38,1,2.35,3.11,2.35,2.55,0,4.09-1,4.09-2.41C202.18,110.55,198.48,111.28,196.32,110.59Zm4.6-8a2.72,2.72,0,1,0-2.72,2.83A2.51,2.51,0,0,0,200.92,102.59Z"/><path class="cls-1" d="M216,98.91l-4.87,14.21c-.74,2.21-1.5,3.52-3.57,3.52a4.44,4.44,0,0,1-1.33-.18,1.33,1.33,0,0,1-.14-.65,1.41,1.41,0,0,1,.16-.69,3.78,3.78,0,0,0,1.06.12c1.08,0,1.63-.44,2.3-2.44l.69-1.93a1.74,1.74,0,0,1-.55-.11l-4.6-11.85a2.77,2.77,0,0,1,.87-.11,2.69,2.69,0,0,1,.87.11L210,106.8c.55,1.43.83,2.46.83,2.46h.07s.25-1,.73-2.46l2.71-7.89a2.34,2.34,0,0,1,.83-.11A2.63,2.63,0,0,1,216,98.91Z"/><path class="cls-1" d="M227.34,93.76v17a2.06,2.06,0,0,1-.69.11,2.35,2.35,0,0,1-.74-.11l-.16-1.57a3.79,3.79,0,0,1-3.61,1.91c-2.69,0-4.42-1.58-4.42-6.27s1.73-6.28,4.42-6.28a3.81,3.81,0,0,1,3.54,1.79v-6.6a2.28,2.28,0,0,1,.83-.11A2.34,2.34,0,0,1,227.34,93.76Zm-1.66,12.53v-2.94a3.15,3.15,0,0,0-3-3.38c-2.23,0-3.24,1.24-3.24,4.88s1,4.87,3.24,4.87C224.65,109.72,225.68,108,225.68,106.29Z"/><path class="cls-1" d="M231,96.18V94.5a2.79,2.79,0,0,1,.94-.12,3,3,0,0,1,1,.12v1.68a3.3,3.3,0,0,1-1,.11A3,3,0,0,1,231,96.18Zm.11,14.6V98.91a2.15,2.15,0,0,1,.83-.11,2.48,2.48,0,0,1,.83.11v11.87a2.48,2.48,0,0,1-.83.11A2.15,2.15,0,0,1,231.08,110.78Z"/><path class="cls-1" d="M245.41,98.91v11.87a2.28,2.28,0,0,1-.83.11,2.48,2.48,0,0,1-.83-.11v-1.43a4.77,4.77,0,0,1-3.81,1.77,3.23,3.23,0,0,1-3.54-3.45V98.91a2.6,2.6,0,0,1,.82-.11,2.28,2.28,0,0,1,.83.11v8.44c0,1.59.83,2.39,2.51,2.39a3.71,3.71,0,0,0,3.19-2.09V98.91a2.48,2.48,0,0,1,.83-.11A2.28,2.28,0,0,1,245.41,98.91Z"/><path class="cls-1" d="M249.09,110.78V98.91a2.28,2.28,0,0,1,.83-.11,2.38,2.38,0,0,1,.82.11v1.43a4.43,4.43,0,0,1,3.61-1.77,3,3,0,0,1,3,2,4.59,4.59,0,0,1,3.93-2,3.14,3.14,0,0,1,3.34,3.45v8.76a2.48,2.48,0,0,1-.83.11,2.28,2.28,0,0,1-.83-.11v-8.44c0-1.61-.74-2.39-2.28-2.39a3.4,3.4,0,0,0-3,2.11v8.72a2.48,2.48,0,0,1-.83.11,2.34,2.34,0,0,1-.83-.11v-8.44c0-1.61-.73-2.39-2.27-2.39a3.51,3.51,0,0,0-3,2.09v8.74a2.38,2.38,0,0,1-.82.11A2.28,2.28,0,0,1,249.09,110.78Z"/><path class="cls-1" d="M273.35,102.62c0-5.62,2.16-8.51,6.43-8.51a8.51,8.51,0,0,1,3.87.76,1.66,1.66,0,0,1-.53,1.28,8.64,8.64,0,0,0-3.15-.57c-2.88,0-4.83,1.56-4.83,7.06s1.95,7,4.83,7a9.58,9.58,0,0,0,3.4-.58,2,2,0,0,1,.53,1.31,9.19,9.19,0,0,1-4.12.78C275.51,111.12,273.35,108.29,273.35,102.62Z"/><path class="cls-1" d="M286.68,110.78v-17a2.15,2.15,0,0,1,.83-.11,2.48,2.48,0,0,1,.83.11v17a2.48,2.48,0,0,1-.83.11A2.15,2.15,0,0,1,286.68,110.78Z"/><path class="cls-1" d="M292.09,96.18V94.5a2.79,2.79,0,0,1,.94-.12,2.93,2.93,0,0,1,.94.12v1.68a3.18,3.18,0,0,1-.94.11A3,3,0,0,1,292.09,96.18Zm.11,14.6V98.91a2.15,2.15,0,0,1,.83-.11,2.48,2.48,0,0,1,.83.11v11.87a2.48,2.48,0,0,1-.83.11A2.15,2.15,0,0,1,292.2,110.78Z"/><path class="cls-1" d="M297.61,110.78V98.91a2.25,2.25,0,0,1,.82-.11,2.41,2.41,0,0,1,.83.11v1.45a4.75,4.75,0,0,1,3.82-1.79,3.24,3.24,0,0,1,3.54,3.45v8.76a2.63,2.63,0,0,1-.83.11,2.34,2.34,0,0,1-.83-.11v-8.44c0-1.59-.82-2.39-2.48-2.39a3.74,3.74,0,0,0-3.22,2.09v8.74a2.41,2.41,0,0,1-.83.11A2.25,2.25,0,0,1,297.61,110.78Z"/><path class="cls-1" d="M310.18,96.18V94.5a2.79,2.79,0,0,1,.94-.12,3,3,0,0,1,.95.12v1.68a3.22,3.22,0,0,1-.95.11A3,3,0,0,1,310.18,96.18Zm.12,14.6V98.91a2.12,2.12,0,0,1,.82-.11,2.41,2.41,0,0,1,.83.11v11.87a2.41,2.41,0,0,1-.83.11A2.12,2.12,0,0,1,310.3,110.78Z"/><path class="cls-1" d="M315.17,104.85c0-4.1,1.73-6.28,4.95-6.28a5.9,5.9,0,0,1,2.89.55,1.63,1.63,0,0,1-.5,1.24,5.24,5.24,0,0,0-2.1-.39c-2.46,0-3.51,1.61-3.51,4.88s1.12,4.8,3.61,4.8a5.52,5.52,0,0,0,2.23-.44,1.73,1.73,0,0,1,.53,1.22,6.14,6.14,0,0,1-3.15.69C316.9,111.12,315.17,108.94,315.17,104.85Z"/><path class="cls-1" d="M340.65,95.83h-4.53v14.93a2.32,2.32,0,0,1-.85.13,2,2,0,0,1-.85-.13V95.83h-4.56a2.08,2.08,0,0,1-.13-.76,2,2,0,0,1,.13-.73h10.79a1.71,1.71,0,0,1,.14.73A2.08,2.08,0,0,1,340.65,95.83Z"/><path class="cls-1" d="M343.29,110.78V98.91a2.34,2.34,0,0,1,.83-.11,2.28,2.28,0,0,1,.83.11v1.89c1-1.77,2.16-2.21,3.1-2.21a3.68,3.68,0,0,1,2,.55,2,2,0,0,1-.76,1.41,2.58,2.58,0,0,0-1.56-.46c-1.06,0-2.07.92-2.76,2.3v8.39a2.28,2.28,0,0,1-.83.11A2.34,2.34,0,0,1,343.29,110.78Z"/><path class="cls-1" d="M352.24,96.18V94.5a2.79,2.79,0,0,1,.94-.12,2.93,2.93,0,0,1,.94.12v1.68a3.18,3.18,0,0,1-.94.11A3,3,0,0,1,352.24,96.18Zm.11,14.6V98.91a2.15,2.15,0,0,1,.83-.11,2.48,2.48,0,0,1,.83.11v11.87a2.48,2.48,0,0,1-.83.11A2.15,2.15,0,0,1,352.35,110.78Z"/><path class="cls-1" d="M357.23,104.85c0-4.56,1.84-6.28,4.92-6.28s4.92,1.72,4.92,6.28-1.84,6.27-4.92,6.27S357.23,109.4,357.23,104.85Zm8.14,0c0-3.84-1.24-5-3.22-5s-3.22,1.13-3.22,5,1.24,5,3.22,5S365.37,108.69,365.37,104.85Z"/><path class="cls-1" d="M375.3,102.62c0-5.62,2.16-8.51,6.44-8.51a8.44,8.44,0,0,1,3.86.76,1.6,1.6,0,0,1-.53,1.28,8.64,8.64,0,0,0-3.15-.57c-2.87,0-4.83,1.56-4.83,7.06s2,7,4.83,7a9.6,9.6,0,0,0,3.41-.58,2.09,2.09,0,0,1,.53,1.31,9.24,9.24,0,0,1-4.12.78C377.46,111.12,375.3,108.29,375.3,102.62Z"/><path class="cls-1" d="M387.79,104.85c0-4.56,1.84-6.28,4.92-6.28s4.92,1.72,4.92,6.28-1.84,6.27-4.92,6.27S387.79,109.4,387.79,104.85Zm8.14,0c0-3.84-1.25-5-3.22-5s-3.22,1.13-3.22,5,1.24,5,3.22,5S395.93,108.69,395.93,104.85Z"/><path class="cls-1" d="M400.78,110.78V98.91a2.25,2.25,0,0,1,.82-.11,2.41,2.41,0,0,1,.83.11v1.43A4.43,4.43,0,0,1,406,98.57a3,3,0,0,1,3,2,4.59,4.59,0,0,1,3.93-2,3.13,3.13,0,0,1,3.33,3.45v8.76a2.38,2.38,0,0,1-.82.11,2.28,2.28,0,0,1-.83-.11v-8.44c0-1.61-.74-2.39-2.28-2.39a3.39,3.39,0,0,0-3,2.11v8.72a2.48,2.48,0,0,1-.83.11,2.28,2.28,0,0,1-.83-.11v-8.44c0-1.61-.73-2.39-2.27-2.39a3.51,3.51,0,0,0-3,2.09v8.74a2.41,2.41,0,0,1-.83.11A2.25,2.25,0,0,1,400.78,110.78Z"/><path class="cls-1" d="M429.57,104.85c0,4.69-1.73,6.27-4.42,6.27a3.77,3.77,0,0,1-3.54-1.77v6.92a2.11,2.11,0,0,1-.83.12,2.17,2.17,0,0,1-.83-.12V98.91a2.34,2.34,0,0,1,.83-.11,2.28,2.28,0,0,1,.83.11v1.43a3.79,3.79,0,0,1,3.54-1.77C427.84,98.57,429.57,100.16,429.57,104.85Zm-1.73,0c0-3.64-1-4.88-3.24-4.88a3.12,3.12,0,0,0-3,3.36v3c0,1.71,1,3.43,3,3.43C426.85,109.72,427.84,108.48,427.84,104.85Z"/><path class="cls-1" d="M441,103.21v7.57a1.57,1.57,0,0,1-.67.11,1.78,1.78,0,0,1-.66-.11l-.26-1.73a4,4,0,0,1-3.86,2.07,3.31,3.31,0,0,1-3.56-3.68c0-2.41,1.45-3.58,4.34-3.58a26.4,26.4,0,0,1,3,.18V102.8c0-2-.83-2.81-2.72-2.81a10,10,0,0,0-3.22.58,1.2,1.2,0,0,1-.39-.51,1.63,1.63,0,0,1-.11-.71,10.63,10.63,0,0,1,3.93-.78C440.1,98.57,441,100.16,441,103.21Zm-1.65,3v-.92c-.51,0-1.68-.19-2.79-.19-1.91,0-2.85.69-2.85,2.39a2.1,2.1,0,0,0,2.37,2.35C438.07,109.79,439.32,108.23,439.32,106.16Z"/><path class="cls-1" d="M444.05,104.85c0-4.1,1.73-6.28,4.95-6.28a5.9,5.9,0,0,1,2.89.55,1.63,1.63,0,0,1-.5,1.24,5.24,5.24,0,0,0-2.1-.39c-2.46,0-3.51,1.61-3.51,4.88s1.12,4.8,3.61,4.8a5.52,5.52,0,0,0,2.23-.44,1.73,1.73,0,0,1,.53,1.22,6.14,6.14,0,0,1-3.15.69C445.78,111.12,444.05,108.94,444.05,104.85Z"/><path class="cls-1" d="M460.93,110.32a1.85,1.85,0,0,1-.09.62,6.44,6.44,0,0,1-1.61.18c-2.72,0-3.66-1.54-3.66-4.34v-6.67h-1.79a1.51,1.51,0,0,1-.12-.65,1.38,1.38,0,0,1,.12-.66h1.79V96.52a2.7,2.7,0,0,1,1.66-.37V98.8h3.29a1.6,1.6,0,0,1,.11.64,1.8,1.8,0,0,1-.11.67h-3.29v6.6c0,2.21.62,3,2.43,3a6.55,6.55,0,0,0,1.13-.11A1.62,1.62,0,0,1,460.93,110.32Z"/><path class="cls-1" d="M468.88,110.78v-17a2.15,2.15,0,0,1,.83-.11,2.48,2.48,0,0,1,.83.11v17a2.48,2.48,0,0,1-.83.11A2.15,2.15,0,0,1,468.88,110.78Z"/><path class="cls-1" d="M483.26,98.91v11.87a2.34,2.34,0,0,1-.83.11,2.48,2.48,0,0,1-.83-.11v-1.43a4.79,4.79,0,0,1-3.82,1.77,3.24,3.24,0,0,1-3.54-3.45V98.91a2.63,2.63,0,0,1,.83-.11,2.28,2.28,0,0,1,.83.11v8.44c0,1.59.83,2.39,2.5,2.39a3.73,3.73,0,0,0,3.2-2.09V98.91a2.48,2.48,0,0,1,.83-.11A2.34,2.34,0,0,1,483.26,98.91Z"/><path class="cls-1" d="M496.55,104.85c0,4.69-1.73,6.27-4.42,6.27a3.77,3.77,0,0,1-3.54-1.77v1.43a2.28,2.28,0,0,1-.83.11,2.25,2.25,0,0,1-.82-.11v-17a2.25,2.25,0,0,1,.82-.11,2.28,2.28,0,0,1,.83.11v6.58a3.79,3.79,0,0,1,3.54-1.77C494.82,98.57,496.55,100.16,496.55,104.85Zm-1.73,0c0-3.64-1-4.88-3.24-4.88a3.12,3.12,0,0,0-3,3.36v3c0,1.71,1,3.43,3,3.43C493.83,109.72,494.82,108.48,494.82,104.85Z"/><path class="cls-1" d="M185.88,137.75a2.07,2.07,0,0,1-.14.74h-9.36V121.93h9.13a1.63,1.63,0,0,1,.14.69,1.88,1.88,0,0,1-.14.74h-7.43v6h6.28a1.71,1.71,0,0,1,.14.67,2,2,0,0,1-.14.74h-6.28v6.25h7.66A1.74,1.74,0,0,1,185.88,137.75Z"/><path class="cls-1" d="M188.89,138.37v-17a2,2,0,0,1,.83-.12,2.3,2.3,0,0,1,.83.12v17a2.3,2.3,0,0,1-.83.12A2,2,0,0,1,188.89,138.37Z"/><path class="cls-1" d="M203.81,127.59l-2,0a4.23,4.23,0,0,1,.78,2.58c0,2.5-1.52,4-4.35,4a6.47,6.47,0,0,1-1.21-.11,2.73,2.73,0,0,0-.63,1.7c.17,2.34,7.43-.07,7.43,4.57,0,2.14-2,3.85-5.75,3.85-3.31,0-4.71-1.43-4.71-3.27a4.08,4.08,0,0,1,2-3.31,1.75,1.75,0,0,1-.53-1.33,4.38,4.38,0,0,1,1.08-2.54,3.62,3.62,0,0,1-2-3.58c0-2.51,1.56-4.05,4.34-4.05a5.45,5.45,0,0,1,2.49.55l3.12-.53A2,2,0,0,1,203.81,127.59Zm-7.49,10.6a3.19,3.19,0,0,0-1.34,2.46c0,1.38,1,2.34,3.11,2.34,2.55,0,4.09-1,4.09-2.41C202.18,138.14,198.48,138.88,196.32,138.19Zm4.6-8A2.72,2.72,0,1,0,198.2,133,2.51,2.51,0,0,0,200.92,130.19Z"/><path class="cls-1" d="M216,126.51l-4.87,14.21c-.74,2.2-1.5,3.52-3.57,3.52a4.46,4.46,0,0,1-1.33-.19,1.31,1.31,0,0,1-.14-.64,1.36,1.36,0,0,1,.16-.69,4.4,4.4,0,0,0,1.06.11c1.08,0,1.63-.43,2.3-2.44l.69-1.93a1.5,1.5,0,0,1-.55-.11l-4.6-11.84a2.56,2.56,0,0,1,.87-.12,2.49,2.49,0,0,1,.87.12l3.11,7.88c.55,1.43.83,2.46.83,2.46h.07s.25-1,.73-2.46l2.71-7.88a2.17,2.17,0,0,1,.83-.12A2.43,2.43,0,0,1,216,126.51Z"/><path class="cls-1" d="M227.34,121.36v17a1.91,1.91,0,0,1-.69.12,2.18,2.18,0,0,1-.74-.12l-.16-1.56a3.81,3.81,0,0,1-3.61,1.91c-2.69,0-4.42-1.59-4.42-6.28s1.73-6.28,4.42-6.28a3.79,3.79,0,0,1,3.54,1.8v-6.6a2.11,2.11,0,0,1,.83-.12A2.17,2.17,0,0,1,227.34,121.36Zm-1.66,12.53v-2.95a3.15,3.15,0,0,0-3-3.38c-2.23,0-3.24,1.25-3.24,4.88s1,4.87,3.24,4.87A3.14,3.14,0,0,0,225.68,133.89Z"/><path class="cls-1" d="M231,123.77v-1.68a3,3,0,0,1,.94-.11,3.3,3.3,0,0,1,1,.11v1.68a3.3,3.3,0,0,1-1,.11A3,3,0,0,1,231,123.77Zm.11,14.6V126.51a2,2,0,0,1,.83-.12,2.3,2.3,0,0,1,.83.12v11.86a2.3,2.3,0,0,1-.83.12A2,2,0,0,1,231.08,138.37Z"/><path class="cls-1" d="M245.41,126.51v11.86a2.11,2.11,0,0,1-.83.12,2.3,2.3,0,0,1-.83-.12V137a4.8,4.8,0,0,1-3.81,1.77,3.23,3.23,0,0,1-3.54-3.45v-8.76a2.4,2.4,0,0,1,.82-.12,2.11,2.11,0,0,1,.83.12V135c0,1.58.83,2.39,2.51,2.39a3.73,3.73,0,0,0,3.19-2.1v-8.73a2.3,2.3,0,0,1,.83-.12A2.11,2.11,0,0,1,245.41,126.51Z"/><path class="cls-1" d="M249.09,138.37V126.51a2.11,2.11,0,0,1,.83-.12,2.2,2.2,0,0,1,.82.12v1.42a4.43,4.43,0,0,1,3.61-1.77,3,3,0,0,1,3,2,4.59,4.59,0,0,1,3.93-2,3.14,3.14,0,0,1,3.34,3.45v8.76a2.3,2.3,0,0,1-.83.12,2.11,2.11,0,0,1-.83-.12v-8.44c0-1.61-.74-2.39-2.28-2.39a3.39,3.39,0,0,0-3,2.12v8.71a2.3,2.3,0,0,1-.83.12,2.17,2.17,0,0,1-.83-.12v-8.44c0-1.61-.73-2.39-2.27-2.39a3.51,3.51,0,0,0-3,2.09v8.74a2.2,2.2,0,0,1-.82.12A2.11,2.11,0,0,1,249.09,138.37Z"/><path class="cls-1" d="M273.35,130.21c0-5.61,2.16-8.51,6.43-8.51a8.51,8.51,0,0,1,3.87.76,1.7,1.7,0,0,1-.53,1.29,8.51,8.51,0,0,0-3.15-.58c-2.88,0-4.83,1.57-4.83,7.06s1.95,7,4.83,7a9.58,9.58,0,0,0,3.4-.58,2.05,2.05,0,0,1,.53,1.31,9.09,9.09,0,0,1-4.12.79C275.51,138.72,273.35,135.89,273.35,130.21Z"/><path class="cls-1" d="M286.68,138.37v-17a2,2,0,0,1,.83-.12,2.3,2.3,0,0,1,.83.12v17a2.3,2.3,0,0,1-.83.12A2,2,0,0,1,286.68,138.37Z"/><path class="cls-1" d="M292.09,123.77v-1.68A3,3,0,0,1,293,122a3.18,3.18,0,0,1,.94.11v1.68a3.18,3.18,0,0,1-.94.11A3,3,0,0,1,292.09,123.77Zm.11,14.6V126.51a2,2,0,0,1,.83-.12,2.3,2.3,0,0,1,.83.12v11.86a2.3,2.3,0,0,1-.83.12A2,2,0,0,1,292.2,138.37Z"/><path class="cls-1" d="M297.61,138.37V126.51a2.08,2.08,0,0,1,.82-.12,2.23,2.23,0,0,1,.83.12V128a4.73,4.73,0,0,1,3.82-1.8,3.24,3.24,0,0,1,3.54,3.45v8.76a2.43,2.43,0,0,1-.83.12,2.17,2.17,0,0,1-.83-.12v-8.44a2.16,2.16,0,0,0-2.48-2.39,3.74,3.74,0,0,0-3.22,2.09v8.74a2.23,2.23,0,0,1-.83.12A2.08,2.08,0,0,1,297.61,138.37Z"/><path class="cls-1" d="M310.18,123.77v-1.68a3,3,0,0,1,.94-.11,3.22,3.22,0,0,1,.95.11v1.68a3.22,3.22,0,0,1-.95.11A3,3,0,0,1,310.18,123.77Zm.12,14.6V126.51a2,2,0,0,1,.82-.12,2.23,2.23,0,0,1,.83.12v11.86a2.23,2.23,0,0,1-.83.12A2,2,0,0,1,310.3,138.37Z"/><path class="cls-1" d="M315.17,132.44c0-4.09,1.73-6.28,4.95-6.28a5.9,5.9,0,0,1,2.89.55,1.64,1.64,0,0,1-.5,1.25,5.13,5.13,0,0,0-2.1-.4c-2.46,0-3.51,1.61-3.51,4.88s1.12,4.8,3.61,4.8a5.63,5.63,0,0,0,2.23-.43,1.69,1.69,0,0,1,.53,1.22,6.14,6.14,0,0,1-3.15.69C316.9,138.72,315.17,136.53,315.17,132.44Z"/><path class="cls-1" d="M331.8,138.35V122.07a3.33,3.33,0,0,1,1-.14,4.26,4.26,0,0,1,1,.14l4.11,7.31a16.47,16.47,0,0,1,1.2,2.6h.09a9.82,9.82,0,0,1,.78-1.7l4.39-8.21a4.36,4.36,0,0,1,1.11-.14,4,4,0,0,1,1.12.14v16.28a2.65,2.65,0,0,1-1.7,0V128.6c0-2,0-3.8.12-4.6H345a23.72,23.72,0,0,1-1.57,3.38l-3.72,6.81a1.74,1.74,0,0,1-.58.09,1.37,1.37,0,0,1-.52-.09l-3.8-6.76a21.37,21.37,0,0,1-1.59-3.43h-.06a34.6,34.6,0,0,1,.18,4.48v9.87a1.72,1.72,0,0,1-.78.14A1.83,1.83,0,0,1,331.8,138.35Z"/><path class="cls-1" d="M350.19,132.44c0-4.55,1.84-6.28,4.92-6.28s4.92,1.73,4.92,6.28-1.84,6.28-4.92,6.28S350.19,137,350.19,132.44Zm8.14,0c0-3.84-1.24-5-3.22-5s-3.22,1.13-3.22,5,1.24,5,3.22,5S358.33,136.28,358.33,132.44Z"/><path class="cls-1" d="M363.18,138.37V126.51a2.17,2.17,0,0,1,.83-.12,2.3,2.3,0,0,1,.83.12V128a4.73,4.73,0,0,1,3.82-1.8,3.24,3.24,0,0,1,3.54,3.45v8.76a2.43,2.43,0,0,1-.83.12,2.11,2.11,0,0,1-.83-.12v-8.44a2.16,2.16,0,0,0-2.48-2.39,3.73,3.73,0,0,0-3.22,2.09v8.74a2.3,2.3,0,0,1-.83.12A2.17,2.17,0,0,1,363.18,138.37Z"/><path class="cls-1" d="M375.28,132.44c0-4.55,1.84-6.28,4.92-6.28s4.92,1.73,4.92,6.28-1.84,6.28-4.92,6.28S375.28,137,375.28,132.44Zm8.14,0c0-3.84-1.24-5-3.22-5s-3.22,1.13-3.22,5,1.24,5,3.22,5S383.42,136.28,383.42,132.44Z"/><path class="cls-1" d="M393.35,130.21c0-5.61,2.16-8.51,6.44-8.51a8.44,8.44,0,0,1,3.86.76,1.63,1.63,0,0,1-.53,1.29,8.51,8.51,0,0,0-3.15-.58c-2.87,0-4.83,1.57-4.83,7.06s2,7,4.83,7a9.6,9.6,0,0,0,3.41-.58,2,2,0,0,1,.52,1.31,9.07,9.07,0,0,1-4.11.79C395.51,138.72,393.35,135.89,393.35,130.21Z"/><path class="cls-1" d="M405.86,132.44c0-4.55,1.84-6.28,4.92-6.28s4.92,1.73,4.92,6.28-1.84,6.28-4.92,6.28S405.86,137,405.86,132.44Zm8.14,0c0-3.84-1.24-5-3.22-5s-3.22,1.13-3.22,5,1.24,5,3.22,5S414,136.28,414,132.44Z"/><path class="cls-1" d="M418.85,138.37V126.51a2.11,2.11,0,0,1,.83-.12,2.3,2.3,0,0,1,.83.12v1.42a4.4,4.4,0,0,1,3.61-1.77,3,3,0,0,1,3,2,4.59,4.59,0,0,1,3.93-2,3.14,3.14,0,0,1,3.34,3.45v8.76a2.3,2.3,0,0,1-.83.12,2.17,2.17,0,0,1-.83-.12v-8.44c0-1.61-.73-2.39-2.27-2.39a3.4,3.4,0,0,0-3,2.12v8.71a2.23,2.23,0,0,1-.83.12,2.08,2.08,0,0,1-.82-.12v-8.44c0-1.61-.74-2.39-2.28-2.39a3.49,3.49,0,0,0-3,2.09v8.74a2.3,2.3,0,0,1-.83.12A2.11,2.11,0,0,1,418.85,138.37Z"/><path class="cls-1" d="M447.64,132.44c0,4.69-1.73,6.28-4.42,6.28a3.79,3.79,0,0,1-3.54-1.77v6.92a2.25,2.25,0,0,1-.82.11,2.28,2.28,0,0,1-.83-.11V126.51a2.11,2.11,0,0,1,.83-.12,2.08,2.08,0,0,1,.82.12v1.42a3.79,3.79,0,0,1,3.54-1.77C445.91,126.16,447.64,127.75,447.64,132.44Zm-1.73,0c0-3.63-1-4.88-3.24-4.88-1.93,0-3,1.66-3,3.36v3a3.14,3.14,0,0,0,3,3.42C444.93,137.31,445.91,136.07,445.91,132.44Z"/><path class="cls-1" d="M459,130.81v7.56a1.38,1.38,0,0,1-.66.12,1.67,1.67,0,0,1-.67-.12l-.25-1.72a4,4,0,0,1-3.87,2.07A3.32,3.32,0,0,1,450,135c0-2.42,1.45-3.59,4.35-3.59a26.36,26.36,0,0,1,3,.18v-1.24c0-1.95-.83-2.8-2.71-2.8a10.09,10.09,0,0,0-3.22.57,1,1,0,0,1-.39-.5,1.77,1.77,0,0,1-.12-.72,10.7,10.7,0,0,1,3.93-.78C458.17,126.16,459,127.75,459,130.81Zm-1.65,2.94v-.92c-.51-.05-1.68-.18-2.78-.18-1.91,0-2.86.69-2.86,2.39a2.1,2.1,0,0,0,2.37,2.34C456.15,137.38,457.39,135.82,457.39,133.75Z"/><path class="cls-1" d="M462.12,132.44c0-4.09,1.73-6.28,4.95-6.28a6,6,0,0,1,2.9.55,1.61,1.61,0,0,1-.51,1.25,5.11,5.11,0,0,0-2.09-.4c-2.46,0-3.52,1.61-3.52,4.88s1.13,4.8,3.61,4.8a5.63,5.63,0,0,0,2.23-.43,1.66,1.66,0,0,1,.53,1.22,6.14,6.14,0,0,1-3.15.69C463.85,138.72,462.12,136.53,462.12,132.44Z"/><path class="cls-1" d="M479,137.91a1.85,1.85,0,0,1-.09.62,6.3,6.3,0,0,1-1.61.19c-2.71,0-3.65-1.54-3.65-4.35V127.7h-1.8a1.6,1.6,0,0,1-.11-.64,1.57,1.57,0,0,1,.11-.67h1.8v-2.28a2.65,2.65,0,0,1,1.65-.36v2.64h3.29a1.63,1.63,0,0,1,.11.65,1.78,1.78,0,0,1-.11.66H475.3v6.6c0,2.21.62,3,2.44,3a6,6,0,0,0,1.12-.12A1.68,1.68,0,0,1,479,137.91Z"/><path class="cls-2" d="M131,32.53a13.42,13.42,0,1,0-13.42-13.42A13.42,13.42,0,0,0,131,32.53Z"/></svg>