<svg xmlns="http://www.w3.org/2000/svg" viewBox="0 0 170 100"><defs><style>.cls-1{fill:#ccd513;}.cls-2{fill:none;stroke:#fff;stroke-miterlimit:10;stroke-width:2px;}.cls-3{fill:#fff;}</style></defs><title>back_normal</title><g id="Warstwa_1" data-name="Warstwa 1"><rect class="cls-1" x="51.44" y="28.2" width="59.42" height="42.86" rx="21.43" transform="translate(162.31 99.26) rotate(180)"/></g><g id="Warstwa_2" data-name="Warstwa 2"><path class="cls-2" d="M85.42,44.71H73.56a1.21,1.21,0,0,1-1.21-1.2V39A.81.81,0,0,0,71,38.46L60.1,49.33a1.2,1.2,0,0,0,0,1.7L70.3,61.24a1.2,1.2,0,0,0,2-.85V56.85a1.21,1.21,0,0,1,1.21-1.2H85.42a1.2,1.2,0,0,0,1.2-1.2V45.92A1.21,1.21,0,0,0,85.42,44.71Z"/><rect class="cls-3" x="96.25" y="38.22" width="2.15" height="23.38" rx="1.03"/></g></svg>