<svg xmlns="http://www.w3.org/2000/svg" viewBox="0 0 300 150"><defs><style>.cls-1{fill:#ccd513;}.cls-2{fill:none;stroke:#fff;stroke-miterlimit:10;stroke-width:2px;}.cls-3{fill:#fff;}</style></defs><title>back_normal</title><g id="Warstwa_2" data-name="Warstwa 2"><rect class="cls-1" x="100" y="40" width="100" height="70" rx="35" transform="translate(300 150) rotate(-180)"/><path class="cls-2" d="M157.17,67h-20a2,2,0,0,1-2-2V57.68a1.37,1.37,0,0,0-2.33-.93l-18.3,17.76a1.93,1.93,0,0,0,0,2.78L131.74,94a2,2,0,0,0,3.45-1.39V86.8a2,2,0,0,1,2-2h20a2,2,0,0,0,2-2V68.93A2,2,0,0,0,157.17,67Z"/><rect class="cls-3" x="175.41" y="56.36" width="3.62" height="38.18" rx="1.03"/></g></svg>