<svg id="Warstwa_1" data-name="Warstwa 1" xmlns="http://www.w3.org/2000/svg" viewBox="0 0 750 80"><defs><style>.cls-1{fill:#0056a3;}.cls-2{fill:#1d1d1b;}.cls-3{fill:#ccd513;}.cls-4{fill:none;stroke:#ccd513;stroke-width:4px;}</style></defs><title>duze_opakowanie</title><path class="cls-1" d="M200.54,25.76c6.1,0,9.69,3.12,9.69,11.85s-3.59,11.85-9.69,11.85h-7.31V25.76Zm-.23,20.91c3.86,0,6.33-1.65,6.33-9.06s-2.47-9.06-6.33-9.06h-3.72V46.67Z"/><path class="cls-1" d="M214.43,32.38a4.56,4.56,0,0,1,1.65-.24,4.37,4.37,0,0,1,1.65.24V44.23c0,1.84,1,2.9,3.06,2.9A4.47,4.47,0,0,0,224.51,45V32.38a4.77,4.77,0,0,1,1.65-.24,4.09,4.09,0,0,1,1.64.24V49.23a4.25,4.25,0,0,1-1.64.23,5,5,0,0,1-1.65-.23V47.72a6.43,6.43,0,0,1-5,2.07c-3.29,0-5.11-2-5.11-5Z"/><path class="cls-1" d="M243.87,46.76a3.78,3.78,0,0,1,.2,1.36,4.07,4.07,0,0,1-.2,1.34H231.65a5.69,5.69,0,0,1-.2-1.41,4.36,4.36,0,0,1,.2-1.29l8.76-11.92h-8.2a4.49,4.49,0,0,1-.2-1.38,3.66,3.66,0,0,1,.2-1.32h11.66a3.45,3.45,0,0,1,.2,1.29,4.43,4.43,0,0,1-.2,1.41l-8.73,11.92Zm-4.05-17.88a5.14,5.14,0,0,1-1.58.2,4.62,4.62,0,0,1-1.58-.2V26.05a4.62,4.62,0,0,1,1.58-.2,5.14,5.14,0,0,1,1.58.2Z"/><path class="cls-1" d="M250.48,41.83c.27,3.91,1.85,5.17,4.58,5.17A8,8,0,0,0,259,46,3.41,3.41,0,0,1,260,48.41a9.75,9.75,0,0,1-5.47,1.38c-5.07,0-7.44-3.12-7.44-9.08,0-6.23,2.93-8.89,7.31-8.89,4,0,6.52,2.23,6.52,6.61a14.19,14.19,0,0,1-.36,3.4Zm3.92-7.41c-2.14,0-3.65,1.41-3.92,5.07h7a12,12,0,0,0,.1-1.48C257.63,36.06,256.84,34.42,254.4,34.42Z"/><path class="cls-1" d="M278.73,31.82c4.54,0,7.31,2.46,7.31,9s-2.8,9-7.31,9-7.31-2.47-7.31-9S274.22,31.82,278.73,31.82Zm0,2.53c-2.4,0-4,1.38-4,6.45s1.55,6.46,4,6.46,3.92-1.38,3.92-6.46S281.13,34.35,278.73,34.35Z"/><path class="cls-1" d="M298.12,31.82c3.75,0,6.19,2.27,6.19,9s-2.44,9-6.19,9c-2.34,0-3.82-.79-4.74-2.14v9.22a5.5,5.5,0,0,1-1.68.2,4.94,4.94,0,0,1-1.61-.2V32.38a4.19,4.19,0,0,1,1.61-.24,4.65,4.65,0,0,1,1.68.24V34C294.3,32.61,295.78,31.82,298.12,31.82ZM297,34.51c-2.31,0-3.59,1.91-3.59,4.15v4.22c0,2.27,1.28,4.21,3.59,4.21,2.63,0,3.95-1.38,3.95-6.29S299.6,34.51,297,34.51Z"/><path class="cls-1" d="M314.42,31.82c4.77,0,6.28,2.14,6.28,6.38v11a2.57,2.57,0,0,1-1.28.23,3.42,3.42,0,0,1-1.32-.23l-.49-2.1c-.86,1.74-2.67,2.66-5.17,2.66-3.1,0-5.1-1.81-5.1-5.5s2.2-5.17,6.32-5.17a34.71,34.71,0,0,1,3.75.2V38.1c0-2.23-.85-3.52-3.39-3.52a13.78,13.78,0,0,0-4.41.82,2.45,2.45,0,0,1-.76-1,2.84,2.84,0,0,1-.2-1.39A14.4,14.4,0,0,1,314.42,31.82Zm-.33,9.54c-2.21,0-3.36.86-3.36,2.93s1.08,3,2.86,3c2.6,0,3.82-2.21,3.82-4.55V41.56C316.65,41.5,315.34,41.36,314.09,41.36Z"/><path class="cls-1" d="M335,32.38a5.37,5.37,0,0,1,1.68-.24,6.42,6.42,0,0,1,1.62.2l-5.07,7.87,5.83,9a5.82,5.82,0,0,1-1.85.27,5.11,5.11,0,0,1-1.78-.27l-4.94-7.57h-1.84v7.57a5.36,5.36,0,0,1-1.61.23,5.27,5.27,0,0,1-1.68-.23V24.93a7.85,7.85,0,0,1,1.68-.16,8.27,8.27,0,0,1,1.61.16V39.19h1.88Z"/><path class="cls-1" d="M347.86,31.82c4.55,0,7.31,2.46,7.31,9s-2.8,9-7.31,9-7.31-2.47-7.31-9S343.35,31.82,347.86,31.82Zm0,2.53c-2.4,0-3.95,1.38-3.95,6.45s1.55,6.46,3.95,6.46,3.92-1.38,3.92-6.46S350.27,34.35,347.86,34.35Z"/><path class="cls-1" d="M370.71,40.31a23.64,23.64,0,0,1-.89-4.74h-.13a21.25,21.25,0,0,1-.92,4.74l-2.6,8.92a6.24,6.24,0,0,1-1.88.23,6.72,6.72,0,0,1-1.91-.23l-5-16.85a4.74,4.74,0,0,1,1.64-.24,2.55,2.55,0,0,1,1.42.24l3.13,10.5a20.49,20.49,0,0,1,.69,3.23h.1a28,28,0,0,1,.72-3.23l3-10.5a6.8,6.8,0,0,1,1.78-.24,4.19,4.19,0,0,1,1.61.24l2.94,10.43a18.18,18.18,0,0,1,.65,3.3h.1a28.55,28.55,0,0,1,.83-3.26l3.09-10.47a3.81,3.81,0,0,1,1.45-.24,3,3,0,0,1,1.42.24l-5,16.85a6.57,6.57,0,0,1-1.87.23,7,7,0,0,1-1.91-.23Z"/><path class="cls-1" d="M391,31.82c4.78,0,6.29,2.14,6.29,6.38v11a2.57,2.57,0,0,1-1.28.23,3.36,3.36,0,0,1-1.32-.23l-.49-2.1c-.86,1.74-2.67,2.66-5.17,2.66-3.1,0-5.11-1.81-5.11-5.5s2.21-5.17,6.32-5.17a34.93,34.93,0,0,1,3.76.2V38.1c0-2.23-.86-3.52-3.39-3.52a13.8,13.8,0,0,0-4.42.82,2.59,2.59,0,0,1-.75-1,2.84,2.84,0,0,1-.2-1.39A14.38,14.38,0,0,1,391,31.82Zm-.33,9.54c-2.2,0-3.36.86-3.36,2.93s1.09,3,2.87,3c2.6,0,3.82-2.21,3.82-4.55V41.56C393.26,41.5,391.94,41.36,390.69,41.36Z"/><path class="cls-1" d="M415.35,49.23a4.71,4.71,0,0,1-1.64.23,4.54,4.54,0,0,1-1.65-.23V37.38c0-1.84-1-2.9-3.06-2.9a4.49,4.49,0,0,0-3.72,2.11V49.23a5,5,0,0,1-1.65.23,4.35,4.35,0,0,1-1.65-.23V32.38a4.18,4.18,0,0,1,1.65-.24,4.84,4.84,0,0,1,1.65.24v1.51a6.36,6.36,0,0,1,5-2.07c3.29,0,5.1,2,5.1,5Z"/><path class="cls-1" d="M423.48,28.82a5.14,5.14,0,0,1-1.71.23,4.66,4.66,0,0,1-1.71-.23v-3.1a4.66,4.66,0,0,1,1.71-.23,5.14,5.14,0,0,1,1.71.23Zm-.06,20.41a4.74,4.74,0,0,1-1.65.23,4.35,4.35,0,0,1-1.65-.23V32.38a4.18,4.18,0,0,1,1.65-.24,4.56,4.56,0,0,1,1.65.24Z"/><path class="cls-1" d="M430.92,41.83c.27,3.91,1.85,5.17,4.58,5.17a7.91,7.91,0,0,0,3.88-1,3.37,3.37,0,0,1,1.06,2.37A9.75,9.75,0,0,1,435,49.79c-5.07,0-7.44-3.12-7.44-9.08,0-6.23,2.93-8.89,7.31-8.89,4.05,0,6.52,2.23,6.52,6.61a14.19,14.19,0,0,1-.36,3.4Zm3.92-7.41c-2.14,0-3.65,1.41-3.92,5.07H438a12,12,0,0,0,.1-1.48C438.07,36.06,437.28,34.42,434.84,34.42Z"/><path class="cls-2" d="M489.59,40.31a22.26,22.26,0,0,1-.89-4.74h-.13a21.42,21.42,0,0,1-.93,4.74L485,49.23a6.13,6.13,0,0,1-1.87.23,6.67,6.67,0,0,1-1.91-.23l-5-16.85a4.84,4.84,0,0,1,1.65-.24,2.55,2.55,0,0,1,1.42.24l3.12,10.5a20.79,20.79,0,0,1,.7,3.23h.09a28.58,28.58,0,0,1,.73-3.23l3-10.5a6.8,6.8,0,0,1,1.78-.24,4.25,4.25,0,0,1,1.61.24l2.93,10.43a18.42,18.42,0,0,1,.66,3.3h.1a30.21,30.21,0,0,1,.82-3.26L498,32.38a3.75,3.75,0,0,1,1.45-.24,2.93,2.93,0,0,1,1.41.24l-5,16.85a6.64,6.64,0,0,1-1.88.23,7,7,0,0,1-1.91-.23Z"/><path class="cls-2" d="M511.94,52c-1.19,3.62-2.34,5.7-5.89,5.7a4.81,4.81,0,0,1-1.82-.33,3.9,3.9,0,0,1-.23-1.22,3,3,0,0,1,.27-1.32,9.46,9.46,0,0,0,1.48.13c1.48,0,2.24-.39,3.23-3.49l.69-2a3.07,3.07,0,0,1-1.06-.23l-6.25-16.85a5.16,5.16,0,0,1,1.71-.24,5,5,0,0,1,1.71.24l3.76,10a32,32,0,0,1,1.15,3.86h.13s.33-1.55,1.05-3.82l3.26-10a4.28,4.28,0,0,1,1.62-.24,4.45,4.45,0,0,1,1.54.24Z"/><path class="cls-2" d="M533,24.77a4.35,4.35,0,0,1,1.61.23V49.23a4,4,0,0,1-1.38.23,5,5,0,0,1-1.48-.23l-.23-1.77c-1,1.45-2.47,2.33-4.94,2.33-3.76,0-6.19-2.27-6.19-9s2.43-9,6.19-9A5.34,5.34,0,0,1,531.33,34V25A4.84,4.84,0,0,1,533,24.77Zm-5.27,9.74c-2.63,0-4,1.39-4,6.29s1.32,6.29,4,6.29c2.31,0,3.59-1.94,3.59-4.21V38.63C531.3,36.42,530,34.51,527.74,34.51Z"/><path class="cls-2" d="M545.42,31.82c4.77,0,6.29,2.14,6.29,6.38v11a2.6,2.6,0,0,1-1.29.23,3.34,3.34,0,0,1-1.31-.23l-.5-2.1c-.85,1.74-2.66,2.66-5.17,2.66-3.09,0-5.1-1.81-5.1-5.5s2.21-5.17,6.32-5.17a35.08,35.08,0,0,1,3.76.2V38.1c0-2.23-.86-3.52-3.4-3.52a13.78,13.78,0,0,0-4.41.82,2.55,2.55,0,0,1-.76-1,2.91,2.91,0,0,1-.19-1.39A14.38,14.38,0,0,1,545.42,31.82Zm-.33,9.54c-2.21,0-3.36.86-3.36,2.93s1.09,3,2.87,3c2.6,0,3.82-2.21,3.82-4.55V41.56C547.66,41.5,546.34,41.36,545.09,41.36Z"/><path class="cls-2" d="M556.45,32.38a4.09,4.09,0,0,1,1.64-.24,4.56,4.56,0,0,1,1.65.24v20c0,3.49-1.68,5.34-4.77,5.34a7,7,0,0,1-2.21-.3,2.9,2.9,0,0,1-.1-.76A3.4,3.4,0,0,1,553,55a5.29,5.29,0,0,0,1.22.14c1.48,0,2.24-.79,2.24-2.61Zm3.36-3.59a5.25,5.25,0,0,1-1.72.23,4.73,4.73,0,0,1-1.71-.23v-3.1a4.73,4.73,0,0,1,1.71-.23,5.25,5.25,0,0,1,1.72.23Z"/><path class="cls-2" d="M578,49.23a4.74,4.74,0,0,1-1.65.23,4.44,4.44,0,0,1-1.64-.23V37.38c0-1.84-1-2.9-3.07-2.9a4.52,4.52,0,0,0-3.72,2.11V49.23a4.92,4.92,0,0,1-1.64.23,4.28,4.28,0,0,1-1.65-.23V32.38a4.12,4.12,0,0,1,1.65-.24,4.74,4.74,0,0,1,1.64.24v1.51a6.39,6.39,0,0,1,5-2.07c3.29,0,5.1,2,5.1,5Z"/><path class="cls-2" d="M590.32,52c-1.18,3.62-2.33,5.7-5.89,5.7a4.72,4.72,0,0,1-1.81-.33,3.9,3.9,0,0,1-.23-1.22,3.23,3.23,0,0,1,.26-1.32,9.63,9.63,0,0,0,1.48.13c1.49,0,2.24-.39,3.23-3.49l.69-2a3,3,0,0,1-1-.23l-6.26-16.85a5.24,5.24,0,0,1,1.71-.24,5.05,5.05,0,0,1,1.72.24l3.75,10a32,32,0,0,1,1.15,3.86h.13s.33-1.55,1.06-3.82l3.26-10a4.19,4.19,0,0,1,1.61-.24,4.48,4.48,0,0,1,1.55.24Z"/><path class="cls-3" d="M466.24,36.14a25.66,25.66,0,0,1,.28,3.93,21.62,21.62,0,0,1-.28,3.79l-13.17,9.67a18.57,18.57,0,0,1-.28-3.72,20.66,20.66,0,0,1,.28-3.79l8.21-6.16-8.21-6a18.45,18.45,0,0,1-.28-3.72,19.45,19.45,0,0,1,.28-3.72Z"/><path class="cls-4" d="M161.14,48.54A8.54,8.54,0,1,0,152.6,40,8.54,8.54,0,0,0,161.14,48.54Z"/></svg>