<svg id="Warstwa_1" data-name="Warstwa 1" xmlns="http://www.w3.org/2000/svg" viewBox="0 0 200 50"><defs><style>.cls-1{fill:#1f1c19;}.cls-2{fill:#05171d;}.cls-3{fill:#ccd615;}</style></defs><title>Elugel_z_koleczkiem</title><path class="cls-1" d="M134.36,42A7.66,7.66,0,0,1,128.24,39h0a10.57,10.57,0,0,1-2.36-7V27.72a11.11,11.11,0,0,1,2.69-7.49A8.32,8.32,0,0,1,135,17.18a11.72,11.72,0,0,1,3.77.6,8.79,8.79,0,0,1,3.36,2.07l.2.2-2.93,4.13-.28-.32a4.94,4.94,0,0,0-2-1.34,5.64,5.64,0,0,0-2.13-.41A3.88,3.88,0,0,0,132,23.58a6.19,6.19,0,0,0-1.37,4.14V32a6.27,6.27,0,0,0,1.19,4.09,3.58,3.58,0,0,0,2.93,1.31,3.69,3.69,0,0,0,2.75-1.12,4.25,4.25,0,0,0,1.17-3.15v-.82h-4.08l-.74-4.59h9.55v4.8a9.86,9.86,0,0,1-2.23,6.67A8.58,8.58,0,0,1,134.36,42Zm-5.6-3.37a6.94,6.94,0,0,0,5.6,2.69,7.94,7.94,0,0,0,6.29-2.57,9.19,9.19,0,0,0,2.06-6.22V28.37h-8.06l.52,3.23h4.18v1.5A5,5,0,0,1,138,36.73a4.39,4.39,0,0,1-3.24,1.32,4.29,4.29,0,0,1-3.46-1.55A7,7,0,0,1,130,32V27.72a6.88,6.88,0,0,1,1.54-4.59,4.57,4.57,0,0,1,3.56-1.7,6.53,6.53,0,0,1,2.38.45,5.64,5.64,0,0,1,1.93,1.21l2.09-3a8.25,8.25,0,0,0-2.88-1.71,11.09,11.09,0,0,0-3.49-.56,7.59,7.59,0,0,0-6,2.82,10.45,10.45,0,0,0-2.53,7.05v4.34a9.93,9.93,0,0,0,2.2,6.52Z"/><polygon class="cls-2" points="72.3 41.29 72.3 8.26 90.8 8.26 90.8 14.11 78.16 14.11 78.16 21.84 89.45 21.84 89.45 27.43 78.16 27.43 78.16 35.44 90.37 35.44 91.12 41.29 72.3 41.29"/><polygon class="cls-2" points="99.76 41.29 93.97 41.29 93.97 8.91 99.76 8.04 99.76 41.29"/><path class="cls-2" d="M105.82,39a7.81,7.81,0,0,1-2.14-5.54V17.62h5.78V31.34a4.64,4.64,0,0,0,1.15,3.13,3.62,3.62,0,0,0,5.51,0,4.48,4.48,0,0,0,1.15-3.13V17.62h5.82V41.29h-5.5l-.32-3.44A6.71,6.71,0,0,1,111,41.29,6.94,6.94,0,0,1,105.82,39"/><path class="cls-2" d="M128.5,38.81a10.21,10.21,0,0,1-2.28-6.75V27.72a10.72,10.72,0,0,1,2.61-7.26A7.93,7.93,0,0,1,135,17.52h.06a11.45,11.45,0,0,1,3.6.58,8.42,8.42,0,0,1,3.22,2l-2.5,3.54a5.17,5.17,0,0,0-2.09-1.43,6.13,6.13,0,0,0-2.26-.43,4.23,4.23,0,0,0-3.3,1.59,6.44,6.44,0,0,0-1.46,4.36V32a6.55,6.55,0,0,0,1.27,4.31,3.92,3.92,0,0,0,3.19,1.43,4,4,0,0,0,3-1.22A4.63,4.63,0,0,0,139,33.1V31.94h-4.13L134.25,28h8.81v4.46a9.45,9.45,0,0,1-2.15,6.44,8.19,8.19,0,0,1-6.55,2.69,7.29,7.29,0,0,1-5.86-2.81"/><path class="cls-2" d="M134.36,41.88A7.6,7.6,0,0,1,128.3,39h0A10.53,10.53,0,0,1,126,32.07V27.72a11,11,0,0,1,2.68-7.43,8.21,8.21,0,0,1,6.38-3,11.6,11.6,0,0,1,3.75.6,8.66,8.66,0,0,1,3.32,2.05l.15.15-2.82,4-.22-.25a5,5,0,0,0-2-1.36,5.79,5.79,0,0,0-2.16-.41,4,4,0,0,0-3.11,1.5,6.27,6.27,0,0,0-1.39,4.19V32a6.35,6.35,0,0,0,1.21,4.14,3.61,3.61,0,0,0,3,1.34,3.81,3.81,0,0,0,2.81-1.14,4.36,4.36,0,0,0,1.19-3.21v-.9h-4.09l-.72-4.43h9.38v4.72a9.77,9.77,0,0,1-2.21,6.61A8.5,8.5,0,0,1,134.36,41.88Zm-5.66-3.24a7,7,0,0,0,5.66,2.72,8,8,0,0,0,6.35-2.6,9.22,9.22,0,0,0,2.09-6.27v-4.2h-8.24l.54,3.39h4.17V33.1a4.88,4.88,0,0,1-1.34,3.57,4.28,4.28,0,0,1-3.18,1.3,4.16,4.16,0,0,1-3.39-1.53A6.77,6.77,0,0,1,130,32V27.72a6.76,6.76,0,0,1,1.52-4.53,4.47,4.47,0,0,1,3.5-1.68,6.61,6.61,0,0,1,2.35.44,5.67,5.67,0,0,1,2,1.27l2.19-3.1a8.16,8.16,0,0,0-3-1.77,10.89,10.89,0,0,0-3.51-.57A7.74,7.74,0,0,0,129,20.63a10.49,10.49,0,0,0-2.55,7.1v4.34a10,10,0,0,0,2.22,6.57Z"/><path class="cls-2" d="M148.88,38.65a11,11,0,0,1-2.93-8V28.8a12.29,12.29,0,0,1,2.66-8.14A9,9,0,0,1,156,17.32a9.65,9.65,0,0,1,6.41,2.11,7.3,7.3,0,0,1,2.66,5.85,6,6,0,0,1-1.83,4.53,7.74,7.74,0,0,1-5.58,1.89h-5.9a4.46,4.46,0,0,0,1.38,3.39,4.61,4.61,0,0,0,2.82,1.14,5.53,5.53,0,0,0,.71,0,8.81,8.81,0,0,0,4-1,13.14,13.14,0,0,0,3.41-2.42l-.16,4.93c0,.53,0,.95,0,1.27a12.7,12.7,0,0,1-3.21,1.63,14.07,14.07,0,0,1-4.71.84,9.43,9.43,0,0,1-7.06-2.86m2.86-11.35h5.19c1.84,0,2.77-.81,2.77-2.42s-1.07-2.59-3.21-2.59a4.91,4.91,0,0,0-3.37,1.18,4.18,4.18,0,0,0-1.38,3.21Z"/><polygon class="cls-2" points="174.44 41.29 168.66 41.29 168.66 8.91 174.44 8.04 174.44 41.29"/><path class="cls-3" d="M41.41,39.87A15.85,15.85,0,1,1,57.25,24,15.86,15.86,0,0,1,41.41,39.87Zm0-22.19A6.35,6.35,0,1,0,47.75,24,6.36,6.36,0,0,0,41.41,17.68Z"/></svg>