<svg id="Warstwa_1" data-name="Warstwa 1" xmlns="http://www.w3.org/2000/svg" viewBox="0 0 100 100"><defs><style>.cls-1{fill:#ccd513;}.cls-2{fill:#fff;}.cls-3{fill:#075da6;}</style></defs><title>ikona_02</title><path class="cls-1" d="M50,60.35a25,25,0,1,0-25-25,25,25,0,0,0,25,25"/><path class="cls-2" d="M50.68,33.49v-8.6a.56.56,0,1,0-1.11,0v8.53a1.94,1.94,0,0,0,0,3.83v.86a.56.56,0,1,0,1.11,0v-.93a1.93,1.93,0,0,0,0-3.69"/><rect class="cls-2" x="49.4" y="15.81" width="1.2" height="3.04"/><path class="cls-2" d="M61.75,24.36l1.48-1.43.65.63.83-.8L62.5,20.63l-.83.8.73.7-1.5,1.44a16.7,16.7,0,0,0-10.9-4c-9,0-16.37,7.08-16.37,15.78S41,51.1,50,51.1,66.37,44,66.37,35.33a15.41,15.41,0,0,0-4.62-11M50.67,50V47.16H49.33V50A14.93,14.93,0,0,1,34.82,35.9H37.2V34.76H34.82A14.94,14.94,0,0,1,49.41,20.7v2.44h1.18V20.7A14.94,14.94,0,0,1,65.18,34.76H63V35.9h2.21A14.94,14.94,0,0,1,50.67,50"/><path class="cls-3" d="M15.36,75.5c0-3.1,1.31-4.45,3.41-4.45s3.41,1.34,3.41,4.45S20.88,80,18.77,80,15.36,78.6,15.36,75.5Zm5.51,0c0-2.64-.81-3.44-2.1-3.44s-2.1.8-2.1,3.44.82,3.44,2.1,3.44S20.87,78.14,20.87,75.5Z"/><path class="cls-3" d="M29.63,73.81A2.44,2.44,0,0,1,27,76.45H25.15v3.28a1.75,1.75,0,0,1-.61.09,1.71,1.71,0,0,1-.64-.09V71.18H27A2.43,2.43,0,0,1,29.63,73.81Zm-1.29,0c0-1-.52-1.63-1.45-1.63H25.15v3.24h1.74C27.82,75.43,28.34,74.83,28.34,73.82Z"/><path class="cls-3" d="M36.3,72.25H34v7.48a1.88,1.88,0,0,1-.63.09,1.56,1.56,0,0,1-.61-.09V72.25H30.5a1.73,1.73,0,0,1-.08-.54,1.7,1.7,0,0,1,.08-.53h5.8a1.4,1.4,0,0,1,.09.53A1.71,1.71,0,0,1,36.3,72.25Z"/><path class="cls-3" d="M41.11,76.27v3.46a1.66,1.66,0,0,1-.6.09,1.71,1.71,0,0,1-.64-.09V76.29l-2.95-5a2.68,2.68,0,0,1,.74-.08,2.48,2.48,0,0,1,.69.08l1.81,3,.39.68.44-.73,1.83-3a2.17,2.17,0,0,1,.65-.08,2.63,2.63,0,0,1,.68.08Z"/><path class="cls-3" d="M45.36,79.73V71.26a4.06,4.06,0,0,1,.76-.08,3.66,3.66,0,0,1,.75.08l1.74,3.27a8.44,8.44,0,0,1,.69,1.69h.06a5.12,5.12,0,0,1,.41-1.06l1.94-3.9a4.24,4.24,0,0,1,.78-.08,4.52,4.52,0,0,1,.82.08v8.47a1.72,1.72,0,0,1-.6.09,1.69,1.69,0,0,1-.61-.09V75.52c0-1.16,0-2.37.09-2.88h0a18.23,18.23,0,0,1-.88,2.13l-1.55,3a1.34,1.34,0,0,1-.43.06,1,1,0,0,1-.4-.06L47.32,74.8a13.8,13.8,0,0,1-.92-2.16h0a21.5,21.5,0,0,1,.13,2.77v4.32a1.42,1.42,0,0,1-.56.09A1.54,1.54,0,0,1,45.36,79.73Z"/><path class="cls-3" d="M62.06,79.73a2,2,0,0,1-.66.09,1.6,1.6,0,0,1-.6-.09L60,77.62H56.49l-.78,2.11a1.64,1.64,0,0,1-.6.09,1.45,1.45,0,0,1-.57-.09l3-8.47a3.35,3.35,0,0,1,.73-.08,3.14,3.14,0,0,1,.74.08ZM56.8,76.66h2.91L58.55,73.5a7.58,7.58,0,0,1-.27-1h-.05a8.44,8.44,0,0,1-.26,1Z"/><path class="cls-3" d="M68.21,79.29a2.06,2.06,0,0,1-.07.53H63.27V71.26a2.1,2.1,0,0,1,.63-.08,2.06,2.06,0,0,1,.62.08v7.51h3.62A1.92,1.92,0,0,1,68.21,79.29Z"/><path class="cls-3" d="M69.49,79.73V71.26a2.94,2.94,0,0,1,.76-.08,2.67,2.67,0,0,1,.76.08l3,5.46a11.77,11.77,0,0,1,.69,1.64h0s-.08-.9-.08-2v-5.1a1.6,1.6,0,0,1,.57-.08,1.27,1.27,0,0,1,.54.08v8.47a2.18,2.18,0,0,1-.74.09,2.76,2.76,0,0,1-.77-.09l-3-5.52a10.1,10.1,0,0,1-.66-1.55h0s.08.76.08,2v5.08a1.39,1.39,0,0,1-.57.09A1.33,1.33,0,0,1,69.49,79.73Z"/><path class="cls-3" d="M81.25,76.27v3.46a1.66,1.66,0,0,1-.6.09,1.71,1.71,0,0,1-.64-.09V76.29l-3-5a2.68,2.68,0,0,1,.74-.08,2.48,2.48,0,0,1,.69.08l1.81,3,.39.68.44-.73,1.83-3a2.17,2.17,0,0,1,.65-.08,2.63,2.63,0,0,1,.68.08Z"/><path class="cls-3" d="M4.77,89.9c0-2.92,1.2-4.45,3.5-4.45a4.54,4.54,0,0,1,2.09.42,1.19,1.19,0,0,1-.38.9,4.45,4.45,0,0,0-1.56-.28c-1.4,0-2.34.75-2.34,3.42S7,93.29,8.42,93.29A4.81,4.81,0,0,0,10.1,93a1.36,1.36,0,0,1,.39.92,4.88,4.88,0,0,1-2.22.43C6,94.35,4.77,92.84,4.77,89.9Z"/><path class="cls-3" d="M17.5,93.66a1.79,1.79,0,0,1-.08.56H11.34a2.75,2.75,0,0,1-.07-.56,2.24,2.24,0,0,1,.07-.51l4.49-6.51H11.68a2.19,2.19,0,0,1-.07-.56,1.67,1.67,0,0,1,.07-.5h5.59a1.63,1.63,0,0,1,.08.5,2.08,2.08,0,0,1-.08.56l-4.52,6.51h4.67A1.76,1.76,0,0,1,17.5,93.66Z"/><path class="cls-3" d="M25.68,94.13a2,2,0,0,1-.66.09,1.6,1.6,0,0,1-.6-.09L23.65,92H20.11l-.78,2.11a1.64,1.64,0,0,1-.6.09,1.49,1.49,0,0,1-.57-.09l3-8.47a3.35,3.35,0,0,1,.73-.08,3.25,3.25,0,0,1,.75.08Zm-5.26-3.07h2.91L22.18,87.9a8,8,0,0,1-.28-1h0a6.87,6.87,0,0,1-.26,1Z"/><path class="cls-3" d="M26.41,93.83a1.68,1.68,0,0,1,.32-1,7.6,7.6,0,0,0,2.25.37c1.27,0,1.9-.47,1.9-1.36s-.74-1.17-1.6-1.43c-1.25-.4-2.77-.72-2.77-2.52,0-1.48,1-2.47,2.95-2.47a7,7,0,0,1,2.35.36,1.46,1.46,0,0,1-.32.93,7.54,7.54,0,0,0-1.85-.24c-1.28,0-1.88.5-1.88,1.35s1,1.15,2.13,1.51,2.26.87,2.26,2.47-1,2.52-3.09,2.52A6.8,6.8,0,0,1,26.41,93.83Z"/><path class="cls-3" d="M42.65,94.13a2.49,2.49,0,0,1-.72.09,2.37,2.37,0,0,1-.71-.09l-2.69-3.91h-.9v3.91a1.59,1.59,0,0,1-.62.09,1.78,1.78,0,0,1-.62-.09V85.66a2,2,0,0,1,.63-.08,1.87,1.87,0,0,1,.61.08v3.58h.89L41,85.66a2.42,2.42,0,0,1,.63-.08,2.92,2.92,0,0,1,.67.08l-2.71,4Z"/><path class="cls-3" d="M43.06,89.9c0-3.1,1.32-4.45,3.42-4.45s3.4,1.34,3.4,4.45-1.29,4.45-3.4,4.45S43.06,93,43.06,89.9Zm5.51,0c0-2.64-.81-3.44-2.09-3.44s-2.1.8-2.1,3.44.81,3.44,2.1,3.44S48.57,92.54,48.57,89.9Z"/><path class="cls-3" d="M51.6,94.13V85.66a3.08,3.08,0,0,1,.77-.08,2.76,2.76,0,0,1,.76.08l3,5.46a12.59,12.59,0,0,1,.7,1.64h0s-.09-.89-.09-2v-5.1a1.64,1.64,0,0,1,.58-.08,1.33,1.33,0,0,1,.54.08v8.47a2.28,2.28,0,0,1-.75.09,2.63,2.63,0,0,1-.76-.09l-3-5.51a10.43,10.43,0,0,1-.66-1.56h0a18.72,18.72,0,0,1,.09,2v5.08a1.41,1.41,0,0,1-.58.09A1.33,1.33,0,0,1,51.6,94.13Z"/><path class="cls-3" d="M65.13,86.65H62.86v7.48a1.88,1.88,0,0,1-.63.09,1.56,1.56,0,0,1-.61-.09V86.65H59.33a1.73,1.73,0,0,1-.08-.54,1.7,1.7,0,0,1,.08-.53h5.8a1.4,1.4,0,0,1,.09.53A1.71,1.71,0,0,1,65.13,86.65Z"/><path class="cls-3" d="M72.48,94.13a2,2,0,0,1-.66.09,1.6,1.6,0,0,1-.6-.09L70.45,92H66.91l-.78,2.11a1.64,1.64,0,0,1-.6.09,1.49,1.49,0,0,1-.57-.09l3-8.47a3.35,3.35,0,0,1,.73-.08,3.25,3.25,0,0,1,.75.08Zm-5.26-3.07h2.91L69,87.9a8,8,0,0,1-.28-1h0a6.87,6.87,0,0,1-.26,1Z"/><path class="cls-3" d="M80,94.13a2.41,2.41,0,0,1-.72.09,2.34,2.34,0,0,1-.7-.09l-2.69-3.91h-.9v3.91a1.59,1.59,0,0,1-.62.09,1.88,1.88,0,0,1-.63-.09V85.66a2.13,2.13,0,0,1,.64-.08,2,2,0,0,1,.61.08v3.58h.89l2.48-3.58a2.4,2.4,0,0,1,.62-.08,2.94,2.94,0,0,1,.68.08l-2.71,4Z"/><path class="cls-3" d="M86.28,86.65H84v7.48a1.85,1.85,0,0,1-.62.09,1.65,1.65,0,0,1-.62-.09V86.65H80.47a1.73,1.73,0,0,1-.08-.54,1.7,1.7,0,0,1,.08-.53h5.81a1.55,1.55,0,0,1,.08.53A1.9,1.9,0,0,1,86.28,86.65Z"/><path class="cls-3" d="M87.65,91.34V85.66a2,2,0,0,1,.61-.08,1.91,1.91,0,0,1,.62.08v5.81a1.82,1.82,0,1,0,3.63,0V85.66a1.77,1.77,0,0,1,.6-.08,2.06,2.06,0,0,1,.62.08v5.68a3,3,0,0,1-6.08,0Z"/></svg>