<svg id="Warstwa_1" data-name="Warstwa 1" xmlns="http://www.w3.org/2000/svg" viewBox="0 0 100 100"><defs><style>.cls-1{fill:#ccd513;}.cls-2{fill:#fff;}.cls-3{fill:#075da6;}</style></defs><title>ikona_03</title><path class="cls-1" d="M50,60.35a25,25,0,1,0-25-25,25,25,0,0,0,25,25"/><path class="cls-2" d="M50,52.86l-.44-.1c-1.3-.57-12.68-5.79-12.68-12.9V23A1.06,1.06,0,0,1,38,22C47.3,22,49,18.53,49,18.5a1.05,1.05,0,0,1,1-.65,1.09,1.09,0,0,1,1,.67S52.69,22,62.05,22A1.06,1.06,0,0,1,63.11,23V39.86c0,7.3-12.17,12.67-12.69,12.9Zm0-1.14h0l.08,0S62,46.44,62,39.86V23.08c-9.4,0-11.64-3.35-12-4-.44.81-2.77,4-12,4L38,39.86C38,46.22,49,51.28,50,51.72Z"/><path class="cls-2" d="M50.5,46.9l-.26-.12c-.82-.4-8-4-8.35-7.41-.31-3.25-.15-12.29-.14-12.67v-.55H58.17v.55c0,.07.08,6.94-.16,11.9-.2,4.18-7,8-7.26,8.16ZM42.85,27.26c0,2-.12,9.27.15,12,.22,2.31,5.23,5.27,7.46,6.38,1.2-.71,6.29-3.93,6.45-7.09.2-4.11.17-9.56.16-11.29Z"/><rect class="cls-2" x="49.39" y="17.85" width="1.11" height="34.99"/><path class="cls-3" d="M14.46,79.31a1.45,1.45,0,0,1-.1.51h-5V71.18h4.93a1.14,1.14,0,0,1,.1.48,1.24,1.24,0,0,1-.1.5H10.56V75h3.08a1.2,1.2,0,0,1,.1.47,1.32,1.32,0,0,1-.1.51H10.56v2.89h3.8A1.17,1.17,0,0,1,14.46,79.31Z"/><path class="cls-3" d="M17.23,72.16v2.93h3.18a1.26,1.26,0,0,1,.08.48,1.42,1.42,0,0,1-.08.52H17.23v3.64a1.85,1.85,0,0,1-.62.09,1.78,1.78,0,0,1-.62-.09V71.18h4.85a1.5,1.5,0,0,1,.1.49,1.24,1.24,0,0,1-.1.49Z"/><path class="cls-3" d="M27.53,79.31a1.45,1.45,0,0,1-.1.51H22.38V71.18h4.93a1.14,1.14,0,0,1,.1.48,1.24,1.24,0,0,1-.1.5H23.63V75h3.08a1.2,1.2,0,0,1,.1.47,1.32,1.32,0,0,1-.1.51H23.63v2.89h3.8A1.17,1.17,0,0,1,27.53,79.31Z"/><path class="cls-3" d="M35.31,79.73a2.41,2.41,0,0,1-.72.09,2.34,2.34,0,0,1-.7-.09L31.2,75.82h-.9v3.91a1.59,1.59,0,0,1-.62.09,1.88,1.88,0,0,1-.63-.09V71.26a2.13,2.13,0,0,1,.64-.08,2,2,0,0,1,.61.08v3.58h.89l2.48-3.58a2.4,2.4,0,0,1,.62-.08,2.94,2.94,0,0,1,.68.08l-2.71,3.95Z"/><path class="cls-3" d="M41.64,72.25H39.36v7.48a1.85,1.85,0,0,1-.62.09,1.65,1.65,0,0,1-.62-.09V72.25H35.83a1.73,1.73,0,0,1-.08-.54,1.7,1.7,0,0,1,.08-.53h5.81a1.55,1.55,0,0,1,.08.53A1.9,1.9,0,0,1,41.64,72.25Z"/><path class="cls-3" d="M51.31,77.4a2.29,2.29,0,0,1-2.6,2.42H45.45V71.18h3.21a2.18,2.18,0,0,1,2.39,2.35,2,2,0,0,1-1,1.86A2.07,2.07,0,0,1,51.31,77.4ZM48.4,72.13H46.68V75h1.73a1.27,1.27,0,0,0,1.39-1.44A1.25,1.25,0,0,0,48.4,72.13ZM50,77.39c0-1-.51-1.48-1.56-1.48h-1.8v3h1.8C49.59,78.87,50,78.33,50,77.39Z"/><path class="cls-3" d="M59.57,79.73a2.05,2.05,0,0,1-.67.09,1.58,1.58,0,0,1-.59-.09l-.77-2.11H54l-.78,2.11a1.64,1.64,0,0,1-.6.09,1.55,1.55,0,0,1-.58-.09l3-8.47a3.35,3.35,0,0,1,.73-.08,3.14,3.14,0,0,1,.74.08Zm-5.26-3.07h2.9L56.06,73.5a7.58,7.58,0,0,1-.27-1h0a8.44,8.44,0,0,1-.26,1Z"/><path class="cls-3" d="M66.86,79.73a2.41,2.41,0,0,1-.72.09,2.23,2.23,0,0,1-.69-.09l-1.93-3.5H62v3.5a1.75,1.75,0,0,1-.61.09,1.78,1.78,0,0,1-.64-.09V71.18h3.1a2.38,2.38,0,0,1,2.6,2.52,2.32,2.32,0,0,1-1.66,2.39ZM62,75.22h1.69a1.52,1.52,0,0,0,0-3H62Z"/><path class="cls-3" d="M68.28,79.73V71.26a2.06,2.06,0,0,1,.62-.08,2.1,2.1,0,0,1,.63.08v8.47a2,2,0,0,1-.63.09A1.72,1.72,0,0,1,68.28,79.73Z"/><path class="cls-3" d="M76.74,79.31a1.45,1.45,0,0,1-.1.51h-5V71.18h4.93a1.14,1.14,0,0,1,.1.48,1.24,1.24,0,0,1-.1.5H72.84V75h3.08a1.2,1.2,0,0,1,.1.47,1.32,1.32,0,0,1-.1.51H72.84v2.89h3.8A1.17,1.17,0,0,1,76.74,79.31Z"/><path class="cls-3" d="M84.35,79.73a2.49,2.49,0,0,1-.72.09,2.26,2.26,0,0,1-.7-.09L81,76.23H79.51v3.5a1.69,1.69,0,0,1-.61.09,1.78,1.78,0,0,1-.64-.09V71.18h3.1A2.38,2.38,0,0,1,84,73.7a2.31,2.31,0,0,1-1.65,2.39Zm-4.84-4.51H81.2a1.52,1.52,0,0,0,0-3H79.51Z"/><path class="cls-3" d="M88.85,76.27v3.46a1.66,1.66,0,0,1-.6.09,1.78,1.78,0,0,1-.64-.09V76.29l-3-5a2.68,2.68,0,0,1,.74-.08,2.48,2.48,0,0,1,.69.08l1.81,3,.39.68.44-.73,1.83-3a2.17,2.17,0,0,1,.65-.08,2.63,2.63,0,0,1,.68.08Z"/><path class="cls-3" d="M16.93,89.9c0-3.1,1.32-4.45,3.42-4.45s3.41,1.34,3.41,4.45-1.3,4.45-3.41,4.45S16.93,93,16.93,89.9Zm5.52,0c0-2.64-.82-3.44-2.1-3.44s-2.1.8-2.1,3.44.82,3.44,2.1,3.44S22.45,92.54,22.45,89.9Z"/><path class="cls-3" d="M25.12,89.9c0-2.92,1.2-4.45,3.5-4.45a4.54,4.54,0,0,1,2.09.42,1.19,1.19,0,0,1-.38.9,4.43,4.43,0,0,0-1.55-.28c-1.41,0-2.34.75-2.34,3.42s.93,3.38,2.34,3.38A4.78,4.78,0,0,0,30.45,93a1.32,1.32,0,0,1,.39.92,4.88,4.88,0,0,1-2.22.43C26.32,94.35,25.12,92.84,25.12,89.9Z"/><path class="cls-3" d="M38.31,85.66v8.47a1.78,1.78,0,0,1-.62.09,1.59,1.59,0,0,1-.62-.09V90.32H33.48v3.81a1.93,1.93,0,0,1-.62.09,1.62,1.62,0,0,1-.63-.09V85.66a2.1,2.1,0,0,1,.63-.08,2.06,2.06,0,0,1,.62.08v3.6h3.59v-3.6a2,2,0,0,1,.62-.08A2.14,2.14,0,0,1,38.31,85.66Z"/><path class="cls-3" d="M46.46,94.13a2.41,2.41,0,0,1-.72.09,2.23,2.23,0,0,1-.69-.09l-1.94-3.5H41.63v3.5a1.75,1.75,0,0,1-.61.09,1.71,1.71,0,0,1-.64-.09V85.58h3.1a2.38,2.38,0,0,1,2.6,2.52,2.32,2.32,0,0,1-1.66,2.39Zm-4.83-4.51h1.69a1.52,1.52,0,0,0,0-3H41.63Z"/><path class="cls-3" d="M47.5,89.9c0-3.1,1.32-4.45,3.41-4.45s3.41,1.34,3.41,4.45S53,94.35,50.91,94.35,47.5,93,47.5,89.9Zm5.51,0c0-2.64-.81-3.44-2.1-3.44s-2.09.8-2.09,3.44.81,3.44,2.09,3.44S53,92.54,53,89.9Z"/><path class="cls-3" d="M56,94.13V85.66a3.08,3.08,0,0,1,.77-.08,2.63,2.63,0,0,1,.75.08l3,5.46a12.59,12.59,0,0,1,.7,1.64h.05s-.09-.89-.09-2v-5.1a1.64,1.64,0,0,1,.58-.08,1.33,1.33,0,0,1,.54.08v8.47a2.28,2.28,0,0,1-.75.09,2.63,2.63,0,0,1-.76-.09l-3-5.51a10.43,10.43,0,0,1-.66-1.56h-.05a18.72,18.72,0,0,1,.09,2v5.08a1.41,1.41,0,0,1-.58.09A1.33,1.33,0,0,1,56,94.13Z"/><path class="cls-3" d="M64.42,94.13V85.66a2.94,2.94,0,0,1,.76-.08,2.67,2.67,0,0,1,.76.08l3,5.46a11.77,11.77,0,0,1,.69,1.64h.05s-.08-.89-.08-2v-5.1a1.6,1.6,0,0,1,.57-.08,1.27,1.27,0,0,1,.54.08v8.47a2.18,2.18,0,0,1-.74.09,2.76,2.76,0,0,1-.77-.09l-3-5.51a10.43,10.43,0,0,1-.66-1.56h-.05s.08.76.08,2v5.08a1.39,1.39,0,0,1-.57.09A1.33,1.33,0,0,1,64.42,94.13Z"/><path class="cls-3" d="M77.94,93.71a1.45,1.45,0,0,1-.1.51h-5V85.58h4.93a1.14,1.14,0,0,1,.1.48,1.24,1.24,0,0,1-.1.5H74v2.8h3.08a1.2,1.2,0,0,1,.1.47,1.32,1.32,0,0,1-.1.51H74v2.89h3.8A1.17,1.17,0,0,1,77.94,93.71Z"/><path class="cls-3" d="M78.67,94A1.23,1.23,0,0,1,79,93a3.64,3.64,0,0,0,1.21.23A1.16,1.16,0,0,0,81.53,92V85.66a1.73,1.73,0,0,1,.61-.08,1.91,1.91,0,0,1,.62.08V92a2.08,2.08,0,0,1-2.3,2.35A4.44,4.44,0,0,1,78.67,94Z"/></svg>