<svg id="Warstwa_1" data-name="Warstwa 1" xmlns="http://www.w3.org/2000/svg" viewBox="0 0 555.51 60"><defs><style>.cls-1{fill:#005ca6;}.cls-2{fill:none;stroke:#ccd513;stroke-miterlimit:10;stroke-width:1.85px;}</style></defs><title>kompleksowa_opieka</title><path class="cls-1" d="M135.58,22.8a5.4,5.4,0,0,1,1.29-.18,6.62,6.62,0,0,1,1.39.18l-5.74,8.3,6.5,9.57a5.19,5.19,0,0,1-1.52.18,5.33,5.33,0,0,1-1.49-.18l-5.65-8.25h-1.84v8.25a3.33,3.33,0,0,1-1.29.18,4.11,4.11,0,0,1-1.3-.18V22.8a4,4,0,0,1,1.32-.18,3.59,3.59,0,0,1,1.27.18v7.54h1.84Z"/><path class="cls-1" d="M145.94,27.28c3.49,0,5.62,1.9,5.62,6.91s-2.16,6.91-5.62,6.91-5.62-1.9-5.62-6.91S142.47,27.28,145.94,27.28Zm0,1.95c-1.85,0-3,1.06-3,5s1.19,5,3,5,3-1.06,3-5S147.78,29.23,145.94,29.23Z"/><path class="cls-1" d="M168,27.28a3.52,3.52,0,0,1,3.77,3.82v9.57a3.56,3.56,0,0,1-1.26.18,3.27,3.27,0,0,1-1.27-.18V31.56a2,2,0,0,0-2.2-2.23A3.19,3.19,0,0,0,164.34,31v9.72a3.5,3.5,0,0,1-1.24.18,3.24,3.24,0,0,1-1.26-.18V31.56a2,2,0,0,0-2.21-2.23,3.38,3.38,0,0,0-2.71,1.59v9.75a3.43,3.43,0,0,1-1.24.18,3.24,3.24,0,0,1-1.26-.18v-13a3.24,3.24,0,0,1,1.26-.18,3.43,3.43,0,0,1,1.24.18v1.14a4.73,4.73,0,0,1,3.65-1.57,3.38,3.38,0,0,1,3.29,1.84A5.11,5.11,0,0,1,168,27.28Z"/><path class="cls-1" d="M181.33,27.28c2.89,0,4.76,1.74,4.76,6.91s-1.87,6.91-4.76,6.91a4,4,0,0,1-3.64-1.65v7.09a4.31,4.31,0,0,1-1.29.15,3.89,3.89,0,0,1-1.24-.15V27.71a3.3,3.3,0,0,1,1.24-.18,3.65,3.65,0,0,1,1.29.18v1.21A4,4,0,0,1,181.33,27.28Zm-.88,2.07c-1.78,0-2.76,1.47-2.76,3.19v3.24c0,1.75,1,3.24,2.76,3.24,2,0,3-1.06,3-4.83S182.47,29.35,180.45,29.35Z"/><path class="cls-1" d="M191.61,40.67a3.56,3.56,0,0,1-1.26.18,3.27,3.27,0,0,1-1.27-.18V22a3.27,3.27,0,0,1,1.27-.18,3.56,3.56,0,0,1,1.26.18Z"/><path class="cls-1" d="M197.16,35c.2,3,1.42,4,3.52,4a6.09,6.09,0,0,0,3-.74,2.59,2.59,0,0,1,.81,1.83,7.47,7.47,0,0,1-4.2,1.06c-3.9,0-5.72-2.41-5.72-7,0-4.78,2.25-6.83,5.62-6.83,3.11,0,5,1.72,5,5.09a10.69,10.69,0,0,1-.28,2.6Zm3-5.69c-1.65,0-2.81,1.09-3,3.9h5.42a10.52,10.52,0,0,0,.07-1.14C202.65,30.54,202,29.28,200.17,29.28Z"/><path class="cls-1" d="M215.31,27.71a4.24,4.24,0,0,1,1.29-.18,5,5,0,0,1,1.24.15l-3.9,6,4.48,6.94a4.51,4.51,0,0,1-1.41.2,4.09,4.09,0,0,1-1.37-.2l-3.8-5.82h-1.42v5.82a4.53,4.53,0,0,1-2.53,0V22a5.74,5.74,0,0,1,1.29-.13,6,6,0,0,1,1.24.13V33h1.45Z"/><path class="cls-1" d="M224.5,27.28a7.23,7.23,0,0,1,3.57.68,2.59,2.59,0,0,1-.66,1.8,9.22,9.22,0,0,0-2.65-.41c-1.73,0-2.59.64-2.59,1.83s1.6,1.54,3.19,2.07,3.37,1.32,3.37,3.8-1.6,4.05-4.81,4.05a9,9,0,0,1-4.23-.91,2.58,2.58,0,0,1,.69-1.88,10.63,10.63,0,0,0,3.41.64c1.55,0,2.43-.59,2.43-1.83s-1.39-1.69-2.88-2.12c-1.72-.51-3.6-1.24-3.6-3.75S221.29,27.28,224.5,27.28Z"/><path class="cls-1" d="M236.4,27.28c3.49,0,5.62,1.9,5.62,6.91s-2.15,6.91-5.62,6.91-5.62-1.9-5.62-6.91S232.93,27.28,236.4,27.28Zm0,1.95c-1.85,0-3,1.06-3,5s1.19,5,3,5,3-1.06,3-5S238.25,29.23,236.4,29.23Z"/><path class="cls-1" d="M253.9,33.81a17.72,17.72,0,0,1-.69-3.65h-.1a16,16,0,0,1-.71,3.65l-2,6.86a5.05,5.05,0,0,1-1.44.18,5.58,5.58,0,0,1-1.47-.18l-3.82-13a3.77,3.77,0,0,1,1.26-.18c.87,0,1.09.18,1.09.18l2.41,8.07a16.32,16.32,0,0,1,.53,2.48H249a20.61,20.61,0,0,1,.55-2.48l2.33-8.07a5.38,5.38,0,0,1,1.37-.18,3.36,3.36,0,0,1,1.24.18l2.25,8a13.93,13.93,0,0,1,.51,2.53h.07a24.86,24.86,0,0,1,.64-2.5l2.38-8a2.93,2.93,0,0,1,1.11-.18,2.32,2.32,0,0,1,1.09.18l-3.82,13a5.59,5.59,0,0,1-1.45.18,5.92,5.92,0,0,1-1.47-.18Z"/><path class="cls-1" d="M269.42,27.28c3.67,0,4.83,1.64,4.83,4.91v8.48a2,2,0,0,1-1,.18,2.58,2.58,0,0,1-1-.18l-.38-1.62c-.65,1.34-2.05,2.05-4,2.05-2.38,0-3.92-1.39-3.92-4.23s1.69-4,4.86-4a26.2,26.2,0,0,1,2.88.15v-.94c0-1.72-.66-2.71-2.61-2.71a10.44,10.44,0,0,0-3.39.64,2.11,2.11,0,0,1-.58-.76,2.17,2.17,0,0,1-.15-1.07A11.06,11.06,0,0,1,269.42,27.28Zm-.25,7.34c-1.7,0-2.59.66-2.59,2.25s.84,2.28,2.21,2.28c2,0,2.93-1.7,2.93-3.49v-.89C271.14,34.72,270.13,34.62,269.17,34.62Z"/><path class="cls-1" d="M288.08,27.28c3.49,0,5.62,1.9,5.62,6.91s-2.15,6.91-5.62,6.91-5.62-1.9-5.62-6.91S284.61,27.28,288.08,27.28Zm0,1.95c-1.85,0-3,1.06-3,5s1.19,5,3,5,3-1.06,3-5S289.93,29.23,288.08,29.23Z"/><path class="cls-1" d="M302.74,27.28c2.88,0,4.76,1.74,4.76,6.91s-1.88,6.91-4.76,6.91a4.05,4.05,0,0,1-3.65-1.65v7.09a4.31,4.31,0,0,1-1.29.15,4,4,0,0,1-1.24-.15V27.71a3.36,3.36,0,0,1,1.24-.18,3.65,3.65,0,0,1,1.29.18v1.21A4,4,0,0,1,302.74,27.28Zm-.89,2.07c-1.77,0-2.76,1.47-2.76,3.19v3.24c0,1.75,1,3.24,2.76,3.24,2,0,3-1.06,3-4.83S303.88,29.35,301.85,29.35Z"/><path class="cls-1" d="M313,25a3.85,3.85,0,0,1-1.31.18,3.61,3.61,0,0,1-1.32-.18V22.59a3.8,3.8,0,0,1,1.32-.17,4.06,4.06,0,0,1,1.31.17ZM313,40.67a3.56,3.56,0,0,1-1.26.18,3.27,3.27,0,0,1-1.27-.18v-13a3.27,3.27,0,0,1,1.27-.18,3.56,3.56,0,0,1,1.26.18Z"/><path class="cls-1" d="M318.51,35c.2,3,1.42,4,3.52,4a6.11,6.11,0,0,0,3-.74,2.67,2.67,0,0,1,.81,1.83,7.51,7.51,0,0,1-4.2,1.06c-3.9,0-5.73-2.41-5.73-7,0-4.78,2.26-6.83,5.62-6.83,3.12,0,5,1.72,5,5.09a10.69,10.69,0,0,1-.28,2.6Zm3-5.69c-1.64,0-2.81,1.09-3,3.9h5.42A9.84,9.84,0,0,0,324,32C324,30.54,323.4,29.28,321.52,29.28Z"/><path class="cls-1" d="M336.66,27.71a4.27,4.27,0,0,1,1.3-.18,5.13,5.13,0,0,1,1.24.15l-3.9,6,4.48,6.94a4.61,4.61,0,0,1-1.42.2,4.09,4.09,0,0,1-1.37-.2l-3.79-5.82h-1.42v5.82a4.09,4.09,0,0,1-1.24.18,4,4,0,0,1-1.29-.18V22a5.63,5.63,0,0,1,1.29-.13,6.12,6.12,0,0,1,1.24.13V33h1.44Z"/><path class="cls-1" d="M346.29,27.28c3.67,0,4.83,1.64,4.83,4.91v8.48a2,2,0,0,1-1,.18,2.55,2.55,0,0,1-1-.18l-.38-1.62c-.66,1.34-2.05,2.05-4,2.05-2.38,0-3.93-1.39-3.93-4.23s1.7-4,4.86-4a26.26,26.26,0,0,1,2.89.15v-.94c0-1.72-.66-2.71-2.61-2.71a10.44,10.44,0,0,0-3.39.64,2.11,2.11,0,0,1-.58-.76,2.17,2.17,0,0,1-.15-1.07A11.06,11.06,0,0,1,346.29,27.28ZM346,34.62c-1.69,0-2.58.66-2.58,2.25s.84,2.28,2.2,2.28c2,0,2.94-1.7,2.94-3.49v-.89C348,34.72,347,34.62,346,34.62Z"/><path class="cls-1" d="M366.09,27.28c2.88,0,4.76,1.74,4.76,6.91S369,41.1,366.09,41.1a4.05,4.05,0,0,1-3.65-1.65v7.09a4.31,4.31,0,0,1-1.29.15,3.89,3.89,0,0,1-1.24-.15V27.71a3.3,3.3,0,0,1,1.24-.18,3.65,3.65,0,0,1,1.29.18v1.21A4,4,0,0,1,366.09,27.28Zm-.89,2.07c-1.77,0-2.76,1.47-2.76,3.19v3.24c0,1.75,1,3.24,2.76,3.24,2,0,3-1.06,3-4.83S367.23,29.35,365.2,29.35Z"/><path class="cls-1" d="M378.8,27.28c3.49,0,5.62,1.9,5.62,6.91s-2.16,6.91-5.62,6.91-5.62-1.9-5.62-6.91S375.33,27.28,378.8,27.28Zm0,1.95c-1.85,0-3,1.06-3,5s1.19,5,3,5,3-1.06,3-5S380.64,29.23,378.8,29.23Z"/><path class="cls-1" d="M395.94,38.77a2.88,2.88,0,0,1,.15,1,3.31,3.31,0,0,1-.15,1h-9.39a4.39,4.39,0,0,1-.16-1.09,3.19,3.19,0,0,1,.16-1l6.73-9.16H387a3.56,3.56,0,0,1-.15-1.07,2.79,2.79,0,0,1,.15-1h9a2.64,2.64,0,0,1,.15,1,3.5,3.5,0,0,1-.15,1.09l-6.71,9.16Z"/><path class="cls-1" d="M403.46,27.28c3.67,0,4.83,1.64,4.83,4.91v8.48a2,2,0,0,1-1,.18,2.55,2.55,0,0,1-1-.18l-.38-1.62c-.65,1.34-2.05,2.05-4,2.05-2.38,0-3.93-1.39-3.93-4.23s1.7-4,4.87-4a26.2,26.2,0,0,1,2.88.15v-.94c0-1.72-.66-2.71-2.61-2.71a10.44,10.44,0,0,0-3.39.64,2.11,2.11,0,0,1-.58-.76,2.17,2.17,0,0,1-.15-1.07A11.06,11.06,0,0,1,403.46,27.28Zm-.26,7.34c-1.69,0-2.58.66-2.58,2.25s.84,2.28,2.2,2.28c2,0,2.94-1.7,2.94-3.49v-.89C405.18,34.72,404.17,34.62,403.2,34.62Z"/><path class="cls-1" d="M414.17,28.92a4,4,0,0,1,3.64-1.64c2.89,0,4.76,1.74,4.76,6.91s-1.87,6.91-4.76,6.91a4,4,0,0,1-3.64-1.65v1.22a3.65,3.65,0,0,1-1.29.18,3.3,3.3,0,0,1-1.24-.18V22a3.3,3.3,0,0,1,1.24-.18,3.65,3.65,0,0,1,1.29.18Zm2.76.43c-1.78,0-2.76,1.47-2.76,3.19v3.24c0,1.75,1,3.24,2.76,3.24,2,0,3-1.06,3-4.83S419,29.35,416.93,29.35Z"/><path class="cls-1" d="M428.09,25a3.85,3.85,0,0,1-1.31.18,3.61,3.61,0,0,1-1.32-.18V22.59a3.8,3.8,0,0,1,1.32-.17,4.06,4.06,0,0,1,1.31.17Zm0,15.7a3.56,3.56,0,0,1-1.26.18,3.27,3.27,0,0,1-1.27-.18v-13a3.27,3.27,0,0,1,1.27-.18,3.56,3.56,0,0,1,1.26.18Z"/><path class="cls-1" d="M433.56,35c.2,3,1.42,4,3.52,4a6.11,6.11,0,0,0,3-.74,2.67,2.67,0,0,1,.81,1.83,7.47,7.47,0,0,1-4.2,1.06c-3.9,0-5.72-2.41-5.72-7,0-4.78,2.25-6.83,5.62-6.83,3.11,0,5,1.72,5,5.09a10.69,10.69,0,0,1-.28,2.6Zm3-5.69c-1.65,0-2.82,1.09-3,3.9H439a8,8,0,0,0,.08-1.14C439.06,30.54,438.45,29.28,436.58,29.28Z"/><path class="cls-1" d="M455.11,27.28a3,3,0,0,1,0,2l-2.1-.1a4.59,4.59,0,0,1,.71,2.65c0,2.84-1.7,4.56-5,4.56a6.36,6.36,0,0,1-1.11-.08,2.24,2.24,0,0,0-.48,1.47c.28,2.33,7.92-.15,7.92,5.07,0,2.48-2.4,4.32-6.5,4.32-3.8,0-5.4-1.49-5.4-3.51a4.29,4.29,0,0,1,2.26-3.5,2,2,0,0,1-.56-1.47,4.54,4.54,0,0,1,1.22-2.81,4.11,4.11,0,0,1-2.31-4.05c0-2.83,1.72-4.55,5-4.55a6.07,6.07,0,0,1,2.81.58ZM446.8,40.85a3,3,0,0,0-1.16,2.3c0,1.27.94,2.23,3,2.23,2.61,0,4-.94,4-2.28C452.68,41,449.08,41.55,446.8,40.85Zm1.95-11.8c-1.52,0-2.55.89-2.55,2.78s1,2.76,2.55,2.76,2.54-.86,2.54-2.76S450.27,29.05,448.75,29.05Z"/><path class="cls-1" d="M462.53,27.28c3.49,0,5.62,1.9,5.62,6.91S466,41.1,462.53,41.1s-5.62-1.9-5.62-6.91S459.06,27.28,462.53,27.28Zm0,1.95c-1.85,0-3,1.06-3,5s1.19,5,3,5,3-1.06,3-5S464.38,29.23,462.53,29.23Z"/><path class="cls-1" d="M480,33.81a17.52,17.52,0,0,1-.68-3.65h-.1a16,16,0,0,1-.71,3.65l-2,6.86a5.15,5.15,0,0,1-1.44.18,5.53,5.53,0,0,1-1.47-.18l-3.82-13a3.7,3.7,0,0,1,1.26-.18,2,2,0,0,1,1.09.18l2.4,8.07a16.65,16.65,0,0,1,.54,2.48h.07a21.13,21.13,0,0,1,.56-2.48l2.33-8.07a5.35,5.35,0,0,1,1.36-.18,3.39,3.39,0,0,1,1.25.18l2.25,8a13.69,13.69,0,0,1,.5,2.53h.08a24.1,24.1,0,0,1,.63-2.5l2.38-8a3,3,0,0,1,1.12-.18,2.37,2.37,0,0,1,1.09.18l-3.83,13a5.46,5.46,0,0,1-1.44.18,5.86,5.86,0,0,1-1.47-.18Z"/><path class="cls-1" d="M495.54,27.28c3.67,0,4.84,1.64,4.84,4.91v8.48a2,2,0,0,1-1,.18,2.55,2.55,0,0,1-1-.18L498,39.05c-.66,1.34-2.05,2.05-4,2.05-2.38,0-3.92-1.39-3.92-4.23s1.7-4,4.86-4a26.26,26.26,0,0,1,2.89.15v-.94c0-1.72-.66-2.71-2.61-2.71a10.44,10.44,0,0,0-3.39.64,2.07,2.07,0,0,1-.59-.76,2.31,2.31,0,0,1-.15-1.07A11.06,11.06,0,0,1,495.54,27.28Zm-.25,7.34c-1.7,0-2.58.66-2.58,2.25s.83,2.28,2.2,2.28c2,0,2.94-1.7,2.94-3.49v-.89C497.26,34.72,496.25,34.62,495.29,34.62Z"/><polyline class="cls-2" points="96.05 8.1 110.64 29.71 96.05 51.4"/></svg>