<svg id="Warstwa_1" data-name="Warstwa 1" xmlns="http://www.w3.org/2000/svg" viewBox="0 0 300.24 60"><defs><style>.cls-1{fill:#005ca5;}.cls-2{fill:none;stroke:#cbd413;stroke-miterlimit:10;stroke-width:1.85px;}</style></defs><title>miejscowa_antyseptyka</title><path class="cls-1" d="M41.06,38.1V20.23a8.33,8.33,0,0,1,1.62-.18,7.13,7.13,0,0,1,1.57.18l3.67,6.89a18,18,0,0,1,1.46,3.57h.13a10.76,10.76,0,0,1,.86-2.23l4.1-8.23a8.08,8.08,0,0,1,1.65-.18,9,9,0,0,1,1.72.18V38.1a3.8,3.8,0,0,1-1.27.18,3.86,3.86,0,0,1-1.29-.18V29.22c0-2.46.08-5,.21-6.08h-.11a36,36,0,0,1-1.87,4.48l-3.26,6.26a2.94,2.94,0,0,1-.92.12,2.3,2.3,0,0,1-.83-.12L45.21,27.7a28.86,28.86,0,0,1-2-4.56h-.1A44.88,44.88,0,0,1,43.44,29V38.1a3.22,3.22,0,0,1-1.19.18A3.49,3.49,0,0,1,41.06,38.1Z"/><path class="cls-1" d="M61.57,22.18V19.9a4.5,4.5,0,0,1,1.34-.15,5,5,0,0,1,1.36.15v2.28a5,5,0,0,1-1.36.15A4.5,4.5,0,0,1,61.57,22.18Zm.07,16v-13a3.85,3.85,0,0,1,1.27-.15,4.2,4.2,0,0,1,1.26.15v13a4.2,4.2,0,0,1-1.26.15A4.08,4.08,0,0,1,61.64,38.13Z"/><path class="cls-1" d="M77.29,32.38H69.67c.2,3,1.36,4,3.52,4a5.85,5.85,0,0,0,3-.76,2.61,2.61,0,0,1,.83,1.8,7.31,7.31,0,0,1-4.25,1.11c-3.8,0-5.67-2.32-5.67-7s2.23-6.88,5.59-6.88c3.17,0,4.91,1.77,4.91,5A11.85,11.85,0,0,1,77.29,32.38Zm-7.65-1.72h5.5a8.3,8.3,0,0,0,.07-1.21c0-1.55-.68-2.81-2.53-2.81C71,26.64,69.84,27.78,69.64,30.66Z"/><path class="cls-1" d="M77.31,44.33a1.72,1.72,0,0,1-.1-.58,2.51,2.51,0,0,1,.28-1.29,4.72,4.72,0,0,0,1,.1c1.24,0,1.9-.63,1.9-2.18V25.09a3.85,3.85,0,0,1,1.27-.15,4.37,4.37,0,0,1,1.26.15V40.51c0,2.71-1.31,4.1-3.74,4.1A5,5,0,0,1,77.31,44.33Zm2.94-22.15v-2.3a4.87,4.87,0,0,1,1.37-.15,4.55,4.55,0,0,1,1.31.15v2.3a4.55,4.55,0,0,1-1.31.15A4.87,4.87,0,0,1,80.25,22.18Z"/><path class="cls-1" d="M85.57,37.62a2.22,2.22,0,0,1,.66-1.79,10.66,10.66,0,0,0,3.46.6c1.67,0,2.64-.58,2.64-1.87s-1.47-1.7-3-2.15c-1.72-.51-3.57-1.29-3.57-3.75s1.54-4,4.76-4a8.33,8.33,0,0,1,3.64.68,2.28,2.28,0,0,1-.63,1.77,9.27,9.27,0,0,0-2.73-.43c-1.77,0-2.63.66-2.63,1.85s1.56,1.57,3.13,2.08,3.5,1.31,3.5,3.84-1.57,4.05-4.91,4.05A10.21,10.21,0,0,1,85.57,37.62Z"/><path class="cls-1" d="M96.86,31.62c0-4.55,1.92-6.93,5.62-6.93a6.86,6.86,0,0,1,3.39.66,2.55,2.55,0,0,1-.76,1.82,5.3,5.3,0,0,0-2.17-.41c-2.43,0-3.45,1.55-3.45,4.86s1.09,4.76,3.55,4.76a5.87,5.87,0,0,0,2.33-.45,2.52,2.52,0,0,1,.75,1.79,6.81,6.81,0,0,1-3.64.81C98.78,38.53,96.86,36.18,96.86,31.62Z"/><path class="cls-1" d="M107.62,31.6c0-5,2.18-6.91,5.67-6.91s5.65,1.9,5.65,6.91-2.16,6.93-5.65,6.93S107.62,36.63,107.62,31.6Zm8.71,0c0-3.88-1.17-5-3-5s-3,1.08-3,5,1.17,5,3,5S116.33,35.47,116.33,31.6Z"/><path class="cls-1" d="M124.18,38.13l-3.82-13a4.37,4.37,0,0,1,1.26-.15,2.69,2.69,0,0,1,1.12.15l2.38,7.85a15.27,15.27,0,0,1,.53,2.76h.07a18.62,18.62,0,0,1,.59-2.76l2.32-7.85a6.31,6.31,0,0,1,1.35-.15,4.2,4.2,0,0,1,1.26.15l2.28,7.8a15.92,15.92,0,0,1,.53,2.81h.08a22,22,0,0,1,.6-2.79l2.36-7.82a3.55,3.55,0,0,1,1.14-.15,3.1,3.1,0,0,1,1.11.15l-3.82,13a8.28,8.28,0,0,1-1.44.15,8,8,0,0,1-1.42-.15l-2-6.81a16.4,16.4,0,0,1-.71-3.82h-.07a16.47,16.47,0,0,1-.76,3.82l-2,6.81a7.81,7.81,0,0,1-1.41.15A8.44,8.44,0,0,1,124.18,38.13Z"/><path class="cls-1" d="M150.86,29.65v8.48a2.85,2.85,0,0,1-1,.15,3.08,3.08,0,0,1-1-.15l-.36-1.7c-.63,1.37-2.05,2.1-4,2.1-2.4,0-3.92-1.41-3.92-4.17s1.65-4,4.89-4a29.24,29.24,0,0,1,2.93.15v-1c0-1.8-.78-2.69-2.68-2.69a10.64,10.64,0,0,0-3.39.61,1.67,1.67,0,0,1-.56-.76,2.33,2.33,0,0,1-.18-1.06,11.68,11.68,0,0,1,4.48-.91C149.7,24.69,150.86,26.36,150.86,29.65Zm-2.53,3.49v-.93c-.58-.06-1.62-.16-2.58-.16-1.77,0-2.66.66-2.66,2.33s.84,2.31,2.2,2.31C147.24,36.69,148.33,35.09,148.33,33.14Z"/><path class="cls-1" d="M169.09,29.65v8.48a2.88,2.88,0,0,1-1,.15,3.05,3.05,0,0,1-1-.15l-.36-1.7c-.63,1.37-2,2.1-4,2.1-2.4,0-3.92-1.41-3.92-4.17s1.64-4,4.88-4a29.29,29.29,0,0,1,2.94.15v-1c0-1.8-.78-2.69-2.68-2.69a10.64,10.64,0,0,0-3.39.61,1.67,1.67,0,0,1-.56-.76,2.33,2.33,0,0,1-.18-1.06,11.68,11.68,0,0,1,4.48-.91C167.93,24.69,169.09,26.36,169.09,29.65Zm-2.53,3.49v-.93c-.58-.06-1.62-.16-2.58-.16-1.77,0-2.66.66-2.66,2.33s.84,2.31,2.2,2.31C165.47,36.69,166.56,35.09,166.56,33.14Z"/><path class="cls-1" d="M172.36,38.13v-13a4.08,4.08,0,0,1,1.27-.15,4.2,4.2,0,0,1,1.26.15v1.32a5.09,5.09,0,0,1,3.93-1.72,3.53,3.53,0,0,1,3.89,3.79v9.65a4.37,4.37,0,0,1-1.26.15,4.08,4.08,0,0,1-1.27-.15V29c0-1.47-.76-2.25-2.35-2.25a3.57,3.57,0,0,0-2.94,1.74v9.65a4.2,4.2,0,0,1-1.26.15A4.08,4.08,0,0,1,172.36,38.13Z"/><path class="cls-1" d="M193.2,37.42a2.64,2.64,0,0,1-.13.89,7.81,7.81,0,0,1-1.95.22c-3.14,0-4.28-1.64-4.28-4.86V26.84h-1.92a2.66,2.66,0,0,1-.15-.94,2.34,2.34,0,0,1,.15-1h1.92V22.51a4.25,4.25,0,0,1,2.53-.48v2.91h3.32a2.8,2.8,0,0,1,.13.94,3.25,3.25,0,0,1-.13,1h-3.32v6.73c0,2.2.69,2.94,2.46,2.94a7.83,7.83,0,0,0,1.16-.1A2.25,2.25,0,0,1,193.2,37.42Z"/><path class="cls-1" d="M206.39,25.09l-5,15.29c-.87,2.68-1.83,4.23-4.46,4.23a5.48,5.48,0,0,1-1.67-.23,2.43,2.43,0,0,1-.18-1,2.2,2.2,0,0,1,.23-1,5.29,5.29,0,0,0,1.16.13c1.22,0,1.85-.41,2.59-2.61l.55-1.67a2.07,2.07,0,0,1-.78-.18l-4.84-13a4.68,4.68,0,0,1,1.32-.15,4.43,4.43,0,0,1,1.32.15l2.93,7.75a23.17,23.17,0,0,1,.89,3h.07s.26-1.25.81-3l2.59-7.75a3.89,3.89,0,0,1,1.24-.15A4.38,4.38,0,0,1,206.39,25.09Z"/><path class="cls-1" d="M207.53,37.62a2.22,2.22,0,0,1,.66-1.79,10.72,10.72,0,0,0,3.47.6c1.67,0,2.63-.58,2.63-1.87s-1.47-1.7-3-2.15c-1.72-.51-3.57-1.29-3.57-3.75s1.55-4,4.76-4a8.42,8.42,0,0,1,3.65.68,2.33,2.33,0,0,1-.64,1.77,9.27,9.27,0,0,0-2.73-.43c-1.77,0-2.63.66-2.63,1.85s1.57,1.57,3.14,2.08,3.49,1.31,3.49,3.84-1.57,4.05-4.91,4.05A10.21,10.21,0,0,1,207.53,37.62Z"/><path class="cls-1" d="M229.05,32.38h-7.62c.2,3,1.36,4,3.52,4a5.85,5.85,0,0,0,3-.76,2.61,2.61,0,0,1,.83,1.8,7.31,7.31,0,0,1-4.25,1.11c-3.8,0-5.67-2.32-5.67-7s2.23-6.88,5.6-6.88c3.16,0,4.91,1.77,4.91,5A11.45,11.45,0,0,1,229.05,32.38Zm-7.65-1.72h5.5a8.3,8.3,0,0,0,.07-1.21c0-1.55-.68-2.81-2.53-2.81C222.77,26.64,221.61,27.78,221.4,30.66Z"/><path class="cls-1" d="M243.07,31.6c0,5.19-1.89,6.93-4.81,6.93a4.06,4.06,0,0,1-3.69-1.74v7.26a5.41,5.41,0,0,1-2.53,0v-19a5.41,5.41,0,0,1,2.53,0v1.32a4,4,0,0,1,3.69-1.72C241.15,24.69,243.07,26.41,243.07,31.6Zm-2.65,0c0-3.72-1-4.86-3-4.86-1.77,0-2.79,1.49-2.81,3.19v3.26c0,1.67,1,3.29,2.81,3.29C239.46,36.48,240.42,35.37,240.42,31.6Z"/><path class="cls-1" d="M253.05,37.42a2.64,2.64,0,0,1-.13.89,7.72,7.72,0,0,1-1.94.22c-3.14,0-4.28-1.64-4.28-4.86V26.84h-1.93a2.66,2.66,0,0,1-.15-.94,2.34,2.34,0,0,1,.15-1h1.93V22.51a4.23,4.23,0,0,1,2.53-.48v2.91h3.31a2.8,2.8,0,0,1,.13.94,3.25,3.25,0,0,1-.13,1h-3.31v6.73c0,2.2.68,2.94,2.45,2.94a7.87,7.87,0,0,0,1.17-.1A2.34,2.34,0,0,1,253.05,37.42Z"/><path class="cls-1" d="M266.22,25.09l-5,15.29c-.86,2.68-1.82,4.23-4.45,4.23a5.43,5.43,0,0,1-1.67-.23,2.43,2.43,0,0,1-.18-1,2.2,2.2,0,0,1,.23-1,5.29,5.29,0,0,0,1.16.13c1.22,0,1.85-.41,2.59-2.61l.55-1.67a2.07,2.07,0,0,1-.78-.18l-4.84-13a4.68,4.68,0,0,1,1.32-.15,4.39,4.39,0,0,1,1.31.15l2.94,7.75a23.17,23.17,0,0,1,.89,3h.07s.26-1.25.81-3l2.59-7.75a3.89,3.89,0,0,1,1.24-.15A4.38,4.38,0,0,1,266.22,25.09Z"/><path class="cls-1" d="M279,38.1a5.08,5.08,0,0,1-1.42.18,4.73,4.73,0,0,1-1.39-.18l-3.77-5.82h-1.6v5.85a4.13,4.13,0,0,1-1.24.15,4.74,4.74,0,0,1-1.29-.15V19.42a5.74,5.74,0,0,1,1.29-.13,5.53,5.53,0,0,1,1.24.13V30.36h1.65l3.36-5.27a4.68,4.68,0,0,1,1.32-.15,4.94,4.94,0,0,1,1.27.15l-3.83,6.05Z"/><path class="cls-1" d="M290.45,29.65v8.48a3,3,0,0,1-1,.15,3.08,3.08,0,0,1-1-.15l-.35-1.7c-.64,1.37-2,2.1-4,2.1-2.41,0-3.93-1.41-3.93-4.17s1.65-4,4.89-4a29.29,29.29,0,0,1,2.94.15v-1c0-1.8-.79-2.69-2.69-2.69a10.72,10.72,0,0,0-3.39.61,1.84,1.84,0,0,1-.56-.76,2.41,2.41,0,0,1-.17-1.06,11.68,11.68,0,0,1,4.48-.91C289.28,24.69,290.45,26.36,290.45,29.65Zm-2.53,3.49v-.93c-.59-.06-1.62-.16-2.59-.16-1.77,0-2.65.66-2.65,2.33s.83,2.31,2.2,2.31C286.83,36.69,287.92,35.09,287.92,33.14Z"/><polyline class="cls-2" points="10.65 6.32 26.45 29.71 10.65 53.19"/></svg>