<svg id="Warstwa_1" data-name="Warstwa 1" xmlns="http://www.w3.org/2000/svg" xmlns:xlink="http://www.w3.org/1999/xlink" viewBox="0 0 407.93 110"><defs><style>.cls-1,.cls-4{fill:none;}.cls-2{clip-path:url(#clip-path);}.cls-3{fill:url(#Gradient_bez_nazwy_2);}.cls-4{stroke:#fff;stroke-miterlimit:10;}.cls-5{fill:#0056a3;}</style><clipPath id="clip-path"><polygon class="cls-1" points="92.09 72.6 313.2 72.6 313.2 36.48 92.09 36.48 92.09 47.53 96.9 54.96 92.09 62.24 92.09 72.6"/></clipPath><linearGradient id="Gradient_bez_nazwy_2" x1="-535.16" y1="353.73" x2="-534.56" y2="353.73" gradientTransform="matrix(372.44, 0, 0, -372.44, 199403.45, 131795.13)" gradientUnits="userSpaceOnUse"><stop offset="0" stop-color="#ccd513"/><stop offset="0.01" stop-color="#ccd513"/><stop offset="0.01" stop-color="#ccd513"/><stop offset="0.39" stop-color="#ccd515"/><stop offset="0.52" stop-color="#ced71c"/><stop offset="0.62" stop-color="#d0d927"/><stop offset="0.69" stop-color="#d4dc38"/><stop offset="0.76" stop-color="#d9e04e"/><stop offset="0.82" stop-color="#dfe46a"/><stop offset="0.87" stop-color="#e6ea8a"/><stop offset="0.92" stop-color="#eef1b0"/><stop offset="0.97" stop-color="#f7f8d9"/><stop offset="1" stop-color="#fff"/></linearGradient></defs><title>miejscowo_dzialajacy</title><g class="cls-2"><rect class="cls-3" x="92.09" y="36.37" width="221.11" height="36.13"/></g><polyline class="cls-4" points="93.48 36.49 93.48 47.17 93.48 47.07 98.55 54.83 93.48 62.62 93.48 72.71"/><path class="cls-5" d="M107.51,44.39a1.67,1.67,0,0,1,.43,0v4.61a.87.87,0,0,1-.33.05,1,1,0,0,1-.33-.05V47c0-.64,0-1.35,0-1.74h0a11.2,11.2,0,0,1-.58,1.31L105.94,48a.62.62,0,0,1-.2,0,.44.44,0,0,1-.18,0l-.75-1.41a11,11,0,0,1-.6-1.34h0a12.28,12.28,0,0,1,.06,1.64v2.19a.75.75,0,0,1-.31.05.85.85,0,0,1-.3-.05V44.44a1.47,1.47,0,0,1,.4,0,1.89,1.89,0,0,1,.4,0l.86,1.63a7.64,7.64,0,0,1,.45,1h0c0-.13.12-.33.24-.58.37-.68.72-1.37,1.07-2.06A1.86,1.86,0,0,1,107.51,44.39Z"/><path class="cls-5" d="M109.57,45a.87.87,0,0,1-.33,0,.84.84,0,0,1-.34,0v-.61a.84.84,0,0,1,.34,0,.87.87,0,0,1,.33,0Zm0,4a.84.84,0,0,1-.32.05.81.81,0,0,1-.33-.05V45.71a.81.81,0,0,1,.33-.05.84.84,0,0,1,.32.05Z"/><path class="cls-5" d="M111,47.58c.05.78.36,1,.91,1a1.59,1.59,0,0,0,.77-.19.71.71,0,0,1,.21.47,2,2,0,0,1-1.09.27c-1,0-1.47-.62-1.47-1.8s.58-1.76,1.45-1.76A1.18,1.18,0,0,1,113,46.91a2.83,2.83,0,0,1-.07.67Zm.78-1.47c-.43,0-.73.28-.78,1h1.4c0-.06,0-.16,0-.3C112.38,46.44,112.22,46.11,111.74,46.11Z"/><path class="cls-5" d="M113.71,45.71a.78.78,0,0,1,.32-.05.87.87,0,0,1,.33.05v4c0,.69-.33,1.06-1,1.06a1.34,1.34,0,0,1-.43-.06.61.61,0,0,1,0-.15.69.69,0,0,1,.06-.33,1.5,1.5,0,0,0,.24,0c.3,0,.45-.15.45-.51Zm.66-.72a.9.9,0,0,1-.34,0,.81.81,0,0,1-.33,0v-.61a.81.81,0,0,1,.33-.05.9.9,0,0,1,.34.05Z"/><path class="cls-5" d="M116.31,45.6a2,2,0,0,1,.93.17.7.7,0,0,1-.17.47,2.38,2.38,0,0,0-.69-.11c-.44,0-.67.16-.67.47s.41.4.83.54.86.34.86,1-.41,1-1.24,1a2.39,2.39,0,0,1-1.09-.23.67.67,0,0,1,.18-.49,2.65,2.65,0,0,0,.88.17c.4,0,.63-.15.63-.47s-.36-.44-.75-.55-.92-.32-.92-1S115.48,45.6,116.31,45.6Z"/><path class="cls-5" d="M118.58,47.38c0,.85.27,1.23.9,1.23a1.74,1.74,0,0,0,.62-.11.62.62,0,0,1,.18.46,1.72,1.72,0,0,1-.94.2c-1,0-1.43-.62-1.43-1.78s.48-1.78,1.43-1.78a1.76,1.76,0,0,1,.88.16.67.67,0,0,1-.19.47,1.58,1.58,0,0,0-.58-.1C118.83,46.13,118.58,46.53,118.58,47.38Z"/><path class="cls-5" d="M122.1,45.6c.9,0,1.45.48,1.45,1.78s-.56,1.78-1.45,1.78-1.45-.49-1.45-1.78S121.21,45.6,122.1,45.6Zm0,.5c-.48,0-.78.27-.78,1.28s.3,1.28.78,1.28.78-.28.78-1.28S122.58,46.1,122.1,46.1Z"/><path class="cls-5" d="M126.53,47.28a4.47,4.47,0,0,1-.17-.94h0a4,4,0,0,1-.18.94l-.52,1.77a1.32,1.32,0,0,1-.37.05,1.46,1.46,0,0,1-.38-.05l-1-3.34a.84.84,0,0,1,.32-.05c.22,0,.28.05.28.05l.62,2.08a3.61,3.61,0,0,1,.14.64h0c0-.14.06-.35.14-.64l.6-2.08a1.34,1.34,0,0,1,.36-.05.84.84,0,0,1,.32.05l.58,2.07a3.62,3.62,0,0,1,.13.65h0a4.84,4.84,0,0,1,.16-.65l.62-2.07a.68.68,0,0,1,.28-.05.53.53,0,0,1,.28.05l-1,3.34a1.5,1.5,0,0,1-.37.05,1.52,1.52,0,0,1-.38-.05Z"/><path class="cls-5" d="M130.57,45.6c.9,0,1.45.48,1.45,1.78s-.56,1.78-1.45,1.78-1.45-.49-1.45-1.78S129.68,45.6,130.57,45.6Zm0,.5c-.48,0-.78.27-.78,1.28s.3,1.28.78,1.28.78-.28.78-1.28S131.05,46.1,130.57,46.1Z"/><path class="cls-5" d="M136.47,44.2a1,1,0,0,1,.32,0v4.81a.73.73,0,0,1-.28.05.9.9,0,0,1-.29-.05l-.05-.35a1.09,1.09,0,0,1-1,.46c-.74,0-1.22-.45-1.22-1.78s.48-1.78,1.22-1.78a1,1,0,0,1,.94.42V44.24A1.1,1.1,0,0,1,136.47,44.2Zm-1.05,1.93c-.52,0-.78.28-.78,1.25s.26,1.25.78,1.25a.75.75,0,0,0,.71-.84V47A.74.74,0,0,0,135.42,46.13Z"/><path class="cls-5" d="M139.88,48.56a.94.94,0,0,1,0,.27,1.13,1.13,0,0,1,0,.27h-2.43a1.19,1.19,0,0,1,0-.29.87.87,0,0,1,0-.25l1.74-2.36h-1.63a1.28,1.28,0,0,1,0-.28.9.9,0,0,1,0-.26h2.32a.88.88,0,0,1,0,.26,1.2,1.2,0,0,1,0,.28l-1.73,2.36Z"/><path class="cls-5" d="M141.28,45a1,1,0,0,1-.34,0,.84.84,0,0,1-.34,0v-.61a.84.84,0,0,1,.34,0,1,1,0,0,1,.34,0Zm0,4a.87.87,0,0,1-.33.05.81.81,0,0,1-.33-.05V45.71a.81.81,0,0,1,.33-.05.87.87,0,0,1,.33.05Z"/><path class="cls-5" d="M143.33,45.6c.95,0,1.25.42,1.25,1.26v2.19a.48.48,0,0,1-.26.05.63.63,0,0,1-.26-.05l-.1-.42a1,1,0,0,1-1,.53,1,1,0,0,1-1-1.09c0-.71.43-1,1.25-1a7,7,0,0,1,.75,0v-.24c0-.44-.17-.7-.68-.7a2.63,2.63,0,0,0-.87.17.47.47,0,0,1-.15-.2.54.54,0,0,1,0-.27A2.85,2.85,0,0,1,143.33,45.6Zm-.06,1.89c-.44,0-.67.17-.67.58s.22.59.57.59a.8.8,0,0,0,.76-.9v-.23C143.78,47.52,143.51,47.49,143.27,47.49Z"/><path class="cls-5" d="M146.05,44.2a1,1,0,0,1,.32,0V46l.46-.26s.06,0,.13.15a.41.41,0,0,1,.07.2l-.66.39v2.53a.84.84,0,0,1-.32.05.81.81,0,0,1-.33-.05V46.9l-.44.24a.44.44,0,0,1-.12-.15.52.52,0,0,1-.08-.2l.64-.37V44.24A1,1,0,0,1,146.05,44.2Z"/><path class="cls-5" d="M148.74,45.6c.95,0,1.25.42,1.25,1.26v2.19a.46.46,0,0,1-.25.05.57.57,0,0,1-.26-.05l-.1-.42a1,1,0,0,1-1,.53,1,1,0,0,1-1-1.09c0-.71.44-1,1.25-1a6.88,6.88,0,0,1,.75,0v-.24c0-.44-.17-.7-.67-.7a2.65,2.65,0,0,0-.88.17.58.58,0,0,1-.15-.2.54.54,0,0,1,0-.27A2.85,2.85,0,0,1,148.74,45.6Zm-.06,1.89c-.44,0-.67.17-.67.58s.22.59.57.59c.52,0,.76-.44.76-.9v-.23C149.19,47.52,148.93,47.49,148.68,47.49Z"/><path class="cls-5" d="M150.84,45.71a.81.81,0,0,1,.33-.05.84.84,0,0,1,.32.05v4c0,.69-.33,1.06-.94,1.06a1.37,1.37,0,0,1-.44-.06.72.72,0,0,1,0-.48,1.35,1.35,0,0,0,.24,0c.29,0,.44-.15.44-.51Zm.67-.72a1,1,0,0,1-.34,0,.84.84,0,0,1-.34,0v-.61a.84.84,0,0,1,.34-.05,1,1,0,0,1,.34.05Z"/><path class="cls-5" d="M153.56,45.6c.94,0,1.25.42,1.25,1.26v2.2c-.42.11-.65.37-.65.63s.09.29.34.29a.63.63,0,0,0,.23,0,.42.42,0,0,1,.1.3,1,1,0,0,1-.44.11c-.43,0-.69-.22-.69-.56a.89.89,0,0,1,.59-.75l-.1-.4a1,1,0,0,1-1,.53,1,1,0,0,1-1-1.09c0-.7.44-1,1.26-1a6.83,6.83,0,0,1,.74,0v-.25c0-.47-.16-.69-.67-.69a2.65,2.65,0,0,0-.88.17.77.77,0,0,1-.15-.2.73.73,0,0,1,0-.27A2.93,2.93,0,0,1,153.56,45.6Zm-.07,1.89c-.44,0-.66.18-.66.58s.21.59.56.59c.52,0,.76-.45.76-.91v-.22C154,47.52,153.74,47.49,153.49,47.49Z"/><path class="cls-5" d="M156.16,47.38c0,.85.28,1.23.9,1.23a1.74,1.74,0,0,0,.62-.11.67.67,0,0,1,.19.46,1.76,1.76,0,0,1-.94.2c-1,0-1.44-.62-1.44-1.78s.48-1.78,1.44-1.78a1.74,1.74,0,0,1,.87.16.67.67,0,0,1-.19.47,1.56,1.56,0,0,0-.57-.1C156.41,46.13,156.16,46.53,156.16,47.38Z"/><path class="cls-5" d="M160,49.6c-.24.72-.47,1.13-1.17,1.13a.87.87,0,0,1-.36-.07.65.65,0,0,1-.05-.24.83.83,0,0,1,.05-.26,1.75,1.75,0,0,0,.3,0c.29,0,.44-.08.64-.7l.14-.39a.8.8,0,0,1-.21-.05l-1.24-3.34a.93.93,0,0,1,.33-.05.9.9,0,0,1,.34.05l.75,2a7,7,0,0,1,.23.77h0s.07-.31.21-.76l.65-2a.78.78,0,0,1,.32-.05.88.88,0,0,1,.31.05Z"/><path class="cls-5" d="M165.29,48.56a.94.94,0,0,1,0,.27,1.13,1.13,0,0,1,0,.27h-2.43a1.19,1.19,0,0,1,0-.29.87.87,0,0,1,0-.25l1.74-2.36H163a1.28,1.28,0,0,1,0-.28.9.9,0,0,1,0-.26h2.32a.88.88,0,0,1,0,.26,1.2,1.2,0,0,1,0,.28l-1.73,2.36ZM164.48,45a1,1,0,0,1-.31,0,.85.85,0,0,1-.31,0v-.56a.85.85,0,0,1,.31,0,1,1,0,0,1,.31,0Z"/><path class="cls-5" d="M166.5,47.58c.05.78.37,1,.91,1a1.59,1.59,0,0,0,.77-.19.67.67,0,0,1,.21.47,2,2,0,0,1-1.09.27c-1,0-1.47-.62-1.47-1.8s.58-1.76,1.45-1.76a1.18,1.18,0,0,1,1.29,1.31,2.83,2.83,0,0,1-.07.67Zm.78-1.47c-.43,0-.73.28-.78,1h1.4a1.9,1.9,0,0,0,0-.3C167.92,46.44,167.76,46.11,167.28,46.11Z"/><path class="cls-5" d="M169.91,49.05a.87.87,0,0,1-.33.05.78.78,0,0,1-.32-.05V44.24a1,1,0,0,1,.32,0,1.06,1.06,0,0,1,.33,0Z"/><path class="cls-5" d="M173.36,45.6c.95,0,1.25.42,1.25,1.26v2.19a.53.53,0,0,1-.26.05.63.63,0,0,1-.26-.05l-.1-.42a1,1,0,0,1-1,.53,1,1,0,0,1-1-1.09c0-.71.44-1,1.26-1a6.83,6.83,0,0,1,.74,0v-.24c0-.44-.17-.7-.67-.7a2.56,2.56,0,0,0-.87.17.54.54,0,0,1-.16-.2.61.61,0,0,1,0-.27A2.85,2.85,0,0,1,173.36,45.6Zm-.07,1.89c-.43,0-.66.17-.66.58s.21.59.57.59c.51,0,.75-.44.75-.9v-.23C173.8,47.52,173.54,47.49,173.29,47.49Z"/><path class="cls-5" d="M178.09,49.05a1.11,1.11,0,0,1-.66,0V46.7a.52.52,0,0,0-.6-.58.9.9,0,0,0-.74.42v2.51a.93.93,0,0,1-.33.05.81.81,0,0,1-.33-.05V45.71a.81.81,0,0,1,.33-.05.93.93,0,0,1,.33.05V46a1.24,1.24,0,0,1,1-.41.92.92,0,0,1,1,1Z"/><path class="cls-5" d="M179.8,47.86c0,.6.19.77.66.77l.27,0a.69.69,0,0,1,.05.26.56.56,0,0,1,0,.23,1.92,1.92,0,0,1-.47.06c-.8,0-1.12-.44-1.12-1.27V46.15h-.5a.64.64,0,0,1,0-.24.67.67,0,0,1,0-.25h.5v-.59a1.06,1.06,0,0,1,.65-.13v.72h.85a.64.64,0,0,1,0,.24.73.73,0,0,1,0,.25h-.85Z"/><path class="cls-5" d="M182.86,49.6c-.24.72-.46,1.13-1.17,1.13a.93.93,0,0,1-.36-.07.78.78,0,0,1,0-.24.6.6,0,0,1,.05-.26,1.57,1.57,0,0,0,.29,0c.3,0,.45-.08.64-.7l.14-.39a.8.8,0,0,1-.21-.05L181,45.71a1.18,1.18,0,0,1,.68,0l.74,2a5.06,5.06,0,0,1,.23.77h0a6.69,6.69,0,0,1,.21-.76l.64-2a.84.84,0,0,1,.32-.05.88.88,0,0,1,.31.05Z"/><path class="cls-5" d="M185.68,45.6a1.91,1.91,0,0,1,.92.17.7.7,0,0,1-.17.47,2.38,2.38,0,0,0-.69-.11c-.44,0-.67.16-.67.47s.42.4.83.54.87.34.87,1-.42,1-1.24,1a2.42,2.42,0,0,1-1.1-.23.67.67,0,0,1,.18-.49,2.65,2.65,0,0,0,.88.17c.4,0,.63-.15.63-.47s-.36-.44-.75-.55-.92-.32-.92-1S184.85,45.6,185.68,45.6Z"/><path class="cls-5" d="M187.93,47.58c.06.78.37,1,.91,1a1.55,1.55,0,0,0,.77-.19.63.63,0,0,1,.21.47,1.93,1.93,0,0,1-1.08.27c-1,0-1.48-.62-1.48-1.8s.58-1.76,1.45-1.76A1.17,1.17,0,0,1,190,46.91a2.83,2.83,0,0,1-.07.67Zm.78-1.47c-.42,0-.72.28-.78,1h1.4a1.9,1.9,0,0,0,0-.3C189.35,46.44,189.2,46.11,188.71,46.11Z"/><path class="cls-5" d="M192.26,45.6c.75,0,1.23.45,1.23,1.78s-.48,1.78-1.23,1.78a1.07,1.07,0,0,1-.94-.42v1.82a1.06,1.06,0,0,1-.33,0,1,1,0,0,1-.32,0V45.71a.84.84,0,0,1,.32-.05.87.87,0,0,1,.33.05V46A1,1,0,0,1,192.26,45.6Zm-.22.53a.74.74,0,0,0-.72.82v.84a.76.76,0,0,0,.72.84c.52,0,.78-.28.78-1.25S192.56,46.13,192,46.13Z"/><path class="cls-5" d="M195.07,47.86c0,.6.18.77.65.77l.27,0a.69.69,0,0,1,0,.26.72.72,0,0,1,0,.23,2.07,2.07,0,0,1-.47.06c-.81,0-1.13-.44-1.13-1.27V46.15h-.5a.64.64,0,0,1,0-.24.67.67,0,0,1,0-.25h.5v-.59a1.08,1.08,0,0,1,.66-.13v.72h.84a.64.64,0,0,1,0,.24.73.73,0,0,1,0,.25h-.84Z"/><path class="cls-5" d="M198.13,49.6c-.24.72-.47,1.13-1.17,1.13a.87.87,0,0,1-.36-.07.65.65,0,0,1,0-.24.54.54,0,0,1,.06-.26,1.57,1.57,0,0,0,.29,0c.3,0,.44-.08.64-.7l.14-.39a.8.8,0,0,1-.21-.05l-1.24-3.34a1.18,1.18,0,0,1,.68,0l.74,2a5.06,5.06,0,0,1,.23.77h0s.06-.31.2-.76l.65-2a.84.84,0,0,1,.32-.05.88.88,0,0,1,.31.05Z"/><path class="cls-5" d="M200.36,47.38c0,.85.28,1.23.9,1.23a1.74,1.74,0,0,0,.62-.11.67.67,0,0,1,.19.46,1.76,1.76,0,0,1-.94.2c-1,0-1.44-.62-1.44-1.78s.48-1.78,1.44-1.78a1.74,1.74,0,0,1,.87.16.67.67,0,0,1-.19.47,1.56,1.56,0,0,0-.57-.1C200.61,46.13,200.36,46.53,200.36,47.38Z"/><path class="cls-5" d="M204.89,48.56a.72.72,0,0,1,0,.27.87.87,0,0,1,0,.27h-2.42a1.19,1.19,0,0,1,0-.29.87.87,0,0,1,0-.25l1.74-2.36h-1.63a1,1,0,0,1,0-.28.7.7,0,0,1,0-.26h2.31a.62.62,0,0,1,0,.26.82.82,0,0,1,0,.28l-1.73,2.36Z"/><path class="cls-5" d="M208.27,49.05a.87.87,0,0,1-.33.05.78.78,0,0,1-.32-.05V46.7c0-.37-.19-.58-.61-.58a.9.9,0,0,0-.74.42v2.51a.84.84,0,0,1-.32.05.81.81,0,0,1-.33-.05V45.71a.81.81,0,0,1,.33-.05.84.84,0,0,1,.32.05V46a1.27,1.27,0,0,1,1-.41.92.92,0,0,1,1,1Z"/><path class="cls-5" d="M210.62,49.6c-.23.72-.46,1.13-1.17,1.13a.93.93,0,0,1-.36-.07.78.78,0,0,1,0-.24.6.6,0,0,1,0-.26,1.57,1.57,0,0,0,.29,0c.3,0,.45-.08.64-.7l.14-.39a.91.91,0,0,1-.21-.05l-1.24-3.34a1,1,0,0,1,.34-.05,1,1,0,0,1,.34.05l.75,2a5.67,5.67,0,0,1,.22.77h0a6.69,6.69,0,0,1,.21-.76l.65-2a.75.75,0,0,1,.31-.05.88.88,0,0,1,.31.05Z"/><path class="cls-5" d="M215.89,48.56a.72.72,0,0,1,0,.27.87.87,0,0,1,0,.27h-2.42a1.19,1.19,0,0,1,0-.29.87.87,0,0,1,0-.25l1.74-2.36h-1.63a1,1,0,0,1,0-.28.7.7,0,0,1,0-.26h2.31a.62.62,0,0,1,0,.26.82.82,0,0,1,0,.28l-1.73,2.36Z"/><path class="cls-5" d="M217.8,45.6c.95,0,1.25.42,1.25,1.26v2.19a.46.46,0,0,1-.25.05.57.57,0,0,1-.26-.05l-.1-.42a1,1,0,0,1-1,.53,1,1,0,0,1-1-1.09c0-.71.44-1,1.25-1a6.88,6.88,0,0,1,.75,0v-.24c0-.44-.17-.7-.67-.7a2.65,2.65,0,0,0-.88.17.58.58,0,0,1-.15-.2.54.54,0,0,1,0-.27A2.85,2.85,0,0,1,217.8,45.6Zm-.06,1.89c-.44,0-.67.17-.67.58s.22.59.57.59c.52,0,.76-.44.76-.9v-.23C218.25,47.52,218,47.49,217.74,47.49Z"/><path class="cls-5" d="M222.21,47.28a4.47,4.47,0,0,1-.17-.94h0a4,4,0,0,1-.18.94l-.52,1.77a1.32,1.32,0,0,1-.37.05,1.46,1.46,0,0,1-.38-.05l-1-3.34a.93.93,0,0,1,.33-.05c.22,0,.28.05.28.05l.62,2.08a3.61,3.61,0,0,1,.14.64h0c0-.14.06-.35.14-.64l.6-2.08a1.34,1.34,0,0,1,.36-.05.84.84,0,0,1,.32.05l.58,2.07a3.62,3.62,0,0,1,.13.65h0a4.84,4.84,0,0,1,.16-.65l.62-2.07a.68.68,0,0,1,.28-.05.57.57,0,0,1,.28.05l-1,3.34a1.5,1.5,0,0,1-.37.05,1.52,1.52,0,0,1-.38-.05Z"/><path class="cls-5" d="M225.68,45a1,1,0,0,1-.34,0,.9.9,0,0,1-.34,0v-.61a.9.9,0,0,1,.34,0,1,1,0,0,1,.34,0Zm0,4a.87.87,0,0,1-.33.05.72.72,0,0,1-.32-.05V45.71a.72.72,0,0,1,.32-.05.87.87,0,0,1,.33.05Z"/><path class="cls-5" d="M227.07,47.58c.05.78.36,1,.9,1a1.55,1.55,0,0,0,.77-.19.63.63,0,0,1,.21.47,1.93,1.93,0,0,1-1.08.27c-1,0-1.48-.62-1.48-1.8s.58-1.76,1.45-1.76a1.18,1.18,0,0,1,1.3,1.31,2.5,2.5,0,0,1-.08.67Zm.77-1.47c-.42,0-.72.28-.77,1h1.39a1.9,1.9,0,0,0,0-.3C228.48,46.44,228.33,46.11,227.84,46.11Z"/><path class="cls-5" d="M231.26,45.6a1,1,0,0,1,.57.17.72.72,0,0,1-.29.54.69.69,0,0,0-.41-.13.84.84,0,0,0-.67.49v2.38a.84.84,0,0,1-.32.05.81.81,0,0,1-.33-.05V45.71a.81.81,0,0,1,.33-.05.84.84,0,0,1,.32.05v.45A1,1,0,0,1,231.26,45.6Z"/><path class="cls-5" d="M233.43,45.6c.95,0,1.25.42,1.25,1.26v2.19a.46.46,0,0,1-.25.05.65.65,0,0,1-.27-.05l-.09-.42a1,1,0,0,1-1,.53,1,1,0,0,1-1-1.09c0-.71.44-1,1.25-1a6.88,6.88,0,0,1,.75,0v-.24c0-.44-.17-.7-.68-.7a2.63,2.63,0,0,0-.87.17.47.47,0,0,1-.15-.2.54.54,0,0,1,0-.27A2.85,2.85,0,0,1,233.43,45.6Zm-.06,1.89c-.44,0-.67.17-.67.58s.22.59.57.59a.8.8,0,0,0,.76-.9v-.23C233.88,47.52,233.62,47.49,233.37,47.49Z"/><path class="cls-5" d="M235.52,45.71a.81.81,0,0,1,.33-.05.87.87,0,0,1,.33.05v4c0,.69-.34,1.06-1,1.06a1.37,1.37,0,0,1-.44-.06.72.72,0,0,1,.05-.48,1.35,1.35,0,0,0,.24,0c.29,0,.44-.15.44-.51Zm.67-.72a1,1,0,0,1-.34,0,.84.84,0,0,1-.34,0v-.61a.84.84,0,0,1,.34-.05,1,1,0,0,1,.34.05Z"/><path class="cls-5" d="M238.24,45.6c.95,0,1.25.42,1.25,1.26v2.2c-.42.11-.65.37-.65.63s.09.29.34.29a.63.63,0,0,0,.23,0,.42.42,0,0,1,.1.3,1,1,0,0,1-.44.11c-.43,0-.69-.22-.69-.56A.89.89,0,0,1,239,49l-.1-.4a1,1,0,0,1-1,.53,1,1,0,0,1-1-1.09c0-.7.43-1,1.25-1a6.83,6.83,0,0,1,.74,0v-.25c0-.47-.16-.69-.67-.69a2.56,2.56,0,0,0-.87.17.47.47,0,0,1-.15-.2.54.54,0,0,1,0-.27A2.85,2.85,0,0,1,238.24,45.6Zm-.07,1.89c-.43,0-.66.18-.66.58s.21.59.57.59.75-.45.75-.91v-.22C238.68,47.52,238.42,47.49,238.17,47.49Z"/><path class="cls-5" d="M240.85,47.38c0,.85.27,1.23.9,1.23a1.65,1.65,0,0,0,.61-.11.67.67,0,0,1,.19.46,1.76,1.76,0,0,1-.94.2c-1,0-1.44-.62-1.44-1.78s.49-1.78,1.44-1.78a1.76,1.76,0,0,1,.88.16.71.71,0,0,1-.19.47,1.58,1.58,0,0,0-.58-.1C241.09,46.13,240.85,46.53,240.85,47.38Z"/><path class="cls-5" d="M244.7,49.6c-.24.72-.47,1.13-1.17,1.13a.87.87,0,0,1-.36-.07.65.65,0,0,1,0-.24.54.54,0,0,1,.06-.26,1.57,1.57,0,0,0,.29,0c.29,0,.44-.08.64-.7l.14-.39a.8.8,0,0,1-.21-.05l-1.24-3.34a1.18,1.18,0,0,1,.68,0l.74,2a7,7,0,0,1,.23.77h0s.06-.31.2-.76l.65-2a.84.84,0,0,1,.32-.05.88.88,0,0,1,.31.05Z"/><path class="cls-5" d="M248.26,47.38c0,.85.27,1.23.9,1.23a1.65,1.65,0,0,0,.61-.11A.67.67,0,0,1,250,49a1.76,1.76,0,0,1-.94.2c-1,0-1.44-.62-1.44-1.78s.49-1.78,1.44-1.78a1.76,1.76,0,0,1,.88.16.71.71,0,0,1-.19.47,1.58,1.58,0,0,0-.58-.1C248.5,46.13,248.26,46.53,248.26,47.38Z"/><path class="cls-5" d="M253.21,49.05a.84.84,0,0,1-.32.05.87.87,0,0,1-.33-.05V46.7c0-.37-.19-.58-.61-.58a.9.9,0,0,0-.73.42v2.51a.93.93,0,0,1-.33.05.81.81,0,0,1-.33-.05V44.24a1,1,0,0,1,.33,0,1.14,1.14,0,0,1,.33,0V46a1.24,1.24,0,0,1,1-.41.91.91,0,0,1,1,1Z"/><path class="cls-5" d="M254.72,49.05a.84.84,0,0,1-.32.05.81.81,0,0,1-.33-.05V44.24a1,1,0,0,1,.33,0,1,1,0,0,1,.32,0Z"/><path class="cls-5" d="M256.9,45.6c.91,0,1.45.48,1.45,1.78s-.55,1.78-1.45,1.78-1.45-.49-1.45-1.78S256,45.6,256.9,45.6Zm0,.5c-.47,0-.78.27-.78,1.28s.31,1.28.78,1.28.78-.28.78-1.28S257.38,46.1,256.9,46.1Z"/><path class="cls-5" d="M260.52,45.6a.93.93,0,0,1,.56.17.74.74,0,0,1-.28.54.69.69,0,0,0-.41-.13.84.84,0,0,0-.67.49v2.38a.87.87,0,0,1-.33.05.72.72,0,0,1-.32-.05V45.71a.72.72,0,0,1,.32-.05.87.87,0,0,1,.33.05v.45A1,1,0,0,1,260.52,45.6Z"/><path class="cls-5" d="M264.2,49.05a.87.87,0,0,1-.33.05.78.78,0,0,1-.32-.05V46.7c0-.37-.19-.58-.61-.58a.9.9,0,0,0-.74.42v2.51a.93.93,0,0,1-.33.05.72.72,0,0,1-.32-.05V44.24a.88.88,0,0,1,.32,0,1.14,1.14,0,0,1,.33,0V46a1.26,1.26,0,0,1,1-.41.92.92,0,0,1,1,1Z"/><path class="cls-5" d="M265.56,47.58c.05.78.36,1,.9,1a1.61,1.61,0,0,0,.78-.19.66.66,0,0,1,.2.47,1.93,1.93,0,0,1-1.08.27c-1,0-1.48-.62-1.48-1.8s.59-1.76,1.45-1.76a1.18,1.18,0,0,1,1.3,1.31,2.83,2.83,0,0,1-.07.67Zm.77-1.47c-.42,0-.72.28-.77,1H267a1.9,1.9,0,0,0,0-.3C267,46.44,266.82,46.11,266.33,46.11Z"/><path class="cls-5" d="M270.21,45.71a1,1,0,0,1,.34-.05,1.29,1.29,0,0,1,.32,0l-1,1.56L271,49.05a1.28,1.28,0,0,1-.37.05,1.06,1.06,0,0,1-.35-.05l-1-1.5H269v1.5a1,1,0,0,1-.32.05.93.93,0,0,1-.33-.05V44.23a1.62,1.62,0,0,1,.33,0,1.7,1.7,0,0,1,.32,0v2.83h.37Z"/><path class="cls-5" d="M272.56,45.6a1.91,1.91,0,0,1,.92.17.7.7,0,0,1-.17.47,2.29,2.29,0,0,0-.69-.11c-.44,0-.66.16-.66.47s.41.4.82.54.87.34.87,1-.41,1-1.24,1a2.34,2.34,0,0,1-1.09-.23.71.71,0,0,1,.17-.49,2.73,2.73,0,0,0,.88.17c.4,0,.63-.15.63-.47s-.36-.44-.74-.55-.93-.32-.93-1S271.73,45.6,272.56,45.6Z"/><path class="cls-5" d="M275.79,49.6c-.23.72-.46,1.13-1.17,1.13a.93.93,0,0,1-.36-.07.78.78,0,0,1,0-.24.6.6,0,0,1,0-.26,1.57,1.57,0,0,0,.29,0c.3,0,.45-.08.64-.7l.14-.39a.91.91,0,0,1-.21-.05l-1.24-3.34a1.18,1.18,0,0,1,.68,0l.74,2a5.06,5.06,0,0,1,.23.77h0a6.69,6.69,0,0,1,.21-.76l.64-2a.84.84,0,0,1,.32-.05.88.88,0,0,1,.31.05Z"/><path class="cls-5" d="M279.87,44.2a1,1,0,0,1,.32,0v4.81a.71.71,0,0,1-.27.05.92.92,0,0,1-.3-.05l0-.35a1.09,1.09,0,0,1-1,.46c-.75,0-1.23-.45-1.23-1.78s.48-1.78,1.23-1.78a1,1,0,0,1,.94.42V44.24A1.06,1.06,0,0,1,279.87,44.2Zm-1,1.93c-.53,0-.79.28-.79,1.25s.26,1.25.79,1.25a.75.75,0,0,0,.71-.84V47A.75.75,0,0,0,278.83,46.13Z"/><path class="cls-5" d="M282.6,49.6c-.23.72-.46,1.13-1.17,1.13a.93.93,0,0,1-.36-.07.78.78,0,0,1,0-.24.6.6,0,0,1,.05-.26,1.57,1.57,0,0,0,.29,0c.3,0,.45-.08.64-.7l.14-.39a.91.91,0,0,1-.21-.05l-1.24-3.34a1.18,1.18,0,0,1,.68,0l.74,2a5.06,5.06,0,0,1,.23.77h0a6.69,6.69,0,0,1,.21-.76l.64-2a.84.84,0,0,1,.32-.05.88.88,0,0,1,.31.05Z"/><path class="cls-5" d="M287,49.05a.84.84,0,0,1-.32.05.81.81,0,0,1-.33-.05V46.7c0-.37-.19-.58-.61-.58a.9.9,0,0,0-.74.42v2.51a.84.84,0,0,1-.32.05.81.81,0,0,1-.33-.05V45.71a.81.81,0,0,1,.33-.05.84.84,0,0,1,.32.05V46a1.27,1.27,0,0,1,1-.41.92.92,0,0,1,1,1Z"/><path class="cls-5" d="M289.18,45.6a1.18,1.18,0,0,1,1.3,1.31,2.83,2.83,0,0,1-.07.67h-2c0,.78.36,1,.91,1a1.59,1.59,0,0,0,.77-.19.66.66,0,0,1,.2.47,1.44,1.44,0,0,1-.47.2c-.37.11-.61.35-.61.65s.16.24.35.24a.47.47,0,0,0,.21,0,.32.32,0,0,1,.1.28,1,1,0,0,1-.44.12c-.37,0-.65-.14-.65-.53a.79.79,0,0,1,.33-.64c-.93,0-1.38-.66-1.38-1.8S288.32,45.6,289.18,45.6Zm0,.51c-.42,0-.72.28-.77,1h1.39a1.9,1.9,0,0,0,0-.3C289.82,46.44,289.67,46.11,289.18,46.11Z"/><path class="cls-5" d="M105.75,55.58a1.19,1.19,0,0,1-.1.49,1.11,1.11,0,0,1-.28.41,1.26,1.26,0,0,1-.9.38,1.19,1.19,0,0,1-.49-.1,1.25,1.25,0,0,1-.41-.28,1.42,1.42,0,0,1-.28-.41,1.38,1.38,0,0,1,0-1,1.34,1.34,0,0,1,.69-.69,1.38,1.38,0,0,1,1,0,1.25,1.25,0,0,1,.41.28,1.11,1.11,0,0,1,.28.41A1.19,1.19,0,0,1,105.75,55.58Z"/><path class="cls-5" d="M109.47,57.37a.93.93,0,0,1-.54,0V55.45c0-.3-.15-.47-.49-.47a.74.74,0,0,0-.61.34v2a.7.7,0,0,1-.26,0,.66.66,0,0,1-.27,0V53.44a.66.66,0,0,1,.27,0,.7.7,0,0,1,.26,0v1.44a1,1,0,0,1,.81-.34.76.76,0,0,1,.83.81Z"/><path class="cls-5" d="M111.1,54.54c.78,0,1,.35,1,1v1.79a.34.34,0,0,1-.2,0,.53.53,0,0,1-.22,0l-.08-.34a.86.86,0,0,1-.84.43c-.5,0-.82-.29-.82-.89s.35-.84,1-.84c.24,0,.47,0,.61,0v-.2c0-.36-.14-.57-.55-.57a2.21,2.21,0,0,0-.72.14.56.56,0,0,1-.12-.16.45.45,0,0,1,0-.23A2.28,2.28,0,0,1,111.1,54.54Zm0,1.55c-.36,0-.54.14-.54.48s.17.48.46.48.62-.36.62-.74v-.19C111.47,56.12,111.25,56.09,111.05,56.09Z"/><path class="cls-5" d="M115.65,54.54a.75.75,0,0,1,.79.81v2a.72.72,0,0,1-.27,0,.63.63,0,0,1-.26,0V55.45a.41.41,0,0,0-.47-.47.66.66,0,0,0-.57.34v2a.7.7,0,0,1-.26,0,.66.66,0,0,1-.27,0V55.45a.41.41,0,0,0-.46-.47.72.72,0,0,0-.57.33v2.06a.72.72,0,0,1-.27,0,.63.63,0,0,1-.26,0V54.64a.63.63,0,0,1,.26,0,.72.72,0,0,1,.27,0v.24a1,1,0,0,1,.76-.34.74.74,0,0,1,.7.39A1.09,1.09,0,0,1,115.65,54.54Z"/><path class="cls-5" d="M117.08,54.64a.93.93,0,0,1,.54,0v1.92c0,.3.15.47.49.47a.73.73,0,0,0,.61-.34v-2a.72.72,0,0,1,.27,0,.63.63,0,0,1,.26,0v2.73a.63.63,0,0,1-.26,0,.72.72,0,0,1-.27,0v-.25a1,1,0,0,1-.81.34.76.76,0,0,1-.83-.81Z"/><path class="cls-5" d="M119.94,54.64a.63.63,0,0,1,.26,0,.72.72,0,0,1,.27,0v3.24c0,.56-.27.86-.77.86a1.09,1.09,0,0,1-.36-.05.35.35,0,0,1,0-.12.48.48,0,0,1,.06-.27.86.86,0,0,0,.19,0c.24,0,.37-.13.37-.42Zm.54-.59a.75.75,0,0,1-.28,0,.66.66,0,0,1-.27,0v-.5a.66.66,0,0,1,.27,0,.75.75,0,0,1,.28,0Z"/><path class="cls-5" d="M121.59,56.17c0,.63.3.84.74.84a1.26,1.26,0,0,0,.63-.16.53.53,0,0,1,.17.39,1.59,1.59,0,0,1-.89.22c-.82,0-1.2-.51-1.2-1.47s.47-1.45,1.18-1.45a1,1,0,0,1,1.06,1.08,2.3,2.3,0,0,1-.06.55Zm.63-1.2c-.34,0-.59.23-.63.82h1.14a1.17,1.17,0,0,0,0-.24C122.75,55.23,122.62,55,122.22,55Z"/><path class="cls-5" d="M125.53,56.4c0,.48.15.63.53.63a1.41,1.41,0,0,0,.22,0,.57.57,0,0,1,0,.21.52.52,0,0,1,0,.19,1.35,1.35,0,0,1-.38.05c-.66,0-.92-.36-.92-1V55h-.41a.62.62,0,0,1,0-.2.55.55,0,0,1,0-.2H125v-.49a.94.94,0,0,1,.54-.1v.59h.69a.55.55,0,0,1,0,.2.62.62,0,0,1,0,.2h-.69Z"/><path class="cls-5" d="M128.63,55.92a3.61,3.61,0,0,1-.14-.77h0a3.2,3.2,0,0,1-.15.77l-.42,1.45a.87.87,0,0,1-.3,0,1,1,0,0,1-.31,0l-.81-2.73a.79.79,0,0,1,.27,0,.41.41,0,0,1,.23,0l.51,1.7a3.79,3.79,0,0,1,.11.52h0c0-.11.05-.29.12-.52l.49-1.7a1.1,1.1,0,0,1,.29,0,.63.63,0,0,1,.26,0l.48,1.69a4.18,4.18,0,0,1,.11.53h0c0-.11.06-.28.13-.53l.51-1.69a.56.56,0,0,1,.23,0,.45.45,0,0,1,.23,0l-.8,2.73a1.22,1.22,0,0,1-.62,0Z"/><path class="cls-5" d="M131.91,54.54c.73,0,1.18.41,1.18,1.46s-.45,1.46-1.18,1.46-1.19-.4-1.19-1.46S131.17,54.54,131.91,54.54Zm0,.42c-.39,0-.65.22-.65,1s.26,1,.65,1,.63-.22.63-1S132.3,55,131.91,55Z"/><path class="cls-5" d="M134.83,54.55a.84.84,0,0,1,.46.13.59.59,0,0,1-.23.45.57.57,0,0,0-.33-.11.69.69,0,0,0-.55.41v1.94a.72.72,0,0,1-.27,0,.66.66,0,0,1-.27,0V54.64a.66.66,0,0,1,.27,0,.72.72,0,0,1,.27,0V55A.77.77,0,0,1,134.83,54.55Z"/><path class="cls-5" d="M137.47,57a.61.61,0,0,1,0,.22.76.76,0,0,1,0,.22h-2a.85.85,0,0,1,0-.23.58.58,0,0,1,0-.21L136.91,55h-1.33a.8.8,0,0,1,0-.23.58.58,0,0,1,0-.21h1.89a.58.58,0,0,1,0,.21.8.8,0,0,1,0,.23L136.06,57Z"/><path class="cls-5" d="M138.44,56.17c0,.63.3.84.74.84a1.26,1.26,0,0,0,.63-.16.53.53,0,0,1,.17.39,1.57,1.57,0,0,1-.88.22c-.83,0-1.21-.51-1.21-1.47s.47-1.45,1.19-1.45a1,1,0,0,1,1,1.08,2.3,2.3,0,0,1-.06.55Zm.64-1.2c-.35,0-.6.23-.64.82h1.14a1.17,1.17,0,0,0,0-.24C139.6,55.23,139.47,55,139.08,55Z"/><path class="cls-5" d="M142.83,57.37a.93.93,0,0,1-.54,0V55.45c0-.3-.15-.47-.49-.47a.74.74,0,0,0-.61.34v2a.7.7,0,0,1-.26,0,.66.66,0,0,1-.27,0V54.64a.66.66,0,0,1,.27,0,.7.7,0,0,1,.26,0v.24a1,1,0,0,1,.81-.34.76.76,0,0,1,.83.81Z"/><path class="cls-5" d="M144,54.06a.82.82,0,0,1-.28,0,.75.75,0,0,1-.28,0v-.5a.75.75,0,0,1,.28,0,.82.82,0,0,1,.28,0Zm0,3.31a.72.72,0,0,1-.27,0,.66.66,0,0,1-.27,0V54.64a.66.66,0,0,1,.27,0,.72.72,0,0,1,.27,0Z"/><path class="cls-5" d="M145.15,56.17c0,.63.3.84.74.84a1.26,1.26,0,0,0,.63-.16.61.61,0,0,1,.17.39,1.63,1.63,0,0,1-.89.22c-.82,0-1.2-.51-1.2-1.47s.47-1.45,1.18-1.45a1,1,0,0,1,1.06,1.08,2.3,2.3,0,0,1-.06.55Zm.63-1.2c-.35,0-.59.23-.63.82h1.14s0-.13,0-.24C146.3,55.23,146.18,55,145.78,55Z"/><path class="cls-5" d="M149.34,54.54a1.47,1.47,0,0,1,.75.15.56.56,0,0,1-.14.38,1.84,1.84,0,0,0-.56-.09c-.36,0-.54.14-.54.39s.34.32.67.44.71.27.71.8-.33.85-1,.85a1.91,1.91,0,0,1-.89-.19.53.53,0,0,1,.14-.4,2.21,2.21,0,0,0,.72.14c.33,0,.51-.13.51-.39s-.29-.36-.61-.45-.75-.26-.75-.79S148.66,54.54,149.34,54.54Z"/><path class="cls-5" d="M151.3,54.06a.82.82,0,0,1-.28,0,.75.75,0,0,1-.28,0v-.5a.75.75,0,0,1,.28,0,.82.82,0,0,1,.28,0Zm0,3.31a.7.7,0,0,1-.26,0,.66.66,0,0,1-.27,0V54.64a.66.66,0,0,1,.27,0,.7.7,0,0,1,.26,0Z"/><path class="cls-5" d="M153,54.54a1,1,0,0,1,1.05,1.08,2.73,2.73,0,0,1-.05.55H152.4c0,.63.3.84.74.84a1.26,1.26,0,0,0,.63-.16.57.57,0,0,1,.18.39,1.21,1.21,0,0,1-.39.16.61.61,0,0,0-.5.54c0,.18.13.19.28.19a.37.37,0,0,0,.17,0,.29.29,0,0,1,.09.23.75.75,0,0,1-.36.1c-.3,0-.53-.12-.53-.44a.64.64,0,0,1,.27-.52c-.77,0-1.13-.54-1.13-1.47S152.33,54.54,153,54.54Zm0,.43c-.35,0-.6.23-.64.82h1.14a1.17,1.17,0,0,0,0-.24C153.56,55.23,153.43,55,153,55Z"/><path class="cls-5" d="M157,54.54c.61,0,1,.37,1,1.46s-.39,1.46-1,1.46a.85.85,0,0,1-.77-.35v1.5a1.23,1.23,0,0,1-.54,0v-4a.93.93,0,0,1,.54,0v.25A.85.85,0,0,1,157,54.54Zm-.19.44a.61.61,0,0,0-.58.68v.68a.61.61,0,0,0,.58.68c.43,0,.64-.22.64-1S157.26,55,156.83,55Z"/><path class="cls-5" d="M159.11,53.4a.72.72,0,0,1,.27,0v1.47l.37-.22s.05,0,.11.13a.64.64,0,0,1,.06.16l-.54.32v2.07a.72.72,0,0,1-.27,0,.63.63,0,0,1-.26,0V55.61l-.36.2s-.05,0-.1-.12a.44.44,0,0,1-.07-.17l.53-.3V53.44A.63.63,0,0,1,159.11,53.4Z"/><path class="cls-5" d="M161.59,57.82c-.19.59-.38.92-1,.92a.85.85,0,0,1-.3-.05.62.62,0,0,1,0-.2.36.36,0,0,1,0-.21,1.5,1.5,0,0,0,.24,0c.24,0,.36-.06.52-.57l.11-.32a.59.59,0,0,1-.17,0l-1-2.73a.82.82,0,0,1,.28,0,.72.72,0,0,1,.27,0l.61,1.62c.13.37.19.62.19.62h0a6.12,6.12,0,0,1,.17-.62l.53-1.62a.7.7,0,0,1,.26,0,.67.67,0,0,1,.25,0Z"/><path class="cls-5" d="M163.74,56.4c0,.48.16.63.54.63l.22,0a.57.57,0,0,1,0,.21.52.52,0,0,1,0,.19,1.35,1.35,0,0,1-.38.05c-.66,0-.92-.36-.92-1V55h-.41a.62.62,0,0,1,0-.2.55.55,0,0,1,0-.2h.41v-.49a.92.92,0,0,1,.53-.1v.59h.7a.55.55,0,0,1,0,.2.62.62,0,0,1,0,.2h-.7Z"/><path class="cls-5" d="M166.51,54.64a.87.87,0,0,1,.27,0,1.13,1.13,0,0,1,.27,0l-.83,1.28.95,1.46a1,1,0,0,1-.3,0,.93.93,0,0,1-.29,0l-.8-1.23h-.3v1.23a.76.76,0,0,1-.26,0,.79.79,0,0,1-.27,0V53.43a1.13,1.13,0,0,1,.27,0,1.2,1.2,0,0,1,.26,0v2.31h.31Z"/><path class="cls-5" d="M168.08,54.06a.82.82,0,0,1-.28,0,.75.75,0,0,1-.28,0v-.5a.75.75,0,0,1,.28,0,.82.82,0,0,1,.28,0Zm0,3.31a.72.72,0,0,1-.27,0,.66.66,0,0,1-.27,0V54.64a.66.66,0,0,1,.27,0,.72.72,0,0,1,.27,0Z"/><path class="cls-5" d="M170.39,54.89a.85.85,0,0,1,.77-.35c.61,0,1,.37,1,1.46s-.4,1.46-1,1.46a.85.85,0,0,1-.77-.35v.26a.72.72,0,0,1-.27,0,.63.63,0,0,1-.26,0V53.44a.63.63,0,0,1,.26,0,.72.72,0,0,1,.27,0ZM171,55a.61.61,0,0,0-.58.68v.68A.61.61,0,0,0,171,57c.43,0,.64-.22.64-1S171.4,55,171,55Z"/><path class="cls-5" d="M173.7,54.54c.77,0,1,.35,1,1v1.79a.41.41,0,0,1-.21,0,.51.51,0,0,1-.21,0l-.08-.34a.87.87,0,0,1-.84.43.78.78,0,0,1-.83-.89c0-.58.36-.84,1-.84.24,0,.47,0,.61,0v-.2c0-.36-.14-.57-.55-.57a2.13,2.13,0,0,0-.72.14.41.41,0,0,1-.12-.16.45.45,0,0,1,0-.23A2.28,2.28,0,0,1,173.7,54.54Zm0,1.55c-.36,0-.55.14-.55.48a.42.42,0,0,0,.47.48c.42,0,.62-.36.62-.74v-.19C174.06,56.12,173.85,56.09,173.65,56.09Z"/><path class="cls-5" d="M176.94,54.64a.79.79,0,0,1,.27,0,1.09,1.09,0,0,1,.26,0l-.82,1.28.94,1.46a1,1,0,0,1-.3,0,.82.82,0,0,1-.28,0l-.81-1.23h-.29v1.23a.87.87,0,0,1-.27,0,.79.79,0,0,1-.27,0V53.43a1.13,1.13,0,0,1,.27,0,1.24,1.24,0,0,1,.27,0v2.31h.3Z"/><path class="cls-5" d="M178.66,56.4c0,.48.16.63.54.63l.22,0a.57.57,0,0,1,0,.21.52.52,0,0,1,0,.19,1.35,1.35,0,0,1-.38.05c-.66,0-.92-.36-.92-1V55h-.41a.62.62,0,0,1,0-.2.55.55,0,0,1,0-.2h.41v-.49a.92.92,0,0,1,.53-.1v.59h.7a.55.55,0,0,1,0,.2.62.62,0,0,1,0,.2h-.7Z"/><path class="cls-5" d="M180.29,56.17c.05.63.3.84.75.84a1.31,1.31,0,0,0,.63-.16.61.61,0,0,1,.17.39,1.63,1.63,0,0,1-.89.22c-.82,0-1.21-.51-1.21-1.47s.48-1.45,1.19-1.45A1,1,0,0,1,182,55.62a2.3,2.3,0,0,1-.06.55Zm.64-1.2c-.35,0-.59.23-.64.82h1.15s0-.13,0-.24C181.45,55.23,181.32,55,180.93,55Z"/><path class="cls-5" d="M183.69,54.55a.9.9,0,0,1,.47.13.6.6,0,0,1-.24.45.57.57,0,0,0-.33-.11.69.69,0,0,0-.55.41v1.94a.72.72,0,0,1-.27,0,.63.63,0,0,1-.26,0V54.64a.63.63,0,0,1,.26,0,.72.72,0,0,1,.27,0V55A.79.79,0,0,1,183.69,54.55Z"/><path class="cls-5" d="M185.78,57.82c-.19.59-.38.92-1,.92a.83.83,0,0,1-.29-.05.62.62,0,0,1,0-.2.36.36,0,0,1,0-.21,1.5,1.5,0,0,0,.24,0c.24,0,.36-.06.52-.57l.11-.32a.59.59,0,0,1-.17,0l-1-2.73a.79.79,0,0,1,.27,0,.75.75,0,0,1,.28,0l.61,1.62c.13.37.19.62.19.62h0a6.12,6.12,0,0,1,.17-.62l.53-1.62a.63.63,0,0,1,.26,0,.73.73,0,0,1,.25,0Z"/><path class="cls-5" d="M187.23,54.64a.66.66,0,0,1,.27,0,.7.7,0,0,1,.26,0v3.24c0,.56-.27.86-.77.86a1.09,1.09,0,0,1-.36-.05.35.35,0,0,1,0-.12.48.48,0,0,1,.06-.27.86.86,0,0,0,.19,0c.25,0,.37-.13.37-.42Zm.54-.59a.72.72,0,0,1-.27,0,.69.69,0,0,1-.28,0v-.5a.69.69,0,0,1,.28,0,.72.72,0,0,1,.27,0Z"/><path class="cls-5" d="M190.62,57.37a.72.72,0,0,1-.27,0,.63.63,0,0,1-.26,0V55.45c0-.3-.16-.47-.5-.47a.71.71,0,0,0-.6.34v2a.79.79,0,0,1-.27,0,.66.66,0,0,1-.27,0V54.64a.66.66,0,0,1,.27,0,.79.79,0,0,1,.27,0v.24a1,1,0,0,1,.8-.34.76.76,0,0,1,.83.81Z"/><path class="cls-5" d="M191.71,56.17c0,.63.3.84.74.84a1.26,1.26,0,0,0,.63-.16.57.57,0,0,1,.17.39,1.59,1.59,0,0,1-.89.22c-.82,0-1.2-.51-1.2-1.47s.47-1.45,1.18-1.45a1,1,0,0,1,1.06,1.08,2.3,2.3,0,0,1-.06.55Zm.63-1.2c-.35,0-.59.23-.63.82h1.14a1.42,1.42,0,0,0,0-.24C192.86,55.23,192.74,55,192.34,55Z"/><path class="cls-5" d="M193.93,54.64a.66.66,0,0,1,.27,0,.7.7,0,0,1,.26,0v3.24c0,.56-.27.86-.77.86a1.09,1.09,0,0,1-.36-.05.68.68,0,0,1,0-.12.55.55,0,0,1,.05-.27.91.91,0,0,0,.2,0c.24,0,.36-.13.36-.42Zm.54-.59a.72.72,0,0,1-.27,0,.69.69,0,0,1-.28,0v-.5a.69.69,0,0,1,.28,0,.72.72,0,0,1,.27,0Z"/><path class="cls-5" d="M198.05,55.92a3.61,3.61,0,0,1-.14-.77h0a3.2,3.2,0,0,1-.15.77l-.42,1.45a1,1,0,0,1-.31,0,1,1,0,0,1-.31,0l-.8-2.73a.7.7,0,0,1,.26,0,.41.41,0,0,1,.23,0l.51,1.7a2.69,2.69,0,0,1,.11.52h0a4.23,4.23,0,0,1,.12-.52l.49-1.7a1.1,1.1,0,0,1,.29,0,.7.7,0,0,1,.26,0l.47,1.69a2.91,2.91,0,0,1,.11.53h0c0-.11.06-.28.14-.53l.5-1.69a.64.64,0,0,1,.24,0,.5.5,0,0,1,.23,0l-.81,2.73a1,1,0,0,1-.31,0,1.1,1.1,0,0,1-.31,0Z"/><path class="cls-5" d="M201.85,54.89a.85.85,0,0,1,.77-.35c.61,0,1,.37,1,1.46s-.39,1.46-1,1.46a.85.85,0,0,1-.77-.35v.26a.75.75,0,0,1-.28,0,.7.7,0,0,1-.26,0V53.44a.7.7,0,0,1,.26,0,.75.75,0,0,1,.28,0Zm.58.09a.61.61,0,0,0-.58.68v.68a.61.61,0,0,0,.58.68c.43,0,.64-.22.64-1S202.86,55,202.43,55Z"/><path class="cls-5" d="M204.61,56.17c0,.63.3.84.74.84a1.26,1.26,0,0,0,.63-.16.53.53,0,0,1,.17.39,1.57,1.57,0,0,1-.88.22c-.83,0-1.21-.51-1.21-1.47s.47-1.45,1.19-1.45a1,1,0,0,1,1.05,1.08,2.3,2.3,0,0,1-.06.55Zm.64-1.2c-.35,0-.6.23-.64.82h1.14a1.17,1.17,0,0,0,0-.24C205.77,55.23,205.64,55,205.25,55Z"/><path class="cls-5" d="M208.65,57a.61.61,0,0,1,0,.22.76.76,0,0,1,0,.22h-2a.85.85,0,0,1,0-.23.58.58,0,0,1,0-.21L208.09,55h-1.33a.8.8,0,0,1,0-.23.58.58,0,0,1,0-.21h1.89a.58.58,0,0,1,0,.21.8.8,0,0,1,0,.23L207.23,57Z"/><path class="cls-5" d="M210.52,54.54c.61,0,1,.37,1,1.46s-.39,1.46-1,1.46a.85.85,0,0,1-.77-.35v1.5a.94.94,0,0,1-.27,0,.82.82,0,0,1-.26,0v-4a.63.63,0,0,1,.26,0,.72.72,0,0,1,.27,0v.25A.85.85,0,0,1,210.52,54.54Zm-.19.44a.61.61,0,0,0-.58.68v.68a.61.61,0,0,0,.58.68c.43,0,.64-.22.64-1S210.76,55,210.33,55Z"/><path class="cls-5" d="M213.15,54.54c.74,0,1.19.41,1.19,1.46s-.45,1.46-1.19,1.46S212,57.06,212,56,212.42,54.54,213.15,54.54Zm0,.42c-.39,0-.64.22-.64,1s.25,1,.64,1,.64-.22.64-1S213.54,55,213.15,55Z"/><path class="cls-5" d="M215.77,54.54a1.53,1.53,0,0,1,.76.15.56.56,0,0,1-.14.38,1.94,1.94,0,0,0-.57-.09c-.36,0-.54.14-.54.39s.3.32.63.41.75.28.75.83-.33.85-1,.85a1.91,1.91,0,0,1-.89-.19.57.57,0,0,1,.14-.4,2.21,2.21,0,0,0,.72.14c.33,0,.51-.13.51-.39s-.29-.36-.61-.45-.75-.26-.75-.79S215.09,54.54,215.77,54.54Zm-.18-.36a.42.42,0,0,1-.3-.16l.5-.76a.56.56,0,0,1,.47.2Z"/><path class="cls-5" d="M218.36,54.55a.86.86,0,0,1,.46.13.59.59,0,0,1-.23.45.57.57,0,0,0-.33-.11.67.67,0,0,0-.55.41v1.94a.79.79,0,0,1-.27,0,.66.66,0,0,1-.27,0V54.64a.66.66,0,0,1,.27,0,.79.79,0,0,1,.27,0V55A.77.77,0,0,1,218.36,54.55Z"/><path class="cls-5" d="M219.53,56.17c.05.63.3.84.75.84a1.26,1.26,0,0,0,.63-.16.61.61,0,0,1,.17.39,1.63,1.63,0,0,1-.89.22c-.82,0-1.21-.51-1.21-1.47s.48-1.45,1.19-1.45a1,1,0,0,1,1.06,1.08,2.3,2.3,0,0,1-.06.55Zm.64-1.2c-.35,0-.59.23-.64.82h1.15s0-.13,0-.24C220.69,55.23,220.56,55,220.17,55Z"/><path class="cls-5" d="M223.68,53.4a.63.63,0,0,1,.26,0v3.93a.59.59,0,0,1-.22,0,.71.71,0,0,1-.24,0l0-.29a.87.87,0,0,1-.8.38c-.61,0-1-.37-1-1.46s.4-1.46,1-1.46a.88.88,0,0,1,.77.35V53.44A.72.72,0,0,1,223.68,53.4ZM222.82,55c-.42,0-.64.23-.64,1s.22,1,.64,1a.61.61,0,0,0,.59-.68v-.69A.62.62,0,0,0,222.82,55Z"/><path class="cls-5" d="M226.78,57.37a.7.7,0,0,1-.26,0,.66.66,0,0,1-.27,0V55.45c0-.3-.16-.47-.5-.47a.74.74,0,0,0-.6.34v2a.79.79,0,0,1-.27,0,.72.72,0,0,1-.27,0V54.64a.72.72,0,0,1,.27,0,.79.79,0,0,1,.27,0v.24a1,1,0,0,1,.81-.34.75.75,0,0,1,.82.81Z"/><path class="cls-5" d="M228,54.06a.82.82,0,0,1-.28,0,.75.75,0,0,1-.28,0v-.5a.75.75,0,0,1,.28,0,.82.82,0,0,1,.28,0Zm0,3.31a.72.72,0,0,1-.27,0,.66.66,0,0,1-.27,0V54.64a.66.66,0,0,1,.27,0,.72.72,0,0,1,.27,0Z"/><path class="cls-5" d="M231.54,54.54a.75.75,0,0,1,.8.81v2a.72.72,0,0,1-.27,0,.63.63,0,0,1-.26,0V55.45a.41.41,0,0,0-.47-.47.66.66,0,0,0-.57.34v2a.7.7,0,0,1-.26,0,.66.66,0,0,1-.27,0V55.45a.41.41,0,0,0-.46-.47.73.73,0,0,0-.58.33v2.06a.7.7,0,0,1-.26,0,.63.63,0,0,1-.26,0V54.64a.63.63,0,0,1,.26,0,.7.7,0,0,1,.26,0v.24a1,1,0,0,1,.77-.34.74.74,0,0,1,.7.39A1.08,1.08,0,0,1,231.54,54.54Z"/><path class="cls-5" d="M235,54.54a1.47,1.47,0,0,1,.75.15.56.56,0,0,1-.14.38A1.92,1.92,0,0,0,235,55c-.36,0-.55.14-.55.39s.3.32.63.41.76.28.76.83-.34.85-1,.85a1.91,1.91,0,0,1-.89-.19.57.57,0,0,1,.14-.4,2.23,2.23,0,0,0,.73.14c.32,0,.51-.13.51-.39s-.3-.36-.62-.45-.75-.26-.75-.79S234.31,54.54,235,54.54Zm-.19-.36a.44.44,0,0,1-.3-.16l.51-.76a.54.54,0,0,1,.46.2Z"/><path class="cls-5" d="M237.57,54.55a.9.9,0,0,1,.47.13.6.6,0,0,1-.24.45.57.57,0,0,0-.33-.11.69.69,0,0,0-.55.41v1.94a.72.72,0,0,1-.27,0,.63.63,0,0,1-.26,0V54.64a.63.63,0,0,1,.26,0,.72.72,0,0,1,.27,0V55A.79.79,0,0,1,237.57,54.55Z"/><path class="cls-5" d="M239.38,54.54c.74,0,1.19.41,1.19,1.46s-.46,1.46-1.19,1.46-1.18-.4-1.18-1.46S238.65,54.54,239.38,54.54Zm0,.42c-.39,0-.64.22-.64,1s.25,1,.64,1,.64-.22.64-1S239.77,55,239.38,55Z"/><path class="cls-5" d="M243.05,53.4a.7.7,0,0,1,.26,0v3.93a.59.59,0,0,1-.22,0,.71.71,0,0,1-.24,0l0-.29a.87.87,0,0,1-.8.38c-.61,0-1-.37-1-1.46s.4-1.46,1-1.46a.88.88,0,0,1,.77.35V53.44A.72.72,0,0,1,243.05,53.4ZM242.19,55c-.42,0-.64.23-.64,1s.22,1,.64,1a.61.61,0,0,0,.59-.68v-.69A.62.62,0,0,0,242.19,55Z"/><path class="cls-5" d="M245.05,54.54c.73,0,1.18.41,1.18,1.46s-.45,1.46-1.18,1.46-1.19-.4-1.19-1.46S244.32,54.54,245.05,54.54Zm0,.42c-.39,0-.64.22-.64,1s.25,1,.64,1,.63-.22.63-1S245.44,55,245.05,55Z"/><path class="cls-5" d="M248.65,55.92a3.81,3.81,0,0,1-.15-.77h0a3.2,3.2,0,0,1-.15.77l-.42,1.45a.91.91,0,0,1-.3,0,1,1,0,0,1-.31,0l-.81-2.73a.79.79,0,0,1,.27,0,.41.41,0,0,1,.23,0l.5,1.7a4.23,4.23,0,0,1,.12.52h0a4.23,4.23,0,0,1,.12-.52l.49-1.7a1.1,1.1,0,0,1,.29,0,.63.63,0,0,1,.26,0l.48,1.69a2.69,2.69,0,0,1,.1.53h0c0-.11.06-.28.13-.53l.51-1.69a.56.56,0,0,1,.23,0,.45.45,0,0,1,.23,0l-.81,2.73a1,1,0,0,1-.3,0,1.06,1.06,0,0,1-.31,0Z"/><path class="cls-5" d="M251.46,54.06a.82.82,0,0,1-.28,0,.75.75,0,0,1-.28,0v-.5a.75.75,0,0,1,.28,0,.82.82,0,0,1,.28,0Zm0,3.31a.72.72,0,0,1-.27,0,.66.66,0,0,1-.27,0V54.64a.66.66,0,0,1,.27,0,.72.72,0,0,1,.27,0Z"/><path class="cls-5" d="M253,54.54a1.47,1.47,0,0,1,.75.15.56.56,0,0,1-.14.38,1.84,1.84,0,0,0-.56-.09c-.36,0-.54.14-.54.39s.33.32.67.44.71.27.71.8-.34.85-1,.85a2,2,0,0,1-.9-.19.54.54,0,0,1,.15-.4,2.21,2.21,0,0,0,.72.14c.33,0,.51-.13.51-.39s-.29-.36-.61-.45-.76-.26-.76-.79S252.34,54.54,253,54.54Z"/><path class="cls-5" d="M256,54.64a.79.79,0,0,1,.27,0,1.09,1.09,0,0,1,.26,0l-.82,1.28.94,1.46a1,1,0,0,1-.3,0,.93.93,0,0,1-.29,0l-.8-1.23H255v1.23a.76.76,0,0,1-.26,0,.79.79,0,0,1-.27,0V53.43a1.13,1.13,0,0,1,.27,0,1.09,1.09,0,0,1,.26,0v2.31h.31Z"/><path class="cls-5" d="M257,54.64a.93.93,0,0,1,.54,0v1.92c0,.3.15.47.49.47a.73.73,0,0,0,.61-.34v-2a.7.7,0,0,1,.26,0,.66.66,0,0,1,.27,0v2.73a.66.66,0,0,1-.27,0,.7.7,0,0,1-.26,0v-.25a1,1,0,0,1-.81.34.76.76,0,0,1-.83-.81Z"/><path class="cls-5" d="M262.11,54.55a.86.86,0,0,1,.46.13.59.59,0,0,1-.23.45A.57.57,0,0,0,262,55a.67.67,0,0,0-.55.41v1.94a.79.79,0,0,1-.27,0,.66.66,0,0,1-.27,0V54.64a.66.66,0,0,1,.27,0,.79.79,0,0,1,.27,0V55A.77.77,0,0,1,262.11,54.55Z"/><path class="cls-5" d="M263.86,54.54c.77,0,1,.35,1,1v1.79a.41.41,0,0,1-.21,0,.51.51,0,0,1-.21,0l-.08-.34a.86.86,0,0,1-.84.43.78.78,0,0,1-.83-.89c0-.58.36-.84,1-.84.24,0,.47,0,.61,0v-.2c0-.36-.14-.57-.55-.57a2.13,2.13,0,0,0-.72.14A.56.56,0,0,1,263,55a.45.45,0,0,1,0-.23A2.28,2.28,0,0,1,263.86,54.54Zm-.05,1.55c-.36,0-.55.14-.55.48a.42.42,0,0,0,.47.48c.42,0,.62-.36.62-.74v-.19C264.22,56.12,264,56.09,263.81,56.09Z"/><path class="cls-5" d="M267.71,57.37a.93.93,0,0,1-.54,0V55.45c0-.3-.15-.47-.49-.47a.74.74,0,0,0-.61.34v2a.7.7,0,0,1-.26,0,.66.66,0,0,1-.27,0V54.64a.66.66,0,0,1,.27,0,.7.7,0,0,1,.26,0v.24a1,1,0,0,1,.81-.34.76.76,0,0,1,.83.81Z"/><path class="cls-5" d="M269.6,57.82c-.19.59-.38.92-1,.92a.85.85,0,0,1-.3-.05.8.8,0,0,1,0-.2.4.4,0,0,1,0-.21l.24,0c.24,0,.36-.06.52-.57l.12-.32a.58.58,0,0,1-.18,0l-1-2.73a1,1,0,0,1,.56,0l.6,1.62a4.37,4.37,0,0,1,.19.62h0s.06-.25.17-.62l.53-1.62a.7.7,0,0,1,.26,0,.67.67,0,0,1,.25,0Z"/><path class="cls-5" d="M273.34,54.54c.61,0,1,.37,1,1.46s-.39,1.46-1,1.46a.85.85,0,0,1-.77-.35v1.5a.94.94,0,0,1-.27,0,.82.82,0,0,1-.26,0v-4a.63.63,0,0,1,.26,0,.72.72,0,0,1,.27,0v.25A.85.85,0,0,1,273.34,54.54Zm-.19.44a.61.61,0,0,0-.58.68v.68a.61.61,0,0,0,.58.68c.43,0,.64-.22.64-1S273.58,55,273.15,55Z"/><path class="cls-5" d="M276,54.54c.74,0,1.19.41,1.19,1.46s-.46,1.46-1.19,1.46-1.18-.4-1.18-1.46S275.24,54.54,276,54.54Zm0,.42c-.39,0-.64.22-.64,1s.25,1,.64,1,.64-.22.64-1S276.36,55,276,55Z"/><path class="cls-5" d="M278.77,54.54c.74,0,1.19.41,1.19,1.46s-.46,1.46-1.19,1.46-1.18-.4-1.18-1.46S278,54.54,278.77,54.54Zm0,.42c-.39,0-.64.22-.64,1s.25,1,.64,1,.64-.22.64-1S279.16,55,278.77,55Z"/><path class="cls-5" d="M281.81,54.54c.61,0,1,.37,1,1.46s-.4,1.46-1,1.46a.85.85,0,0,1-.77-.35v1.5a.94.94,0,0,1-.27,0,.9.9,0,0,1-.26,0v-4a.7.7,0,0,1,.26,0,.72.72,0,0,1,.27,0v.25A.85.85,0,0,1,281.81,54.54Zm-.18.44a.61.61,0,0,0-.59.68v.68a.61.61,0,0,0,.59.68c.42,0,.64-.22.64-1S282.05,55,281.63,55Z"/><path class="cls-5" d="M283.81,56.17c0,.63.3.84.74.84a1.26,1.26,0,0,0,.63-.16.57.57,0,0,1,.18.39,1.63,1.63,0,0,1-.89.22c-.82,0-1.21-.51-1.21-1.47s.48-1.45,1.19-1.45a1,1,0,0,1,1.05,1.08,2.73,2.73,0,0,1-.05.55Zm.64-1.2c-.35,0-.6.23-.64.82H285a1.17,1.17,0,0,0,0-.24C285,55.23,284.84,55,284.45,55Z"/><path class="cls-5" d="M287.21,54.55a.84.84,0,0,1,.46.13.59.59,0,0,1-.23.45.57.57,0,0,0-.33-.11.69.69,0,0,0-.55.41v1.94a.72.72,0,0,1-.27,0,.66.66,0,0,1-.27,0V54.64a.66.66,0,0,1,.27,0,.72.72,0,0,1,.27,0V55A.79.79,0,0,1,287.21,54.55Z"/><path class="cls-5" d="M289,54.54c.78,0,1,.35,1,1v1.79a.41.41,0,0,1-.21,0,.51.51,0,0,1-.21,0l-.08-.34a.86.86,0,0,1-.84.43.78.78,0,0,1-.83-.89c0-.58.36-.84,1-.84.24,0,.47,0,.61,0v-.2c0-.36-.14-.57-.55-.57a2.13,2.13,0,0,0-.72.14.56.56,0,0,1-.12-.16.45.45,0,0,1,0-.23A2.28,2.28,0,0,1,289,54.54Zm0,1.55c-.36,0-.55.14-.55.48a.42.42,0,0,0,.47.48c.42,0,.62-.36.62-.74v-.19C289.32,56.12,289.11,56.09,288.91,56.09Z"/><path class="cls-5" d="M291.07,56c0,.7.22,1,.73,1a1.41,1.41,0,0,0,.51-.09.53.53,0,0,1,.15.38,1.43,1.43,0,0,1-.77.16c-.78,0-1.17-.51-1.17-1.46s.39-1.46,1.17-1.46a1.35,1.35,0,0,1,.72.14.53.53,0,0,1-.16.38,1.26,1.26,0,0,0-.47-.08C291.27,55,291.07,55.31,291.07,56Z"/><path class="cls-5" d="M294.2,57.82c-.19.59-.38.92-1,.92a.83.83,0,0,1-.29-.05.62.62,0,0,1,0-.2.57.57,0,0,1,0-.21,1.72,1.72,0,0,0,.25,0c.24,0,.36-.06.52-.57l.11-.32a.59.59,0,0,1-.17,0l-1-2.73a.9.9,0,0,1,.28,0,.82.82,0,0,1,.28,0l.61,1.62c.13.37.19.62.19.62h0a6.12,6.12,0,0,1,.17-.62l.53-1.62a.63.63,0,0,1,.26,0,.73.73,0,0,1,.25,0Z"/><path class="cls-5" d="M295.65,54.64a.63.63,0,0,1,.26,0,.72.72,0,0,1,.27,0v3.24c0,.56-.27.86-.77.86a1.09,1.09,0,0,1-.36-.05.35.35,0,0,1,0-.12.48.48,0,0,1,.06-.27.86.86,0,0,0,.19,0c.24,0,.37-.13.37-.42Zm.54-.59a.75.75,0,0,1-.28,0,.66.66,0,0,1-.27,0v-.5a.66.66,0,0,1,.27,0,.75.75,0,0,1,.28,0Z"/><path class="cls-5" d="M299,57.37a.72.72,0,0,1-.27,0,.63.63,0,0,1-.26,0V55.45c0-.3-.16-.47-.5-.47a.71.71,0,0,0-.6.34v2a.79.79,0,0,1-.27,0,.66.66,0,0,1-.27,0V54.64a.66.66,0,0,1,.27,0,.79.79,0,0,1,.27,0v.24a1,1,0,0,1,.8-.34.76.76,0,0,1,.83.81Z"/><path class="cls-5" d="M300.13,56.17c0,.63.3.84.74.84a1.26,1.26,0,0,0,.63-.16.53.53,0,0,1,.17.39,1.57,1.57,0,0,1-.88.22c-.83,0-1.21-.51-1.21-1.47s.48-1.45,1.19-1.45a1,1,0,0,1,1.05,1.08,2.3,2.3,0,0,1-.06.55Zm.64-1.2c-.35,0-.6.23-.64.82h1.14a1.17,1.17,0,0,0,0-.24C301.29,55.23,301.16,55,300.77,55Z"/><path class="cls-5" d="M302.35,54.64a.66.66,0,0,1,.27,0,.72.72,0,0,1,.27,0v3.24c0,.56-.28.86-.78.86a1.06,1.06,0,0,1-.35-.05.35.35,0,0,1,0-.12.55.55,0,0,1,.05-.27,1,1,0,0,0,.2,0c.24,0,.36-.13.36-.42Zm.55-.59a.82.82,0,0,1-.28,0,.75.75,0,0,1-.28,0v-.5a.75.75,0,0,1,.28,0,.82.82,0,0,1,.28,0Z"/><path class="cls-5" d="M304.1,53.23a2.8,2.8,0,0,0-.35,1.4A2.87,2.87,0,0,0,304.1,56a.21.21,0,0,1-.09.09.4.4,0,0,1-.14,0,3,3,0,0,1,0-3.06.29.29,0,0,1,.13,0A.2.2,0,0,1,304.1,53.23Z"/><path class="cls-5" d="M304.43,53.59a1.52,1.52,0,0,1,.58-.11c.37,0,.68.16.68.57s-.23.53-.6.75c-.18.12-.44.22-.44.48a.56.56,0,0,0,0,.07h1a.26.26,0,0,1,0,.14.32.32,0,0,1,0,.14h-1.26a1.21,1.21,0,0,1,0-.21c0-.49.31-.66.6-.85s.41-.28.41-.51-.12-.32-.4-.32a1.4,1.4,0,0,0-.44.08A.24.24,0,0,1,304.43,53.59Z"/><path class="cls-5" d="M306,53.23a.27.27,0,0,1,.11-.09.29.29,0,0,1,.13,0,3,3,0,0,1,0,3.06.44.44,0,0,1-.14,0A.29.29,0,0,1,306,56a2.81,2.81,0,0,0,.36-1.41A2.75,2.75,0,0,0,306,53.23Z"/><path class="cls-5" d="M105.75,62.71a1.12,1.12,0,0,1-.1.48,1.07,1.07,0,0,1-.28.42,1.3,1.3,0,0,1-.41.28,1.33,1.33,0,0,1-.49.09,1.37,1.37,0,0,1-.49-.09,1.42,1.42,0,0,1-.41-.28,1.34,1.34,0,0,1-.28-.42,1.28,1.28,0,0,1-.09-.48,1.33,1.33,0,0,1,.09-.49,1.47,1.47,0,0,1,.28-.42,1.22,1.22,0,0,1,.41-.27,1.25,1.25,0,0,1,1,0,1.22,1.22,0,0,1,.41.27,1.15,1.15,0,0,1,.28.42A1.16,1.16,0,0,1,105.75,62.71Z"/><path class="cls-5" d="M109.2,63.05a3.83,3.83,0,0,1-.14-.77h0a3.93,3.93,0,0,1-.15.77l-.43,1.45a1.26,1.26,0,0,1-.3,0,1.48,1.48,0,0,1-.31,0L107,61.76a.79.79,0,0,1,.27,0,.41.41,0,0,1,.23,0l.51,1.7a3.86,3.86,0,0,1,.11.53h0a3.86,3.86,0,0,1,.11-.53l.49-1.7a1.1,1.1,0,0,1,.29,0,.63.63,0,0,1,.26,0l.48,1.69a3,3,0,0,1,.11.54h0a3.89,3.89,0,0,1,.14-.53l.5-1.7a.56.56,0,0,1,.23,0,.45.45,0,0,1,.23,0l-.8,2.74a1.62,1.62,0,0,1-.62,0Z"/><path class="cls-5" d="M112.34,61.67a1.57,1.57,0,0,1,.76.14.54.54,0,0,1-.14.38,2.14,2.14,0,0,0-.56-.08c-.37,0-.55.13-.55.38s.34.33.68.44.71.28.71.8-.34.86-1,.86a1.84,1.84,0,0,1-.89-.2.56.56,0,0,1,.14-.39,2.35,2.35,0,0,0,.72.13c.33,0,.52-.12.52-.38s-.3-.36-.61-.45-.76-.26-.76-.79S111.67,61.67,112.34,61.67Z"/><path class="cls-5" d="M115.07,61.67c.61,0,1,.37,1,1.46s-.4,1.46-1,1.46a.85.85,0,0,1-.77-.35v1.49a.72.72,0,0,1-.27,0,.7.7,0,0,1-.26,0v-4a.7.7,0,0,1,.26,0,.72.72,0,0,1,.27,0V62A.85.85,0,0,1,115.07,61.67Zm-.18.44a.61.61,0,0,0-.59.67v.68a.62.62,0,0,0,.59.69c.42,0,.64-.23.64-1S115.31,62.11,114.89,62.11Z"/><path class="cls-5" d="M117.73,61.67c.74,0,1.19.4,1.19,1.46s-.45,1.46-1.19,1.46-1.18-.4-1.18-1.46S117,61.67,117.73,61.67Zm0,.41c-.39,0-.64.23-.64,1.05s.25,1,.64,1,.64-.22.64-1S118.12,62.08,117.73,62.08Z"/><path class="cls-5" d="M122.37,61.67a.75.75,0,0,1,.8.81v2a.94.94,0,0,1-.27,0,.86.86,0,0,1-.27,0V62.57a.41.41,0,0,0-.46-.47.68.68,0,0,0-.57.34V64.5a.9.9,0,0,1-.26,0,.86.86,0,0,1-.27,0V62.57a.41.41,0,0,0-.47-.47.72.72,0,0,0-.57.34V64.5a.9.9,0,0,1-.26,0,.86.86,0,0,1-.27,0V61.76a.66.66,0,0,1,.27,0,.7.7,0,0,1,.26,0V62a1,1,0,0,1,.77-.33.72.72,0,0,1,.7.39A1.06,1.06,0,0,1,122.37,61.67Z"/><path class="cls-5" d="M124.83,61.67c.78,0,1,.35,1,1V64.5a.52.52,0,0,1-.21,0,.65.65,0,0,1-.21,0l-.08-.35a.85.85,0,0,1-.84.44.79.79,0,0,1-.83-.9c0-.58.36-.83,1-.83a4.93,4.93,0,0,1,.61,0v-.2c0-.36-.14-.57-.55-.57a2.27,2.27,0,0,0-.72.13.42.42,0,0,1-.12-.16.41.41,0,0,1,0-.22A2.28,2.28,0,0,1,124.83,61.67Zm0,1.55c-.36,0-.55.14-.55.47a.42.42,0,0,0,.47.48.65.65,0,0,0,.62-.73v-.19C125.19,63.24,125,63.22,124.78,63.22Z"/><path class="cls-5" d="M128.81,61.67a.61.61,0,0,1,0,.42l-.44,0a1,1,0,0,1,.15.56c0,.6-.36,1-1.05,1h-.23a.47.47,0,0,0-.11.31c.06.49,1.68,0,1.68,1.06,0,.53-.51.92-1.38.92s-1.13-.32-1.13-.75a.9.9,0,0,1,.47-.73.46.46,0,0,1-.12-.31,1,1,0,0,1,.26-.59.88.88,0,0,1-.49-.86.92.92,0,0,1,1-1,1.26,1.26,0,0,1,.59.12Zm-1.75,2.86a.67.67,0,0,0-.25.49c0,.27.2.47.64.47s.85-.2.85-.48C128.3,64.57,127.54,64.68,127.06,64.53Zm.41-2.49a.51.51,0,0,0-.54.59.51.51,0,0,0,.54.58c.32,0,.53-.18.53-.58S127.79,62,127.47,62Z"/><path class="cls-5" d="M130.24,61.67c.77,0,1,.35,1,1V64.5a.52.52,0,0,1-.21,0,.65.65,0,0,1-.21,0l-.08-.35a.86.86,0,0,1-.84.44.79.79,0,0,1-.83-.9c0-.58.36-.83,1-.83a4.64,4.64,0,0,1,.6,0v-.2c0-.36-.13-.57-.55-.57a2.25,2.25,0,0,0-.71.13.33.33,0,0,1-.12-.16.48.48,0,0,1,0-.22A2.3,2.3,0,0,1,130.24,61.67Zm-.05,1.55c-.36,0-.55.14-.55.47a.42.42,0,0,0,.47.48c.42,0,.61-.35.61-.73v-.19C130.6,63.24,130.39,63.22,130.19,63.22Z"/><path class="cls-5" d="M134.23,60.53a3.31,3.31,0,0,1,1.09.17.52.52,0,0,1-.13.37,3.36,3.36,0,0,0-.92-.12c-.37,0-.52.13-.52.43v.34h1.33a1.4,1.4,0,0,1,.28,0V64.5a.94.94,0,0,1-.27,0,.82.82,0,0,1-.26,0V62.12h-1.08V64.5a.9.9,0,0,1-.26,0,.86.86,0,0,1-.27,0V62.12h-.34a.68.68,0,0,1,0-.4h.34V61.4C133.22,60.86,133.53,60.53,134.23,60.53Z"/><path class="cls-5" d="M137.91,64.09a.82.82,0,0,1,0,.44h-2a1.29,1.29,0,0,1,0-.23,1.18,1.18,0,0,1,0-.21l1.42-1.93H136a.59.59,0,0,1,0-.22.53.53,0,0,1,0-.22h1.89a.62.62,0,0,1,0,.21.75.75,0,0,1,0,.23l-1.42,1.93Z"/><path class="cls-5" d="M138.51,61.76a.66.66,0,0,1,.27,0,.7.7,0,0,1,.26,0V65c0,.57-.27.87-.77.87a1.09,1.09,0,0,1-.36-.05.68.68,0,0,1,0-.12.62.62,0,0,1,0-.28.62.62,0,0,0,.2,0c.24,0,.36-.13.36-.43Zm.54-.58a.72.72,0,0,1-.27,0,.69.69,0,0,1-.28,0v-.5a.69.69,0,0,1,.28,0,.72.72,0,0,1,.27,0Z"/><path class="cls-5" d="M140.82,61.67c.74,0,1.19.4,1.19,1.46s-.46,1.46-1.19,1.46-1.18-.4-1.18-1.46S140.09,61.67,140.82,61.67Zm0,.41c-.39,0-.64.23-.64,1.05s.25,1,.64,1,.64-.22.64-1S141.21,62.08,140.82,62.08Z"/><path class="cls-5" d="M143.14,64.5a.94.94,0,0,1-.27,0,.82.82,0,0,1-.26,0V60.56a.82.82,0,0,1,.26,0,.94.94,0,0,1,.27,0Z"/><path class="cls-5" d="M144.93,61.67c.73,0,1.18.4,1.18,1.46s-.45,1.46-1.18,1.46-1.19-.4-1.19-1.46S144.19,61.67,144.93,61.67Zm0,.41c-.39,0-.65.23-.65,1.05s.26,1,.65,1,.63-.22.63-1S145.32,62.08,144.93,62.08Z"/><path class="cls-5" d="M149,61.67a.61.61,0,0,1,0,.42l-.44,0a1,1,0,0,1,.15.56c0,.6-.36,1-1.05,1h-.23a.47.47,0,0,0-.11.31c.06.49,1.68,0,1.68,1.06,0,.53-.51.92-1.38.92s-1.13-.32-1.13-.75a.9.9,0,0,1,.47-.73.46.46,0,0,1-.12-.31,1,1,0,0,1,.26-.59.88.88,0,0,1-.49-.86.92.92,0,0,1,1-1,1.26,1.26,0,0,1,.59.12Zm-1.75,2.86A.67.67,0,0,0,147,65c0,.27.2.47.64.47s.85-.2.85-.48C148.46,64.57,147.7,64.68,147.22,64.53Zm.41-2.49a.51.51,0,0,0-.54.59.51.51,0,0,0,.54.58c.32,0,.53-.18.53-.58S148,62,147.63,62Z"/><path class="cls-5" d="M150,61.18a.82.82,0,0,1-.28,0,.75.75,0,0,1-.28,0v-.5a.75.75,0,0,1,.28,0,.82.82,0,0,1,.28,0Zm0,3.32a.94.94,0,0,1-.27,0,.86.86,0,0,1-.27,0V61.76a.66.66,0,0,1,.27,0,.72.72,0,0,1,.27,0Z"/><path class="cls-5" d="M151.14,63.13c0,.7.22,1,.74,1a1.39,1.39,0,0,0,.5-.09.55.55,0,0,1,.15.39,1.41,1.41,0,0,1-.76.16c-.78,0-1.18-.51-1.18-1.46s.4-1.46,1.18-1.46a1.41,1.41,0,0,1,.71.13.57.57,0,0,1-.15.39,1.32,1.32,0,0,0-.47-.08C151.34,62.11,151.14,62.43,151.14,63.13Z"/><path class="cls-5" d="M154.85,64.09a.82.82,0,0,1,0,.44h-2a.73.73,0,0,1,0-.23.65.65,0,0,1,0-.21l1.42-1.93H153a.76.76,0,0,1,0-.22.68.68,0,0,1,0-.22h1.89a.62.62,0,0,1,0,.21.75.75,0,0,1,0,.23l-1.42,1.93Z"/><path class="cls-5" d="M157.61,64.5a.94.94,0,0,1-.27,0,.82.82,0,0,1-.26,0V62.57c0-.3-.16-.47-.5-.47a.71.71,0,0,0-.6.34V64.5a1,1,0,0,1-.27,0,.86.86,0,0,1-.27,0V61.76a.66.66,0,0,1,.27,0,.79.79,0,0,1,.27,0V62a1,1,0,0,1,.8-.34.76.76,0,0,1,.83.81Z"/><path class="cls-5" d="M159.54,64.94c-.19.59-.38.93-1,.93a.71.71,0,0,1-.29-.06.53.53,0,0,1,0-.19.44.44,0,0,1,.05-.22,1.5,1.5,0,0,0,.24,0c.24,0,.36-.06.52-.56l.11-.33-.17,0-1-2.74a.79.79,0,0,1,.27,0,.75.75,0,0,1,.28,0l.61,1.62a6.56,6.56,0,0,1,.19.63h0a6.12,6.12,0,0,1,.17-.62l.53-1.63a.63.63,0,0,1,.26,0,.73.73,0,0,1,.25,0Z"/><path class="cls-5" d="M163.33,61.67c.61,0,1,.37,1,1.46s-.39,1.46-1,1.46a.85.85,0,0,1-.77-.35v1.49a.72.72,0,0,1-.27,0,.63.63,0,0,1-.26,0v-4a.63.63,0,0,1,.26,0,.72.72,0,0,1,.27,0V62A.85.85,0,0,1,163.33,61.67Zm-.19.44a.6.6,0,0,0-.58.67v.68a.62.62,0,0,0,.58.69c.43,0,.64-.23.64-1S163.57,62.11,163.14,62.11Z"/><path class="cls-5" d="M166.11,61.67a.82.82,0,0,1,.47.14.61.61,0,0,1-.24.45.52.52,0,0,0-.33-.12.71.71,0,0,0-.55.41v2a.94.94,0,0,1-.27,0,.82.82,0,0,1-.26,0V61.76a.63.63,0,0,1,.26,0,.72.72,0,0,1,.27,0v.37A.78.78,0,0,1,166.11,61.67Z"/><path class="cls-5" d="M168,61.67c.74,0,1.19.4,1.19,1.46s-.46,1.46-1.19,1.46-1.19-.4-1.19-1.46S167.22,61.67,168,61.67Zm0,.41c-.39,0-.64.23-.64,1.05s.25,1,.64,1,.64-.22.64-1S168.34,62.08,168,62.08Z"/><path class="cls-5" d="M170.14,63.13c0,.7.22,1,.74,1a1.39,1.39,0,0,0,.5-.09.55.55,0,0,1,.15.39,1.41,1.41,0,0,1-.76.16c-.78,0-1.18-.51-1.18-1.46s.4-1.46,1.18-1.46a1.41,1.41,0,0,1,.71.13.57.57,0,0,1-.15.39,1.32,1.32,0,0,0-.47-.08C170.34,62.11,170.14,62.43,170.14,63.13Z"/><path class="cls-5" d="M172.39,63.29c0,.64.3.84.74.84a1.32,1.32,0,0,0,.63-.15.5.5,0,0,1,.17.38,1.52,1.52,0,0,1-.88.23c-.82,0-1.21-.51-1.21-1.48s.48-1.44,1.19-1.44a1,1,0,0,1,1.05,1.07,2.61,2.61,0,0,1-.05.55Zm.64-1.2c-.35,0-.6.23-.64.82h1.14a1.1,1.1,0,0,0,0-.24C173.55,62.36,173.42,62.09,173,62.09Z"/><path class="cls-5" d="M175.51,61.67a1.55,1.55,0,0,1,.75.14.5.5,0,0,1-.14.38,2,2,0,0,0-.56-.08c-.36,0-.54.13-.54.38s.34.33.67.44.71.28.71.8-.33.86-1,.86a1.84,1.84,0,0,1-.89-.2.52.52,0,0,1,.14-.39,2.35,2.35,0,0,0,.72.13c.33,0,.51-.12.51-.38s-.29-.36-.6-.45-.76-.26-.76-.79S174.83,61.67,175.51,61.67Z"/><path class="cls-5" d="M180.35,61.67a.75.75,0,0,1,0,.42l-.45,0a1,1,0,0,1,.15.56.91.91,0,0,1-1,1h-.24a.46.46,0,0,0-.1.31c.06.49,1.67,0,1.67,1.06,0,.53-.51.92-1.37.92s-1.14-.32-1.14-.75a.88.88,0,0,1,.48-.73.41.41,0,0,1-.12-.31.9.9,0,0,1,.26-.59.86.86,0,0,1-.49-.86c0-.6.36-1,1-1a1.29,1.29,0,0,1,.59.12Zm-1.76,2.86a.66.66,0,0,0-.24.49c0,.27.2.47.63.47s.85-.2.85-.48C179.83,64.57,179.07,64.68,178.59,64.53ZM179,62a.51.51,0,0,0-.54.59.51.51,0,0,0,.54.58c.32,0,.53-.18.53-.58S179.33,62,179,62Z"/><path class="cls-5" d="M181.85,61.67c.74,0,1.19.4,1.19,1.46s-.46,1.46-1.19,1.46-1.18-.4-1.18-1.46S181.12,61.67,181.85,61.67Zm0,.41c-.39,0-.64.23-.64,1.05s.25,1,.64,1,.64-.22.64-1S182.24,62.08,181.85,62.08Z"/><path class="cls-5" d="M183.63,61.76a.66.66,0,0,1,.27,0,.7.7,0,0,1,.26,0V65c0,.57-.27.87-.77.87a1.09,1.09,0,0,1-.36-.05.35.35,0,0,1,0-.12.54.54,0,0,1,.06-.28.59.59,0,0,0,.19,0c.24,0,.37-.13.37-.43Zm.54-.58a.72.72,0,0,1-.27,0,.69.69,0,0,1-.28,0v-.5a.69.69,0,0,1,.28,0,.72.72,0,0,1,.27,0Z"/><path class="cls-5" d="M185.31,63.29c0,.64.29.84.74.84a1.32,1.32,0,0,0,.63-.15.59.59,0,0,1,.17.38,1.57,1.57,0,0,1-.89.23c-.82,0-1.21-.51-1.21-1.48s.48-1.44,1.19-1.44A1,1,0,0,1,187,62.74a2.2,2.2,0,0,1-.06.55Zm.63-1.2c-.35,0-.59.23-.63.82h1.14s0-.12,0-.24C186.46,62.36,186.34,62.09,185.94,62.09Z"/><path class="cls-5" d="M189.71,64.5a.9.9,0,0,1-.26,0,.86.86,0,0,1-.27,0V62.57c0-.3-.16-.47-.5-.47a.74.74,0,0,0-.6.34V64.5a1,1,0,0,1-.27,0,.86.86,0,0,1-.27,0V61.76a.66.66,0,0,1,.27,0,.79.79,0,0,1,.27,0V62a1,1,0,0,1,.8-.34.76.76,0,0,1,.83.81Z"/><path class="cls-5" d="M191,61.18a.82.82,0,0,1-.28,0,.75.75,0,0,1-.28,0v-.5a.75.75,0,0,1,.28,0,.82.82,0,0,1,.28,0Zm0,3.32a.94.94,0,0,1-.27,0,.86.86,0,0,1-.27,0V61.76a.66.66,0,0,1,.27,0,.72.72,0,0,1,.27,0Z"/><path class="cls-5" d="M192.64,61.67c.77,0,1,.35,1,1V64.5a.52.52,0,0,1-.21,0,.68.68,0,0,1-.22,0l-.08-.35a.84.84,0,0,1-.83.44.78.78,0,0,1-.83-.9c0-.58.36-.83,1-.83a4.93,4.93,0,0,1,.61,0v-.2c0-.36-.14-.57-.55-.57a2.25,2.25,0,0,0-.71.13.39.39,0,0,1-.13-.16.57.57,0,0,1,0-.22A2.3,2.3,0,0,1,192.64,61.67Zm-.06,1.55c-.36,0-.54.14-.54.47s.17.48.46.48a.65.65,0,0,0,.62-.73v-.19C193,63.24,192.79,63.22,192.58,63.22Z"/><path class="cls-5" d="M194.84,60.35a3,3,0,0,0,0,2.81.2.2,0,0,1-.1.09.29.29,0,0,1-.13,0,3.18,3.18,0,0,1-.42-1.53,3.13,3.13,0,0,1,.42-1.53.37.37,0,0,1,.13,0A.2.2,0,0,1,194.84,60.35Z"/><path class="cls-5" d="M195.17,60.72a1.5,1.5,0,0,1,.57-.11c.38,0,.68.15.68.56s-.22.53-.59.75c-.18.12-.44.23-.44.48,0,0,0,.06,0,.07h1a.32.32,0,0,1,0,.14.26.26,0,0,1,0,.14h-1.26a1.21,1.21,0,0,1,0-.21c0-.48.31-.66.6-.84s.41-.28.41-.52-.12-.32-.4-.32a1.4,1.4,0,0,0-.44.08A.23.23,0,0,1,195.17,60.72Z"/><path class="cls-5" d="M196.69,60.35a.29.29,0,0,1,.1-.09.44.44,0,0,1,.14,0,3.13,3.13,0,0,1,.42,1.53,3.18,3.18,0,0,1-.42,1.53.31.31,0,0,1-.14,0,.29.29,0,0,1-.1-.09,3,3,0,0,0,0-2.81Z"/></svg>