<svg id="Warstwa_1" data-name="Warstwa 1" xmlns="http://www.w3.org/2000/svg" viewBox="0 0 825 500"><defs><style>.cls-1{fill:#0056a4;}</style></defs><title>nie_zaleca_sie</title><path class="cls-1" d="M88.85,136.52a37.6,37.6,0,0,1-2.6-5.69h-.18s.31,3,.31,7.41v18.34a5.43,5.43,0,0,1-2.11.31,4.9,4.9,0,0,1-2-.31V125.46a9.26,9.26,0,0,1,2.69-.31,8.75,8.75,0,0,1,2.64.31l11,19.88a51.16,51.16,0,0,1,2.73,5.86h.13s-.31-3.26-.31-7.36V125.46a5.52,5.52,0,0,1,2.12-.31,4.68,4.68,0,0,1,2,.31v31.12a8.28,8.28,0,0,1-2.6.31,9.26,9.26,0,0,1-2.69-.31Z"/><path class="cls-1" d="M116.05,129.25a7,7,0,0,1-2.3.31,6.3,6.3,0,0,1-2.29-.31V125.1a6.3,6.3,0,0,1,2.29-.31,7,7,0,0,1,2.3.31ZM116,156.58a6.31,6.31,0,0,1-2.21.31,5.7,5.7,0,0,1-2.2-.31V134a5.7,5.7,0,0,1,2.2-.31A6.31,6.31,0,0,1,116,134Z"/><path class="cls-1" d="M125.08,146.66c.35,5.25,2.47,6.92,6.13,6.92a10.66,10.66,0,0,0,5.2-1.28,4.56,4.56,0,0,1,1.41,3.18s-2.51,1.85-7.32,1.85c-6.79,0-10-4.19-10-12.17,0-8.33,3.92-11.9,9.79-11.9,5.42,0,8.73,3,8.73,8.86a18.58,18.58,0,0,1-.49,4.54Zm5.25-9.92c-2.87,0-4.9,1.9-5.25,6.79h9.43a13.93,13.93,0,0,0,.14-2C134.65,139,133.59,136.74,130.33,136.74Z"/><path class="cls-1" d="M167.35,153.27a4.93,4.93,0,0,1,.27,1.81,5.56,5.56,0,0,1-.27,1.81H151a8,8,0,0,1-.27-1.9,6,6,0,0,1,.27-1.72l11.72-16h-11a6,6,0,0,1-.27-1.85,4.79,4.79,0,0,1,.27-1.76h15.6a4.45,4.45,0,0,1,.27,1.72,5.81,5.81,0,0,1-.27,1.89l-11.68,16Z"/><path class="cls-1" d="M180,133.26c6.39,0,8.42,2.86,8.42,8.55v14.77a3.48,3.48,0,0,1-1.72.31,4.57,4.57,0,0,1-1.77-.31l-.66-2.82c-1.14,2.33-3.57,3.57-6.92,3.57-4.14,0-6.83-2.43-6.83-7.36s3-6.93,8.46-6.93a47.67,47.67,0,0,1,5,.27v-1.63c0-3-1.15-4.72-4.54-4.72a18.39,18.39,0,0,0-5.91,1.1,3.43,3.43,0,0,1-1-1.32,3.8,3.8,0,0,1-.27-1.85A19.19,19.19,0,0,1,180,133.26ZM179.52,146c-3,0-4.5,1.15-4.5,3.93s1.45,4,3.83,4c3.49,0,5.12-3,5.12-6.08v-1.54C183,146.22,181.19,146,179.52,146Z"/><path class="cls-1" d="M198.25,156.58a6.31,6.31,0,0,1-2.21.31,5.7,5.7,0,0,1-2.2-.31V124.13a5.7,5.7,0,0,1,2.2-.31,6.31,6.31,0,0,1,2.21.31Z"/><path class="cls-1" d="M207.42,146.66c.35,5.25,2.47,6.92,6.12,6.92a10.73,10.73,0,0,0,5.21-1.28,4.61,4.61,0,0,1,1.41,3.18s-2.52,1.85-7.32,1.85c-6.79,0-10-4.19-10-12.17,0-8.33,3.92-11.9,9.78-11.9,5.43,0,8.73,3,8.73,8.86a19,19,0,0,1-.48,4.54Zm5.24-9.92c-2.86,0-4.89,1.9-5.24,6.79h9.43a16.23,16.23,0,0,0,.13-2C217,139,215.93,136.74,212.66,136.74Z"/><path class="cls-1" d="M229.15,145.29c0,5.78,1.85,8.29,6.08,8.29a11.33,11.33,0,0,0,4.14-.75,4.62,4.62,0,0,1,1.28,3.17s-1.94,1.33-6.35,1.33c-6.43,0-9.69-4.19-9.69-12s3.26-12,9.69-12c4.24,0,5.91,1.1,5.91,1.1a4.45,4.45,0,0,1-1.28,3.17,10.72,10.72,0,0,0-3.88-.66C230.82,136.87,229.15,139.56,229.15,145.29Z"/><path class="cls-1" d="M252.42,133.26c6.39,0,8.42,2.86,8.42,8.55v14.77a3.48,3.48,0,0,1-1.72.31,4.48,4.48,0,0,1-1.76-.31l-.66-2.82c-1.15,2.33-3.58,3.57-6.93,3.57-4.14,0-6.83-2.43-6.83-7.36s3-6.93,8.47-6.93a47.62,47.62,0,0,1,5,.27v-1.63c0-3-1.15-4.72-4.54-4.72a18.39,18.39,0,0,0-5.91,1.1,3.43,3.43,0,0,1-1-1.32,3.73,3.73,0,0,1-.26-1.85A19.11,19.11,0,0,1,252.42,133.26ZM252,146c-3,0-4.5,1.15-4.5,3.93s1.46,4,3.84,4c3.48,0,5.11-3,5.11-6.08v-1.54C255.42,146.22,253.65,146,252,146Z"/><path class="cls-1" d="M282.44,133.26c4.32,0,6.21,1.19,6.21,1.19a4.5,4.5,0,0,1-1.14,3.13,16.29,16.29,0,0,0-4.63-.71c-3,0-4.5,1.11-4.5,3.18s2.78,2.69,5.55,3.61,5.87,2.29,5.87,6.61-2.78,7.06-8.38,7.06a15.68,15.68,0,0,1-7.36-1.59,4.51,4.51,0,0,1,1.19-3.26,18.86,18.86,0,0,0,5.95,1.1c2.69,0,4.23-1,4.23-3.17,0-2.43-2.42-3-5-3.71-3-.88-6.26-2.16-6.26-6.52C274.15,136,276.84,133.26,282.44,133.26Z"/><path class="cls-1" d="M298.48,129.25a6.85,6.85,0,0,1-2.29.31,6.23,6.23,0,0,1-2.29-.31V125.1a6.23,6.23,0,0,1,2.29-.31,6.85,6.85,0,0,1,2.29.31Zm-.09,27.33a6.28,6.28,0,0,1-2.2.31,5.73,5.73,0,0,1-2.21-.31V134a5.73,5.73,0,0,1,2.21-.31,6.28,6.28,0,0,1,2.2.31Z"/><path class="cls-1" d="M312.76,133.26c5.42,0,8.73,3,8.73,8.86a19,19,0,0,1-.48,4.54h-13.5c.36,5.25,2.47,6.92,6.13,6.92a10.66,10.66,0,0,0,5.2-1.28,4.57,4.57,0,0,1,1.42,3.18,9.73,9.73,0,0,1-3.22,1.36c-2.47.75-4.1,2.38-4.1,4.41,0,1.5,1.06,1.63,2.33,1.63a2.91,2.91,0,0,0,1.41-.35,2.22,2.22,0,0,1,.71,1.85,6.17,6.17,0,0,1-3,.84c-2.47,0-4.36-.93-4.36-3.57a5.26,5.26,0,0,1,2.25-4.32C306,157,303,152.87,303,145.16,303,136.83,306.9,133.26,312.76,133.26Zm0,3.48c-2.86,0-4.89,1.9-5.25,6.79H317a16.23,16.23,0,0,0,.13-2C317.08,139,316,136.74,312.76,136.74Z"/><path class="cls-1" d="M344.5,133.3a7,7,0,0,1,3.83,1.1,5,5,0,0,1-1.94,3.71,4.44,4.44,0,0,0-2.73-.93c-1.72,0-3.4,1.32-4.54,3.35v16.05a6.31,6.31,0,0,1-2.21.31,5.7,5.7,0,0,1-2.2-.31V134a5.7,5.7,0,0,1,2.2-.31,6.31,6.31,0,0,1,2.21.31v3C340.79,134.27,342.73,133.3,344.5,133.3Z"/><path class="cls-1" d="M351,134a6.31,6.31,0,0,1,2.21-.31,6,6,0,0,1,2.2.31v15.87c0,2.47,1.28,3.88,4.1,3.88a6,6,0,0,0,5-2.82V134a6.67,6.67,0,0,1,2.21-.31,5.7,5.7,0,0,1,2.2.31v22.57a5.7,5.7,0,0,1-2.2.31,6.67,6.67,0,0,1-2.21-.31v-2a8.58,8.58,0,0,1-6.65,2.78c-4.41,0-6.84-2.69-6.84-6.66Z"/><path class="cls-1" d="M380.29,148.56c0,4,1.27,5.2,4.4,5.2a11.88,11.88,0,0,0,1.86-.18,5.21,5.21,0,0,1,.3,1.76,4.82,4.82,0,0,1-.22,1.59,12.64,12.64,0,0,1-3.17.4c-5.42,0-7.58-3-7.58-8.55V137h-3.4a4.61,4.61,0,0,1-.26-1.64,4.37,4.37,0,0,1,.26-1.67h3.4v-4a7.41,7.41,0,0,1,4.41-.88v4.89H386a4.26,4.26,0,0,1,.26,1.63A5.07,5.07,0,0,1,386,137h-5.73Z"/><path class="cls-1" d="M400.65,160.28c-1.59,4.85-3.13,7.63-7.89,7.63a6.31,6.31,0,0,1-2.42-.44,5.15,5.15,0,0,1-.31-1.63,4.35,4.35,0,0,1,.35-1.77,12.36,12.36,0,0,0,2,.18c2,0,3-.53,4.32-4.67l.93-2.69a4.44,4.44,0,0,1-1.41-.31L387.82,134a7.22,7.22,0,0,1,2.29-.31,7,7,0,0,1,2.3.31l5,13.4a43.21,43.21,0,0,1,1.55,5.16h.17s.44-2.08,1.41-5.12L404.93,134a5.83,5.83,0,0,1,2.16-.31,6.24,6.24,0,0,1,2.07.31Z"/><path class="cls-1" d="M430.31,156.58a6.21,6.21,0,0,1-2.2.31,6,6,0,0,1-2.2-.31V140.71c0-2.47-1.28-3.88-4.1-3.88a6,6,0,0,0-5,2.82v16.93a6.67,6.67,0,0,1-2.21.31,5.7,5.7,0,0,1-2.2-.31V134a5.7,5.7,0,0,1,2.2-.31,6.67,6.67,0,0,1,2.21.31v2a8.51,8.51,0,0,1,6.65-2.78c4.41,0,6.83,2.69,6.83,6.65Z"/><path class="cls-1" d="M444.46,133.26c6.09,0,9.79,3.3,9.79,12s-3.75,12-9.79,12-9.78-3.31-9.78-12S438.42,133.26,444.46,133.26Zm0,3.39c-3.22,0-5.29,1.85-5.29,8.64s2.07,8.64,5.29,8.64,5.25-1.85,5.25-8.64S447.68,136.65,444.46,136.65Z"/><path class="cls-1" d="M474.43,144.63a30.43,30.43,0,0,1-1.18-6.35h-.18a27.9,27.9,0,0,1-1.24,6.35l-3.48,12a8.48,8.48,0,0,1-2.51.31,9.26,9.26,0,0,1-2.56-.31L456.63,134a6.56,6.56,0,0,1,2.2-.31,3.5,3.5,0,0,1,1.9.31l4.18,14.06a26.79,26.79,0,0,1,.93,4.32H466a37.74,37.74,0,0,1,1-4.32L471,134a9.32,9.32,0,0,1,2.38-.31,5.89,5.89,0,0,1,2.16.31l3.92,14a24.74,24.74,0,0,1,.88,4.41h.13a41.26,41.26,0,0,1,1.11-4.36l4.14-14a5.26,5.26,0,0,1,1.94-.31,4.12,4.12,0,0,1,1.9.31l-6.66,22.57a9.14,9.14,0,0,1-2.51.31,9.71,9.71,0,0,1-2.56-.31Z"/><path class="cls-1" d="M496.47,146.66c.36,5.25,2.47,6.92,6.13,6.92a10.66,10.66,0,0,0,5.2-1.28,4.56,4.56,0,0,1,1.41,3.18s-2.51,1.85-7.32,1.85c-6.78,0-10-4.19-10-12.17,0-8.33,3.92-11.9,9.79-11.9,5.42,0,8.73,3,8.73,8.86a18.58,18.58,0,0,1-.49,4.54Zm5.25-9.92c-2.87,0-4.89,1.9-5.25,6.79h9.44a16.23,16.23,0,0,0,.13-2C506,139,505,136.74,501.72,136.74Z"/><path class="cls-1" d="M533.5,133.26a5.2,5.2,0,0,1,0,3.48l-3.66-.18a8.05,8.05,0,0,1,1.23,4.63c0,4.94-3,7.94-8.64,7.94a14.33,14.33,0,0,1-1.94-.13,3.87,3.87,0,0,0-.83,2.55c.48,4.06,13.79-.26,13.79,8.82,0,4.32-4.18,7.54-11.32,7.54-6.62,0-9.39-2.6-9.39-6.13,0-3.35,2.73-5.38,3.92-6.08a3.46,3.46,0,0,1-1-2.56,7.94,7.94,0,0,1,2.11-4.89c-2.64-1.24-4-3.71-4-7.06,0-4.93,3-7.93,8.64-7.93a10.64,10.64,0,0,1,4.9,1ZM519,156.89a5.34,5.34,0,0,0-2,4c0,2.2,1.63,3.88,5.25,3.88,4.54,0,7-1.63,7-4C529.27,157.2,523,158.12,519,156.89Zm3.39-20.55c-2.64,0-4.45,1.55-4.45,4.85s1.81,4.81,4.45,4.81,4.41-1.5,4.41-4.81S525.08,136.34,522.43,136.34Z"/><path class="cls-1" d="M545.93,133.26c6.08,0,9.78,3.3,9.78,12s-3.74,12-9.78,12-9.79-3.31-9.79-12S539.89,133.26,545.93,133.26Zm0,3.39c-3.22,0-5.29,1.85-5.29,8.64s2.07,8.64,5.29,8.64,5.24-1.85,5.24-8.64S549.15,136.65,545.93,136.65Z"/><path class="cls-1" d="M88.81,186.15c4.32,0,6.21,1.19,6.21,1.19a4.46,4.46,0,0,1-1.14,3.13,16.5,16.5,0,0,0-4.63-.7c-3,0-4.5,1.1-4.5,3.17s2.78,2.69,5.55,3.62,5.87,2.29,5.87,6.61-2.78,7.05-8.38,7.05a15.68,15.68,0,0,1-7.36-1.59,4.53,4.53,0,0,1,1.19-3.26,18.86,18.86,0,0,0,5.95,1.1c2.69,0,4.23-1,4.23-3.17,0-2.43-2.42-3-5-3.7-3-.89-6.26-2.16-6.26-6.53C80.52,188.93,83.21,186.15,88.81,186.15Z"/><path class="cls-1" d="M106.17,201.45c0,4,1.28,5.2,4.41,5.2a11.85,11.85,0,0,0,1.85-.18,5.09,5.09,0,0,1,.31,1.77,4.78,4.78,0,0,1-.22,1.58,12.64,12.64,0,0,1-3.17.4c-5.42,0-7.59-2.95-7.59-8.55V189.9H98.37a4.58,4.58,0,0,1-.26-1.63,4.46,4.46,0,0,1,.26-1.68h3.39v-4a7.58,7.58,0,0,1,4.41-.88v4.89h5.73a4.18,4.18,0,0,1,.27,1.63,4.83,4.83,0,0,1-.27,1.68h-5.73Z"/><path class="cls-1" d="M124.82,186.15c6.08,0,9.78,3.31,9.78,12s-3.74,12-9.78,12-9.79-3.31-9.79-12S118.78,186.15,124.82,186.15Zm0,3.4c-3.22,0-5.29,1.85-5.29,8.64s2.07,8.64,5.29,8.64,5.24-1.86,5.24-8.64S128,189.55,124.82,189.55Z"/><path class="cls-1" d="M146.37,186.15c4.32,0,6.22,1.19,6.22,1.19a4.47,4.47,0,0,1-1.15,3.13,16.5,16.5,0,0,0-4.63-.7c-3,0-4.49,1.1-4.49,3.17s2.77,2.69,5.55,3.62,5.86,2.29,5.86,6.61-2.77,7.05-8.37,7.05a15.68,15.68,0,0,1-7.36-1.59,4.52,4.52,0,0,1,1.18-3.26,18.88,18.88,0,0,0,6,1.1c2.69,0,4.23-1,4.23-3.17,0-2.43-2.43-3-5-3.7-3-.89-6.26-2.16-6.26-6.53C138.08,188.93,140.77,186.15,146.37,186.15Z"/><path class="cls-1" d="M166.6,186.15c6.09,0,9.79,3.31,9.79,12s-3.75,12-9.79,12-9.78-3.31-9.78-12S160.56,186.15,166.6,186.15Zm0,3.4c-3.22,0-5.29,1.85-5.29,8.64s2.07,8.64,5.29,8.64,5.25-1.86,5.25-8.64S169.82,189.55,166.6,189.55Z"/><path class="cls-1" d="M196.58,197.52a29.9,29.9,0,0,1-1.19-6.34h-.18a27.94,27.94,0,0,1-1.24,6.34l-3.48,11.95a8.48,8.48,0,0,1-2.51.31,9.26,9.26,0,0,1-2.56-.31l-6.65-22.57a6.56,6.56,0,0,1,2.2-.31,3.5,3.5,0,0,1,1.9.31L187.05,201a27,27,0,0,1,.93,4.32h.13a37.74,37.74,0,0,1,1-4.32l4.06-14.06a9.32,9.32,0,0,1,2.38-.31,5.89,5.89,0,0,1,2.16.31l3.92,14a24.91,24.91,0,0,1,.88,4.41h.13a42.54,42.54,0,0,1,1.11-4.36l4.14-14a5.26,5.26,0,0,1,1.94-.31,4.12,4.12,0,0,1,1.9.31L205,209.47a9.14,9.14,0,0,1-2.51.31,9.71,9.71,0,0,1-2.56-.31Z"/><path class="cls-1" d="M223.11,186.15c6.39,0,8.42,2.87,8.42,8.55v14.77a3.48,3.48,0,0,1-1.72.31,4.48,4.48,0,0,1-1.76-.31l-.67-2.82c-1.14,2.34-3.57,3.57-6.92,3.57-4.14,0-6.83-2.42-6.83-7.36s3-6.92,8.46-6.92a48.11,48.11,0,0,1,5,.26v-1.63c0-3-1.15-4.72-4.54-4.72a18.24,18.24,0,0,0-5.91,1.11,3.63,3.63,0,0,1-1-1.33,3.79,3.79,0,0,1-.27-1.85A19.19,19.19,0,0,1,223.11,186.15Zm-.44,12.79c-3,0-4.5,1.14-4.5,3.92s1.46,4,3.84,4c3.48,0,5.11-3,5.11-6.09V199.2C226.11,199.11,224.34,198.94,222.67,198.94Z"/><path class="cls-1" d="M254.76,209.47a6.31,6.31,0,0,1-2.21.31,6,6,0,0,1-2.2-.31V193.6c0-2.47-1.28-3.88-4.1-3.88a6,6,0,0,0-5,2.82v16.93a6.59,6.59,0,0,1-2.21.31,5.7,5.7,0,0,1-2.2-.31V186.9a5.7,5.7,0,0,1,2.2-.31,6.59,6.59,0,0,1,2.21.31v2a8.54,8.54,0,0,1,6.66-2.78c4.4,0,6.83,2.69,6.83,6.66Z"/><path class="cls-1" d="M264.72,182.14a6.92,6.92,0,0,1-2.29.31,6.33,6.33,0,0,1-2.3-.31V178a6.33,6.33,0,0,1,2.3-.31,6.92,6.92,0,0,1,2.29.31Zm-.09,27.33a6.28,6.28,0,0,1-2.2.31,5.73,5.73,0,0,1-2.21-.31V186.9a5.73,5.73,0,0,1,2.21-.31,6.28,6.28,0,0,1,2.2.31Z"/><path class="cls-1" d="M278.25,186.15c6.39,0,8.42,2.87,8.42,8.55v14.77a3.48,3.48,0,0,1-1.72.31,4.48,4.48,0,0,1-1.76-.31l-.66-2.82c-1.15,2.34-3.58,3.57-6.93,3.57-4.14,0-6.83-2.42-6.83-7.36s3-6.92,8.47-6.92a48.05,48.05,0,0,1,5,.26v-1.63c0-3-1.15-4.72-4.54-4.72a18.24,18.24,0,0,0-5.91,1.11,3.63,3.63,0,0,1-1-1.33,3.72,3.72,0,0,1-.26-1.85A19.11,19.11,0,0,1,278.25,186.15Zm-.44,12.79c-3,0-4.5,1.14-4.5,3.92s1.46,4,3.84,4c3.48,0,5.11-3,5.11-6.09V199.2C281.25,199.11,279.48,198.94,277.81,198.94Z"/><path class="cls-1" d="M311.75,186.15c5,0,8.29,3,8.29,12s-3.27,12-8.29,12c-3.13,0-5.12-1.06-6.35-2.86V219.7a7.57,7.57,0,0,1-2.25.26,6.92,6.92,0,0,1-2.16-.26V186.9a5.89,5.89,0,0,1,2.16-.31,6.44,6.44,0,0,1,2.25.31V189C306.63,187.21,308.62,186.15,311.75,186.15Zm-1.54,3.62c-3.09,0-4.81,2.55-4.81,5.55V201c0,3,1.72,5.65,4.81,5.65,3.52,0,5.29-1.86,5.29-8.42S313.73,189.77,310.21,189.77Z"/><path class="cls-1" d="M334.4,186.2a6.93,6.93,0,0,1,3.84,1.1,5,5,0,0,1-1.94,3.7,4.44,4.44,0,0,0-2.73-.93c-1.72,0-3.4,1.33-4.54,3.36v16a6.31,6.31,0,0,1-2.21.31,5.7,5.7,0,0,1-2.2-.31V186.9a5.7,5.7,0,0,1,2.2-.31,6.31,6.31,0,0,1,2.21.31v3C330.7,187.17,332.64,186.2,334.4,186.2Z"/><path class="cls-1" d="M349.83,186.15c6.08,0,9.79,3.31,9.79,12s-3.75,12-9.79,12-9.79-3.31-9.79-12S343.79,186.15,349.83,186.15Zm0,3.4c-3.22,0-5.29,1.85-5.29,8.64s2.07,8.64,5.29,8.64,5.25-1.86,5.25-8.64S353.05,189.55,349.83,189.55Z"/><path class="cls-1" d="M373.72,176.72a27.49,27.49,0,0,1,9,1.41,4.67,4.67,0,0,1-1.15,3.08,28.15,28.15,0,0,0-7.58-1c-3,0-4.28,1.06-4.28,3.49v2.86h11a11.16,11.16,0,0,1,2.3.27v22.61a6.31,6.31,0,0,1-2.21.31,5.7,5.7,0,0,1-2.2-.31V189.9h-8.91v19.57a6.16,6.16,0,0,1-2.16.31,5.7,5.7,0,0,1-2.2-.31V189.9h-2.82a5.81,5.81,0,0,1-.22-1.68,5.32,5.32,0,0,1,.22-1.63h2.82V184C365.39,179.45,367.9,176.72,373.72,176.72Z"/><path class="cls-1" d="M393.2,209.47a6.28,6.28,0,0,1-2.2.31,5.73,5.73,0,0,1-2.21-.31V177a5.73,5.73,0,0,1,2.21-.31,6.28,6.28,0,0,1,2.2.31Z"/><path class="cls-1" d="M406.87,186.15c6.39,0,8.41,2.87,8.41,8.55v14.77a3.41,3.41,0,0,1-1.71.31,4.5,4.5,0,0,1-1.77-.31l-.66-2.82c-1.14,2.34-3.57,3.57-6.92,3.57-4.14,0-6.83-2.42-6.83-7.36s2.95-6.92,8.46-6.92a48.11,48.11,0,0,1,5,.26v-1.63c0-3-1.15-4.72-4.54-4.72a18.24,18.24,0,0,0-5.91,1.11,3.51,3.51,0,0,1-1-1.33,3.79,3.79,0,0,1-.27-1.85A19.19,19.19,0,0,1,406.87,186.15Zm-.44,12.79c-3,0-4.5,1.14-4.5,3.92s1.45,4,3.83,4c3.49,0,5.12-3,5.12-6.09V199.2C409.86,199.11,408.1,198.94,406.43,198.94Z"/><path class="cls-1" d="M433.53,186.9a7.48,7.48,0,0,1,2.25-.31,8.56,8.56,0,0,1,2.16.27l-6.79,10.53L439,209.47a8,8,0,0,1-2.47.35,7,7,0,0,1-2.38-.35l-6.62-10.14H425v10.14a7.12,7.12,0,0,1-2.16.31,7,7,0,0,1-2.24-.31V176.94a10.16,10.16,0,0,1,2.24-.22,10.88,10.88,0,0,1,2.16.22V196h2.52Z"/><path class="cls-1" d="M447.68,201.45c0,4,1.28,5.2,4.41,5.2a11.85,11.85,0,0,0,1.85-.18,5.09,5.09,0,0,1,.31,1.77,4.78,4.78,0,0,1-.22,1.58,12.72,12.72,0,0,1-3.18.4c-5.42,0-7.58-2.95-7.58-8.55V189.9h-3.39a4.43,4.43,0,0,1-.27-1.63,4.31,4.31,0,0,1,.27-1.68h3.39v-4a7.58,7.58,0,0,1,4.41-.88v4.89h5.73a4.18,4.18,0,0,1,.27,1.63,4.83,4.83,0,0,1-.27,1.68h-5.73Z"/><path class="cls-1" d="M468,213.17c-1.58,4.85-3.13,7.63-7.89,7.63a6.37,6.37,0,0,1-2.42-.44,5.07,5.07,0,0,1-.31-1.63,4.23,4.23,0,0,1,.35-1.76,13.11,13.11,0,0,0,2,.17c2,0,3-.53,4.32-4.67l.92-2.69a4.23,4.23,0,0,1-1.41-.31l-8.37-22.57a7.14,7.14,0,0,1,2.29-.31,6.85,6.85,0,0,1,2.29.31l5,13.4a41.82,41.82,0,0,1,1.54,5.16h.18s.44-2.07,1.41-5.11l4.36-13.45a5.89,5.89,0,0,1,2.16-.31,6.17,6.17,0,0,1,2.07.31Z"/><path class="cls-1" d="M492.73,186.9a7.4,7.4,0,0,1,2.25-.31,8.56,8.56,0,0,1,2.16.27l-6.79,10.53,7.8,12.08a8,8,0,0,1-2.47.35,7,7,0,0,1-2.38-.35l-6.61-10.14h-2.47v10.14a8,8,0,0,1-4.41,0V176.94a10.2,10.2,0,0,1,2.25-.22,10.88,10.88,0,0,1,2.16.22V196h2.51Z"/><path class="cls-1" d="M505.55,182.14a6.85,6.85,0,0,1-2.29.31,6.23,6.23,0,0,1-2.29-.31V178a6.23,6.23,0,0,1,2.29-.31,6.85,6.85,0,0,1,2.29.31Zm-.09,27.33a6.21,6.21,0,0,1-2.2.31,5.7,5.7,0,0,1-2.2-.31V186.9a5.7,5.7,0,0,1,2.2-.31,6.21,6.21,0,0,1,2.2.31Z"/><path class="cls-1" d="M89.56,239C96,239,98,241.91,98,247.6v14.76a3.48,3.48,0,0,1-1.72.31,4.5,4.5,0,0,1-1.77-.31l-.66-2.82c-1.14,2.34-3.57,3.57-6.92,3.57-4.14,0-6.83-2.42-6.83-7.36s3-6.92,8.46-6.92a48.11,48.11,0,0,1,5,.26v-1.63c0-3-1.15-4.71-4.54-4.71a18.39,18.39,0,0,0-5.91,1.1,3.53,3.53,0,0,1-1-1.32,3.81,3.81,0,0,1-.27-1.85A19.09,19.09,0,0,1,89.56,239Zm-.45,12.79c-3,0-4.49,1.14-4.49,3.92s1.45,4,3.83,4c3.49,0,5.12-3,5.12-6.08v-1.55C92.55,252,90.79,251.83,89.11,251.83Z"/><path class="cls-1" d="M121.2,262.36a6.21,6.21,0,0,1-2.2.31,6,6,0,0,1-2.2-.31V246.49c0-2.46-1.28-3.88-4.1-3.88a6,6,0,0,0-5,2.83v16.92a6.67,6.67,0,0,1-2.21.31,5.7,5.7,0,0,1-2.2-.31V239.79a5.7,5.7,0,0,1,2.2-.31,6.67,6.67,0,0,1,2.21.31v2a8.51,8.51,0,0,1,6.65-2.78c4.41,0,6.83,2.69,6.83,6.66Z"/><path class="cls-1" d="M132.49,254.34c0,4,1.27,5.2,4.4,5.2a12.56,12.56,0,0,0,1.86-.17,5.21,5.21,0,0,1,.3,1.76,5.1,5.1,0,0,1-.21,1.59,12.83,12.83,0,0,1-3.18.39c-5.42,0-7.58-2.95-7.58-8.55V242.79h-3.4a4.58,4.58,0,0,1-.26-1.63,4.46,4.46,0,0,1,.26-1.68h3.4v-4a7.56,7.56,0,0,1,4.41-.88v4.89h5.73a4.35,4.35,0,0,1,.26,1.64,5,5,0,0,1-.26,1.67h-5.73Z"/><path class="cls-1" d="M152.85,266.07c-1.59,4.85-3.13,7.62-7.89,7.62a6.37,6.37,0,0,1-2.42-.44,5.07,5.07,0,0,1-.31-1.63,4.23,4.23,0,0,1,.35-1.76,13.06,13.06,0,0,0,2,.17c2,0,3-.52,4.32-4.67l.93-2.69a4.18,4.18,0,0,1-1.41-.31L140,239.79a7.25,7.25,0,0,1,2.3-.31,6.92,6.92,0,0,1,2.29.31l5,13.4a41.57,41.57,0,0,1,1.55,5.16h.17s.44-2.07,1.41-5.11l4.37-13.45a5.83,5.83,0,0,1,2.16-.31,6.17,6.17,0,0,1,2.07.31Z"/><path class="cls-1" d="M169,241.91c1.23-1.81,3.21-2.87,6.34-2.87,5,0,8.29,3.05,8.29,12s-3.26,12-8.29,12c-3.13,0-5.11-1.05-6.34-2.86v2.11a6.44,6.44,0,0,1-2.25.31,5.83,5.83,0,0,1-2.16-.31V229.92a5.83,5.83,0,0,1,2.16-.31,6.44,6.44,0,0,1,2.25.31Zm4.8.75c-3.08,0-4.8,2.56-4.8,5.55v5.65c0,3,1.72,5.64,4.8,5.64,3.53,0,5.29-1.85,5.29-8.42S177.36,242.66,173.83,242.66Z"/><path class="cls-1" d="M192.78,235a6.85,6.85,0,0,1-2.29.31,6.23,6.23,0,0,1-2.29-.31v-4.14a6.23,6.23,0,0,1,2.29-.31,6.85,6.85,0,0,1,2.29.31Zm-.08,27.33a6.31,6.31,0,0,1-2.21.31,5.7,5.7,0,0,1-2.2-.31V239.79a5.7,5.7,0,0,1,2.2-.31,6.31,6.31,0,0,1,2.21.31Z"/><path class="cls-1" d="M207.06,239c6.09,0,9.79,3.31,9.79,12s-3.75,12-9.79,12-9.78-3.3-9.78-12S201,239,207.06,239Zm0,3.4c-3.21,0-5.29,1.85-5.29,8.64s2.08,8.64,5.29,8.64,5.25-1.85,5.25-8.64S210.28,242.44,207.06,242.44Z"/><path class="cls-1" d="M227.25,254.34c0,4,1.28,5.2,4.41,5.2a12.52,12.52,0,0,0,1.85-.17,5.06,5.06,0,0,1,.31,1.76,4.89,4.89,0,0,1-.22,1.59,12.68,12.68,0,0,1-3.17.39c-5.43,0-7.59-2.95-7.59-8.55V242.79h-3.39a4.43,4.43,0,0,1-.27-1.63,4.31,4.31,0,0,1,.27-1.68h3.39v-4a7.58,7.58,0,0,1,4.41-.88v4.89H233a4.21,4.21,0,0,1,.27,1.64,4.81,4.81,0,0,1-.27,1.67h-5.73Z"/><path class="cls-1" d="M247.62,266.07c-1.59,4.85-3.13,7.62-7.89,7.62a6.4,6.4,0,0,1-2.43-.44,5.07,5.07,0,0,1-.31-1.63,4.23,4.23,0,0,1,.35-1.76,13.11,13.11,0,0,0,2,.17c2,0,3-.52,4.32-4.67l.92-2.69a4.23,4.23,0,0,1-1.41-.31l-8.37-22.57a7.22,7.22,0,0,1,2.29-.31,6.85,6.85,0,0,1,2.29.31l5,13.4a42.41,42.41,0,0,1,1.54,5.16h.18s.44-2.07,1.41-5.11l4.36-13.45a5.89,5.89,0,0,1,2.16-.31,6.17,6.17,0,0,1,2.07.31Z"/><path class="cls-1" d="M272.3,239.79a7.4,7.4,0,0,1,2.25-.31,8.56,8.56,0,0,1,2.16.27l-6.79,10.54,7.8,12.07a7.75,7.75,0,0,1-2.47.36,6.84,6.84,0,0,1-2.38-.36l-6.61-10.14h-2.47v10.14a8,8,0,0,1-4.41,0V229.83a10.2,10.2,0,0,1,2.25-.22,10.88,10.88,0,0,1,2.16.22v19.09h2.51Z"/><path class="cls-1" d="M289.31,239c6.09,0,9.79,3.31,9.79,12s-3.75,12-9.79,12-9.78-3.3-9.78-12S283.27,239,289.31,239Zm0,3.4c-3.22,0-5.29,1.85-5.29,8.64s2.07,8.64,5.29,8.64,5.25-1.85,5.25-8.64S292.53,242.44,289.31,242.44Z"/><path class="cls-1" d="M319.29,250.42a30.83,30.83,0,0,1-1.2-6.35h-.17a28,28,0,0,1-1.24,6.35l-3.48,11.94a8.48,8.48,0,0,1-2.51.31,9.26,9.26,0,0,1-2.56-.31l-6.65-22.57a6.56,6.56,0,0,1,2.2-.31,3.5,3.5,0,0,1,1.9.31l4.18,14.07a26.57,26.57,0,0,1,.93,4.32h.13a37.74,37.74,0,0,1,1-4.32l4.06-14.07a9.32,9.32,0,0,1,2.38-.31,5.89,5.89,0,0,1,2.16.31l3.92,14a24.57,24.57,0,0,1,.88,4.41h.13a41.9,41.9,0,0,1,1.11-4.37l4.14-14a5.26,5.26,0,0,1,1.94-.31,4.12,4.12,0,0,1,1.9.31l-6.66,22.57a9.14,9.14,0,0,1-2.51.31,9.71,9.71,0,0,1-2.56-.31Z"/><path class="cls-1" d="M341.32,252.45c.36,5.24,2.47,6.92,6.13,6.92a10.66,10.66,0,0,0,5.2-1.28,4.52,4.52,0,0,1,1.41,3.17s-2.51,1.85-7.32,1.85c-6.78,0-10-4.18-10-12.16,0-8.34,3.92-11.91,9.79-11.91,5.42,0,8.73,3,8.73,8.86a18.72,18.72,0,0,1-.49,4.55Zm5.25-9.92c-2.87,0-4.89,1.89-5.25,6.79h9.44a16.44,16.44,0,0,0,.13-2C350.89,244.73,349.83,242.53,346.57,242.53Z"/><path class="cls-1" d="M359.61,239.79a5.73,5.73,0,0,1,2.21-.31,6.28,6.28,0,0,1,2.2.31v26.76c0,4.67-2.25,7.14-6.39,7.14a9.64,9.64,0,0,1-2.95-.39,3.72,3.72,0,0,1-.14-1A4.49,4.49,0,0,1,355,270a7.24,7.24,0,0,0,1.63.18c2,0,3-1.06,3-3.48Zm4.5-4.8a6.85,6.85,0,0,1-2.29.31,6.23,6.23,0,0,1-2.29-.31v-4.15a6.42,6.42,0,0,1,2.29-.3,7.06,7.06,0,0,1,2.29.3Z"/><path class="cls-1" d="M394.3,250.42a31.34,31.34,0,0,1-1.19-6.35h-.17a28,28,0,0,1-1.24,6.35l-3.48,11.94a8.53,8.53,0,0,1-2.51.31,9.26,9.26,0,0,1-2.56-.31l-6.66-22.57a6.67,6.67,0,0,1,2.21-.31,3.43,3.43,0,0,1,1.89.31l4.19,14.07a27.71,27.71,0,0,1,.93,4.32h.13a37.74,37.74,0,0,1,1-4.32l4.06-14.07a9.32,9.32,0,0,1,2.38-.31,5.89,5.89,0,0,1,2.16.31l3.92,14a24.57,24.57,0,0,1,.88,4.41h.13a43.88,43.88,0,0,1,1.1-4.37l4.15-14a5.2,5.2,0,0,1,1.94-.31,4,4,0,0,1,1.89.31l-6.65,22.57a9.19,9.19,0,0,1-2.51.31,9.71,9.71,0,0,1-2.56-.31Z"/><path class="cls-1" d="M436.88,259.06a4.84,4.84,0,0,1,.27,1.8,5.48,5.48,0,0,1-.27,1.81H420.53a8,8,0,0,1-.27-1.89,5.9,5.9,0,0,1,.27-1.72l11.72-16h-11a6,6,0,0,1-.27-1.85,4.82,4.82,0,0,1,.27-1.77h15.6a4.49,4.49,0,0,1,.27,1.72,5.88,5.88,0,0,1-.27,1.9l-11.68,16Z"/><path class="cls-1" d="M449.49,239c6.39,0,8.42,2.87,8.42,8.56v14.76a3.48,3.48,0,0,1-1.72.31,4.57,4.57,0,0,1-1.77-.31l-.66-2.82c-1.14,2.34-3.57,3.57-6.92,3.57-4.14,0-6.83-2.42-6.83-7.36s2.95-6.92,8.46-6.92a48.11,48.11,0,0,1,5,.26v-1.63c0-3-1.15-4.71-4.54-4.71a18.39,18.39,0,0,0-5.91,1.1,3.53,3.53,0,0,1-1-1.32,3.81,3.81,0,0,1-.27-1.85A19.09,19.09,0,0,1,449.49,239Zm-.44,12.79c-3,0-4.5,1.14-4.5,3.92s1.45,4,3.83,4c3.49,0,5.12-3,5.12-6.08v-1.55C452.48,252,450.72,251.83,449.05,251.83Z"/><path class="cls-1" d="M467.65,241.91c1.23-1.81,3.21-2.87,6.34-2.87,5,0,8.29,3.05,8.29,12s-3.26,12-8.29,12c-3.13,0-5.11-1.05-6.34-2.86v2.11a6.44,6.44,0,0,1-2.25.31,5.83,5.83,0,0,1-2.16-.31V229.92a5.83,5.83,0,0,1,2.16-.31,6.44,6.44,0,0,1,2.25.31Zm4.8.75c-3.08,0-4.8,2.56-4.8,5.55v5.65c0,3,1.72,5.64,4.8,5.64,3.53,0,5.29-1.85,5.29-8.42S476,242.66,472.45,242.66Z"/><path class="cls-1" d="M491.4,235a6.85,6.85,0,0,1-2.29.31,6.23,6.23,0,0,1-2.29-.31v-4.14a6.23,6.23,0,0,1,2.29-.31,6.85,6.85,0,0,1,2.29.31Zm-.08,27.33a6.31,6.31,0,0,1-2.21.31,5.7,5.7,0,0,1-2.2-.31V239.79a5.7,5.7,0,0,1,2.2-.31,6.31,6.31,0,0,1,2.21.31Z"/><path class="cls-1" d="M500.44,252.45c.35,5.24,2.47,6.92,6.13,6.92a10.66,10.66,0,0,0,5.2-1.28,4.52,4.52,0,0,1,1.41,3.17s-2.51,1.85-7.32,1.85c-6.79,0-10-4.18-10-12.16,0-8.34,3.92-11.91,9.79-11.91,5.42,0,8.72,3,8.72,8.86a19.09,19.09,0,0,1-.48,4.55Zm5.25-9.92c-2.87,0-4.9,1.89-5.25,6.79h9.43a14.11,14.11,0,0,0,.14-2C510,244.73,509,242.53,505.69,242.53Z"/><path class="cls-1" d="M537.47,239a5.35,5.35,0,0,1,0,3.49l-3.66-.18A8.11,8.11,0,0,1,535,247c0,4.94-2.95,7.93-8.64,7.93a12.88,12.88,0,0,1-1.94-.13,4,4,0,0,0-.84,2.56c.49,4.05,13.8-.27,13.8,8.81,0,4.33-4.19,7.54-11.33,7.54-6.61,0-9.39-2.6-9.39-6.12,0-3.35,2.74-5.38,3.93-6.09a3.44,3.44,0,0,1-1-2.55,8,8,0,0,1,2.11-4.9c-2.64-1.23-4-3.7-4-7.05,0-4.94,3-7.94,8.64-7.94a10.66,10.66,0,0,1,4.9,1ZM523,262.67a5.34,5.34,0,0,0-2,4c0,2.21,1.63,3.88,5.24,3.88,4.55,0,7-1.63,7-4C533.23,263,527,263.91,523,262.67Zm3.39-20.54c-2.64,0-4.45,1.54-4.45,4.85s1.81,4.8,4.45,4.8,4.41-1.49,4.41-4.8S529.05,242.13,526.4,242.13Z"/><path class="cls-1" d="M549.15,239c6.39,0,8.42,2.87,8.42,8.56v14.76a3.48,3.48,0,0,1-1.72.31,4.5,4.5,0,0,1-1.77-.31l-.66-2.82c-1.14,2.34-3.57,3.57-6.92,3.57-4.14,0-6.83-2.42-6.83-7.36s3-6.92,8.46-6.92a48.11,48.11,0,0,1,5,.26v-1.63c0-3-1.15-4.71-4.54-4.71a18.39,18.39,0,0,0-5.91,1.1,3.53,3.53,0,0,1-1-1.32,3.81,3.81,0,0,1-.27-1.85A19.09,19.09,0,0,1,549.15,239Zm-.45,12.79c-3,0-4.49,1.14-4.49,3.92s1.45,4,3.83,4c3.49,0,5.12-3,5.12-6.08v-1.55C552.14,252,550.38,251.83,548.7,251.83Z"/><path class="cls-1" d="M566.42,251.08c0,5.77,1.85,8.29,6.09,8.29a11.33,11.33,0,0,0,4.14-.75,4.66,4.66,0,0,1,1.28,3.17s-1.94,1.32-6.35,1.32c-6.44,0-9.7-4.18-9.7-12s3.26-12,9.7-12c4.23,0,5.91,1.11,5.91,1.11a4.51,4.51,0,0,1-1.28,3.17,10.72,10.72,0,0,0-3.88-.66C568.1,242.66,566.42,245.35,566.42,251.08Z"/><path class="cls-1" d="M599.57,262.36a6.28,6.28,0,0,1-2.2.31,6,6,0,0,1-2.21-.31V246.49c0-2.46-1.28-3.88-4.1-3.88a6,6,0,0,0-5,2.83v16.92a6.56,6.56,0,0,1-2.2.31,5.73,5.73,0,0,1-2.21-.31V229.92a5.73,5.73,0,0,1,2.21-.31,6.56,6.56,0,0,1,2.2.31v11.9a8.54,8.54,0,0,1,6.66-2.78c4.41,0,6.83,2.69,6.83,6.66Z"/><path class="cls-1" d="M97.23,303.31A30,30,0,0,1,96,297h-.18a28.3,28.3,0,0,1-1.23,6.35l-3.49,11.95a8.48,8.48,0,0,1-2.51.31,9.26,9.26,0,0,1-2.56-.31l-6.65-22.57a6.56,6.56,0,0,1,2.2-.31,3.5,3.5,0,0,1,1.9.31l4.18,14.06a26.57,26.57,0,0,1,.93,4.32h.13a37.74,37.74,0,0,1,1-4.32l4.06-14.06a9.32,9.32,0,0,1,2.38-.31,5.89,5.89,0,0,1,2.16.31l3.92,14a23.7,23.7,0,0,1,.88,4.41h.13a41.9,41.9,0,0,1,1.11-4.37l4.14-14a5.26,5.26,0,0,1,1.94-.31,4.12,4.12,0,0,1,1.9.31l-6.66,22.57a9.14,9.14,0,0,1-2.51.31,9.71,9.71,0,0,1-2.56-.31Z"/><path class="cls-1" d="M123,291.94c4.32,0,6.22,1.19,6.22,1.19a4.5,4.5,0,0,1-1.15,3.13,16.29,16.29,0,0,0-4.63-.71c-3,0-4.5,1.1-4.5,3.18s2.78,2.68,5.56,3.61,5.86,2.29,5.86,6.61S127.59,316,122,316a15.75,15.75,0,0,1-7.37-1.59,4.47,4.47,0,0,1,1.2-3.26,18.78,18.78,0,0,0,6,1.1c2.69,0,4.23-1,4.23-3.17,0-2.43-2.43-3-5-3.71-3-.88-6.26-2.16-6.26-6.52C114.72,294.71,117.41,291.94,123,291.94Z"/><path class="cls-1" d="M149.55,312a5.1,5.1,0,0,1,.26,1.81,5.75,5.75,0,0,1-.26,1.81H133.19a8.07,8.07,0,0,1-.26-1.9,5.94,5.94,0,0,1,.26-1.72l11.73-16h-11a6.19,6.19,0,0,1-.26-1.85,5,5,0,0,1,.26-1.76h15.61a4.64,4.64,0,0,1,.26,1.72,6.12,6.12,0,0,1-.26,1.89l-11.69,16Z"/><path class="cls-1" d="M157.65,304c0,5.78,1.86,8.29,6.09,8.29a11.33,11.33,0,0,0,4.14-.75,4.62,4.62,0,0,1,1.28,3.17s-1.94,1.33-6.35,1.33c-6.43,0-9.7-4.19-9.7-12s3.27-12,9.7-12c4.23,0,5.91,1.1,5.91,1.1a4.51,4.51,0,0,1-1.28,3.17,10.72,10.72,0,0,0-3.88-.66C159.33,295.55,157.65,298.24,157.65,304Z"/><path class="cls-1" d="M188,312a4.93,4.93,0,0,1,.27,1.81,5.56,5.56,0,0,1-.27,1.81H171.63a7.56,7.56,0,0,1-.27-1.9,5.58,5.58,0,0,1,.27-1.72l11.72-16h-11a6,6,0,0,1-.27-1.85,4.79,4.79,0,0,1,.27-1.76H188a4.42,4.42,0,0,1,.27,1.72A5.81,5.81,0,0,1,188,296L176.3,312Z"/><path class="cls-1" d="M196.09,305.34c.35,5.24,2.47,6.92,6.13,6.92a10.66,10.66,0,0,0,5.2-1.28,4.6,4.6,0,0,1,1.41,3.17s-2.51,1.86-7.32,1.86c-6.79,0-10-4.19-10-12.17,0-8.33,3.92-11.9,9.79-11.9,5.42,0,8.72,3,8.72,8.86a19,19,0,0,1-.48,4.54Zm5.25-9.92c-2.87,0-4.9,1.9-5.25,6.79h9.43a14,14,0,0,0,.14-2C205.66,297.62,204.6,295.42,201.34,295.42Z"/><path class="cls-1" d="M225.05,291.94c5,0,8.29,3,8.29,12s-3.27,12-8.29,12c-3.13,0-5.12-1.06-6.35-2.87v12.34a7.31,7.31,0,0,1-2.25.27,6.68,6.68,0,0,1-2.16-.27V292.69a5.89,5.89,0,0,1,2.16-.31,6.44,6.44,0,0,1,2.25.31v2.11C219.93,293,221.92,291.94,225.05,291.94Zm-1.54,3.61c-3.09,0-4.81,2.56-4.81,5.56v5.64c0,3,1.72,5.64,4.81,5.64,3.52,0,5.29-1.85,5.29-8.42S227,295.55,223.51,295.55Z"/><path class="cls-1" d="M242.5,287.93a7.06,7.06,0,0,1-2.29.3,6.42,6.42,0,0,1-2.29-.3v-4.15a6.23,6.23,0,0,1,2.29-.31,6.85,6.85,0,0,1,2.29.31Zm-.09,27.33a6.28,6.28,0,0,1-2.2.31,5.7,5.7,0,0,1-2.2-.31V292.69a5.7,5.7,0,0,1,2.2-.31,6.28,6.28,0,0,1,2.2.31Z"/><path class="cls-1" d="M256,291.94c6.4,0,8.42,2.86,8.42,8.55v14.77a3.43,3.43,0,0,1-1.72.31,4.48,4.48,0,0,1-1.76-.31l-.66-2.82c-1.15,2.33-3.57,3.57-6.92,3.57-4.14,0-6.83-2.43-6.83-7.37s2.95-6.92,8.46-6.92a47.83,47.83,0,0,1,5,.27v-1.63c0-3-1.15-4.72-4.54-4.72a18.39,18.39,0,0,0-5.91,1.1,3.29,3.29,0,0,1-1-1.32,3.87,3.87,0,0,1-.26-1.85A19.17,19.17,0,0,1,256,291.94Zm-.44,12.78c-3,0-4.49,1.15-4.49,3.92s1.45,4,3.83,4c3.49,0,5.12-2.95,5.12-6.08V305C259,304.9,257.27,304.72,255.59,304.72Z"/><path class="cls-1" d="M287.68,315.26a6.28,6.28,0,0,1-2.2.31,6,6,0,0,1-2.21-.31V299.39c0-2.47-1.27-3.88-4.09-3.88a6.06,6.06,0,0,0-5,2.82v16.93a6.56,6.56,0,0,1-2.2.31,5.7,5.7,0,0,1-2.2-.31V292.69a5.7,5.7,0,0,1,2.2-.31,6.56,6.56,0,0,1,2.2.31v2a8.57,8.57,0,0,1,6.66-2.77c4.41,0,6.83,2.69,6.83,6.65Z"/><path class="cls-1" d="M297.64,287.93a7.06,7.06,0,0,1-2.29.3,6.42,6.42,0,0,1-2.29-.3v-4.15a6.23,6.23,0,0,1,2.29-.31,6.85,6.85,0,0,1,2.29.31Zm-.09,27.33a6.28,6.28,0,0,1-2.2.31,5.7,5.7,0,0,1-2.2-.31V292.69a5.7,5.7,0,0,1,2.2-.31,6.28,6.28,0,0,1,2.2.31Z"/><path class="cls-1" d="M311.18,291.94c6.39,0,8.41,2.86,8.41,8.55v14.77a3.41,3.41,0,0,1-1.71.31,4.5,4.5,0,0,1-1.77-.31l-.66-2.82c-1.15,2.33-3.57,3.57-6.92,3.57-4.14,0-6.83-2.43-6.83-7.37s2.95-6.92,8.46-6.92a47.83,47.83,0,0,1,5,.27v-1.63c0-3-1.15-4.72-4.54-4.72a18.39,18.39,0,0,0-5.91,1.1,3.39,3.39,0,0,1-1-1.32,3.87,3.87,0,0,1-.26-1.85A19.19,19.19,0,0,1,311.18,291.94Zm-.45,12.78c-3,0-4.49,1.15-4.49,3.92s1.45,4,3.83,4c3.49,0,5.12-2.95,5.12-6.08V305C314.17,304.9,312.41,304.72,310.73,304.72Z"/><path class="cls-1" d="M338.5,287.93a7.06,7.06,0,0,1-2.29.3,6.42,6.42,0,0,1-2.29-.3v-4.15a6.23,6.23,0,0,1,2.29-.31,6.85,6.85,0,0,1,2.29.31Zm-.09,27.33a6.28,6.28,0,0,1-2.2.31,5.7,5.7,0,0,1-2.2-.31V292.69a5.7,5.7,0,0,1,2.2-.31,6.28,6.28,0,0,1,2.2.31Z"/><path class="cls-1" d="M367.68,291.94c4.19,0,6.57,2.69,6.57,6.65v16.67a6.28,6.28,0,0,1-2.2.31,5.79,5.79,0,0,1-2.21-.31V299.39c0-2.47-1.14-3.88-3.83-3.88a5.58,5.58,0,0,0-4.72,2.82v16.93a6.16,6.16,0,0,1-2.16.31,5.7,5.7,0,0,1-2.2-.31V299.39c0-2.47-1.15-3.88-3.84-3.88a5.81,5.81,0,0,0-4.71,2.78v17a6.16,6.16,0,0,1-2.16.31,5.73,5.73,0,0,1-2.21-.31V292.69a5.73,5.73,0,0,1,2.21-.31,6.16,6.16,0,0,1,2.16.31v2a8.25,8.25,0,0,1,6.34-2.73,5.88,5.88,0,0,1,5.73,3.22A8.9,8.9,0,0,1,367.68,291.94Z"/><path class="cls-1" d="M390.38,291.94c5,0,8.29,3,8.29,12s-3.26,12-8.29,12c-3.13,0-5.11-1.06-6.35-2.87v12.34a7.27,7.27,0,0,1-2.24.27,6.61,6.61,0,0,1-2.16-.27V292.69a5.83,5.83,0,0,1,2.16-.31,6.41,6.41,0,0,1,2.24.31v2.11C385.27,293,387.25,291.94,390.38,291.94Zm-1.54,3.61c-3.09,0-4.81,2.56-4.81,5.56v5.64c0,3,1.72,5.64,4.81,5.64,3.53,0,5.29-1.85,5.29-8.42S392.37,295.55,388.84,295.55Z"/><path class="cls-1" d="M407.79,315.26a6.28,6.28,0,0,1-2.2.31,5.73,5.73,0,0,1-2.21-.31V282.81a5.73,5.73,0,0,1,2.21-.31,6.28,6.28,0,0,1,2.2.31Z"/><path class="cls-1" d="M421.46,291.94c6.39,0,8.41,2.86,8.41,8.55v14.77a3.41,3.41,0,0,1-1.71.31,4.5,4.5,0,0,1-1.77-.31l-.66-2.82c-1.14,2.33-3.57,3.57-6.92,3.57-4.14,0-6.83-2.43-6.83-7.37s2.95-6.92,8.46-6.92a47.67,47.67,0,0,1,5,.27v-1.63c0-3-1.15-4.72-4.54-4.72a18.39,18.39,0,0,0-5.91,1.1,3.32,3.32,0,0,1-1-1.32,3.81,3.81,0,0,1-.27-1.85A19.19,19.19,0,0,1,421.46,291.94ZM421,304.72c-2.95,0-4.49,1.15-4.49,3.92s1.45,4,3.83,4c3.49,0,5.12-2.95,5.12-6.08V305C424.45,304.9,422.69,304.72,421,304.72Z"/><path class="cls-1" d="M453.1,315.26a6.28,6.28,0,0,1-2.2.31,6,6,0,0,1-2.2-.31V299.39c0-2.47-1.28-3.88-4.1-3.88a6.06,6.06,0,0,0-5,2.82v16.93a6.56,6.56,0,0,1-2.2.31,5.7,5.7,0,0,1-2.2-.31V292.69a5.7,5.7,0,0,1,2.2-.31,6.56,6.56,0,0,1,2.2.31v2a8.57,8.57,0,0,1,6.66-2.77c4.41,0,6.83,2.69,6.83,6.65Z"/><path class="cls-1" d="M464.39,307.23c0,4,1.27,5.21,4.4,5.21a11.88,11.88,0,0,0,1.86-.18A5.21,5.21,0,0,1,471,314a4.82,4.82,0,0,1-.22,1.59,12.64,12.64,0,0,1-3.17.4c-5.42,0-7.58-3-7.58-8.56V295.68h-3.4a4.51,4.51,0,0,1-.26-1.63,4.37,4.37,0,0,1,.26-1.67H460v-4a7.48,7.48,0,0,1,4.41-.89v4.9h5.73a4.26,4.26,0,0,1,.26,1.63,5,5,0,0,1-.26,1.67h-5.73Z"/><path class="cls-1" d="M474.08,292.69a6.31,6.31,0,0,1,2.21-.31,6,6,0,0,1,2.2.31v15.87c0,2.46,1.28,3.88,4.1,3.88a6,6,0,0,0,5-2.83V292.69a6.67,6.67,0,0,1,2.21-.31,5.7,5.7,0,0,1,2.2.31v22.57a5.7,5.7,0,0,1-2.2.31,6.67,6.67,0,0,1-2.21-.31v-2a8.59,8.59,0,0,1-6.65,2.78c-4.41,0-6.84-2.69-6.84-6.66Z"/><path class="cls-1" d="M521.55,312a4.93,4.93,0,0,1,.27,1.81,5.56,5.56,0,0,1-.27,1.81H505.2a8.07,8.07,0,0,1-.26-1.9,5.94,5.94,0,0,1,.26-1.72l11.73-16H506a6,6,0,0,1-.27-1.85,4.79,4.79,0,0,1,.27-1.76h15.6a4.42,4.42,0,0,1,.27,1.72,5.81,5.81,0,0,1-.27,1.89l-11.68,16Z"/><path class="cls-1" d="M534.91,291.94c5.42,0,8.73,3,8.73,8.86a18.58,18.58,0,0,1-.49,4.54H529.66c.36,5.24,2.47,6.92,6.13,6.92A10.66,10.66,0,0,0,541,311a4.52,4.52,0,0,1,1.41,3.17,9.47,9.47,0,0,1-3.22,1.37c-2.46.75-4.09,2.38-4.09,4.41,0,1.5,1,1.63,2.33,1.63a2.91,2.91,0,0,0,1.41-.35,2.21,2.21,0,0,1,.71,1.85,6.17,6.17,0,0,1-3,.84c-2.47,0-4.36-.93-4.36-3.57a5.26,5.26,0,0,1,2.24-4.32c-6.3-.31-9.3-4.46-9.3-12.17C525.12,295.51,529.05,291.94,534.91,291.94Zm0,3.48c-2.87,0-4.89,1.9-5.25,6.79h9.44a16.27,16.27,0,0,0,.13-2C539.23,297.62,538.17,295.42,534.91,295.42Z"/><path class="cls-1" d="M552.27,294.8c1.24-1.8,3.22-2.86,6.35-2.86,5,0,8.29,3,8.29,12s-3.26,12-8.29,12c-3.13,0-5.11-1.06-6.35-2.87v2.12a6.34,6.34,0,0,1-2.24.31,5.83,5.83,0,0,1-2.16-.31V282.81a5.83,5.83,0,0,1,2.16-.31,6.34,6.34,0,0,1,2.24.31Zm4.81.75c-3.09,0-4.81,2.56-4.81,5.56v5.64c0,3,1.72,5.64,4.81,5.64,3.53,0,5.29-1.85,5.29-8.42S560.61,295.55,557.08,295.55Z"/><path class="cls-1" d="M580.22,291.94c6.08,0,9.79,3.3,9.79,12s-3.75,12-9.79,12-9.79-3.31-9.79-12S574.18,291.94,580.22,291.94Zm0,3.39c-3.22,0-5.29,1.85-5.29,8.64s2.07,8.64,5.29,8.64,5.25-1.85,5.25-8.64S583.44,295.33,580.22,295.33Z"/><path class="cls-1" d="M610.19,303.31A31.34,31.34,0,0,1,609,297h-.17a28.47,28.47,0,0,1-1.24,6.35l-3.48,11.95a8.53,8.53,0,0,1-2.51.31,9.26,9.26,0,0,1-2.56-.31l-6.66-22.57a6.67,6.67,0,0,1,2.21-.31,3.43,3.43,0,0,1,1.89.31l4.19,14.06a29,29,0,0,1,.93,4.32h.13a37.74,37.74,0,0,1,1-4.32l4-14.06a9.42,9.42,0,0,1,2.38-.31,5.92,5.92,0,0,1,2.17.31l3.92,14a24.57,24.57,0,0,1,.88,4.41h.13a43.88,43.88,0,0,1,1.1-4.37l4.15-14a5.2,5.2,0,0,1,1.94-.31,4.09,4.09,0,0,1,1.89.31l-6.65,22.57a9.21,9.21,0,0,1-2.52.31,9.69,9.69,0,0,1-2.55-.31Z"/><path class="cls-1" d="M632.23,305.34c.35,5.24,2.47,6.92,6.13,6.92a10.66,10.66,0,0,0,5.2-1.28,4.56,4.56,0,0,1,1.41,3.17s-2.51,1.86-7.32,1.86c-6.79,0-10-4.19-10-12.17,0-8.33,3.92-11.9,9.79-11.9,5.42,0,8.72,3,8.72,8.86a19,19,0,0,1-.48,4.54Zm5.25-9.92c-2.87,0-4.9,1.9-5.25,6.79h9.43a14,14,0,0,0,.14-2C641.8,297.62,640.74,295.42,637.48,295.42Z"/><path class="cls-1" d="M669.26,291.94a5.32,5.32,0,0,1,0,3.48l-3.66-.18a8.05,8.05,0,0,1,1.23,4.63c0,4.94-3,7.94-8.64,7.94a12.81,12.81,0,0,1-1.94-.14,3.92,3.92,0,0,0-.83,2.56c.48,4.06,13.79-.26,13.79,8.82,0,4.32-4.18,7.54-11.33,7.54-6.61,0-9.39-2.6-9.39-6.13,0-3.35,2.74-5.38,3.93-6.09a3.42,3.42,0,0,1-1-2.55,7.94,7.94,0,0,1,2.11-4.89c-2.64-1.24-4-3.71-4-7.06,0-4.94,3-7.93,8.64-7.93a10.64,10.64,0,0,1,4.9,1ZM654.8,315.57a5.34,5.34,0,0,0-2,4c0,2.2,1.63,3.88,5.25,3.88,4.54,0,7-1.63,7-4C665,315.87,658.77,316.8,654.8,315.57ZM658.19,295c-2.64,0-4.45,1.55-4.45,4.85s1.81,4.81,4.45,4.81,4.41-1.5,4.41-4.81S660.84,295,658.19,295Z"/><path class="cls-1" d="M681.68,291.94c6.09,0,9.79,3.3,9.79,12s-3.75,12-9.79,12-9.78-3.31-9.78-12S675.65,291.94,681.68,291.94Zm0,3.39c-3.21,0-5.29,1.85-5.29,8.64s2.08,8.64,5.29,8.64,5.25-1.85,5.25-8.64S684.9,295.33,681.68,295.33Z"/><path class="cls-1" d="M81.36,345.58a6.28,6.28,0,0,1,2.2-.31,6,6,0,0,1,2.2.31v15.87c0,2.47,1.28,3.88,4.1,3.88a6,6,0,0,0,5-2.82V345.58a6.67,6.67,0,0,1,2.21-.31,5.7,5.7,0,0,1,2.2.31v22.57a5.7,5.7,0,0,1-2.2.31,6.67,6.67,0,0,1-2.21-.31v-2a8.58,8.58,0,0,1-6.65,2.78c-4.41,0-6.83-2.69-6.83-6.66Z"/><path class="cls-1" d="M124.51,344.83c5,0,8.29,3,8.29,12s-3.27,12-8.29,12c-3.13,0-5.11-1.06-6.35-2.87v12.35a7.57,7.57,0,0,1-2.25.26,6.92,6.92,0,0,1-2.16-.26v-32.8a5.89,5.89,0,0,1,2.16-.31,6.44,6.44,0,0,1,2.25.31v2.12C119.4,345.89,121.38,344.83,124.51,344.83ZM123,348.44c-3.09,0-4.81,2.56-4.81,5.56v5.64c0,3,1.72,5.64,4.81,5.64,3.52,0,5.29-1.85,5.29-8.42S126.49,348.44,123,348.44Z"/><path class="cls-1" d="M145.4,344.83c6.39,0,8.42,2.87,8.42,8.55v14.77a3.43,3.43,0,0,1-1.72.31,4.48,4.48,0,0,1-1.76-.31l-.66-2.82c-1.15,2.33-3.57,3.57-6.92,3.57-4.15,0-6.84-2.43-6.84-7.36s3-6.92,8.47-6.92a47.89,47.89,0,0,1,5,.26v-1.63c0-3-1.14-4.72-4.54-4.72a18.46,18.46,0,0,0-5.91,1.1,3.43,3.43,0,0,1-1-1.32,3.73,3.73,0,0,1-.26-1.85A19.11,19.11,0,0,1,145.4,344.83ZM145,357.61c-3,0-4.5,1.15-4.5,3.93s1.46,4,3.84,4c3.48,0,5.11-2.95,5.11-6.08v-1.54C148.4,357.79,146.63,357.61,145,357.61Z"/><path class="cls-1" d="M162.68,356.86c0,5.78,1.85,8.29,6.08,8.29a11.35,11.35,0,0,0,4.15-.75,4.62,4.62,0,0,1,1.27,3.18s-1.94,1.32-6.34,1.32c-6.44,0-9.7-4.19-9.7-12s3.26-12,9.7-12c4.23,0,5.9,1.1,5.9,1.1a4.49,4.49,0,0,1-1.28,3.18,10.56,10.56,0,0,0-3.87-.67C164.35,348.44,162.68,351.13,162.68,356.86Z"/><path class="cls-1" d="M178,345.58a5.7,5.7,0,0,1,2.2-.31,6.31,6.31,0,0,1,2.21.31v26.76c0,4.67-2.25,7.14-6.4,7.14a9.42,9.42,0,0,1-2.95-.4,4,4,0,0,1-.13-1,4.52,4.52,0,0,1,.44-2.25A7.24,7.24,0,0,0,175,376c2,0,3-1.06,3-3.49Zm4.49-4.81a6.85,6.85,0,0,1-2.29.31,6.23,6.23,0,0,1-2.29-.31v-4.14a6.23,6.23,0,0,1,2.29-.31,6.85,6.85,0,0,1,2.29.31Z"/><path class="cls-1" d="M191.55,358.23c.35,5.25,2.47,6.92,6.13,6.92a10.66,10.66,0,0,0,5.2-1.28,4.61,4.61,0,0,1,1.41,3.18s-2.51,1.85-7.32,1.85c-6.79,0-10-4.19-10-12.17,0-8.33,3.92-11.9,9.78-11.9,5.43,0,8.73,3,8.73,8.86a19,19,0,0,1-.48,4.54Zm5.24-9.92c-2.86,0-4.89,1.9-5.24,6.79H201a14.38,14.38,0,0,0,.13-2C201.11,350.52,200.06,348.31,196.79,348.31Z"/><path class="cls-1" d="M227.65,368.15a6.31,6.31,0,0,1-2.21.31,6,6,0,0,1-2.2-.31V352.28c0-2.47-1.28-3.88-4.1-3.88a6,6,0,0,0-5,2.82v16.93a6.56,6.56,0,0,1-2.2.31,5.73,5.73,0,0,1-2.21-.31V345.58a5.73,5.73,0,0,1,2.21-.31,6.56,6.56,0,0,1,2.2.31v2a8.54,8.54,0,0,1,6.66-2.78c4.4,0,6.83,2.69,6.83,6.66Z"/><path class="cls-1" d="M238.93,360.13c0,4,1.28,5.2,4.41,5.2a11.85,11.85,0,0,0,1.85-.18,5.06,5.06,0,0,1,.31,1.76,4.82,4.82,0,0,1-.22,1.59,12.66,12.66,0,0,1-3.18.4c-5.42,0-7.58-2.95-7.58-8.55V348.58h-3.39a4.43,4.43,0,0,1-.27-1.63,4.25,4.25,0,0,1,.27-1.68h3.39v-4a7.5,7.5,0,0,1,4.41-.88v4.89h5.73a4.12,4.12,0,0,1,.27,1.63,4.83,4.83,0,0,1-.27,1.68h-5.73Z"/><path class="cls-1" d="M257.58,344.83c6.08,0,9.78,3.31,9.78,12s-3.74,12-9.78,12-9.79-3.31-9.79-12S251.54,344.83,257.58,344.83Zm0,3.39c-3.22,0-5.29,1.86-5.29,8.64s2.07,8.64,5.29,8.64,5.24-1.85,5.24-8.64S260.79,348.22,257.58,348.22Zm.26-14a4.44,4.44,0,0,1,3.84,1.63l-5.51,5.95a3.76,3.76,0,0,1-2.52-1.36Z"/><path class="cls-1" d="M287.55,356.2a30.52,30.52,0,0,1-1.19-6.35h-.18A28.3,28.3,0,0,1,285,356.2l-3.48,11.95a8.6,8.6,0,0,1-2.52.31,9.24,9.24,0,0,1-2.55-.31l-6.66-22.57a6.56,6.56,0,0,1,2.2-.31,3.5,3.5,0,0,1,1.9.31L278,359.64A27.88,27.88,0,0,1,279,364h.14a33.81,33.81,0,0,1,1-4.32l4.05-14.06a9.42,9.42,0,0,1,2.38-.31,5.83,5.83,0,0,1,2.16.31l3.93,14a24.91,24.91,0,0,1,.88,4.41h.13a38.78,38.78,0,0,1,1.1-4.36l4.15-14a5.17,5.17,0,0,1,1.93-.31,4.12,4.12,0,0,1,1.9.31L296,368.15a9.09,9.09,0,0,1-2.51.31,9.76,9.76,0,0,1-2.56-.31Z"/><path class="cls-1" d="M319.64,340.82a7,7,0,0,1-2.3.31,6.3,6.3,0,0,1-2.29-.31v-4.15a6.49,6.49,0,0,1,2.29-.3,7.16,7.16,0,0,1,2.3.3Zm-.09,27.33a6.31,6.31,0,0,1-2.21.31,5.7,5.7,0,0,1-2.2-.31V345.58a5.7,5.7,0,0,1,2.2-.31,6.31,6.31,0,0,1,2.21.31Z"/><path class="cls-1" d="M348.82,344.83c4.19,0,6.57,2.69,6.57,6.66v16.66a6.31,6.31,0,0,1-2.21.31,5.7,5.7,0,0,1-2.2-.31V352.28c0-2.47-1.15-3.88-3.84-3.88a5.56,5.56,0,0,0-4.71,2.82v16.93a6.19,6.19,0,0,1-2.17.31,5.7,5.7,0,0,1-2.2-.31V352.28c0-2.47-1.14-3.88-3.83-3.88a5.84,5.84,0,0,0-4.72,2.78v17a6.16,6.16,0,0,1-2.16.31,5.7,5.7,0,0,1-2.2-.31V345.58a5.7,5.7,0,0,1,2.2-.31,6.16,6.16,0,0,1,2.16.31v2a8.26,8.26,0,0,1,6.35-2.73,5.91,5.91,0,0,1,5.73,3.22A8.9,8.9,0,0,1,348.82,344.83Z"/><path class="cls-1" d="M384.43,344.83c4.19,0,6.57,2.69,6.57,6.66v16.66a6.28,6.28,0,0,1-2.2.31,5.73,5.73,0,0,1-2.21-.31V352.28c0-2.47-1.14-3.88-3.83-3.88a5.58,5.58,0,0,0-4.72,2.82v16.93a6.16,6.16,0,0,1-2.16.31,5.7,5.7,0,0,1-2.2-.31V352.28c0-2.47-1.15-3.88-3.84-3.88a5.84,5.84,0,0,0-4.72,2.78v17a6.16,6.16,0,0,1-2.16.31,5.7,5.7,0,0,1-2.2-.31V345.58a5.7,5.7,0,0,1,2.2-.31,6.16,6.16,0,0,1,2.16.31v2a8.29,8.29,0,0,1,6.35-2.73,5.9,5.9,0,0,1,5.73,3.22A8.9,8.9,0,0,1,384.43,344.83Z"/><path class="cls-1" d="M396.2,345.58a6.28,6.28,0,0,1,2.2-.31,6,6,0,0,1,2.21.31v15.87c0,2.47,1.27,3.88,4.1,3.88a6,6,0,0,0,5-2.82V345.58a6.56,6.56,0,0,1,2.2-.31,5.7,5.7,0,0,1,2.2.31v22.57a5.7,5.7,0,0,1-2.2.31,6.56,6.56,0,0,1-2.2-.31v-2A8.62,8.62,0,0,1,403,368.9c-4.41,0-6.83-2.69-6.83-6.66Z"/><path class="cls-1" d="M437.5,368.15a6.28,6.28,0,0,1-2.2.31,6,6,0,0,1-2.21-.31V352.28c0-2.47-1.28-3.88-4.1-3.88a6,6,0,0,0-5,2.82v16.93a6.56,6.56,0,0,1-2.2.31,5.73,5.73,0,0,1-2.21-.31V345.58a5.73,5.73,0,0,1,2.21-.31,6.56,6.56,0,0,1,2.2.31v2a8.54,8.54,0,0,1,6.66-2.78c4.41,0,6.83,2.69,6.83,6.66Z"/><path class="cls-1" d="M451.65,344.83c6.08,0,9.78,3.31,9.78,12s-3.74,12-9.78,12-9.79-3.31-9.79-12S445.61,344.83,451.65,344.83Zm0,3.39c-3.22,0-5.29,1.86-5.29,8.64s2.07,8.64,5.29,8.64,5.24-1.85,5.24-8.64S454.86,348.22,451.65,348.22Z"/><path class="cls-1" d="M478.84,345.58a7.4,7.4,0,0,1,2.25-.31,8.47,8.47,0,0,1,2.16.27l-6.79,10.53,7.8,12.08a7.84,7.84,0,0,1-2.46.35,7,7,0,0,1-2.38-.35L472.8,358h-2.46v10.14a7.2,7.2,0,0,1-2.16.31,7,7,0,0,1-2.25-.31V335.62a10.2,10.2,0,0,1,2.25-.22,11,11,0,0,1,2.16.22V354.7h2.51Z"/><path class="cls-1" d="M495.86,344.83c6.08,0,9.78,3.31,9.78,12s-3.74,12-9.78,12-9.79-3.31-9.79-12S489.82,344.83,495.86,344.83Zm0,3.39c-3.22,0-5.29,1.86-5.29,8.64s2.07,8.64,5.29,8.64,5.24-1.85,5.24-8.64S499.07,348.22,495.86,348.22Z"/><path class="cls-1" d="M533.81,344.83c4.19,0,6.57,2.69,6.57,6.66v16.66a6.31,6.31,0,0,1-2.21.31,5.7,5.7,0,0,1-2.2-.31V352.28c0-2.47-1.15-3.88-3.84-3.88a5.56,5.56,0,0,0-4.71,2.82v16.93a6.16,6.16,0,0,1-2.16.31,5.73,5.73,0,0,1-2.21-.31V352.28c0-2.47-1.14-3.88-3.83-3.88a5.84,5.84,0,0,0-4.72,2.78v17a6.16,6.16,0,0,1-2.16.31,5.79,5.79,0,0,1-2.21-.31V345.58a5.79,5.79,0,0,1,2.21-.31,6.16,6.16,0,0,1,2.16.31v2a8.26,8.26,0,0,1,6.35-2.73,5.91,5.91,0,0,1,5.73,3.22A8.89,8.89,0,0,1,533.81,344.83Z"/><path class="cls-1" d="M556.51,344.83c5,0,8.28,3,8.28,12s-3.26,12-8.28,12c-3.13,0-5.12-1.06-6.35-2.87v12.35a7.57,7.57,0,0,1-2.25.26,6.92,6.92,0,0,1-2.16-.26v-32.8a5.89,5.89,0,0,1,2.16-.31,6.44,6.44,0,0,1,2.25.31v2.12C551.39,345.89,553.38,344.83,556.51,344.83ZM555,348.44c-3.08,0-4.8,2.56-4.8,5.56v5.64c0,3,1.72,5.64,4.8,5.64,3.53,0,5.29-1.85,5.29-8.42S558.49,348.44,555,348.44Z"/><path class="cls-1" d="M572.9,358.23c.35,5.25,2.47,6.92,6.13,6.92a10.66,10.66,0,0,0,5.2-1.28,4.56,4.56,0,0,1,1.41,3.18s-2.51,1.85-7.32,1.85c-6.79,0-10-4.19-10-12.17,0-8.33,3.92-11.9,9.79-11.9,5.42,0,8.73,3,8.73,8.86a18.58,18.58,0,0,1-.49,4.54Zm5.25-9.92c-2.87,0-4.9,1.9-5.25,6.79h9.44a16.23,16.23,0,0,0,.13-2C582.47,350.52,581.41,348.31,578.15,348.31Z"/><path class="cls-1" d="M597,360.13c0,4,1.28,5.2,4.41,5.2a11.85,11.85,0,0,0,1.85-.18,5.06,5.06,0,0,1,.31,1.76,4.82,4.82,0,0,1-.22,1.59,12.64,12.64,0,0,1-3.17.4c-5.43,0-7.59-2.95-7.59-8.55V348.58h-3.39a4.43,4.43,0,0,1-.27-1.63,4.25,4.25,0,0,1,.27-1.68h3.39v-4a7.5,7.5,0,0,1,4.41-.88v4.89h5.73a4.12,4.12,0,0,1,.27,1.63,4.83,4.83,0,0,1-.27,1.68H597Z"/><path class="cls-1" d="M610.41,358.23c.35,5.25,2.47,6.92,6.13,6.92a10.66,10.66,0,0,0,5.2-1.28,4.56,4.56,0,0,1,1.41,3.18s-2.51,1.85-7.32,1.85c-6.79,0-10-4.19-10-12.17,0-8.33,3.92-11.9,9.79-11.9,5.42,0,8.72,3,8.72,8.86a19,19,0,0,1-.48,4.54Zm5.25-9.92c-2.87,0-4.9,1.9-5.25,6.79h9.43a13.93,13.93,0,0,0,.14-2C620,350.52,618.92,348.31,615.66,348.31Z"/><path class="cls-1" d="M646.51,368.15a6.28,6.28,0,0,1-2.2.31,6,6,0,0,1-2.21-.31V352.28c0-2.47-1.28-3.88-4.1-3.88a6,6,0,0,0-5,2.82v16.93a6.56,6.56,0,0,1-2.2.31,5.73,5.73,0,0,1-2.21-.31V345.58a5.73,5.73,0,0,1,2.21-.31,6.56,6.56,0,0,1,2.2.31v2a8.54,8.54,0,0,1,6.66-2.78c4.41,0,6.83,2.69,6.83,6.66Z"/><path class="cls-1" d="M657.79,360.13c0,4,1.28,5.2,4.41,5.2a11.85,11.85,0,0,0,1.85-.18,5.06,5.06,0,0,1,.31,1.76,4.82,4.82,0,0,1-.22,1.59,12.64,12.64,0,0,1-3.17.4c-5.42,0-7.59-2.95-7.59-8.55V348.58H650a4.58,4.58,0,0,1-.26-1.63,4.4,4.4,0,0,1,.26-1.68h3.39v-4a7.5,7.5,0,0,1,4.41-.88v4.89h5.73a4.12,4.12,0,0,1,.27,1.63,4.83,4.83,0,0,1-.27,1.68h-5.73Z"/><path class="cls-1" d="M685.56,368.15a6.28,6.28,0,0,1-2.2.31,6,6,0,0,1-2.2-.31V352.28c0-2.47-1.28-3.88-4.1-3.88a6.06,6.06,0,0,0-5,2.82v16.93a6.56,6.56,0,0,1-2.2.31,5.7,5.7,0,0,1-2.2-.31V345.58a5.7,5.7,0,0,1,2.2-.31,6.56,6.56,0,0,1,2.2.31v2a8.54,8.54,0,0,1,6.66-2.78c4.41,0,6.83,2.69,6.83,6.66Z"/><path class="cls-1" d="M701.43,371.85c-1.59,4.85-3.13,7.63-7.89,7.63a6.37,6.37,0,0,1-2.42-.44,5.15,5.15,0,0,1-.31-1.63,4.35,4.35,0,0,1,.35-1.77,12.36,12.36,0,0,0,2,.18c2,0,3-.53,4.32-4.67l.93-2.69a4.44,4.44,0,0,1-1.41-.31l-8.38-22.57a7.22,7.22,0,0,1,2.29-.31,7,7,0,0,1,2.3.31l5,13.4a43.21,43.21,0,0,1,1.55,5.16h.17s.44-2.07,1.41-5.12l4.37-13.44a5.83,5.83,0,0,1,2.16-.31,6.24,6.24,0,0,1,2.07.31Z"/><path class="cls-1" d="M716.72,356.86c0,5.78,1.86,8.29,6.09,8.29a11.33,11.33,0,0,0,4.14-.75,4.62,4.62,0,0,1,1.28,3.18s-1.94,1.32-6.35,1.32c-6.43,0-9.7-4.19-9.7-12s3.27-12,9.7-12c4.23,0,5.91,1.1,5.91,1.1a4.53,4.53,0,0,1-1.28,3.18,10.58,10.58,0,0,0-3.88-.67C718.4,348.44,716.72,351.13,716.72,356.86Z"/><path class="cls-1" d="M749.87,368.15a6.28,6.28,0,0,1-2.2.31,6,6,0,0,1-2.21-.31V352.28c0-2.47-1.28-3.88-4.1-3.88a6,6,0,0,0-5,2.82v16.93a6.56,6.56,0,0,1-2.2.31,5.73,5.73,0,0,1-2.21-.31V335.7a5.9,5.9,0,0,1,2.21-.3,6.76,6.76,0,0,1,2.2.3v11.91a8.54,8.54,0,0,1,6.66-2.78c4.41,0,6.83,2.69,6.83,6.66Z"/></svg>