<svg id="Warstwa_1" data-name="Warstwa 1" xmlns="http://www.w3.org/2000/svg" viewBox="0 0 825 500"><defs><style>.cls-1{fill:#0056a3;}</style></defs><title>nie_zaleca_sie</title><path class="cls-1" d="M82.11,156.58V125.46a10.55,10.55,0,0,1,2.82-.31,9.24,9.24,0,0,1,2.77.31l11,20a45.16,45.16,0,0,1,2.56,6h.18s-.31-3.3-.31-7.36V125.46a5.68,5.68,0,0,1,2.11-.31,4.57,4.57,0,0,1,2,.31v31.12a8.77,8.77,0,0,1-2.73.31,10.69,10.69,0,0,1-2.83-.31L88.54,136.3a36.21,36.21,0,0,1-2.42-5.73h-.18s.31,2.82.31,7.32v18.69a5.46,5.46,0,0,1-2.12.31A5.17,5.17,0,0,1,82.11,156.58Z"/><path class="cls-1" d="M111.24,128.85v-4a7.91,7.91,0,0,1,2.34-.26,8.85,8.85,0,0,1,2.38.26v4a8.85,8.85,0,0,1-2.38.26A7.91,7.91,0,0,1,111.24,128.85Zm.13,27.77v-22.7a6.72,6.72,0,0,1,2.21-.26,7.38,7.38,0,0,1,2.2.26v22.7a7.13,7.13,0,0,1-2.2.27A6.86,6.86,0,0,1,111.37,156.62Z"/><path class="cls-1" d="M138.09,146.62H124.82c.35,5.24,2.38,7,6.12,7a10.18,10.18,0,0,0,5.16-1.32,4.57,4.57,0,0,1,1.46,3.13s-2.52,1.94-7.41,1.94c-6.61,0-9.87-4.06-9.87-12.13,0-8.33,3.88-12,9.74-12,5.51,0,8.55,3.09,8.55,8.78A20.38,20.38,0,0,1,138.09,146.62Zm-13.32-3h9.57a14.13,14.13,0,0,0,.13-2.12c0-2.69-1.19-4.89-4.41-4.89C127.15,136.61,125.13,138.59,124.77,143.62Z"/><path class="cls-1" d="M167.26,155.12a4.63,4.63,0,0,1-.3,1.77H150.47a5.71,5.71,0,0,1-.27-1.9,5.59,5.59,0,0,1,.27-1.67l11.77-16.09h-11a5.56,5.56,0,0,1-.27-1.81,4.72,4.72,0,0,1,.27-1.76h15.69a5.26,5.26,0,0,1,.27,1.67,7.39,7.39,0,0,1-.27,1.9l-11.77,16.09H167A4.41,4.41,0,0,1,167.26,155.12Z"/><path class="cls-1" d="M188,141.85v14.77a4.93,4.93,0,0,1-1.81.27,5.17,5.17,0,0,1-1.8-.27l-.62-3c-1.1,2.38-3.57,3.66-7,3.66-4.19,0-6.83-2.47-6.83-7.28s2.87-6.92,8.51-6.92a47.94,47.94,0,0,1,5.11.27v-1.81c0-3.13-1.36-4.67-4.67-4.67A18.67,18.67,0,0,0,173,138a3.27,3.27,0,0,1-1-1.33,4.21,4.21,0,0,1-.31-1.85,20.32,20.32,0,0,1,7.81-1.59C186,133.21,188,136.12,188,141.85Zm-4.41,6.09v-1.63c-1-.09-2.82-.27-4.49-.27-3.09,0-4.63,1.15-4.63,4.06s1.45,4,3.83,4C181.68,154.11,183.57,151.33,183.57,147.94Z"/><path class="cls-1" d="M193.35,156.62V124.09a6.56,6.56,0,0,1,2.21-.27,7.13,7.13,0,0,1,2.2.27v32.53a7.13,7.13,0,0,1-2.2.27A6.56,6.56,0,0,1,193.35,156.62Z"/><path class="cls-1" d="M220.11,146.62H206.84c.36,5.24,2.38,7,6.13,7a10.18,10.18,0,0,0,5.16-1.32,4.52,4.52,0,0,1,1.45,3.13s-2.51,1.94-7.4,1.94c-6.61,0-9.88-4.06-9.88-12.13,0-8.33,3.88-12,9.75-12,5.51,0,8.55,3.09,8.55,8.78A20,20,0,0,1,220.11,146.62Zm-13.31-3h9.57a15.59,15.59,0,0,0,.13-2.12c0-2.69-1.19-4.89-4.41-4.89C209.18,136.61,207.15,138.59,206.8,143.62Z"/><path class="cls-1" d="M223.86,145.29c0-7.93,3.35-12.08,9.78-12.08,4.06,0,5.91,1.15,5.91,1.15a4.41,4.41,0,0,1-1.32,3.17,9.49,9.49,0,0,0-3.79-.7c-4.24,0-6,2.69-6,8.46s1.9,8.29,6.17,8.29a10.11,10.11,0,0,0,4.06-.79,4.43,4.43,0,0,1,1.32,3.13s-2.07,1.41-6.35,1.41C227.21,157.33,223.86,153.23,223.86,145.29Z"/><path class="cls-1" d="M260.22,141.85v14.77a4.93,4.93,0,0,1-1.81.27,5.17,5.17,0,0,1-1.8-.27l-.62-3c-1.1,2.38-3.57,3.66-7,3.66-4.18,0-6.83-2.47-6.83-7.28s2.87-6.92,8.51-6.92a47.94,47.94,0,0,1,5.11.27v-1.81c0-3.13-1.36-4.67-4.67-4.67a18.67,18.67,0,0,0-5.91,1.06,3.38,3.38,0,0,1-1-1.33,4.13,4.13,0,0,1-.3-1.85,20.24,20.24,0,0,1,7.8-1.59C258.19,133.21,260.22,136.12,260.22,141.85Zm-4.41,6.09v-1.63c-1-.09-2.82-.27-4.49-.27-3.09,0-4.63,1.15-4.63,4.06s1.45,4,3.83,4C253.92,154.11,255.81,151.33,255.81,147.94Z"/><path class="cls-1" d="M273,155.74a3.94,3.94,0,0,1,1.15-3.13,18.72,18.72,0,0,0,6,1.06c2.91,0,4.58-1,4.58-3.26,0-2.43-2.56-3-5.2-3.75-3-.88-6.22-2.25-6.22-6.52s2.69-6.93,8.29-6.93A14.54,14.54,0,0,1,288,134.4a4.07,4.07,0,0,1-1.1,3.09,16.16,16.16,0,0,0-4.76-.75c-3.09,0-4.59,1.15-4.59,3.22s2.73,2.73,5.47,3.61c2.95,1,6.08,2.3,6.08,6.7s-2.73,7.06-8.55,7.06A17.93,17.93,0,0,1,273,155.74Z"/><path class="cls-1" d="M293.06,128.85v-4a7.87,7.87,0,0,1,2.33-.26,8.76,8.76,0,0,1,2.38.26v4a8.76,8.76,0,0,1-2.38.26A7.87,7.87,0,0,1,293.06,128.85Zm.13,27.77v-22.7a6.68,6.68,0,0,1,2.2-.26,7.42,7.42,0,0,1,2.21.26v22.7a7.16,7.16,0,0,1-2.21.27A6.75,6.75,0,0,1,293.19,156.62Z"/><path class="cls-1" d="M319.9,146.62H306.63c.27,5.24,2.38,7,6.13,7a10.18,10.18,0,0,0,5.16-1.32,4.78,4.78,0,0,1,1.5,3.13l-.93.75c-3.31,2.86-4.85,6-4.32,7.58a1.43,1.43,0,0,0,1.37,1.06,4.76,4.76,0,0,0,1.76-.49,3.79,3.79,0,0,1,1.1,2.56,7.26,7.26,0,0,1-4,1.06c-2.16,0-3.65-.84-4.14-2.69-.75-2.56,1-5.51,3.92-8.07a11.41,11.41,0,0,1-2.24.18c-6.62,0-9.88-4.06-9.88-12.13,0-8.33,3.88-12,9.74-12,5.51,0,8.56,3.09,8.56,8.78A20,20,0,0,1,319.9,146.62Zm-13.31-3h9.56a14,14,0,0,0,.14-2.12c0-2.69-1.19-4.89-4.41-4.89C309,136.61,306.9,138.59,306.59,143.62Z"/><path class="cls-1" d="M333.52,156.62v-22.7a7,7,0,0,1,2.2-.26,5.6,5.6,0,0,1,2.07.26l0,3.17c1.72-3,3.92-3.83,5.69-3.83a6.85,6.85,0,0,1,3.79,1.1,5.27,5.27,0,0,1-1.94,3.66,4.32,4.32,0,0,0-2.74-.88c-1.76,0-3.48,1.36-4.71,3.57v15.91a7.16,7.16,0,0,1-2.21.27A6.75,6.75,0,0,1,333.52,156.62Z"/><path class="cls-1" d="M367.94,133.92v22.7a6.75,6.75,0,0,1-2.2.27,7.13,7.13,0,0,1-2.2-.27v-2.29a8.82,8.82,0,0,1-6.88,3c-4.36,0-6.74-2.65-6.74-6.61v-16.8a7.38,7.38,0,0,1,2.2-.26,7,7,0,0,1,2.2.26v16c0,2.51,1.33,3.92,4.1,3.92a6.27,6.27,0,0,0,5.12-3.08v-16.8a7.38,7.38,0,0,1,2.2-.26A7.3,7.3,0,0,1,367.94,133.92Z"/><path class="cls-1" d="M385.84,155.39a4.66,4.66,0,0,1-.22,1.54,13,13,0,0,1-3.4.4c-5.46,0-7.45-2.87-7.45-8.47V137h-3.34a4.43,4.43,0,0,1-.27-1.63,3.94,3.94,0,0,1,.27-1.67h3.34v-4.24a7.51,7.51,0,0,1,4.41-.83v5.07H385a4.94,4.94,0,0,1,.22,1.63A5.78,5.78,0,0,1,385,137h-5.78v11.73c0,3.83,1.19,5.11,4.28,5.11a13.41,13.41,0,0,0,2-.18A4.12,4.12,0,0,1,385.84,155.39Z"/><path class="cls-1" d="M408.27,133.92l-8.72,26.63c-1.5,4.67-3.18,7.36-7.76,7.36a9.6,9.6,0,0,1-2.91-.4,4.26,4.26,0,0,1-.31-1.67,3.76,3.76,0,0,1,.4-1.72,9.74,9.74,0,0,0,2,.22c2.11,0,3.21-.71,4.49-4.54l1-2.91a3.85,3.85,0,0,1-1.37-.31l-8.41-22.66a8.05,8.05,0,0,1,2.29-.26,7.72,7.72,0,0,1,2.29.26l5.11,13.49a38.28,38.28,0,0,1,1.55,5.2h.13s.44-2.16,1.41-5.2l4.5-13.49a6.84,6.84,0,0,1,2.16-.26A7.53,7.53,0,0,1,408.27,133.92Z"/><path class="cls-1" d="M411.4,156.62v-22.7a7.1,7.1,0,0,1,2.21-.26,7.38,7.38,0,0,1,2.2.26v2.29a8.88,8.88,0,0,1,6.83-3c4.41,0,6.79,2.65,6.79,6.62v16.79a7.45,7.45,0,0,1-2.2.27,6.86,6.86,0,0,1-2.21-.27V140.71c0-2.56-1.32-3.92-4.1-3.92a6.16,6.16,0,0,0-5.11,3v16.79a7.13,7.13,0,0,1-2.2.27A6.86,6.86,0,0,1,411.4,156.62Z"/><path class="cls-1" d="M433.66,145.25c0-8.73,3.79-12,9.87-12s9.84,3.31,9.84,12-3.75,12.08-9.84,12.08S433.66,154,433.66,145.25Zm15.17,0c0-6.75-2-8.64-5.3-8.64s-5.28,1.89-5.28,8.64,2,8.68,5.28,8.68S448.83,152,448.83,145.25Z"/><path class="cls-1" d="M462.31,156.62l-6.66-22.7a7.84,7.84,0,0,1,2.21-.26,4.69,4.69,0,0,1,1.94.26l4.14,13.67a26.14,26.14,0,0,1,.93,4.8H465a33,33,0,0,1,1-4.8l4.06-13.67a11,11,0,0,1,2.34-.26,7.38,7.38,0,0,1,2.2.26l4,13.58a27.09,27.09,0,0,1,.92,4.89h.14a39.71,39.71,0,0,1,1.05-4.85l4.1-13.62a6.32,6.32,0,0,1,2-.26,5.51,5.51,0,0,1,1.94.26l-6.66,22.7a13.48,13.48,0,0,1-2.51.27,13.32,13.32,0,0,1-2.47-.27l-3.53-11.86a27.87,27.87,0,0,1-1.23-6.65h-.13a29.28,29.28,0,0,1-1.33,6.65l-3.52,11.86a13,13,0,0,1-2.47.27A14.07,14.07,0,0,1,462.31,156.62Z"/><path class="cls-1" d="M508.77,146.62H495.5c.35,5.24,2.38,7,6.13,7a10.18,10.18,0,0,0,5.16-1.32,4.52,4.52,0,0,1,1.45,3.13s-2.51,1.94-7.4,1.94c-6.62,0-9.88-4.06-9.88-12.13,0-8.33,3.88-12,9.74-12,5.51,0,8.55,3.09,8.55,8.78A20.38,20.38,0,0,1,508.77,146.62Zm-13.31-3H505a14.13,14.13,0,0,0,.13-2.12c0-2.69-1.19-4.89-4.4-4.89C497.84,136.61,495.81,138.59,495.46,143.62Z"/><path class="cls-1" d="M532.48,136.7l-3.61-.09a8.15,8.15,0,0,1,1.19,4.49c0,4.9-3,7.9-8.73,7.9a13.67,13.67,0,0,1-2-.14,4,4,0,0,0-.93,2.69c.44,4.1,14-.31,14,8.78,0,4.32-4.1,7.58-11.42,7.58-6.57,0-9.48-2.56-9.48-6.17,0-3.4,2.69-5.38,3.88-6.13a3.53,3.53,0,0,1-1-2.6,7.6,7.6,0,0,1,2.21-4.9c-2.56-1.19-4.06-3.52-4.06-7,0-4.84,3.09-7.89,8.73-7.89a10.71,10.71,0,0,1,5,1.11l6.17-1.06A5.33,5.33,0,0,1,532.48,136.7Zm-14.63,20.14a5.39,5.39,0,0,0-2.07,4c0,2.34,1.67,3.93,5.33,3.93,4.58,0,7.1-1.59,7.1-4C528.21,157,521.9,158,517.85,156.84Zm7.93-15.78c0-3.31-1.76-4.85-4.45-4.85s-4.45,1.54-4.45,4.85,1.81,4.94,4.45,4.94S525.78,144.46,525.78,141.06Z"/><path class="cls-1" d="M535,145.25c0-8.73,3.79-12,9.88-12s9.83,3.31,9.83,12-3.75,12.08-9.83,12.08S535,154,535,145.25Zm15.17,0c0-6.75-2-8.64-5.29-8.64s-5.29,1.89-5.29,8.64,2,8.68,5.29,8.68S550.16,152,550.16,145.25Z"/><path class="cls-1" d="M80.12,208.63a4,4,0,0,1,1.15-3.13,18.72,18.72,0,0,0,6,1.06c2.91,0,4.58-1,4.58-3.26,0-2.43-2.55-3-5.2-3.75-3-.88-6.22-2.25-6.22-6.52s2.69-6.92,8.29-6.92a14.4,14.4,0,0,1,6.35,1.19,4.06,4.06,0,0,1-1.1,3.08,16.16,16.16,0,0,0-4.76-.75c-3.09,0-4.59,1.15-4.59,3.22s2.74,2.73,5.47,3.62c3,1,6.08,2.29,6.08,6.7s-2.73,7.05-8.55,7.05A17.78,17.78,0,0,1,80.12,208.63Z"/><path class="cls-1" d="M112.78,208.28a4.66,4.66,0,0,1-.22,1.54,12.94,12.94,0,0,1-3.39.4c-5.47,0-7.45-2.86-7.45-8.46V189.85H98.37a4.37,4.37,0,0,1-.27-1.63,4,4,0,0,1,.27-1.67h3.35v-4.23a7.48,7.48,0,0,1,4.41-.84v5.07h5.77a4.94,4.94,0,0,1,.22,1.63,5.78,5.78,0,0,1-.22,1.67h-5.77v11.73c0,3.84,1.19,5.11,4.27,5.11a14,14,0,0,0,2-.17A4,4,0,0,1,112.78,208.28Z"/><path class="cls-1" d="M114.9,198.14c0-8.73,3.79-12,9.87-12s9.83,3.3,9.83,12-3.74,12.08-9.83,12.08S114.9,206.91,114.9,198.14Zm15.16,0c0-6.74-2-8.64-5.29-8.64s-5.29,1.9-5.29,8.64,2,8.69,5.29,8.69S130.06,204.89,130.06,198.14Z"/><path class="cls-1" d="M137.69,208.63a3.94,3.94,0,0,1,1.14-3.13,18.76,18.76,0,0,0,6,1.06c2.91,0,4.59-1,4.59-3.26,0-2.43-2.56-3-5.21-3.75-3-.88-6.21-2.25-6.21-6.52s2.69-6.92,8.29-6.92a14.34,14.34,0,0,1,6.34,1.19,4,4,0,0,1-1.1,3.08,16.1,16.1,0,0,0-4.76-.75c-3.08,0-4.58,1.15-4.58,3.22s2.73,2.73,5.46,3.62c3,1,6.09,2.29,6.09,6.7s-2.74,7.05-8.56,7.05A17.73,17.73,0,0,1,137.69,208.63Z"/><path class="cls-1" d="M156.82,198.14c0-8.73,3.79-12,9.87-12s9.83,3.3,9.83,12-3.75,12.08-9.83,12.08S156.82,206.91,156.82,198.14Zm15.16,0c0-6.74-2-8.64-5.29-8.64s-5.29,1.9-5.29,8.64,2,8.69,5.29,8.69S172,204.89,172,198.14Z"/><path class="cls-1" d="M185.47,209.52l-6.66-22.71a7.71,7.71,0,0,1,2.2-.26,4.63,4.63,0,0,1,1.94.26l4.15,13.67a26.78,26.78,0,0,1,.92,4.8h.13a33.37,33.37,0,0,1,1-4.8l4.05-13.67a11,11,0,0,1,2.34-.26,7.38,7.38,0,0,1,2.2.26l4,13.58a27.35,27.35,0,0,1,.93,4.89h.13a38.36,38.36,0,0,1,1.06-4.85l4.1-13.62a6.21,6.21,0,0,1,2-.26,5.51,5.51,0,0,1,1.94.26l-6.66,22.71a12.05,12.05,0,0,1-5,0l-3.52-11.86a28.18,28.18,0,0,1-1.24-6.66h-.13a29.25,29.25,0,0,1-1.32,6.66l-3.53,11.86a13,13,0,0,1-2.47.26A13.93,13.93,0,0,1,185.47,209.52Z"/><path class="cls-1" d="M231.7,194.75v14.77a5,5,0,0,1-1.8.26,5.38,5.38,0,0,1-1.81-.26l-.62-3c-1.1,2.38-3.57,3.66-7,3.66-4.19,0-6.84-2.47-6.84-7.27s2.87-6.92,8.51-6.92a48.79,48.79,0,0,1,5.12.26v-1.81c0-3.13-1.37-4.67-4.68-4.67a18.57,18.57,0,0,0-5.9,1.06,3.11,3.11,0,0,1-1-1.32,4.1,4.1,0,0,1-.31-1.86,20.34,20.34,0,0,1,7.8-1.58C229.68,186.11,231.7,189,231.7,194.75Zm-4.4,6.08V199.2c-1-.09-2.83-.26-4.5-.26-3.09,0-4.63,1.14-4.63,4.05s1.46,4,3.84,4C225.4,207,227.3,204.23,227.3,200.83Z"/><path class="cls-1" d="M236.9,209.52V186.81a7.1,7.1,0,0,1,2.21-.26,7.38,7.38,0,0,1,2.2.26v2.29a8.87,8.87,0,0,1,6.83-3c4.41,0,6.79,2.64,6.79,6.61v16.8a7.71,7.71,0,0,1-2.2.26,7.1,7.1,0,0,1-2.21-.26V193.6c0-2.56-1.32-3.92-4.09-3.92a6.16,6.16,0,0,0-5.12,3v16.8a7.38,7.38,0,0,1-2.2.26A7.1,7.1,0,0,1,236.9,209.52Z"/><path class="cls-1" d="M260.09,181.74v-4a7.6,7.6,0,0,1,2.33-.27,8.45,8.45,0,0,1,2.38.27v4a8.45,8.45,0,0,1-2.38.27A7.6,7.6,0,0,1,260.09,181.74Zm.13,27.78V186.81a6.68,6.68,0,0,1,2.2-.26,7.42,7.42,0,0,1,2.21.26v22.71a7.42,7.42,0,0,1-2.21.26A7,7,0,0,1,260.22,209.52Z"/><path class="cls-1" d="M286.71,194.75v14.77a5.1,5.1,0,0,1-1.81.26,5.35,5.35,0,0,1-1.8-.26l-.62-3c-1.1,2.38-3.57,3.66-7,3.66-4.18,0-6.83-2.47-6.83-7.27s2.87-6.92,8.51-6.92a48.41,48.41,0,0,1,5.11.26v-1.81c0-3.13-1.36-4.67-4.67-4.67a18.67,18.67,0,0,0-5.91,1.06,3.3,3.3,0,0,1-1-1.32,4.26,4.26,0,0,1-.31-1.86,20.43,20.43,0,0,1,7.81-1.58C284.68,186.11,286.71,189,286.71,194.75Zm-4.41,6.08V199.2c-1-.09-2.82-.26-4.49-.26-3.09,0-4.63,1.14-4.63,4.05s1.45,4,3.83,4C280.41,207,282.3,204.23,282.3,200.83Z"/><path class="cls-1" d="M320,198.14c0,9-3.3,12.08-8.37,12.08-3.13,0-5.16-1.1-6.44-3v12.65a9.14,9.14,0,0,1-4.41,0v-33a9.48,9.48,0,0,1,4.41,0v2.29c1.28-1.93,3.31-3,6.44-3C316.68,186.11,320,189.1,320,198.14Zm-4.63,0c0-6.48-1.67-8.46-5.29-8.46-3.08,0-4.85,2.6-4.89,5.55v5.69c0,2.91,1.72,5.73,4.89,5.73C313.73,206.65,315.4,204.71,315.4,198.14Z"/><path class="cls-1" d="M324.48,209.52V186.81a7.1,7.1,0,0,1,2.21-.26,5.6,5.6,0,0,1,2.07.26l0,3.18c1.72-3.05,3.93-3.84,5.69-3.84a6.82,6.82,0,0,1,3.79,1.1,5.17,5.17,0,0,1-1.94,3.66,4.35,4.35,0,0,0-2.73-.88c-1.77,0-3.48,1.37-4.72,3.57v15.92a7.38,7.38,0,0,1-2.2.26A7.1,7.1,0,0,1,324.48,209.52Z"/><path class="cls-1" d="M340,198.14c0-8.73,3.79-12,9.88-12s9.83,3.3,9.83,12-3.75,12.08-9.83,12.08S340,206.91,340,198.14Zm15.17,0c0-6.74-2-8.64-5.29-8.64s-5.29,1.9-5.29,8.64,2,8.69,5.29,8.69S355.21,204.89,355.21,198.14Z"/><path class="cls-1" d="M383.24,186.77v22.75a7.38,7.38,0,0,1-2.2.26,6.72,6.72,0,0,1-2.21-.26V189.85h-9v19.67a7.84,7.84,0,0,1-2.21.26,7.06,7.06,0,0,1-2.2-.26V189.85h-2.95a5.78,5.78,0,0,1-.22-1.67,4.94,4.94,0,0,1,.22-1.63h2.95v-2.87c0-4.58,2.42-7.23,8.77-7.23a27.36,27.36,0,0,1,8.77,1.41,4.6,4.6,0,0,1-1.14,3.09,26.31,26.31,0,0,0-7.05-1c-3.75,0-4.94,1.14-4.94,3.87v2.74H381A9.56,9.56,0,0,1,383.24,186.77Z"/><path class="cls-1" d="M388.88,209.52V177a6.68,6.68,0,0,1,2.2-.26,7.42,7.42,0,0,1,2.21.26v32.54a7.42,7.42,0,0,1-2.21.26A6.68,6.68,0,0,1,388.88,209.52Z"/><path class="cls-1" d="M415.42,194.75v14.77a5.1,5.1,0,0,1-1.81.26,5.38,5.38,0,0,1-1.81-.26l-.62-3c-1.1,2.38-3.57,3.66-7,3.66-4.19,0-6.83-2.47-6.83-7.27s2.86-6.92,8.5-6.92a48.63,48.63,0,0,1,5.12.26v-1.81c0-3.13-1.37-4.67-4.68-4.67a18.57,18.57,0,0,0-5.9,1.06,3.11,3.11,0,0,1-1-1.32,4.1,4.1,0,0,1-.31-1.86,20.34,20.34,0,0,1,7.8-1.58C413.39,186.11,415.42,189,415.42,194.75ZM411,200.83V199.2c-1-.09-2.82-.26-4.5-.26-3.08,0-4.63,1.14-4.63,4.05s1.46,4,3.84,4C409.11,207,411,204.23,411,200.83Z"/><path class="cls-1" d="M439.26,209.47a8.89,8.89,0,0,1-2.47.31,8.29,8.29,0,0,1-2.42-.31l-6.57-10.14H425v10.19a7.23,7.23,0,0,1-2.16.26,8.34,8.34,0,0,1-2.25-.26V176.94a10.31,10.31,0,0,1,2.25-.22,9.81,9.81,0,0,1,2.16.22v19h2.87l5.86-9.17a8.05,8.05,0,0,1,2.29-.26,8.56,8.56,0,0,1,2.21.26l-6.66,10.54Z"/><path class="cls-1" d="M454.55,208.28a4.86,4.86,0,0,1-.21,1.54,13,13,0,0,1-3.4.4c-5.47,0-7.45-2.86-7.45-8.46V189.85h-3.35a4.51,4.51,0,0,1-.26-1.63,4.13,4.13,0,0,1,.26-1.67h3.35v-4.23a7.48,7.48,0,0,1,4.41-.84v5.07h5.77a4.94,4.94,0,0,1,.22,1.63,5.78,5.78,0,0,1-.22,1.67H447.9v11.73c0,3.84,1.19,5.11,4.28,5.11a14,14,0,0,0,2-.17A4,4,0,0,1,454.55,208.28Z"/><path class="cls-1" d="M477,186.81l-8.73,26.63c-1.5,4.67-3.17,7.36-7.76,7.36a9.34,9.34,0,0,1-2.91-.4,4.39,4.39,0,0,1-.3-1.67,3.83,3.83,0,0,1,.39-1.72,9.17,9.17,0,0,0,2,.22c2.12,0,3.22-.71,4.5-4.54l1-2.91a3.56,3.56,0,0,1-1.37-.31l-8.42-22.66a8.05,8.05,0,0,1,2.29-.26,7.64,7.64,0,0,1,2.29.26l5.12,13.49a39,39,0,0,1,1.54,5.2h.13s.44-2.16,1.41-5.2l4.5-13.49a6.92,6.92,0,0,1,2.16-.26A7.57,7.57,0,0,1,477,186.81Z"/><path class="cls-1" d="M498.76,209.47a8.85,8.85,0,0,1-2.46.31,8.41,8.41,0,0,1-2.43-.31l-6.57-10.14h-2.77v10.19a7.23,7.23,0,0,1-2.16.26,8.25,8.25,0,0,1-2.25-.26V176.94a10.2,10.2,0,0,1,2.25-.22,9.92,9.92,0,0,1,2.16.22v19h2.86l5.86-9.17a8.18,8.18,0,0,1,2.3-.26,8.52,8.52,0,0,1,2.2.26l-6.66,10.54Z"/><path class="cls-1" d="M501.45,181.74v-4a7.64,7.64,0,0,1,2.34-.27,8.54,8.54,0,0,1,2.38.27v4a8.54,8.54,0,0,1-2.38.27A7.64,7.64,0,0,1,501.45,181.74Zm.13,27.78V186.81a6.72,6.72,0,0,1,2.21-.26,7.38,7.38,0,0,1,2.2.26v22.71a7.38,7.38,0,0,1-2.2.26A7.1,7.1,0,0,1,501.58,209.52Z"/><path class="cls-1" d="M98.06,247.64v14.77a5,5,0,0,1-1.8.26,5.38,5.38,0,0,1-1.81-.26l-.62-3c-1.1,2.38-3.57,3.66-7,3.66-4.19,0-6.84-2.47-6.84-7.27s2.87-6.92,8.51-6.92a48.79,48.79,0,0,1,5.12.26v-1.8c0-3.13-1.37-4.68-4.68-4.68a18.57,18.57,0,0,0-5.9,1.06,3,3,0,0,1-1-1.32,4.06,4.06,0,0,1-.31-1.85A20.24,20.24,0,0,1,89.6,239C96,239,98.06,241.91,98.06,247.64Zm-4.4,6.08v-1.63c-1-.09-2.83-.26-4.5-.26-3.09,0-4.63,1.14-4.63,4s1.46,4,3.84,4C91.76,259.89,93.66,257.12,93.66,253.72Z"/><path class="cls-1" d="M103.26,262.41V239.7a7.1,7.1,0,0,1,2.21-.26,7.38,7.38,0,0,1,2.2.26V242a8.85,8.85,0,0,1,6.83-3c4.41,0,6.79,2.64,6.79,6.61v16.8a7.71,7.71,0,0,1-2.2.26,7.1,7.1,0,0,1-2.21-.26V246.49c0-2.55-1.32-3.92-4.1-3.92a6.18,6.18,0,0,0-5.11,3v16.8a7.38,7.38,0,0,1-2.2.26A7.1,7.1,0,0,1,103.26,262.41Z"/><path class="cls-1" d="M139.05,261.17a4.76,4.76,0,0,1-.22,1.55,13,13,0,0,1-3.39.39c-5.47,0-7.45-2.86-7.45-8.46v-11.9h-3.35a4.43,4.43,0,0,1-.27-1.63,4,4,0,0,1,.27-1.68H128v-4.23a7.48,7.48,0,0,1,4.41-.84v5.07h5.77a4.94,4.94,0,0,1,.22,1.63,5.81,5.81,0,0,1-.22,1.68H132.4v11.72c0,3.84,1.19,5.12,4.27,5.12a13.24,13.24,0,0,0,2-.18A4,4,0,0,1,139.05,261.17Z"/><path class="cls-1" d="M161.49,239.7l-8.73,26.63c-1.5,4.67-3.17,7.36-7.76,7.36a9.67,9.67,0,0,1-2.91-.39,4.41,4.41,0,0,1-.3-1.68,3.89,3.89,0,0,1,.39-1.72,9.17,9.17,0,0,0,2,.22c2.12,0,3.22-.7,4.5-4.54l1-2.91a3.56,3.56,0,0,1-1.37-.31l-8.42-22.66a8.05,8.05,0,0,1,2.29-.26,7.72,7.72,0,0,1,2.29.26l5.12,13.49a38.84,38.84,0,0,1,1.54,5.21h.13s.44-2.16,1.41-5.21l4.5-13.49a6.92,6.92,0,0,1,2.16-.26A7.57,7.57,0,0,1,161.49,239.7Z"/><path class="cls-1" d="M183.84,251.08c0,9-3.31,12-8.42,12-3.09,0-5.12-1.1-6.4-2.95v2.25a7.3,7.3,0,0,1-2.2.26,7.38,7.38,0,0,1-2.2-.26V229.87a7.38,7.38,0,0,1,2.2-.26,7.3,7.3,0,0,1,2.2.26V242c1.28-1.9,3.31-3,6.4-3C180.53,239,183.84,242,183.84,251.08Zm-4.63,0c0-6.48-1.68-8.51-5.29-8.51-3.13,0-4.85,2.65-4.9,5.6v5.69c0,3,1.77,5.68,4.9,5.68C177.53,259.54,179.21,257.51,179.21,251.08Z"/><path class="cls-1" d="M188.2,234.64v-4a7.6,7.6,0,0,1,2.33-.27,8.58,8.58,0,0,1,2.39.27v4a8.89,8.89,0,0,1-2.39.26A7.87,7.87,0,0,1,188.2,234.64Zm.13,27.77V239.7a6.68,6.68,0,0,1,2.2-.26,7.42,7.42,0,0,1,2.21.26v22.71a7.42,7.42,0,0,1-2.21.26A7.06,7.06,0,0,1,188.33,262.41Z"/><path class="cls-1" d="M197.23,251c0-8.72,3.79-12,9.88-12s9.83,3.31,9.83,12-3.75,12.08-9.83,12.08S197.23,259.81,197.23,251Zm15.17,0c0-6.74-2-8.64-5.29-8.64s-5.29,1.9-5.29,8.64,2,8.69,5.29,8.69S212.4,257.78,212.4,251Z"/><path class="cls-1" d="M233.91,261.17a4.76,4.76,0,0,1-.22,1.55,13.09,13.09,0,0,1-3.4.39c-5.46,0-7.45-2.86-7.45-8.46v-11.9h-3.35a4.58,4.58,0,0,1-.26-1.63,4.16,4.16,0,0,1,.26-1.68h3.35v-4.23a7.48,7.48,0,0,1,4.41-.84v5.07H233a4.94,4.94,0,0,1,.22,1.63,5.81,5.81,0,0,1-.22,1.68h-5.78v11.72c0,3.84,1.19,5.12,4.28,5.12a13.2,13.2,0,0,0,2-.18A4,4,0,0,1,233.91,261.17Z"/><path class="cls-1" d="M256.34,239.7l-8.73,26.63c-1.49,4.67-3.17,7.36-7.75,7.36a9.62,9.62,0,0,1-2.91-.39,4.29,4.29,0,0,1-.31-1.68,3.89,3.89,0,0,1,.39-1.72,9.25,9.25,0,0,0,2,.22c2.12,0,3.22-.7,4.5-4.54l1-2.91a3.56,3.56,0,0,1-1.37-.31l-8.42-22.66a8.14,8.14,0,0,1,2.29-.26,7.76,7.76,0,0,1,2.3.26l5.11,13.49A38.84,38.84,0,0,1,246,258.4h.14s.44-2.16,1.41-5.21L252,239.7a6.92,6.92,0,0,1,2.16-.26A7.57,7.57,0,0,1,256.34,239.7Z"/><path class="cls-1" d="M278.12,262.36a8.89,8.89,0,0,1-2.47.31,8.41,8.41,0,0,1-2.43-.31l-6.56-10.14h-2.78v10.19a7.23,7.23,0,0,1-2.16.26,8.34,8.34,0,0,1-2.25-.26V229.83a10.2,10.2,0,0,1,2.25-.22,9.81,9.81,0,0,1,2.16.22v19h2.86l5.87-9.17a8.05,8.05,0,0,1,2.29-.26,8.52,8.52,0,0,1,2.2.26l-6.65,10.54Z"/><path class="cls-1" d="M279.88,251c0-8.72,3.79-12,9.87-12s9.83,3.31,9.83,12-3.74,12.08-9.83,12.08S279.88,259.81,279.88,251ZM295,251c0-6.74-2-8.64-5.29-8.64s-5.29,1.9-5.29,8.64,2,8.69,5.29,8.69S295,257.78,295,251Z"/><path class="cls-1" d="M308.53,262.41l-6.66-22.71a7.84,7.84,0,0,1,2.21-.26,4.6,4.6,0,0,1,1.93.26l4.15,13.67a25.13,25.13,0,0,1,.92,4.81h.14a32,32,0,0,1,1-4.81l4.06-13.67a10.81,10.81,0,0,1,2.33-.26,7.42,7.42,0,0,1,2.21.26l4,13.58a27.58,27.58,0,0,1,.93,4.9h.13a38.36,38.36,0,0,1,1.06-4.85L331,239.7a6.29,6.29,0,0,1,2-.26,5.44,5.44,0,0,1,1.94.26l-6.65,22.71a13.67,13.67,0,0,1-2.52.26,13.36,13.36,0,0,1-2.46-.26l-3.53-11.86a28.1,28.1,0,0,1-1.24-6.66h-.13a29.05,29.05,0,0,1-1.32,6.66l-3.53,11.86a13,13,0,0,1-2.47.26A13.93,13.93,0,0,1,308.53,262.41Z"/><path class="cls-1" d="M355,252.4H341.72c.35,5.25,2.38,7,6.12,7A10.12,10.12,0,0,0,353,258a4.61,4.61,0,0,1,1.46,3.13s-2.52,1.94-7.41,1.94c-6.61,0-9.87-4.05-9.87-12.12,0-8.33,3.88-12,9.74-12,5.51,0,8.55,3.09,8.55,8.77A20.27,20.27,0,0,1,355,252.4Zm-13.32-3h9.57a14,14,0,0,0,.13-2.11c0-2.69-1.19-4.9-4.41-4.9C344.05,242.39,342,244.38,341.67,249.4Z"/><path class="cls-1" d="M354.54,273.21a3.12,3.12,0,0,1-.17-1,4.42,4.42,0,0,1,.48-2.24,8.46,8.46,0,0,0,1.68.17c2.16,0,3.3-1.1,3.3-3.79V239.7a6.72,6.72,0,0,1,2.21-.26,7.71,7.71,0,0,1,2.2.26v26.85c0,4.72-2.29,7.14-6.52,7.14A8.64,8.64,0,0,1,354.54,273.21Zm5.12-38.57v-4a8.41,8.41,0,0,1,2.38-.26,8.05,8.05,0,0,1,2.29.26v4a8.05,8.05,0,0,1-2.29.26A8.41,8.41,0,0,1,359.66,234.64Z"/><path class="cls-1" d="M383.15,262.41l-6.66-22.71a7.84,7.84,0,0,1,2.21-.26,4.69,4.69,0,0,1,1.94.26l4.14,13.67a26.2,26.2,0,0,1,.93,4.81h.13a33.34,33.34,0,0,1,1-4.81l4.06-13.67a10.92,10.92,0,0,1,2.33-.26,7.42,7.42,0,0,1,2.21.26l4,13.58a28.26,28.26,0,0,1,.92,4.9h.13a40.28,40.28,0,0,1,1.06-4.85l4.1-13.63a6.29,6.29,0,0,1,2-.26,5.44,5.44,0,0,1,1.94.26l-6.65,22.71a13.65,13.65,0,0,1-2.51.26,13.38,13.38,0,0,1-2.47-.26l-3.53-11.86a27.41,27.41,0,0,1-1.23-6.66H393a29.05,29.05,0,0,1-1.32,6.66l-3.52,11.86a13.1,13.1,0,0,1-2.47.26A14,14,0,0,1,383.15,262.41Z"/><path class="cls-1" d="M437.23,260.91a4.48,4.48,0,0,1-.31,1.76H420.44a5.61,5.61,0,0,1-.27-1.89,5.3,5.3,0,0,1,.27-1.68L432.21,243h-11a5.48,5.48,0,0,1-.27-1.81,4.79,4.79,0,0,1,.27-1.76h15.69a5.42,5.42,0,0,1,.26,1.68,7.29,7.29,0,0,1-.26,1.89L425.11,259.1h11.81A4.37,4.37,0,0,1,437.23,260.91Z"/><path class="cls-1" d="M458,247.64v14.77a5.1,5.1,0,0,1-1.81.26,5.45,5.45,0,0,1-1.81-.26l-.61-3c-1.11,2.38-3.57,3.66-7,3.66-4.19,0-6.83-2.47-6.83-7.27s2.86-6.92,8.51-6.92a48.57,48.57,0,0,1,5.11.26v-1.8c0-3.13-1.37-4.68-4.67-4.68a18.67,18.67,0,0,0-5.91,1.06,3.11,3.11,0,0,1-1-1.32,4.06,4.06,0,0,1-.31-1.85,20.3,20.3,0,0,1,7.8-1.59C455.92,239,458,241.91,458,247.64Zm-4.41,6.08v-1.63c-1-.09-2.82-.26-4.5-.26-3.08,0-4.62,1.14-4.62,4s1.45,4,3.83,4C451.64,259.89,453.54,257.12,453.54,253.72Z"/><path class="cls-1" d="M482.37,251.08c0,9-3.31,12-8.42,12-3.09,0-5.12-1.1-6.39-2.95v2.25a9.48,9.48,0,0,1-4.41,0V229.87a9.48,9.48,0,0,1,4.41,0V242c1.27-1.9,3.3-3,6.39-3C479.06,239,482.37,242,482.37,251.08Zm-4.63,0c0-6.48-1.68-8.51-5.29-8.51-3.13,0-4.85,2.65-4.89,5.6v5.69c0,3,1.76,5.68,4.89,5.68C476.06,259.54,477.74,257.51,477.74,251.08Z"/><path class="cls-1" d="M486.73,234.64v-4a7.64,7.64,0,0,1,2.34-.27,8.54,8.54,0,0,1,2.38.27v4a8.85,8.85,0,0,1-2.38.26A7.91,7.91,0,0,1,486.73,234.64Zm.13,27.77V239.7a6.72,6.72,0,0,1,2.21-.26,7.38,7.38,0,0,1,2.2.26v22.71a7.38,7.38,0,0,1-2.2.26A7.1,7.1,0,0,1,486.86,262.41Z"/><path class="cls-1" d="M513.57,252.4H500.3c.36,5.25,2.38,7,6.13,7a10.12,10.12,0,0,0,5.16-1.33,4.56,4.56,0,0,1,1.45,3.13s-2.51,1.94-7.4,1.94c-6.61,0-9.88-4.05-9.88-12.12,0-8.33,3.88-12,9.75-12,5.51,0,8.55,3.09,8.55,8.77A19.88,19.88,0,0,1,513.57,252.4Zm-13.31-3h9.57a15.44,15.44,0,0,0,.13-2.11c0-2.69-1.19-4.9-4.41-4.9C502.64,242.39,500.61,244.38,500.26,249.4Z"/><path class="cls-1" d="M537.29,242.48l-3.62-.09a8.12,8.12,0,0,1,1.19,4.5c0,4.89-3,7.89-8.73,7.89a13.82,13.82,0,0,1-2-.13,4,4,0,0,0-.93,2.69c.45,4.1,14-.31,14,8.77,0,4.32-4.1,7.58-11.41,7.58-6.57,0-9.48-2.55-9.48-6.17,0-3.39,2.69-5.38,3.88-6.13a3.46,3.46,0,0,1-1-2.6,7.54,7.54,0,0,1,2.2-4.89c-2.56-1.19-4.05-3.53-4.05-7,0-4.85,3.08-7.89,8.72-7.89a10.91,10.91,0,0,1,5,1.1l6.17-1.06A5.47,5.47,0,0,1,537.29,242.48Zm-14.64,20.15a5.39,5.39,0,0,0-2.07,4c0,2.34,1.68,3.92,5.33,3.92,4.59,0,7.1-1.58,7.1-4C533,262.76,526.71,263.77,522.65,262.63Zm7.94-15.78c0-3.31-1.77-4.85-4.46-4.85s-4.45,1.54-4.45,4.85,1.81,4.93,4.45,4.93S530.59,250.24,530.59,246.85Z"/><path class="cls-1" d="M557.38,247.64v14.77a5,5,0,0,1-1.8.26,5.38,5.38,0,0,1-1.81-.26l-.62-3c-1.1,2.38-3.57,3.66-7,3.66-4.19,0-6.84-2.47-6.84-7.27s2.87-6.92,8.51-6.92a48.79,48.79,0,0,1,5.12.26v-1.8c0-3.13-1.37-4.68-4.68-4.68a18.57,18.57,0,0,0-5.9,1.06,3,3,0,0,1-1-1.32,4.06,4.06,0,0,1-.31-1.85,20.24,20.24,0,0,1,7.8-1.59C555.36,239,557.38,241.91,557.38,247.64Zm-4.4,6.08v-1.63c-1-.09-2.82-.26-4.5-.26-3.09,0-4.63,1.14-4.63,4s1.46,4,3.84,4C551.08,259.89,553,257.12,553,253.72Z"/><path class="cls-1" d="M561.61,251.08c0-7.94,3.36-12.08,9.79-12.08,4.06,0,5.91,1.15,5.91,1.15a4.51,4.51,0,0,1-1.32,3.17,9.4,9.4,0,0,0-3.8-.71c-4.23,0-6,2.69-6,8.47s1.89,8.29,6.17,8.29a10,10,0,0,0,4.06-.8,4.51,4.51,0,0,1,1.32,3.13s-2.07,1.41-6.35,1.41C565,263.11,561.61,259,561.61,251.08Z"/><path class="cls-1" d="M599.39,245.61v16.8a7.71,7.71,0,0,1-2.2.26,7.1,7.1,0,0,1-2.21-.26V246.49c0-2.55-1.32-3.92-4.1-3.92a6.18,6.18,0,0,0-5.11,3v16.8a7.42,7.42,0,0,1-2.21.26,7.06,7.06,0,0,1-2.2-.26V229.87a7.06,7.06,0,0,1,2.2-.26,7.42,7.42,0,0,1,2.21.26v12A8.93,8.93,0,0,1,592.6,239C597,239,599.39,241.64,599.39,245.61Z"/><path class="cls-1" d="M86,315.3l-6.66-22.7a7.45,7.45,0,0,1,2.2-.27,4.48,4.48,0,0,1,1.94.27l4.15,13.66a26.85,26.85,0,0,1,.92,4.81h.13a33.72,33.72,0,0,1,1-4.81l4-13.66a10.58,10.58,0,0,1,2.34-.27,7.13,7.13,0,0,1,2.2.27l4,13.58a27.35,27.35,0,0,1,.93,4.89h.13a38.36,38.36,0,0,1,1.06-4.85l4.1-13.62a6,6,0,0,1,2-.27,5.32,5.32,0,0,1,1.94.27l-6.66,22.7a11.62,11.62,0,0,1-5,0l-3.52-11.86A28.13,28.13,0,0,1,96,296.79h-.13a29.1,29.1,0,0,1-1.32,6.65L91,315.3a13,13,0,0,1-2.47.27A13.85,13.85,0,0,1,86,315.3Z"/><path class="cls-1" d="M114.28,314.42a3.92,3.92,0,0,1,1.15-3.13,18.72,18.72,0,0,0,6,1.06c2.91,0,4.58-1,4.58-3.26,0-2.43-2.55-3-5.2-3.75-3-.88-6.22-2.25-6.22-6.53s2.69-6.92,8.29-6.92a14.54,14.54,0,0,1,6.35,1.19,4.08,4.08,0,0,1-1.1,3.09,16.16,16.16,0,0,0-4.76-.75c-3.09,0-4.59,1.15-4.59,3.22s2.74,2.73,5.47,3.61c2.95,1,6.08,2.29,6.08,6.7s-2.73,7.06-8.55,7.06A17.93,17.93,0,0,1,114.28,314.42Z"/><path class="cls-1" d="M149.94,313.8a4.57,4.57,0,0,1-.31,1.77H133.15a5.71,5.71,0,0,1-.27-1.9,5.35,5.35,0,0,1,.27-1.68l11.77-16.09h-11a5.45,5.45,0,0,1-.27-1.8,4.82,4.82,0,0,1,.27-1.77h15.69a5.42,5.42,0,0,1,.26,1.68,7.29,7.29,0,0,1-.26,1.89L137.82,312h11.81A4.37,4.37,0,0,1,149.94,313.8Z"/><path class="cls-1" d="M153.07,304c0-7.93,3.35-12.08,9.78-12.08,4.06,0,5.91,1.15,5.91,1.15a4.43,4.43,0,0,1-1.32,3.17,9.43,9.43,0,0,0-3.79-.7c-4.23,0-6,2.69-6,8.46s1.9,8.29,6.18,8.29a10.09,10.09,0,0,0,4-.79,4.43,4.43,0,0,1,1.32,3.13s-2.07,1.41-6.35,1.41C156.42,316,153.07,311.91,153.07,304Z"/><path class="cls-1" d="M188.38,313.8a4.57,4.57,0,0,1-.31,1.77H171.58a6,6,0,0,1-.26-1.9,5.7,5.7,0,0,1,.26-1.68l11.77-16.09h-11a5.64,5.64,0,0,1-.26-1.8,5,5,0,0,1,.26-1.77H188a5.11,5.11,0,0,1,.27,1.68,6.84,6.84,0,0,1-.27,1.89L176.25,312h11.82A4.37,4.37,0,0,1,188.38,313.8Z"/><path class="cls-1" d="M209.31,305.29H196c.36,5.25,2.39,7,6.13,7a10.18,10.18,0,0,0,5.16-1.32,4.52,4.52,0,0,1,1.45,3.13s-2.51,1.94-7.4,1.94c-6.61,0-9.88-4.06-9.88-12.13,0-8.33,3.88-12,9.75-12,5.51,0,8.55,3.09,8.55,8.78A19.84,19.84,0,0,1,209.31,305.29Zm-13.31-3h9.57a15.59,15.59,0,0,0,.13-2.12c0-2.69-1.19-4.89-4.41-4.89C198.38,295.29,196.35,297.27,196,302.3Z"/><path class="cls-1" d="M233.25,303.93c0,9-3.31,12.08-8.38,12.08-3.13,0-5.16-1.11-6.43-3.05v12.66a9.48,9.48,0,0,1-4.41,0v-33a9.14,9.14,0,0,1,4.41,0v2.29c1.27-1.94,3.3-3,6.43-3C229.9,291.89,233.25,294.89,233.25,303.93Zm-4.63,0c0-6.48-1.68-8.47-5.29-8.47-3.09,0-4.85,2.6-4.89,5.56v5.68c0,2.91,1.72,5.74,4.89,5.74C226.94,312.44,228.62,310.5,228.62,303.93Z"/><path class="cls-1" d="M237.65,287.53v-4a7.91,7.91,0,0,1,2.34-.26,8.85,8.85,0,0,1,2.38.26v4a8.85,8.85,0,0,1-2.38.26A7.91,7.91,0,0,1,237.65,287.53Zm.14,27.77V292.6a6.46,6.46,0,0,1,2.2-.27,7.13,7.13,0,0,1,2.2.27v22.7a7.13,7.13,0,0,1-2.2.27A6.75,6.75,0,0,1,237.79,315.3Z"/><path class="cls-1" d="M264.28,300.53V315.3a4.93,4.93,0,0,1-1.81.27,5.2,5.2,0,0,1-1.81-.27l-.61-2.95c-1.11,2.38-3.58,3.66-7,3.66-4.19,0-6.83-2.47-6.83-7.28s2.86-6.92,8.51-6.92a45.55,45.55,0,0,1,5.11.27v-1.81c0-3.13-1.37-4.67-4.67-4.67a18.82,18.82,0,0,0-5.91,1,3.11,3.11,0,0,1-1-1.32,4,4,0,0,1-.31-1.85,20.3,20.3,0,0,1,7.8-1.59C262.25,291.89,264.28,294.8,264.28,300.53Zm-4.41,6.09V305c-1-.09-2.82-.27-4.5-.27-3.08,0-4.63,1.15-4.63,4.06s1.46,4,3.84,4C258,312.79,259.87,310,259.87,306.62Z"/><path class="cls-1" d="M269.48,315.3V292.6a6.75,6.75,0,0,1,2.2-.27,7.13,7.13,0,0,1,2.2.27v2.29a8.9,8.9,0,0,1,6.84-3c4.41,0,6.79,2.65,6.79,6.62V315.3a7.57,7.57,0,0,1-2.21.27,6.75,6.75,0,0,1-2.2-.27V299.39c0-2.56-1.33-3.93-4.1-3.93a6.17,6.17,0,0,0-5.12,3.05V315.3a7.13,7.13,0,0,1-2.2.27A6.75,6.75,0,0,1,269.48,315.3Z"/><path class="cls-1" d="M292.66,287.53v-4a7.91,7.91,0,0,1,2.34-.26,8.85,8.85,0,0,1,2.38.26v4a8.85,8.85,0,0,1-2.38.26A7.91,7.91,0,0,1,292.66,287.53Zm.13,27.77V292.6a6.49,6.49,0,0,1,2.21-.27,7.13,7.13,0,0,1,2.2.27v22.7a7.13,7.13,0,0,1-2.2.27A6.86,6.86,0,0,1,292.79,315.3Z"/><path class="cls-1" d="M319.28,300.53V315.3a4.84,4.84,0,0,1-1.8.27,5.2,5.2,0,0,1-1.81-.27l-.62-2.95c-1.1,2.38-3.57,3.66-7,3.66-4.19,0-6.83-2.47-6.83-7.28s2.86-6.92,8.5-6.92a45.76,45.76,0,0,1,5.12.27v-1.81c0-3.13-1.37-4.67-4.68-4.67a18.72,18.72,0,0,0-5.9,1,3,3,0,0,1-1-1.32,4,4,0,0,1-.31-1.85,20.24,20.24,0,0,1,7.8-1.59C317.26,291.89,319.28,294.8,319.28,300.53Zm-4.4,6.09V305c-1-.09-2.83-.27-4.5-.27-3.09,0-4.63,1.15-4.63,4.06s1.46,4,3.84,4C313,312.79,314.88,310,314.88,306.62Z"/><path class="cls-1" d="M333.34,287.53v-4a7.91,7.91,0,0,1,2.34-.26,8.85,8.85,0,0,1,2.38.26v4a8.85,8.85,0,0,1-2.38.26A7.91,7.91,0,0,1,333.34,287.53Zm.13,27.77V292.6a6.56,6.56,0,0,1,2.21-.27,7.13,7.13,0,0,1,2.2.27v22.7a7.13,7.13,0,0,1-2.2.27A6.86,6.86,0,0,1,333.47,315.3Z"/><path class="cls-1" d="M343.35,315.3V292.6a6.75,6.75,0,0,1,2.2-.27,7.16,7.16,0,0,1,2.21.27v2.25a8.32,8.32,0,0,1,6.52-3,5.76,5.76,0,0,1,5.73,3.44,8.78,8.78,0,0,1,7.27-3.44c4.19,0,6.48,2.65,6.48,6.66V315.3a7.45,7.45,0,0,1-2.2.27,6.75,6.75,0,0,1-2.2-.27V299.39c0-2.6-1.19-3.93-3.79-3.93a5.48,5.48,0,0,0-4.81,3.09V315.3a7.45,7.45,0,0,1-2.2.27,6.86,6.86,0,0,1-2.21-.27V299.39c0-2.6-1.19-3.93-3.79-3.93a5.74,5.74,0,0,0-4.8,3.05V315.3a7.57,7.57,0,0,1-2.21.27A6.75,6.75,0,0,1,343.35,315.3Z"/><path class="cls-1" d="M398.18,303.93c0,9-3.3,12.08-8.37,12.08-3.13,0-5.16-1.11-6.44-3.05v12.66a9.48,9.48,0,0,1-4.41,0v-33a9.14,9.14,0,0,1,4.41,0v2.29c1.28-1.94,3.31-3,6.44-3C394.83,291.89,398.18,294.89,398.18,303.93Zm-4.63,0c0-6.48-1.67-8.47-5.29-8.47-3.08,0-4.85,2.6-4.89,5.56v5.68c0,2.91,1.72,5.74,4.89,5.74C391.88,312.44,393.55,310.5,393.55,303.93Z"/><path class="cls-1" d="M402.81,315.3V282.77a6.46,6.46,0,0,1,2.2-.27,7.16,7.16,0,0,1,2.21.27V315.3a7.16,7.16,0,0,1-2.21.27A6.46,6.46,0,0,1,402.81,315.3Z"/><path class="cls-1" d="M429.34,300.53V315.3a4.84,4.84,0,0,1-1.8.27,5.2,5.2,0,0,1-1.81-.27l-.62-2.95c-1.1,2.38-3.57,3.66-7,3.66-4.19,0-6.84-2.47-6.84-7.28s2.87-6.92,8.51-6.92a45.76,45.76,0,0,1,5.12.27v-1.81c0-3.13-1.37-4.67-4.68-4.67a18.72,18.72,0,0,0-5.9,1,3,3,0,0,1-1-1.32,4,4,0,0,1-.31-1.85,20.24,20.24,0,0,1,7.8-1.59C427.32,291.89,429.34,294.8,429.34,300.53Zm-4.4,6.09V305c-1-.09-2.83-.27-4.5-.27-3.09,0-4.63,1.15-4.63,4.06s1.46,4,3.84,4C423,312.79,424.94,310,424.94,306.62Z"/><path class="cls-1" d="M434.54,315.3V292.6a6.86,6.86,0,0,1,2.21-.27,7.13,7.13,0,0,1,2.2.27v2.29a8.88,8.88,0,0,1,6.83-3c4.41,0,6.79,2.65,6.79,6.62V315.3a7.45,7.45,0,0,1-2.2.27,6.75,6.75,0,0,1-2.2-.27V299.39c0-2.56-1.33-3.93-4.1-3.93a6.17,6.17,0,0,0-5.12,3.05V315.3a7.13,7.13,0,0,1-2.2.27A6.86,6.86,0,0,1,434.54,315.3Z"/><path class="cls-1" d="M470.34,314.07a4.48,4.48,0,0,1-.23,1.54,12.88,12.88,0,0,1-3.39.4c-5.47,0-7.45-2.87-7.45-8.47v-11.9h-3.35a4.58,4.58,0,0,1-.26-1.63,4.16,4.16,0,0,1,.26-1.68h3.35V288.1a7.56,7.56,0,0,1,4.41-.84v5.07h5.77a5,5,0,0,1,.22,1.63,5.81,5.81,0,0,1-.22,1.68h-5.77v11.73c0,3.83,1.19,5.11,4.27,5.11a13.24,13.24,0,0,0,2-.18A4,4,0,0,1,470.34,314.07Z"/><path class="cls-1" d="M491.32,292.6v22.7a6.86,6.86,0,0,1-2.21.27,7.13,7.13,0,0,1-2.2-.27V313a8.82,8.82,0,0,1-6.88,3c-4.36,0-6.74-2.65-6.74-6.62V292.6a7.13,7.13,0,0,1,2.2-.27,6.75,6.75,0,0,1,2.2.27v16c0,2.51,1.33,3.92,4.1,3.92a6.26,6.26,0,0,0,5.12-3.09V292.6a9.14,9.14,0,0,1,4.41,0Z"/><path class="cls-1" d="M521.11,313.8a4.57,4.57,0,0,1-.31,1.77H504.32a5.71,5.71,0,0,1-.27-1.9,5.35,5.35,0,0,1,.27-1.68l11.77-16.09h-11a5.45,5.45,0,0,1-.27-1.8,4.82,4.82,0,0,1,.27-1.77h15.69A5.42,5.42,0,0,1,521,294a7.29,7.29,0,0,1-.26,1.89L509,312H520.8A4.37,4.37,0,0,1,521.11,313.8Z"/><path class="cls-1" d="M542.05,305.29H528.78c.26,5.25,2.38,7,6.13,7a10.12,10.12,0,0,0,5.15-1.32,4.78,4.78,0,0,1,1.5,3.13l-.92.75c-3.31,2.86-4.85,5.95-4.32,7.58a1.43,1.43,0,0,0,1.36,1.06,4.86,4.86,0,0,0,1.77-.49,3.83,3.83,0,0,1,1.1,2.56,7.29,7.29,0,0,1-4,1.06c-2.16,0-3.66-.84-4.14-2.69-.75-2.56,1-5.51,3.92-8.07a11.52,11.52,0,0,1-2.25.18c-6.61,0-9.87-4.06-9.87-12.13,0-8.33,3.88-12,9.74-12,5.51,0,8.55,3.09,8.55,8.78A20.23,20.23,0,0,1,542.05,305.29Zm-13.32-3h9.57a14.13,14.13,0,0,0,.13-2.12c0-2.69-1.19-4.89-4.41-4.89C531.12,295.29,529,297.27,528.73,302.3Z"/><path class="cls-1" d="M566,304c0,9-3.3,12-8.42,12-3.08,0-5.11-1.11-6.39-3v2.25a9.14,9.14,0,0,1-4.41,0V282.77a9.14,9.14,0,0,1,4.41,0v12.12c1.28-1.89,3.31-3,6.39-3C562.68,291.89,566,294.93,566,304Zm-4.63,0c0-6.48-1.67-8.51-5.29-8.51-3.13,0-4.85,2.65-4.89,5.6v5.69c0,3,1.76,5.69,4.89,5.69C559.68,312.44,561.35,310.41,561.35,304Z"/><path class="cls-1" d="M569.42,303.93c0-8.73,3.79-12,9.87-12s9.83,3.31,9.83,12S585.38,316,579.29,316,569.42,312.7,569.42,303.93Zm15.16,0c0-6.75-2-8.64-5.29-8.64s-5.29,1.89-5.29,8.64,2,8.68,5.29,8.68S584.58,310.67,584.58,303.93Z"/><path class="cls-1" d="M598.07,315.3l-6.66-22.7a7.57,7.57,0,0,1,2.21-.27,4.45,4.45,0,0,1,1.93.27l4.15,13.66a26.2,26.2,0,0,1,.93,4.81h.13a32,32,0,0,1,1-4.81l4.06-13.66a10.43,10.43,0,0,1,2.33-.27,7.16,7.16,0,0,1,2.21.27l4,13.58a27.35,27.35,0,0,1,.93,4.89h.13a38.36,38.36,0,0,1,1.06-4.85l4.1-13.62a6.08,6.08,0,0,1,2-.27,5.26,5.26,0,0,1,1.94.27l-6.65,22.7a13.6,13.6,0,0,1-2.52.27,13.3,13.3,0,0,1-2.46-.27l-3.53-11.86a28.13,28.13,0,0,1-1.24-6.65h-.13a29.1,29.1,0,0,1-1.32,6.65l-3.53,11.86a12.91,12.91,0,0,1-2.46.27A14,14,0,0,1,598.07,315.3Z"/><path class="cls-1" d="M644.53,305.29H631.26c.35,5.25,2.38,7,6.12,7a10.18,10.18,0,0,0,5.16-1.32,4.57,4.57,0,0,1,1.46,3.13s-2.52,1.94-7.41,1.94c-6.61,0-9.87-4.06-9.87-12.13,0-8.33,3.88-12,9.74-12,5.51,0,8.55,3.09,8.55,8.78A20.23,20.23,0,0,1,644.53,305.29Zm-13.32-3h9.57a14.13,14.13,0,0,0,.13-2.12c0-2.69-1.19-4.89-4.41-4.89C633.59,295.29,631.57,297.27,631.21,302.3Z"/><path class="cls-1" d="M668.24,295.38l-3.61-.09a8.15,8.15,0,0,1,1.19,4.49c0,4.9-3,7.89-8.73,7.89a13.86,13.86,0,0,1-2-.13,4,4,0,0,0-.92,2.69c.44,4.1,14-.31,14,8.77,0,4.32-4.1,7.59-11.42,7.59-6.57,0-9.48-2.56-9.48-6.18,0-3.39,2.69-5.37,3.88-6.12a3.49,3.49,0,0,1-1-2.6,7.62,7.62,0,0,1,2.2-4.9c-2.55-1.19-4-3.52-4-7,0-4.85,3.08-7.89,8.73-7.89a10.74,10.74,0,0,1,5,1.11l6.17-1.06A5.4,5.4,0,0,1,668.24,295.38ZM653.6,315.52a5.39,5.39,0,0,0-2.07,4c0,2.34,1.68,3.93,5.34,3.93,4.58,0,7.09-1.59,7.09-4C664,315.65,657.66,316.67,653.6,315.52Zm7.94-15.78c0-3.31-1.76-4.85-4.45-4.85s-4.46,1.54-4.46,4.85,1.81,4.94,4.46,4.94S661.54,303.13,661.54,299.74Z"/><path class="cls-1" d="M670.75,303.93c0-8.73,3.79-12,9.87-12s9.83,3.31,9.83,12S686.71,316,680.62,316,670.75,312.7,670.75,303.93Zm15.16,0c0-6.75-2-8.64-5.29-8.64s-5.29,1.89-5.29,8.64,2,8.68,5.29,8.68S685.91,310.67,685.91,303.93Z"/><path class="cls-1" d="M99.34,345.49v22.7a6.75,6.75,0,0,1-2.2.27,7.16,7.16,0,0,1-2.21-.27V365.9a8.78,8.78,0,0,1-6.87,3c-4.37,0-6.75-2.65-6.75-6.61v-16.8a7.42,7.42,0,0,1,2.21-.26,7.06,7.06,0,0,1,2.2.26v16c0,2.51,1.32,3.92,4.1,3.92a6.22,6.22,0,0,0,5.11-3.08v-16.8a9.48,9.48,0,0,1,4.41,0Z"/><path class="cls-1" d="M132.8,356.82c0,9-3.31,12.08-8.38,12.08-3.13,0-5.16-1.1-6.44-3v12.65a9.44,9.44,0,0,1-4.4,0v-33a9.44,9.44,0,0,1,4.4,0v2.29c1.28-1.94,3.31-3,6.44-3C129.45,344.79,132.8,347.78,132.8,356.82Zm-4.63,0c0-6.48-1.68-8.46-5.29-8.46-3.09,0-4.85,2.6-4.9,5.55v5.69c0,2.91,1.72,5.73,4.9,5.73C126.49,365.33,128.17,363.39,128.17,356.82Z"/><path class="cls-1" d="M153.86,353.43v14.76a4.84,4.84,0,0,1-1.8.27,5.2,5.2,0,0,1-1.81-.27l-.62-2.95c-1.1,2.38-3.57,3.66-7,3.66-4.19,0-6.83-2.47-6.83-7.28s2.86-6.92,8.5-6.92a48.31,48.31,0,0,1,5.12.27v-1.81c0-3.13-1.37-4.67-4.68-4.67a18.57,18.57,0,0,0-5.9,1.06,3.1,3.1,0,0,1-1-1.33,4,4,0,0,1-.31-1.85,20.34,20.34,0,0,1,7.8-1.58C151.84,344.79,153.86,347.7,153.86,353.43Zm-4.4,6.08v-1.63c-1-.09-2.83-.27-4.5-.27-3.09,0-4.63,1.15-4.63,4.06s1.46,4,3.84,4C147.56,365.68,149.46,362.9,149.46,359.51Z"/><path class="cls-1" d="M158.09,356.86c0-7.93,3.35-12.07,9.79-12.07,4.06,0,5.91,1.14,5.91,1.14a4.48,4.48,0,0,1-1.33,3.18,9.32,9.32,0,0,0-3.79-.71c-4.23,0-6,2.69-6,8.46s1.89,8.29,6.17,8.29a10.17,10.17,0,0,0,4.06-.79,4.47,4.47,0,0,1,1.32,3.13s-2.07,1.41-6.35,1.41C161.44,368.9,158.09,364.8,158.09,356.86Z"/><path class="cls-1" d="M172.68,379a3.09,3.09,0,0,1-.17-1,4.44,4.44,0,0,1,.48-2.25,8,8,0,0,0,1.68.18c2.16,0,3.3-1.1,3.3-3.79V345.49a6.72,6.72,0,0,1,2.21-.26,7.71,7.71,0,0,1,2.2.26v26.85c0,4.71-2.29,7.14-6.52,7.14A8.49,8.49,0,0,1,172.68,379Zm5.12-38.57v-4a8.41,8.41,0,0,1,2.38-.26,8.05,8.05,0,0,1,2.29.26v4a7.77,7.77,0,0,1-2.29.27A8.11,8.11,0,0,1,177.8,340.42Z"/><path class="cls-1" d="M204.68,358.19H191.42c.35,5.24,2.38,7,6.12,7a10.18,10.18,0,0,0,5.16-1.32,4.61,4.61,0,0,1,1.46,3.13s-2.52,1.94-7.41,1.94c-6.61,0-9.87-4.06-9.87-12.12,0-8.34,3.88-12,9.74-12,5.51,0,8.55,3.08,8.55,8.77A19.88,19.88,0,0,1,204.68,358.19Zm-13.31-3h9.57a14,14,0,0,0,.13-2.12c0-2.69-1.19-4.89-4.41-4.89C193.75,348.18,191.72,350.16,191.37,355.19Z"/><path class="cls-1" d="M209.4,368.19v-22.7a7,7,0,0,1,2.2-.26,7.42,7.42,0,0,1,2.21.26v2.29a8.86,8.86,0,0,1,6.83-3c4.41,0,6.79,2.64,6.79,6.61v16.79a7.57,7.57,0,0,1-2.21.27,6.82,6.82,0,0,1-2.2-.27V352.28c0-2.56-1.32-3.92-4.1-3.92a6.16,6.16,0,0,0-5.11,3v16.79a7.16,7.16,0,0,1-2.21.27A6.75,6.75,0,0,1,209.4,368.19Z"/><path class="cls-1" d="M245.19,367a4.66,4.66,0,0,1-.22,1.54,12.94,12.94,0,0,1-3.39.4c-5.47,0-7.45-2.87-7.45-8.47v-11.9h-3.36a4.51,4.51,0,0,1-.26-1.63,4.13,4.13,0,0,1,.26-1.67h3.36V341a7.46,7.46,0,0,1,4.4-.83v5.07h5.78a4.94,4.94,0,0,1,.22,1.63,5.78,5.78,0,0,1-.22,1.67h-5.78v11.73c0,3.83,1.19,5.11,4.28,5.11a14.18,14.18,0,0,0,2-.17A4,4,0,0,1,245.19,367Z"/><path class="cls-1" d="M247.3,356.82c0-8.73,3.79-12,9.88-12s9.83,3.3,9.83,12-3.75,12.08-9.83,12.08S247.3,365.59,247.3,356.82Zm15.17,0c0-6.74-2-8.64-5.29-8.64s-5.29,1.9-5.29,8.64,2,8.68,5.29,8.68S262.47,363.56,262.47,356.82Zm-9.3-16,4.41-6.39a4.37,4.37,0,0,1,3.83,1.63l-5.69,6.13A3.4,3.4,0,0,1,253.17,340.86Z"/><path class="cls-1" d="M276,368.19l-6.65-22.7a7.71,7.71,0,0,1,2.2-.26,4.63,4.63,0,0,1,1.94.26l4.15,13.67a26.78,26.78,0,0,1,.92,4.8h.13a33.37,33.37,0,0,1,1-4.8l4-13.67a11,11,0,0,1,2.34-.26,7.3,7.3,0,0,1,2.2.26l4,13.58a27.35,27.35,0,0,1,.93,4.89h.13a38.36,38.36,0,0,1,1.06-4.85l4.1-13.62a6.21,6.21,0,0,1,2-.26,5.51,5.51,0,0,1,1.94.26l-6.66,22.7a11.62,11.62,0,0,1-5,0l-3.52-11.85a28.18,28.18,0,0,1-1.24-6.66h-.13a29.25,29.25,0,0,1-1.32,6.66L281,368.19a12.26,12.26,0,0,1-2.47.27A13.23,13.23,0,0,1,276,368.19Z"/><path class="cls-1" d="M314.43,340.42v-4a7.91,7.91,0,0,1,2.34-.26,8.85,8.85,0,0,1,2.38.26v4a8.54,8.54,0,0,1-2.38.27A7.64,7.64,0,0,1,314.43,340.42Zm.14,27.77v-22.7a6.68,6.68,0,0,1,2.2-.26,7.38,7.38,0,0,1,2.2.26v22.7a7.13,7.13,0,0,1-2.2.27A6.75,6.75,0,0,1,314.57,368.19Z"/><path class="cls-1" d="M324.44,368.19v-22.7a7,7,0,0,1,2.2-.26,7.42,7.42,0,0,1,2.21.26v2.25a8.3,8.3,0,0,1,6.52-2.95,5.76,5.76,0,0,1,5.73,3.43,8.81,8.81,0,0,1,7.28-3.43c4.18,0,6.47,2.64,6.47,6.65v16.75a7.45,7.45,0,0,1-2.2.27,6.75,6.75,0,0,1-2.2-.27V352.28c0-2.6-1.19-3.92-3.79-3.92a5.47,5.47,0,0,0-4.81,3.08v16.75a7.45,7.45,0,0,1-2.2.27,6.86,6.86,0,0,1-2.21-.27V352.28c0-2.6-1.19-3.92-3.79-3.92a5.73,5.73,0,0,0-4.8,3v16.79a7.57,7.57,0,0,1-2.21.27A6.75,6.75,0,0,1,324.44,368.19Z"/><path class="cls-1" d="M360.05,368.19v-22.7a7.1,7.1,0,0,1,2.21-.26,7.38,7.38,0,0,1,2.2.26v2.25a8.32,8.32,0,0,1,6.53-2.95,5.76,5.76,0,0,1,5.73,3.43,8.79,8.79,0,0,1,7.27-3.43c4.19,0,6.48,2.64,6.48,6.65v16.75a7.48,7.48,0,0,1-2.21.27,6.82,6.82,0,0,1-2.2-.27V352.28c0-2.6-1.19-3.92-3.79-3.92a5.45,5.45,0,0,0-4.8,3.08v16.75a7.57,7.57,0,0,1-2.21.27,6.75,6.75,0,0,1-2.2-.27V352.28c0-2.6-1.19-3.92-3.79-3.92a5.73,5.73,0,0,0-4.81,3v16.79a7.45,7.45,0,0,1-2.2.27A6.86,6.86,0,0,1,360.05,368.19Z"/><path class="cls-1" d="M413.56,345.49v22.7a6.75,6.75,0,0,1-2.2.27,7.13,7.13,0,0,1-2.2-.27V365.9a8.82,8.82,0,0,1-6.88,3c-4.36,0-6.75-2.65-6.75-6.61v-16.8a7.42,7.42,0,0,1,2.21-.26,7,7,0,0,1,2.2.26v16c0,2.51,1.32,3.92,4.1,3.92a6.25,6.25,0,0,0,5.12-3.08v-16.8a9.44,9.44,0,0,1,4.4,0Z"/><path class="cls-1" d="M418.89,368.19v-22.7a7.1,7.1,0,0,1,2.21-.26,7.38,7.38,0,0,1,2.2.26v2.29a8.88,8.88,0,0,1,6.84-3c4.4,0,6.79,2.64,6.79,6.61v16.79a7.57,7.57,0,0,1-2.21.27,6.75,6.75,0,0,1-2.2-.27V352.28c0-2.56-1.33-3.92-4.1-3.92a6.16,6.16,0,0,0-5.12,3v16.79a7.13,7.13,0,0,1-2.2.27A6.86,6.86,0,0,1,418.89,368.19Z"/><path class="cls-1" d="M441.15,356.82c0-8.73,3.79-12,9.88-12s9.83,3.3,9.83,12S457.11,368.9,451,368.9,441.15,365.59,441.15,356.82Zm15.17,0c0-6.74-2-8.64-5.29-8.64s-5.29,1.9-5.29,8.64,2,8.68,5.29,8.68S456.32,363.56,456.32,356.82Z"/><path class="cls-1" d="M483.91,368.15a8.89,8.89,0,0,1-2.47.31,8.29,8.29,0,0,1-2.42-.31L472.45,358h-2.78v10.18a7,7,0,0,1-2.16.27,8.05,8.05,0,0,1-2.25-.27V335.62a10.31,10.31,0,0,1,2.25-.22,9.81,9.81,0,0,1,2.16.22v19h2.87l5.86-9.17a8.05,8.05,0,0,1,2.29-.26,8.66,8.66,0,0,1,2.21.26L476.24,356Z"/><path class="cls-1" d="M485.67,356.82c0-8.73,3.79-12,9.88-12s9.83,3.3,9.83,12-3.75,12.08-9.83,12.08S485.67,365.59,485.67,356.82Zm15.17,0c0-6.74-2-8.64-5.29-8.64s-5.29,1.9-5.29,8.64,2,8.68,5.29,8.68S500.84,363.56,500.84,356.82Z"/><path class="cls-1" d="M509.78,368.19v-22.7a7.1,7.1,0,0,1,2.21-.26,7.38,7.38,0,0,1,2.2.26v2.25a8.31,8.31,0,0,1,6.52-2.95,5.76,5.76,0,0,1,5.73,3.43,8.82,8.82,0,0,1,7.28-3.43c4.19,0,6.48,2.64,6.48,6.65v16.75a7.57,7.57,0,0,1-2.21.27,6.82,6.82,0,0,1-2.2-.27V352.28c0-2.6-1.19-3.92-3.79-3.92a5.48,5.48,0,0,0-4.81,3.08v16.75a7.45,7.45,0,0,1-2.2.27,6.75,6.75,0,0,1-2.2-.27V352.28c0-2.6-1.2-3.92-3.8-3.92a5.73,5.73,0,0,0-4.8,3v16.79a7.45,7.45,0,0,1-2.2.27A6.86,6.86,0,0,1,509.78,368.19Z"/><path class="cls-1" d="M564.61,356.82c0,9-3.3,12.08-8.37,12.08-3.13,0-5.16-1.1-6.44-3v12.65a9.48,9.48,0,0,1-4.41,0v-33a9.48,9.48,0,0,1,4.41,0v2.29c1.28-1.94,3.31-3,6.44-3C561.26,344.79,564.61,347.78,564.61,356.82Zm-4.62,0c0-6.48-1.68-8.46-5.29-8.46-3.09,0-4.85,2.6-4.9,5.55v5.69c0,2.91,1.72,5.73,4.9,5.73C558.31,365.33,560,363.39,560,356.82Z"/><path class="cls-1" d="M585.9,358.19H572.63c.36,5.24,2.39,7,6.13,7a10.18,10.18,0,0,0,5.16-1.32,4.61,4.61,0,0,1,1.46,3.13s-2.52,1.94-7.41,1.94c-6.61,0-9.88-4.06-9.88-12.12,0-8.34,3.88-12,9.75-12,5.51,0,8.55,3.08,8.55,8.77A19.88,19.88,0,0,1,585.9,358.19Zm-13.31-3h9.57a14,14,0,0,0,.13-2.12c0-2.69-1.19-4.89-4.41-4.89C575,348.18,572.94,350.16,572.59,355.19Z"/><path class="cls-1" d="M603.18,367a4.66,4.66,0,0,1-.22,1.54,12.94,12.94,0,0,1-3.39.4c-5.47,0-7.45-2.87-7.45-8.47v-11.9h-3.35a4.37,4.37,0,0,1-.27-1.63,4,4,0,0,1,.27-1.67h3.35V341a7.48,7.48,0,0,1,4.41-.83v5.07h5.77a4.94,4.94,0,0,1,.22,1.63,5.78,5.78,0,0,1-.22,1.67h-5.77v11.73c0,3.83,1.19,5.11,4.27,5.11a14,14,0,0,0,2-.17A4,4,0,0,1,603.18,367Z"/><path class="cls-1" d="M623.11,358.19H609.84c.35,5.24,2.38,7,6.12,7a10.18,10.18,0,0,0,5.16-1.32,4.61,4.61,0,0,1,1.46,3.13s-2.52,1.94-7.41,1.94c-6.61,0-9.87-4.06-9.87-12.12,0-8.34,3.88-12,9.74-12,5.51,0,8.55,3.08,8.55,8.77A20.27,20.27,0,0,1,623.11,358.19Zm-13.32-3h9.57a14,14,0,0,0,.13-2.12c0-2.69-1.19-4.89-4.41-4.89C612.17,348.18,610.14,350.16,609.79,355.19Z"/><path class="cls-1" d="M627.82,368.19v-22.7a7,7,0,0,1,2.2-.26,7.42,7.42,0,0,1,2.21.26v2.29a8.86,8.86,0,0,1,6.83-3c4.41,0,6.79,2.64,6.79,6.61v16.79a7.57,7.57,0,0,1-2.21.27,6.82,6.82,0,0,1-2.2-.27V352.28c0-2.56-1.32-3.92-4.1-3.92a6.16,6.16,0,0,0-5.11,3v16.79a7.16,7.16,0,0,1-2.21.27A6.75,6.75,0,0,1,627.82,368.19Z"/><path class="cls-1" d="M663.61,367a4.66,4.66,0,0,1-.22,1.54,12.94,12.94,0,0,1-3.39.4c-5.47,0-7.45-2.87-7.45-8.47v-11.9H649.2a4.37,4.37,0,0,1-.27-1.63,4,4,0,0,1,.27-1.67h3.35V341a7.46,7.46,0,0,1,4.4-.83v5.07h5.78a4.94,4.94,0,0,1,.22,1.63,5.78,5.78,0,0,1-.22,1.67H657v11.73c0,3.83,1.19,5.11,4.28,5.11a14.18,14.18,0,0,0,2-.17A4,4,0,0,1,663.61,367Z"/><path class="cls-1" d="M666.69,368.19v-22.7a7.1,7.1,0,0,1,2.21-.26,7.38,7.38,0,0,1,2.2.26v2.29a8.88,8.88,0,0,1,6.84-3c4.4,0,6.78,2.64,6.78,6.61v16.79a7.45,7.45,0,0,1-2.2.27,6.75,6.75,0,0,1-2.2-.27V352.28c0-2.56-1.33-3.92-4.1-3.92a6.16,6.16,0,0,0-5.12,3v16.79a7.13,7.13,0,0,1-2.2.27A6.86,6.86,0,0,1,666.69,368.19Z"/><path class="cls-1" d="M709.28,345.49l-8.73,26.63c-1.5,4.67-3.18,7.36-7.76,7.36a9.3,9.3,0,0,1-2.91-.4,4.26,4.26,0,0,1-.31-1.67,3.76,3.76,0,0,1,.4-1.72,9.09,9.09,0,0,0,2,.22c2.11,0,3.21-.71,4.49-4.54l1-2.91a3.64,3.64,0,0,1-1.37-.31l-8.41-22.66a8.05,8.05,0,0,1,2.29-.26,7.72,7.72,0,0,1,2.29.26L697.37,359a40.15,40.15,0,0,1,1.55,5.2h.13s.44-2.16,1.41-5.2l4.5-13.49a6.84,6.84,0,0,1,2.16-.26A7.65,7.65,0,0,1,709.28,345.49Z"/><path class="cls-1" d="M711.43,356.86c0-7.93,3.35-12.07,9.79-12.07,4,0,5.91,1.14,5.91,1.14a4.48,4.48,0,0,1-1.33,3.18,9.32,9.32,0,0,0-3.79-.71c-4.23,0-6,2.69-6,8.46s1.89,8.29,6.17,8.29a10.09,10.09,0,0,0,4-.79,4.44,4.44,0,0,1,1.33,3.13s-2.08,1.41-6.35,1.41C714.78,368.9,711.43,364.8,711.43,356.86Z"/><path class="cls-1" d="M749.21,351.4v16.79a7.57,7.57,0,0,1-2.21.27,6.82,6.82,0,0,1-2.2-.27V352.28c0-2.56-1.32-3.92-4.1-3.92a6.16,6.16,0,0,0-5.11,3v16.79a7.16,7.16,0,0,1-2.21.27,6.75,6.75,0,0,1-2.2-.27V335.66a7,7,0,0,1,2.2-.26,7.42,7.42,0,0,1,2.21.26v12a8.89,8.89,0,0,1,6.83-2.91C746.83,344.79,749.21,347.43,749.21,351.4Z"/><path class="cls-1" d="M753.52,354.35a43.32,43.32,0,0,1,6.13-21.64,3.77,3.77,0,0,1,1.81.48,3.27,3.27,0,0,1,1.37,1.24s-5.12,7.75-5.12,19.92,5.12,19.93,5.12,19.93a2.86,2.86,0,0,1-1.37,1.28,4.15,4.15,0,0,1-1.81.44A43.57,43.57,0,0,1,753.52,354.35Z"/><path class="cls-1" d="M772.43,343l2.21,2.95a4.53,4.53,0,0,1-2,1.32l-2.12-2.86-2,2.86a4.25,4.25,0,0,1-2-1.27l2.07-3-3.31-1.14a3.21,3.21,0,0,1,.71-2.21l3.39,1.1v-3.52a3.6,3.6,0,0,1,2.38,0v3.52l3.4-1.1a3.24,3.24,0,0,1,.66,2.21Z"/><path class="cls-1" d="M779.84,375.56a2.82,2.82,0,0,1-1.32-1.28s5.11-7.76,5.11-19.93-5.11-19.92-5.11-19.92a3.24,3.24,0,0,1,1.32-1.24,3.87,3.87,0,0,1,1.85-.48,41.57,41.57,0,0,1,0,43.29A4.27,4.27,0,0,1,779.84,375.56Z"/></svg>