<svg id="Warstwa_1" data-name="Warstwa 1" xmlns="http://www.w3.org/2000/svg" viewBox="0 0 480.68 60"><defs><style>.cls-1{fill:#005ca5;}.cls-2{fill:none;stroke:#cbd413;stroke-miterlimit:10;stroke-width:1.85px;}</style></defs><title>niebedny_element</title><path class="cls-1" d="M56.68,36.92V20.44a5.35,5.35,0,0,1,1.49-.17,4.78,4.78,0,0,1,1.47.17l5.84,10.62a24.66,24.66,0,0,1,1.35,3.2h.1s-.17-1.75-.17-3.9V20.44a3,3,0,0,1,1.12-.17,2.33,2.33,0,0,1,1.05.17V36.92a4.69,4.69,0,0,1-1.44.16,5.8,5.8,0,0,1-1.5-.16l-5.9-10.74a20,20,0,0,1-1.29-3h-.09s.16,1.5.16,3.88v9.9a3,3,0,0,1-1.12.16A2.8,2.8,0,0,1,56.68,36.92Z"/><path class="cls-1" d="M72.37,22.23v-2.1A4,4,0,0,1,73.6,20a4.7,4.7,0,0,1,1.27.14v2.1a4.7,4.7,0,0,1-1.27.14A4,4,0,0,1,72.37,22.23Zm.07,14.71v-12a3.47,3.47,0,0,1,1.16-.14,3.81,3.81,0,0,1,1.17.14v12a3.81,3.81,0,0,1-1.17.14A3.62,3.62,0,0,1,72.44,36.94Z"/><path class="cls-1" d="M86.84,31.64h-7c.18,2.78,1.26,3.69,3.24,3.69a5.36,5.36,0,0,0,2.73-.7,2.39,2.39,0,0,1,.77,1.66,6.72,6.72,0,0,1-3.92,1c-3.5,0-5.23-2.15-5.23-6.42s2.06-6.35,5.16-6.35c2.92,0,4.53,1.63,4.53,4.64A10.5,10.5,0,0,1,86.84,31.64Zm-7-1.59h5.07a7,7,0,0,0,.07-1.12c0-1.42-.63-2.59-2.34-2.59C81.05,26.34,80,27.39,79.79,30.05Z"/><path class="cls-1" d="M97.84,36.15a2.42,2.42,0,0,1-.16.93H89a2.87,2.87,0,0,1-.14-1,2.91,2.91,0,0,1,.14-.89l6.23-8.52H89.34a3,3,0,0,1-.14-1,2.59,2.59,0,0,1,.14-.93h8.31a2.8,2.8,0,0,1,.14.89,3.88,3.88,0,0,1-.14,1l-6.23,8.52h6.26A2.38,2.38,0,0,1,97.84,36.15Z"/><path class="cls-1" d="M110.45,30.94c0,4.76-1.75,6.38-4.46,6.38a3.83,3.83,0,0,1-3.39-1.57v1.19a3.77,3.77,0,0,1-1.16.14,3.89,3.89,0,0,1-1.17-.14V19.71a3.89,3.89,0,0,1,1.17-.14,3.77,3.77,0,0,1,1.16.14v6.42A3.79,3.79,0,0,1,106,24.55C108.7,24.55,110.45,26.16,110.45,30.94Zm-2.45,0c0-3.43-.89-4.5-2.8-4.5-1.66,0-2.57,1.4-2.6,3v3a2.73,2.73,0,0,0,2.6,3C107.11,35.42,108,34.35,108,30.94Z"/><path class="cls-1" d="M122,31.64h-7c.14,2.78,1.26,3.69,3.25,3.69a5.36,5.36,0,0,0,2.73-.7,2.49,2.49,0,0,1,.79,1.66l-.49.4c-1.75,1.51-2.56,3.15-2.28,4a.75.75,0,0,0,.72.56,2.43,2.43,0,0,0,.93-.26,2,2,0,0,1,.59,1.36,3.87,3.87,0,0,1-2.1.56,2,2,0,0,1-2.2-1.43c-.4-1.35.54-2.91,2.08-4.27a5.94,5.94,0,0,1-1.19.1c-3.5,0-5.23-2.15-5.23-6.42s2-6.35,5.16-6.35c2.92,0,4.53,1.63,4.53,4.64A10.5,10.5,0,0,1,122,31.64Zm-7-1.59H120a8.45,8.45,0,0,0,.07-1.12c0-1.42-.63-2.59-2.34-2.59C116.17,26.34,115.07,27.39,114.91,30.05Z"/><path class="cls-1" d="M134.38,19.71V36.94a3.23,3.23,0,0,1-1,.14,3.64,3.64,0,0,1-1-.14l-.17-1.35a3.8,3.8,0,0,1-3.5,1.73c-2.68,0-4.43-1.62-4.43-6.38s1.72-6.39,4.43-6.39a3.78,3.78,0,0,1,3.39,1.58V19.71a3.88,3.88,0,0,1,1.19-.14A3.55,3.55,0,0,1,134.38,19.71Zm-2.33,12.75V29.35a2.71,2.71,0,0,0-2.57-2.91c-1.91,0-2.8,1.07-2.8,4.5s.89,4.48,2.8,4.48A2.7,2.7,0,0,0,132.05,32.46Z"/><path class="cls-1" d="M137.49,36.94v-12a3.65,3.65,0,0,1,1.17-.14,3.77,3.77,0,0,1,1.16.14v1.21a4.71,4.71,0,0,1,3.62-1.58,3.27,3.27,0,0,1,3.6,3.5v8.89a4.05,4.05,0,0,1-1.17.14,3.73,3.73,0,0,1-1.17-.14V28.51c0-1.35-.7-2.07-2.17-2.07a3.26,3.26,0,0,0-2.71,1.61v8.89a3.77,3.77,0,0,1-1.16.14A3.65,3.65,0,0,1,137.49,36.94Z"/><path class="cls-1" d="M160.3,24.92,155.68,39c-.8,2.47-1.68,3.9-4.11,3.9a5,5,0,0,1-1.54-.21,2.21,2.21,0,0,1-.17-.89,2,2,0,0,1,.21-.91,4.73,4.73,0,0,0,1.08.12c1.12,0,1.7-.38,2.38-2.41l.51-1.54a2,2,0,0,1-.72-.16l-4.46-12a4.2,4.2,0,0,1,1.21-.14,4.07,4.07,0,0,1,1.22.14L154,32.06a20.47,20.47,0,0,1,.81,2.76h.07s.24-1.15.75-2.76L158,24.92a3.66,3.66,0,0,1,1.15-.14A4,4,0,0,1,160.3,24.92Z"/><path class="cls-1" d="M176.11,31.64h-7c.19,2.78,1.26,3.69,3.25,3.69a5.4,5.4,0,0,0,2.73-.7,2.48,2.48,0,0,1,.77,1.66,6.74,6.74,0,0,1-3.93,1c-3.5,0-5.23-2.15-5.23-6.42s2.06-6.35,5.17-6.35c2.91,0,4.52,1.63,4.52,4.64A10.9,10.9,0,0,1,176.11,31.64Zm-7.05-1.59h5.06a7,7,0,0,0,.07-1.12c0-1.42-.63-2.59-2.33-2.59C170.32,26.34,169.24,27.39,169.06,30.05Z"/><path class="cls-1" d="M179,36.94V19.71a3.47,3.47,0,0,1,1.16-.14,3.89,3.89,0,0,1,1.17.14V36.94a3.89,3.89,0,0,1-1.17.14A3.47,3.47,0,0,1,179,36.94Z"/><path class="cls-1" d="M193.39,31.64h-7c.19,2.78,1.26,3.69,3.24,3.69a5.42,5.42,0,0,0,2.74-.7,2.48,2.48,0,0,1,.77,1.66,6.74,6.74,0,0,1-3.93,1c-3.5,0-5.23-2.15-5.23-6.42s2.06-6.35,5.16-6.35c2.92,0,4.53,1.63,4.53,4.64A10.9,10.9,0,0,1,193.39,31.64Zm-7-1.59h5.06a7,7,0,0,0,.07-1.12c0-1.42-.63-2.59-2.33-2.59C187.6,26.34,186.52,27.39,186.34,30.05Z"/><path class="cls-1" d="M196.14,36.94v-12a3.73,3.73,0,0,1,1.17-.14,3.89,3.89,0,0,1,1.17.14v1.19a4.39,4.39,0,0,1,3.45-1.56,3.05,3.05,0,0,1,3,1.82,4.65,4.65,0,0,1,3.85-1.82,3.2,3.2,0,0,1,3.43,3.52v8.87a4.05,4.05,0,0,1-1.17.14,3.62,3.62,0,0,1-1.16-.14V28.51c0-1.37-.63-2.07-2-2.07a2.92,2.92,0,0,0-2.55,1.63v8.87a4,4,0,0,1-1.16.14,3.65,3.65,0,0,1-1.17-.14V28.51c0-1.37-.63-2.07-2-2.07a3,3,0,0,0-2.54,1.61v8.89a4.05,4.05,0,0,1-1.17.14A3.73,3.73,0,0,1,196.14,36.94Z"/><path class="cls-1" d="M224.18,31.64h-7c.18,2.78,1.26,3.69,3.24,3.69a5.36,5.36,0,0,0,2.73-.7,2.39,2.39,0,0,1,.77,1.66,6.72,6.72,0,0,1-3.92,1c-3.5,0-5.23-2.15-5.23-6.42s2.06-6.35,5.16-6.35c2.92,0,4.53,1.63,4.53,4.64A10.5,10.5,0,0,1,224.18,31.64Zm-7.05-1.59h5.07a7,7,0,0,0,.07-1.12c0-1.42-.63-2.59-2.33-2.59S217.32,27.39,217.13,30.05Z"/><path class="cls-1" d="M226.94,36.94v-12a3.65,3.65,0,0,1,1.17-.14,3.89,3.89,0,0,1,1.17.14v1.21a4.67,4.67,0,0,1,3.61-1.58,3.27,3.27,0,0,1,3.6,3.5v8.89a4.05,4.05,0,0,1-1.17.14,3.73,3.73,0,0,1-1.17-.14V28.51c0-1.35-.7-2.07-2.17-2.07a3.24,3.24,0,0,0-2.7,1.61v8.89a3.89,3.89,0,0,1-1.17.14A3.65,3.65,0,0,1,226.94,36.94Z"/><path class="cls-1" d="M246.16,36.29a2.47,2.47,0,0,1-.12.82,7.2,7.2,0,0,1-1.8.21c-2.89,0-3.94-1.52-3.94-4.49v-6.3h-1.78a2.39,2.39,0,0,1-.14-.86,2.17,2.17,0,0,1,.14-.89h1.78V22.54a3.9,3.9,0,0,1,2.33-.45v2.69h3.06a2.53,2.53,0,0,1,.12.86,3,3,0,0,1-.12.89h-3.06v6.21c0,2,.63,2.71,2.27,2.71a6.76,6.76,0,0,0,1.07-.1A2.12,2.12,0,0,1,246.16,36.29Z"/><path class="cls-1" d="M252.51,30.92c0-4.62,2-6.37,5.23-6.37s5.2,1.75,5.2,6.37-2,6.4-5.2,6.4S252.51,35.56,252.51,30.92Zm8,0c0-3.57-1.08-4.58-2.8-4.58s-2.8,1-2.8,4.58,1.07,4.6,2.8,4.6S260.54,34.49,260.54,30.92Z"/><path class="cls-1" d="M275.71,30.92c0,4.78-1.75,6.4-4.43,6.4a3.75,3.75,0,0,1-3.41-1.62v6.71a4.17,4.17,0,0,1-1.17.13,4,4,0,0,1-1.16-.13V24.92a3.77,3.77,0,0,1,1.16-.14,3.89,3.89,0,0,1,1.17.14v1.21a3.75,3.75,0,0,1,3.41-1.58C273.94,24.55,275.71,26.13,275.71,30.92Zm-2.45,0c0-3.43-.88-4.48-2.8-4.48a2.7,2.7,0,0,0-2.59,2.94v3a2.75,2.75,0,0,0,2.59,3C272.38,35.42,273.26,34.4,273.26,30.92Z"/><path class="cls-1" d="M278.31,22.23v-2.1a4.15,4.15,0,0,1,1.24-.14,4.66,4.66,0,0,1,1.26.14v2.1a4.66,4.66,0,0,1-1.26.14A4.15,4.15,0,0,1,278.31,22.23Zm.07,14.71v-12a3.51,3.51,0,0,1,1.17-.14,3.77,3.77,0,0,1,1.16.14v12a3.77,3.77,0,0,1-1.16.14A3.65,3.65,0,0,1,278.38,36.94Z"/><path class="cls-1" d="M292.78,31.64h-7c.18,2.78,1.26,3.69,3.24,3.69a5.36,5.36,0,0,0,2.73-.7,2.39,2.39,0,0,1,.77,1.66,6.72,6.72,0,0,1-3.92,1c-3.5,0-5.23-2.15-5.23-6.42s2.06-6.35,5.16-6.35c2.92,0,4.53,1.63,4.53,4.64A10.5,10.5,0,0,1,292.78,31.64Zm-7-1.59h5.07a7,7,0,0,0,.07-1.12c0-1.42-.63-2.59-2.33-2.59S285.92,27.39,285.73,30.05Z"/><path class="cls-1" d="M305.42,36.92a4.88,4.88,0,0,1-1.31.16,4.55,4.55,0,0,1-1.29-.16l-3.47-5.37h-1.47v5.39a3.82,3.82,0,0,1-1.15.14,4.3,4.3,0,0,1-1.19-.14V19.69a5.29,5.29,0,0,1,1.19-.12,5.12,5.12,0,0,1,1.15.12V29.77h1.51l3.11-4.85a4.2,4.2,0,0,1,1.21-.14,4.5,4.5,0,0,1,1.17.14l-3.53,5.58Z"/><path class="cls-1" d="M307.1,22.23v-2.1a4.15,4.15,0,0,1,1.24-.14,4.66,4.66,0,0,1,1.26.14v2.1a4.66,4.66,0,0,1-1.26.14A4.15,4.15,0,0,1,307.1,22.23Zm.07,14.71v-12a3.51,3.51,0,0,1,1.17-.14,3.77,3.77,0,0,1,1.16.14v12a3.77,3.77,0,0,1-1.16.14A3.65,3.65,0,0,1,307.17,36.94Z"/><path class="cls-1" d="M327.81,30.92c0,4.78-1.75,6.4-4.44,6.4A3.75,3.75,0,0,1,320,35.7v6.71a4,4,0,0,1-1.16.13,4.17,4.17,0,0,1-1.17-.13V24.92a3.89,3.89,0,0,1,1.17-.14,3.77,3.77,0,0,1,1.16.14v1.21a3.75,3.75,0,0,1,3.41-1.58C326,24.55,327.81,26.13,327.81,30.92Zm-2.45,0c0-3.43-.89-4.48-2.8-4.48a2.71,2.71,0,0,0-2.6,2.94v3a2.75,2.75,0,0,0,2.6,3C324.47,35.42,325.36,34.4,325.36,30.92Z"/><path class="cls-1" d="M329.91,30.92c0-4.62,2-6.37,5.23-6.37s5.21,1.75,5.21,6.37-2,6.4-5.21,6.4S329.91,35.56,329.91,30.92Zm8,0c0-3.57-1.07-4.58-2.8-4.58s-2.8,1-2.8,4.58,1.07,4.6,2.8,4.6S337.94,34.49,337.94,30.92Z"/><path class="cls-1" d="M351.18,36.15a2.42,2.42,0,0,1-.16.93h-8.73a2.87,2.87,0,0,1-.14-1,2.91,2.91,0,0,1,.14-.89l6.23-8.52h-5.84a3,3,0,0,1-.14-1,2.59,2.59,0,0,1,.14-.93H351a2.8,2.8,0,0,1,.14.89,3.88,3.88,0,0,1-.14,1l-6.23,8.52H351A2.38,2.38,0,0,1,351.18,36.15Z"/><path class="cls-1" d="M362.41,29.12v7.82a2.58,2.58,0,0,1-1,.14,2.81,2.81,0,0,1-1-.14l-.33-1.56c-.58,1.26-1.89,1.94-3.69,1.94-2.22,0-3.62-1.31-3.62-3.86s1.52-3.66,4.51-3.66a25.34,25.34,0,0,1,2.71.14V29c0-1.66-.73-2.47-2.48-2.47a10,10,0,0,0-3.13.56,1.86,1.86,0,0,1-.51-.7,2.15,2.15,0,0,1-.16-1,10.7,10.7,0,0,1,4.13-.84C361.34,24.55,362.41,26.09,362.41,29.12Zm-2.33,3.22v-.86c-.54-.05-1.5-.14-2.38-.14-1.64,0-2.45.61-2.45,2.15s.77,2.12,2,2.12C359.07,35.61,360.08,34.14,360.08,32.34Z"/><path class="cls-1" d="M375.6,30.94c0,4.76-1.75,6.38-4.46,6.38a3.81,3.81,0,0,1-3.38-1.57v1.19a5,5,0,0,1-2.34,0V19.71a5,5,0,0,1,2.34,0v6.42a3.77,3.77,0,0,1,3.38-1.58C373.85,24.55,375.6,26.16,375.6,30.94Zm-2.45,0c0-3.43-.88-4.5-2.8-4.5a2.7,2.7,0,0,0-2.59,3v3c0,1.59.93,3,2.59,3C372.27,35.42,373.15,34.35,373.15,30.94Z"/><path class="cls-1" d="M378.17,22.23v-2.1a4.15,4.15,0,0,1,1.24-.14,4.57,4.57,0,0,1,1.26.14v2.1a4.57,4.57,0,0,1-1.26.14A4.15,4.15,0,0,1,378.17,22.23Zm.07,14.71v-12a3.51,3.51,0,0,1,1.17-.14,3.89,3.89,0,0,1,1.17.14v12a3.89,3.89,0,0,1-1.17.14A3.73,3.73,0,0,1,378.24,36.94Z"/><path class="cls-1" d="M392.65,31.64h-7c.19,2.78,1.26,3.69,3.25,3.69a5.4,5.4,0,0,0,2.73-.7,2.39,2.39,0,0,1,.77,1.66,6.72,6.72,0,0,1-3.92,1c-3.51,0-5.23-2.15-5.23-6.42s2-6.35,5.16-6.35c2.91,0,4.53,1.63,4.53,4.64A10.5,10.5,0,0,1,392.65,31.64Zm-7-1.59h5.07a8.67,8.67,0,0,0,.06-1.12c0-1.42-.63-2.59-2.33-2.59C386.86,26.34,385.79,27.39,385.6,30.05Z"/><path class="cls-1" d="M405.47,26.39l-1.92-.05a4.33,4.33,0,0,1,.63,2.38c0,2.6-1.58,4.18-4.62,4.18a7,7,0,0,1-1.05-.07,2.12,2.12,0,0,0-.49,1.43c.23,2.17,7.42-.17,7.42,4.64,0,2.29-2.17,4-6,4-3.48,0-5-1.36-5-3.27a4,4,0,0,1,2.05-3.24,1.9,1.9,0,0,1-.51-1.38,4,4,0,0,1,1.17-2.59,3.76,3.76,0,0,1-2.15-3.72c0-2.56,1.63-4.17,4.62-4.17a5.75,5.75,0,0,1,2.64.58l3.27-.56A2.9,2.9,0,0,1,405.47,26.39Zm-7.75,10.67a2.86,2.86,0,0,0-1.1,2.12c0,1.24.89,2.08,2.82,2.08,2.43,0,3.76-.84,3.76-2.1C403.2,37.13,399.86,37.67,397.72,37.06Zm4.2-8.36c0-1.75-.93-2.57-2.36-2.57s-2.36.82-2.36,2.57,1,2.62,2.36,2.62S401.92,30.5,401.92,28.7Z"/><path class="cls-1" d="M407.06,30.92c0-4.62,2-6.37,5.23-6.37s5.2,1.75,5.2,6.37-2,6.4-5.2,6.4S407.06,35.56,407.06,30.92Zm8,0c0-3.57-1.08-4.58-2.8-4.58s-2.8,1-2.8,4.58,1.07,4.6,2.8,4.6S415.09,34.49,415.09,30.92Z"/><path class="cls-1" d="M422.49,36.94l-3.52-12a4,4,0,0,1,1.16-.14,2.46,2.46,0,0,1,1,.14l2.19,7.24a13,13,0,0,1,.49,2.54h.08a18,18,0,0,1,.53-2.54l2.15-7.24a5.7,5.7,0,0,1,1.24-.14,3.77,3.77,0,0,1,1.16.14l2.11,7.19a15.63,15.63,0,0,1,.49,2.59h.07a20.24,20.24,0,0,1,.56-2.57l2.17-7.21a3.24,3.24,0,0,1,1.05-.14,2.89,2.89,0,0,1,1,.14l-3.53,12a6.29,6.29,0,0,1-2.64,0l-1.87-6.28a14.52,14.52,0,0,1-.65-3.52h-.07a15.77,15.77,0,0,1-.7,3.52l-1.87,6.28a6.74,6.74,0,0,1-1.31.14A7.28,7.28,0,0,1,422.49,36.94Z"/><path class="cls-1" d="M447.36,31.64h-7c.19,2.78,1.26,3.69,3.25,3.69a5.4,5.4,0,0,0,2.73-.7,2.48,2.48,0,0,1,.77,1.66,6.74,6.74,0,0,1-3.93,1c-3.5,0-5.23-2.15-5.23-6.42s2.06-6.35,5.17-6.35c2.91,0,4.52,1.63,4.52,4.64A10.9,10.9,0,0,1,447.36,31.64Zm-7.05-1.59h5.06a7,7,0,0,0,.07-1.12c0-1.42-.63-2.59-2.33-2.59C441.57,26.34,440.49,27.39,440.31,30.05Z"/><path class="cls-1" d="M447.38,42.66a1.63,1.63,0,0,1-.09-.54,2.39,2.39,0,0,1,.25-1.19,4.09,4.09,0,0,0,.89.1c1.15,0,1.75-.59,1.75-2V24.92a3.51,3.51,0,0,1,1.17-.14,4.05,4.05,0,0,1,1.17.14V39.14c0,2.49-1.22,3.78-3.46,3.78A4.46,4.46,0,0,1,447.38,42.66Zm2.71-20.43V20.11a4.4,4.4,0,0,1,1.26-.14,4.2,4.2,0,0,1,1.21.14v2.12a4.2,4.2,0,0,1-1.21.14A4.4,4.4,0,0,1,450.09,22.23Z"/><polyline class="cls-2" points="28.69 8.55 43.15 29.96 28.69 51.45"/></svg>