<svg id="Warstwa_1" data-name="Warstwa 1" xmlns="http://www.w3.org/2000/svg" xmlns:xlink="http://www.w3.org/1999/xlink" viewBox="0 0 317.08 235.74"><defs><style>.cls-1{fill:url(#Gradient_bez_nazwy_12);}.cls-2{fill:none;stroke:#fff;stroke-miterlimit:10;stroke-width:3px;}.cls-3{fill:#0066b1;}</style><linearGradient id="Gradient_bez_nazwy_12" x1="158.57" y1="76.38" x2="158.57" y2="235.45" gradientUnits="userSpaceOnUse"><stop offset="0" stop-color="#c3d93a"/><stop offset="0.73" stop-color="#fff"/></linearGradient></defs><title>o_chlorchex</title><polygon class="cls-1" points="0.15 76.38 97.67 76.38 159.86 108.75 221.51 76.38 316.98 76.38 316.98 235.45 0.15 235.45 0.15 76.38"/><polyline class="cls-2" points="0.56 82.14 95.48 82.14 158.77 117.17 224.24 82.14 317.53 82.14"/><path class="cls-3" d="M126.81,130.21h5.53c4.75,0,7.41,2.31,7.41,9s-2.66,9-7.41,9h-5.53ZM132.19,146c3,0,4.83-1.3,4.83-6.87s-1.82-6.87-4.83-6.87H129.4V146Z"/><path class="cls-3" d="M151.58,147.13a2.59,2.59,0,0,1-.17,1H142.1a3.28,3.28,0,0,1-.15-1.07,3,3,0,0,1,.15-.95l6.64-9.08h-6.22a3.17,3.17,0,0,1-.15-1,2.76,2.76,0,0,1,.15-1h8.86a2.9,2.9,0,0,1,.15,1,3.93,3.93,0,0,1-.15,1.07l-6.64,9.08h6.67A2.53,2.53,0,0,1,151.58,147.13Z"/><path class="cls-3" d="M154.4,132.3v-2.24a4.31,4.31,0,0,1,1.31-.15,4.88,4.88,0,0,1,1.35.15v2.24a4.88,4.88,0,0,1-1.35.15A4.31,4.31,0,0,1,154.4,132.3Zm.07,15.68V135.16a3.67,3.67,0,0,1,1.24-.15,4.09,4.09,0,0,1,1.25.15V148a4.09,4.09,0,0,1-1.25.15A3.89,3.89,0,0,1,154.47,148Z"/><path class="cls-3" d="M170,139.64V148a2.82,2.82,0,0,1-1,.15,3,3,0,0,1-1-.15l-.35-1.67c-.62,1.35-2,2.07-3.93,2.07-2.36,0-3.86-1.4-3.86-4.11s1.62-3.91,4.81-3.91a27.93,27.93,0,0,1,2.88.15v-1c0-1.76-.77-2.64-2.63-2.64a10.53,10.53,0,0,0-3.34.6,1.79,1.79,0,0,1-.55-.75,2.32,2.32,0,0,1-.17-1,11.37,11.37,0,0,1,4.4-.9C168.81,134.76,170,136.41,170,139.64Zm-2.49,3.44v-.93c-.57,0-1.59-.14-2.54-.14-1.74,0-2.61.64-2.61,2.29s.82,2.26,2.17,2.26C166.39,146.56,167.46,145,167.46,143.08Z"/><path class="cls-3" d="M177.2,138.3V148a4.17,4.17,0,0,1-1.25.15,3.67,3.67,0,0,1-1.24-.15v-8.24l-1.72,1a1.79,1.79,0,0,1-.5-.6,1.65,1.65,0,0,1-.29-.75l2.51-1.47v-8.31a3.67,3.67,0,0,1,1.24-.15,4.17,4.17,0,0,1,1.25.15v6.87l1.81-1a1.81,1.81,0,0,1,.5.59,1.9,1.9,0,0,1,.28.77Z"/><path class="cls-3" d="M191.43,139.64V148a2.75,2.75,0,0,1-1,.15,3,3,0,0,1-1-.15l-.34-1.67c-.63,1.35-2,2.07-3.94,2.07-2.36,0-3.85-1.4-3.85-4.11s1.61-3.91,4.8-3.91a28.32,28.32,0,0,1,2.89.15v-1c0-1.76-.78-2.64-2.64-2.64a10.53,10.53,0,0,0-3.34.6,1.72,1.72,0,0,1-.54-.75,2.25,2.25,0,0,1-.18-1,11.45,11.45,0,0,1,4.41-.9C190.29,134.76,191.43,136.41,191.43,139.64ZM189,143.08v-.93c-.58,0-1.6-.14-2.54-.14-1.75,0-2.62.64-2.62,2.29s.83,2.26,2.17,2.26C187.88,146.56,189,145,189,143.08Z"/><path class="cls-3" d="M84,165.56v8.33a2.82,2.82,0,0,1-1,.15,3,3,0,0,1-1-.15l-.35-1.66c-.62,1.34-2,2.06-3.93,2.06-2.37,0-3.86-1.39-3.86-4.1s1.62-3.91,4.8-3.91a25.68,25.68,0,0,1,2.89.15v-1c0-1.77-.77-2.64-2.64-2.64a10.5,10.5,0,0,0-3.33.6,1.78,1.78,0,0,1-.55-.75,2.36,2.36,0,0,1-.17-1.05,11.47,11.47,0,0,1,4.4-.89C82.82,160.68,84,162.32,84,165.56ZM81.48,169v-.92c-.57,0-1.59-.15-2.54-.15-1.74,0-2.61.65-2.61,2.29s.82,2.26,2.16,2.26C80.41,172.47,81.48,170.91,81.48,169Z"/><path class="cls-3" d="M87.43,173.89V161.08a3.93,3.93,0,0,1,1.25-.15,4,4,0,0,1,1.24.15v1.29a5,5,0,0,1,3.86-1.69,3.48,3.48,0,0,1,3.83,3.73v9.48a4.29,4.29,0,0,1-1.24.15,3.93,3.93,0,0,1-1.25-.15v-9a2,2,0,0,0-2.31-2.22,3.49,3.49,0,0,0-2.89,1.72v9.48a4,4,0,0,1-1.24.15A3.93,3.93,0,0,1,87.43,173.89Z"/><path class="cls-3" d="M108.17,173.2a2.58,2.58,0,0,1-.13.87,7.51,7.51,0,0,1-1.91.22c-3.09,0-4.21-1.62-4.21-4.78v-6.72H100a2.47,2.47,0,0,1-.15-.92,2.28,2.28,0,0,1,.15-.94h1.89v-2.39a4.17,4.17,0,0,1,2.49-.47v2.86h3.26a2.87,2.87,0,0,1,.12.92,3.34,3.34,0,0,1-.12.94h-3.26v6.62c0,2.17.67,2.89,2.41,2.89a7.78,7.78,0,0,0,1.15-.1A2.26,2.26,0,0,1,108.17,173.2Z"/><path class="cls-3" d="M121.36,161.08l-4.93,15c-.85,2.64-1.79,4.15-4.38,4.15a5.34,5.34,0,0,1-1.64-.22,2.35,2.35,0,0,1-.18-.95,2.12,2.12,0,0,1,.23-1,5.15,5.15,0,0,0,1.14.13c1.2,0,1.82-.4,2.54-2.56l.55-1.65a2.05,2.05,0,0,1-.77-.17l-4.76-12.79a4.52,4.52,0,0,1,1.3-.15,4.23,4.23,0,0,1,1.29.15l2.89,7.61a22,22,0,0,1,.87,2.94h.07s.25-1.22.8-2.94l2.54-7.61a3.82,3.82,0,0,1,1.22-.15A4.22,4.22,0,0,1,121.36,161.08Z"/><path class="cls-3" d="M134.5,167.5c0,5.07-1.86,6.79-4.75,6.79a4,4,0,0,1-3.61-1.67v1.27a4,4,0,0,1-1.24.15,4.17,4.17,0,0,1-1.25-.15V155.53a4.17,4.17,0,0,1,1.25-.15,4,4,0,0,1,1.24.15v6.84a4,4,0,0,1,3.61-1.69C132.64,160.68,134.5,162.4,134.5,167.5Zm-2.61,0c0-3.66-.95-4.81-3-4.81-1.76,0-2.73,1.5-2.76,3.17v3.21c0,1.69,1,3.21,2.76,3.21C130.94,172.28,131.89,171.13,131.89,167.5Z"/><path class="cls-3" d="M146.9,165.56v8.33a2.82,2.82,0,0,1-1,.15,3,3,0,0,1-1-.15l-.35-1.66c-.62,1.34-2,2.06-3.93,2.06-2.37,0-3.86-1.39-3.86-4.1s1.62-3.91,4.81-3.91a25.62,25.62,0,0,1,2.88.15v-1c0-1.77-.77-2.64-2.64-2.64a10.5,10.5,0,0,0-3.33.6,1.78,1.78,0,0,1-.55-.75,2.36,2.36,0,0,1-.17-1.05,11.47,11.47,0,0,1,4.4-.89C145.76,160.68,146.9,162.32,146.9,165.56ZM144.41,169v-.92c-.57,0-1.59-.15-2.54-.15-1.74,0-2.61.65-2.61,2.29s.82,2.26,2.17,2.26C143.34,172.47,144.41,170.91,144.41,169Z"/><path class="cls-3" d="M160.89,173.87a5.16,5.16,0,0,1-1.39.17,4.82,4.82,0,0,1-1.37-.17l-3.71-5.73h-1.57v5.75a4,4,0,0,1-1.22.15,4.66,4.66,0,0,1-1.27-.15V155.5a6,6,0,0,1,1.27-.12,5.76,5.76,0,0,1,1.22.12v10.75h1.62l3.31-5.17a4.48,4.48,0,0,1,1.29-.15,4.77,4.77,0,0,1,1.25.15L156.56,167Z"/><path class="cls-3" d="M170.05,173.2a2.78,2.78,0,0,1-.12.87,7.6,7.6,0,0,1-1.92.22c-3.09,0-4.2-1.62-4.2-4.78v-6.72h-1.9a2.47,2.47,0,0,1-.15-.92,2.28,2.28,0,0,1,.15-.94h1.9v-2.39a4.16,4.16,0,0,1,2.48-.47v2.86h3.26a2.66,2.66,0,0,1,.13.92,3.1,3.1,0,0,1-.13.94h-3.26v6.62c0,2.17.68,2.89,2.42,2.89a7.56,7.56,0,0,0,1.14-.1A2.26,2.26,0,0,1,170.05,173.2Z"/><path class="cls-3" d="M181.83,168.24h-7.5c.2,3,1.35,3.94,3.46,3.94a5.75,5.75,0,0,0,2.92-.75,2.62,2.62,0,0,1,.82,1.77,7.21,7.21,0,0,1-4.18,1.09c-3.74,0-5.58-2.29-5.58-6.84,0-4.71,2.19-6.77,5.5-6.77,3.11,0,4.83,1.74,4.83,4.95A11.42,11.42,0,0,1,181.83,168.24Zm-7.52-1.69h5.4a8,8,0,0,0,.07-1.19c0-1.52-.67-2.77-2.48-2.77C175.65,162.59,174.51,163.72,174.31,166.55Z"/><path class="cls-3" d="M185,173.89V161.08a3.93,3.93,0,0,1,1.25-.15,3.09,3.09,0,0,1,1.17.15l0,1.79a3.65,3.65,0,0,1,3.21-2.17,3.75,3.75,0,0,1,2.14.63,2.9,2.9,0,0,1-1.09,2.06,2.43,2.43,0,0,0-1.54-.5,3.38,3.38,0,0,0-2.67,2v9a4,4,0,0,1-1.24.15A3.93,3.93,0,0,1,185,173.89Z"/><path class="cls-3" d="M205.8,161.08l-4.93,15c-.85,2.64-1.79,4.15-4.38,4.15a5.34,5.34,0,0,1-1.64-.22,2.35,2.35,0,0,1-.18-.95,2.12,2.12,0,0,1,.23-1,5.07,5.07,0,0,0,1.14.13c1.2,0,1.82-.4,2.54-2.56l.55-1.65a2,2,0,0,1-.77-.17l-4.76-12.79a4.52,4.52,0,0,1,1.3-.15,4.23,4.23,0,0,1,1.29.15l2.89,7.61a22,22,0,0,1,.87,2.94H200s.25-1.22.8-2.94l2.54-7.61a3.82,3.82,0,0,1,1.22-.15A4.22,4.22,0,0,1,205.8,161.08Z"/><path class="cls-3" d="M205.18,180a1.7,1.7,0,0,1-.1-.57,2.5,2.5,0,0,1,.27-1.27,4.68,4.68,0,0,0,1,.1c1.22,0,1.87-.62,1.87-2.14v-15a3.67,3.67,0,0,1,1.24-.15,4.21,4.21,0,0,1,1.24.15v15.15c0,2.67-1.29,4-3.68,4A4.87,4.87,0,0,1,205.18,180Zm2.89-21.77V156a4.59,4.59,0,0,1,1.34-.15,4.39,4.39,0,0,1,1.29.15v2.27a4.69,4.69,0,0,1-1.29.14A4.89,4.89,0,0,1,208.07,158.22Z"/><path class="cls-3" d="M214.26,173.89V161.08a3.93,3.93,0,0,1,1.25-.15,4,4,0,0,1,1.24.15v1.29a5,5,0,0,1,3.86-1.69,3.48,3.48,0,0,1,3.83,3.73v9.48a4.29,4.29,0,0,1-1.24.15,3.93,3.93,0,0,1-1.25-.15v-9a2,2,0,0,0-2.31-2.22,3.49,3.49,0,0,0-2.89,1.72v9.48a4,4,0,0,1-1.24.15A3.93,3.93,0,0,1,214.26,173.89Z"/><path class="cls-3" d="M227.88,158.22V156a4.64,4.64,0,0,1,1.32-.14,5.17,5.17,0,0,1,1.34.14v2.25a5.17,5.17,0,0,1-1.34.14A4.64,4.64,0,0,1,227.88,158.22Zm.08,15.67V161.08a3.67,3.67,0,0,1,1.24-.15,4,4,0,0,1,1.24.15v12.81a4,4,0,0,1-1.24.15A3.82,3.82,0,0,1,228,173.89Z"/><path class="cls-3" d="M243.56,168.24h-7.49c.2,3,1.34,3.94,3.46,3.94a5.69,5.69,0,0,0,2.91-.75,2.57,2.57,0,0,1,.82,1.77,7.21,7.21,0,0,1-4.18,1.09c-3.73,0-5.57-2.29-5.57-6.84,0-4.71,2.19-6.77,5.5-6.77,3.11,0,4.82,1.74,4.82,4.95A11.42,11.42,0,0,1,243.56,168.24ZM236,166.55h5.41a9.64,9.64,0,0,0,.07-1.19c0-1.52-.67-2.77-2.49-2.77C237.39,162.59,236.24,163.72,236,166.55Z"/><path class="cls-3" d="M53.24,184.13v-2.24a4.43,4.43,0,0,1,1.32-.15,5,5,0,0,1,1.35.15v2.24a5,5,0,0,1-1.35.15A4.43,4.43,0,0,1,53.24,184.13Zm.08,15.68V187a3.67,3.67,0,0,1,1.24-.15,4.09,4.09,0,0,1,1.25.15v12.82a4.09,4.09,0,0,1-1.25.15A3.89,3.89,0,0,1,53.32,199.81Z"/><path class="cls-3" d="M75.82,193.39c0,5.1-1.87,6.82-4.73,6.82a4,4,0,0,1-3.63-1.72v7.14a4.17,4.17,0,0,1-1.25.15,4,4,0,0,1-1.24-.15V187a4,4,0,0,1,1.24-.15,4.17,4.17,0,0,1,1.25.15v1.3a4,4,0,0,1,3.63-1.7C73.93,186.59,75.82,188.29,75.82,193.39Zm-2.61,0c0-3.66-.95-4.78-3-4.78a2.88,2.88,0,0,0-2.76,3.14V195c0,1.64,1,3.23,2.76,3.23C72.26,198.19,73.21,197.1,73.21,193.39Z"/><path class="cls-3" d="M78.86,199.81V187a3.89,3.89,0,0,1,1.24-.15,3.09,3.09,0,0,1,1.17.15l0,1.79a3.65,3.65,0,0,1,3.21-2.16,3.88,3.88,0,0,1,2.14.62,3,3,0,0,1-1.1,2.07,2.41,2.41,0,0,0-1.54-.5,3.36,3.36,0,0,0-2.66,2v9a4.09,4.09,0,0,1-1.25.15A3.89,3.89,0,0,1,78.86,199.81Z"/><path class="cls-3" d="M97.5,199a2.59,2.59,0,0,1-.17,1H88a3.46,3.46,0,0,1,0-2l6.65-9.08H88.44a3.17,3.17,0,0,1-.15-1,2.76,2.76,0,0,1,.15-1H97.3a2.9,2.9,0,0,1,.15.95,3.87,3.87,0,0,1-.15,1.07l-6.64,9.08h6.67A2.53,2.53,0,0,1,97.5,199Z"/><path class="cls-3" d="M109.7,194.16h-7.49c.2,3,1.34,3.93,3.46,3.93a5.69,5.69,0,0,0,2.91-.75,2.6,2.6,0,0,1,.82,1.77,7.17,7.17,0,0,1-4.18,1.1c-3.73,0-5.57-2.29-5.57-6.85s2.19-6.77,5.5-6.77c3.11,0,4.82,1.75,4.82,5A11.53,11.53,0,0,1,109.7,194.16Zm-7.52-1.69h5.41a8.15,8.15,0,0,0,.07-1.2c0-1.52-.67-2.76-2.49-2.76C103.53,188.51,102.38,189.63,102.18,192.47Z"/><path class="cls-3" d="M112.34,193.41c0-4.48,1.89-6.82,5.53-6.82a6.72,6.72,0,0,1,3.33.65,2.49,2.49,0,0,1-.74,1.79,5.34,5.34,0,0,0-2.14-.4c-2.39,0-3.39,1.52-3.39,4.78s1.07,4.68,3.48,4.68a5.66,5.66,0,0,0,2.29-.45,2.49,2.49,0,0,1,.75,1.77,6.72,6.72,0,0,1-3.58.8C114.23,200.21,112.34,197.89,112.34,193.41Z"/><path class="cls-3" d="M124,184.13v-2.24a4.43,4.43,0,0,1,1.32-.15,5,5,0,0,1,1.35.15v2.24a5,5,0,0,1-1.35.15A4.43,4.43,0,0,1,124,184.13Zm.08,15.68V187a3.67,3.67,0,0,1,1.24-.15,4.17,4.17,0,0,1,1.25.15v12.82a4.17,4.17,0,0,1-1.25.15A3.89,3.89,0,0,1,124.07,199.81Z"/><path class="cls-3" d="M132.73,199.81,129,187a4.33,4.33,0,0,1,1.25-.15,2.54,2.54,0,0,1,1.09.15l2.34,7.72a14.54,14.54,0,0,1,.52,2.71h.08a17.38,17.38,0,0,1,.57-2.71l2.29-7.72a6.08,6.08,0,0,1,1.32-.15,4,4,0,0,1,1.24.15l2.24,7.67a15.42,15.42,0,0,1,.53,2.76h.07a21.06,21.06,0,0,1,.6-2.74l2.31-7.69a3.48,3.48,0,0,1,1.12-.15,3.06,3.06,0,0,1,1.1.15l-3.76,12.82a7.93,7.93,0,0,1-1.42.15,7.78,7.78,0,0,1-1.39-.15l-2-6.7a15.16,15.16,0,0,1-.7-3.75h-.08a16.75,16.75,0,0,1-.74,3.75l-2,6.7a7.69,7.69,0,0,1-1.4.15A8.18,8.18,0,0,1,132.73,199.81Z"/><path class="cls-3" d="M160.56,188.56l-2-.05a4.58,4.58,0,0,1,.67,2.54c0,2.76-1.69,4.45-4.93,4.45a7.92,7.92,0,0,1-1.12-.07,2.24,2.24,0,0,0-.52,1.52c.25,2.31,7.91-.18,7.91,5,0,2.44-2.31,4.28-6.44,4.28-3.71,0-5.35-1.44-5.35-3.48a4.22,4.22,0,0,1,2.19-3.46,2,2,0,0,1-.55-1.47,4.28,4.28,0,0,1,1.24-2.76,4,4,0,0,1-2.29-4c0-2.74,1.75-4.46,4.93-4.46a6,6,0,0,1,2.81.63l3.49-.6A3.07,3.07,0,0,1,160.56,188.56Zm-8.26,11.37a3,3,0,0,0-1.17,2.27c0,1.32.94,2.21,3,2.21,2.59,0,4-.89,4-2.24C158.14,200,154.59,200.58,152.3,199.93Zm4.48-8.91c0-1.86-1-2.73-2.52-2.73s-2.51.87-2.51,2.73,1,2.79,2.51,2.79S156.78,192.94,156.78,191Z"/><path class="cls-3" d="M163.05,199.81V187a3.89,3.89,0,0,1,1.24-.15,3.09,3.09,0,0,1,1.17.15l0,1.79a3.65,3.65,0,0,1,3.21-2.16,3.86,3.86,0,0,1,2.14.62,3,3,0,0,1-1.1,2.07,2.41,2.41,0,0,0-1.54-.5,3.36,3.36,0,0,0-2.66,2v9a4.09,4.09,0,0,1-1.25.15A3.89,3.89,0,0,1,163.05,199.81Z"/><path class="cls-3" d="M181.69,199a2.59,2.59,0,0,1-.17,1h-9.31a3.46,3.46,0,0,1,0-2l6.65-9.08h-6.23a3.38,3.38,0,0,1-.14-1,2.94,2.94,0,0,1,.14-1h8.86a2.9,2.9,0,0,1,.15.95,3.87,3.87,0,0,1-.15,1.07l-6.64,9.08h6.67A2.53,2.53,0,0,1,181.69,199Z"/><path class="cls-3" d="M195.46,187l-4.93,15c-.84,2.64-1.79,4.16-4.38,4.16a5.34,5.34,0,0,1-1.64-.22,2.41,2.41,0,0,1-.18-1,2.12,2.12,0,0,1,.23-1,5.3,5.3,0,0,0,1.14.12c1.2,0,1.82-.39,2.54-2.56l.55-1.64a2.06,2.06,0,0,1-.77-.18L183.26,187a4.52,4.52,0,0,1,1.3-.15,4.23,4.23,0,0,1,1.29.15l2.89,7.62a22.17,22.17,0,0,1,.87,2.93h.08a28.74,28.74,0,0,1,.79-2.93L193,187a3.82,3.82,0,0,1,1.22-.15A4.22,4.22,0,0,1,195.46,187Z"/><path class="cls-3" d="M208.6,193.41c0,5.08-1.86,6.8-4.75,6.8a4,4,0,0,1-3.61-1.67v1.27a5.24,5.24,0,0,1-2.49,0V181.44a5.24,5.24,0,0,1,2.49,0v6.85a4,4,0,0,1,3.61-1.7C206.74,186.59,208.6,188.31,208.6,193.41Zm-2.61,0c0-3.66-1-4.8-3-4.8-1.76,0-2.73,1.49-2.76,3.16V195c0,1.69,1,3.21,2.76,3.21C205,198.19,206,197.05,206,193.41Z"/><path class="cls-3" d="M211.59,184.13v-2.24a4.43,4.43,0,0,1,1.32-.15,5,5,0,0,1,1.35.15v2.24a5,5,0,0,1-1.35.15A4.43,4.43,0,0,1,211.59,184.13Zm.08,15.68V187a3.67,3.67,0,0,1,1.24-.15,4.17,4.17,0,0,1,1.25.15v12.82a4.17,4.17,0,0,1-1.25.15A3.89,3.89,0,0,1,211.67,199.81Z"/><path class="cls-3" d="M217.22,193.41c0-4.48,1.89-6.82,5.52-6.82a6.79,6.79,0,0,1,3.34.65,2.54,2.54,0,0,1-.75,1.79,5.28,5.28,0,0,0-2.14-.4c-2.39,0-3.38,1.52-3.38,4.78s1.07,4.68,3.48,4.68a5.66,5.66,0,0,0,2.29-.45,2.54,2.54,0,0,1,.75,1.77,6.74,6.74,0,0,1-3.59.8C219.11,200.21,217.22,197.89,217.22,193.41Z"/><path class="cls-3" d="M237.68,199a2.47,2.47,0,0,1-.18,1h-9.3a3.28,3.28,0,0,1-.15-1.07,3,3,0,0,1,.15-.95l6.64-9.08h-6.22a3.17,3.17,0,0,1-.15-1,2.76,2.76,0,0,1,.15-1h8.86a3.19,3.19,0,0,1,.15.95,4.29,4.29,0,0,1-.15,1.07l-6.65,9.08h6.67A2.4,2.4,0,0,1,237.68,199Z"/><path class="cls-3" d="M239.82,193.39c0-4.93,2.14-6.8,5.58-6.8s5.55,1.87,5.55,6.8-2.12,6.82-5.55,6.82S239.82,198.34,239.82,193.39Zm8.56,0c0-3.81-1.14-4.88-3-4.88s-3,1.07-3,4.88,1.15,4.9,3,4.9S248.38,197.2,248.38,193.39Z"/><path class="cls-3" d="M252.93,187a14.27,14.27,0,0,1,2-7.12,1.21,1.21,0,0,1,.6.16,1.06,1.06,0,0,1,.45.41,13.56,13.56,0,0,0,0,13.11,1,1,0,0,1-.45.42,1.42,1.42,0,0,1-.6.15A14.33,14.33,0,0,1,252.93,187Z"/><path class="cls-3" d="M260.81,181.89v9.68a2.11,2.11,0,0,1-.74.1,2.51,2.51,0,0,1-.75-.1v-6.11c0-.68,0-1.28.06-1.71a5.12,5.12,0,0,1-2.43,1.33,1.42,1.42,0,0,1-.36-1.19,4.63,4.63,0,0,0,2.76-2,2.11,2.11,0,0,1,.72-.1A2.25,2.25,0,0,1,260.81,181.89Z"/><path class="cls-3" d="M263,194a1,1,0,0,1-.44-.42,13.56,13.56,0,0,0,0-13.11,1.07,1.07,0,0,1,.44-.41,1.22,1.22,0,0,1,.61-.16,13.69,13.69,0,0,1,0,14.25A1.42,1.42,0,0,1,263,194Z"/><path class="cls-3" d="M32.15,18.52C32.15,9.57,36,4.86,43.31,4.86a13.73,13.73,0,0,1,6.56,1.36,4.27,4.27,0,0,1-1.4,3.35,13.67,13.67,0,0,0-4.57-.81c-4,0-6.7,2.18-6.7,9.8s2.65,9.65,6.7,9.65a15,15,0,0,0,4.93-.85,4.88,4.88,0,0,1,1.4,3.46,14.79,14.79,0,0,1-6.92,1.36C36,32.18,32.15,27.51,32.15,18.52Z"/><path class="cls-3" d="M69.12,17.45V31.52a8,8,0,0,1-2.32.26,7.75,7.75,0,0,1-2.32-.26V18.41c0-1.77-.88-2.76-2.91-2.76a4.25,4.25,0,0,0-3.42,1.84v14a8.34,8.34,0,0,1-2.32.26,7.67,7.67,0,0,1-2.32-.26V4.42a7.67,7.67,0,0,1,2.32-.26,8.34,8.34,0,0,1,2.32.26V14A7.33,7.33,0,0,1,63.49,12C67.17,12,69.12,14.18,69.12,17.45Z"/><path class="cls-3" d="M73.79,31.52V4.42a7.75,7.75,0,0,1,2.32-.26,8.34,8.34,0,0,1,2.32.26v27.1a8.34,8.34,0,0,1-2.32.26A7.75,7.75,0,0,1,73.79,31.52Z"/><path class="cls-3" d="M82.44,22.06C82.44,14.73,85.72,12,91,12s8.54,2.76,8.54,10.09S96.25,32.15,91,32.15,82.44,29.35,82.44,22.06Zm12.27,0c0-5.16-1.4-6.52-3.72-6.52s-3.76,1.36-3.76,6.52,1.4,6.55,3.76,6.55S94.71,27.21,94.71,22.06Z"/><path class="cls-3" d="M103.39,31.52v-19a8.08,8.08,0,0,1,2.32-.26,5.44,5.44,0,0,1,2.06.26l.12,2.32c1.36-2.21,3-2.91,4.49-2.91a5.81,5.81,0,0,1,3.24,1,5.25,5.25,0,0,1-2,3.76,3.49,3.49,0,0,0-2.14-.74A4.39,4.39,0,0,0,108,18.37V31.52a8.61,8.61,0,0,1-2.32.26A8.08,8.08,0,0,1,103.39,31.52Z"/><path class="cls-3" d="M133.77,17.45V31.52a8.08,8.08,0,0,1-2.32.26,7.67,7.67,0,0,1-2.32-.26V18.41c0-1.77-.89-2.76-2.91-2.76a4.25,4.25,0,0,0-3.42,1.84v14a8.34,8.34,0,0,1-2.32.26,7.67,7.67,0,0,1-2.32-.26V4.42a7.67,7.67,0,0,1,2.32-.26,8.34,8.34,0,0,1,2.32.26V14A7.32,7.32,0,0,1,128.13,12C131.82,12,133.77,14.18,133.77,17.45Z"/><path class="cls-3" d="M152.91,23.46h-10.6c.33,3.71,1.91,4.82,4.6,4.82a8.39,8.39,0,0,0,4.09-1,4.81,4.81,0,0,1,1.47,3.21,10.84,10.84,0,0,1-6.33,1.66c-5.82,0-8.58-3.28-8.58-10.06,0-7,3.24-10.12,8.39-10.12,4.68,0,7.37,2.54,7.37,7.51A17.53,17.53,0,0,1,152.91,23.46Zm-10.6-3H149c0-.45.07-1,.07-1.48,0-1.95-.77-3.53-3-3.53C144,15.43,142.56,16.79,142.31,20.44Z"/><path class="cls-3" d="M173.34,31.52a10.57,10.57,0,0,1-2.61.29,9.38,9.38,0,0,1-2.5-.29l-4.75-8.21h-1.77v8.21a8.54,8.54,0,0,1-2.28.26,8.86,8.86,0,0,1-2.36-.26V4.35a12.33,12.33,0,0,1,2.36-.19,13,13,0,0,1,2.28.19V19.92h1.8l4.31-7.36a8.19,8.19,0,0,1,2.28-.26,9.93,9.93,0,0,1,2.36.26l-5,8.76Z"/><path class="cls-3" d="M174.89,30.75A4.6,4.6,0,0,1,176,27.51a15,15,0,0,0,5,.88c2.24,0,3.35-.7,3.35-2.17,0-1.7-2-2.1-4.16-2.76-2.43-.74-5-1.85-5-5.49s2.29-6,7.18-6A12.83,12.83,0,0,1,188,13a4.26,4.26,0,0,1-1.11,3.16,13.42,13.42,0,0,0-4-.59c-2.24,0-3.31.78-3.31,2.18s2.28,1.87,4.56,2.65,4.79,2,4.79,5.63-2.36,6.08-7.47,6.08A14.77,14.77,0,0,1,174.89,30.75Z"/><path class="cls-3" d="M209,12.56l-6.85,21.83C200.84,38.63,199.3,41,195,41a7.71,7.71,0,0,1-2.65-.4,4.42,4.42,0,0,1-.3-1.66,4.9,4.9,0,0,1,.34-1.8,7.62,7.62,0,0,0,1.69.14c1.88,0,2.8-.44,3.83-3.68l.63-1.84a4.44,4.44,0,0,1-1.44-.22l-6.78-19a10.07,10.07,0,0,1,2.47-.26,8.24,8.24,0,0,1,2.36.26l3.68,10.09A26.9,26.9,0,0,1,200,27.32h.15a35.69,35.69,0,0,1,1.11-4.67l3.2-10.09a7.73,7.73,0,0,1,2.25-.26A8.92,8.92,0,0,1,209,12.56Z"/><path class="cls-3" d="M227.5,4.42v27.1a7.74,7.74,0,0,1-2.06.26,7.88,7.88,0,0,1-2.1-.26l-.26-1.8a6,6,0,0,1-5.23,2.43c-4.19,0-6.95-2.54-6.95-10.06S213.55,12,217.85,12a5.75,5.75,0,0,1,5,2.21V4.42a8.7,8.7,0,0,1,2.32-.26A8.34,8.34,0,0,1,227.5,4.42Zm-4.64,20.14v-5c-.07-2.1-1.25-3.87-3.39-3.87-2.54,0-3.75,1.36-3.75,6.44s1.21,6.37,3.75,6.37C221.65,28.46,222.82,26.66,222.86,24.56Z"/><path class="cls-3" d="M249,12.56l-6.85,21.83C240.86,38.63,239.32,41,235,41a7.71,7.71,0,0,1-2.65-.4,4.42,4.42,0,0,1-.3-1.66,4.9,4.9,0,0,1,.34-1.8,7.62,7.62,0,0,0,1.69.14c1.88,0,2.8-.44,3.83-3.68l.62-1.84a4.42,4.42,0,0,1-1.43-.22l-6.78-19a10,10,0,0,1,2.47-.26,8.24,8.24,0,0,1,2.36.26l3.68,10.09a26.9,26.9,0,0,1,1.21,4.67h.15a35.69,35.69,0,0,1,1.11-4.67l3.2-10.09a7.73,7.73,0,0,1,2.25-.26A8.92,8.92,0,0,1,249,12.56Z"/><path class="cls-3" d="M252,31.52V12.59a6.9,6.9,0,0,1,2.31-.29,7.54,7.54,0,0,1,2.32.29V14.1A7.13,7.13,0,0,1,261.92,12c3.68,0,5.64,2.24,5.64,5.52v14a8.08,8.08,0,0,1-2.32.26,7.67,7.67,0,0,1-2.32-.26V18.41c0-1.77-.89-2.76-2.91-2.76a4.28,4.28,0,0,0-3.43,1.84v14a8.34,8.34,0,0,1-2.32.26A7.63,7.63,0,0,1,252,31.52Z"/><path class="cls-3" d="M286.59,19V31.52a5.51,5.51,0,0,1-1.92.26,6.3,6.3,0,0,1-1.91-.26l-.59-2.14c-.88,1.84-2.76,2.77-5.48,2.77-3.58,0-5.71-2.07-5.71-6.23S273.45,20,278.2,20c1.43,0,2.76.15,3.75.22V19.18c0-2.17-1-3.38-3.46-3.38a14.86,14.86,0,0,0-4.71.88,3.38,3.38,0,0,1-1-1.43,4,4,0,0,1-.29-1.85A16.65,16.65,0,0,1,279.23,12C284.64,12,286.59,14.25,286.59,19ZM282,24.38V23.16c-.81-.07-1.95-.18-3.06-.18-2.09,0-3.24.84-3.24,2.94s1,3,2.73,3C280.81,28.9,282,26.81,282,24.38Z"/><path class="cls-3" d="M111.16,58a37.82,37.82,0,0,1,4.94-18.07,4.1,4.1,0,0,1,3.31,1.76s-3.9,6.3-3.9,16.31,3.9,16.32,3.9,16.32a2.87,2.87,0,0,1-1.4,1.28,4.23,4.23,0,0,1-1.91.48A37.83,37.83,0,0,1,111.16,58Z"/><path class="cls-3" d="M121.51,57.22c0-9.06,3.35-13,9.5-13s9.57,3.79,9.57,13-3.42,13-9.57,13S121.51,66.43,121.51,57.22Zm14,0c0-7.25-1.47-9.09-4.49-9.09s-4.53,1.84-4.53,9.09,1.58,9.13,4.53,9.13S135.5,64.48,135.5,57.22Z"/><path class="cls-3" d="M144.22,73.61a6.76,6.76,0,0,0,1.36-3.83,7.26,7.26,0,0,1-1.5-.26V65.14a8.73,8.73,0,0,1,2.35-.26,9.26,9.26,0,0,1,2.39.26v3.13a8.62,8.62,0,0,1-2.94,6.51Z"/><path class="cls-3" d="M168.26,65.76a4.56,4.56,0,0,1,.37,2,4.84,4.84,0,0,1-.37,2H152.69a14.24,14.24,0,0,1-.26-2.65c0-5.6,3.72-7.81,7.07-10s4.6-3.35,4.6-5.74c0-2-1.4-3.28-4.34-3.28a17,17,0,0,0-5.19,1,3.8,3.8,0,0,1-1.33-3.32,18.26,18.26,0,0,1,7.33-1.47c4.82,0,8.36,2.14,8.36,7,0,4.45-2.43,6.22-6.78,8.83-2.1,1.29-4.9,2.32-5,4.9a5,5,0,0,0,0,.77Z"/><path class="cls-3" d="M171.91,50.7c0-4.56,1.91-6.4,5.22-6.4s5.27,1.77,5.27,6.4-2,6.41-5.27,6.41S171.91,55.34,171.91,50.7Zm7.1,0c0-3.16-.7-3.86-1.88-3.86s-1.91.7-1.91,3.86.66,3.8,1.91,3.8S179,53.91,179,50.7Zm-3.13,19.22,14.25-25.77a5.06,5.06,0,0,1,1.77-.22,5.56,5.56,0,0,1,1.77.22L179.49,69.92a5.67,5.67,0,0,1-1.8.23A5.78,5.78,0,0,1,175.88,69.92ZM187,63.74c0-4.53,2-6.37,5.26-6.37s5.23,1.77,5.23,6.37-2,6.41-5.23,6.41S187,68.38,187,63.74Zm7.14,0c0-3.17-.7-3.87-1.88-3.87s-1.91.7-1.91,3.87.66,3.83,1.91,3.83S194.11,66.94,194.11,63.74Z"/><path class="cls-3" d="M201.14,75.59a2.86,2.86,0,0,1-1.44-1.28S203.64,68,203.64,58s-3.94-16.31-3.94-16.31A4.09,4.09,0,0,1,203,39.92,37.87,37.87,0,0,1,208,58,37.88,37.88,0,0,1,203,76.07,4.15,4.15,0,0,1,201.14,75.59Z"/></svg>