<svg id="Warstwa_1" data-name="Warstwa 1" xmlns="http://www.w3.org/2000/svg" xmlns:xlink="http://www.w3.org/1999/xlink" viewBox="0 0 317.08 235.74"><defs><style>.cls-1{fill:url(#Gradient_bez_nazwy_12);}.cls-2{fill:none;stroke:#fff;stroke-miterlimit:10;stroke-width:3px;}.cls-3{fill:#0066b1;}</style><linearGradient id="Gradient_bez_nazwy_12" x1="158.57" y1="76.38" x2="158.57" y2="235.45" gradientUnits="userSpaceOnUse"><stop offset="0" stop-color="#c3d93a"/><stop offset="0.73" stop-color="#fff"/></linearGradient></defs><title>o_chlorchex</title><polygon class="cls-1" points="0.15 76.38 97.67 76.38 159.86 108.75 221.51 76.38 316.98 76.38 316.98 235.45 0.15 235.45 0.15 76.38"/><polyline class="cls-2" points="0.56 82.14 95.48 82.14 158.77 117.17 224.24 82.14 317.53 82.14"/><path class="cls-3" d="M126.81,130.21h5.53c4.75,0,7.41,2.31,7.41,9s-2.66,9-7.41,9h-5.53ZM132.19,146c3,0,4.83-1.3,4.83-6.87s-1.82-6.87-4.83-6.87H129.4V146Z"/><path class="cls-3" d="M151.58,147.13a2.59,2.59,0,0,1-.17,1H142.1a3.28,3.28,0,0,1-.15-1.07,3,3,0,0,1,.15-.95l6.64-9.08h-6.22a3.17,3.17,0,0,1-.15-1,2.76,2.76,0,0,1,.15-1h8.86a2.9,2.9,0,0,1,.15,1,3.93,3.93,0,0,1-.15,1.07l-6.64,9.08h6.67A2.53,2.53,0,0,1,151.58,147.13Z"/><path class="cls-3" d="M154.4,132.3v-2.24a4.31,4.31,0,0,1,1.31-.15,4.88,4.88,0,0,1,1.35.15v2.24a4.88,4.88,0,0,1-1.35.15A4.31,4.31,0,0,1,154.4,132.3Zm.07,15.68V135.16a3.67,3.67,0,0,1,1.24-.15,4.09,4.09,0,0,1,1.25.15V148a4.09,4.09,0,0,1-1.25.15A3.89,3.89,0,0,1,154.47,148Z"/><path class="cls-3" d="M170,139.64V148a2.82,2.82,0,0,1-1,.15,3,3,0,0,1-1-.15l-.35-1.67c-.62,1.35-2,2.07-3.93,2.07-2.36,0-3.86-1.4-3.86-4.11s1.62-3.91,4.81-3.91a27.93,27.93,0,0,1,2.88.15v-1c0-1.76-.77-2.64-2.63-2.64a10.53,10.53,0,0,0-3.34.6,1.79,1.79,0,0,1-.55-.75,2.32,2.32,0,0,1-.17-1,11.37,11.37,0,0,1,4.4-.9C168.81,134.76,170,136.41,170,139.64Zm-2.49,3.44v-.93c-.57,0-1.59-.14-2.54-.14-1.74,0-2.61.64-2.61,2.29s.82,2.26,2.17,2.26C166.39,146.56,167.46,145,167.46,143.08Z"/><path class="cls-3" d="M177.2,138.3V148a4.17,4.17,0,0,1-1.25.15,3.67,3.67,0,0,1-1.24-.15v-8.24l-1.72,1a1.79,1.79,0,0,1-.5-.6,1.65,1.65,0,0,1-.29-.75l2.51-1.47v-8.31a3.67,3.67,0,0,1,1.24-.15,4.17,4.17,0,0,1,1.25.15v6.87l1.81-1a1.81,1.81,0,0,1,.5.59,1.9,1.9,0,0,1,.28.77Z"/><path class="cls-3" d="M191.43,139.64V148a2.75,2.75,0,0,1-1,.15,3,3,0,0,1-1-.15l-.34-1.67c-.63,1.35-2,2.07-3.94,2.07-2.36,0-3.85-1.4-3.85-4.11s1.61-3.91,4.8-3.91a28.32,28.32,0,0,1,2.89.15v-1c0-1.76-.78-2.64-2.64-2.64a10.53,10.53,0,0,0-3.34.6,1.72,1.72,0,0,1-.54-.75,2.25,2.25,0,0,1-.18-1,11.45,11.45,0,0,1,4.41-.9C190.29,134.76,191.43,136.41,191.43,139.64ZM189,143.08v-.93c-.58,0-1.6-.14-2.54-.14-1.75,0-2.62.64-2.62,2.29s.83,2.26,2.17,2.26C187.88,146.56,189,145,189,143.08Z"/><path class="cls-3" d="M84,165.56v8.33a2.82,2.82,0,0,1-1,.15,3,3,0,0,1-1-.15l-.35-1.66c-.62,1.34-2,2.06-3.93,2.06-2.37,0-3.86-1.39-3.86-4.1s1.62-3.91,4.8-3.91a25.68,25.68,0,0,1,2.89.15v-1c0-1.77-.77-2.64-2.64-2.64a10.5,10.5,0,0,0-3.33.6,1.78,1.78,0,0,1-.55-.75,2.36,2.36,0,0,1-.17-1.05,11.47,11.47,0,0,1,4.4-.89C82.82,160.68,84,162.32,84,165.56ZM81.48,169v-.92c-.57,0-1.59-.15-2.54-.15-1.74,0-2.61.65-2.61,2.29s.82,2.26,2.16,2.26C80.41,172.47,81.48,170.91,81.48,169Z"/><path class="cls-3" d="M87.43,173.89V161.08a3.93,3.93,0,0,1,1.25-.15,4,4,0,0,1,1.24.15v1.29a5,5,0,0,1,3.86-1.69,3.48,3.48,0,0,1,3.83,3.73v9.48a4.29,4.29,0,0,1-1.24.15,3.93,3.93,0,0,1-1.25-.15v-9a2,2,0,0,0-2.31-2.22,3.49,3.49,0,0,0-2.89,1.72v9.48a4,4,0,0,1-1.24.15A3.93,3.93,0,0,1,87.43,173.89Z"/><path class="cls-3" d="M108.17,173.2a2.58,2.58,0,0,1-.13.87,7.51,7.51,0,0,1-1.91.22c-3.09,0-4.21-1.62-4.21-4.78v-6.72H100a2.47,2.47,0,0,1-.15-.92,2.28,2.28,0,0,1,.15-.94h1.89v-2.39a4.17,4.17,0,0,1,2.49-.47v2.86h3.26a2.87,2.87,0,0,1,.12.92,3.34,3.34,0,0,1-.12.94h-3.26v6.62c0,2.17.67,2.89,2.41,2.89a7.78,7.78,0,0,0,1.15-.1A2.26,2.26,0,0,1,108.17,173.2Z"/><path class="cls-3" d="M121.36,161.08l-4.93,15c-.85,2.64-1.79,4.15-4.38,4.15a5.34,5.34,0,0,1-1.64-.22,2.35,2.35,0,0,1-.18-.95,2.12,2.12,0,0,1,.23-1,5.15,5.15,0,0,0,1.14.13c1.2,0,1.82-.4,2.54-2.56l.55-1.65a2.05,2.05,0,0,1-.77-.17l-4.76-12.79a4.52,4.52,0,0,1,1.3-.15,4.23,4.23,0,0,1,1.29.15l2.89,7.61a22,22,0,0,1,.87,2.94h.07s.25-1.22.8-2.94l2.54-7.61a3.82,3.82,0,0,1,1.22-.15A4.22,4.22,0,0,1,121.36,161.08Z"/><path class="cls-3" d="M134.5,167.5c0,5.07-1.86,6.79-4.75,6.79a4,4,0,0,1-3.61-1.67v1.27a4,4,0,0,1-1.24.15,4.17,4.17,0,0,1-1.25-.15V155.53a4.17,4.17,0,0,1,1.25-.15,4,4,0,0,1,1.24.15v6.84a4,4,0,0,1,3.61-1.69C132.64,160.68,134.5,162.4,134.5,167.5Zm-2.61,0c0-3.66-.95-4.81-3-4.81-1.76,0-2.73,1.5-2.76,3.17v3.21c0,1.69,1,3.21,2.76,3.21C130.94,172.28,131.89,171.13,131.89,167.5Z"/><path class="cls-3" d="M146.9,165.56v8.33a2.82,2.82,0,0,1-1,.15,3,3,0,0,1-1-.15l-.35-1.66c-.62,1.34-2,2.06-3.93,2.06-2.37,0-3.86-1.39-3.86-4.1s1.62-3.91,4.81-3.91a25.62,25.62,0,0,1,2.88.15v-1c0-1.77-.77-2.64-2.64-2.64a10.5,10.5,0,0,0-3.33.6,1.78,1.78,0,0,1-.55-.75,2.36,2.36,0,0,1-.17-1.05,11.47,11.47,0,0,1,4.4-.89C145.76,160.68,146.9,162.32,146.9,165.56ZM144.41,169v-.92c-.57,0-1.59-.15-2.54-.15-1.74,0-2.61.65-2.61,2.29s.82,2.26,2.17,2.26C143.34,172.47,144.41,170.91,144.41,169Z"/><path class="cls-3" d="M160.89,173.87a5.16,5.16,0,0,1-1.39.17,4.82,4.82,0,0,1-1.37-.17l-3.71-5.73h-1.57v5.75a4,4,0,0,1-1.22.15,4.66,4.66,0,0,1-1.27-.15V155.5a6,6,0,0,1,1.27-.12,5.76,5.76,0,0,1,1.22.12v10.75h1.62l3.31-5.17a4.48,4.48,0,0,1,1.29-.15,4.77,4.77,0,0,1,1.25.15L156.56,167Z"/><path class="cls-3" d="M170.05,173.2a2.78,2.78,0,0,1-.12.87,7.6,7.6,0,0,1-1.92.22c-3.09,0-4.2-1.62-4.2-4.78v-6.72h-1.9a2.47,2.47,0,0,1-.15-.92,2.28,2.28,0,0,1,.15-.94h1.9v-2.39a4.16,4.16,0,0,1,2.48-.47v2.86h3.26a2.66,2.66,0,0,1,.13.92,3.1,3.1,0,0,1-.13.94h-3.26v6.62c0,2.17.68,2.89,2.42,2.89a7.56,7.56,0,0,0,1.14-.1A2.26,2.26,0,0,1,170.05,173.2Z"/><path class="cls-3" d="M181.83,168.24h-7.5c.2,3,1.35,3.94,3.46,3.94a5.75,5.75,0,0,0,2.92-.75,2.62,2.62,0,0,1,.82,1.77,7.21,7.21,0,0,1-4.18,1.09c-3.74,0-5.58-2.29-5.58-6.84,0-4.71,2.19-6.77,5.5-6.77,3.11,0,4.83,1.74,4.83,4.95A11.42,11.42,0,0,1,181.83,168.24Zm-7.52-1.69h5.4a8,8,0,0,0,.07-1.19c0-1.52-.67-2.77-2.48-2.77C175.65,162.59,174.51,163.72,174.31,166.55Z"/><path class="cls-3" d="M185,173.89V161.08a3.93,3.93,0,0,1,1.25-.15,3.09,3.09,0,0,1,1.17.15l0,1.79a3.65,3.65,0,0,1,3.21-2.17,3.75,3.75,0,0,1,2.14.63,2.9,2.9,0,0,1-1.09,2.06,2.43,2.43,0,0,0-1.54-.5,3.38,3.38,0,0,0-2.67,2v9a4,4,0,0,1-1.24.15A3.93,3.93,0,0,1,185,173.89Z"/><path class="cls-3" d="M205.8,161.08l-4.93,15c-.85,2.64-1.79,4.15-4.38,4.15a5.34,5.34,0,0,1-1.64-.22,2.35,2.35,0,0,1-.18-.95,2.12,2.12,0,0,1,.23-1,5.07,5.07,0,0,0,1.14.13c1.2,0,1.82-.4,2.54-2.56l.55-1.65a2,2,0,0,1-.77-.17l-4.76-12.79a4.52,4.52,0,0,1,1.3-.15,4.23,4.23,0,0,1,1.29.15l2.89,7.61a22,22,0,0,1,.87,2.94H200s.25-1.22.8-2.94l2.54-7.61a3.82,3.82,0,0,1,1.22-.15A4.22,4.22,0,0,1,205.8,161.08Z"/><path class="cls-3" d="M205.18,180a1.7,1.7,0,0,1-.1-.57,2.5,2.5,0,0,1,.27-1.27,4.68,4.68,0,0,0,1,.1c1.22,0,1.87-.62,1.87-2.14v-15a3.67,3.67,0,0,1,1.24-.15,4.21,4.21,0,0,1,1.24.15v15.15c0,2.67-1.29,4-3.68,4A4.87,4.87,0,0,1,205.18,180Zm2.89-21.77V156a4.59,4.59,0,0,1,1.34-.15,4.39,4.39,0,0,1,1.29.15v2.27a4.69,4.69,0,0,1-1.29.14A4.89,4.89,0,0,1,208.07,158.22Z"/><path class="cls-3" d="M214.26,173.89V161.08a3.93,3.93,0,0,1,1.25-.15,4,4,0,0,1,1.24.15v1.29a5,5,0,0,1,3.86-1.69,3.48,3.48,0,0,1,3.83,3.73v9.48a4.29,4.29,0,0,1-1.24.15,3.93,3.93,0,0,1-1.25-.15v-9a2,2,0,0,0-2.31-2.22,3.49,3.49,0,0,0-2.89,1.72v9.48a4,4,0,0,1-1.24.15A3.93,3.93,0,0,1,214.26,173.89Z"/><path class="cls-3" d="M227.88,158.22V156a4.64,4.64,0,0,1,1.32-.14,5.17,5.17,0,0,1,1.34.14v2.25a5.17,5.17,0,0,1-1.34.14A4.64,4.64,0,0,1,227.88,158.22Zm.08,15.67V161.08a3.67,3.67,0,0,1,1.24-.15,4,4,0,0,1,1.24.15v12.81a4,4,0,0,1-1.24.15A3.82,3.82,0,0,1,228,173.89Z"/><path class="cls-3" d="M243.56,168.24h-7.49c.2,3,1.34,3.94,3.46,3.94a5.69,5.69,0,0,0,2.91-.75,2.57,2.57,0,0,1,.82,1.77,7.21,7.21,0,0,1-4.18,1.09c-3.73,0-5.57-2.29-5.57-6.84,0-4.71,2.19-6.77,5.5-6.77,3.11,0,4.82,1.74,4.82,4.95A11.42,11.42,0,0,1,243.56,168.24ZM236,166.55h5.41a9.64,9.64,0,0,0,.07-1.19c0-1.52-.67-2.77-2.49-2.77C237.39,162.59,236.24,163.72,236,166.55Z"/><path class="cls-3" d="M53.24,184.13v-2.24a4.43,4.43,0,0,1,1.32-.15,5,5,0,0,1,1.35.15v2.24a5,5,0,0,1-1.35.15A4.43,4.43,0,0,1,53.24,184.13Zm.08,15.68V187a3.67,3.67,0,0,1,1.24-.15,4.09,4.09,0,0,1,1.25.15v12.82a4.09,4.09,0,0,1-1.25.15A3.89,3.89,0,0,1,53.32,199.81Z"/><path class="cls-3" d="M75.82,193.39c0,5.1-1.87,6.82-4.73,6.82a4,4,0,0,1-3.63-1.72v7.14a4.17,4.17,0,0,1-1.25.15,4,4,0,0,1-1.24-.15V187a4,4,0,0,1,1.24-.15,4.17,4.17,0,0,1,1.25.15v1.3a4,4,0,0,1,3.63-1.7C73.93,186.59,75.82,188.29,75.82,193.39Zm-2.61,0c0-3.66-.95-4.78-3-4.78a2.88,2.88,0,0,0-2.76,3.14V195c0,1.64,1,3.23,2.76,3.23C72.26,198.19,73.21,197.1,73.21,193.39Z"/><path class="cls-3" d="M78.86,199.81V187a3.89,3.89,0,0,1,1.24-.15,3.09,3.09,0,0,1,1.17.15l0,1.79a3.65,3.65,0,0,1,3.21-2.16,3.88,3.88,0,0,1,2.14.62,3,3,0,0,1-1.1,2.07,2.41,2.41,0,0,0-1.54-.5,3.36,3.36,0,0,0-2.66,2v9a4.09,4.09,0,0,1-1.25.15A3.89,3.89,0,0,1,78.86,199.81Z"/><path class="cls-3" d="M97.5,199a2.59,2.59,0,0,1-.17,1H88a3.46,3.46,0,0,1,0-2l6.65-9.08H88.44a3.17,3.17,0,0,1-.15-1,2.76,2.76,0,0,1,.15-1H97.3a2.9,2.9,0,0,1,.15.95,3.87,3.87,0,0,1-.15,1.07l-6.64,9.08h6.67A2.53,2.53,0,0,1,97.5,199Z"/><path class="cls-3" d="M109.7,194.16h-7.49c.2,3,1.34,3.93,3.46,3.93a5.69,5.69,0,0,0,2.91-.75,2.6,2.6,0,0,1,.82,1.77,7.17,7.17,0,0,1-4.18,1.1c-3.73,0-5.57-2.29-5.57-6.85s2.19-6.77,5.5-6.77c3.11,0,4.82,1.75,4.82,5A11.53,11.53,0,0,1,109.7,194.16Zm-7.52-1.69h5.41a8.15,8.15,0,0,0,.07-1.2c0-1.52-.67-2.76-2.49-2.76C103.53,188.51,102.38,189.63,102.18,192.47Z"/><path class="cls-3" d="M112.34,193.41c0-4.48,1.89-6.82,5.53-6.82a6.72,6.72,0,0,1,3.33.65,2.49,2.49,0,0,1-.74,1.79,5.34,5.34,0,0,0-2.14-.4c-2.39,0-3.39,1.52-3.39,4.78s1.07,4.68,3.48,4.68a5.66,5.66,0,0,0,2.29-.45,2.49,2.49,0,0,1,.75,1.77,6.72,6.72,0,0,1-3.58.8C114.23,200.21,112.34,197.89,112.34,193.41Z"/><path class="cls-3" d="M124,184.13v-2.24a4.43,4.43,0,0,1,1.32-.15,5,5,0,0,1,1.35.15v2.24a5,5,0,0,1-1.35.15A4.43,4.43,0,0,1,124,184.13Zm.08,15.68V187a3.67,3.67,0,0,1,1.24-.15,4.17,4.17,0,0,1,1.25.15v12.82a4.17,4.17,0,0,1-1.25.15A3.89,3.89,0,0,1,124.07,199.81Z"/><path class="cls-3" d="M132.73,199.81,129,187a4.33,4.33,0,0,1,1.25-.15,2.54,2.54,0,0,1,1.09.15l2.34,7.72a14.54,14.54,0,0,1,.52,2.71h.08a17.38,17.38,0,0,1,.57-2.71l2.29-7.72a6.08,6.08,0,0,1,1.32-.15,4,4,0,0,1,1.24.15l2.24,7.67a15.42,15.42,0,0,1,.53,2.76h.07a21.06,21.06,0,0,1,.6-2.74l2.31-7.69a3.48,3.48,0,0,1,1.12-.15,3.06,3.06,0,0,1,1.1.15l-3.76,12.82a7.93,7.93,0,0,1-1.42.15,7.78,7.78,0,0,1-1.39-.15l-2-6.7a15.16,15.16,0,0,1-.7-3.75h-.08a16.75,16.75,0,0,1-.74,3.75l-2,6.7a7.69,7.69,0,0,1-1.4.15A8.18,8.18,0,0,1,132.73,199.81Z"/><path class="cls-3" d="M160.56,188.56l-2-.05a4.58,4.58,0,0,1,.67,2.54c0,2.76-1.69,4.45-4.93,4.45a7.92,7.92,0,0,1-1.12-.07,2.24,2.24,0,0,0-.52,1.52c.25,2.31,7.91-.18,7.91,5,0,2.44-2.31,4.28-6.44,4.28-3.71,0-5.35-1.44-5.35-3.48a4.22,4.22,0,0,1,2.19-3.46,2,2,0,0,1-.55-1.47,4.28,4.28,0,0,1,1.24-2.76,4,4,0,0,1-2.29-4c0-2.74,1.75-4.46,4.93-4.46a6,6,0,0,1,2.81.63l3.49-.6A3.07,3.07,0,0,1,160.56,188.56Zm-8.26,11.37a3,3,0,0,0-1.17,2.27c0,1.32.94,2.21,3,2.21,2.59,0,4-.89,4-2.24C158.14,200,154.59,200.58,152.3,199.93Zm4.48-8.91c0-1.86-1-2.73-2.52-2.73s-2.51.87-2.51,2.73,1,2.79,2.51,2.79S156.78,192.94,156.78,191Z"/><path class="cls-3" d="M163.05,199.81V187a3.89,3.89,0,0,1,1.24-.15,3.09,3.09,0,0,1,1.17.15l0,1.79a3.65,3.65,0,0,1,3.21-2.16,3.86,3.86,0,0,1,2.14.62,3,3,0,0,1-1.1,2.07,2.41,2.41,0,0,0-1.54-.5,3.36,3.36,0,0,0-2.66,2v9a4.09,4.09,0,0,1-1.25.15A3.89,3.89,0,0,1,163.05,199.81Z"/><path class="cls-3" d="M181.69,199a2.59,2.59,0,0,1-.17,1h-9.31a3.46,3.46,0,0,1,0-2l6.65-9.08h-6.23a3.38,3.38,0,0,1-.14-1,2.94,2.94,0,0,1,.14-1h8.86a2.9,2.9,0,0,1,.15.95,3.87,3.87,0,0,1-.15,1.07l-6.64,9.08h6.67A2.53,2.53,0,0,1,181.69,199Z"/><path class="cls-3" d="M195.46,187l-4.93,15c-.84,2.64-1.79,4.16-4.38,4.16a5.34,5.34,0,0,1-1.64-.22,2.41,2.41,0,0,1-.18-1,2.12,2.12,0,0,1,.23-1,5.3,5.3,0,0,0,1.14.12c1.2,0,1.82-.39,2.54-2.56l.55-1.64a2.06,2.06,0,0,1-.77-.18L183.26,187a4.52,4.52,0,0,1,1.3-.15,4.23,4.23,0,0,1,1.29.15l2.89,7.62a22.17,22.17,0,0,1,.87,2.93h.08a28.74,28.74,0,0,1,.79-2.93L193,187a3.82,3.82,0,0,1,1.22-.15A4.22,4.22,0,0,1,195.46,187Z"/><path class="cls-3" d="M208.6,193.41c0,5.08-1.86,6.8-4.75,6.8a4,4,0,0,1-3.61-1.67v1.27a5.24,5.24,0,0,1-2.49,0V181.44a5.24,5.24,0,0,1,2.49,0v6.85a4,4,0,0,1,3.61-1.7C206.74,186.59,208.6,188.31,208.6,193.41Zm-2.61,0c0-3.66-1-4.8-3-4.8-1.76,0-2.73,1.49-2.76,3.16V195c0,1.69,1,3.21,2.76,3.21C205,198.19,206,197.05,206,193.41Z"/><path class="cls-3" d="M211.59,184.13v-2.24a4.43,4.43,0,0,1,1.32-.15,5,5,0,0,1,1.35.15v2.24a5,5,0,0,1-1.35.15A4.43,4.43,0,0,1,211.59,184.13Zm.08,15.68V187a3.67,3.67,0,0,1,1.24-.15,4.17,4.17,0,0,1,1.25.15v12.82a4.17,4.17,0,0,1-1.25.15A3.89,3.89,0,0,1,211.67,199.81Z"/><path class="cls-3" d="M217.22,193.41c0-4.48,1.89-6.82,5.52-6.82a6.79,6.79,0,0,1,3.34.65,2.54,2.54,0,0,1-.75,1.79,5.28,5.28,0,0,0-2.14-.4c-2.39,0-3.38,1.52-3.38,4.78s1.07,4.68,3.48,4.68a5.66,5.66,0,0,0,2.29-.45,2.54,2.54,0,0,1,.75,1.77,6.74,6.74,0,0,1-3.59.8C219.11,200.21,217.22,197.89,217.22,193.41Z"/><path class="cls-3" d="M237.68,199a2.47,2.47,0,0,1-.18,1h-9.3a3.28,3.28,0,0,1-.15-1.07,3,3,0,0,1,.15-.95l6.64-9.08h-6.22a3.17,3.17,0,0,1-.15-1,2.76,2.76,0,0,1,.15-1h8.86a3.19,3.19,0,0,1,.15.95,4.29,4.29,0,0,1-.15,1.07l-6.65,9.08h6.67A2.4,2.4,0,0,1,237.68,199Z"/><path class="cls-3" d="M239.82,193.39c0-4.93,2.14-6.8,5.58-6.8s5.55,1.87,5.55,6.8-2.12,6.82-5.55,6.82S239.82,198.34,239.82,193.39Zm8.56,0c0-3.81-1.14-4.88-3-4.88s-3,1.07-3,4.88,1.15,4.9,3,4.9S248.38,197.2,248.38,193.39Z"/><path class="cls-3" d="M252.93,187a14.27,14.27,0,0,1,2-7.12,1.21,1.21,0,0,1,.6.16,1.06,1.06,0,0,1,.45.41,13.56,13.56,0,0,0,0,13.11,1,1,0,0,1-.45.42,1.42,1.42,0,0,1-.6.15A14.33,14.33,0,0,1,252.93,187Z"/><path class="cls-3" d="M260.81,181.89v9.68a2.11,2.11,0,0,1-.74.1,2.51,2.51,0,0,1-.75-.1v-6.11c0-.68,0-1.28.06-1.71a5.12,5.12,0,0,1-2.43,1.33,1.42,1.42,0,0,1-.36-1.19,4.63,4.63,0,0,0,2.76-2,2.11,2.11,0,0,1,.72-.1A2.25,2.25,0,0,1,260.81,181.89Z"/><path class="cls-3" d="M263,194a1,1,0,0,1-.44-.42,13.56,13.56,0,0,0,0-13.11,1.07,1.07,0,0,1,.44-.41,1.22,1.22,0,0,1,.61-.16,13.69,13.69,0,0,1,0,14.25A1.42,1.42,0,0,1,263,194Z"/><path class="cls-3" d="M33.13,18.52c0-8.95,3.68-13.66,10.75-13.66a13.8,13.8,0,0,1,6.41,1.29,3.59,3.59,0,0,1-1.14,2.76,14,14,0,0,0-4.79-.84c-4.31,0-7.18,2.28-7.18,10.49s2.87,10.38,7.18,10.38a15.14,15.14,0,0,0,5.16-.88,4,4,0,0,1,1.17,2.8,14.91,14.91,0,0,1-6.81,1.32C36.81,32.18,33.13,27.54,33.13,18.52Z"/><path class="cls-3" d="M69.47,17.53v14a6.38,6.38,0,0,1-1.84.22,5.81,5.81,0,0,1-1.84-.22V18.26c0-2.13-1.11-3.27-3.43-3.27a5.16,5.16,0,0,0-4.27,2.54v14a6,6,0,0,1-1.84.22,5.81,5.81,0,0,1-1.84-.22V4.38a5.81,5.81,0,0,1,1.84-.22,6,6,0,0,1,1.84.22V14.44A7.45,7.45,0,0,1,63.8,12C67.48,12,69.47,14.21,69.47,17.53Z"/><path class="cls-3" d="M74.73,31.56V4.38a5.52,5.52,0,0,1,1.84-.22,6,6,0,0,1,1.84.22V31.56a6,6,0,0,1-1.84.22A5.52,5.52,0,0,1,74.73,31.56Z"/><path class="cls-3" d="M83,22.06c0-7.29,3.17-10,8.25-10s8.21,2.76,8.21,10-3.13,10.09-8.21,10.09S83,29.38,83,22.06Zm12.66,0c0-5.64-1.69-7.22-4.41-7.22s-4.42,1.58-4.42,7.22,1.69,7.25,4.42,7.25S95.64,27.69,95.64,22.06Z"/><path class="cls-3" d="M103.89,31.56v-19a5.81,5.81,0,0,1,1.84-.22,4.65,4.65,0,0,1,1.73.22l0,2.66c1.43-2.55,3.28-3.21,4.75-3.21a5.62,5.62,0,0,1,3.16.92A4.35,4.35,0,0,1,113.79,16a3.55,3.55,0,0,0-2.28-.74c-1.47,0-2.91,1.14-3.94,3v13.3a6,6,0,0,1-1.84.22A5.81,5.81,0,0,1,103.89,31.56Z"/><path class="cls-3" d="M133.53,17.53v14a6.38,6.38,0,0,1-1.84.22,5.81,5.81,0,0,1-1.84-.22V18.26c0-2.13-1.11-3.27-3.43-3.27a5.16,5.16,0,0,0-4.27,2.54v14a6,6,0,0,1-1.84.22,5.81,5.81,0,0,1-1.84-.22V4.38a5.81,5.81,0,0,1,1.84-.22,6,6,0,0,1,1.84.22V14.44A7.45,7.45,0,0,1,127.86,12C131.54,12,133.53,14.21,133.53,17.53Z"/><path class="cls-3" d="M152.71,23.2H141.63c.29,4.38,2,5.82,5.11,5.82a8.43,8.43,0,0,0,4.31-1.11,3.82,3.82,0,0,1,1.22,2.62,10.64,10.64,0,0,1-6.19,1.62c-5.52,0-8.25-3.39-8.25-10.13,0-7,3.24-10,8.14-10,4.6,0,7.14,2.57,7.14,7.32A17,17,0,0,1,152.71,23.2Zm-11.12-2.51h8a12.21,12.21,0,0,0,.11-1.76c0-2.25-1-4.09-3.68-4.09C143.58,14.84,141.88,16.5,141.59,20.69Z"/><path class="cls-3" d="M173,31.52a7.38,7.38,0,0,1-2.06.26,6.9,6.9,0,0,1-2-.26l-5.49-8.47H161.1v8.51a5.9,5.9,0,0,1-1.8.22,6.87,6.87,0,0,1-1.88-.22V4.35a8.31,8.31,0,0,1,1.88-.19,7.86,7.86,0,0,1,1.8.19v15.9h2.39l4.9-7.66a6.67,6.67,0,0,1,1.92-.22,7.09,7.09,0,0,1,1.84.22l-5.56,8.8Z"/><path class="cls-3" d="M174.94,30.82a3.3,3.3,0,0,1,1-2.61,15.73,15.73,0,0,0,5,.88c2.43,0,3.83-.85,3.83-2.73s-2.14-2.46-4.35-3.12c-2.5-.74-5.19-1.88-5.19-5.45S177.49,12,182.16,12a12,12,0,0,1,5.3,1,3.39,3.39,0,0,1-.92,2.58,13.21,13.21,0,0,0-4-.63c-2.58,0-3.83,1-3.83,2.69s2.28,2.28,4.56,3c2.47.81,5.08,1.91,5.08,5.59s-2.28,5.9-7.14,5.9A14.93,14.93,0,0,1,174.94,30.82Z"/><path class="cls-3" d="M208.37,12.59l-7.29,22.24c-1.25,3.91-2.65,6.15-6.48,6.15a8,8,0,0,1-2.43-.33,3.67,3.67,0,0,1-.25-1.4,3.13,3.13,0,0,1,.33-1.43,8,8,0,0,0,1.69.18c1.77,0,2.69-.59,3.76-3.79l.81-2.43a2.93,2.93,0,0,1-1.14-.26l-7-18.93a6.76,6.76,0,0,1,1.92-.22,6.31,6.31,0,0,1,1.91.22l4.27,11.27a32.38,32.38,0,0,1,1.29,4.35h.11s.37-1.81,1.18-4.35l3.76-11.27a5.67,5.67,0,0,1,1.8-.22A6.23,6.23,0,0,1,208.37,12.59Z"/><path class="cls-3" d="M226.67,4.38V31.56a5.16,5.16,0,0,1-1.58.22,5.83,5.83,0,0,1-1.66-.22l-.26-2.14a6,6,0,0,1-5.52,2.73c-4.23,0-7-2.54-7-10.06s2.72-10.08,7-10.08a6,6,0,0,1,5.34,2.5V4.38a6.28,6.28,0,0,1,1.88-.22A5.67,5.67,0,0,1,226.67,4.38ZM223,24.49v-4.9c0-2.36-1.47-4.6-4.05-4.6-3,0-4.42,1.69-4.42,7.1s1.4,7.07,4.42,7.07C221.55,29.16,223,26.88,223,24.49Z"/><path class="cls-3" d="M248.1,12.59l-7.29,22.24c-1.25,3.91-2.65,6.15-6.48,6.15a7.93,7.93,0,0,1-2.43-.33,3.55,3.55,0,0,1-.26-1.4,3.13,3.13,0,0,1,.33-1.43,8.13,8.13,0,0,0,1.7.18c1.76,0,2.68-.59,3.75-3.79l.81-2.43a3,3,0,0,1-1.14-.26l-7-18.93a6.64,6.64,0,0,1,1.91-.22,6.43,6.43,0,0,1,1.92.22l4.27,11.27a32.38,32.38,0,0,1,1.29,4.35h.11s.37-1.81,1.18-4.35l3.75-11.27a5.67,5.67,0,0,1,1.8-.22A6.27,6.27,0,0,1,248.1,12.59Z"/><path class="cls-3" d="M251.49,31.56v-19a5.74,5.74,0,0,1,1.84-.22,6.13,6.13,0,0,1,1.84.22v1.92a7.4,7.4,0,0,1,5.7-2.5c3.69,0,5.67,2.2,5.67,5.52v14a6.38,6.38,0,0,1-1.84.22,5.81,5.81,0,0,1-1.84-.22V18.26c0-2.13-1.1-3.27-3.42-3.27a5.13,5.13,0,0,0-4.27,2.54v14a6.13,6.13,0,0,1-1.84.22A5.74,5.74,0,0,1,251.49,31.56Z"/><path class="cls-3" d="M285.54,19.22V31.56a4.15,4.15,0,0,1-1.51.22,4.43,4.43,0,0,1-1.51-.22L282,29.09c-.92,2-3,3.06-5.82,3.06-3.5,0-5.71-2.07-5.71-6.08s2.39-5.78,7.11-5.78a40.07,40.07,0,0,1,4.27.22V19c0-2.61-1.14-3.9-3.9-3.9A15.67,15.67,0,0,0,273,16a2.79,2.79,0,0,1-.81-1.1,3.5,3.5,0,0,1-.26-1.55A17.05,17.05,0,0,1,278.47,12C283.85,12,285.54,14.44,285.54,19.22Zm-3.68,5.08V22.94c-.85-.07-2.36-.22-3.76-.22-2.57,0-3.86,1-3.86,3.39s1.21,3.35,3.2,3.35C280.28,29.46,281.86,27.14,281.86,24.3Z"/><path class="cls-3" d="M112,55a36.17,36.17,0,0,1,5.12-18.07,3.19,3.19,0,0,1,1.51.4,2.64,2.64,0,0,1,1.14,1A32.45,32.45,0,0,0,115.45,55a32.46,32.46,0,0,0,4.27,16.65,2.39,2.39,0,0,1-1.14,1.06,3.35,3.35,0,0,1-1.51.37A36.37,36.37,0,0,1,112,55Z"/><path class="cls-3" d="M122.11,54.26c0-9.1,3.28-12.93,9.25-12.93s9.31,3.72,9.31,12.93-3.39,12.92-9.31,12.92S122.11,63.43,122.11,54.26Zm14.51,0c0-7.59-1.73-9.87-5.26-9.87s-5.27,2.28-5.27,9.87,1.8,9.83,5.27,9.83S136.62,61.73,136.62,54.26Z"/><path class="cls-3" d="M144.42,70.42a6.26,6.26,0,0,0,1.37-3.64,4.26,4.26,0,0,1-1.29-.22V63a8.38,8.38,0,0,1,3.9,0v2.5a7.65,7.65,0,0,1-2.58,5.85Z"/><path class="cls-3" d="M167.84,63.5a4.05,4.05,0,0,1,.33,1.66,4.19,4.19,0,0,1-.33,1.62H152.78a13.8,13.8,0,0,1-.26-2.54c0-5.71,3.72-7.7,7.11-9.91s5-3.35,5-6.15c0-2.13-1.33-3.83-4.79-3.83a16.45,16.45,0,0,0-5.37,1,2.85,2.85,0,0,1-1.07-2.65,17.46,17.46,0,0,1,7-1.4c4.57,0,8.06,1.92,8.06,6.74,0,4.42-2.57,6.15-6.92,8.77-2.25,1.36-5.3,2.61-5.37,5.74a6.61,6.61,0,0,0,.07.92Z"/><path class="cls-3" d="M171.85,47.7c0-4.52,1.92-6.37,5.08-6.37S182,43.1,182,47.7s-1.91,6.37-5.08,6.37S171.85,52.31,171.85,47.7Zm7.4,0c0-3.38-.88-4.23-2.32-4.23s-2.32.85-2.32,4.23.85,4.2,2.32,4.2S179.25,51.13,179.25,47.7Zm-3.38,19.22,14.21-25.77a3.84,3.84,0,0,1,1.47-.22,4.22,4.22,0,0,1,1.51.22L178.81,66.92a3.81,3.81,0,0,1-1.51.23A3.53,3.53,0,0,1,175.87,66.92Zm10.82-6.14c0-4.57,1.88-6.41,5-6.41s5.12,1.77,5.12,6.41-1.95,6.37-5.12,6.37S186.69,65.38,186.69,60.78Zm7.36,0c0-3.39-.88-4.24-2.32-4.24s-2.32.85-2.32,4.24.89,4.16,2.32,4.16S194.05,64.2,194.05,60.78Z"/><path class="cls-3" d="M200.53,72.7a2.35,2.35,0,0,1-1.1-1.06A32.46,32.46,0,0,0,203.7,55a32.45,32.45,0,0,0-4.27-16.64,2.68,2.68,0,0,1,1.1-1,3.29,3.29,0,0,1,1.55-.4A36.37,36.37,0,0,1,207.16,55a36.57,36.57,0,0,1-5.08,18.08A3.47,3.47,0,0,1,200.53,72.7Z"/></svg>