<svg id="Warstwa_1" data-name="Warstwa 1" xmlns="http://www.w3.org/2000/svg" viewBox="0 0 336.77 80"><defs><style>.cls-1{fill:#fff;}</style></defs><title>page_02_logo</title><polygon class="cls-1" points="27.41 61.73 27.41 20.45 53.98 20.45 53.98 27.76 35.83 27.76 35.83 37.43 52.05 37.43 52.05 44.41 35.83 44.41 35.83 54.42 53.36 54.42 54.44 61.73 27.41 61.73"/><polygon class="cls-1" points="62.35 61.73 62.35 20.45 70.72 20.45 70.72 54.53 86.85 54.53 85.31 61.73 62.35 61.73"/><path class="cls-1" d="M91.72,57.27A16.89,16.89,0,0,1,87,45.13V37.32A18,18,0,0,1,92.4,24.24,17.47,17.47,0,0,1,105.21,19h.11a26.47,26.47,0,0,1,7.46,1,18.11,18.11,0,0,1,6.65,3.57L114.26,30a11,11,0,0,0-4.33-2.59,14.55,14.55,0,0,0-4.67-.76,9.32,9.32,0,0,0-6.83,2.85,10.79,10.79,0,0,0-3,7.86V45c0,3.34.87,5.92,2.61,7.76a8.68,8.68,0,0,0,6.61,2.57,9.09,9.09,0,0,0,6.2-2.19,7.75,7.75,0,0,0,2.62-6.1V44.91h-8.54l-1.31-7h18.22v8a15.73,15.73,0,0,1-4.44,11.59q-4.85,4.84-13.55,4.84a16,16,0,0,1-12.12-5.06"/><path class="cls-1" d="M158.08,20.45c-.46.84-1,1.83-1.6,3l-8.36,15.82-2.62,5.12a10.32,10.32,0,0,0-1,4.78V61.73h-8.53V49.14a10.32,10.32,0,0,0-1-4.78L122.34,20.45h9.16l7.8,15.83a8.22,8.22,0,0,1,.4,1.1,14.56,14.56,0,0,1,.51,3.52,14.08,14.08,0,0,1,.51-3.52,7,7,0,0,1,.4-1.1L147,24.51l1.94-4.06Z"/><path class="cls-1" d="M162.8,20.45h16.39a15.06,15.06,0,0,1,12.18,5.44c2.85,3.41,4.27,7.8,4.27,13.2V44a18.36,18.36,0,0,1-4.32,12.43,15.34,15.34,0,0,1-12.18,5.33H162.8Zm8.42,34H179a6.94,6.94,0,0,0,6.2-3.19A13,13,0,0,0,187,44V39.09c-.27-3.86-.91-6.62-1.93-8.31-1.26-2-3.3-3-6.15-3h-7.69Z"/><rect class="cls-1" x="204.86" y="20.45" width="8.42" height="41.28"/><path class="cls-1" d="M257.45,20.45V45.13a17.19,17.19,0,1,1-34.38,0V20.45h8.42V46A9.27,9.27,0,0,0,234,52.5a8.62,8.62,0,0,0,12.51,0A9.31,9.31,0,0,0,248.91,46V20.45Z"/><polygon class="cls-1" points="307.76 61.73 299.39 61.73 299.39 32.49 298.94 36 291.08 61.18 283.12 61.18 275.32 36.06 274.81 32.49 274.81 61.73 266.38 61.73 266.38 20.45 278 20.45 286.81 49.97 287.1 53.54 287.27 49.97 296.26 20.45 307.76 20.45 307.76 61.73"/></svg>