<svg id="Warstwa_1" data-name="Warstwa 1" xmlns="http://www.w3.org/2000/svg" viewBox="0 0 400 60"><defs><style>.cls-1{fill:#005ca5;}.cls-2{fill:none;stroke:#cbd413;stroke-miterlimit:10;stroke-width:1.85px;}</style></defs><title>sposoby_aplikacji</title><path class="cls-1" d="M195.67,37.47a3.7,3.7,0,0,1,.66-2,16,16,0,0,0,4.76.79c2.68,0,4-1,4-2.89s-1.54-2.46-3.37-3c-2.63-.84-5.84-1.52-5.84-5.32,0-3.11,2.05-5.21,6.22-5.21a14.67,14.67,0,0,1,5,.76,3,3,0,0,1-.68,2,15.61,15.61,0,0,0-3.9-.51c-2.71,0-4,1-4,2.84,0,2,2.12,2.43,4.5,3.19s4.76,1.85,4.76,5.21-2.2,5.32-6.5,5.32A14.32,14.32,0,0,1,195.67,37.47Z"/><path class="cls-1" d="M221.47,31.6c0,5.19-1.9,6.93-4.81,6.93a4.07,4.07,0,0,1-3.7-1.74v7.26a4.12,4.12,0,0,1-1.26.15,4.24,4.24,0,0,1-1.27-.15v-19a4.24,4.24,0,0,1,1.27-.15,4.12,4.12,0,0,1,1.26.15v1.32a4,4,0,0,1,3.7-1.72C219.55,24.69,221.47,26.41,221.47,31.6Zm-2.66,0c0-3.72-1-4.86-3-4.86-1.78,0-2.79,1.49-2.82,3.19v3.26c0,1.67,1,3.29,2.82,3.29C217.85,36.48,218.81,35.37,218.81,31.6Z"/><path class="cls-1" d="M223.75,31.6c0-5,2.18-6.91,5.67-6.91s5.65,1.9,5.65,6.91-2.15,6.93-5.65,6.93S223.75,36.63,223.75,31.6Zm8.71,0c0-3.88-1.16-5-3-5s-3,1.08-3,5,1.17,5,3,5S232.46,35.47,232.46,31.6Z"/><path class="cls-1" d="M237.12,37.62a2.25,2.25,0,0,1,.66-1.79,10.72,10.72,0,0,0,3.47.6c1.67,0,2.63-.58,2.63-1.87s-1.47-1.7-3-2.15c-1.72-.51-3.57-1.29-3.57-3.75s1.55-4,4.76-4a8.38,8.38,0,0,1,3.65.68,2.33,2.33,0,0,1-.64,1.77,9.21,9.21,0,0,0-2.73-.43c-1.77,0-2.63.66-2.63,1.85s1.57,1.57,3.14,2.08,3.49,1.31,3.49,3.84-1.57,4.05-4.91,4.05A10.21,10.21,0,0,1,237.12,37.62Z"/><path class="cls-1" d="M248.39,31.6c0-5,2.17-6.91,5.67-6.91s5.64,1.9,5.64,6.91-2.15,6.93-5.64,6.93S248.39,36.63,248.39,31.6Zm8.71,0c0-3.88-1.17-5-3-5s-3,1.08-3,5,1.16,5,3,5S257.1,35.47,257.1,31.6Z"/><path class="cls-1" d="M273.55,31.62c0,5.17-1.9,6.91-4.83,6.91a4.13,4.13,0,0,1-3.67-1.69v1.29a5.41,5.41,0,0,1-2.53,0V19.45a5.08,5.08,0,0,1,2.53,0v7a4.08,4.08,0,0,1,3.67-1.72C271.65,24.69,273.55,26.43,273.55,31.62Zm-2.66,0c0-3.72-1-4.88-3-4.88-1.8,0-2.79,1.52-2.81,3.21v3.27c0,1.72,1,3.26,2.81,3.26C269.93,36.48,270.89,35.32,270.89,31.62Z"/><path class="cls-1" d="M287.48,25.09l-5,15.29c-.86,2.68-1.83,4.23-4.46,4.23a5.52,5.52,0,0,1-1.67-.23,2.43,2.43,0,0,1-.18-1,2.2,2.2,0,0,1,.23-1,5.29,5.29,0,0,0,1.16.13c1.22,0,1.85-.41,2.59-2.61l.55-1.67a2.11,2.11,0,0,1-.78-.18l-4.84-13a4.68,4.68,0,0,1,1.32-.15,4.43,4.43,0,0,1,1.32.15l2.93,7.75a21.35,21.35,0,0,1,.89,3h.08a30.11,30.11,0,0,1,.81-3L285,25.09a3.89,3.89,0,0,1,1.24-.15A4.38,4.38,0,0,1,287.48,25.09Z"/><path class="cls-1" d="M304.49,29.65v8.48a2.88,2.88,0,0,1-1,.15,3.05,3.05,0,0,1-1-.15l-.36-1.7c-.63,1.37-2.05,2.1-4,2.1-2.4,0-3.92-1.41-3.92-4.17s1.64-4,4.88-4a29.29,29.29,0,0,1,2.94.15v-1c0-1.8-.78-2.69-2.68-2.69a10.64,10.64,0,0,0-3.39.61,1.67,1.67,0,0,1-.56-.76,2.33,2.33,0,0,1-.18-1.06,11.68,11.68,0,0,1,4.48-.91C303.33,24.69,304.49,26.36,304.49,29.65ZM302,33.14v-.93c-.58-.06-1.62-.16-2.58-.16-1.77,0-2.66.66-2.66,2.33s.84,2.31,2.2,2.31C300.87,36.69,302,35.09,302,33.14Z"/><path class="cls-1" d="M318.8,31.6c0,5.19-1.9,6.93-4.81,6.93a4.07,4.07,0,0,1-3.7-1.74v7.26a5.41,5.41,0,0,1-2.53,0v-19a5.41,5.41,0,0,1,2.53,0v1.32a4,4,0,0,1,3.7-1.72C316.87,24.69,318.8,26.41,318.8,31.6Zm-2.66,0c0-3.72-1-4.86-3-4.86-1.77,0-2.78,1.49-2.81,3.19v3.26c0,1.67,1,3.29,2.81,3.29C315.18,36.48,316.14,35.37,316.14,31.6Z"/><path class="cls-1" d="M321.74,38.13V19.45a3.6,3.6,0,0,1,1.26-.16,4,4,0,0,1,1.27.16V38.13a4.24,4.24,0,0,1-1.27.15A3.82,3.82,0,0,1,321.74,38.13Z"/><path class="cls-1" d="M327.69,22.18V19.9a4.5,4.5,0,0,1,1.34-.15,5.05,5.05,0,0,1,1.37.15v2.28a5.05,5.05,0,0,1-1.37.15A4.5,4.5,0,0,1,327.69,22.18Zm.07,16v-13a3.85,3.85,0,0,1,1.27-.15,4.2,4.2,0,0,1,1.26.15v13a4.2,4.2,0,0,1-1.26.15A4.08,4.08,0,0,1,327.76,38.13Z"/><path class="cls-1" d="M344.42,38.1a5.08,5.08,0,0,1-1.42.18,4.73,4.73,0,0,1-1.39-.18l-3.77-5.82h-1.59v5.85a4.25,4.25,0,0,1-1.25.15,4.74,4.74,0,0,1-1.29-.15V19.42a5.74,5.74,0,0,1,1.29-.13,5.57,5.57,0,0,1,1.25.13V30.36h1.64l3.37-5.27a4.55,4.55,0,0,1,1.31-.15,4.94,4.94,0,0,1,1.27.15L340,31.14Z"/><path class="cls-1" d="M355.81,29.65v8.48a2.85,2.85,0,0,1-1,.15,3.08,3.08,0,0,1-1-.15l-.36-1.7c-.63,1.37-2.05,2.1-4,2.1-2.4,0-3.92-1.41-3.92-4.17s1.65-4,4.89-4a28.89,28.89,0,0,1,2.93.15v-1c0-1.8-.78-2.69-2.68-2.69a10.64,10.64,0,0,0-3.39.61,1.67,1.67,0,0,1-.56-.76,2.33,2.33,0,0,1-.18-1.06,11.68,11.68,0,0,1,4.48-.91C354.65,24.69,355.81,26.36,355.81,29.65Zm-2.53,3.49v-.93c-.58-.06-1.62-.16-2.58-.16-1.77,0-2.66.66-2.66,2.33s.84,2.31,2.21,2.31C352.19,36.69,353.28,35.09,353.28,33.14Z"/><path class="cls-1" d="M358.53,31.62c0-4.55,1.92-6.93,5.62-6.93a6.91,6.91,0,0,1,3.39.66,2.59,2.59,0,0,1-.76,1.82,5.38,5.38,0,0,0-2.18-.41c-2.43,0-3.44,1.55-3.44,4.86s1.09,4.76,3.54,4.76a5.87,5.87,0,0,0,2.33-.45,2.49,2.49,0,0,1,.76,1.79,6.85,6.85,0,0,1-3.64.81C360.45,38.53,358.53,36.18,358.53,31.62Z"/><path class="cls-1" d="M367.19,44.33a1.58,1.58,0,0,1-.11-.58,2.51,2.51,0,0,1,.28-1.29,4.72,4.72,0,0,0,1,.1c1.24,0,1.9-.63,1.9-2.18V25.09a3.85,3.85,0,0,1,1.27-.15,4.37,4.37,0,0,1,1.26.15V40.51c0,2.71-1.31,4.1-3.74,4.1A4.87,4.87,0,0,1,367.19,44.33Zm2.93-22.15v-2.3a4.87,4.87,0,0,1,1.37-.15,4.55,4.55,0,0,1,1.31.15v2.3a4.55,4.55,0,0,1-1.31.15A4.87,4.87,0,0,1,370.12,22.18Z"/><path class="cls-1" d="M376.15,22.18V19.9a4.5,4.5,0,0,1,1.34-.15,5.05,5.05,0,0,1,1.37.15v2.28a5.05,5.05,0,0,1-1.37.15A4.5,4.5,0,0,1,376.15,22.18Zm.07,16v-13a3.85,3.85,0,0,1,1.27-.15,4.2,4.2,0,0,1,1.26.15v13a4.2,4.2,0,0,1-1.26.15A4.08,4.08,0,0,1,376.22,38.13Z"/><polyline class="cls-2" points="166.28 6.32 182.07 29.71 166.28 53.19"/></svg>