<svg id="Warstwa_1" data-name="Warstwa 1" xmlns="http://www.w3.org/2000/svg" viewBox="0 0 450 50"><defs><style>.cls-1{fill:none;stroke:#ccd513;stroke-width:4px;}.cls-2{fill:#0056a3;}</style></defs><title>stosowanie_antyseptyki</title><path class="cls-1" d="M114,18.7a2.87,2.87,0,1,0-2.86-2.86A2.87,2.87,0,0,0,114,18.7Z"/><path class="cls-2" d="M124.55,18.05a1.05,1.05,0,0,1,.2-.6,4.43,4.43,0,0,0,1.38.23c.78,0,1.16-.29,1.16-.84s-.45-.71-1-.87c-.76-.25-1.7-.45-1.7-1.55,0-.9.6-1.51,1.81-1.51a4.32,4.32,0,0,1,1.45.22.9.9,0,0,1-.2.57,4.43,4.43,0,0,0-1.14-.15c-.78,0-1.15.3-1.15.83s.62.7,1.31.92,1.38.54,1.38,1.52-.64,1.54-1.89,1.54A4.18,4.18,0,0,1,124.55,18.05Z"/><path class="cls-2" d="M130.78,18a.76.76,0,0,1,0,.26,2,2,0,0,1-.56.07c-.91,0-1.24-.48-1.24-1.42V15h-.56a.71.71,0,0,1,0-.27.57.57,0,0,1,0-.28h.56V13.7a1.23,1.23,0,0,1,.73-.14v.85h1a.72.72,0,0,1,0,.27.9.9,0,0,1,0,.28h-1v1.95c0,.64.2.86.71.86a2.24,2.24,0,0,0,.34,0A.65.65,0,0,1,130.78,18Z"/><path class="cls-2" d="M131.15,16.34c0-1.46.63-2,1.65-2s1.64.55,1.64,2-.63,2-1.64,2S131.15,17.8,131.15,16.34Zm2.53,0c0-1.12-.34-1.44-.88-1.44s-.88.32-.88,1.44.33,1.45.88,1.45S133.68,17.47,133.68,16.34Z"/><path class="cls-2" d="M135,18.09a.66.66,0,0,1,.2-.52,3.1,3.1,0,0,0,1,.18c.49,0,.77-.17.77-.55s-.43-.49-.87-.62-1-.38-1-1.09.45-1.16,1.39-1.16a2.37,2.37,0,0,1,1.05.2.68.68,0,0,1-.18.52,2.59,2.59,0,0,0-.79-.13c-.52,0-.77.19-.77.54s.46.45.91.6,1,.38,1,1.12-.46,1.18-1.43,1.18A2.94,2.94,0,0,1,135,18.09Z"/><path class="cls-2" d="M138.17,16.34c0-1.46.64-2,1.65-2s1.64.55,1.64,2-.62,2-1.64,2S138.17,17.8,138.17,16.34Zm2.54,0c0-1.12-.34-1.44-.89-1.44s-.88.32-.88,1.44.34,1.45.88,1.45S140.71,17.47,140.71,16.34Z"/><path class="cls-2" d="M142.91,18.24l-1.11-3.79a1.48,1.48,0,0,1,.37,0,.92.92,0,0,1,.33,0l.69,2.28a4.12,4.12,0,0,1,.15.8h0a5.56,5.56,0,0,1,.17-.8l.68-2.28a2,2,0,0,1,.39,0,1.38,1.38,0,0,1,.37,0l.66,2.27a4.19,4.19,0,0,1,.15.81h0c0-.16.08-.43.18-.81l.69-2.27a1.06,1.06,0,0,1,.33,0,1,1,0,0,1,.32,0l-1.11,3.79a2.17,2.17,0,0,1-.83,0l-.59-2a5.19,5.19,0,0,1-.21-1.11h0a4.69,4.69,0,0,1-.22,1.11l-.59,2a2.37,2.37,0,0,1-.41,0A2.63,2.63,0,0,1,142.91,18.24Z"/><path class="cls-2" d="M150.6,15.77v2.47a.88.88,0,0,1-.3,0,1,1,0,0,1-.3,0l-.11-.49a1.18,1.18,0,0,1-1.16.61,1.08,1.08,0,0,1-1.14-1.22c0-.79.48-1.15,1.42-1.15.35,0,.66,0,.85,0v-.3a.68.68,0,0,0-.78-.78,3,3,0,0,0-1,.18.6.6,0,0,1-.16-.22.72.72,0,0,1-.06-.31,3.37,3.37,0,0,1,1.31-.27C150.26,14.33,150.6,14.82,150.6,15.77Zm-.74,1v-.27a6.83,6.83,0,0,0-.75-.05c-.51,0-.77.19-.77.68s.24.67.64.67A.91.91,0,0,0,149.86,16.79Z"/><path class="cls-2" d="M151.49,18.24V14.45a1.17,1.17,0,0,1,.36,0,1.3,1.3,0,0,1,.37,0v.38a1.5,1.5,0,0,1,1.14-.5,1,1,0,0,1,1.13,1.11v2.8a1.34,1.34,0,0,1-.36,0,1.3,1.3,0,0,1-.37,0V15.58c0-.42-.22-.65-.69-.65a1,1,0,0,0-.85.51v2.8a1.3,1.3,0,0,1-.37,0A1.17,1.17,0,0,1,151.49,18.24Z"/><path class="cls-2" d="M155.36,13.6v-.66a1.47,1.47,0,0,1,.39,0,1.6,1.6,0,0,1,.4,0v.66a1.3,1.3,0,0,1-.4.05A1.19,1.19,0,0,1,155.36,13.6Zm0,4.64V14.45a1.17,1.17,0,0,1,.36,0,1.3,1.3,0,0,1,.37,0v3.79a1.3,1.3,0,0,1-.37,0A1.17,1.17,0,0,1,155.39,18.24Z"/><path class="cls-2" d="M159.86,16.57h-2.21c.06.87.39,1.16,1,1.16a1.7,1.7,0,0,0,.86-.22.8.8,0,0,1,.24.52,2.09,2.09,0,0,1-1.23.33c-1.11,0-1.65-.68-1.65-2s.65-2,1.62-2a1.31,1.31,0,0,1,1.43,1.47A3.39,3.39,0,0,1,159.86,16.57Zm-2.22-.5h1.59a1.83,1.83,0,0,0,0-.35c0-.45-.2-.82-.74-.82S157.7,15.23,157.64,16.07Z"/><path class="cls-2" d="M164.94,15.77v2.47a.88.88,0,0,1-.3,0,1,1,0,0,1-.3,0l-.11-.49a1.18,1.18,0,0,1-1.16.61,1.08,1.08,0,0,1-1.14-1.22c0-.79.48-1.15,1.42-1.15.35,0,.66,0,.85,0v-.3c0-.52-.22-.78-.78-.78a3,3,0,0,0-1,.18.6.6,0,0,1-.16-.22.63.63,0,0,1-.05-.31,3.29,3.29,0,0,1,1.3-.27C164.6,14.33,164.94,14.82,164.94,15.77Zm-.74,1v-.27a6.65,6.65,0,0,0-.75-.05c-.51,0-.77.19-.77.68s.24.67.64.67A.91.91,0,0,0,164.2,16.79Z"/><path class="cls-2" d="M165.83,18.24V14.45a1.17,1.17,0,0,1,.36,0,1.3,1.3,0,0,1,.37,0v.38a1.5,1.5,0,0,1,1.14-.5,1,1,0,0,1,1.13,1.11v2.8a1.34,1.34,0,0,1-.36,0,1.3,1.3,0,0,1-.37,0V15.58c0-.42-.22-.65-.69-.65a1,1,0,0,0-.85.51v2.8a1.3,1.3,0,0,1-.37,0A1.17,1.17,0,0,1,165.83,18.24Z"/><path class="cls-2" d="M171.81,18a.76.76,0,0,1,0,.26,2,2,0,0,1-.56.07c-.92,0-1.25-.48-1.25-1.42V15h-.56a.87.87,0,0,1,0-.27.69.69,0,0,1,0-.28H170V13.7a1.27,1.27,0,0,1,.74-.14v.85h1a.72.72,0,0,1,0,.27.9.9,0,0,1,0,.28h-1v1.95c0,.64.2.86.71.86a2.24,2.24,0,0,0,.34,0A.65.65,0,0,1,171.81,18Z"/><path class="cls-2" d="M175.57,14.45l-1.46,4.44c-.25.78-.53,1.23-1.29,1.23a1.45,1.45,0,0,1-.49-.07.71.71,0,0,1-.05-.27.63.63,0,0,1,.07-.29,1.73,1.73,0,0,0,.34,0c.35,0,.53-.12.75-.76l.16-.49a.59.59,0,0,1-.23-.05L172,14.45a1.42,1.42,0,0,1,.38,0,1.34,1.34,0,0,1,.38,0l.85,2.25a5.71,5.71,0,0,1,.26.87h0s.08-.36.24-.87l.75-2.25a1.26,1.26,0,0,1,.36,0A1.34,1.34,0,0,1,175.57,14.45Z"/><path class="cls-2" d="M175.83,18.09a.66.66,0,0,1,.19-.52,3.16,3.16,0,0,0,1,.18c.48,0,.77-.17.77-.55s-.43-.49-.87-.62-1-.38-1-1.09.45-1.16,1.38-1.16a2.46,2.46,0,0,1,1.06.2.68.68,0,0,1-.18.52,2.66,2.66,0,0,0-.8-.13c-.51,0-.76.19-.76.54s.45.45.91.6,1,.38,1,1.12-.46,1.18-1.43,1.18A2.94,2.94,0,0,1,175.83,18.09Z"/><path class="cls-2" d="M182,16.57H179.8c.06.87.39,1.16,1,1.16a1.7,1.7,0,0,0,.86-.22.71.71,0,0,1,.24.52,2.09,2.09,0,0,1-1.23.33c-1.11,0-1.65-.68-1.65-2s.65-2,1.63-2a1.3,1.3,0,0,1,1.42,1.47A3.39,3.39,0,0,1,182,16.57Zm-2.22-.5h1.6a3.49,3.49,0,0,0,0-.35c0-.45-.2-.82-.74-.82S179.85,15.23,179.79,16.07Z"/><path class="cls-2" d="M186,16.34c0,1.51-.55,2-1.39,2a1.2,1.2,0,0,1-1.08-.51V20a1.3,1.3,0,0,1-.37,0,1.26,1.26,0,0,1-.36,0V14.45a1.26,1.26,0,0,1,.36,0,1.3,1.3,0,0,1,.37,0v.38a1.19,1.19,0,0,1,1.08-.5C185.46,14.33,186,14.83,186,16.34Zm-.77,0c0-1.08-.28-1.41-.88-1.41a.85.85,0,0,0-.82.92v1a.87.87,0,0,0,.82,1C185,17.76,185.25,17.44,185.25,16.34Z"/><path class="cls-2" d="M188.85,18a.76.76,0,0,1,0,.26,2,2,0,0,1-.56.07c-.91,0-1.24-.48-1.24-1.42V15h-.56a.71.71,0,0,1,0-.27.57.57,0,0,1,0-.28H187V13.7a1.23,1.23,0,0,1,.73-.14v.85h1a.94.94,0,0,1,0,.27,1.17,1.17,0,0,1,0,.28h-1v1.95c0,.64.2.86.71.86a2.24,2.24,0,0,0,.34,0A.65.65,0,0,1,188.85,18Z"/><path class="cls-2" d="M192.61,14.45l-1.45,4.44c-.25.78-.53,1.23-1.3,1.23a1.35,1.35,0,0,1-.48-.07.61.61,0,0,1-.06-.27.63.63,0,0,1,.07-.29,1.84,1.84,0,0,0,.34,0c.35,0,.54-.12.75-.76l.16-.49a.64.64,0,0,1-.23-.05L189,14.45a1.42,1.42,0,0,1,.38,0,1.34,1.34,0,0,1,.38,0l.86,2.25a6.32,6.32,0,0,1,.25.87h0a8.9,8.9,0,0,1,.23-.87l.75-2.25a1.26,1.26,0,0,1,.36,0A1.34,1.34,0,0,1,192.61,14.45Z"/><path class="cls-2" d="M196.26,18.23a1.51,1.51,0,0,1-.41.05,1.38,1.38,0,0,1-.4-.05l-1.1-1.69h-.46v1.7a1.34,1.34,0,0,1-.36,0,1.52,1.52,0,0,1-.38,0V12.8a2.14,2.14,0,0,1,.38,0,2,2,0,0,1,.36,0V16h.48l1-1.53a1.56,1.56,0,0,1,.39,0,1.44,1.44,0,0,1,.36,0L195,16.21Z"/><path class="cls-2" d="M196.73,13.6v-.66a1.47,1.47,0,0,1,.39,0,1.6,1.6,0,0,1,.4,0v.66a1.3,1.3,0,0,1-.4.05A1.19,1.19,0,0,1,196.73,13.6Zm0,4.64V14.45a1.21,1.21,0,0,1,.37,0,1.38,1.38,0,0,1,.37,0v3.79a1.38,1.38,0,0,1-.37,0A1.3,1.3,0,0,1,196.75,18.24Z"/><path class="cls-2" d="M199.06,20a.47.47,0,0,1,0-.17.71.71,0,0,1,.08-.37,1.28,1.28,0,0,0,.28,0c.36,0,.55-.19.55-.64V14.45a1.21,1.21,0,0,1,.37,0,1.48,1.48,0,0,1,.37,0v4.48c0,.79-.39,1.19-1.09,1.19A1.42,1.42,0,0,1,199.06,20Zm.85-6.44v-.66a1.23,1.23,0,0,1,.4,0,1.16,1.16,0,0,1,.38,0v.66a1.16,1.16,0,0,1-.38.05A1.23,1.23,0,0,1,199.91,13.6Z"/><path class="cls-2" d="M204.41,16.57H202.2c.06.87.4,1.16,1,1.16a1.7,1.7,0,0,0,.86-.22.76.76,0,0,1,.25.52,2.1,2.1,0,0,1-1.24.33c-1.1,0-1.65-.68-1.65-2s.65-2,1.63-2a1.3,1.3,0,0,1,1.42,1.47A3.39,3.39,0,0,1,204.41,16.57Zm-2.22-.5h1.6a3.49,3.49,0,0,0,0-.35c0-.45-.2-.82-.73-.82S202.25,15.23,202.19,16.07Z"/><path class="cls-2" d="M205,18.09a.66.66,0,0,1,.19-.52,3.11,3.11,0,0,0,1,.18c.48,0,.76-.17.76-.55s-.42-.49-.87-.62-1-.38-1-1.09.44-1.16,1.38-1.16a2.46,2.46,0,0,1,1.06.2.65.65,0,0,1-.19.52,2.59,2.59,0,0,0-.79-.13c-.51,0-.76.19-.76.54s.45.45.91.6,1,.38,1,1.12-.45,1.18-1.42,1.18A2.94,2.94,0,0,1,205,18.09Z"/><path class="cls-2" d="M210.47,18a.76.76,0,0,1,0,.26,2,2,0,0,1-.57.07c-.91,0-1.24-.48-1.24-1.42V15h-.56a.87.87,0,0,1,0-.27.69.69,0,0,1,0-.28h.56V13.7a1.25,1.25,0,0,1,.74-.14v.85h1a.72.72,0,0,1,0,.27.9.9,0,0,1,0,.28h-1v1.95c0,.64.19.86.71.86a2.24,2.24,0,0,0,.34,0A.65.65,0,0,1,210.47,18Z"/><path class="cls-2" d="M212.5,18.24V14.45a1.3,1.3,0,0,1,.37,0,1.38,1.38,0,0,1,.37,0v.38a1.36,1.36,0,0,1,1.08-.5,1,1,0,0,1,1,.58,1.45,1.45,0,0,1,1.21-.58,1,1,0,0,1,1.08,1.11v2.8a1.34,1.34,0,0,1-.36,0,1.3,1.3,0,0,1-.37,0V15.58c0-.43-.2-.65-.63-.65a.89.89,0,0,0-.8.51v2.8a1.48,1.48,0,0,1-.37,0,1.3,1.3,0,0,1-.37,0V15.58c0-.43-.2-.65-.63-.65a1,1,0,0,0-.8.51v2.8a1.48,1.48,0,0,1-.37,0A1.3,1.3,0,0,1,212.5,18.24Z"/><path class="cls-2" d="M218.3,16.34c0-1.46.63-2,1.65-2s1.64.55,1.64,2-.63,2-1.64,2S218.3,17.8,218.3,16.34Zm2.53,0c0-1.12-.34-1.44-.88-1.44s-.88.32-.88,1.44.33,1.45.88,1.45S220.83,17.47,220.83,16.34Z"/><path class="cls-2" d="M224.9,18a.76.76,0,0,1-.05.29H222.1a.93.93,0,0,1,0-.31,1,1,0,0,1,0-.28l2-2.69h-1.84a1,1,0,0,1,0-.3.85.85,0,0,1,0-.29h2.62a.67.67,0,0,1,0,.28.91.91,0,0,1,0,.31l-2,2.69h2A.73.73,0,0,1,224.9,18Zm-1.37-4.2a1,1,0,0,1-.36,0V13.1a1.32,1.32,0,0,1,.72,0v.64A1,1,0,0,1,223.53,13.79Z"/><path class="cls-2" d="M225.63,18.24V12.81a1.21,1.21,0,0,1,.37,0,1.38,1.38,0,0,1,.37,0v5.43a1.38,1.38,0,0,1-.37,0A1.21,1.21,0,0,1,225.63,18.24Z"/><path class="cls-2" d="M227.3,13.6v-.66a1.38,1.38,0,0,1,.39,0,1.56,1.56,0,0,1,.39,0v.66a1.27,1.27,0,0,1-.39.05A1.12,1.12,0,0,1,227.3,13.6Zm0,4.64V14.45a1.21,1.21,0,0,1,.37,0,1.26,1.26,0,0,1,.36,0v3.79a1.26,1.26,0,0,1-.36,0A1.3,1.3,0,0,1,227.32,18.24Z"/><path class="cls-2" d="M229.74,18.24l-1.11-3.79a1.38,1.38,0,0,1,.37,0,.82.82,0,0,1,.32,0l.69,2.28a4.36,4.36,0,0,1,.16.8h0a5.56,5.56,0,0,1,.17-.8l.68-2.28a1.85,1.85,0,0,1,.38,0,1.3,1.3,0,0,1,.37,0l.66,2.27a4.42,4.42,0,0,1,.16.81h0a7.23,7.23,0,0,1,.18-.81l.68-2.27a1.14,1.14,0,0,1,.33,0,1.06,1.06,0,0,1,.33,0L233,18.24a2.22,2.22,0,0,1-.84,0l-.58-2a4.61,4.61,0,0,1-.21-1.11h0a5.29,5.29,0,0,1-.22,1.11l-.59,2a2.37,2.37,0,0,1-.41,0A2.63,2.63,0,0,1,229.74,18.24Z"/><path class="cls-2" d="M237.43,19.94a1.2,1.2,0,0,1-.66.18c-.46,0-.72-.23-.72-.65a1.84,1.84,0,0,1,.78-1.24l-.12-.47a1.17,1.17,0,0,1-1.15.6,1.08,1.08,0,0,1-1.14-1.22c0-.79.47-1.15,1.42-1.15.34,0,.66,0,.85,0v-.3a.68.68,0,0,0-.78-.78,3.12,3.12,0,0,0-1,.18.76.76,0,0,1-.16-.22.81.81,0,0,1,0-.31,3.35,3.35,0,0,1,1.3-.27c1.08,0,1.41.49,1.41,1.44v2.47a1.67,1.67,0,0,0-.7,1.09c0,.18.1.27.23.27a1,1,0,0,0,.3-.08A.62.62,0,0,1,237.43,19.94Zm-.74-3.15v-.27a6.65,6.65,0,0,0-.75-.05c-.52,0-.77.19-.77.68s.24.67.64.67A.92.92,0,0,0,236.69,16.79Z"/><path class="cls-2" d="M242.59,15.77v2.47a1,1,0,0,1-.31,0,1,1,0,0,1-.3,0l-.1-.49a1.19,1.19,0,0,1-1.16.61,1.08,1.08,0,0,1-1.14-1.22c0-.79.47-1.15,1.42-1.15.34,0,.66,0,.85,0v-.3a.68.68,0,0,0-.78-.78,3.12,3.12,0,0,0-1,.18.76.76,0,0,1-.16-.22.81.81,0,0,1,0-.31,3.35,3.35,0,0,1,1.3-.27C242.25,14.33,242.59,14.82,242.59,15.77Zm-.74,1v-.27a6.83,6.83,0,0,0-.75-.05c-.52,0-.77.19-.77.68s.24.67.64.67A.92.92,0,0,0,241.85,16.79Z"/><path class="cls-2" d="M243.5,18.24V12.81a1.21,1.21,0,0,1,.37,0,1.38,1.38,0,0,1,.37,0v5.43a1.38,1.38,0,0,1-.37,0A1.21,1.21,0,0,1,243.5,18.24Z"/><path class="cls-2" d="M247.27,18a.76.76,0,0,1,0,.26,2,2,0,0,1-.56.07c-.92,0-1.25-.48-1.25-1.42V15h-.56a.87.87,0,0,1,0-.27.69.69,0,0,1,0-.28h.56V13.7a1.27,1.27,0,0,1,.74-.14v.85h1a.72.72,0,0,1,0,.27.9.9,0,0,1,0,.28h-1v1.95c0,.64.2.86.71.86a2.24,2.24,0,0,0,.34,0A.65.65,0,0,1,247.27,18Z"/><path class="cls-2" d="M250.61,16.57H248.4c0,.87.39,1.16,1,1.16a1.7,1.7,0,0,0,.86-.22.8.8,0,0,1,.24.52,2.09,2.09,0,0,1-1.23.33c-1.11,0-1.65-.68-1.65-2s.65-2,1.62-2a1.31,1.31,0,0,1,1.43,1.47A3.39,3.39,0,0,1,250.61,16.57Zm-2.22-.5H250a1.83,1.83,0,0,0,0-.35c0-.45-.2-.82-.74-.82S248.45,15.23,248.39,16.07Z"/><path class="cls-2" d="M251.41,18.24V14.45a1.17,1.17,0,0,1,.36,0,1.06,1.06,0,0,1,.35,0V15a1.06,1.06,0,0,1,1-.64,1.18,1.18,0,0,1,.63.18.84.84,0,0,1-.32.61.74.74,0,0,0-.46-.14,1,1,0,0,0-.79.59v2.66a1.3,1.3,0,0,1-.37,0A1.17,1.17,0,0,1,251.41,18.24Z"/><path class="cls-2" d="M254.18,18.24V14.45a1.3,1.3,0,0,1,.37,0,1.38,1.38,0,0,1,.37,0v.38a1.5,1.5,0,0,1,1.14-.5,1,1,0,0,1,1.13,1.11v2.8a1.38,1.38,0,0,1-.37,0,1.17,1.17,0,0,1-.36,0V15.58c0-.42-.23-.65-.69-.65a1,1,0,0,0-.85.51v2.8a1.38,1.38,0,0,1-.37,0A1.3,1.3,0,0,1,254.18,18.24Z"/><path class="cls-2" d="M260.85,15.77v2.47a.88.88,0,0,1-.3,0,1,1,0,0,1-.3,0l-.11-.49a1.18,1.18,0,0,1-1.16.61,1.08,1.08,0,0,1-1.14-1.22c0-.79.48-1.15,1.42-1.15.35,0,.66,0,.85,0v-.3c0-.52-.22-.78-.77-.78a3,3,0,0,0-1,.18.6.6,0,0,1-.16-.22.63.63,0,0,1-.05-.31,3.29,3.29,0,0,1,1.3-.27C260.51,14.33,260.85,14.82,260.85,15.77Zm-.74,1v-.27a6.65,6.65,0,0,0-.75-.05c-.51,0-.77.19-.77.68s.24.67.64.67A.91.91,0,0,0,260.11,16.79Z"/><path class="cls-2" d="M263.83,18a1,1,0,0,1,0,.26,2.1,2.1,0,0,1-.57.07c-.91,0-1.24-.48-1.24-1.42V15h-.56a.71.71,0,0,1-.05-.27.57.57,0,0,1,.05-.28H262V13.7a1.23,1.23,0,0,1,.73-.14v.85h1a.94.94,0,0,1,0,.27,1.17,1.17,0,0,1,0,.28h-1v1.95c0,.64.2.86.71.86a2.24,2.24,0,0,0,.34,0A.65.65,0,0,1,263.83,18Z"/><path class="cls-2" d="M267.59,14.45l-1.46,4.44c-.25.78-.53,1.23-1.29,1.23a1.45,1.45,0,0,1-.49-.07.74.74,0,0,1,0-.56,2,2,0,0,0,.34,0c.36,0,.54-.12.75-.76l.17-.49a.56.56,0,0,1-.23-.05L264,14.45a1.42,1.42,0,0,1,.38,0,1.47,1.47,0,0,1,.39,0l.85,2.25a7.59,7.59,0,0,1,.26.87h0a7.7,7.7,0,0,1,.24-.87l.75-2.25a1.17,1.17,0,0,1,.36,0A1.44,1.44,0,0,1,267.59,14.45Z"/><path class="cls-2" d="M268.88,18.24l-1.11-3.79a1.48,1.48,0,0,1,.37,0,.82.82,0,0,1,.32,0l.7,2.28a4.12,4.12,0,0,1,.15.8h0a5.56,5.56,0,0,1,.17-.8l.68-2.28a1.89,1.89,0,0,1,.39,0,1.38,1.38,0,0,1,.37,0l.66,2.27a4.19,4.19,0,0,1,.15.81h0c0-.16.08-.43.18-.81l.68-2.27a1.14,1.14,0,0,1,.33,0,1,1,0,0,1,.33,0l-1.11,3.79a2.5,2.5,0,0,1-.42,0,2.27,2.27,0,0,1-.41,0l-.59-2a4.61,4.61,0,0,1-.21-1.11h0a4.69,4.69,0,0,1-.22,1.11l-.59,2a2.37,2.37,0,0,1-.41,0A2.63,2.63,0,0,1,268.88,18.24Z"/><path class="cls-2" d="M276.58,19.94a1.26,1.26,0,0,1-.67.18c-.45,0-.72-.23-.72-.65a1.84,1.84,0,0,1,.78-1.24l-.12-.47a1.16,1.16,0,0,1-1.15.6,1.08,1.08,0,0,1-1.14-1.22c0-.79.48-1.15,1.42-1.15.34,0,.66,0,.85,0v-.3a.68.68,0,0,0-.78-.78,3,3,0,0,0-1,.18.5.5,0,0,1-.16-.22.72.72,0,0,1-.06-.31,3.37,3.37,0,0,1,1.31-.27c1.07,0,1.41.49,1.41,1.44v2.47a1.69,1.69,0,0,0-.71,1.09c0,.18.1.27.24.27a.89.89,0,0,0,.29-.08A.63.63,0,0,1,276.58,19.94Zm-.75-3.15v-.27a6.48,6.48,0,0,0-.75-.05c-.51,0-.77.19-.77.68s.24.67.64.67A.91.91,0,0,0,275.83,16.79Z"/><path class="cls-2" d="M282,15.77v2.47a.88.88,0,0,1-.3,0,1,1,0,0,1-.31,0l-.1-.49a1.18,1.18,0,0,1-1.16.61A1.08,1.08,0,0,1,279,17.14c0-.79.48-1.15,1.42-1.15.34,0,.66,0,.85,0v-.3a.68.68,0,0,0-.78-.78,3,3,0,0,0-1,.18.5.5,0,0,1-.16-.22.72.72,0,0,1-.06-.31,3.37,3.37,0,0,1,1.31-.27C281.67,14.33,282,14.82,282,15.77Zm-.74,1v-.27a6.83,6.83,0,0,0-.75-.05c-.51,0-.77.19-.77.68s.24.67.64.67A.91.91,0,0,0,281.27,16.79Z"/><path class="cls-2" d="M282.89,18.24V14.45a1.3,1.3,0,0,1,.37,0,1.38,1.38,0,0,1,.37,0v.38a1.5,1.5,0,0,1,1.14-.5,1,1,0,0,1,1.13,1.11v2.8a1.38,1.38,0,0,1-.37,0,1.17,1.17,0,0,1-.36,0V15.58c0-.42-.22-.65-.69-.65a1,1,0,0,0-.85.51v2.8a1.38,1.38,0,0,1-.37,0A1.3,1.3,0,0,1,282.89,18.24Z"/><path class="cls-2" d="M288.88,18a.76.76,0,0,1,0,.26,2,2,0,0,1-.57.07c-.91,0-1.24-.48-1.24-1.42V15h-.56a.87.87,0,0,1,0-.27.69.69,0,0,1,0-.28H287V13.7a1.25,1.25,0,0,1,.74-.14v.85h1a.72.72,0,0,1,0,.27.9.9,0,0,1,0,.28h-1v1.95c0,.64.19.86.71.86a2.24,2.24,0,0,0,.34,0A.65.65,0,0,1,288.88,18Z"/><path class="cls-2" d="M292.64,14.45l-1.46,4.44c-.25.78-.53,1.23-1.29,1.23a1.45,1.45,0,0,1-.49-.07.71.71,0,0,1,0-.27.63.63,0,0,1,.07-.29,1.71,1.71,0,0,0,.33,0c.36,0,.54-.12.75-.76l.17-.49a.59.59,0,0,1-.23-.05L289,14.45a1.56,1.56,0,0,1,.39,0,1.42,1.42,0,0,1,.38,0l.85,2.25a5.71,5.71,0,0,1,.26.87h0a7.7,7.7,0,0,1,.24-.87l.75-2.25a1.17,1.17,0,0,1,.36,0A1.44,1.44,0,0,1,292.64,14.45Z"/><path class="cls-2" d="M296.38,16.35c0,1.5-.55,2-1.4,2a1.22,1.22,0,0,1-1.07-.5v.38a1.26,1.26,0,0,1-.36,0,1.3,1.3,0,0,1-.37,0V12.81a1.3,1.3,0,0,1,.37,0,1.26,1.26,0,0,1,.36,0v2a1.22,1.22,0,0,1,1.07-.5C295.83,14.33,296.38,14.84,296.38,16.35Zm-.77,0c0-1.08-.28-1.42-.88-1.42a.86.86,0,0,0-.82.93v.95a.86.86,0,0,0,.82,1C295.33,17.76,295.61,17.42,295.61,16.35Z"/><path class="cls-2" d="M297.13,13.6v-.66a1.47,1.47,0,0,1,.39,0,1.6,1.6,0,0,1,.4,0v.66a1.3,1.3,0,0,1-.4.05A1.19,1.19,0,0,1,297.13,13.6Zm0,4.64V14.45a1.21,1.21,0,0,1,.37,0,1.38,1.38,0,0,1,.37,0v3.79a1.38,1.38,0,0,1-.37,0A1.3,1.3,0,0,1,297.15,18.24Z"/><path class="cls-2" d="M298.66,16.34c0-1.46.63-2,1.64-2s1.64.55,1.64,2-.62,2-1.64,2S298.66,17.8,298.66,16.34Zm2.53,0c0-1.12-.34-1.44-.89-1.44s-.88.32-.88,1.44.34,1.45.88,1.45S301.19,17.47,301.19,16.34Z"/><path class="cls-2" d="M304.76,18a.76.76,0,0,1,0,.26,2,2,0,0,1-.57.07c-.91,0-1.24-.48-1.24-1.42V15h-.56a.87.87,0,0,1,0-.27.69.69,0,0,1,0-.28h.56V13.7a1.25,1.25,0,0,1,.74-.14v.85h1a.72.72,0,0,1,0,.27.9.9,0,0,1,0,.28h-1v1.95c0,.64.19.86.71.86a2.24,2.24,0,0,0,.34,0A.65.65,0,0,1,304.76,18Z"/><path class="cls-2" d="M308.52,14.45l-1.46,4.44c-.25.78-.53,1.23-1.29,1.23a1.45,1.45,0,0,1-.49-.07.71.71,0,0,1,0-.27.63.63,0,0,1,.07-.29,1.71,1.71,0,0,0,.33,0c.36,0,.54-.12.75-.76l.17-.49a.59.59,0,0,1-.23-.05l-1.41-3.78a1.56,1.56,0,0,1,.39,0,1.42,1.42,0,0,1,.38,0l.85,2.25a5.71,5.71,0,0,1,.26.87h0a7.7,7.7,0,0,1,.24-.87l.75-2.25a1.17,1.17,0,0,1,.36,0A1.44,1.44,0,0,1,308.52,14.45Z"/><path class="cls-2" d="M312.17,18.23a1.71,1.71,0,0,1-.82,0l-1.09-1.69h-.47v1.7a1.26,1.26,0,0,1-.36,0,1.48,1.48,0,0,1-.37,0V12.8a2,2,0,0,1,.37,0,1.89,1.89,0,0,1,.36,0V16h.48l1-1.53a1.42,1.42,0,0,1,.38,0,1.58,1.58,0,0,1,.37,0l-1.11,1.76Z"/><path class="cls-2" d="M312.35,16.34c0-1.46.63-2,1.65-2s1.64.55,1.64,2-.63,2-1.64,2S312.35,17.8,312.35,16.34Zm2.53,0c0-1.12-.34-1.44-.88-1.44s-.89.32-.89,1.44.34,1.45.89,1.45S314.88,17.47,314.88,16.34Z"/><path class="cls-2" d="M318.45,18a.76.76,0,0,1,0,.26,2,2,0,0,1-.56.07c-.92,0-1.25-.48-1.25-1.42V15H316a.87.87,0,0,1,0-.27.69.69,0,0,1,0-.28h.56V13.7a1.27,1.27,0,0,1,.74-.14v.85h1a.72.72,0,0,1,0,.27.9.9,0,0,1,0,.28h-1v1.95c0,.64.2.86.71.86a2.24,2.24,0,0,0,.34,0A.65.65,0,0,1,318.45,18Z"/><path class="cls-2" d="M321.79,16.57h-2.21c.06.87.39,1.16,1,1.16a1.7,1.7,0,0,0,.86-.22.71.71,0,0,1,.24.52,2.09,2.09,0,0,1-1.23.33c-1.11,0-1.65-.68-1.65-2s.65-2,1.62-2a1.31,1.31,0,0,1,1.43,1.47A3.39,3.39,0,0,1,321.79,16.57Zm-2.22-.5h1.6a3.49,3.49,0,0,0,0-.35c0-.45-.2-.82-.74-.82S319.63,15.23,319.57,16.07Z"/><path class="cls-2" d="M322.6,18.24V14.45a1.17,1.17,0,0,1,.36,0,1.06,1.06,0,0,1,.35,0V15a1.06,1.06,0,0,1,.95-.64,1.18,1.18,0,0,1,.63.18.84.84,0,0,1-.32.61.74.74,0,0,0-.46-.14,1,1,0,0,0-.79.59v2.66a1.3,1.3,0,0,1-.37,0A1.17,1.17,0,0,1,322.6,18.24Z"/><path class="cls-2" d="M328.09,15.77v2.47a.88.88,0,0,1-.3,0,1,1,0,0,1-.3,0l-.1-.49a1.2,1.2,0,0,1-1.17.61,1.07,1.07,0,0,1-1.13-1.22c0-.79.47-1.15,1.41-1.15.35,0,.67,0,.86,0v-.3a.68.68,0,0,0-.78-.78,3.12,3.12,0,0,0-1,.18.76.76,0,0,1-.16-.22.63.63,0,0,1-.05-.31,3.35,3.35,0,0,1,1.3-.27C327.75,14.33,328.09,14.82,328.09,15.77Zm-.73,1v-.27a6.83,6.83,0,0,0-.75-.05c-.52,0-.77.19-.77.68s.24.67.63.67A.92.92,0,0,0,327.36,16.79Z"/><path class="cls-2" d="M332.19,16.34c0,1.51-.56,2-1.4,2a1.21,1.21,0,0,1-1.08-.51V20a1.26,1.26,0,0,1-.36,0,1.3,1.3,0,0,1-.37,0V14.45a1.3,1.3,0,0,1,.37,0,1.26,1.26,0,0,1,.36,0v.38a1.2,1.2,0,0,1,1.08-.5C331.63,14.33,332.19,14.83,332.19,16.34Zm-.78,0c0-1.08-.28-1.41-.88-1.41a.85.85,0,0,0-.82.92v1a.87.87,0,0,0,.82,1C331.13,17.76,331.41,17.44,331.41,16.34Z"/><path class="cls-2" d="M332.94,13.6v-.66a1.38,1.38,0,0,1,.39,0,1.6,1.6,0,0,1,.4,0v.66a1.3,1.3,0,0,1-.4.05A1.12,1.12,0,0,1,332.94,13.6Zm0,4.64V14.45a1.21,1.21,0,0,1,.37,0,1.38,1.38,0,0,1,.37,0v3.79a1.38,1.38,0,0,1-.37,0A1.3,1.3,0,0,1,333,18.24Z"/><path class="cls-2" d="M334.62,13.6v-.66a1.38,1.38,0,0,1,.39,0,1.6,1.6,0,0,1,.4,0v.66a1.3,1.3,0,0,1-.4.05A1.12,1.12,0,0,1,334.62,13.6Zm0,4.64V14.45a1.21,1.21,0,0,1,.37,0,1.38,1.38,0,0,1,.37,0v3.79a1.38,1.38,0,0,1-.37,0A1.3,1.3,0,0,1,334.64,18.24Z"/><path class="cls-2" d="M336.24,19a1.25,1.25,0,0,0,.27-.73,1.11,1.11,0,0,1-.26,0v-.72a1.92,1.92,0,0,1,.78,0V18a1.52,1.52,0,0,1-.51,1.17Z"/><path class="cls-2" d="M127.34,26.82a.67.67,0,0,1-.06.3h-2.75a1,1,0,0,1,0-.32,1,1,0,0,1,0-.28l2-2.68h-1.84a.88.88,0,0,1,0-.31.7.7,0,0,1,0-.29h2.62a1,1,0,0,1,0,.28,1.47,1.47,0,0,1,0,.32l-2,2.68h2A.62.62,0,0,1,127.34,26.82Z"/><path class="cls-2" d="M131.1,24.61v2.46a.79.79,0,0,1-.3.05.81.81,0,0,1-.31-.05l-.1-.49a1.16,1.16,0,0,1-1.16.61A1.07,1.07,0,0,1,128.09,26c0-.8.48-1.16,1.42-1.16a6.14,6.14,0,0,1,.85.05v-.31a.68.68,0,0,0-.78-.78,3,3,0,0,0-1,.18.49.49,0,0,1-.17-.22.77.77,0,0,1-.05-.31,3.46,3.46,0,0,1,1.3-.26C130.76,23.17,131.1,23.65,131.1,24.61Zm-.74,1v-.27c-.17,0-.47,0-.75,0-.51,0-.77.19-.77.67s.24.67.64.67A.91.91,0,0,0,130.36,25.62Z"/><path class="cls-2" d="M135.47,25.17c0,1.51-.55,2-1.4,2a1.16,1.16,0,0,1-1.07-.51v2.11a1.39,1.39,0,0,1-.74,0V23.28a1.73,1.73,0,0,1,.74,0v.39a1.15,1.15,0,0,1,1.07-.5C134.91,23.17,135.47,23.67,135.47,25.17Zm-.77,0c0-1.08-.28-1.41-.89-1.41a.85.85,0,0,0-.81.93v.95a.87.87,0,0,0,.81.95C134.42,26.59,134.7,26.27,134.7,25.17Z"/><path class="cls-2" d="M139.33,25.4h-2.22c.06.88.4,1.16,1,1.16a1.7,1.7,0,0,0,.86-.22.82.82,0,0,1,.24.53,2.15,2.15,0,0,1-1.24.32c-1.1,0-1.64-.68-1.64-2s.64-2,1.62-2a1.3,1.3,0,0,1,1.43,1.46A3.39,3.39,0,0,1,139.33,25.4Zm-2.22-.5h1.59a1.78,1.78,0,0,0,0-.35c0-.45-.19-.82-.73-.82S137.17,24.06,137.11,24.9Z"/><path class="cls-2" d="M141.15,27.07,140,23.28a1.38,1.38,0,0,1,.37,0,.82.82,0,0,1,.32,0l.69,2.28a4.06,4.06,0,0,1,.15.81h0a4.5,4.5,0,0,1,.17-.81l.67-2.28a2,2,0,0,1,.39,0,1.3,1.3,0,0,1,.37,0l.66,2.27a5.58,5.58,0,0,1,.16.82h0a5.92,5.92,0,0,1,.17-.81l.69-2.28a1.14,1.14,0,0,1,.33,0,1,1,0,0,1,.32,0l-1.11,3.79a2.19,2.19,0,0,1-.42.05,2.42,2.42,0,0,1-.41-.05l-.59-2a4.89,4.89,0,0,1-.2-1.11h0a4.87,4.87,0,0,1-.23,1.11l-.58,2a2.3,2.3,0,0,1-.42.05A2.42,2.42,0,0,1,141.15,27.07Z"/><path class="cls-2" d="M146.4,27.07V23.28a1.3,1.3,0,0,1,.37,0,1.26,1.26,0,0,1,.36,0v.39a1.47,1.47,0,0,1,1.14-.5,1,1,0,0,1,1.14,1.1v2.8a1.2,1.2,0,0,1-.37.05,1.05,1.05,0,0,1-.37-.05V24.42a.59.59,0,0,0-.68-.66,1,1,0,0,0-.86.51v2.8a1,1,0,0,1-.36.05A1.05,1.05,0,0,1,146.4,27.07Z"/><path class="cls-2" d="M150.56,22.44v-.66a1.19,1.19,0,0,1,.39-.05,1.3,1.3,0,0,1,.4.05v.66a1.6,1.6,0,0,1-.4,0A1.47,1.47,0,0,1,150.56,22.44Zm0,4.63V23.28a1.17,1.17,0,0,1,.36,0,1.3,1.3,0,0,1,.37,0v3.79a1.05,1.05,0,0,1-.37.05A1,1,0,0,1,150.59,27.07Z"/><path class="cls-2" d="M155.31,24.61v2.46a.73.73,0,0,1-.3.05.79.79,0,0,1-.3-.05l-.11-.49a1.16,1.16,0,0,1-1.16.61A1.07,1.07,0,0,1,152.3,26c0-.8.48-1.16,1.42-1.16a6.3,6.3,0,0,1,.86.05v-.31a.68.68,0,0,0-.78-.78,3,3,0,0,0-1,.18.51.51,0,0,1-.16-.22.61.61,0,0,1-.05-.31,3.39,3.39,0,0,1,1.3-.26C155,23.17,155.31,23.65,155.31,24.61Zm-.73,1v-.27c-.17,0-.48,0-.75,0-.52,0-.78.19-.78.67s.25.67.64.67A.92.92,0,0,0,154.58,25.62Z"/><path class="cls-2" d="M160.87,26.82a.79.79,0,0,1-.05.3h-2.75a1,1,0,0,1,0-.32.7.7,0,0,1,0-.28l2-2.68h-1.84a1.07,1.07,0,0,1,0-.31.85.85,0,0,1,0-.29h2.62a1,1,0,0,1,0,.28,1.47,1.47,0,0,1,0,.32l-2,2.68h2A.73.73,0,0,1,160.87,26.82Z"/><path class="cls-2" d="M164.63,24.61v2.46a.73.73,0,0,1-.3.05.79.79,0,0,1-.3-.05l-.11-.49a1.16,1.16,0,0,1-1.16.61A1.07,1.07,0,0,1,161.62,26c0-.8.48-1.16,1.42-1.16a6,6,0,0,1,.85.05v-.31c0-.52-.22-.78-.77-.78a3,3,0,0,0-1,.18.51.51,0,0,1-.16-.22.61.61,0,0,1-.05-.31,3.39,3.39,0,0,1,1.3-.26C164.29,23.17,164.63,23.65,164.63,24.61Zm-.74,1v-.27c-.16,0-.47,0-.75,0-.51,0-.77.19-.77.67s.24.67.64.67A.91.91,0,0,0,163.89,25.62Z"/><path class="cls-2" d="M168.84,21.64v5.43a.88.88,0,0,1-.31.05,1.11,1.11,0,0,1-.34-.05l-.05-.42a1.21,1.21,0,0,1-1.1.54c-.85,0-1.4-.51-1.4-2s.55-2,1.4-2a1.2,1.2,0,0,1,1.07.5v-2a1.3,1.3,0,0,1,.37,0A1.26,1.26,0,0,1,168.84,21.64Zm-.73,4v-1a.86.86,0,0,0-.81-.92c-.61,0-.89.34-.89,1.42s.28,1.41.89,1.41A.85.85,0,0,0,168.11,25.66Z"/><path class="cls-2" d="M169.88,25.17c0-1.45.63-2,1.65-2s1.64.55,1.64,2-.63,2-1.64,2S169.88,26.64,169.88,25.17Zm2.53,0c0-1.12-.34-1.44-.88-1.44s-.88.32-.88,1.44.34,1.45.88,1.45S172.41,26.3,172.41,25.17Z"/><path class="cls-2" d="M174.9,27.07l-1.11-3.79a1.38,1.38,0,0,1,.37,0,.82.82,0,0,1,.32,0l.69,2.28a4.27,4.27,0,0,1,.16.81h0a5.63,5.63,0,0,1,.17-.81l.68-2.28a1.89,1.89,0,0,1,.39,0,1.26,1.26,0,0,1,.36,0l.67,2.27a4.26,4.26,0,0,1,.15.82h0a6.37,6.37,0,0,1,.18-.81l.68-2.28a1.14,1.14,0,0,1,.33,0,1.06,1.06,0,0,1,.33,0l-1.11,3.79a2.42,2.42,0,0,1-.42.05,2.18,2.18,0,0,1-.41-.05l-.59-2a4.53,4.53,0,0,1-.21-1.11h0a5.29,5.29,0,0,1-.22,1.11l-.59,2a2.3,2.3,0,0,1-.41.05A2.55,2.55,0,0,1,174.9,27.07Z"/><path class="cls-2" d="M182.87,24.61v2.46a.73.73,0,0,1-.3.05.79.79,0,0,1-.3-.05l-.1-.49a1.19,1.19,0,0,1-1.17.61A1.07,1.07,0,0,1,179.87,26c0-.8.47-1.16,1.41-1.16a6.19,6.19,0,0,1,.86.05v-.31a.68.68,0,0,0-.78-.78,3.12,3.12,0,0,0-1,.18.63.63,0,0,1-.21-.53,3.46,3.46,0,0,1,1.3-.26C182.54,23.17,182.87,23.65,182.87,24.61Zm-.73,1v-.27c-.17,0-.47,0-.75,0-.52,0-.77.19-.77.67s.24.67.63.67A.92.92,0,0,0,182.14,25.62Z"/><path class="cls-2" d="M184.08,27.07V21.64a1.17,1.17,0,0,1,.36,0,1.3,1.3,0,0,1,.37,0v5.43a1.05,1.05,0,0,1-.37.05A1,1,0,0,1,184.08,27.07Z"/><path class="cls-2" d="M188.81,24.61v2.46a.81.81,0,0,1-.31.05.79.79,0,0,1-.3-.05l-.1-.49a1.17,1.17,0,0,1-1.16.61A1.07,1.07,0,0,1,185.8,26c0-.8.48-1.16,1.42-1.16a6.14,6.14,0,0,1,.85.05v-.31a.68.68,0,0,0-.78-.78,3,3,0,0,0-1,.18.49.49,0,0,1-.17-.22.77.77,0,0,1,0-.31,3.46,3.46,0,0,1,1.3-.26C188.47,23.17,188.81,23.65,188.81,24.61Zm-.74,1v-.27c-.17,0-.47,0-.75,0-.51,0-.77.19-.77.67s.24.67.64.67A.92.92,0,0,0,188.07,25.62Z"/><path class="cls-2" d="M189.11,28.87a.45.45,0,0,1,0-.16.77.77,0,0,1,.08-.38,1.4,1.4,0,0,0,.28,0c.36,0,.55-.18.55-.63V23.28a1.21,1.21,0,0,1,.37,0,1.38,1.38,0,0,1,.37,0v4.48c0,.79-.38,1.2-1.09,1.2A1.34,1.34,0,0,1,189.11,28.87Zm.85-6.43v-.67a1.6,1.6,0,0,1,.4,0,1.42,1.42,0,0,1,.38,0v.67a1.42,1.42,0,0,1-.38,0A1.6,1.6,0,0,1,190,22.44Z"/><path class="cls-2" d="M194.73,28.78a1.26,1.26,0,0,1-.67.18c-.45,0-.72-.23-.72-.65a1.84,1.84,0,0,1,.78-1.25l-.12-.47a1.16,1.16,0,0,1-1.15.6A1.07,1.07,0,0,1,191.71,26c0-.8.48-1.16,1.42-1.16a6,6,0,0,1,.85.05v-.31a.68.68,0,0,0-.78-.78,3,3,0,0,0-1,.18.51.51,0,0,1-.16-.22.68.68,0,0,1-.06-.31,3.48,3.48,0,0,1,1.31-.26c1.07,0,1.41.48,1.41,1.44v2.46a1.74,1.74,0,0,0-.71,1.09.24.24,0,0,0,.24.27.7.7,0,0,0,.29-.08A.61.61,0,0,1,194.73,28.78ZM194,25.62v-.27c-.16,0-.46,0-.75,0-.51,0-.77.19-.77.67s.24.67.64.67A.91.91,0,0,0,194,25.62Z"/><path class="cls-2" d="M195.72,25.18c0-1.32.56-2,1.64-2a2,2,0,0,1,1,.19.77.77,0,0,1-.22.53,1.52,1.52,0,0,0-.63-.12c-.71,0-1,.45-1,1.41s.31,1.38,1,1.38a1.68,1.68,0,0,0,.67-.13.69.69,0,0,1,.22.52,1.92,1.92,0,0,1-1,.24C196.28,27.19,195.72,26.51,195.72,25.18Z"/><path class="cls-2" d="M202,25.4h-2.22c.06.88.4,1.16,1,1.16a1.72,1.72,0,0,0,.87-.22.82.82,0,0,1,.24.53,2.15,2.15,0,0,1-1.24.32c-1.1,0-1.65-.68-1.65-2s.65-2,1.63-2a1.3,1.3,0,0,1,1.43,1.46A3.39,3.39,0,0,1,202,25.4Zm-2.23-.5h1.6a1.78,1.78,0,0,0,0-.35c0-.45-.2-.82-.73-.82S199.87,24.06,199.81,24.9Z"/><path class="cls-2" d="M208.09,23.75l-.61,0a1.32,1.32,0,0,1,.2.75c0,.82-.5,1.32-1.45,1.32l-.34,0a.74.74,0,0,0-.15.45c.07.68,2.34-.06,2.34,1.46,0,.72-.68,1.27-1.91,1.27s-1.58-.43-1.58-1a1.27,1.27,0,0,1,.65-1,.58.58,0,0,1-.16-.43,1.28,1.28,0,0,1,.37-.82,1.19,1.19,0,0,1-.68-1.17c0-.81.51-1.31,1.46-1.31a1.78,1.78,0,0,1,.83.18l1-.18A1,1,0,0,1,208.09,23.75Zm-2.45,3.36a.92.92,0,0,0-.34.67c0,.39.28.65.89.65.76,0,1.18-.26,1.18-.66C207.37,27.13,206.32,27.3,205.64,27.11ZM207,24.48c0-.56-.3-.81-.74-.81s-.75.25-.75.81.3.82.75.82S207,25,207,24.48Z"/><path class="cls-2" d="M208.76,25.17c0-1.45.63-2,1.65-2s1.64.55,1.64,2-.63,2-1.64,2S208.76,26.64,208.76,25.17Zm2.53,0c0-1.12-.34-1.44-.88-1.44s-.89.32-.89,1.44.34,1.45.89,1.45S211.29,26.3,211.29,25.17Z"/><path class="cls-2" d="M212.22,28.87a.45.45,0,0,1,0-.16.77.77,0,0,1,.08-.38,1.4,1.4,0,0,0,.28,0c.36,0,.55-.18.55-.63V23.28a1.21,1.21,0,0,1,.37,0,1.38,1.38,0,0,1,.37,0v4.48c0,.79-.38,1.2-1.09,1.2A1.34,1.34,0,0,1,212.22,28.87Zm.85-6.43v-.67a1.6,1.6,0,0,1,.4,0,1.42,1.42,0,0,1,.38,0v.67a1.42,1.42,0,0,1-.38,0A1.6,1.6,0,0,1,213.07,22.44Z"/><path class="cls-2" d="M217.86,25.4h-2.21c.06.88.4,1.16,1,1.16a1.7,1.7,0,0,0,.86-.22.78.78,0,0,1,.25.53,2.15,2.15,0,0,1-1.24.32c-1.1,0-1.65-.68-1.65-2s.65-2,1.63-2A1.3,1.3,0,0,1,218,24.63,3,3,0,0,1,217.86,25.4Zm-2.22-.5h1.6a3.16,3.16,0,0,0,0-.35c0-.45-.2-.82-.73-.82S215.7,24.06,215.64,24.9Z"/><path class="cls-2" d="M219,27.07V23.28a1.3,1.3,0,0,1,.37,0,1.26,1.26,0,0,1,.36,0v.39a1.47,1.47,0,0,1,1.14-.5,1,1,0,0,1,1.14,1.1v2.8a1.2,1.2,0,0,1-.37.05,1.05,1.05,0,0,1-.37-.05V24.42a.59.59,0,0,0-.68-.66,1,1,0,0,0-.86.51v2.8a1,1,0,0,1-.36.05A1.05,1.05,0,0,1,219,27.07Z"/><path class="cls-2" d="M223.12,22.44v-.66a1.09,1.09,0,0,1,.38-.05,1.3,1.3,0,0,1,.4.05v.66a1.6,1.6,0,0,1-.4,0A1.34,1.34,0,0,1,223.12,22.44Zm0,4.63V23.28a1.17,1.17,0,0,1,.36,0,1.3,1.3,0,0,1,.37,0v3.79a1.05,1.05,0,0,1-.37.05A1,1,0,0,1,223.14,27.07Z"/><path class="cls-2" d="M227.9,25.4h-2.22c.06.88.4,1.16,1,1.16a1.7,1.7,0,0,0,.86-.22.82.82,0,0,1,.24.53,2.15,2.15,0,0,1-1.24.32c-1.1,0-1.64-.68-1.64-2s.64-2,1.62-2A1.3,1.3,0,0,1,228,24.63,3.39,3.39,0,0,1,227.9,25.4Zm-2.22-.5h1.59a1.69,1.69,0,0,0,0-.35c0-.45-.2-.82-.74-.82S225.74,24.06,225.68,24.9Z"/><path class="cls-2" d="M230.77,27.07V23.28a1.3,1.3,0,0,1,.37,0,1.06,1.06,0,0,1,.35,0v.53a1.1,1.1,0,0,1,.95-.64,1.07,1.07,0,0,1,.63.19.86.86,0,0,1-.32.61.74.74,0,0,0-.45-.15,1,1,0,0,0-.79.6v2.65a1.13,1.13,0,0,1-.37.05A1.05,1.05,0,0,1,230.77,27.07Z"/><path class="cls-2" d="M236.56,24.61v2.46a.81.81,0,0,1-.31.05.79.79,0,0,1-.3-.05l-.1-.49a1.17,1.17,0,0,1-1.16.61A1.07,1.07,0,0,1,233.55,26c0-.8.48-1.16,1.42-1.16a6.14,6.14,0,0,1,.85.05v-.31a.68.68,0,0,0-.78-.78,3.12,3.12,0,0,0-1,.18.62.62,0,0,1-.16-.22.77.77,0,0,1,0-.31,3.46,3.46,0,0,1,1.3-.26C236.22,23.17,236.56,23.65,236.56,24.61Zm-.74,1v-.27c-.17,0-.47,0-.75,0-.52,0-.77.19-.77.67s.24.67.64.67A.92.92,0,0,0,235.82,25.62Z"/><path class="cls-2" d="M237.72,27.07V23.28a1.3,1.3,0,0,1,.37,0,1.38,1.38,0,0,1,.37,0v.39a1.47,1.47,0,0,1,1.14-.5,1,1,0,0,1,1.13,1.1v2.8a1.13,1.13,0,0,1-.37.05,1.05,1.05,0,0,1-.37-.05V24.42a.59.59,0,0,0-.68-.66,1,1,0,0,0-.85.51v2.8a1.13,1.13,0,0,1-.37.05A1.05,1.05,0,0,1,237.72,27.07Z"/><path class="cls-2" d="M245.08,23.28l-1.46,4.45c-.25.78-.53,1.23-1.29,1.23a1.75,1.75,0,0,1-.49-.07.73.73,0,0,1-.05-.28.63.63,0,0,1,.07-.29,1.25,1.25,0,0,0,.34,0c.35,0,.53-.12.75-.76l.16-.48a.6.6,0,0,1-.23-.06l-1.4-3.78a1.42,1.42,0,0,1,.38,0,1.34,1.34,0,0,1,.38,0l.85,2.26a5.81,5.81,0,0,1,.26.86h0s.08-.36.24-.86l.75-2.26a1.26,1.26,0,0,1,.36,0A1.34,1.34,0,0,1,245.08,23.28Z"/><path class="cls-2" d="M247.12,22.44v-.66a1.09,1.09,0,0,1,.38-.05,1.3,1.3,0,0,1,.4.05v.66a1.6,1.6,0,0,1-.4,0A1.34,1.34,0,0,1,247.12,22.44Zm0,4.63V23.28a1.17,1.17,0,0,1,.36,0,1.3,1.3,0,0,1,.37,0v3.79a1.05,1.05,0,0,1-.37.05A1,1,0,0,1,247.14,27.07Z"/><path class="cls-2" d="M250,28.87a.45.45,0,0,1,0-.16.77.77,0,0,1,.08-.38,1.28,1.28,0,0,0,.28,0c.36,0,.55-.18.55-.63V23.28a1.21,1.21,0,0,1,.37,0,1.34,1.34,0,0,1,.36,0v4.48c0,.79-.38,1.2-1.08,1.2A1.28,1.28,0,0,1,250,28.87Zm.85-6.43v-.67a1.51,1.51,0,0,1,.4,0,1.42,1.42,0,0,1,.38,0v.67a1.42,1.42,0,0,1-.38,0A1.51,1.51,0,0,1,250.87,22.44Z"/><path class="cls-2" d="M255.66,25.4h-2.21c.05.88.39,1.16,1,1.16a1.7,1.7,0,0,0,.86-.22.82.82,0,0,1,.24.53,2.13,2.13,0,0,1-1.23.32c-1.11,0-1.65-.68-1.65-2s.65-2,1.62-2a1.3,1.3,0,0,1,1.43,1.46A3.39,3.39,0,0,1,255.66,25.4Zm-2.22-.5H255a3.16,3.16,0,0,0,0-.35c0-.45-.2-.82-.74-.82S253.5,24.06,253.44,24.9Z"/><path class="cls-2" d="M259.79,21.64v5.43a.9.9,0,0,1-.32.05,1,1,0,0,1-.33-.05l-.05-.42a1.21,1.21,0,0,1-1.1.54c-.85,0-1.4-.51-1.4-2s.54-2,1.4-2a1.17,1.17,0,0,1,1.06.5v-2a1.42,1.42,0,0,1,.38,0A1.26,1.26,0,0,1,259.79,21.64Zm-.74,4v-1a.84.84,0,0,0-.8-.92c-.61,0-.89.34-.89,1.42s.28,1.41.89,1.41A.84.84,0,0,0,259.05,25.66Z"/><path class="cls-2" d="M261,27.07V23.28a1.3,1.3,0,0,1,.37,0,1.38,1.38,0,0,1,.37,0v.39a1.47,1.47,0,0,1,1.14-.5,1,1,0,0,1,1.13,1.1v2.8a1.13,1.13,0,0,1-.37.05,1.05,1.05,0,0,1-.37-.05V24.42a.59.59,0,0,0-.68-.66,1,1,0,0,0-.85.51v2.8a1.13,1.13,0,0,1-.37.05A1.05,1.05,0,0,1,261,27.07Z"/><path class="cls-2" d="M265,25.17c0-1.45.64-2,1.65-2s1.64.55,1.64,2-.62,2-1.64,2S265,26.64,265,25.17Zm2.54,0c0-1.12-.34-1.44-.89-1.44s-.88.32-.88,1.44.34,1.45.88,1.45S267.54,26.3,267.54,25.17Z"/><path class="cls-2" d="M269.16,25.18c0-1.32.56-2,1.64-2a2,2,0,0,1,1,.19.73.73,0,0,1-.22.53,1.52,1.52,0,0,0-.63-.12c-.71,0-1,.45-1,1.41s.32,1.38,1,1.38a1.76,1.76,0,0,0,.68-.13.78.78,0,0,1,.22.52,2,2,0,0,1-1.06.24C269.72,27.19,269.16,26.51,269.16,25.18Z"/><path class="cls-2" d="M275.35,26.82a.79.79,0,0,1-.05.3h-2.75a1,1,0,0,1,0-.32,1,1,0,0,1,0-.28l2-2.68h-1.83a.88.88,0,0,1-.05-.31.7.7,0,0,1,.05-.29h2.61a.7.7,0,0,1,0,.28,1,1,0,0,1,0,.32l-2,2.68h2A.73.73,0,0,1,275.35,26.82Z"/><path class="cls-2" d="M279.12,25.4H276.9c.06.88.4,1.16,1,1.16a1.66,1.66,0,0,0,.86-.22.78.78,0,0,1,.25.53,2.15,2.15,0,0,1-1.24.32c-1.1,0-1.65-.68-1.65-2s.65-2,1.63-2a1.3,1.3,0,0,1,1.43,1.46A3.39,3.39,0,0,1,279.12,25.4Zm-2.23-.5h1.6a3.16,3.16,0,0,0,0-.35c0-.45-.2-.82-.73-.82S277,24.06,276.89,24.9Z"/><path class="cls-2" d="M280,26.92a.66.66,0,0,1,.19-.52,3.1,3.1,0,0,0,1,.18c.49,0,.77-.17.77-.54s-.43-.5-.87-.63-1-.38-1-1.09.44-1.15,1.38-1.15a2.32,2.32,0,0,1,1.06.2.68.68,0,0,1-.19.51,2.59,2.59,0,0,0-.79-.13c-.52,0-.77.2-.77.54s.46.46.92.61,1,.38,1,1.11-.46,1.18-1.43,1.18A2.93,2.93,0,0,1,280,26.92Zm.77-4.41.73-1.06a.69.69,0,0,1,.64.27l-.95,1A.57.57,0,0,1,280.76,22.51Z"/><path class="cls-2" d="M283.65,27.07V23.28a1.17,1.17,0,0,1,.36,0,1.3,1.3,0,0,1,.37,0v.39a1.47,1.47,0,0,1,1.14-.5,1,1,0,0,1,1.13,1.1v2.8a1.09,1.09,0,0,1-.36.05,1.05,1.05,0,0,1-.37-.05V24.42c0-.43-.22-.66-.69-.66a1,1,0,0,0-.85.51v2.8a1.05,1.05,0,0,1-.37.05A1,1,0,0,1,283.65,27.07Z"/><path class="cls-2" d="M287.81,22.44v-.66a1.19,1.19,0,0,1,.39-.05,1.3,1.3,0,0,1,.4.05v.66a1.6,1.6,0,0,1-.4,0A1.47,1.47,0,0,1,287.81,22.44Zm0,4.63V23.28a1.21,1.21,0,0,1,.37,0,1.38,1.38,0,0,1,.37,0v3.79a1.13,1.13,0,0,1-.37.05A1.05,1.05,0,0,1,287.83,27.07Z"/><path class="cls-2" d="M292.59,25.4h-2.21c.06.88.4,1.16,1,1.16a1.7,1.7,0,0,0,.86-.22.78.78,0,0,1,.25.53,2.15,2.15,0,0,1-1.24.32c-1.1,0-1.65-.68-1.65-2s.65-2,1.63-2a1.3,1.3,0,0,1,1.43,1.46A3,3,0,0,1,292.59,25.4Zm-2.22-.5H292a3.16,3.16,0,0,0,0-.35c0-.45-.2-.82-.73-.82S290.43,24.06,290.37,24.9Z"/><path class="cls-2" d="M298.06,26.82a.79.79,0,0,1-.05.3h-2.75a1,1,0,0,1,0-.32,1,1,0,0,1,0-.28l2-2.68h-1.84a.88.88,0,0,1-.05-.31.7.7,0,0,1,.05-.29H298a.7.7,0,0,1,.05.28,1,1,0,0,1-.05.32l-2,2.68h2A.73.73,0,0,1,298.06,26.82Z"/><path class="cls-2" d="M302.07,21.64v5.43a1,1,0,0,1-.32.05,1,1,0,0,1-.33-.05l-.05-.42a1.21,1.21,0,0,1-1.1.54c-.85,0-1.4-.51-1.4-2s.54-2,1.4-2a1.17,1.17,0,0,1,1.06.5v-2a1.42,1.42,0,0,1,.38,0A1.26,1.26,0,0,1,302.07,21.64Zm-.74,4v-1a.85.85,0,0,0-.81-.92c-.6,0-.88.34-.88,1.42s.28,1.41.88,1.41A.84.84,0,0,0,301.33,25.66Z"/><path class="cls-2" d="M303.26,27.07V23.28a1.3,1.3,0,0,1,.37,0,1.06,1.06,0,0,1,.35,0v.53a1.08,1.08,0,0,1,.94-.64,1.13,1.13,0,0,1,.64.19.91.91,0,0,1-.33.61.74.74,0,0,0-.45-.15,1,1,0,0,0-.79.6v2.65a1.39,1.39,0,0,1-.74,0Z"/><path class="cls-2" d="M306.07,25.17c0-1.45.63-2,1.65-2s1.64.55,1.64,2-.63,2-1.64,2S306.07,26.64,306.07,25.17Zm2.53,0c0-1.12-.34-1.44-.88-1.44s-.89.32-.89,1.44.34,1.45.89,1.45S308.6,26.3,308.6,25.17Z"/><path class="cls-2" d="M311.1,27.07,310,23.28a1.34,1.34,0,0,1,.36,0,.85.85,0,0,1,.33,0l.69,2.28a4.06,4.06,0,0,1,.15.81h0a5.28,5.28,0,0,1,.16-.81l.68-2.28a2,2,0,0,1,.39,0,1.38,1.38,0,0,1,.37,0l.66,2.27a4.26,4.26,0,0,1,.15.82h0a5.92,5.92,0,0,1,.17-.81l.69-2.28a1.06,1.06,0,0,1,.33,0,1,1,0,0,1,.32,0l-1.11,3.79a1.75,1.75,0,0,1-.83,0l-.59-2a4.37,4.37,0,0,1-.2-1.11h0a4.69,4.69,0,0,1-.22,1.11l-.59,2a2.18,2.18,0,0,1-.41.05A2.3,2.3,0,0,1,311.1,27.07Z"/><path class="cls-2" d="M316.34,22.44v-.66a1.12,1.12,0,0,1,.39-.05,1.3,1.3,0,0,1,.4.05v.66a1.6,1.6,0,0,1-.4,0A1.38,1.38,0,0,1,316.34,22.44Zm0,4.63V23.28a1.21,1.21,0,0,1,.37,0,1.38,1.38,0,0,1,.37,0v3.79a1.13,1.13,0,0,1-.37.05A1.05,1.05,0,0,1,316.36,27.07Z"/><path class="cls-2" d="M321.12,25.4h-2.21c.06.88.39,1.16,1,1.16a1.7,1.7,0,0,0,.86-.22.74.74,0,0,1,.24.53,2.13,2.13,0,0,1-1.23.32c-1.11,0-1.65-.68-1.65-2s.65-2,1.63-2a1.29,1.29,0,0,1,1.42,1.46A3.39,3.39,0,0,1,321.12,25.4Zm-2.22-.5h1.6a3.16,3.16,0,0,0,0-.35c0-.45-.2-.82-.74-.82S319,24.06,318.9,24.9Z"/><path class="cls-2" d="M123.88,37.71a.47.47,0,0,1,0-.17.71.71,0,0,1,.08-.37,1.89,1.89,0,0,0,.28,0c.36,0,.55-.18.55-.63V32.12a1.21,1.21,0,0,1,.37,0,1.48,1.48,0,0,1,.37,0V36.6c0,.79-.39,1.19-1.09,1.19A1.42,1.42,0,0,1,123.88,37.71Zm.85-6.44V30.6a1.51,1.51,0,0,1,.4,0,1.42,1.42,0,0,1,.38,0v.67a1.16,1.16,0,0,1-.38.05A1.23,1.23,0,0,1,124.73,31.27Z"/><path class="cls-2" d="M129.48,33.44v2.47a.88.88,0,0,1-.3,0,1,1,0,0,1-.3,0l-.1-.5a1.18,1.18,0,0,1-1.16.61,1.07,1.07,0,0,1-1.14-1.21c0-.79.47-1.15,1.42-1.15.34,0,.66,0,.85,0v-.3a.68.68,0,0,0-.78-.78,3.12,3.12,0,0,0-1,.18.76.76,0,0,1-.16-.22.81.81,0,0,1,0-.31,3.35,3.35,0,0,1,1.3-.27C129.15,32,129.48,32.49,129.48,33.44Zm-.73,1v-.27a6.83,6.83,0,0,0-.75,0c-.52,0-.77.19-.77.68s.24.67.64.67A.92.92,0,0,0,128.75,34.46Z"/><path class="cls-2" d="M130.65,35.91V32.12a1.3,1.3,0,0,1,.37,0,1.38,1.38,0,0,1,.37,0v.37a1.38,1.38,0,0,1,1.08-.49,1,1,0,0,1,1,.58,1.45,1.45,0,0,1,1.21-.58,1,1,0,0,1,1.08,1.11v2.8a1.34,1.34,0,0,1-.36,0,1.3,1.3,0,0,1-.37,0V33.25c0-.43-.2-.65-.63-.65a.89.89,0,0,0-.8.51v2.8a1.48,1.48,0,0,1-.37,0,1.3,1.3,0,0,1-.37,0V33.25c0-.43-.2-.65-.63-.65a1,1,0,0,0-.8.5v2.81a1.48,1.48,0,0,1-.37,0A1.3,1.3,0,0,1,130.65,35.91Z"/><path class="cls-2" d="M140.09,32.12l-1.46,4.44c-.25.78-.53,1.23-1.3,1.23a1.43,1.43,0,0,1-.48-.07.73.73,0,0,1,0-.28.69.69,0,0,1,.06-.28,2.22,2.22,0,0,0,.34,0c.35,0,.54-.11.75-.75l.16-.49a.54.54,0,0,1-.22-.05l-1.41-3.78a1.42,1.42,0,0,1,.38,0,1.47,1.47,0,0,1,.39,0l.85,2.25a7.59,7.59,0,0,1,.26.87h0a8.9,8.9,0,0,1,.23-.87l.75-2.25a1.26,1.26,0,0,1,.36,0A1.48,1.48,0,0,1,140.09,32.12Z"/><path class="cls-2" d="M145.54,32.12v3.79a1.3,1.3,0,0,1-.37,0,1.38,1.38,0,0,1-.37,0v-.39a1.42,1.42,0,0,1-1.14.5,1,1,0,0,1-1.13-1.1v-2.8a1.38,1.38,0,0,1,.37,0,1.3,1.3,0,0,1,.37,0v2.66a.6.6,0,0,0,.68.66,1,1,0,0,0,.85-.52v-2.8a1.38,1.38,0,0,1,.37,0A1.3,1.3,0,0,1,145.54,32.12Z"/><path class="cls-2" d="M146.51,35.76a.66.66,0,0,1,.19-.52,3.15,3.15,0,0,0,1,.17c.48,0,.76-.16.76-.54s-.42-.49-.87-.62-1-.38-1-1.09S147,32,148,32a2.46,2.46,0,0,1,1.06.2.66.66,0,0,1-.18.51,3.15,3.15,0,0,0-.8-.12c-.51,0-.76.19-.76.54s.45.45.91.6,1,.38,1,1.12S148.74,36,147.77,36A3,3,0,0,1,146.51,35.76Z"/><path class="cls-2" d="M152.26,35.7a.76.76,0,0,1,0,.26,2.1,2.1,0,0,1-.57.06c-.91,0-1.24-.47-1.24-1.41v-2h-.56a.9.9,0,0,1,0-.28.66.66,0,0,1,0-.27h.56v-.71a1.25,1.25,0,0,1,.74-.14v.85h1a.72.72,0,0,1,0,.27.9.9,0,0,1,0,.28h-1v1.95c0,.64.19.86.71.86a2.24,2.24,0,0,0,.34,0A.65.65,0,0,1,152.26,35.7Z"/><path class="cls-2" d="M153.07,35.91V32.12a1.17,1.17,0,0,1,.36,0,1.3,1.3,0,0,1,.37,0v.38a1.5,1.5,0,0,1,1.14-.5,1,1,0,0,1,1.14,1.1v2.81a1.48,1.48,0,0,1-.37,0,1.3,1.3,0,0,1-.37,0V33.25a.59.59,0,0,0-.68-.65,1.05,1.05,0,0,0-.86.5v2.81a1.3,1.3,0,0,1-.37,0A1.17,1.17,0,0,1,153.07,35.91Z"/><path class="cls-2" d="M160.06,34.24h-2.22c.06.87.4,1.16,1,1.16a1.7,1.7,0,0,0,.86-.22.8.8,0,0,1,.24.52,2.15,2.15,0,0,1-1.24.32c-1.1,0-1.64-.67-1.64-2s.64-2,1.62-2a1.31,1.31,0,0,1,1.43,1.46A3.43,3.43,0,0,1,160.06,34.24Zm-2.22-.5h1.59a1.86,1.86,0,0,0,0-.36c0-.44-.2-.81-.74-.81S157.9,32.9,157.84,33.74Z"/><path class="cls-2" d="M160.28,37.71a.47.47,0,0,1,0-.17.71.71,0,0,1,.08-.37,2.07,2.07,0,0,0,.28,0c.36,0,.56-.18.56-.63V32.12a1.17,1.17,0,0,1,.36,0,1.38,1.38,0,0,1,.37,0V36.6c0,.79-.38,1.19-1.09,1.19A1.48,1.48,0,0,1,160.28,37.71Zm.86-6.44V30.6a1.47,1.47,0,0,1,.39,0,1.56,1.56,0,0,1,.39,0v.67a1.27,1.27,0,0,1-.39.05A1.19,1.19,0,0,1,161.14,31.27Z"/><path class="cls-2" d="M162.67,32.13a4.26,4.26,0,0,1,.59-2.11.44.44,0,0,1,.18.05.27.27,0,0,1,.13.12,3.75,3.75,0,0,0-.5,1.94,3.79,3.79,0,0,0,.5,1.94.27.27,0,0,1-.13.12.34.34,0,0,1-.18,0A4.25,4.25,0,0,1,162.67,32.13Z"/><path class="cls-2" d="M165.69,33.12a.49.49,0,0,1,0,.19.53.53,0,0,1,0,.19h-1.75a1.61,1.61,0,0,1,0-.3c0-.66.43-.89.82-1.15s.59-.39.59-.72-.16-.44-.56-.44a1.82,1.82,0,0,0-.63.12.34.34,0,0,1-.12-.31,2,2,0,0,1,.82-.16c.53,0,.94.22.94.78s-.3.72-.81,1c-.26.16-.62.31-.63.67,0,0,0,.07,0,.11Z"/><path class="cls-2" d="M166.26,34.19a.27.27,0,0,1-.13-.12,3.79,3.79,0,0,0,.5-1.94,3.75,3.75,0,0,0-.5-1.94.27.27,0,0,1,.13-.12.44.44,0,0,1,.18-.05,4.05,4.05,0,0,1,0,4.21A.34.34,0,0,1,166.26,34.19Z"/></svg>