<svg id="Warstwa_1" data-name="Warstwa 1" xmlns="http://www.w3.org/2000/svg" viewBox="0 0 242.49 50"><defs><style>.cls-1{fill:none;stroke:#ccd513;stroke-width:2px;}.cls-2{fill:#0056a3;}</style></defs><title>stosowanie_antyseptyki</title><path class="cls-1" d="M18.05,18.7a2.87,2.87,0,1,0-2.86-2.86A2.87,2.87,0,0,0,18.05,18.7Z"/><path class="cls-2" d="M28.62,18.05a1,1,0,0,1,.19-.6,4.43,4.43,0,0,0,1.38.23c.78,0,1.16-.29,1.16-.84s-.45-.71-1-.87c-.76-.25-1.69-.45-1.69-1.55,0-.9.59-1.51,1.8-1.51a4.32,4.32,0,0,1,1.45.22.9.9,0,0,1-.2.57,4.43,4.43,0,0,0-1.14-.15c-.78,0-1.15.3-1.15.83s.62.7,1.31.92,1.38.54,1.38,1.52-.64,1.54-1.89,1.54A4.13,4.13,0,0,1,28.62,18.05Z"/><path class="cls-2" d="M34.84,18a1,1,0,0,1,0,.26,2,2,0,0,1-.57.07c-.91,0-1.24-.48-1.24-1.42V15h-.56a.71.71,0,0,1,0-.27.57.57,0,0,1,0-.28H33V13.7a1.23,1.23,0,0,1,.73-.14v.85h1a.94.94,0,0,1,0,.27,1.17,1.17,0,0,1,0,.28h-1v1.95c0,.64.2.86.72.86a2,2,0,0,0,.33,0A.65.65,0,0,1,34.84,18Z"/><path class="cls-2" d="M35.21,16.34c0-1.46.64-2,1.65-2s1.64.55,1.64,2-.62,2-1.64,2S35.21,17.8,35.21,16.34Zm2.53,0c0-1.12-.34-1.44-.88-1.44s-.88.32-.88,1.44.34,1.45.88,1.45S37.74,17.47,37.74,16.34Z"/><path class="cls-2" d="M39,18.09a.66.66,0,0,1,.19-.52,3.1,3.1,0,0,0,1,.18c.49,0,.77-.17.77-.55s-.43-.49-.87-.62-1-.38-1-1.09.44-1.16,1.38-1.16a2.46,2.46,0,0,1,1.06.2.69.69,0,0,1-.19.52,2.59,2.59,0,0,0-.79-.13c-.52,0-.77.19-.77.54s.46.45.92.6,1,.38,1,1.12-.46,1.18-1.43,1.18A2.93,2.93,0,0,1,39,18.09Z"/><path class="cls-2" d="M42.24,16.34c0-1.46.63-2,1.64-2s1.64.55,1.64,2-.62,2-1.64,2S42.24,17.8,42.24,16.34Zm2.53,0c0-1.12-.34-1.44-.89-1.44s-.88.32-.88,1.44.34,1.45.88,1.45S44.77,17.47,44.77,16.34Z"/><path class="cls-2" d="M47,18.24l-1.11-3.79a1.34,1.34,0,0,1,.36,0,.85.85,0,0,1,.33,0l.69,2.28a4.12,4.12,0,0,1,.15.8h0a7.44,7.44,0,0,1,.17-.8l.68-2.28a2,2,0,0,1,.39,0,1.38,1.38,0,0,1,.37,0l.66,2.27a4.19,4.19,0,0,1,.15.81h0a6.6,6.6,0,0,1,.17-.81l.69-2.27a1.06,1.06,0,0,1,.33,0,1,1,0,0,1,.32,0l-1.11,3.79a2.17,2.17,0,0,1-.83,0l-.59-2a4.44,4.44,0,0,1-.2-1.11h0a4.69,4.69,0,0,1-.22,1.11l-.59,2a2.27,2.27,0,0,1-.41,0A2.39,2.39,0,0,1,47,18.24Z"/><path class="cls-2" d="M54.66,15.77v2.47a.88.88,0,0,1-.3,0,1,1,0,0,1-.3,0L54,17.75a1.18,1.18,0,0,1-1.16.61,1.08,1.08,0,0,1-1.14-1.22c0-.79.48-1.15,1.42-1.15.35,0,.66,0,.85,0v-.3c0-.52-.22-.78-.77-.78a3,3,0,0,0-1,.18.6.6,0,0,1-.16-.22.63.63,0,0,1,0-.31,3.29,3.29,0,0,1,1.3-.27C54.32,14.33,54.66,14.82,54.66,15.77Zm-.74,1v-.27a6.65,6.65,0,0,0-.75-.05c-.51,0-.77.19-.77.68s.24.67.64.67A.91.91,0,0,0,53.92,16.79Z"/><path class="cls-2" d="M55.55,18.24V14.45a1.17,1.17,0,0,1,.36,0,1.3,1.3,0,0,1,.37,0v.38a1.5,1.5,0,0,1,1.14-.5,1,1,0,0,1,1.13,1.11v2.8a1.34,1.34,0,0,1-.36,0,1.3,1.3,0,0,1-.37,0V15.58c0-.42-.22-.65-.69-.65a1,1,0,0,0-.85.51v2.8a1.3,1.3,0,0,1-.37,0A1.17,1.17,0,0,1,55.55,18.24Z"/><path class="cls-2" d="M59.43,13.6v-.66a1.38,1.38,0,0,1,.39,0,1.56,1.56,0,0,1,.39,0v.66a1.27,1.27,0,0,1-.39.05A1.12,1.12,0,0,1,59.43,13.6Zm0,4.64V14.45a1.21,1.21,0,0,1,.37,0,1.26,1.26,0,0,1,.36,0v3.79a1.26,1.26,0,0,1-.36,0A1.3,1.3,0,0,1,59.45,18.24Z"/><path class="cls-2" d="M63.92,16.57H61.71c.06.87.39,1.16,1,1.16a1.7,1.7,0,0,0,.86-.22.71.71,0,0,1,.24.52,2.09,2.09,0,0,1-1.23.33c-1.11,0-1.65-.68-1.65-2s.65-2,1.63-2A1.3,1.3,0,0,1,64,15.8,3.39,3.39,0,0,1,63.92,16.57Zm-2.22-.5h1.6a3.49,3.49,0,0,0,0-.35c0-.45-.2-.82-.74-.82S61.76,15.23,61.7,16.07Z"/><path class="cls-2" d="M69,15.77v2.47a.88.88,0,0,1-.3,0,1,1,0,0,1-.3,0l-.1-.49a1.2,1.2,0,0,1-1.17.61A1.08,1.08,0,0,1,66,17.14c0-.79.48-1.15,1.42-1.15.35,0,.66,0,.86,0v-.3a.68.68,0,0,0-.78-.78,3,3,0,0,0-1,.18.6.6,0,0,1-.16-.22.63.63,0,0,1,0-.31,3.29,3.29,0,0,1,1.3-.27C68.66,14.33,69,14.82,69,15.77Zm-.73,1v-.27a6.83,6.83,0,0,0-.75-.05c-.52,0-.78.19-.78.68s.25.67.64.67A.92.92,0,0,0,68.27,16.79Z"/><path class="cls-2" d="M69.89,18.24V14.45a1.17,1.17,0,0,1,.36,0,1.3,1.3,0,0,1,.37,0v.38a1.5,1.5,0,0,1,1.14-.5,1,1,0,0,1,1.14,1.11v2.8a1.48,1.48,0,0,1-.37,0,1.3,1.3,0,0,1-.37,0V15.58a.59.59,0,0,0-.68-.65,1,1,0,0,0-.86.51v2.8a1.3,1.3,0,0,1-.37,0A1.17,1.17,0,0,1,69.89,18.24Z"/><path class="cls-2" d="M75.87,18a.76.76,0,0,1,0,.26,2,2,0,0,1-.56.07c-.91,0-1.25-.48-1.25-1.42V15h-.56a.87.87,0,0,1,0-.27.69.69,0,0,1,0-.28H74V13.7a1.28,1.28,0,0,1,.74-.14v.85h1a.72.72,0,0,1,0,.27.9.9,0,0,1,0,.28h-1v1.95c0,.64.2.86.71.86a2.24,2.24,0,0,0,.34,0A.65.65,0,0,1,75.87,18Z"/><path class="cls-2" d="M79.63,14.45l-1.46,4.44c-.25.78-.52,1.23-1.29,1.23a1.45,1.45,0,0,1-.49-.07.71.71,0,0,1,0-.27.63.63,0,0,1,.07-.29,1.84,1.84,0,0,0,.34,0c.35,0,.53-.12.75-.76l.16-.49a.59.59,0,0,1-.23-.05L76,14.45a1.42,1.42,0,0,1,.38,0,1.34,1.34,0,0,1,.38,0l.86,2.25a6.32,6.32,0,0,1,.25.87h0s.08-.36.24-.87l.75-2.25a1.26,1.26,0,0,1,.36,0A1.34,1.34,0,0,1,79.63,14.45Z"/><path class="cls-2" d="M79.89,18.09a.66.66,0,0,1,.19-.52,3.16,3.16,0,0,0,1,.18c.49,0,.77-.17.77-.55s-.43-.49-.87-.62-1-.38-1-1.09.45-1.16,1.38-1.16a2.42,2.42,0,0,1,1.06.2.68.68,0,0,1-.18.52,2.59,2.59,0,0,0-.79-.13c-.52,0-.77.19-.77.54s.46.45.91.6,1,.38,1,1.12-.46,1.18-1.43,1.18A2.94,2.94,0,0,1,79.89,18.09Z"/><path class="cls-2" d="M86.07,16.57H83.86c.06.87.4,1.16,1,1.16a1.7,1.7,0,0,0,.86-.22A.71.71,0,0,1,86,18a2.05,2.05,0,0,1-1.23.33c-1.1,0-1.65-.68-1.65-2s.65-2,1.63-2a1.3,1.3,0,0,1,1.42,1.47A3.39,3.39,0,0,1,86.07,16.57Zm-2.22-.5h1.6a3.49,3.49,0,0,0,0-.35c0-.45-.2-.82-.74-.82S83.91,15.23,83.85,16.07Z"/><path class="cls-2" d="M90.09,16.34c0,1.51-.56,2-1.4,2a1.21,1.21,0,0,1-1.08-.51V20a1.26,1.26,0,0,1-.36,0,1.3,1.3,0,0,1-.37,0V14.45a1.3,1.3,0,0,1,.37,0,1.26,1.26,0,0,1,.36,0v.38a1.2,1.2,0,0,1,1.08-.5C89.53,14.33,90.09,14.83,90.09,16.34Zm-.78,0c0-1.08-.28-1.41-.88-1.41a.85.85,0,0,0-.82.92v1a.87.87,0,0,0,.82,1C89,17.76,89.31,17.44,89.31,16.34Z"/><path class="cls-2" d="M92.91,18a1,1,0,0,1,0,.26,2,2,0,0,1-.57.07c-.91,0-1.24-.48-1.24-1.42V15h-.56a.71.71,0,0,1-.05-.27.57.57,0,0,1,.05-.28h.56V13.7a1.23,1.23,0,0,1,.73-.14v.85h1a.94.94,0,0,1,0,.27,1.17,1.17,0,0,1,0,.28h-1v1.95c0,.64.2.86.72.86a2,2,0,0,0,.33,0A.65.65,0,0,1,92.91,18Z"/><path class="cls-2" d="M96.67,14.45l-1.45,4.44c-.25.78-.53,1.23-1.3,1.23a1.39,1.39,0,0,1-.48-.07.74.74,0,0,1,0-.56,2,2,0,0,0,.34,0c.35,0,.54-.12.75-.76l.16-.49a.64.64,0,0,1-.23-.05l-1.4-3.78a1.42,1.42,0,0,1,.38,0,1.47,1.47,0,0,1,.39,0l.85,2.25a7.59,7.59,0,0,1,.26.87h0a8.9,8.9,0,0,1,.23-.87L96,14.45a1.26,1.26,0,0,1,.36,0A1.34,1.34,0,0,1,96.67,14.45Z"/><path class="cls-2" d="M100.33,18.23a1.64,1.64,0,0,1-.42.05,1.38,1.38,0,0,1-.4-.05l-1.1-1.69H98v1.7a1.26,1.26,0,0,1-.36,0,1.52,1.52,0,0,1-.38,0V12.8a2.14,2.14,0,0,1,.38,0,2,2,0,0,1,.36,0V16h.48l1-1.53a1.42,1.42,0,0,1,.38,0,1.58,1.58,0,0,1,.37,0l-1.11,1.76Z"/><path class="cls-2" d="M100.79,13.6v-.66a1.47,1.47,0,0,1,.39,0,1.6,1.6,0,0,1,.4,0v.66a1.3,1.3,0,0,1-.4.05A1.19,1.19,0,0,1,100.79,13.6Zm0,4.64V14.45a1.21,1.21,0,0,1,.37,0,1.38,1.38,0,0,1,.37,0v3.79a1.38,1.38,0,0,1-.37,0A1.3,1.3,0,0,1,100.81,18.24Z"/><path class="cls-2" d="M103.12,20a.47.47,0,0,1,0-.17.71.71,0,0,1,.08-.37,1.4,1.4,0,0,0,.28,0c.36,0,.55-.19.55-.64V14.45a1.21,1.21,0,0,1,.37,0,1.38,1.38,0,0,1,.37,0v4.48c0,.79-.38,1.19-1.09,1.19A1.42,1.42,0,0,1,103.12,20ZM104,13.6v-.66a1.3,1.3,0,0,1,.4,0,1.16,1.16,0,0,1,.38,0v.66a1.16,1.16,0,0,1-.38.05A1.3,1.3,0,0,1,104,13.6Z"/><path class="cls-2" d="M108.48,16.57h-2.22c.06.87.4,1.16,1,1.16a1.66,1.66,0,0,0,.86-.22.76.76,0,0,1,.25.52,2.1,2.1,0,0,1-1.24.33c-1.1,0-1.65-.68-1.65-2s.65-2,1.63-2a1.31,1.31,0,0,1,1.43,1.47A3.39,3.39,0,0,1,108.48,16.57Zm-2.23-.5h1.6a1.89,1.89,0,0,0,0-.35c0-.45-.2-.82-.73-.82S106.31,15.23,106.25,16.07Z"/><path class="cls-2" d="M109.06,18.09a.66.66,0,0,1,.19-.52,3.16,3.16,0,0,0,1,.18c.48,0,.76-.17.76-.55s-.42-.49-.86-.62-1-.38-1-1.09.45-1.16,1.38-1.16a2.46,2.46,0,0,1,1.06.2.68.68,0,0,1-.18.52,2.72,2.72,0,0,0-.8-.13c-.51,0-.76.19-.76.54s.45.45.91.6,1,.38,1,1.12-.45,1.18-1.42,1.18A2.94,2.94,0,0,1,109.06,18.09Z"/><path class="cls-2" d="M114.53,18a.76.76,0,0,1,0,.26,2,2,0,0,1-.57.07c-.91,0-1.24-.48-1.24-1.42V15h-.56a.87.87,0,0,1,0-.27.69.69,0,0,1,0-.28h.56V13.7a1.27,1.27,0,0,1,.74-.14v.85h1a.72.72,0,0,1,0,.27.9.9,0,0,1,0,.28h-1v1.95c0,.64.2.86.71.86a2.24,2.24,0,0,0,.34,0A.65.65,0,0,1,114.53,18Z"/><path class="cls-2" d="M116.56,18.24V14.45a1.3,1.3,0,0,1,.37,0,1.38,1.38,0,0,1,.37,0v.38a1.36,1.36,0,0,1,1.08-.5,1,1,0,0,1,1,.58,1.47,1.47,0,0,1,1.21-.58,1,1,0,0,1,1.09,1.11v2.8a1.48,1.48,0,0,1-.37,0,1.3,1.3,0,0,1-.37,0V15.58c0-.43-.2-.65-.63-.65a.89.89,0,0,0-.8.51v2.8a1.48,1.48,0,0,1-.37,0,1.3,1.3,0,0,1-.37,0V15.58c0-.43-.2-.65-.63-.65a1,1,0,0,0-.8.51v2.8a1.48,1.48,0,0,1-.37,0A1.3,1.3,0,0,1,116.56,18.24Z"/><path class="cls-2" d="M122.36,16.34c0-1.46.64-2,1.65-2s1.64.55,1.64,2-.63,2-1.64,2S122.36,17.8,122.36,16.34Zm2.53,0c0-1.12-.34-1.44-.88-1.44s-.88.32-.88,1.44.34,1.45.88,1.45S124.89,17.47,124.89,16.34Z"/><path class="cls-2" d="M129,18a.76.76,0,0,1-.05.29h-2.75a.93.93,0,0,1,0-.31,1,1,0,0,1,0-.28l2-2.69h-1.84a.85.85,0,0,1-.05-.3.7.7,0,0,1,.05-.29h2.61a.67.67,0,0,1,0,.28.91.91,0,0,1,0,.31l-2,2.69h2A.73.73,0,0,1,129,18Zm-1.37-4.2a1,1,0,0,1-.36,0V13.1a1,1,0,0,1,.36,0,1.13,1.13,0,0,1,.37,0v.64A1.13,1.13,0,0,1,127.59,13.79Z"/><path class="cls-2" d="M129.7,18.24V12.81a1.17,1.17,0,0,1,.36,0,1.3,1.3,0,0,1,.37,0v5.43a1.3,1.3,0,0,1-.37,0A1.17,1.17,0,0,1,129.7,18.24Z"/><path class="cls-2" d="M131.36,13.6v-.66a1.38,1.38,0,0,1,.39,0,1.6,1.6,0,0,1,.4,0v.66a1.3,1.3,0,0,1-.4.05A1.12,1.12,0,0,1,131.36,13.6Zm0,4.64V14.45a1.21,1.21,0,0,1,.37,0,1.38,1.38,0,0,1,.37,0v3.79a1.38,1.38,0,0,1-.37,0A1.3,1.3,0,0,1,131.38,18.24Z"/><path class="cls-2" d="M133.8,18.24l-1.11-3.79a1.38,1.38,0,0,1,.37,0,.82.82,0,0,1,.32,0l.69,2.28a4.36,4.36,0,0,1,.16.8h0a5.56,5.56,0,0,1,.17-.8l.68-2.28a1.89,1.89,0,0,1,.39,0,1.26,1.26,0,0,1,.36,0l.67,2.27a4.19,4.19,0,0,1,.15.81h0a7.23,7.23,0,0,1,.18-.81l.68-2.27a1.14,1.14,0,0,1,.33,0,1.06,1.06,0,0,1,.33,0l-1.11,3.79a2.5,2.5,0,0,1-.42,0,2.27,2.27,0,0,1-.41,0l-.59-2a4.61,4.61,0,0,1-.21-1.11h0a5.29,5.29,0,0,1-.22,1.11l-.59,2a2.37,2.37,0,0,1-.41,0A2.63,2.63,0,0,1,133.8,18.24Z"/><path class="cls-2" d="M141.49,19.94a1.2,1.2,0,0,1-.66.18c-.45,0-.72-.23-.72-.65a1.84,1.84,0,0,1,.78-1.24l-.12-.47a1.17,1.17,0,0,1-1.15.6,1.08,1.08,0,0,1-1.14-1.22c0-.79.48-1.15,1.42-1.15.34,0,.66,0,.85,0v-.3A.68.68,0,0,0,140,15a3.12,3.12,0,0,0-1,.18.76.76,0,0,1-.16-.22.81.81,0,0,1,0-.31,3.35,3.35,0,0,1,1.3-.27c1.08,0,1.42.49,1.42,1.44v2.47a1.69,1.69,0,0,0-.71,1.09c0,.18.1.27.23.27a1,1,0,0,0,.3-.08A.62.62,0,0,1,141.49,19.94Zm-.74-3.15v-.27a6.48,6.48,0,0,0-.75-.05c-.51,0-.77.19-.77.68s.24.67.64.67A.92.92,0,0,0,140.75,16.79Z"/><path class="cls-2" d="M146.65,15.77v2.47a1,1,0,0,1-.31,0,1,1,0,0,1-.3,0l-.1-.49a1.19,1.19,0,0,1-1.16.61,1.08,1.08,0,0,1-1.14-1.22c0-.79.48-1.15,1.42-1.15.34,0,.66,0,.85,0v-.3a.68.68,0,0,0-.78-.78,3,3,0,0,0-1,.18.57.57,0,0,1-.17-.22.81.81,0,0,1,0-.31,3.35,3.35,0,0,1,1.3-.27C146.31,14.33,146.65,14.82,146.65,15.77Zm-.74,1v-.27a6.83,6.83,0,0,0-.75-.05c-.51,0-.77.19-.77.68s.24.67.64.67A.92.92,0,0,0,145.91,16.79Z"/><path class="cls-2" d="M147.56,18.24V12.81a1.21,1.21,0,0,1,.37,0,1.38,1.38,0,0,1,.37,0v5.43a1.38,1.38,0,0,1-.37,0A1.21,1.21,0,0,1,147.56,18.24Z"/><path class="cls-2" d="M151.33,18a.76.76,0,0,1,0,.26,2,2,0,0,1-.56.07c-.92,0-1.25-.48-1.25-1.42V15h-.56a.87.87,0,0,1,0-.27.69.69,0,0,1,0-.28h.56V13.7a1.27,1.27,0,0,1,.74-.14v.85h1a.72.72,0,0,1,0,.27.9.9,0,0,1,0,.28h-1v1.95c0,.64.2.86.71.86a2.24,2.24,0,0,0,.34,0A.65.65,0,0,1,151.33,18Z"/><path class="cls-2" d="M154.67,16.57h-2.21c.06.87.39,1.16,1,1.16a1.7,1.7,0,0,0,.86-.22.75.75,0,0,1,.24.52,2.09,2.09,0,0,1-1.23.33c-1.11,0-1.65-.68-1.65-2s.65-2,1.62-2a1.31,1.31,0,0,1,1.43,1.47A3.39,3.39,0,0,1,154.67,16.57Zm-2.22-.5h1.6a3.49,3.49,0,0,0,0-.35c0-.45-.2-.82-.74-.82S152.51,15.23,152.45,16.07Z"/><path class="cls-2" d="M155.47,18.24V14.45a1.3,1.3,0,0,1,.37,0,1,1,0,0,1,.34,0V15a1.07,1.07,0,0,1,.95-.64,1.18,1.18,0,0,1,.63.18.84.84,0,0,1-.32.61A.74.74,0,0,0,157,15a1,1,0,0,0-.79.59v2.66a1.26,1.26,0,0,1-.36,0A1.3,1.3,0,0,1,155.47,18.24Z"/><path class="cls-2" d="M158.24,18.24V14.45a1.3,1.3,0,0,1,.37,0,1.38,1.38,0,0,1,.37,0v.38a1.5,1.5,0,0,1,1.14-.5,1,1,0,0,1,1.13,1.11v2.8a1.38,1.38,0,0,1-.37,0,1.17,1.17,0,0,1-.36,0V15.58c0-.42-.22-.65-.69-.65a1,1,0,0,0-.85.51v2.8a1.38,1.38,0,0,1-.37,0A1.3,1.3,0,0,1,158.24,18.24Z"/><path class="cls-2" d="M164.91,15.77v2.47a.88.88,0,0,1-.3,0,1,1,0,0,1-.3,0l-.1-.49a1.2,1.2,0,0,1-1.17.61,1.08,1.08,0,0,1-1.14-1.22c0-.79.48-1.15,1.42-1.15.35,0,.66,0,.86,0v-.3a.68.68,0,0,0-.78-.78,3,3,0,0,0-1,.18.6.6,0,0,1-.16-.22.63.63,0,0,1-.05-.31,3.29,3.29,0,0,1,1.3-.27C164.57,14.33,164.91,14.82,164.91,15.77Zm-.73,1v-.27a6.83,6.83,0,0,0-.75-.05c-.52,0-.78.19-.78.68s.25.67.64.67A.92.92,0,0,0,164.18,16.79Z"/><path class="cls-2" d="M167.89,18a1,1,0,0,1,0,.26,2,2,0,0,1-.57.07c-.91,0-1.24-.48-1.24-1.42V15h-.56a.71.71,0,0,1-.05-.27.57.57,0,0,1,.05-.28h.56V13.7a1.23,1.23,0,0,1,.73-.14v.85h1a.94.94,0,0,1,0,.27,1.17,1.17,0,0,1,0,.28h-1v1.95c0,.64.2.86.72.86a2.24,2.24,0,0,0,.34,0A.76.76,0,0,1,167.89,18Z"/><path class="cls-2" d="M171.65,14.45l-1.46,4.44c-.25.78-.53,1.23-1.29,1.23a1.45,1.45,0,0,1-.49-.07.71.71,0,0,1,0-.27.63.63,0,0,1,.07-.29,1.71,1.71,0,0,0,.33,0c.36,0,.54-.12.75-.76l.17-.49a.59.59,0,0,1-.23-.05L168,14.45a1.56,1.56,0,0,1,.39,0,1.42,1.42,0,0,1,.38,0l.85,2.25a5.71,5.71,0,0,1,.26.87h0a7.7,7.7,0,0,1,.24-.87l.75-2.25a1.17,1.17,0,0,1,.36,0A1.44,1.44,0,0,1,171.65,14.45Z"/><path class="cls-2" d="M172.94,18.24l-1.11-3.79a1.48,1.48,0,0,1,.37,0,.92.92,0,0,1,.33,0l.69,2.28a4.12,4.12,0,0,1,.15.8h0a7.44,7.44,0,0,1,.17-.8l.68-2.28a2,2,0,0,1,.39,0,1.38,1.38,0,0,1,.37,0l.66,2.27a4.19,4.19,0,0,1,.15.81h0a6.6,6.6,0,0,1,.17-.81l.69-2.27a1.06,1.06,0,0,1,.33,0,1,1,0,0,1,.32,0l-1.11,3.79a2.17,2.17,0,0,1-.83,0l-.59-2a5.19,5.19,0,0,1-.21-1.11h0a4.69,4.69,0,0,1-.22,1.11l-.59,2a2.27,2.27,0,0,1-.41,0A2.63,2.63,0,0,1,172.94,18.24Z"/><path class="cls-2" d="M180.64,19.94a1.26,1.26,0,0,1-.67.18c-.45,0-.72-.23-.72-.65a1.84,1.84,0,0,1,.78-1.24l-.11-.47a1.18,1.18,0,0,1-1.16.6,1.08,1.08,0,0,1-1.14-1.22c0-.79.48-1.15,1.42-1.15.35,0,.66,0,.85,0v-.3c0-.52-.22-.78-.78-.78a3,3,0,0,0-1,.18.6.6,0,0,1-.16-.22.63.63,0,0,1-.05-.31,3.29,3.29,0,0,1,1.3-.27c1.07,0,1.41.49,1.41,1.44v2.47a1.69,1.69,0,0,0-.71,1.09.24.24,0,0,0,.24.27.89.89,0,0,0,.29-.08A.59.59,0,0,1,180.64,19.94Zm-.75-3.15v-.27a6.48,6.48,0,0,0-.75-.05c-.51,0-.77.19-.77.68s.24.67.64.67A.91.91,0,0,0,179.89,16.79Z"/><path class="cls-2" d="M31.57,24.61v2.46a.73.73,0,0,1-.3.05.79.79,0,0,1-.3-.05l-.1-.49a1.18,1.18,0,0,1-1.16.61A1.07,1.07,0,0,1,28.57,26c0-.8.47-1.16,1.41-1.16a6.19,6.19,0,0,1,.86.05v-.31a.68.68,0,0,0-.78-.78,3.12,3.12,0,0,0-1,.18.63.63,0,0,1-.21-.53,3.46,3.46,0,0,1,1.3-.26C31.24,23.17,31.57,23.65,31.57,24.61Zm-.73,1v-.27c-.17,0-.47,0-.75,0-.52,0-.77.19-.77.67s.24.67.64.67A.92.92,0,0,0,30.84,25.62Z"/><path class="cls-2" d="M32.46,27.07V23.28a1.3,1.3,0,0,1,.37,0,1.38,1.38,0,0,1,.37,0v.39a1.44,1.44,0,0,1,1.14-.5,1,1,0,0,1,1.13,1.1v2.8a1.13,1.13,0,0,1-.37.05,1.05,1.05,0,0,1-.37-.05V24.42a.59.59,0,0,0-.68-.66,1,1,0,0,0-.85.51v2.8a1.13,1.13,0,0,1-.37.05A1.05,1.05,0,0,1,32.46,27.07Z"/><path class="cls-2" d="M38.44,26.87a.87.87,0,0,1,0,.25,2,2,0,0,1-.57.07c-.91,0-1.24-.48-1.24-1.41v-2H36a.65.65,0,0,1,0-.27.62.62,0,0,1,0-.28h.56v-.71a1.31,1.31,0,0,1,.73-.14v.85h1a1,1,0,0,1,0,.27,1.17,1.17,0,0,1,0,.28h-1v2c0,.64.2.85.72.85a2.2,2.2,0,0,0,.33,0A.67.67,0,0,1,38.44,26.87Z"/><path class="cls-2" d="M42.2,23.28l-1.45,4.45c-.25.78-.53,1.23-1.3,1.23a1.62,1.62,0,0,1-.48-.07.73.73,0,0,1,0-.28.71.71,0,0,1,.06-.29,1.31,1.31,0,0,0,.34,0c.35,0,.54-.12.75-.76l.16-.48a.65.65,0,0,1-.23-.06l-1.4-3.78a1.42,1.42,0,0,1,.38,0,1.34,1.34,0,0,1,.38,0l.86,2.26a6.46,6.46,0,0,1,.25.86h0a8.38,8.38,0,0,1,.23-.86l.75-2.26a1.26,1.26,0,0,1,.36,0A1.34,1.34,0,0,1,42.2,23.28Z"/><path class="cls-2" d="M46,25.18c0,1.5-.55,2-1.4,2a1.19,1.19,0,0,1-1.07-.49v.37a1.39,1.39,0,0,1-.74,0V21.64a1.73,1.73,0,0,1,.74,0v2a1.17,1.17,0,0,1,1.07-.5C45.4,23.17,46,23.67,46,25.18Zm-.77,0c0-1.08-.28-1.42-.88-1.42a.85.85,0,0,0-.82.94v.95a.85.85,0,0,0,.82.94C44.9,26.59,45.18,26.26,45.18,25.18Z"/><path class="cls-2" d="M46.7,22.44v-.66a1.12,1.12,0,0,1,.39-.05,1.27,1.27,0,0,1,.39.05v.66a1.56,1.56,0,0,1-.39,0A1.38,1.38,0,0,1,46.7,22.44Zm0,4.63V23.28a1.21,1.21,0,0,1,.37,0,1.38,1.38,0,0,1,.37,0v3.79a1.13,1.13,0,0,1-.37.05A1.05,1.05,0,0,1,46.72,27.07Z"/><path class="cls-2" d="M48.22,25.17c0-1.45.63-2,1.65-2s1.64.55,1.64,2-.63,2-1.64,2S48.22,26.64,48.22,25.17Zm2.53,0c0-1.12-.34-1.44-.88-1.44s-.88.32-.88,1.44.33,1.45.88,1.45S50.75,26.3,50.75,25.17Z"/><path class="cls-2" d="M54.32,26.87a.87.87,0,0,1,0,.25,2,2,0,0,1-.57.07c-.91,0-1.24-.48-1.24-1.41v-2h-.56a.65.65,0,0,1-.05-.27.62.62,0,0,1,.05-.28h.56v-.71a1.31,1.31,0,0,1,.73-.14v.85h1a.79.79,0,0,1,0,.27.9.9,0,0,1,0,.28h-1v2c0,.64.2.85.71.85a2.24,2.24,0,0,0,.34,0A.67.67,0,0,1,54.32,26.87Z"/><path class="cls-2" d="M58.08,23.28l-1.45,4.45c-.25.78-.53,1.23-1.3,1.23a1.62,1.62,0,0,1-.48-.07.73.73,0,0,1-.05-.28.71.71,0,0,1,.06-.29,1.31,1.31,0,0,0,.34,0c.35,0,.54-.12.75-.76l.16-.48a.65.65,0,0,1-.23-.06l-1.4-3.78a1.42,1.42,0,0,1,.38,0,1.34,1.34,0,0,1,.38,0l.86,2.26a6.46,6.46,0,0,1,.25.86h0a8.38,8.38,0,0,1,.23-.86l.75-2.26a1.26,1.26,0,0,1,.36,0A1.34,1.34,0,0,1,58.08,23.28Z"/><path class="cls-2" d="M61.73,27.06a1.27,1.27,0,0,1-.41.06,1.17,1.17,0,0,1-.4-.06l-1.1-1.69h-.46v1.7a1.09,1.09,0,0,1-.36.05,1.23,1.23,0,0,1-.38-.05V21.64a1.62,1.62,0,0,1,.38,0,1.54,1.54,0,0,1,.36,0v3.17h.48l1-1.53a1.42,1.42,0,0,1,.38,0,1.58,1.58,0,0,1,.37,0L60.46,25Z"/><path class="cls-2" d="M61.91,25.17c0-1.45.64-2,1.65-2s1.64.55,1.64,2-.62,2-1.64,2S61.91,26.64,61.91,25.17Zm2.53,0c0-1.12-.33-1.44-.88-1.44s-.88.32-.88,1.44.34,1.45.88,1.45S64.44,26.3,64.44,25.17Z"/><path class="cls-2" d="M68,26.87a.87.87,0,0,1,0,.25,2,2,0,0,1-.57.07c-.91,0-1.24-.48-1.24-1.41v-2h-.56a.79.79,0,0,1,0-.27.75.75,0,0,1,0-.28h.56v-.71a1.31,1.31,0,0,1,.73-.14v.85h1a1,1,0,0,1,0,.27,1.17,1.17,0,0,1,0,.28h-1v2c0,.64.2.85.72.85a2.24,2.24,0,0,0,.34,0A.79.79,0,0,1,68,26.87Z"/><path class="cls-2" d="M71.36,25.4H69.14c.06.88.4,1.16,1,1.16a1.7,1.7,0,0,0,.86-.22.82.82,0,0,1,.24.53,2.15,2.15,0,0,1-1.24.32c-1.1,0-1.64-.68-1.64-2s.64-2,1.62-2a1.3,1.3,0,0,1,1.43,1.46A3.39,3.39,0,0,1,71.36,25.4Zm-2.22-.5h1.59a1.78,1.78,0,0,0,0-.35c0-.45-.19-.82-.73-.82S69.19,24.06,69.14,24.9Z"/><path class="cls-2" d="M72.16,27.07V23.28a1.3,1.3,0,0,1,.37,0,1.06,1.06,0,0,1,.35,0v.53a1.1,1.1,0,0,1,1-.64,1.07,1.07,0,0,1,.63.19.86.86,0,0,1-.32.61.75.75,0,0,0-.46-.15,1,1,0,0,0-.78.6v2.65a1.13,1.13,0,0,1-.37.05A1.05,1.05,0,0,1,72.16,27.07Z"/><path class="cls-2" d="M77.66,24.61v2.46a.73.73,0,0,1-.3.05.88.88,0,0,1-.31-.05l-.1-.49a1.16,1.16,0,0,1-1.16.61A1.07,1.07,0,0,1,74.65,26c0-.8.48-1.16,1.42-1.16a6,6,0,0,1,.85.05v-.31a.68.68,0,0,0-.78-.78,3,3,0,0,0-1,.18.44.44,0,0,1-.16-.22.68.68,0,0,1-.06-.31,3.48,3.48,0,0,1,1.31-.26C77.32,23.17,77.66,23.65,77.66,24.61Zm-.74,1v-.27c-.17,0-.47,0-.75,0-.51,0-.77.19-.77.67s.24.67.64.67A.91.91,0,0,0,76.92,25.62Z"/><path class="cls-2" d="M81.75,25.17c0,1.51-.55,2-1.4,2a1.16,1.16,0,0,1-1.07-.51v2.11a1.05,1.05,0,0,1-.37.05,1,1,0,0,1-.36-.05V23.28a1.26,1.26,0,0,1,.36,0,1.3,1.3,0,0,1,.37,0v.39a1.15,1.15,0,0,1,1.07-.5C81.19,23.17,81.75,23.67,81.75,25.17Zm-.77,0c0-1.08-.28-1.41-.88-1.41a.86.86,0,0,0-.82.93v.95a.87.87,0,0,0,.82.95C80.7,26.59,81,26.27,81,25.17Z"/><path class="cls-2" d="M82.5,22.44v-.66a1.19,1.19,0,0,1,.39-.05,1.3,1.3,0,0,1,.4.05v.66a1.6,1.6,0,0,1-.4,0A1.47,1.47,0,0,1,82.5,22.44Zm0,4.63V23.28a1.17,1.17,0,0,1,.36,0,1.3,1.3,0,0,1,.37,0v3.79a1.05,1.05,0,0,1-.37.05A1,1,0,0,1,82.53,27.07Z"/><path class="cls-2" d="M84.18,22.44v-.66a1.19,1.19,0,0,1,.39-.05,1.3,1.3,0,0,1,.4.05v.66a1.6,1.6,0,0,1-.4,0A1.47,1.47,0,0,1,84.18,22.44Zm0,4.63V23.28a1.17,1.17,0,0,1,.36,0,1.3,1.3,0,0,1,.37,0v3.79a1.05,1.05,0,0,1-.37.05A1,1,0,0,1,84.21,27.07Z"/><path class="cls-2" d="M85.8,27.84a1.21,1.21,0,0,0,.28-.72.82.82,0,0,1-.26-.05v-.71a1.55,1.55,0,0,1,.78,0v.5A1.53,1.53,0,0,1,86.08,28Z"/><path class="cls-2" d="M91.56,26.82a.79.79,0,0,1,0,.3H88.76a1,1,0,0,1-.05-.32.7.7,0,0,1,.05-.28l2-2.68H88.88a1.07,1.07,0,0,1,0-.31.85.85,0,0,1,0-.29H91.5a1,1,0,0,1,0,.28,1.47,1.47,0,0,1,0,.32l-2,2.68h2A.73.73,0,0,1,91.56,26.82Z"/><path class="cls-2" d="M95.32,24.61v2.46a.73.73,0,0,1-.3.05.79.79,0,0,1-.3-.05l-.11-.49a1.16,1.16,0,0,1-1.16.61A1.07,1.07,0,0,1,92.31,26c0-.8.48-1.16,1.42-1.16a6,6,0,0,1,.85.05v-.31c0-.52-.22-.78-.78-.78a3,3,0,0,0-1,.18.51.51,0,0,1-.16-.22.61.61,0,0,1,0-.31,3.39,3.39,0,0,1,1.3-.26C95,23.17,95.32,23.65,95.32,24.61Zm-.74,1v-.27c-.16,0-.47,0-.75,0-.51,0-.77.19-.77.67s.24.67.64.67A.91.91,0,0,0,94.58,25.62Z"/><path class="cls-2" d="M99.69,25.17c0,1.51-.55,2-1.4,2a1.16,1.16,0,0,1-1.07-.51v2.11a1.05,1.05,0,0,1-.37.05,1,1,0,0,1-.36-.05V23.28a1.26,1.26,0,0,1,.36,0,1.3,1.3,0,0,1,.37,0v.39a1.15,1.15,0,0,1,1.07-.5C99.13,23.17,99.69,23.67,99.69,25.17Zm-.77,0c0-1.08-.28-1.41-.88-1.41a.86.86,0,0,0-.82.93v.95a.87.87,0,0,0,.82.95C98.64,26.59,98.92,26.27,98.92,25.17Z"/><path class="cls-2" d="M103.55,25.4h-2.21c.06.88.39,1.16,1,1.16a1.7,1.7,0,0,0,.86-.22.78.78,0,0,1,.24.53,2.13,2.13,0,0,1-1.23.32c-1.11,0-1.65-.68-1.65-2s.65-2,1.62-2a1.3,1.3,0,0,1,1.43,1.46A3.39,3.39,0,0,1,103.55,25.4Zm-2.22-.5h1.59a1.69,1.69,0,0,0,0-.35c0-.45-.2-.82-.74-.82S101.39,24.06,101.33,24.9Z"/><path class="cls-2" d="M105.37,27.07l-1.11-3.79a1.38,1.38,0,0,1,.37,0,.82.82,0,0,1,.32,0l.69,2.28a4.27,4.27,0,0,1,.16.81h0a5.63,5.63,0,0,1,.17-.81l.68-2.28a1.85,1.85,0,0,1,.38,0,1.3,1.3,0,0,1,.37,0l.66,2.27a4.49,4.49,0,0,1,.16.82h0a6.37,6.37,0,0,1,.18-.81l.68-2.28a1.14,1.14,0,0,1,.33,0,1.06,1.06,0,0,1,.33,0l-1.11,3.79a1.79,1.79,0,0,1-.84,0l-.58-2A4.53,4.53,0,0,1,107,24h0a5.29,5.29,0,0,1-.22,1.11l-.59,2a2.3,2.3,0,0,1-.41.05A2.55,2.55,0,0,1,105.37,27.07Z"/><path class="cls-2" d="M110.62,27.07V23.28a1.3,1.3,0,0,1,.37,0,1.38,1.38,0,0,1,.37,0v.39a1.44,1.44,0,0,1,1.14-.5,1,1,0,0,1,1.13,1.1v2.8a1.13,1.13,0,0,1-.37.05,1.05,1.05,0,0,1-.37-.05V24.42a.59.59,0,0,0-.68-.66,1,1,0,0,0-.85.51v2.8a1.13,1.13,0,0,1-.37.05A1.05,1.05,0,0,1,110.62,27.07Z"/><path class="cls-2" d="M114.79,22.44v-.66a1.12,1.12,0,0,1,.39-.05,1.27,1.27,0,0,1,.39.05v.66a1.56,1.56,0,0,1-.39,0A1.38,1.38,0,0,1,114.79,22.44Zm0,4.63V23.28a1.21,1.21,0,0,1,.37,0,1.38,1.38,0,0,1,.37,0v3.79a1.13,1.13,0,0,1-.37.05A1.05,1.05,0,0,1,114.81,27.07Z"/><path class="cls-2" d="M119.53,24.61v2.46a.73.73,0,0,1-.3.05.79.79,0,0,1-.3-.05l-.1-.49a1.18,1.18,0,0,1-1.16.61A1.07,1.07,0,0,1,116.53,26c0-.8.47-1.16,1.41-1.16a6.19,6.19,0,0,1,.86.05v-.31a.68.68,0,0,0-.78-.78,3.12,3.12,0,0,0-1,.18.63.63,0,0,1-.21-.53,3.46,3.46,0,0,1,1.3-.26C119.2,23.17,119.53,23.65,119.53,24.61Zm-.73,1v-.27c-.17,0-.47,0-.75,0-.52,0-.77.19-.77.67s.24.67.64.67A.92.92,0,0,0,118.8,25.62Z"/><path class="cls-2" d="M125.09,26.82a.79.79,0,0,1,0,.3h-2.75a1,1,0,0,1,0-.32,1,1,0,0,1,0-.28l2-2.68h-1.84a1.07,1.07,0,0,1,0-.31.85.85,0,0,1,0-.29H125a.94.94,0,0,1,0,.28,1.43,1.43,0,0,1,0,.32l-2,2.68h2A.73.73,0,0,1,125.09,26.82Z"/><path class="cls-2" d="M128.85,24.61v2.46a.73.73,0,0,1-.3.05.79.79,0,0,1-.3-.05l-.1-.49a1.19,1.19,0,0,1-1.17.61A1.07,1.07,0,0,1,125.84,26c0-.8.48-1.16,1.42-1.16a6.19,6.19,0,0,1,.86.05v-.31a.68.68,0,0,0-.78-.78,3.12,3.12,0,0,0-1,.18.51.51,0,0,1-.16-.22.61.61,0,0,1,0-.31,3.46,3.46,0,0,1,1.3-.26C128.51,23.17,128.85,23.65,128.85,24.61Zm-.73,1v-.27c-.17,0-.47,0-.75,0-.52,0-.78.19-.78.67s.25.67.64.67A.92.92,0,0,0,128.12,25.62Z"/><path class="cls-2" d="M133.06,21.64v5.43a.88.88,0,0,1-.31.05,1,1,0,0,1-.33-.05l-.06-.42a1.2,1.2,0,0,1-1.1.54c-.84,0-1.4-.51-1.4-2s.55-2,1.4-2a1.19,1.19,0,0,1,1.07.5v-2a1.3,1.3,0,0,1,.37,0A1.17,1.17,0,0,1,133.06,21.64Zm-.73,4v-1a.86.86,0,0,0-.81-.92c-.6,0-.88.34-.88,1.42s.28,1.41.88,1.41A.85.85,0,0,0,132.33,25.66Z"/><path class="cls-2" d="M134.1,25.17c0-1.45.64-2,1.65-2s1.64.55,1.64,2-.62,2-1.64,2S134.1,26.64,134.1,25.17Zm2.53,0c0-1.12-.33-1.44-.88-1.44s-.88.32-.88,1.44.34,1.45.88,1.45S136.63,26.3,136.63,25.17Z"/><path class="cls-2" d="M139.12,27.07,138,23.28a1.48,1.48,0,0,1,.37,0,.92.92,0,0,1,.33,0l.69,2.28a4.06,4.06,0,0,1,.15.81h0a5.63,5.63,0,0,1,.17-.81l.68-2.28a2,2,0,0,1,.39,0,1.38,1.38,0,0,1,.37,0l.66,2.27a4.26,4.26,0,0,1,.15.82h0c0-.17.08-.44.18-.81l.69-2.28a1.06,1.06,0,0,1,.33,0,1,1,0,0,1,.32,0l-1.11,3.79a1.75,1.75,0,0,1-.83,0l-.59-2a5.08,5.08,0,0,1-.21-1.11h0a4.69,4.69,0,0,1-.22,1.11l-.59,2a2.3,2.3,0,0,1-.41.05A2.55,2.55,0,0,1,139.12,27.07Z"/><path class="cls-2" d="M147.1,24.61v2.46a.81.81,0,0,1-.31.05.79.79,0,0,1-.3-.05l-.1-.49a1.17,1.17,0,0,1-1.16.61A1.07,1.07,0,0,1,144.09,26c0-.8.48-1.16,1.42-1.16a6.14,6.14,0,0,1,.85.05v-.31a.68.68,0,0,0-.78-.78,3.12,3.12,0,0,0-1,.18.62.62,0,0,1-.16-.22.77.77,0,0,1-.05-.31,3.46,3.46,0,0,1,1.3-.26C146.76,23.17,147.1,23.65,147.1,24.61Zm-.74,1v-.27c-.17,0-.47,0-.75,0-.52,0-.77.19-.77.67s.24.67.64.67A.92.92,0,0,0,146.36,25.62Z"/><path class="cls-2" d="M148.3,27.07V21.64a1.21,1.21,0,0,1,.37,0,1.26,1.26,0,0,1,.36,0v5.43a1,1,0,0,1-.36.05A1,1,0,0,1,148.3,27.07Z"/><path class="cls-2" d="M153,24.61v2.46a.73.73,0,0,1-.3.05.79.79,0,0,1-.3-.05l-.11-.49a1.16,1.16,0,0,1-1.16.61A1.07,1.07,0,0,1,150,26c0-.8.48-1.16,1.42-1.16a6,6,0,0,1,.85.05v-.31c0-.52-.22-.78-.78-.78a3,3,0,0,0-1,.18.51.51,0,0,1-.16-.22.61.61,0,0,1-.05-.31,3.39,3.39,0,0,1,1.3-.26C152.69,23.17,153,23.65,153,24.61Zm-.74,1v-.27c-.16,0-.47,0-.75,0-.51,0-.77.19-.77.67s.24.67.64.67A.91.91,0,0,0,152.29,25.62Z"/><path class="cls-2" d="M153.34,28.87a.36.36,0,0,1,0-.16.71.71,0,0,1,.09-.38,1.28,1.28,0,0,0,.28,0c.36,0,.55-.18.55-.63V23.28a1.21,1.21,0,0,1,.37,0,1.34,1.34,0,0,1,.36,0v4.48c0,.79-.38,1.2-1.09,1.2A1.26,1.26,0,0,1,153.34,28.87Zm.85-6.43v-.67a1.51,1.51,0,0,1,.4,0,1.42,1.42,0,0,1,.38,0v.67a1.42,1.42,0,0,1-.38,0A1.51,1.51,0,0,1,154.19,22.44Z"/><path class="cls-2" d="M159,28.78a1.22,1.22,0,0,1-.66.18c-.46,0-.72-.23-.72-.65a1.82,1.82,0,0,1,.77-1.25l-.11-.47a1.18,1.18,0,0,1-1.16.6A1.07,1.07,0,0,1,155.93,26c0-.8.48-1.16,1.42-1.16a6.3,6.3,0,0,1,.86.05v-.31a.68.68,0,0,0-.78-.78,3,3,0,0,0-1,.18.51.51,0,0,1-.16-.22.61.61,0,0,1-.05-.31,3.39,3.39,0,0,1,1.3-.26c1.07,0,1.41.48,1.41,1.44v2.46a1.74,1.74,0,0,0-.71,1.09.24.24,0,0,0,.24.27.7.7,0,0,0,.29-.08A.61.61,0,0,1,159,28.78Zm-.74-3.16v-.27c-.17,0-.47,0-.75,0-.52,0-.78.19-.78.67s.24.67.64.67A.92.92,0,0,0,158.21,25.62Z"/><path class="cls-2" d="M160,25.18c0-1.32.55-2,1.63-2a2,2,0,0,1,1,.19.73.73,0,0,1-.22.53,1.52,1.52,0,0,0-.63-.12c-.71,0-1,.45-1,1.41s.32,1.38,1,1.38a1.76,1.76,0,0,0,.68-.13.78.78,0,0,1,.22.52,2,2,0,0,1-1.06.24C160.5,27.19,160,26.51,160,25.18Z"/><path class="cls-2" d="M166.26,25.4h-2.21c0,.88.39,1.16,1,1.16a1.7,1.7,0,0,0,.86-.22.82.82,0,0,1,.24.53,2.15,2.15,0,0,1-1.24.32c-1.1,0-1.64-.68-1.64-2s.64-2,1.62-2a1.3,1.3,0,0,1,1.43,1.46A3.39,3.39,0,0,1,166.26,25.4ZM164,24.9h1.59a1.69,1.69,0,0,0,0-.35c0-.45-.2-.82-.74-.82S164.1,24.06,164,24.9Z"/><path class="cls-2" d="M172.31,23.75l-.6,0a1.39,1.39,0,0,1,.19.75c0,.82-.5,1.32-1.45,1.32l-.33,0a.69.69,0,0,0-.16.45c.08.68,2.34-.06,2.34,1.46,0,.72-.68,1.27-1.9,1.27s-1.58-.43-1.58-1a1.26,1.26,0,0,1,.64-1,.58.58,0,0,1-.16-.43,1.28,1.28,0,0,1,.37-.82,1.19,1.19,0,0,1-.68-1.17c0-.81.52-1.31,1.46-1.31a1.78,1.78,0,0,1,.83.18l1-.18A.89.89,0,0,1,172.31,23.75Zm-2.44,3.36a.89.89,0,0,0-.35.67c0,.39.28.65.89.65.77,0,1.19-.26,1.19-.66C171.6,27.13,170.54,27.3,169.87,27.11Zm1.32-2.63c0-.56-.29-.81-.74-.81s-.74.25-.74.81.3.82.74.82S171.19,25,171.19,24.48Z"/><path class="cls-2" d="M173,25.17c0-1.45.64-2,1.65-2s1.64.55,1.64,2-.63,2-1.64,2S173,26.64,173,25.17Zm2.53,0c0-1.12-.34-1.44-.88-1.44s-.88.32-.88,1.44.34,1.45.88,1.45S175.51,26.3,175.51,25.17Z"/><path class="cls-2" d="M176.44,28.87a.45.45,0,0,1,0-.16.71.71,0,0,1,.09-.38,1.24,1.24,0,0,0,.27,0c.37,0,.56-.18.56-.63V23.28a1.17,1.17,0,0,1,.36,0,1.38,1.38,0,0,1,.37,0v4.48c0,.79-.38,1.2-1.09,1.2A1.34,1.34,0,0,1,176.44,28.87Zm.86-6.43v-.67a1.47,1.47,0,0,1,.39,0,1.56,1.56,0,0,1,.39,0v.67a1.56,1.56,0,0,1-.39,0A1.47,1.47,0,0,1,177.3,22.44Z"/><path class="cls-2" d="M182.09,25.4h-2.22c.06.88.4,1.16,1,1.16a1.7,1.7,0,0,0,.86-.22.82.82,0,0,1,.24.53,2.15,2.15,0,0,1-1.24.32c-1.1,0-1.64-.68-1.64-2s.64-2,1.62-2a1.3,1.3,0,0,1,1.43,1.46A3.39,3.39,0,0,1,182.09,25.4Zm-2.22-.5h1.59a1.78,1.78,0,0,0,0-.35c0-.45-.19-.82-.73-.82S179.92,24.06,179.87,24.9Z"/><path class="cls-2" d="M183.17,27.07V23.28a1.3,1.3,0,0,1,.37,0,1.38,1.38,0,0,1,.37,0v.39a1.47,1.47,0,0,1,1.14-.5,1,1,0,0,1,1.13,1.1v2.8a1.13,1.13,0,0,1-.37.05,1.05,1.05,0,0,1-.37-.05V24.42a.59.59,0,0,0-.68-.66,1,1,0,0,0-.85.51v2.8a1.13,1.13,0,0,1-.37.05A1.05,1.05,0,0,1,183.17,27.07Z"/><path class="cls-2" d="M187.34,22.44v-.66a1.12,1.12,0,0,1,.39-.05,1.3,1.3,0,0,1,.4.05v.66a1.6,1.6,0,0,1-.4,0A1.38,1.38,0,0,1,187.34,22.44Zm0,4.63V23.28a1.21,1.21,0,0,1,.37,0,1.38,1.38,0,0,1,.37,0v3.79a1.13,1.13,0,0,1-.37.05A1.05,1.05,0,0,1,187.36,27.07Z"/><path class="cls-2" d="M192.12,25.4h-2.21c.06.88.39,1.16,1,1.16a1.7,1.7,0,0,0,.86-.22.74.74,0,0,1,.24.53,2.13,2.13,0,0,1-1.23.32c-1.11,0-1.65-.68-1.65-2s.65-2,1.62-2a1.3,1.3,0,0,1,1.43,1.46A3.39,3.39,0,0,1,192.12,25.4Zm-2.22-.5h1.6a3.16,3.16,0,0,0,0-.35c0-.45-.2-.82-.74-.82S190,24.06,189.9,24.9Z"/><path class="cls-2" d="M28.8,35.91V32.12a1.3,1.3,0,0,1,.37,0,1,1,0,0,1,.34,0v.53a1.08,1.08,0,0,1,.95-.64,1.15,1.15,0,0,1,.63.18.86.86,0,0,1-.32.61.74.74,0,0,0-.46-.14,1,1,0,0,0-.78.59v2.66a1.38,1.38,0,0,1-.37,0A1.3,1.3,0,0,1,28.8,35.91Z"/><path class="cls-2" d="M34.58,33.44v2.47a.88.88,0,0,1-.3,0,1,1,0,0,1-.3,0l-.1-.5a1.18,1.18,0,0,1-1.16.61,1.07,1.07,0,0,1-1.14-1.21c0-.79.47-1.15,1.42-1.15.34,0,.66,0,.85,0v-.3a.68.68,0,0,0-.78-.78,3.12,3.12,0,0,0-1,.18.76.76,0,0,1-.16-.22.81.81,0,0,1-.05-.31,3.35,3.35,0,0,1,1.3-.27C34.25,32,34.58,32.49,34.58,33.44Zm-.73,1v-.27a6.83,6.83,0,0,0-.75,0c-.52,0-.77.19-.77.68s.24.67.64.67A.92.92,0,0,0,33.85,34.46Z"/><path class="cls-2" d="M35.75,35.91V32.12a1.3,1.3,0,0,1,.37,0,1.38,1.38,0,0,1,.37,0v.38a1.47,1.47,0,0,1,1.14-.5,1,1,0,0,1,1.13,1.1v2.81a1.38,1.38,0,0,1-.37,0,1.3,1.3,0,0,1-.37,0V33.25a.59.59,0,0,0-.68-.65,1,1,0,0,0-.85.5v2.81a1.38,1.38,0,0,1-.37,0A1.3,1.3,0,0,1,35.75,35.91Z"/><path class="cls-2" d="M43.11,32.12l-1.46,4.44c-.25.78-.53,1.23-1.29,1.23a1.45,1.45,0,0,1-.49-.07.73.73,0,0,1,0-.28.61.61,0,0,1,.07-.28,2,2,0,0,0,.34,0c.35,0,.53-.11.75-.75l.16-.49a.59.59,0,0,1-.23-.05l-1.4-3.78a1.42,1.42,0,0,1,.38,0,1.34,1.34,0,0,1,.38,0l.85,2.25a5.71,5.71,0,0,1,.26.87h0s.08-.36.24-.87l.75-2.25a1.26,1.26,0,0,1,.36,0A1.34,1.34,0,0,1,43.11,32.12Z"/><path class="cls-2" d="M45.14,31.27v-.66a1.47,1.47,0,0,1,.39,0,1.6,1.6,0,0,1,.4,0v.66a1.3,1.3,0,0,1-.4.05A1.19,1.19,0,0,1,45.14,31.27Zm0,4.64V32.12a1.17,1.17,0,0,1,.36,0,1.3,1.3,0,0,1,.37,0v3.79a1.3,1.3,0,0,1-.37,0A1.17,1.17,0,0,1,45.17,35.91Z"/><path class="cls-2" d="M48.05,37.71a.47.47,0,0,1,0-.17.71.71,0,0,1,.08-.37,1.89,1.89,0,0,0,.28,0c.36,0,.55-.18.55-.63V32.12a1.21,1.21,0,0,1,.37,0,1.34,1.34,0,0,1,.36,0V36.6c0,.79-.38,1.19-1.08,1.19A1.42,1.42,0,0,1,48.05,37.71Zm.85-6.44V30.6a1.51,1.51,0,0,1,.4,0,1.42,1.42,0,0,1,.38,0v.67a1.16,1.16,0,0,1-.38.05A1.23,1.23,0,0,1,48.9,31.27Z"/><path class="cls-2" d="M53.69,34.24H51.47c.06.87.4,1.16,1,1.16a1.7,1.7,0,0,0,.86-.22.8.8,0,0,1,.24.52,2.15,2.15,0,0,1-1.24.32c-1.1,0-1.64-.67-1.64-2s.64-2,1.62-2a1.31,1.31,0,0,1,1.43,1.46A3.43,3.43,0,0,1,53.69,34.24Zm-2.22-.5h1.59a1.86,1.86,0,0,0,0-.36c0-.44-.2-.81-.74-.81S51.53,32.9,51.47,33.74Z"/><path class="cls-2" d="M57.82,30.48v5.43a1.19,1.19,0,0,1-.32,0,1.23,1.23,0,0,1-.33,0l-.05-.43A1.19,1.19,0,0,1,56,36c-.85,0-1.4-.5-1.4-2s.54-2,1.4-2a1.19,1.19,0,0,1,1.06.5v-2a1.42,1.42,0,0,1,.38,0A1.26,1.26,0,0,1,57.82,30.48Zm-.74,4v-1a.85.85,0,0,0-.81-.92c-.6,0-.88.34-.88,1.42s.28,1.41.88,1.41A.85.85,0,0,0,57.08,34.5Z"/><path class="cls-2" d="M59,35.91V32.12a1.3,1.3,0,0,1,.37,0,1.38,1.38,0,0,1,.37,0v.38A1.5,1.5,0,0,1,60.9,32,1,1,0,0,1,62,33.1v2.81a1.38,1.38,0,0,1-.37,0,1.3,1.3,0,0,1-.37,0V33.25a.59.59,0,0,0-.68-.65,1,1,0,0,0-.85.5v2.81a1.38,1.38,0,0,1-.37,0A1.3,1.3,0,0,1,59,35.91Z"/><path class="cls-2" d="M63,34c0-1.46.64-2,1.65-2s1.64.55,1.64,2-.62,2-1.64,2S63,35.47,63,34Zm2.53,0c0-1.13-.34-1.44-.88-1.44s-.88.31-.88,1.44.34,1.45.88,1.45S65.56,35.13,65.56,34Z"/><path class="cls-2" d="M67.19,34c0-1.33.56-2,1.64-2a2,2,0,0,1,1,.19.74.74,0,0,1-.22.53A1.52,1.52,0,0,0,69,32.6c-.71,0-1,.45-1,1.42s.31,1.38,1,1.38a1.68,1.68,0,0,0,.67-.13.66.66,0,0,1,.22.52,2,2,0,0,1-1,.23C67.75,36,67.19,35.34,67.19,34Z"/><path class="cls-2" d="M73.38,35.66a.76.76,0,0,1,0,.29H70.58a1.1,1.1,0,0,1,0-.59l2-2.69H70.7a1,1,0,0,1,0-.3.85.85,0,0,1,0-.29h2.62a.87.87,0,0,1,.05.27,1.26,1.26,0,0,1-.05.32l-2,2.69h2A.73.73,0,0,1,73.38,35.66Z"/><path class="cls-2" d="M77.14,34.24H74.93c.06.87.4,1.16,1,1.16a1.7,1.7,0,0,0,.86-.22.71.71,0,0,1,.24.52,2.1,2.1,0,0,1-1.23.32c-1.1,0-1.65-.67-1.65-2s.65-2,1.63-2a1.3,1.3,0,0,1,1.42,1.46A3.43,3.43,0,0,1,77.14,34.24Zm-2.22-.5h1.6a3.53,3.53,0,0,0,0-.36c0-.44-.2-.81-.74-.81S75,32.9,74.92,33.74Z"/><path class="cls-2" d="M78,35.76a.66.66,0,0,1,.2-.52,3.09,3.09,0,0,0,1,.17c.49,0,.77-.16.77-.54s-.43-.49-.87-.62-1-.38-1-1.09S78.52,32,79.46,32a2.37,2.37,0,0,1,1.05.2.66.66,0,0,1-.18.51,3,3,0,0,0-.79-.12c-.52,0-.77.19-.77.54s.46.45.91.6,1,.38,1,1.12S80.24,36,79.27,36A3,3,0,0,1,78,35.76Zm.78-4.41.73-1.07a.75.75,0,0,1,.64.27l-1,1A.61.61,0,0,1,78.79,31.35Z"/><path class="cls-2" d="M81.67,35.91V32.12a1.3,1.3,0,0,1,.37,0,1.38,1.38,0,0,1,.37,0v.38a1.5,1.5,0,0,1,1.14-.5,1,1,0,0,1,1.13,1.1v2.81a1.38,1.38,0,0,1-.37,0,1.17,1.17,0,0,1-.36,0V33.25c0-.42-.22-.65-.69-.65a1,1,0,0,0-.85.5v2.81A1.38,1.38,0,0,1,82,36,1.3,1.3,0,0,1,81.67,35.91Z"/><path class="cls-2" d="M85.84,31.27v-.66a1.38,1.38,0,0,1,.39,0,1.6,1.6,0,0,1,.4,0v.66a1.3,1.3,0,0,1-.4.05A1.12,1.12,0,0,1,85.84,31.27Zm0,4.64V32.12a1.21,1.21,0,0,1,.37,0,1.38,1.38,0,0,1,.37,0v3.79a1.38,1.38,0,0,1-.37,0A1.3,1.3,0,0,1,85.86,35.91Z"/><path class="cls-2" d="M90.62,34.24H88.41c.06.87.4,1.16,1,1.16a1.7,1.7,0,0,0,.86-.22.71.71,0,0,1,.24.52A2.1,2.1,0,0,1,89.3,36c-1.1,0-1.65-.67-1.65-2s.65-2,1.63-2a1.3,1.3,0,0,1,1.42,1.46A3.43,3.43,0,0,1,90.62,34.24Zm-2.22-.5H90a3.53,3.53,0,0,0,0-.36c0-.44-.2-.81-.74-.81S88.46,32.9,88.4,33.74Z"/><path class="cls-2" d="M96.09,35.66A.76.76,0,0,1,96,36H93.29a1.1,1.1,0,0,1,0-.59l2-2.69H93.42a.85.85,0,0,1,0-.3.7.7,0,0,1,0-.29H96a.65.65,0,0,1,0,.27.93.93,0,0,1,0,.32l-2,2.69h2A.73.73,0,0,1,96.09,35.66Z"/><path class="cls-2" d="M100.1,30.48v5.43a1.19,1.19,0,0,1-.32,0,1.23,1.23,0,0,1-.33,0l0-.43a1.19,1.19,0,0,1-1.1.54c-.85,0-1.4-.5-1.4-2s.54-2,1.4-2a1.19,1.19,0,0,1,1.06.5v-2a1.42,1.42,0,0,1,.38,0A1.26,1.26,0,0,1,100.1,30.48Zm-.74,4v-1a.85.85,0,0,0-.81-.92c-.6,0-.88.34-.88,1.42s.28,1.41.88,1.41A.85.85,0,0,0,99.36,34.5Z"/><path class="cls-2" d="M101.29,35.91V32.12a1.3,1.3,0,0,1,.37,0,1.06,1.06,0,0,1,.35,0v.53A1.08,1.08,0,0,1,103,32a1.15,1.15,0,0,1,.63.18.86.86,0,0,1-.32.61.73.73,0,0,0-.45-.14,1,1,0,0,0-.79.59v2.66a1.38,1.38,0,0,1-.37,0A1.3,1.3,0,0,1,101.29,35.91Z"/><path class="cls-2" d="M104.1,34c0-1.46.63-2,1.65-2s1.64.55,1.64,2-.63,2-1.64,2S104.1,35.47,104.1,34Zm2.53,0c0-1.13-.34-1.44-.88-1.44s-.89.31-.89,1.44.34,1.45.89,1.45S106.63,35.13,106.63,34Z"/><path class="cls-2" d="M109.13,35.91,108,32.12a1.48,1.48,0,0,1,.37,0,.85.85,0,0,1,.33,0l.69,2.28a4.12,4.12,0,0,1,.15.8h0a7.44,7.44,0,0,1,.17-.8l.68-2.28a2,2,0,0,1,.39,0,1.38,1.38,0,0,1,.37,0l.66,2.26a4.39,4.39,0,0,1,.15.82h0a6.6,6.6,0,0,1,.17-.81l.69-2.27a1.06,1.06,0,0,1,.33,0,1,1,0,0,1,.32,0l-1.11,3.79a2.17,2.17,0,0,1-.83,0l-.59-2a4.44,4.44,0,0,1-.2-1.11h0a4.69,4.69,0,0,1-.22,1.11l-.59,2a2.27,2.27,0,0,1-.41,0A2.39,2.39,0,0,1,109.13,35.91Z"/><path class="cls-2" d="M114.37,31.27v-.66a1.38,1.38,0,0,1,.39,0,1.56,1.56,0,0,1,.39,0v.66a1.27,1.27,0,0,1-.39.05A1.12,1.12,0,0,1,114.37,31.27Zm0,4.64V32.12a1.21,1.21,0,0,1,.37,0,1.38,1.38,0,0,1,.37,0v3.79a1.38,1.38,0,0,1-.37,0A1.3,1.3,0,0,1,114.39,35.91Z"/><path class="cls-2" d="M119.15,34.24h-2.21c.06.87.39,1.16,1,1.16a1.7,1.7,0,0,0,.86-.22.8.8,0,0,1,.24.52,2.13,2.13,0,0,1-1.23.32c-1.11,0-1.65-.67-1.65-2s.65-2,1.62-2a1.31,1.31,0,0,1,1.43,1.46A3.43,3.43,0,0,1,119.15,34.24Zm-2.22-.5h1.59a1.86,1.86,0,0,0,0-.36c0-.44-.2-.81-.74-.81S117,32.9,116.93,33.74Z"/><path class="cls-2" d="M121.16,37.71a.47.47,0,0,1,0-.17.71.71,0,0,1,.08-.37,2.07,2.07,0,0,0,.28,0c.36,0,.56-.18.56-.63V32.12a1.17,1.17,0,0,1,.36,0,1.38,1.38,0,0,1,.37,0V36.6c0,.79-.38,1.19-1.09,1.19A1.48,1.48,0,0,1,121.16,37.71Zm.86-6.44V30.6a1.47,1.47,0,0,1,.39,0,1.56,1.56,0,0,1,.39,0v.67a1.27,1.27,0,0,1-.39.05A1.19,1.19,0,0,1,122,31.27Z"/><path class="cls-2" d="M126.77,33.44v2.47a.88.88,0,0,1-.3,0,1,1,0,0,1-.3,0l-.11-.5a1.16,1.16,0,0,1-1.16.61,1.07,1.07,0,0,1-1.14-1.21c0-.79.48-1.15,1.42-1.15.35,0,.66,0,.85,0v-.3c0-.52-.22-.78-.78-.78a3,3,0,0,0-1,.18.6.6,0,0,1-.16-.22.63.63,0,0,1,0-.31,3.29,3.29,0,0,1,1.3-.27C126.43,32,126.77,32.49,126.77,33.44Zm-.74,1v-.27a6.65,6.65,0,0,0-.75,0c-.51,0-.77.19-.77.68s.24.67.64.67A.92.92,0,0,0,126,34.46Z"/><path class="cls-2" d="M127.94,35.91V32.12a1.17,1.17,0,0,1,.36,0,1.3,1.3,0,0,1,.37,0v.37a1.39,1.39,0,0,1,1.09-.49,1,1,0,0,1,1,.58,1.44,1.44,0,0,1,1.21-.58A1,1,0,0,1,133,33.11v2.8a1.38,1.38,0,0,1-.37,0,1.3,1.3,0,0,1-.37,0V33.25c0-.43-.19-.65-.63-.65a.91.91,0,0,0-.8.51v2.8a1.38,1.38,0,0,1-.37,0,1.3,1.3,0,0,1-.37,0V33.25c0-.43-.19-.65-.63-.65a1,1,0,0,0-.8.5v2.81a1.38,1.38,0,0,1-.37,0A1.17,1.17,0,0,1,127.94,35.91Z"/><path class="cls-2" d="M137.37,32.12l-1.46,4.44c-.25.78-.53,1.23-1.29,1.23a1.45,1.45,0,0,1-.49-.07.73.73,0,0,1,0-.28.61.61,0,0,1,.07-.28,2.09,2.09,0,0,0,.34,0c.35,0,.53-.11.75-.75l.16-.49a.59.59,0,0,1-.23-.05l-1.4-3.78a1.42,1.42,0,0,1,.38,0,1.34,1.34,0,0,1,.38,0l.85,2.25a5.71,5.71,0,0,1,.26.87h0s.08-.36.24-.87l.75-2.25a1.26,1.26,0,0,1,.36,0A1.34,1.34,0,0,1,137.37,32.12Z"/><path class="cls-2" d="M142.83,32.12v3.79a1.73,1.73,0,0,1-.74,0v-.39a1.46,1.46,0,0,1-1.15.5,1,1,0,0,1-1.12-1.1v-2.8a1.3,1.3,0,0,1,.37,0,1.17,1.17,0,0,1,.36,0v2.66a.6.6,0,0,0,.69.66,1,1,0,0,0,.85-.52v-2.8a1.3,1.3,0,0,1,.37,0A1.38,1.38,0,0,1,142.83,32.12Z"/><path class="cls-2" d="M143.79,35.76a.69.69,0,0,1,.19-.52,3.15,3.15,0,0,0,1,.17c.49,0,.77-.16.77-.54s-.43-.49-.87-.62-1-.38-1-1.09S144.3,32,145.23,32a2.42,2.42,0,0,1,1.06.2.66.66,0,0,1-.18.51,3,3,0,0,0-.79-.12c-.52,0-.77.19-.77.54s.46.45.91.6,1,.38,1,1.12S146,36,145.05,36A3,3,0,0,1,143.79,35.76Z"/><path class="cls-2" d="M149.54,35.7a.76.76,0,0,1,0,.26,2,2,0,0,1-.56.06c-.91,0-1.25-.47-1.25-1.41v-2h-.56a.9.9,0,0,1,0-.28.66.66,0,0,1,0-.27h.56v-.71a1.28,1.28,0,0,1,.74-.14v.85h1a.72.72,0,0,1,0,.27.9.9,0,0,1,0,.28h-1v1.95c0,.64.2.86.71.86a2.24,2.24,0,0,0,.34,0A.65.65,0,0,1,149.54,35.7Z"/><path class="cls-2" d="M150.35,35.91V32.12a1.3,1.3,0,0,1,.37,0,1.38,1.38,0,0,1,.37,0v.38a1.5,1.5,0,0,1,1.14-.5,1,1,0,0,1,1.13,1.1v2.81a1.38,1.38,0,0,1-.37,0,1.17,1.17,0,0,1-.36,0V33.25c0-.42-.23-.65-.69-.65a1,1,0,0,0-.85.5v2.81a1.38,1.38,0,0,1-.37,0A1.3,1.3,0,0,1,150.35,35.91Z"/><path class="cls-2" d="M157.34,34.24h-2.21c.06.87.4,1.16,1,1.16a1.7,1.7,0,0,0,.86-.22.71.71,0,0,1,.24.52A2.1,2.1,0,0,1,156,36c-1.1,0-1.65-.67-1.65-2s.65-2,1.63-2a1.3,1.3,0,0,1,1.42,1.46A3.43,3.43,0,0,1,157.34,34.24Zm-2.22-.5h1.6a3.53,3.53,0,0,0,0-.36c0-.44-.2-.81-.74-.81S155.18,32.9,155.12,33.74Z"/><path class="cls-2" d="M157.57,37.71a.47.47,0,0,1,0-.17.71.71,0,0,1,.08-.37,1.89,1.89,0,0,0,.28,0c.36,0,.55-.18.55-.63V32.12a1.21,1.21,0,0,1,.37,0,1.48,1.48,0,0,1,.37,0V36.6c0,.79-.39,1.19-1.09,1.19A1.42,1.42,0,0,1,157.57,37.71Zm.85-6.44V30.6a1.51,1.51,0,0,1,.4,0,1.42,1.42,0,0,1,.38,0v.67a1.16,1.16,0,0,1-.38.05A1.23,1.23,0,0,1,158.42,31.27Z"/><path class="cls-2" d="M160,32.13a4.21,4.21,0,0,1,.6-2.11.42.42,0,0,1,.17.05.27.27,0,0,1,.13.12,3.8,3.8,0,0,0-.49,1.94,3.85,3.85,0,0,0,.49,1.94.22.22,0,0,1-.13.12.32.32,0,0,1-.17,0A4.2,4.2,0,0,1,160,32.13Z"/><path class="cls-2" d="M163,33.12a.36.36,0,0,1,0,.19.38.38,0,0,1,0,.19h-1.75a1.61,1.61,0,0,1,0-.3c0-.66.43-.89.83-1.15s.58-.39.58-.72-.15-.44-.56-.44a1.7,1.7,0,0,0-.62.12.35.35,0,0,1-.13-.31,2.1,2.1,0,0,1,.82-.16c.53,0,.94.22.94.78s-.3.72-.8,1c-.27.16-.62.31-.63.67a.41.41,0,0,0,0,.11Z"/><path class="cls-2" d="M163.54,34.19a.27.27,0,0,1-.13-.12,3.79,3.79,0,0,0,.5-1.94,3.75,3.75,0,0,0-.5-1.94.36.36,0,0,1,.13-.12.44.44,0,0,1,.18-.05,4.05,4.05,0,0,1,0,4.21A.34.34,0,0,1,163.54,34.19Z"/></svg>