<svg id="Warstwa_1" data-name="Warstwa 1" xmlns="http://www.w3.org/2000/svg" viewBox="0 0 639.07 70"><defs><style>.cls-1{fill:#0056a4;}.cls-2{fill:none;stroke:#cbd413;stroke-miterlimit:10;stroke-width:1.85px;}</style></defs><title>zastosowanie_02</title><path class="cls-1" d="M53.22,27.65a2.73,2.73,0,0,1-.11.83H44a3.55,3.55,0,0,1-.11-.83,3.16,3.16,0,0,1,.11-.77l6.74-9.78H44.48a3.62,3.62,0,0,1-.1-.83,2.89,2.89,0,0,1,.1-.75h8.4a2.18,2.18,0,0,1,.12.75,2.65,2.65,0,0,1-.12.83l-6.79,9.78h7A3.16,3.16,0,0,1,53.22,27.65Z"/><path class="cls-1" d="M62,22.34v6a2,2,0,0,1-.74.11,2.2,2.2,0,0,1-.74-.11l-.25-1.2a2.88,2.88,0,0,1-2.84,1.49c-1.71,0-2.79-1-2.79-3s1.17-2.83,3.47-2.83A20.52,20.52,0,0,1,60.2,23v-.74c0-1.27-.56-1.9-1.91-1.9a7.62,7.62,0,0,0-2.41.43,1.33,1.33,0,0,1-.4-.54,1.67,1.67,0,0,1-.12-.76,8.22,8.22,0,0,1,3.18-.65C61.17,18.81,62,20,62,22.34Zm-1.8,2.49v-.67c-.41,0-1.15-.11-1.84-.11-1.26,0-1.89.47-1.89,1.66s.6,1.64,1.57,1.64A2.24,2.24,0,0,0,60.2,24.83Z"/><path class="cls-1" d="M64,28a1.56,1.56,0,0,1,.47-1.27,7.62,7.62,0,0,0,2.46.43c1.19,0,1.88-.42,1.88-1.33s-1-1.21-2.13-1.53-2.54-.92-2.54-2.67,1.1-2.83,3.39-2.83a5.89,5.89,0,0,1,2.59.49,1.63,1.63,0,0,1-.45,1.26,6.65,6.65,0,0,0-1.94-.31c-1.26,0-1.88.47-1.88,1.32s1.12,1.11,2.24,1.47,2.48.94,2.48,2.74S69.42,28.66,67,28.66A7.3,7.3,0,0,1,64,28Z"/><path class="cls-1" d="M77.68,27.87a1.88,1.88,0,0,1-.09.63,5.34,5.34,0,0,1-1.39.16c-2.23,0-3-1.17-3-3.45V20.34H71.79a1.78,1.78,0,0,1-.11-.66,1.68,1.68,0,0,1,.11-.69h1.37V17.27a3.08,3.08,0,0,1,1.8-.35V19h2.36a2.08,2.08,0,0,1,.09.67,2.35,2.35,0,0,1-.09.68H75v4.79c0,1.57.48,2.09,1.75,2.09a5.59,5.59,0,0,0,.82-.07A1.59,1.59,0,0,1,77.68,27.87Z"/><path class="cls-1" d="M78.92,23.73c0-3.57,1.55-4.92,4-4.92s4,1.35,4,4.92-1.53,4.93-4,4.93S78.92,27.31,78.92,23.73Zm6.19,0c0-2.76-.83-3.53-2.16-3.53s-2.16.77-2.16,3.53.83,3.55,2.16,3.55S85.11,26.48,85.11,23.73Z"/><path class="cls-1" d="M88.6,28a1.59,1.59,0,0,1,.47-1.27,7.64,7.64,0,0,0,2.47.43c1.18,0,1.87-.42,1.87-1.33s-1-1.21-2.13-1.53-2.53-.92-2.53-2.67,1.09-2.83,3.38-2.83a5.86,5.86,0,0,1,2.59.49,1.63,1.63,0,0,1-.45,1.26,6.65,6.65,0,0,0-1.94-.31c-1.26,0-1.87.47-1.87,1.32s1.11,1.11,2.23,1.47,2.48.94,2.48,2.74-1.11,2.88-3.49,2.88A7.34,7.34,0,0,1,88.6,28Z"/><path class="cls-1" d="M96.79,23.73c0-3.57,1.55-4.92,4-4.92s4,1.35,4,4.92-1.53,4.93-4,4.93S96.79,27.31,96.79,23.73Zm6.2,0c0-2.76-.83-3.53-2.17-3.53s-2.16.77-2.16,3.53.83,3.55,2.16,3.55S103,26.48,103,23.73Z"/><path class="cls-1" d="M108.74,28.37,106,19.1a3,3,0,0,1,.9-.11,1.85,1.85,0,0,1,.79.11l1.69,5.58a11.41,11.41,0,0,1,.38,2h0a14.88,14.88,0,0,1,.42-2l1.65-5.58a4.43,4.43,0,0,1,1-.11,3,3,0,0,1,.9.11l1.62,5.55a11.78,11.78,0,0,1,.38,2h0a15.08,15.08,0,0,1,.43-2l1.68-5.57a2.49,2.49,0,0,1,.81-.11,2.15,2.15,0,0,1,.79.11l-2.72,9.27a5,5,0,0,1-1,.11,4.85,4.85,0,0,1-1-.11l-1.44-4.84a11.49,11.49,0,0,1-.51-2.72h0a12.53,12.53,0,0,1-.54,2.72l-1.44,4.84a4.87,4.87,0,0,1-1,.11A5.21,5.21,0,0,1,108.74,28.37Z"/><path class="cls-1" d="M127.9,22.34v6a2,2,0,0,1-.74.11,2.13,2.13,0,0,1-.74-.11l-.25-1.2a2.89,2.89,0,0,1-2.85,1.49c-1.71,0-2.79-1-2.79-3s1.17-2.83,3.48-2.83a20.69,20.69,0,0,1,2.09.11v-.74c0-1.27-.56-1.9-1.91-1.9a7.62,7.62,0,0,0-2.41.43,1.24,1.24,0,0,1-.4-.54,1.75,1.75,0,0,1-.13-.76,8.3,8.3,0,0,1,3.19-.65C127.07,18.81,127.9,20,127.9,22.34Zm-1.8,2.49v-.67c-.42,0-1.16-.11-1.84-.11-1.26,0-1.89.47-1.89,1.66s.59,1.64,1.57,1.64A2.25,2.25,0,0,0,126.1,24.83Z"/><path class="cls-1" d="M130.4,28.37V19.1a2.8,2.8,0,0,1,.9-.11,3,3,0,0,1,.9.11V20A3.6,3.6,0,0,1,135,18.81a2.52,2.52,0,0,1,2.77,2.7v6.86a3,3,0,0,1-.9.11,2.8,2.8,0,0,1-.9-.11v-6.5c0-1-.54-1.6-1.67-1.6a2.52,2.52,0,0,0-2.09,1.24v6.86a3,3,0,0,1-.9.11A2.8,2.8,0,0,1,130.4,28.37Z"/><path class="cls-1" d="M140.24,17V15.41a3.17,3.17,0,0,1,1-.11,3.46,3.46,0,0,1,1,.11V17a3.46,3.46,0,0,1-1,.11A3.17,3.17,0,0,1,140.24,17Zm.06,11.34V19.1a2.65,2.65,0,0,1,.9-.11,3,3,0,0,1,.9.11v9.27a3,3,0,0,1-.9.11A2.8,2.8,0,0,1,140.3,28.37Z"/><path class="cls-1" d="M151.59,24.29h-5.42c.14,2.14,1,2.84,2.5,2.84a4.1,4.1,0,0,0,2.1-.54,1.87,1.87,0,0,1,.6,1.28,5.23,5.23,0,0,1-3,.79c-2.7,0-4-1.65-4-4.95s1.59-4.9,4-4.9,3.49,1.26,3.49,3.59A8.58,8.58,0,0,1,151.59,24.29Zm-5.44-1.23h3.9a5.17,5.17,0,0,0,.06-.86c0-1.1-.49-2-1.8-2S146.29,21,146.15,23.06Z"/><path class="cls-1" d="M157.67,22.36c0-4.45,1.6-6.32,4.52-6.32s4.55,1.82,4.55,6.32-1.65,6.32-4.55,6.32S157.67,26.84,157.67,22.36Zm7.09,0c0-3.71-.85-4.82-2.57-4.82s-2.58,1.11-2.58,4.82.88,4.81,2.58,4.81S164.76,26,164.76,22.36Z"/><path class="cls-1" d="M168.9,30.27a3.1,3.1,0,0,0,.66-1.79,2.09,2.09,0,0,1-.63-.11V26.63a3.51,3.51,0,0,1,1-.11,3.38,3.38,0,0,1,1,.11v1.22a3.74,3.74,0,0,1-1.26,2.86Z"/><path class="cls-1" d="M180.35,26.88a2.08,2.08,0,0,1,0,1.6H173a7,7,0,0,1-.12-1.24c0-2.79,1.82-3.76,3.47-4.84s2.45-1.64,2.45-3c0-1-.65-1.87-2.34-1.87a8.19,8.19,0,0,0-2.63.5,1.4,1.4,0,0,1-.52-1.29,8.47,8.47,0,0,1,3.44-.69c2.23,0,3.94.94,3.94,3.3,0,2.16-1.26,3-3.38,4.28-1.1.67-2.6,1.28-2.63,2.81,0,.16,0,.31,0,.45Z"/><path class="cls-1" d="M182.31,19.16c0-2.22.93-3.12,2.48-3.12s2.49.86,2.49,3.12-.94,3.11-2.49,3.11S182.31,21.41,182.31,19.16Zm3.62,0c0-1.66-.43-2.08-1.14-2.08s-1.13.42-1.13,2.08.41,2.05,1.13,2.05S185.93,20.83,185.93,19.16Zm-1.66,9.39L191.22,16a1.82,1.82,0,0,1,.72-.11,2,2,0,0,1,.74.11l-7,12.6a1.88,1.88,0,0,1-.74.11A1.76,1.76,0,0,1,184.27,28.55Zm5.29-3c0-2.24.92-3.14,2.47-3.14s2.5.87,2.5,3.14-.95,3.11-2.5,3.11S189.56,27.8,189.56,25.55Zm3.61,0c0-1.66-.44-2.07-1.14-2.07s-1.13.41-1.13,2.07.43,2,1.13,2S193.17,27.22,193.17,25.55Z"/><path class="cls-1" d="M200.24,22c0-4.38,1.8-6.68,5.25-6.68a6.77,6.77,0,0,1,3.14.63,1.79,1.79,0,0,1-.56,1.35,6.85,6.85,0,0,0-2.34-.41c-2.11,0-3.51,1.11-3.51,5.13s1.4,5.08,3.51,5.08a7.21,7.21,0,0,0,2.52-.44,1.93,1.93,0,0,1,.57,1.37,7.26,7.26,0,0,1-3.33.65C202,28.68,200.24,26.41,200.24,22Z"/><path class="cls-1" d="M218,21.51v6.86a3,3,0,0,1-.9.11,2.8,2.8,0,0,1-.9-.11v-6.5c0-1-.54-1.6-1.67-1.6a2.54,2.54,0,0,0-2.09,1.24v6.86a3,3,0,0,1-.9.11,2.8,2.8,0,0,1-.9-.11V15.09a2.8,2.8,0,0,1,.9-.11,3,3,0,0,1,.9.11V20a3.67,3.67,0,0,1,2.79-1.19A2.52,2.52,0,0,1,218,21.51Z"/><path class="cls-1" d="M220.58,28.37V15.09a2.65,2.65,0,0,1,.9-.11,3,3,0,0,1,.9.11V28.37a3,3,0,0,1-.9.11A2.65,2.65,0,0,1,220.58,28.37Z"/><path class="cls-1" d="M224.61,23.73c0-3.57,1.55-4.92,4-4.92s4,1.35,4,4.92-1.53,4.93-4,4.93S224.61,27.31,224.61,23.73Zm6.19,0c0-2.76-.83-3.53-2.16-3.53s-2.16.77-2.16,3.53.83,3.55,2.16,3.55S230.8,26.48,230.8,23.73Z"/><path class="cls-1" d="M234.83,28.37V19.1a2.8,2.8,0,0,1,.9-.11,2.28,2.28,0,0,1,.85.11l0,1.3a2.64,2.64,0,0,1,2.32-1.57,2.82,2.82,0,0,1,1.55.45,2.21,2.21,0,0,1-.79,1.5,1.75,1.75,0,0,0-1.12-.36,2.43,2.43,0,0,0-1.93,1.45v6.5a2.87,2.87,0,0,1-.9.11A2.8,2.8,0,0,1,234.83,28.37Z"/><path class="cls-1" d="M249.32,21.51v6.86a3,3,0,0,1-.9.11,2.8,2.8,0,0,1-.9-.11v-6.5c0-1-.54-1.6-1.67-1.6a2.54,2.54,0,0,0-2.09,1.24v6.86a3,3,0,0,1-.9.11,2.8,2.8,0,0,1-.9-.11V15.09a2.8,2.8,0,0,1,.9-.11,3,3,0,0,1,.9.11V20a3.67,3.67,0,0,1,2.79-1.19A2.52,2.52,0,0,1,249.32,21.51Z"/><path class="cls-1" d="M258.7,24.29h-5.42c.15,2.14,1,2.84,2.5,2.84a4.16,4.16,0,0,0,2.11-.54,1.87,1.87,0,0,1,.6,1.28,5.23,5.23,0,0,1-3,.79c-2.7,0-4-1.65-4-4.95s1.58-4.9,4-4.9,3.49,1.26,3.49,3.59A8.17,8.17,0,0,1,258.7,24.29Zm-5.44-1.23h3.91a5.3,5.3,0,0,0,.05-.86c0-1.1-.48-2-1.79-2S253.41,21,253.26,23.06Z"/><path class="cls-1" d="M268.62,28.36a3.86,3.86,0,0,1-1,.12,3.6,3.6,0,0,1-1-.12l-2.68-4.14H262.8v4.15a2.8,2.8,0,0,1-.88.11,3.36,3.36,0,0,1-.92-.11V15.07a4.17,4.17,0,0,1,.92-.09,4,4,0,0,1,.88.09v7.78H264l2.4-3.75a3.14,3.14,0,0,1,.93-.11,3.41,3.41,0,0,1,.91.11l-2.72,4.3Z"/><path class="cls-1" d="M269.57,28a1.56,1.56,0,0,1,.47-1.27,7.64,7.64,0,0,0,2.47.43c1.18,0,1.87-.42,1.87-1.33s-1.05-1.21-2.13-1.53-2.54-.92-2.54-2.67,1.1-2.83,3.39-2.83a5.89,5.89,0,0,1,2.59.49,1.63,1.63,0,0,1-.45,1.26,6.65,6.65,0,0,0-1.94-.31c-1.26,0-1.87.47-1.87,1.32s1.11,1.11,2.23,1.47,2.48.94,2.48,2.74-1.11,2.88-3.49,2.88A7.34,7.34,0,0,1,269.57,28Z"/><path class="cls-1" d="M286.06,19.1,282.5,30c-.62,1.91-1.3,3-3.17,3a3.81,3.81,0,0,1-1.19-.16,1.7,1.7,0,0,1-.13-.68,1.46,1.46,0,0,1,.17-.7,4.06,4.06,0,0,0,.82.09c.87,0,1.32-.29,1.84-1.86l.4-1.19a1.52,1.52,0,0,1-.56-.12l-3.44-9.26a3.18,3.18,0,0,1,.94-.11,3.06,3.06,0,0,1,.93.11l2.09,5.51a16,16,0,0,1,.63,2.13h.05a21.74,21.74,0,0,1,.58-2.13l1.84-5.51a2.65,2.65,0,0,1,.88-.11A3,3,0,0,1,286.06,19.1Z"/><path class="cls-1" d="M295.17,15.09V28.37a2.55,2.55,0,0,1-.78.11,2.69,2.69,0,0,1-.8-.11l-.13-1a2.93,2.93,0,0,1-2.7,1.33c-2.07,0-3.42-1.24-3.42-4.91s1.33-4.94,3.42-4.94A2.89,2.89,0,0,1,293.37,20V15.09a3,3,0,0,1,.92-.11A2.73,2.73,0,0,1,295.17,15.09Zm-1.8,9.83v-2.4a2.09,2.09,0,0,0-2-2.25c-1.48,0-2.16.83-2.16,3.48s.68,3.45,2.16,3.45A2.08,2.08,0,0,0,293.37,24.92Z"/><path class="cls-1" d="M305.64,19.1,302.08,30c-.61,1.91-1.3,3-3.17,3a3.85,3.85,0,0,1-1.19-.16,1.82,1.82,0,0,1-.12-.68,1.53,1.53,0,0,1,.16-.7,4.19,4.19,0,0,0,.83.09c.86,0,1.31-.29,1.83-1.86l.4-1.19a1.52,1.52,0,0,1-.56-.12l-3.44-9.26a3.26,3.26,0,0,1,.94-.11,3,3,0,0,1,.93.11l2.09,5.51a16,16,0,0,1,.63,2.13h.06s.18-.89.57-2.13l1.84-5.51a2.73,2.73,0,0,1,.88-.11A3,3,0,0,1,305.64,19.1Z"/><path class="cls-1" d="M307.3,28.37V19.1a2.8,2.8,0,0,1,.9-.11,3,3,0,0,1,.9.11V20a3.6,3.6,0,0,1,2.79-1.23,2.52,2.52,0,0,1,2.77,2.7v6.86a3,3,0,0,1-.9.11,2.8,2.8,0,0,1-.9-.11v-6.5c0-1-.54-1.6-1.67-1.6a2.54,2.54,0,0,0-2.09,1.24v6.86a3,3,0,0,1-.9.11A2.8,2.8,0,0,1,307.3,28.37Z"/><path class="cls-1" d="M325.07,19.1,321.5,30c-.61,1.91-1.29,3-3.17,3a3.85,3.85,0,0,1-1.19-.16,1.82,1.82,0,0,1-.12-.68,1.53,1.53,0,0,1,.16-.7,4.19,4.19,0,0,0,.83.09c.86,0,1.31-.29,1.84-1.86l.39-1.19a1.52,1.52,0,0,1-.56-.12l-3.44-9.26a3.26,3.26,0,0,1,.94-.11,3.1,3.1,0,0,1,.94.11l2.09,5.51a16,16,0,0,1,.63,2.13h.05a21.74,21.74,0,0,1,.58-2.13l1.83-5.51a2.73,2.73,0,0,1,.88-.11A3.08,3.08,0,0,1,325.07,19.1Z"/><path class="cls-1" d="M337.09,27.76a1.79,1.79,0,0,1-.13.72h-6.73a2.47,2.47,0,0,1,0-1.46L335,20.45h-4.5a2.28,2.28,0,0,1-.11-.74,2,2,0,0,1,.11-.72H337a2.41,2.41,0,0,1,.1.69,3.2,3.2,0,0,1-.1.77L332.14,27H337A1.79,1.79,0,0,1,337.09,27.76Z"/><path class="cls-1" d="M339.14,28.37V19.1A2.8,2.8,0,0,1,340,19a3,3,0,0,1,.9.11V20a3.4,3.4,0,0,1,2.67-1.21A2.36,2.36,0,0,1,346,20.22a3.59,3.59,0,0,1,3-1.41,2.47,2.47,0,0,1,2.64,2.72v6.84a3,3,0,0,1-.9.11,2.8,2.8,0,0,1-.9-.11v-6.5c0-1.06-.48-1.6-1.54-1.6a2.24,2.24,0,0,0-2,1.26v6.84a3,3,0,0,1-.9.11,2.8,2.8,0,0,1-.9-.11v-6.5c0-1.06-.48-1.6-1.55-1.6a2.36,2.36,0,0,0-2,1.24v6.86a3,3,0,0,1-.9.11A2.8,2.8,0,0,1,339.14,28.37Z"/><path class="cls-1" d="M354.06,28.37V19.1A2.8,2.8,0,0,1,355,19a2.87,2.87,0,0,1,.9.11V20a3.61,3.61,0,0,1,2.79-1.23,2.52,2.52,0,0,1,2.78,2.7v6.86a3.11,3.11,0,0,1-.9.11,2.72,2.72,0,0,1-.9-.11v-6.5c0-1-.54-1.6-1.68-1.6a2.54,2.54,0,0,0-2.09,1.24v6.86a2.87,2.87,0,0,1-.9.11A2.8,2.8,0,0,1,354.06,28.37Z"/><path class="cls-1" d="M363.91,17V15.41a3.06,3.06,0,0,1,.95-.11,3.46,3.46,0,0,1,1,.11V17a3.46,3.46,0,0,1-1,.11A3.06,3.06,0,0,1,363.91,17Zm0,11.34V19.1a2.65,2.65,0,0,1,.9-.11,2.87,2.87,0,0,1,.9.11v9.27a2.87,2.87,0,0,1-.9.11A2.8,2.8,0,0,1,364,28.37Z"/><path class="cls-1" d="M375.25,24.29h-5.42c.14,2.14,1,2.84,2.5,2.84a4.16,4.16,0,0,0,2.11-.54,1.86,1.86,0,0,1,.59,1.28,5.18,5.18,0,0,1-3,.79c-2.7,0-4-1.65-4-4.95s1.59-4.9,4-4.9,3.5,1.26,3.5,3.59A8.17,8.17,0,0,1,375.25,24.29Zm-5.44-1.23h3.91a5.3,5.3,0,0,0,0-.86c0-1.1-.48-2-1.8-2S370,21,369.81,23.06Z"/><path class="cls-1" d="M375.44,32.79a1.28,1.28,0,0,1-.07-.42,1.8,1.8,0,0,1,.2-.92,3.08,3.08,0,0,0,.69.08c.88,0,1.34-.45,1.34-1.55V19.1a2.76,2.76,0,0,1,.91-.11,3.11,3.11,0,0,1,.9.11v11c0,1.92-.94,2.91-2.67,2.91A3.64,3.64,0,0,1,375.44,32.79ZM377.53,17V15.39a3.41,3.41,0,0,1,1-.11,3.14,3.14,0,0,1,.93.11V17a3.14,3.14,0,0,1-.93.11A3.41,3.41,0,0,1,377.53,17Z"/><path class="cls-1" d="M381.47,28a1.62,1.62,0,0,1,.47-1.27,7.68,7.68,0,0,0,2.47.43c1.19,0,1.87-.42,1.87-1.33s-1-1.21-2.12-1.53c-1.23-.36-2.54-.92-2.54-2.67s1.1-2.83,3.38-2.83a6,6,0,0,1,2.6.49,1.7,1.7,0,0,1-.45,1.26,6.72,6.72,0,0,0-1.95-.31c-1.26,0-1.87.47-1.87,1.32s1.12,1.11,2.23,1.47,2.49.94,2.49,2.74-1.12,2.88-3.5,2.88A7.34,7.34,0,0,1,381.47,28Z"/><path class="cls-1" d="M396.42,27.76a1.79,1.79,0,0,1-.13.72h-6.73a2.16,2.16,0,0,1-.11-.77,2.12,2.12,0,0,1,.11-.69l4.8-6.57h-4.5a2.48,2.48,0,0,1-.1-.74,2.19,2.19,0,0,1,.1-.72h6.41a2.07,2.07,0,0,1,.11.69,2.74,2.74,0,0,1-.11.77L391.47,27h4.82A1.79,1.79,0,0,1,396.42,27.76Z"/><path class="cls-1" d="M405.26,22.34v6a2.07,2.07,0,0,1-.74.11,2.13,2.13,0,0,1-.74-.11l-.25-1.2a2.89,2.89,0,0,1-2.85,1.49c-1.71,0-2.79-1-2.79-3s1.17-2.83,3.48-2.83a20.29,20.29,0,0,1,2.08.11v-.74c0-1.27-.55-1.9-1.9-1.9a7.72,7.72,0,0,0-2.42.43,1.36,1.36,0,0,1-.39-.54,1.75,1.75,0,0,1-.13-.76,8.3,8.3,0,0,1,3.19-.65C404.43,18.81,405.26,20,405.26,22.34Zm-1.81,2.49v-.67c-.41,0-1.15-.11-1.83-.11-1.26,0-1.89.47-1.89,1.66s.59,1.64,1.56,1.64A2.24,2.24,0,0,0,403.45,24.83Z"/><path class="cls-1" d="M411.77,28.37V19.1a2.8,2.8,0,0,1,.9-.11,2.18,2.18,0,0,1,.84.11l0,1.3a2.67,2.67,0,0,1,2.33-1.57,2.79,2.79,0,0,1,1.54.45,2.13,2.13,0,0,1-.79,1.5,1.7,1.7,0,0,0-1.11-.36,2.41,2.41,0,0,0-1.93,1.45v6.5a3,3,0,0,1-.9.11A2.8,2.8,0,0,1,411.77,28.37Z"/><path class="cls-1" d="M426.8,19.1,423.24,30c-.62,1.91-1.3,3-3.17,3a3.81,3.81,0,0,1-1.19-.16,1.7,1.7,0,0,1-.13-.68,1.46,1.46,0,0,1,.17-.7,4.16,4.16,0,0,0,.82.09c.87,0,1.32-.29,1.84-1.86l.4-1.19a1.52,1.52,0,0,1-.56-.12L418,19.1a3.18,3.18,0,0,1,.94-.11,3,3,0,0,1,.93.11l2.09,5.51a16,16,0,0,1,.63,2.13h.05a21.74,21.74,0,0,1,.58-2.13L425,19.1a2.65,2.65,0,0,1,.88-.11A3,3,0,0,1,426.8,19.1Z"/><path class="cls-1" d="M434.81,27.76a1.79,1.79,0,0,1-.13.72H428A2.47,2.47,0,0,1,428,27l4.81-6.57h-4.5a2.28,2.28,0,0,1-.11-.74,2,2,0,0,1,.11-.72h6.41a2.41,2.41,0,0,1,.1.69,3.2,3.2,0,0,1-.1.77L429.86,27h4.82A1.79,1.79,0,0,1,434.81,27.76Z"/><path class="cls-1" d="M444.76,19.1,441.2,30c-.61,1.91-1.3,3-3.17,3a3.81,3.81,0,0,1-1.19-.16,1.82,1.82,0,0,1-.12-.68,1.53,1.53,0,0,1,.16-.7,4.19,4.19,0,0,0,.83.09c.86,0,1.31-.29,1.83-1.86l.4-1.19a1.52,1.52,0,0,1-.56-.12l-3.44-9.26a3.26,3.26,0,0,1,.94-.11,3,3,0,0,1,.93.11l2.09,5.51a16,16,0,0,1,.63,2.13h.06s.18-.89.57-2.13L443,19.1a2.73,2.73,0,0,1,.88-.11A3,3,0,0,1,444.76,19.1Z"/><path class="cls-1" d="M454,28.36a3.73,3.73,0,0,1-1,.12,3.51,3.51,0,0,1-1-.12l-2.69-4.14h-1.13v4.15a2.88,2.88,0,0,1-.88.11,3.27,3.27,0,0,1-.92-.11V15.07a4.17,4.17,0,0,1,.92-.09,4,4,0,0,1,.88.09v7.78h1.17l2.39-3.75a3.26,3.26,0,0,1,.94-.11,3.38,3.38,0,0,1,.9.11l-2.72,4.3Z"/><path class="cls-1" d="M454.82,23.73c0-3.57,1.55-4.92,4-4.92s4,1.35,4,4.92-1.53,4.93-4,4.93S454.82,27.31,454.82,23.73Zm6.2,0c0-2.76-.83-3.53-2.16-3.53s-2.16.77-2.16,3.53.82,3.55,2.16,3.55S461,26.48,461,23.73Z"/><path class="cls-1" d="M46.38,50,43.66,40.7a3,3,0,0,1,.9-.11,1.85,1.85,0,0,1,.79.11L47,46.28a11.41,11.41,0,0,1,.38,2h0a14.88,14.88,0,0,1,.42-2l1.65-5.58a4.43,4.43,0,0,1,1-.11,3,3,0,0,1,.9.11L53,46.25a11.78,11.78,0,0,1,.38,2h.05a17.48,17.48,0,0,1,.43-2l1.68-5.56a2.49,2.49,0,0,1,.81-.11,2.15,2.15,0,0,1,.79.11L54.44,50a4.74,4.74,0,0,1-2,0L51,45.13a11.49,11.49,0,0,1-.51-2.72h-.05a12.53,12.53,0,0,1-.54,2.72L48.43,50a4.79,4.79,0,0,1-1,.11A5,5,0,0,1,46.38,50Z"/><path class="cls-1" d="M66.75,40.7,63.19,51.58c-.61,1.91-1.3,3-3.17,3a3.81,3.81,0,0,1-1.19-.16,1.82,1.82,0,0,1-.12-.68,1.53,1.53,0,0,1,.16-.7,4.39,4.39,0,0,0,.83.08c.86,0,1.31-.28,1.83-1.85l.4-1.19a1.52,1.52,0,0,1-.56-.12L57.93,40.7a3.26,3.26,0,0,1,.94-.11,3,3,0,0,1,.93.11l2.09,5.51a16,16,0,0,1,.63,2.13h.06s.18-.89.57-2.13L65,40.7a2.73,2.73,0,0,1,.88-.11A3,3,0,0,1,66.75,40.7Z"/><path class="cls-1" d="M67.74,49.61a1.56,1.56,0,0,1,.47-1.27,7.64,7.64,0,0,0,2.47.43c1.18,0,1.87-.42,1.87-1.33s-1-1.21-2.13-1.53-2.54-.92-2.54-2.67,1.1-2.83,3.39-2.83a5.89,5.89,0,0,1,2.59.49,1.63,1.63,0,0,1-.45,1.26,6.65,6.65,0,0,0-1.94-.31c-1.26,0-1.87.47-1.87,1.32s1.11,1.11,2.23,1.47,2.48.94,2.48,2.74-1.11,2.88-3.49,2.88A7.34,7.34,0,0,1,67.74,49.61Z"/><path class="cls-1" d="M81.46,49.47a1.88,1.88,0,0,1-.09.63,5.34,5.34,0,0,1-1.39.16c-2.23,0-3-1.17-3-3.46V41.94H75.57a1.78,1.78,0,0,1-.11-.66,1.68,1.68,0,0,1,.11-.69h1.37V38.86a3.15,3.15,0,0,1,1.8-.34v2.07H81.1a2.08,2.08,0,0,1,.09.67,2.35,2.35,0,0,1-.09.68H78.74v4.79c0,1.57.49,2.09,1.75,2.09a5.59,5.59,0,0,0,.82-.07A1.59,1.59,0,0,1,81.46,49.47Z"/><path class="cls-1" d="M89.9,54.15a3,3,0,0,1-1.62.43c-1.12,0-1.77-.55-1.77-1.58a4.44,4.44,0,0,1,1.91-3l-.28-1.16a2.85,2.85,0,0,1-2.83,1.46c-1.71,0-2.79-1-2.79-3s1.17-2.83,3.47-2.83a20.52,20.52,0,0,1,2.09.11v-.74c0-1.27-.56-1.9-1.91-1.9a7.62,7.62,0,0,0-2.41.43,1.33,1.33,0,0,1-.4-.54,1.67,1.67,0,0,1-.12-.76,8.24,8.24,0,0,1,3.19-.65c2.62,0,3.45,1.19,3.45,3.53v6a4.25,4.25,0,0,0-1.73,2.67c0,.45.26.66.58.66a1.92,1.92,0,0,0,.72-.19A1.53,1.53,0,0,1,89.9,54.15Zm-1.82-7.72v-.67c-.39,0-1.13-.11-1.83-.11-1.27,0-1.9.47-1.9,1.66S85,49,85.92,49A2.24,2.24,0,0,0,88.08,46.43Z"/><path class="cls-1" d="M100.23,45.33c0,3.69-1.35,4.93-3.42,4.93A2.89,2.89,0,0,1,94.18,49v5.17a3.14,3.14,0,0,1-.9.1,3.23,3.23,0,0,1-.9-.1V40.7a3,3,0,0,1,.9-.11,2.87,2.87,0,0,1,.9.11v.94a2.86,2.86,0,0,1,2.63-1.23C98.86,40.41,100.23,41.64,100.23,45.33Zm-1.89,0c0-2.65-.68-3.46-2.16-3.46a2.09,2.09,0,0,0-2,2.27v2.32a2.13,2.13,0,0,0,2,2.34C97.66,48.8,98.34,48,98.34,45.33Z"/><path class="cls-1" d="M102.41,38.63V37a3.06,3.06,0,0,1,1-.11,3.46,3.46,0,0,1,1,.11v1.62a3.46,3.46,0,0,1-1,.11A3.06,3.06,0,0,1,102.41,38.63Zm0,11.34V40.7a2.65,2.65,0,0,1,.9-.11,2.87,2.87,0,0,1,.9.11V50a2.87,2.87,0,0,1-.9.11A2.8,2.8,0,0,1,102.46,50Z"/><path class="cls-1" d="M113.75,45.89h-5.42c.14,2.14,1,2.84,2.5,2.84a4.16,4.16,0,0,0,2.11-.54,1.86,1.86,0,0,1,.59,1.28,5.18,5.18,0,0,1-3,.79c-2.7,0-4-1.65-4-4.95s1.59-4.9,4-4.9S114,41.67,114,44A8.17,8.17,0,0,1,113.75,45.89Zm-5.44-1.23h3.91a5.3,5.3,0,0,0,0-.86c0-1.1-.48-2-1.8-2S108.46,42.61,108.31,44.66Z"/><path class="cls-1" d="M116.05,50V40.7a2.8,2.8,0,0,1,.9-.11,2.87,2.87,0,0,1,.9.11v.94a3.61,3.61,0,0,1,2.79-1.23,2.52,2.52,0,0,1,2.78,2.7V50a3.11,3.11,0,0,1-.9.11,2.72,2.72,0,0,1-.9-.11v-6.5c0-1-.54-1.6-1.68-1.6a2.54,2.54,0,0,0-2.09,1.24V50a2.87,2.87,0,0,1-.9.11A2.8,2.8,0,0,1,116.05,50Z"/><path class="cls-1" d="M125.9,38.63V37a3.06,3.06,0,0,1,.95-.11,3.46,3.46,0,0,1,1,.11v1.62a3.46,3.46,0,0,1-1,.11A3.06,3.06,0,0,1,125.9,38.63ZM126,50V40.7a2.65,2.65,0,0,1,.9-.11,2.87,2.87,0,0,1,.9.11V50a2.87,2.87,0,0,1-.9.11A2.8,2.8,0,0,1,126,50Z"/><path class="cls-1" d="M137.15,43.94v6a2,2,0,0,1-.74.11,2.13,2.13,0,0,1-.74-.11l-.25-1.2a2.88,2.88,0,0,1-2.84,1.49c-1.71,0-2.79-1-2.79-3s1.17-2.83,3.47-2.83a20.52,20.52,0,0,1,2.09.11v-.74c0-1.27-.56-1.9-1.91-1.9a7.62,7.62,0,0,0-2.41.43,1.33,1.33,0,0,1-.4-.54,1.67,1.67,0,0,1-.12-.76,8.22,8.22,0,0,1,3.18-.65C136.32,40.41,137.15,41.6,137.15,43.94Zm-1.8,2.49v-.67c-.42,0-1.15-.11-1.84-.11-1.26,0-1.89.47-1.89,1.66s.6,1.64,1.57,1.64A2.25,2.25,0,0,0,135.35,46.43Z"/><path class="cls-1" d="M151.51,45.33c0,3.69-1.35,4.93-3.42,4.93A2.9,2.9,0,0,1,145.46,49v5.17a3.14,3.14,0,0,1-.9.1,3.23,3.23,0,0,1-.9-.1V40.7a3,3,0,0,1,.9-.11,2.87,2.87,0,0,1,.9.11v.94a2.87,2.87,0,0,1,2.63-1.23C150.15,40.41,151.51,41.64,151.51,45.33Zm-1.89,0c0-2.65-.68-3.46-2.16-3.46a2.09,2.09,0,0,0-2,2.27v2.32a2.13,2.13,0,0,0,2,2.34C148.94,48.8,149.62,48,149.62,45.33Z"/><path class="cls-1" d="M153.31,45.33c0-3.57,1.55-4.92,4-4.92s4,1.35,4,4.92-1.53,4.93-4,4.93S153.31,48.91,153.31,45.33Zm6.2,0c0-2.76-.83-3.53-2.17-3.53s-2.16.77-2.16,3.53.83,3.55,2.16,3.55S159.51,48.08,159.51,45.33Z"/><path class="cls-1" d="M165.25,50l-2.72-9.27a3,3,0,0,1,.9-.11,1.85,1.85,0,0,1,.79.11l1.69,5.58a11.41,11.41,0,0,1,.38,2h.05a14.88,14.88,0,0,1,.42-2l1.65-5.58a4.43,4.43,0,0,1,1-.11,3,3,0,0,1,.9.11l1.62,5.55a11.78,11.78,0,0,1,.38,2h0a17.48,17.48,0,0,1,.43-2l1.68-5.56a2.49,2.49,0,0,1,.81-.11,2.15,2.15,0,0,1,.79.11L173.31,50a4.74,4.74,0,0,1-2,0l-1.44-4.84a11.49,11.49,0,0,1-.51-2.72h-.05a11.93,11.93,0,0,1-.54,2.72L167.3,50a4.79,4.79,0,0,1-1,.11A5,5,0,0,1,165.25,50Z"/><path class="cls-1" d="M177.7,38.63V37a3.17,3.17,0,0,1,1-.11,3.46,3.46,0,0,1,1,.11v1.62a3.46,3.46,0,0,1-1,.11A3.17,3.17,0,0,1,177.7,38.63ZM177.76,50V40.7a2.58,2.58,0,0,1,.9-.11,3,3,0,0,1,.9.11V50a3,3,0,0,1-.9.11A2.72,2.72,0,0,1,177.76,50Z"/><path class="cls-1" d="M189.78,50a3.86,3.86,0,0,1-1,.12,3.6,3.6,0,0,1-1-.12l-2.68-4.15H184V50a2.92,2.92,0,0,1-.89.11,3.36,3.36,0,0,1-.92-.11V36.67a4.59,4.59,0,0,1,1.81,0v7.78h1.17l2.39-3.75a3.18,3.18,0,0,1,.94-.11,3.38,3.38,0,0,1,.9.11L186.65,45Z"/><path class="cls-1" d="M194,43v7a3,3,0,0,1-.9.11,2.65,2.65,0,0,1-.9-.11V44l-1.24.72s-.18-.12-.36-.43a1.18,1.18,0,0,1-.22-.54l1.82-1.06v-6a2.65,2.65,0,0,1,.9-.11,3,3,0,0,1,.9.11v5l1.31-.76a1.52,1.52,0,0,1,.36.43,1.37,1.37,0,0,1,.2.56Z"/><path class="cls-1" d="M204.31,43.94v6a2.07,2.07,0,0,1-.74.11,2.13,2.13,0,0,1-.74-.11l-.25-1.2a2.89,2.89,0,0,1-2.85,1.49c-1.71,0-2.79-1-2.79-3s1.17-2.83,3.48-2.83a20.69,20.69,0,0,1,2.09.11v-.74c0-1.27-.56-1.9-1.91-1.9a7.72,7.72,0,0,0-2.42.43,1.36,1.36,0,0,1-.39-.54,1.75,1.75,0,0,1-.13-.76,8.3,8.3,0,0,1,3.19-.65C203.48,40.41,204.31,41.6,204.31,43.94Zm-1.8,2.49v-.67c-.42,0-1.16-.11-1.84-.11-1.26,0-1.89.47-1.89,1.66s.59,1.64,1.57,1.64A2.25,2.25,0,0,0,202.51,46.43Z"/><path class="cls-1" d="M206.81,50V40.7a2.72,2.72,0,0,1,.9-.11,3,3,0,0,1,.9.11v.94a3.6,3.6,0,0,1,2.79-1.23,2.52,2.52,0,0,1,2.77,2.7V50a3,3,0,0,1-.9.11,2.8,2.8,0,0,1-.9-.11v-6.5c0-1-.54-1.6-1.67-1.6a2.52,2.52,0,0,0-2.09,1.24V50a3,3,0,0,1-.9.11A2.72,2.72,0,0,1,206.81,50ZM209,38.81l1.8-2.61a1.79,1.79,0,0,1,1.57.67L210,39.37A1.42,1.42,0,0,1,209,38.81Z"/><path class="cls-1" d="M228.53,45.33c0,3.69-1.35,4.93-3.42,4.93A2.91,2.91,0,0,1,222.48,49v5.17a3.14,3.14,0,0,1-.9.1,3.23,3.23,0,0,1-.9-.1V40.7a3,3,0,0,1,.9-.11,2.87,2.87,0,0,1,.9.11v.94a2.88,2.88,0,0,1,2.63-1.23C227.17,40.41,228.53,41.64,228.53,45.33Zm-1.89,0c0-2.65-.68-3.46-2.16-3.46a2.09,2.09,0,0,0-2,2.27v2.32a2.13,2.13,0,0,0,2,2.34C226,48.8,226.64,48,226.64,45.33Z"/><path class="cls-1" d="M230.33,45.33c0-3.57,1.55-4.92,4-4.92s4,1.35,4,4.92-1.53,4.93-4,4.93S230.33,48.91,230.33,45.33Zm6.2,0c0-2.76-.83-3.53-2.17-3.53s-2.16.77-2.16,3.53.83,3.55,2.16,3.55S236.53,48.08,236.53,45.33Z"/><path class="cls-1" d="M250.93,49.36a1.79,1.79,0,0,1-.13.72h-6.73a2.16,2.16,0,0,1-.11-.77,2.12,2.12,0,0,1,.11-.69l4.8-6.57h-4.5a2.28,2.28,0,0,1-.11-.74,1.94,1.94,0,0,1,.11-.72h6.41a2,2,0,0,1,.11.69,2.74,2.74,0,0,1-.11.77L246,48.62h4.83A1.79,1.79,0,0,1,250.93,49.36Z"/><path class="cls-1" d="M259.76,43.94v6a2,2,0,0,1-.74.11,2.1,2.1,0,0,1-.73-.11l-.26-1.2a2.87,2.87,0,0,1-2.84,1.49c-1.71,0-2.79-1-2.79-3s1.17-2.83,3.47-2.83a20.52,20.52,0,0,1,2.09.11v-.74c0-1.27-.56-1.9-1.91-1.9a7.7,7.7,0,0,0-2.41.43,1.26,1.26,0,0,1-.39-.54,1.6,1.6,0,0,1-.13-.76,8.3,8.3,0,0,1,3.19-.65C258.93,40.41,259.76,41.6,259.76,43.94ZM258,46.43v-.67c-.41,0-1.15-.11-1.83-.11-1.26,0-1.89.47-1.89,1.66S254.83,49,255.8,49A2.24,2.24,0,0,0,258,46.43Z"/><path class="cls-1" d="M270.11,45.35c0,3.67-1.35,4.91-3.44,4.91a3,3,0,0,1-2.61-1.2V50a2.87,2.87,0,0,1-.9.11,3,3,0,0,1-.9-.11V36.69a3,3,0,0,1,.9-.11,2.87,2.87,0,0,1,.9.11v5a2.9,2.9,0,0,1,2.61-1.23C268.76,40.41,270.11,41.66,270.11,45.35Zm-1.89,0c0-2.65-.68-3.48-2.16-3.48a2.09,2.09,0,0,0-2,2.29v2.32a2.1,2.1,0,0,0,2,2.32C267.54,48.8,268.22,48,268.22,45.35Z"/><path class="cls-1" d="M272.27,38.63V37a3.17,3.17,0,0,1,1-.11,3.46,3.46,0,0,1,1,.11v1.62a3.46,3.46,0,0,1-1,.11A3.17,3.17,0,0,1,272.27,38.63ZM272.33,50V40.7a2.65,2.65,0,0,1,.9-.11,3,3,0,0,1,.9.11V50a3,3,0,0,1-.9.11A2.72,2.72,0,0,1,272.33,50Z"/><path class="cls-1" d="M283.61,45.89h-5.42c.15,2.14,1,2.84,2.51,2.84a4.14,4.14,0,0,0,2.1-.54,1.87,1.87,0,0,1,.6,1.28,5.23,5.23,0,0,1-3,.79c-2.7,0-4-1.65-4-4.95s1.58-4.9,4-4.9,3.49,1.26,3.49,3.59A8.17,8.17,0,0,1,283.61,45.89Zm-5.43-1.23h3.9a5.17,5.17,0,0,0,.06-.86c0-1.1-.49-2-1.8-2S278.32,42.61,278.18,44.66Z"/><path class="cls-1" d="M293.68,41.83l-1.48,0a3.36,3.36,0,0,1,.49,1.84c0,2-1.23,3.22-3.57,3.22a5.13,5.13,0,0,1-.81-.06,1.65,1.65,0,0,0-.38,1.1c.18,1.68,5.73-.12,5.73,3.59,0,1.76-1.68,3.09-4.67,3.09-2.68,0-3.87-1-3.87-2.52a3.08,3.08,0,0,1,1.59-2.5,1.42,1.42,0,0,1-.4-1.06,3.11,3.11,0,0,1,.9-2,2.91,2.91,0,0,1-1.66-2.86c0-2,1.27-3.23,3.57-3.23a4.47,4.47,0,0,1,2,.45l2.53-.43A2.23,2.23,0,0,1,293.68,41.83Zm-6,8.23a2.2,2.2,0,0,0-.85,1.64c0,1,.69,1.6,2.18,1.6,1.87,0,2.9-.64,2.9-1.62C291.93,50.12,289.35,50.53,287.7,50.06Zm3.24-6.44c0-1.35-.72-2-1.82-2a1.73,1.73,0,0,0-1.82,2c0,1.38.74,2,1.82,2S290.94,45,290.94,43.62Z"/><path class="cls-1" d="M302.19,43.94v6a2,2,0,0,1-.74.11,2.13,2.13,0,0,1-.74-.11l-.25-1.2a2.88,2.88,0,0,1-2.84,1.49c-1.72,0-2.8-1-2.8-3s1.18-2.83,3.48-2.83a20.52,20.52,0,0,1,2.09.11v-.74c0-1.27-.56-1.9-1.91-1.9a7.62,7.62,0,0,0-2.41.43,1.24,1.24,0,0,1-.4-.54,1.67,1.67,0,0,1-.12-.76,8.22,8.22,0,0,1,3.18-.65C301.36,40.41,302.19,41.6,302.19,43.94Zm-1.8,2.49v-.67c-.42,0-1.15-.11-1.84-.11-1.26,0-1.89.47-1.89,1.66s.6,1.64,1.57,1.64A2.25,2.25,0,0,0,300.39,46.43Z"/><path class="cls-1" d="M304.29,45.35c0-3.24,1.37-4.94,4-4.94a4.86,4.86,0,0,1,2.41.47,1.86,1.86,0,0,1-.54,1.3,3.8,3.8,0,0,0-1.55-.29c-1.72,0-2.44,1.1-2.44,3.46s.77,3.38,2.52,3.38a4.11,4.11,0,0,0,1.65-.32,1.8,1.8,0,0,1,.54,1.28,4.89,4.89,0,0,1-2.59.57C305.66,50.26,304.29,48.59,304.29,45.35Z"/><path class="cls-1" d="M320.1,43.11V50a3.11,3.11,0,0,1-.9.11,2.8,2.8,0,0,1-.9-.11v-6.5c0-1-.54-1.6-1.68-1.6a2.51,2.51,0,0,0-2.08,1.24V50a3,3,0,0,1-.9.11,2.83,2.83,0,0,1-.91-.11V36.69a2.83,2.83,0,0,1,.91-.11,3,3,0,0,1,.9.11V41.6a3.62,3.62,0,0,1,2.79-1.19A2.52,2.52,0,0,1,320.1,43.11Z"/><path class="cls-1" d="M326.22,45.35c0-3.24,1.36-4.94,4-4.94a4.93,4.93,0,0,1,2.42.47,1.86,1.86,0,0,1-.54,1.3,3.86,3.86,0,0,0-1.55-.29c-1.73,0-2.45,1.1-2.45,3.46s.77,3.38,2.52,3.38a4.11,4.11,0,0,0,1.65-.32,1.81,1.81,0,0,1,.55,1.28,5,5,0,0,1-2.6.57C327.58,50.26,326.22,48.59,326.22,45.35Z"/><path class="cls-1" d="M342,43.11V50a3,3,0,0,1-.9.11,2.8,2.8,0,0,1-.9-.11v-6.5c0-1-.54-1.6-1.67-1.6a2.52,2.52,0,0,0-2.09,1.24V50a3,3,0,0,1-.9.11,2.8,2.8,0,0,1-.9-.11V36.69a2.8,2.8,0,0,1,.9-.11,3,3,0,0,1,.9.11V41.6a3.63,3.63,0,0,1,2.79-1.19A2.52,2.52,0,0,1,342,43.11Z"/><path class="cls-1" d="M344.5,38.63V37a3.17,3.17,0,0,1,1-.11,3.46,3.46,0,0,1,1,.11v1.62a3.46,3.46,0,0,1-1,.11A3.17,3.17,0,0,1,344.5,38.63ZM344.56,50V40.7a2.65,2.65,0,0,1,.9-.11,3,3,0,0,1,.9.11V50a3,3,0,0,1-.9.11A2.8,2.8,0,0,1,344.56,50Z"/><path class="cls-1" d="M349,50V40.7a2.8,2.8,0,0,1,.9-.11,2.18,2.18,0,0,1,.84.11l0,1.3a2.62,2.62,0,0,1,2.32-1.57,2.8,2.8,0,0,1,1.55.45,2.13,2.13,0,0,1-.79,1.5,1.71,1.71,0,0,0-1.12-.36,2.4,2.4,0,0,0-1.92,1.45V50a3,3,0,0,1-.9.11A2.8,2.8,0,0,1,349,50Z"/><path class="cls-1" d="M363.41,40.7V50a2.8,2.8,0,0,1-.9.11,3,3,0,0,1-.91-.11V49a3.58,3.58,0,0,1-2.8,1.22,2.51,2.51,0,0,1-2.76-2.7V40.7a3,3,0,0,1,.9-.11,2.8,2.8,0,0,1,.9.11v6.52c0,1,.54,1.6,1.68,1.6a2.54,2.54,0,0,0,2.08-1.26V40.7a3,3,0,0,1,.91-.11A3,3,0,0,1,363.41,40.7Z"/><path class="cls-1" d="M366,50V40.7a2.8,2.8,0,0,1,.9-.11,2.28,2.28,0,0,1,.85.11V42a2.65,2.65,0,0,1,2.33-1.57,2.85,2.85,0,0,1,1.55.45,2.18,2.18,0,0,1-.8,1.5,1.7,1.7,0,0,0-1.11-.36,2.41,2.41,0,0,0-1.93,1.45V50a3,3,0,0,1-.9.11A2.8,2.8,0,0,1,366,50Z"/><path class="cls-1" d="M380.76,41.83l-1.48,0a3.28,3.28,0,0,1,.49,1.84c0,2-1.23,3.22-3.57,3.22a5.13,5.13,0,0,1-.81-.06,1.71,1.71,0,0,0-.38,1.1c.18,1.68,5.73-.12,5.73,3.59,0,1.76-1.67,3.09-4.66,3.09-2.69,0-3.87-1-3.87-2.52a3.07,3.07,0,0,1,1.58-2.5,1.42,1.42,0,0,1-.4-1.06,3.11,3.11,0,0,1,.9-2,2.91,2.91,0,0,1-1.65-2.86c0-2,1.26-3.23,3.56-3.23a4.55,4.55,0,0,1,2,.45l2.52-.43A2.23,2.23,0,0,1,380.76,41.83Zm-6,8.23a2.2,2.2,0,0,0-.85,1.64c0,1,.69,1.6,2.18,1.6,1.87,0,2.9-.64,2.9-1.62C379,50.12,376.44,50.53,374.78,50.06ZM378,43.62c0-1.35-.72-2-1.82-2a1.73,1.73,0,0,0-1.82,2c0,1.38.74,2,1.82,2S378,45,378,43.62Z"/><path class="cls-1" d="M382.54,38.63V37a3.06,3.06,0,0,1,.95-.11,3.46,3.46,0,0,1,1,.11v1.62a3.46,3.46,0,0,1-1,.11A3.06,3.06,0,0,1,382.54,38.63Zm0,11.34V40.7a2.65,2.65,0,0,1,.9-.11,2.87,2.87,0,0,1,.9.11V50a2.87,2.87,0,0,1-.9.11A2.8,2.8,0,0,1,382.59,50Z"/><path class="cls-1" d="M386.6,45.35c0-3.24,1.37-4.94,4-4.94a4.86,4.86,0,0,1,2.41.47,1.78,1.78,0,0,1-.54,1.3,3.78,3.78,0,0,0-1.54-.29c-1.73,0-2.45,1.1-2.45,3.46s.77,3.38,2.52,3.38a4.11,4.11,0,0,0,1.65-.32,1.81,1.81,0,0,1,.55,1.28,5,5,0,0,1-2.6.57C388,50.26,386.6,48.59,386.6,45.35Z"/><path class="cls-1" d="M401.4,49.36a1.92,1.92,0,0,1-.12.72h-6.74a2.47,2.47,0,0,1,0-1.46l4.81-6.57h-4.5a2.28,2.28,0,0,1-.11-.74,1.94,1.94,0,0,1,.11-.72h6.41a2.3,2.3,0,0,1,.11.69,3.16,3.16,0,0,1-.11.77l-4.81,6.57h4.83A1.91,1.91,0,0,1,401.4,49.36Z"/><path class="cls-1" d="M403.45,50V40.7a2.8,2.8,0,0,1,.9-.11,2.87,2.87,0,0,1,.9.11v.94A3.61,3.61,0,0,1,408,40.41a2.52,2.52,0,0,1,2.78,2.7V50a3.11,3.11,0,0,1-.9.11A2.72,2.72,0,0,1,409,50v-6.5c0-1-.54-1.6-1.68-1.6a2.54,2.54,0,0,0-2.09,1.24V50a2.87,2.87,0,0,1-.9.11A2.8,2.8,0,0,1,403.45,50Z"/><path class="cls-1" d="M421.13,40.7l-3.56,10.88c-.62,1.91-1.3,3-3.17,3a3.81,3.81,0,0,1-1.19-.16,1.7,1.7,0,0,1-.13-.68,1.46,1.46,0,0,1,.17-.7,4.35,4.35,0,0,0,.82.08c.87,0,1.32-.28,1.84-1.85l.4-1.19a1.52,1.52,0,0,1-.56-.12l-3.44-9.26a3.18,3.18,0,0,1,.94-.11,3,3,0,0,1,.93.11l2.09,5.51a16,16,0,0,1,.63,2.13H417a21.74,21.74,0,0,1,.58-2.13l1.84-5.51a2.65,2.65,0,0,1,.88-.11A3,3,0,0,1,421.13,40.7Z"/><path class="cls-1" d="M422.19,45.35c0-3.24,1.37-4.94,4-4.94a4.9,4.9,0,0,1,2.41.47,1.86,1.86,0,0,1-.54,1.3,3.8,3.8,0,0,0-1.55-.29c-1.73,0-2.45,1.1-2.45,3.46s.78,3.38,2.52,3.38a4.19,4.19,0,0,0,1.66-.32,1.84,1.84,0,0,1,.54,1.28,4.93,4.93,0,0,1-2.59.57C423.56,50.26,422.19,48.59,422.19,45.35Z"/><path class="cls-1" d="M438,43.11V50a3.11,3.11,0,0,1-.9.11,2.72,2.72,0,0,1-.9-.11v-6.5c0-1-.54-1.6-1.68-1.6a2.54,2.54,0,0,0-2.09,1.24V50a2.87,2.87,0,0,1-.9.11,2.8,2.8,0,0,1-.9-.11V36.69a2.8,2.8,0,0,1,.9-.11,2.87,2.87,0,0,1,.9.11V41.6a3.65,3.65,0,0,1,2.79-1.19A2.52,2.52,0,0,1,438,43.11Z"/><path class="cls-1" d="M439.75,40.73a10.35,10.35,0,0,1,1.46-5.16.89.89,0,0,1,.43.12A.86.86,0,0,1,442,36a9.84,9.84,0,0,0,0,9.49.74.74,0,0,1-.33.31,1,1,0,0,1-.43.1A10.34,10.34,0,0,1,439.75,40.73Z"/><path class="cls-1" d="M447.15,43.15a1.15,1.15,0,0,1,0,.94h-4.29a4.21,4.21,0,0,1-.07-.73c0-1.62,1.06-2.19,2-2.82s1.43-1,1.43-1.75c0-.61-.38-1.1-1.37-1.1a4.48,4.48,0,0,0-1.53.3.83.83,0,0,1-.3-.76,5,5,0,0,1,2-.4c1.31,0,2.3.55,2.3,1.92s-.73,1.76-2,2.5c-.64.39-1.51.75-1.53,1.64a2,2,0,0,0,0,.26Z"/><path class="cls-1" d="M448.54,45.78a.74.74,0,0,1-.32-.31,9.84,9.84,0,0,0,0-9.49.87.87,0,0,1,.32-.29.92.92,0,0,1,.44-.12,9.89,9.89,0,0,1,0,10.31A1,1,0,0,1,448.54,45.78Z"/><polyline class="cls-2" points="13.41 6.57 32.41 34.7 13.41 62.93"/></svg>